<svg width="375" height="191" viewBox="0 0 375 191" fill="none" xmlns="http://www.w3.org/2000/svg">
<mask id="mask0" mask-type="alpha" maskUnits="userSpaceOnUse" x="0" y="0" width="375" height="191">
<rect width="375" height="191" rx="13" fill="white"/>
</mask>
<g mask="url(#mask0)">
<path d="M82.3384 80.829C77.9535 73.068 64.5969 58.5575 54.4085 65.7375C49.325 69.3234 46.7603 77.1302 48.3739 83.0074C48.8954 84.9075 49.8875 86.6473 50.486 88.5229C51.2417 90.9071 51.3481 93.449 50.7943 95.8878C48.7953 104.618 39.0842 109.701 36.2833 118.208C33.999 125.153 37.1721 133.228 43.0362 137.606C48.9003 141.984 56.9306 142.897 63.982 140.966C69.7854 139.378 76.6842 136.958 79.8885 131.575C85.5919 121.999 86.7217 110.431 86.9103 99.292C86.9562 96.5703 86.9529 93.8289 86.4495 91.1546C85.7722 87.495 84.1701 84.0695 82.3384 80.829Z" fill="#28100B"/>
<path d="M5.36646 162.196L22.657 161.633C23.3889 161.609 24.103 161.402 24.7335 161.03C25.3639 160.658 25.8905 160.134 26.2647 159.506L35.1789 144.534L58.0941 158.118L46.6775 177.267C44.8379 180.351 42.1847 182.872 39.0073 184.554C35.83 186.235 32.2508 187.014 28.6605 186.803L5.35498 185.438L5.36646 162.196Z" fill="#FFBF9D"/>
<path d="M105.447 96.3916C108.092 99.3376 110.718 102.284 111.982 105.979C113.474 110.344 112.802 115.261 110.79 119.416C108.778 123.571 105.542 127.033 101.958 129.936C100.141 131.409 98.176 132.773 95.9311 133.424C89.1569 135.388 78.7242 134.458 76.571 126.184C76.0037 124.002 76.6153 120.946 76.735 118.684C76.9154 115.398 77.4238 112.138 78.0682 108.912C80.0738 98.8712 79.8311 88.2575 84.4407 78.9613C85.3737 77.0792 86.7151 75.0694 88.7945 74.7552C90.7098 74.4671 92.5136 75.7666 93.7583 77.2494C96.8018 80.8762 97.8464 85.76 100.268 89.8221C101.698 92.2084 103.574 94.3033 105.447 96.3916Z" fill="#28100B"/>
<path d="M114.038 190.53C113.819 189.524 113.628 188.514 113.464 187.499C112.739 183.028 112.78 178.473 112.823 173.944C112.852 170.851 112.949 167.794 112.626 164.715L111.642 155.386C111.125 150.476 110.609 145.567 110.094 140.657C109.889 138.693 109.797 136.683 109.472 134.738C108.529 129.054 105.612 123.882 101.232 120.127C96.8521 116.373 91.2888 114.276 85.5159 114.203L74.442 114.066C74.1583 114.066 73.8762 114.066 73.5926 114.066L62.7155 114.099C57.9101 114.279 53.2647 115.87 49.3602 118.672C45.4557 121.473 42.4653 125.361 40.7628 129.85L35.2529 144.373L50.8954 153.866L54.5523 174.462L55.1984 190.476L114.038 190.53Z" fill="#FBC85C"/>
<path d="M88.3891 184.062C86.9002 183.491 85.2882 183.332 83.7451 182.917C82.202 182.501 80.6425 181.771 79.8095 180.409C79.2683 179.522 79.0928 178.468 78.7485 177.489C78.4041 176.511 77.7908 175.516 76.7987 175.198C76.3334 175.073 75.8457 175.053 75.372 175.143C74.3649 175.3 73.4062 175.682 72.5675 176.26C71.7288 176.839 71.0316 177.598 70.5279 178.483C69.6604 180.039 69.4489 181.879 68.7077 183.501C67.527 186.084 65.0328 188.095 63.6504 190.481L94.045 190.506C93.2201 187.648 91.1703 185.128 88.3891 184.062Z" fill="white"/>
<path d="M66.6793 178.948C68.06 176.637 68.957 173.904 71.0872 172.257C72.8746 170.878 75.2179 170.511 77.3186 169.693C79.4192 168.874 81.5494 167.197 81.5461 164.946C81.5461 163.537 80.6868 162.259 79.6619 161.29C78.637 160.321 77.4284 159.563 76.4003 158.598C75.2163 157.483 74.2685 156.074 72.8352 155.297C71.3217 154.478 69.4703 154.478 67.7976 154.899C62.9306 156.102 59.377 160.275 54.7887 162.297C54.0616 162.622 53.3019 162.869 52.5225 163.035L54.5526 174.468L54.9576 184.537C55.4296 184.691 55.9149 184.801 56.4073 184.864C60.561 185.398 64.536 182.535 66.6793 178.948Z" fill="#FAAC44"/>
<path d="M109.428 187.167C109.253 185.04 108.805 182.806 107.324 181.275C105.535 179.429 102.733 179.089 100.166 178.935C97.5999 178.781 94.8285 178.635 92.8279 177.022C91.7817 176.177 91.0585 175.01 90.1681 174.002C89.2777 172.994 88.0937 172.099 86.7474 172.108C84.7074 172.125 83.2102 174.385 83.4513 176.406C83.6923 178.428 85.2157 180.094 86.9458 181.174C88.6758 182.254 90.6453 182.883 92.4803 183.773C94.3153 184.663 96.1011 185.91 96.9636 187.755C97.3516 188.626 97.5634 189.565 97.5868 190.518H109.459C109.534 189.402 109.523 188.282 109.428 187.167Z" fill="#FAAC44"/>
<path d="M53.6048 118.19C54.0164 120.257 53.2342 122.413 52.0142 124.134C51.6059 124.709 51.1401 125.265 50.9286 125.935C50.7171 126.604 50.781 127.385 50.8827 128.108C51.5386 132.714 55.9055 136.439 60.6513 133.624C62.7093 132.404 63.603 129.895 65.3511 128.262C67.5124 126.242 70.656 125.807 73.4781 124.915C74.895 124.467 76.379 123.787 77.0596 122.47C77.8582 120.927 77.2842 119.015 76.3594 117.542C75.6821 116.462 74.7572 115.45 73.5323 115.087C70.6281 114.221 67.2041 117.215 64.6984 115.509C64.1932 115.139 63.7811 114.657 63.4948 114.1H62.7158C59.3725 114.224 56.0904 115.033 53.0735 116.477C53.2951 117.033 53.4728 117.606 53.6048 118.19Z" fill="#FAAC44"/>
<path d="M37.0684 139.591C39.0346 139.73 40.9063 140.487 42.4143 141.753C44.5657 143.585 45.9596 146.456 48.6293 147.383C50.7103 148.107 53.1536 147.347 54.6541 145.737C55.1641 145.189 55.5872 144.529 55.7167 143.791C55.9578 142.421 55.1264 141.045 53.9916 140.226C52.8568 139.408 51.4695 139.066 50.1134 138.753C48.8949 138.464 47.5929 138.138 46.7615 137.202C45.4103 135.678 45.9121 133.326 46.4991 131.377C47.0862 129.428 47.6109 127.087 46.2859 125.541C45.6612 124.814 44.7609 124.441 43.8147 124.199C42.5526 125.941 41.5265 127.843 40.7629 129.853L37.0684 139.591Z" fill="#FAAC44"/>
<path d="M54.5414 149.537C53.4935 151.324 53.8608 153.815 55.3793 155.226C59.9922 159.514 64.364 151.116 69.1114 150.997C71.5531 150.936 73.739 152.416 76.102 153.031C78.5257 153.663 81.2872 153.301 83.2173 151.706C85.1474 150.11 86.0051 147.192 84.8719 144.958C84.3308 143.886 83.4158 143.057 82.645 142.134C80.3066 139.337 79.3293 135.108 81.2282 131.997C82.1924 130.418 83.8733 129.015 83.7126 127.171C83.5387 125.174 81.0888 124.033 79.1341 124.46C76.8285 124.963 75.3264 126.938 73.3569 128.031C71.4334 129.102 69.4853 130.192 68.0619 131.91C66.8418 133.383 65.7792 135.048 63.9295 135.778C61.9895 136.544 59.9233 136.373 59.0001 138.683C58.1802 140.725 59.1001 143.169 58.2097 145.179C57.439 146.925 55.5072 147.891 54.5414 149.537Z" fill="#FAAC44"/>
<path d="M85.516 114.204L81.2311 114.15C81.2837 114.853 81.2178 115.56 81.036 116.242C80.8572 116.913 80.5621 117.607 80.7392 118.279C80.8786 118.808 81.2902 119.222 81.7231 119.559C82.7742 120.377 84.0287 120.878 85.1668 121.577C86.3048 122.276 87.3592 123.268 87.6396 124.566C87.9775 126.132 87.1149 127.675 86.477 129.138C86.0375 130.151 85.6882 131.24 85.7538 132.343C85.8194 133.446 86.3688 134.57 87.3494 135.084C88.4743 135.673 89.86 135.348 91.0144 134.819C92.1689 134.291 93.2594 133.565 94.509 133.346C97.5 132.822 100.258 135.31 103.295 135.353C105.539 135.385 107.613 134.017 108.907 132.166C107.479 127.05 104.428 122.533 100.21 119.295C95.993 116.056 90.837 114.27 85.516 114.204Z" fill="#FAAC44"/>
<path d="M112.626 164.716L111.883 157.649C111.232 157.636 110.585 157.54 109.958 157.364C108.764 157.015 107.677 156.31 106.447 156.13C105.396 155.974 104.33 156.217 103.305 156.493C99.6402 157.475 95.7423 159.241 94.2861 162.737C93.9991 163.428 93.8204 164.197 94.0008 164.924C94.4927 166.909 97.3198 167.616 97.7872 169.609C97.9397 170.264 97.8036 170.956 97.9512 171.611C98.353 173.432 100.563 174.095 102.403 174.423L107.815 175.387C109.545 175.694 111.406 176.079 112.808 177.054C112.808 176.017 112.818 174.981 112.828 173.945C112.849 170.851 112.949 167.794 112.626 164.716Z" fill="#FAAC44"/>
<path d="M109.745 136.789C108.893 137.46 107.919 137.96 106.877 138.262C104.233 139.028 101.406 138.674 98.6937 138.211C95.9814 137.748 93.2281 137.179 90.4945 137.532C88.9957 137.725 87.3952 138.31 86.6753 139.635C85.6914 141.454 86.7802 143.638 87.6362 145.527C88.8153 148.124 89.4401 151.493 87.4854 153.578C86.5228 154.609 85.124 155.092 83.9203 155.828C82.7167 156.565 81.5967 157.827 81.8279 159.216C81.9509 159.956 82.4445 160.588 83.0283 161.059C83.6269 161.537 84.3229 161.878 85.0676 162.059C85.8123 162.24 86.5876 162.257 87.3394 162.108C89.7106 161.617 91.3997 159.61 93.092 157.884C94.7237 156.218 96.5203 154.721 98.4543 153.416C100.701 151.899 103.295 150.609 105.998 150.815C107.892 150.959 109.605 151.812 111.348 152.615C110.931 148.629 110.512 144.641 110.092 140.653C109.964 139.378 109.877 138.075 109.745 136.789Z" fill="#FAAC44"/>
<path d="M64.2818 107.186H83.7648L86.9396 83.05C87.0204 82.4325 86.9703 81.8048 86.7924 81.2079C86.6145 80.6109 86.3128 80.0579 85.9068 79.5849C85.5009 79.1118 84.9998 78.7293 84.4362 78.4621C83.8725 78.1948 83.2588 78.0489 82.635 78.0337L62.0631 77.5509C61.5311 77.5385 61.002 77.6323 60.5069 77.8269C60.0118 78.0216 59.5607 78.313 59.1801 78.6842C58.7995 79.0553 58.4971 79.4987 58.2907 79.9882C58.0843 80.4777 57.9781 81.0034 57.9782 81.5345L57.5682 85.4723C57.032 90.6089 57.1698 95.7934 57.9782 100.894C57.9782 102.563 58.6423 104.163 59.8245 105.343C61.0066 106.523 62.61 107.186 64.2818 107.186Z" fill="#FFBF9D"/>
<path d="M67.2483 91.5262C67.2483 92.356 66.981 93.027 66.6514 93.027C66.3218 93.027 66.0562 92.356 66.0562 91.5262C66.0562 90.6964 66.3234 90.0254 66.6514 90.0254C66.9794 90.0254 67.2483 90.6981 67.2483 91.5262Z" fill="#293241"/>
<path d="M60.1526 91.888C60.1526 92.7178 59.8853 93.3888 59.5557 93.3888C59.2261 93.3888 58.9604 92.7178 58.9604 91.888C58.9604 91.0582 59.2277 90.3872 59.5557 90.3872C59.8837 90.3872 60.1526 91.0599 60.1526 91.888Z" fill="#293241"/>
<path d="M85.077 119.724H67.0518L69.7165 91.0923H83.2469L85.077 119.724Z" fill="#FFBF9D"/>
<path d="M76.6821 130.946C80.252 130.946 105.765 132.375 108.838 131.928C108.838 131.928 107.765 123.791 98.5068 118.115C94.6311 115.618 90.1286 114.262 85.5159 114.203L74.442 114.066C74.1584 114.066 73.8763 114.066 73.5926 114.066L62.7155 114.099C59.2189 114.232 55.7918 115.114 52.6665 116.685C56.0921 126.295 65.5262 130.946 76.6821 130.946Z" fill="#FFBF9D"/>
<path d="M68.2554 107.186L72.8372 106.099C72.8372 106.099 71.0711 109.235 68.0078 109.896L68.2554 107.186Z" fill="#293241"/>
<path d="M95.2629 95.1412C95.8565 93.3066 96.7912 91.6421 96.9027 89.7076C97.2307 83.9449 96.0976 77.5342 93.5033 72.3149C90.5516 66.3608 85.4484 62.3952 78.8398 60.7258C73.3841 59.3461 64.9618 60.045 60.5867 63.824C55.1375 68.5261 55.0243 76.6095 62.3643 79.6733C67.4478 81.8009 75.5552 77.1185 76.9048 85.0742C77.282 87.3033 76.8901 89.6176 77.3968 91.8238C77.9379 94.1756 79.4581 96.2083 81.0815 98.0512C82.9099 100.126 85.0631 102.143 87.8049 102.82C89.7497 103.303 92.7949 102.91 94.0182 101.169C95.0989 99.6371 94.6725 96.9661 95.2629 95.1412Z" fill="#28100B"/>
<path d="M84.247 95.6854C86.0557 92.5589 85.5985 88.9161 83.2259 87.5489C80.8533 86.1818 77.4638 87.608 75.6551 90.7345C73.8465 93.861 74.3037 97.5038 76.6763 98.8709C79.0489 100.238 82.4384 98.8118 84.247 95.6854Z" fill="#FFBF9D"/>
<path d="M83.8332 89.4201C83.4578 88.917 82.9278 88.5503 82.3241 88.3759C81.7204 88.2016 81.0761 88.2292 80.4896 88.4544C79.2892 88.8849 78.4562 89.9127 77.9642 91.0534C77.917 91.1398 77.9046 91.241 77.9296 91.3362C77.9546 91.4314 78.0151 91.5135 78.0987 91.5657C78.1846 91.6157 78.2869 91.6297 78.3831 91.6046C78.4793 91.5794 78.5616 91.5172 78.6119 91.4315C79.0039 90.5215 79.6122 89.641 80.5502 89.2318C81.4538 88.8358 82.5705 88.9716 83.1838 89.7981C83.2364 89.8817 83.319 89.942 83.4146 89.967C83.5103 89.9919 83.6119 89.9795 83.6987 89.9323C83.7839 89.8815 83.8457 89.7994 83.8708 89.7036C83.896 89.6078 83.8825 89.506 83.8332 89.4201Z" fill="#293241"/>
<path d="M98.1512 160.671L51.1729 190.758L89.9798 190.624L98.1512 160.671Z" fill="#293241"/>
<path d="M-8.03884 163.647C-7.50425 163.444 -6.92539 163.757 -6.43343 164.045C-4.12617 165.39 -1.18592 166.434 1.13282 165.123C3.31054 163.897 6.34098 162.048 5.73751 159.627C5.73751 159.627 5.12257 153.041 6.02776 154.12C7.40359 155.757 8.14809 158.66 9.23367 160.699C10.4324 162.951 12.1247 164.734 14.4238 165.187L63.0551 163.606C63.7869 163.582 64.5008 163.374 65.1312 163.002C65.7616 162.63 66.2882 162.106 66.6628 161.478L75.577 146.506C80.9214 152.029 87.3769 156.359 94.5188 159.212L98.1511 160.665L87.0788 179.231C85.2404 182.316 82.588 184.838 79.4113 186.521C76.2345 188.204 72.6556 188.983 69.0651 188.774L16.6884 185.706C16.308 185.666 9.2927 184.684 5.99333 183.349C2.42192 181.904 -1.01392 180.145 -4.27375 178.094C-5.13303 177.552 -6.02347 176.948 -6.44983 176.022C-6.87619 175.095 -6.76468 174.02 -6.92539 173.013C-7.16808 171.48 -8.04212 170.131 -8.64067 168.699C-9.23921 167.267 -9.5393 165.527 -8.6833 164.231C-8.53517 163.974 -8.30972 163.769 -8.03884 163.647Z" fill="#FFBF9D"/>
<path d="M52.9587 163.913C52.4043 161.8 52.0042 159.649 51.7616 157.478C51.637 156.394 51.5457 155.308 51.4878 154.219C51.4304 153.113 51.4878 151.967 51.1975 150.889C50.8885 149.814 50.2712 148.853 49.4216 148.124C49.2018 147.93 48.8788 148.25 49.0936 148.452C49.8317 149.077 50.3865 149.891 50.699 150.805C51.027 151.851 50.9712 152.975 51.027 154.057C51.1313 156.225 51.3723 158.383 51.7485 160.52C51.9568 161.7 52.2093 162.872 52.5176 164.029C52.5375 164.083 52.577 164.128 52.6281 164.154C52.6793 164.18 52.7384 164.186 52.7939 164.171C52.8494 164.156 52.8971 164.12 52.9276 164.072C52.9581 164.023 52.9692 163.965 52.9587 163.908V163.913Z" fill="#293241"/>
<path d="M33.8087 164.94C38.0248 164.806 34.832 164.901 39.048 164.765L51.6945 164.36L58.0276 164.159L61.1433 164.059C62.0961 164.028 63.0734 164.059 64.0147 163.886C64.8424 163.748 65.5977 163.331 66.1547 162.704C66.745 162.049 67.1681 161.246 67.6191 160.488L70.8332 155.087C72.8912 151.631 74.9869 148.184 76.6923 144.536C76.9022 144.086 77.1061 143.633 77.304 143.177C77.4188 142.911 77.0269 142.686 76.9104 142.947C75.3329 146.583 73.3257 150.007 71.3022 153.41L68.1241 158.745C67.6191 159.593 67.1238 160.447 66.6073 161.29C66.176 161.995 65.6808 162.714 64.9281 163.11C64.1082 163.54 63.1456 163.537 62.2453 163.567L59.1296 163.666L52.9588 163.863L40.4632 164.262C36.298 164.396 39.5416 164.3 35.3797 164.426L33.8104 164.477C33.5185 164.486 33.5168 164.941 33.8104 164.932L33.8087 164.94Z" fill="#293241"/>
<path d="M95.2371 166.977C95.5339 165.388 96.3128 163.957 97.2049 162.629C97.6575 161.959 98.1363 161.304 98.6234 160.665C99.0754 160.024 99.6184 159.452 100.235 158.967C100.929 158.462 101.806 158.12 102.675 158.265C102.962 158.313 103.085 157.874 102.795 157.825C101.039 157.534 99.581 158.73 98.5561 160.013C98.0298 160.668 97.5329 161.362 97.0508 162.056C96.5614 162.743 96.1198 163.463 95.729 164.211C95.2909 165.045 94.9755 165.937 94.7927 166.861C94.7386 167.147 95.1781 167.27 95.2322 166.982L95.2371 166.977Z" fill="#293241"/>
<path d="M52.588 117.136C54.1171 121.667 57.2814 125.468 61.4645 127.797C63.0682 128.666 64.7765 129.326 66.548 129.761C68.4382 130.221 70.355 130.565 72.2875 130.789C74.316 131.049 76.3527 131.233 78.3943 131.365C82.4939 131.63 86.6132 131.693 90.726 131.75C94.8387 131.807 98.9596 131.876 103.066 132.154C103.573 132.19 104.08 132.228 104.586 132.269C104.878 132.292 104.876 131.837 104.586 131.814C100.55 131.486 96.5015 131.385 92.4511 131.323C88.4007 131.26 84.3568 131.223 80.3162 131.022C76.3297 130.822 72.3105 130.498 68.3912 129.712C66.5284 129.339 64.6786 128.832 62.9453 128.044C61.5111 127.391 60.1674 126.555 58.9473 125.558C56.5149 123.577 54.6165 121.022 53.4243 118.123C53.2784 117.761 53.1439 117.393 53.0193 117.022C52.9275 116.745 52.4863 116.858 52.5798 117.143L52.588 117.136Z" fill="#293241"/>
<path d="M61.3487 94.3771C61.3862 94.6834 61.3205 94.9935 61.162 95.2584C61.0034 95.5234 60.761 95.7281 60.473 95.8403C60.2746 95.9107 60.0581 95.9107 59.8679 96.0039C59.6749 96.1116 59.5284 96.2864 59.4563 96.4949C59.2923 96.9172 59.4792 97.4016 59.7318 97.747C60.0119 98.1304 60.4053 98.4166 60.8567 98.5653C61.2273 98.6897 61.388 98.1038 61.0207 97.9794C60.8129 97.9109 60.6216 97.8 60.459 97.6537C60.2964 97.5075 60.166 97.3291 60.0761 97.13C60.0073 96.9663 59.9614 96.7388 60.0893 96.5899C60.1722 96.5194 60.2772 96.48 60.3861 96.4786C60.4919 96.4602 60.5957 96.4317 60.696 96.3935C61.1219 96.224 61.4771 95.9147 61.7031 95.5166C61.9291 95.1184 62.0123 94.6553 61.939 94.2036C61.9168 94.1265 61.8653 94.0611 61.7954 94.0214C61.7256 93.9816 61.6429 93.9707 61.5651 93.9909C61.4882 94.0141 61.4232 94.066 61.3835 94.1357C61.3438 94.2055 61.3325 94.2878 61.352 94.3657L61.3487 94.3771Z" fill="#293241"/>
<path d="M60.6216 101.989C61.2811 102.259 62.008 102.32 62.7032 102.163C63.3984 102.005 64.0281 101.638 64.5064 101.11C64.7811 100.806 64.9938 100.45 65.1329 100.065C65.1536 99.9872 65.143 99.9047 65.1035 99.8349C65.0639 99.7652 64.9985 99.7137 64.9213 99.6915C64.8435 99.6721 64.7612 99.6831 64.6914 99.7224C64.6215 99.7616 64.5694 99.8262 64.5458 99.9026C64.0538 101.279 62.25 102.042 60.9283 101.461C60.8582 101.422 60.7759 101.412 60.6985 101.432C60.621 101.452 60.5542 101.501 60.5118 101.569C60.4721 101.639 60.4613 101.721 60.4819 101.799C60.5024 101.877 60.5526 101.943 60.6216 101.984V101.989Z" fill="#293241"/>
<path d="M65.3378 88.4298C65.4967 88.2604 65.6903 88.127 65.9054 88.0389C66.1205 87.9507 66.3521 87.9097 66.5845 87.9187C66.8168 87.9277 67.0445 87.9865 67.2521 88.0911C67.4597 88.1956 67.6424 88.3435 67.7877 88.5247C67.8451 88.5813 67.9226 88.6131 68.0033 88.6131C68.0841 88.6131 68.1616 88.5813 68.219 88.5247C68.2741 88.4669 68.3049 88.3901 68.3049 88.3103C68.3049 88.2305 68.2741 88.1537 68.219 88.0959C68.0169 87.8582 67.767 87.6657 67.4855 87.5306C67.204 87.3956 66.8973 87.3211 66.5851 87.312C66.2729 87.3029 65.9623 87.3594 65.6734 87.4778C65.3845 87.5962 65.1238 87.7739 64.9081 87.9993C64.6343 88.2808 65.0721 88.7096 65.3378 88.4298Z" fill="#293241"/>
<path d="M58.6912 88.4298C58.8505 88.2592 59.0448 88.1249 59.2608 88.036C59.4768 87.9471 59.7094 87.9058 59.9429 87.9148C60.1763 87.9238 60.4051 87.983 60.6136 88.0882C60.8221 88.1934 61.0054 88.3423 61.151 88.5247C61.2081 88.5812 61.2853 88.613 61.3658 88.613C61.4463 88.613 61.5235 88.5812 61.5806 88.5247C61.6361 88.4671 61.6671 88.3902 61.6671 88.3103C61.6671 88.2303 61.6361 88.1535 61.5806 88.0959C61.3785 87.8582 61.1286 87.6657 60.8471 87.5306C60.5657 87.3956 60.2589 87.3211 59.9467 87.312C59.6346 87.3029 59.324 87.3594 59.0351 87.4778C58.7462 87.5962 58.4854 87.7739 58.2698 87.9993C57.9976 88.2808 58.4337 88.7096 58.6994 88.4298H58.6912Z" fill="#293241"/>
<path d="M64.2605 165.476C65.4573 166.331 66.371 167.522 66.8842 168.899C66.9859 169.172 67.427 169.062 67.3237 168.777C66.7737 167.291 65.7888 166.003 64.4966 165.082C64.2572 164.918 64.0292 165.306 64.267 165.476H64.2605Z" fill="#293241"/>
<path d="M99.2842 190.77L63.5355 190.781C63.4331 190.78 63.3333 190.748 63.2495 190.69C63.1657 190.631 63.1017 190.548 63.0661 190.452C63.0305 190.356 63.025 190.252 63.0503 190.153C63.0755 190.054 63.1304 189.965 63.2076 189.897L63.3617 189.765C64.9063 188.417 66.743 187.446 68.7273 186.927L79.8881 184C81.1337 183.676 82.3036 183.111 83.3318 182.338L84.5059 181.454C86.2283 180.157 87.4502 178.307 87.966 176.217L104.24 110.423L130.851 102.456L109.102 183.254C108.522 185.41 107.245 187.315 105.47 188.674C103.696 190.033 101.521 190.769 99.2842 190.77Z" fill="#FFBF9D"/>
<path d="M103.104 114.063L111.094 82.7227L140.133 89.3756L125.571 122.109C120.037 117.681 107.474 113.366 103.104 114.063Z" fill="white"/>
<path d="M203.236 130.388C209.042 139.096 211.934 149.415 211.497 159.866L210.212 190.661L176.383 191L174.696 174.458L171.543 190.661L135.556 190.794L142.96 153.049L203.236 130.388Z" fill="#1A2E35"/>
<path d="M203.235 130.389C185.871 104.711 182.05 72.1697 182.05 72.1697C179.144 62.0306 168.812 55.6183 157.066 56.6215C148.253 57.376 132.361 63.5167 122.996 68.9864C114.305 74.06 110.637 80.4806 110.159 87.9535C109.717 94.8945 112.175 101.701 116.816 106.896L124.359 115.323C133.214 129.844 140.513 144.672 142.958 153.048L203.235 130.389Z" fill="white"/>
<path d="M149.526 58.0568L147.521 64.4905C144.804 73.2023 132.9 74.3103 128.61 66.2548L122.807 45.5921L138.733 39.5005L149.526 58.0568Z" fill="#FFBF9D"/>
<path d="M126.175 61.693L145.328 55.2136L142.376 29.271C142.269 28.5958 142.02 27.9509 141.646 27.3781C141.272 26.8054 140.781 26.3179 140.205 25.9472C139.63 25.5766 138.982 25.3312 138.305 25.2271C137.628 25.123 136.937 25.1625 136.276 25.3431L114.537 31.2858C113.974 31.4392 113.449 31.7033 112.99 32.0625C112.532 32.4218 112.15 32.8689 111.867 33.3776C111.584 33.8863 111.406 34.4464 111.343 35.0248C111.281 35.6032 111.334 36.1883 111.501 36.7456L117.582 57.063C118.106 58.8141 119.306 60.2857 120.918 61.154C122.529 62.0223 124.42 62.2162 126.175 61.693Z" fill="#FFBF9D"/>
<path d="M123.454 40.6721C122.798 40.4953 122.129 40.6492 121.494 40.8358C120.86 41.0223 120.282 41.2809 119.882 41.8014C119.816 41.8713 119.724 41.9124 119.628 41.9157C119.531 41.9191 119.437 41.8845 119.366 41.8194C119.297 41.7523 119.257 41.6613 119.253 41.5652C119.25 41.4692 119.284 41.3756 119.348 41.3038C119.822 40.6885 120.56 40.3595 121.286 40.1369C122.04 39.9061 122.849 39.749 123.626 39.9585C124.079 40.0796 123.908 40.7883 123.454 40.6655V40.6721Z" fill="#293241"/>
<path d="M116.85 42.705C116.281 42.5184 115.703 42.6297 115.145 42.7983C114.633 42.9619 114.082 43.1763 113.768 43.6346C113.72 43.7175 113.643 43.7791 113.551 43.8065C113.459 43.8339 113.361 43.8251 113.276 43.7819C113.191 43.7358 113.128 43.6585 113.101 43.5666C113.073 43.4747 113.083 43.3757 113.128 43.2909C113.548 42.6755 114.184 42.3367 114.883 42.1191C115.581 41.9014 116.322 41.7672 117.024 41.998C117.117 42.0231 117.197 42.0827 117.247 42.1646C117.297 42.2465 117.313 42.3444 117.293 42.4382C117.27 42.5319 117.21 42.6126 117.128 42.6629C117.045 42.7131 116.946 42.7289 116.852 42.7066L116.85 42.705Z" fill="#293241"/>
<path d="M121.583 44.6818C121.794 45.3888 122.193 45.8946 122.473 45.8111C122.754 45.7276 122.811 45.0861 122.599 44.379C122.388 43.672 121.988 43.1663 121.707 43.2497C121.427 43.3332 121.376 43.9748 121.583 44.6818Z" fill="#293241"/>
<path d="M115.115 46.4053C115.326 47.1123 115.725 47.618 116.005 47.5345C116.286 47.4511 116.343 46.8095 116.132 46.1025C115.92 45.3954 115.52 44.8881 115.24 44.9732C114.959 45.0583 114.902 45.6982 115.115 46.4053Z" fill="#293241"/>
<path d="M134.013 53.8413L127.234 61.3404L128.334 65.1816C128.334 65.1816 131.871 64.4697 134.013 53.8413Z" fill="#293241"/>
<path d="M101.521 34.8262C101.522 34.0605 101.615 33.2977 101.8 32.5545C102.703 28.8737 105.571 25.9506 108.777 23.931C114.873 20.0996 122.19 19.0653 129.275 19.0702C132.162 19.0702 136.282 18.6643 138.951 19.805C140.003 20.2551 143.622 22.7068 142.762 24.1814C143.069 23.6852 143.526 23.3 144.068 23.0821C144.61 22.8642 145.208 22.825 145.774 22.9703C146.802 23.26 147.578 24.1618 147.952 25.1601C149.127 28.2861 148.353 33.1093 148.081 36.3859C147.753 40.3859 146.868 44.3155 146.217 48.2696C146.089 49.047 145.589 53.4038 144.119 51.4594C142.737 49.6593 141.597 47.6868 140.726 45.592C140.028 43.8834 139.867 41.6379 139.151 39.9849C138.923 39.9112 138.698 39.8212 138.477 39.7377C137.786 40.1642 137.069 40.5468 136.33 40.8834C135.709 41.1502 135.018 41.3744 134.362 41.1715C133.364 40.8621 132.926 39.723 132.621 38.7165C132.412 38.0324 132.301 36.6772 131.85 35.8409C130.269 37.6569 128.05 38.7992 125.651 39.033C123.252 39.2668 120.854 38.5743 118.951 37.0978H118.917C116.575 39.2255 113.997 41.1142 110.967 41.9374C105.688 43.3744 101.534 39.7639 101.521 34.8262Z" fill="#28100B"/>
<path d="M142.298 44.0252C143.112 40.6087 141.67 37.3406 139.078 36.7257C136.486 36.1108 133.725 38.3819 132.911 41.7983C132.098 45.2148 133.539 48.4829 136.132 49.0978C138.724 49.7127 141.485 47.4416 142.298 44.0252Z" fill="#FFBF9D"/>
<path d="M138.88 40.2433C137.957 39.821 136.968 40.2138 136.362 40.9716C135.755 41.7293 135.64 42.7964 135.732 43.7457C135.776 44.2121 135.046 44.2269 135.002 43.7604C134.887 42.564 135.105 41.2891 135.922 40.3627C136.739 39.4364 138.064 39.0698 139.228 39.6033C139.654 39.7981 139.307 40.4397 138.88 40.2433Z" fill="#293241"/>
<path d="M118.367 55.6574C118.897 56.2285 119.487 56.74 120.128 57.1828C120.784 57.6017 121.562 57.8767 122.337 57.808C122.686 57.7663 123.028 57.6856 123.359 57.5674C123.89 57.4207 124.39 57.1795 124.835 56.8554C126.271 55.7098 126.171 53.5821 125.491 52.0371C124.212 52.515 123.616 53.5576 122.568 54.3562C121.972 54.8114 121.3 55.1598 120.584 55.3857C120.228 55.4986 118.674 55.9651 118.367 55.6574Z" fill="white"/>
<path d="M167.09 144.246L179.392 99.2202L182.812 138.22L167.09 144.246Z" fill="#DFEAF4"/>
<path d="M161.857 140.992L153.166 104.436L151.612 70.5573C151.593 70.1509 151.452 69.7596 151.208 69.4342C150.963 69.1088 150.626 68.8644 150.24 68.7329C149.855 68.6013 149.438 68.5887 149.045 68.6966C148.652 68.8046 148.301 69.028 148.037 69.338C141.105 77.4607 135.362 76.009 132.317 74.153C132.039 73.9862 131.725 73.8885 131.401 73.8682C131.077 73.8479 130.753 73.9055 130.456 74.0362C130.159 74.1669 129.898 74.3669 129.694 74.6194C129.491 74.8718 129.351 75.1693 129.287 75.4869L121.712 112.392L123.844 114.742L125.228 116.806C134.903 132.354 139.926 143.472 142.643 151.994L161.857 140.992Z" fill="#DFEAF4"/>
<path d="M146.739 190.769L110.99 190.781C110.888 190.78 110.788 190.748 110.704 190.689C110.62 190.631 110.556 190.548 110.521 190.452C110.485 190.356 110.48 190.252 110.505 190.153C110.53 190.053 110.585 189.964 110.662 189.897L110.815 189.765C112.36 188.417 114.197 187.446 116.182 186.927L127.68 183.917C128.71 183.647 129.677 183.179 130.527 182.539C133.181 180.541 135.064 177.692 135.86 174.472L153.174 104.436C158.162 99.3006 174.164 98.9863 177.511 105.662L156.557 183.254C155.976 185.41 154.7 187.315 152.925 188.674C151.15 190.033 148.976 190.769 146.739 190.769Z" fill="#FFBF9D"/>
<path d="M177.029 112.496C177.311 110.287 177.772 108.105 178.231 105.928C178.69 103.752 179.141 101.591 179.428 99.3934C179.594 98.152 179.689 96.9024 179.714 95.6503C179.714 95.59 179.69 95.5321 179.647 95.4895C179.604 95.4468 179.546 95.4229 179.486 95.4229C179.425 95.4229 179.367 95.4468 179.324 95.4895C179.282 95.5321 179.258 95.59 179.258 95.6503C179.223 97.8696 178.917 100.069 178.51 102.251C178.103 104.433 177.605 106.595 177.183 108.773C176.944 110.009 176.732 111.248 176.573 112.496C176.573 112.527 176.578 112.557 176.589 112.586C176.601 112.614 176.617 112.64 176.639 112.662C176.66 112.683 176.686 112.701 176.714 112.712C176.742 112.724 176.772 112.73 176.803 112.73C176.863 112.729 176.92 112.705 176.963 112.662C177.005 112.62 177.03 112.563 177.031 112.503L177.029 112.496Z" fill="#293241"/>
<path d="M118.064 46.4463C117.711 47.512 117.491 48.6168 117.408 49.7359C117.334 50.7261 117.46 51.8128 118.318 52.4446C118.519 52.601 118.755 52.7071 119.006 52.7541C119.257 52.801 119.516 52.7875 119.761 52.7146C120.13 52.5902 119.972 52.0043 119.597 52.1287C119.437 52.1769 119.269 52.1855 119.105 52.1538C118.942 52.1222 118.789 52.0512 118.659 51.947C118.359 51.7139 118.153 51.3821 118.077 51.0109C117.987 50.5804 117.967 50.1383 118.018 49.7016C118.056 49.2131 118.122 48.7272 118.218 48.2466C118.328 47.6928 118.472 47.1462 118.649 46.6099C118.772 46.2368 118.185 46.078 118.064 46.4463Z" fill="#293241"/>
<path d="M63.034 190.66C63.6899 189.128 65.1478 188.232 66.6564 187.681C68.4914 187.008 70.4592 186.715 72.3697 186.342C76.3053 185.573 80.3705 184.684 83.6846 182.3C85.2171 181.219 86.4856 179.807 87.3956 178.169C88.3401 176.439 88.8878 174.527 89.3437 172.62C90.4047 168.188 91.3656 163.732 92.3742 159.287L95.439 145.768C95.5648 145.211 95.6916 144.654 95.8195 144.095C95.8834 143.81 95.444 143.688 95.3784 143.974L92.3135 157.493C91.2913 161.998 90.2691 166.504 89.247 171.012C88.8091 172.946 88.3713 174.904 87.5858 176.74C86.8485 178.497 85.7069 180.055 84.2536 181.29C81.1707 183.889 77.1547 184.923 73.2863 185.709C71.2906 186.111 69.249 186.409 67.296 186.998C65.7808 187.457 64.2213 188.155 63.2275 189.435C62.9885 189.744 62.7896 190.082 62.6355 190.44C62.5224 190.707 62.9143 190.931 63.0307 190.671L63.034 190.66Z" fill="#293241"/>
<path d="M82.2678 190.457C81.907 190.236 81.5134 189.982 81.3084 189.6C81.2239 189.431 81.1999 189.24 81.2405 189.056C81.2812 188.872 81.3839 188.708 81.5315 188.591C81.8594 188.292 82.2989 188.146 82.7187 188.028C83.2763 187.876 83.8433 187.761 84.416 187.683C86.5281 187.382 88.7124 187.419 90.7261 186.626C91.7389 186.255 92.6379 185.628 93.3351 184.806C93.3779 184.762 93.4019 184.703 93.4019 184.642C93.4019 184.581 93.3779 184.522 93.3351 184.478C93.3137 184.457 93.2882 184.439 93.26 184.428C93.2319 184.416 93.2016 184.41 93.1711 184.41C93.1406 184.41 93.1103 184.416 93.0822 184.428C93.054 184.439 93.0285 184.457 93.0071 184.478C91.7231 186.073 89.6192 186.634 87.6694 186.874C86.4592 187.025 85.2375 187.089 84.0322 187.277C83.4467 187.363 82.8688 187.494 82.3038 187.67C81.8565 187.793 81.4476 188.026 81.1149 188.349C80.9345 188.533 80.8151 188.768 80.7728 189.022C80.7306 189.276 80.7676 189.537 80.8788 189.77C81.1067 190.249 81.5905 190.577 82.0267 190.845C82.2776 190.999 82.5072 190.604 82.2579 190.452L82.2678 190.457Z" fill="#293241"/>
<path d="M148.073 177.378L143.926 176.165C143.409 176.015 142.928 175.764 142.509 175.427C142.089 175.091 141.741 174.675 141.483 174.203C141.225 173.732 141.063 173.215 141.006 172.681C140.949 172.147 140.999 171.607 141.151 171.092C141.458 170.052 142.166 169.176 143.119 168.657C144.072 168.137 145.192 168.017 146.235 168.321L150.38 169.534C150.897 169.684 151.378 169.935 151.798 170.271C152.217 170.608 152.566 171.024 152.823 171.495C153.081 171.967 153.243 172.484 153.301 173.018C153.358 173.552 153.309 174.092 153.157 174.607C153.006 175.123 152.754 175.603 152.417 176.022C152.08 176.44 151.663 176.788 151.191 177.046C150.719 177.303 150.2 177.465 149.665 177.522C149.13 177.579 148.589 177.53 148.073 177.378Z" fill="white"/>
<path d="M159.192 173.783L153.653 172.163L152.253 176.93L157.793 178.55L159.192 173.783Z" fill="white"/>
<path d="M140.923 173.617L136.389 172.291L137.585 167.463L142.324 168.849L140.923 173.617Z" fill="white"/>
<path d="M151.192 177.992C151.102 177.992 151.011 177.98 150.925 177.954L141.218 175.113C141.098 175.08 140.985 175.023 140.887 174.945C140.789 174.868 140.707 174.773 140.646 174.664C140.585 174.555 140.546 174.435 140.532 174.311C140.517 174.187 140.528 174.061 140.563 173.941L142.193 168.376C142.251 168.181 142.371 168.01 142.535 167.887C142.698 167.765 142.897 167.699 143.101 167.697C143.191 167.698 143.28 167.71 143.367 167.735L153.081 170.576C153.322 170.647 153.525 170.81 153.645 171.029C153.766 171.249 153.794 171.507 153.724 171.748L152.084 177.304C152.029 177.499 151.912 177.671 151.752 177.795C151.591 177.919 151.395 177.988 151.192 177.992Z" fill="#D3D2D6"/>
<path d="M151.192 177.75C151.125 177.75 151.058 177.74 150.993 177.722L141.279 174.881C141.1 174.829 140.949 174.707 140.86 174.544C140.77 174.381 140.749 174.189 140.802 174.01L142.442 168.446C142.485 168.3 142.573 168.173 142.695 168.082C142.816 167.99 142.964 167.941 143.116 167.94C143.183 167.94 143.25 167.95 143.314 167.969L153.028 170.809C153.207 170.862 153.357 170.983 153.446 171.146C153.536 171.309 153.557 171.501 153.506 171.68L151.866 177.244C151.823 177.39 151.734 177.517 151.612 177.608C151.491 177.699 151.344 177.749 151.192 177.75Z" fill="#293241"/>
<path d="M145.707 168.679L141.796 170.622L140.802 174.01C140.766 174.133 140.765 174.263 140.798 174.387C140.83 174.511 140.897 174.623 140.989 174.712L150.377 170.044L145.707 168.679Z" fill="#3E4654"/>
<path d="M144.405 175.796L153.227 170.92C153.165 170.875 153.095 170.84 153.021 170.817L151.155 170.272L142.001 175.087L144.405 175.796Z" fill="#3E4654"/>
<path d="M176.66 190.517C176.119 186.781 175.89 183.008 175.596 179.247C175.448 177.375 175.288 175.504 175.066 173.64C174.84 171.743 174.525 169.86 174.304 167.963C174.028 165.844 173.932 163.706 174.019 161.572C174.035 161.28 173.577 161.28 173.563 161.572C173.481 163.484 173.552 165.399 173.774 167.3C173.978 169.203 174.289 171.09 174.53 172.987C175.006 176.737 175.216 180.516 175.529 184.28C175.704 186.408 175.916 188.535 176.221 190.638C176.228 190.668 176.242 190.695 176.26 190.719C176.278 190.743 176.301 190.763 176.327 190.778C176.353 190.793 176.382 190.803 176.412 190.807C176.442 190.812 176.472 190.81 176.501 190.802C176.56 190.785 176.609 190.747 176.64 190.694C176.67 190.642 176.679 190.58 176.665 190.521L176.66 190.517Z" fill="#293241"/>
<path d="M190.362 142.301C190.694 144.058 191.273 145.76 192.082 147.355C192.894 148.957 193.895 150.456 195.063 151.82C196.262 153.213 197.606 154.474 199.071 155.584C200.597 156.742 202.223 157.762 203.93 158.633C205.643 159.508 207.412 160.269 209.225 160.912C209.448 160.992 209.671 161.075 209.896 161.146C210.173 161.242 210.292 160.802 210.017 160.707C208.223 160.1 206.471 159.378 204.769 158.547C203.071 157.718 201.445 156.747 199.911 155.645C198.43 154.579 197.066 153.36 195.84 152.01C194.66 150.706 193.637 149.268 192.794 147.725C191.948 146.183 191.322 144.53 190.932 142.815C190.885 142.601 190.842 142.385 190.801 142.169C190.749 141.881 190.309 142.005 190.362 142.29V142.301Z" fill="#13152D"/>
<path d="M166.567 149.727C169.134 148.915 171.695 148.088 174.248 147.244C176.802 146.401 179.334 145.524 181.844 144.614C184.373 143.698 186.882 142.733 189.371 141.721C191.841 140.711 194.284 139.639 196.7 138.503C199.116 137.367 201.503 136.141 203.861 134.825C204.149 134.665 204.437 134.501 204.723 134.334C204.776 134.304 204.814 134.254 204.829 134.196C204.845 134.137 204.837 134.075 204.806 134.023C204.776 133.97 204.726 133.932 204.667 133.917C204.609 133.901 204.546 133.91 204.494 133.94C202.171 135.262 199.804 136.502 197.393 137.659C194.983 138.815 192.541 139.906 190.068 140.932C187.606 141.953 185.124 142.921 182.621 143.835C180.119 144.75 177.59 145.634 175.034 146.49C172.493 147.341 169.945 148.169 167.391 148.974L166.446 149.274C166.167 149.362 166.282 149.802 166.567 149.714V149.727Z" fill="#13152D"/>
<path d="M118.849 109.664L121.855 113.184C122.824 114.32 123.795 115.456 124.66 116.675C125.526 117.895 126.295 119.153 127.059 120.423C127.824 121.693 128.566 122.93 129.3 124.187C130.759 126.708 132.166 129.258 133.52 131.839C134.875 134.419 136.18 137.038 137.435 139.695C138.681 142.333 139.872 144.996 141.008 147.683C141.151 148.024 141.293 148.362 141.434 148.703C141.546 148.97 141.987 148.853 141.875 148.582C140.744 145.864 139.557 143.17 138.314 140.5C137.071 137.83 135.775 135.194 134.426 132.593C133.074 129.984 131.669 127.405 130.208 124.855C128.744 122.299 127.256 119.731 125.628 117.278C123.952 114.764 121.887 112.531 119.929 110.227L119.172 109.34C118.982 109.116 118.66 109.44 118.844 109.667L118.849 109.664Z" fill="#293241"/>
<path d="M31.777 190.753H65.2758C65.9442 190.753 66.5853 190.488 67.058 190.017C67.5307 189.545 67.7962 188.905 67.7962 188.238C67.7949 187.571 67.5288 186.933 67.0563 186.462C66.5839 185.991 65.9435 185.726 65.2758 185.726H31.777C31.1311 185.726 30.5117 185.982 30.055 186.437C29.5984 186.893 29.3418 187.511 29.3418 188.156V188.32C29.3414 188.639 29.404 188.956 29.5262 189.251C29.6484 189.546 29.8277 189.814 30.0539 190.04C30.2801 190.266 30.5486 190.446 30.8443 190.568C31.14 190.69 31.4569 190.753 31.777 190.753Z" fill="#F0F0F1"/>
<path d="M24.204 142.734C23.964 142.114 23.5417 141.582 22.9926 141.206C22.4435 140.83 21.7934 140.629 21.1277 140.629H-36.3916V189.83C-35.7752 190.423 -34.952 190.754 -34.0958 190.753H37.9804C38.5161 190.753 39.0437 190.623 39.5177 190.374C39.9916 190.125 40.3976 189.764 40.7006 189.323C41.0035 188.882 41.1942 188.374 41.2563 187.843C41.3184 187.312 41.2499 186.774 41.0567 186.276L24.204 142.734Z" fill="#F0F0F1"/>
<path d="M47.7846 189.357C47.7203 189.357 47.6585 189.331 47.613 189.286C47.5675 189.24 47.542 189.179 47.542 189.114V188.609C47.542 188.516 47.5054 188.428 47.4402 188.363C47.3751 188.297 47.2867 188.26 47.1943 188.26H43.849C43.7838 188.26 43.7212 188.234 43.6751 188.188C43.6289 188.142 43.603 188.08 43.603 188.015C43.603 187.949 43.6289 187.887 43.6751 187.841C43.7212 187.795 43.7838 187.769 43.849 187.769H47.1943C47.4157 187.77 47.6277 187.858 47.7841 188.015C47.9405 188.171 48.0286 188.383 48.029 188.604V189.109C48.0294 189.142 48.0234 189.174 48.0113 189.204C47.9993 189.234 47.9813 189.261 47.9586 189.284C47.9359 189.307 47.9088 189.325 47.8789 189.338C47.8491 189.35 47.817 189.357 47.7846 189.357Z" fill="#293241"/>
<path d="M53.0194 189.231C52.9551 189.231 52.8933 189.205 52.8478 189.16C52.8023 189.114 52.7767 189.053 52.7767 188.989V188.484C52.7767 188.392 52.7401 188.304 52.6749 188.239C52.6097 188.174 52.5213 188.137 52.4291 188.137H49.0936C49.0284 188.137 48.9658 188.112 48.9197 188.066C48.8736 188.02 48.8477 187.957 48.8477 187.892C48.8477 187.827 48.8736 187.764 48.9197 187.718C48.9658 187.672 49.0284 187.646 49.0936 187.646H52.4291C52.6499 187.647 52.8615 187.735 53.0176 187.89C53.1738 188.046 53.2617 188.258 53.2621 188.478V188.982C53.263 189.014 53.2574 189.047 53.2456 189.077C53.2338 189.107 53.216 189.134 53.1934 189.157C53.1708 189.181 53.1437 189.199 53.1138 189.212C53.084 189.224 53.0519 189.231 53.0194 189.231Z" fill="#293241"/>
<path d="M41.7388 188.848C41.6895 188.848 41.6414 188.833 41.6007 188.805C41.56 188.777 41.5287 188.738 41.5108 188.692L23.8054 142.815C23.5818 142.244 23.1915 141.754 22.685 141.407C22.1785 141.06 21.5793 140.873 20.9652 140.871H-36.213C-36.2782 140.871 -36.3408 140.845 -36.3869 140.799C-36.4331 140.753 -36.459 140.69 -36.459 140.625C-36.459 140.56 -36.4331 140.498 -36.3869 140.452C-36.3408 140.406 -36.2782 140.38 -36.213 140.38H20.9685C21.681 140.383 22.3762 140.6 22.9636 141.002C23.5511 141.405 24.0038 141.974 24.2629 142.637L41.9733 188.512C41.9851 188.542 41.9909 188.574 41.9903 188.606C41.9897 188.638 41.9827 188.669 41.9697 188.698C41.9567 188.728 41.938 188.754 41.9147 188.776C41.8914 188.798 41.8639 188.815 41.8339 188.826C41.8041 188.84 41.7716 188.847 41.7388 188.848Z" fill="#293241"/>
<path d="M226.563 191H-34.6467C-34.7418 191 -34.8188 190.892 -34.8188 190.758C-34.8188 190.624 -34.7418 190.516 -34.6467 190.516H226.563C226.658 190.516 226.727 190.624 226.727 190.758C226.727 190.892 226.655 191 226.563 191Z" fill="#293241"/>
<path d="M8.69425 57.8541C10.3136 57.8541 11.6263 56.544 11.6263 54.9278C11.6263 53.3116 10.3136 52.0015 8.69425 52.0015C7.07493 52.0015 5.76221 53.3116 5.76221 54.9278C5.76221 56.544 7.07493 57.8541 8.69425 57.8541Z" fill="#1A2E35"/>
<path d="M3.05785 54.731H3.86138C3.93438 54.7364 4.0026 54.7693 4.05238 54.8228C4.10217 54.8764 4.12983 54.9468 4.12983 55.0198C4.12983 55.0929 4.10217 55.1633 4.05238 55.2168C4.0026 55.2704 3.93438 55.3032 3.86138 55.3087H3.05457C2.54719 55.3086 2.04039 55.343 1.53771 55.4118C1.46414 55.4171 1.39129 55.3943 1.33398 55.3479C1.27667 55.3016 1.2392 55.2352 1.22918 55.1622C1.21915 55.0893 1.23733 55.0153 1.28002 54.9552C1.32271 54.8952 1.3867 54.8536 1.459 54.839C1.98779 54.767 2.52088 54.7309 3.05457 54.731H3.05785ZM-0.523577 55.5869C-0.510607 55.6226 -0.504864 55.6605 -0.506681 55.6984C-0.508499 55.7362 -0.517841 55.7734 -0.534166 55.8077C-0.55049 55.8419 -0.573469 55.8726 -0.601773 55.8979C-0.630076 55.9233 -0.663138 55.9427 -0.699039 55.9552C-1.42352 56.2147 -2.11922 56.5481 -2.77509 56.9503C-2.80735 56.9745 -2.84433 56.9918 -2.88366 57.001C-2.923 57.0102 -2.96383 57.0111 -3.00353 57.0036C-3.04323 56.9962 -3.08093 56.9805 -3.11423 56.9577C-3.14752 56.9348 -3.17567 56.9053 -3.19688 56.871C-3.21808 56.8367 -3.23188 56.7983 -3.23738 56.7584C-3.24288 56.7184 -3.23996 56.6778 -3.22881 56.639C-3.21767 56.6003 -3.19853 56.5643 -3.17265 56.5333C-3.14675 56.5023 -3.11468 56.4771 -3.07846 56.4593C-2.38814 56.037 -1.65621 55.6865 -0.894181 55.4134C-0.862552 55.4025 -0.829282 55.3969 -0.795792 55.3971C-0.736408 55.3971 -0.678467 55.4154 -0.62979 55.4493C-0.581114 55.4833 -0.544043 55.5313 -0.523577 55.5869ZM-4.5904 57.9404C-4.53802 57.9964 -4.50986 58.0708 -4.51201 58.1474C-4.51416 58.2239 -4.54644 58.2966 -4.60188 58.3496C-5.16175 58.8769 -5.66566 59.4605 -6.10562 60.091C-6.15215 60.1459 -6.21747 60.1815 -6.28887 60.191C-6.36027 60.2005 -6.43265 60.1831 -6.49195 60.1423C-6.55125 60.1015 -6.59322 60.0401 -6.60971 59.9701C-6.6262 59.9002 -6.61603 59.8266 -6.58117 59.7636C-6.11772 59.1013 -5.58806 58.4877 -5.00036 57.9322C-4.94424 57.88 -4.86975 57.8519 -4.79302 57.854C-4.71629 57.8561 -4.6435 57.8884 -4.5904 57.9437V57.9404ZM-7.37814 61.7244C-7.30754 61.7546 -7.25185 61.8116 -7.22326 61.8827C-7.19467 61.9539 -7.19552 62.0335 -7.22563 62.1041C-7.52553 62.8115 -7.75086 63.5481 -7.89797 64.3021C-7.90529 64.3393 -7.91988 64.3746 -7.9409 64.4062C-7.96192 64.4378 -7.98897 64.4649 -8.02049 64.486C-8.05201 64.5071 -8.08739 64.5218 -8.12461 64.5293C-8.16183 64.5368 -8.20016 64.5369 -8.23742 64.5296C-8.27467 64.5223 -8.31012 64.5077 -8.34174 64.4867C-8.37336 64.4657 -8.40052 64.4388 -8.42169 64.4073C-8.44286 64.3758 -8.45761 64.3405 -8.4651 64.3034C-8.47259 64.2662 -8.47268 64.228 -8.46536 64.1908C-8.31078 63.3975 -8.07391 62.6225 -7.75858 61.8782C-7.73618 61.8259 -7.69893 61.7813 -7.65143 61.7499C-7.60393 61.7185 -7.54827 61.7017 -7.49129 61.7014C-7.45026 61.7011 -7.40957 61.7089 -7.37158 61.7244H-7.37814ZM-8.39321 66.307C-8.35517 66.3072 -8.31754 66.3149 -8.2825 66.3297C-8.24746 66.3445 -8.21569 66.366 -8.18902 66.3931C-8.16235 66.4201 -8.14131 66.4522 -8.1271 66.4874C-8.11289 66.5227 -8.1058 66.5603 -8.10623 66.5983L-8.12427 68.9616C-8.12977 69.0345 -8.16265 69.1026 -8.21632 69.1522C-8.27 69.2019 -8.3405 69.2295 -8.4137 69.2295C-8.48691 69.2295 -8.55741 69.2019 -8.61109 69.1522C-8.66476 69.1026 -8.69764 69.0345 -8.70314 68.9616L-8.6851 66.5983C-8.68423 66.522 -8.65327 66.4492 -8.59893 66.3956C-8.54459 66.3419 -8.47126 66.3119 -8.39484 66.3119L-8.39321 66.307ZM-8.42928 71.032C-8.35244 71.0328 -8.27903 71.0639 -8.225 71.1185C-8.17097 71.173 -8.14066 71.2466 -8.14067 71.3233L-8.15871 73.6866C-8.15957 73.7629 -8.19053 73.8357 -8.24487 73.8893C-8.29921 73.943 -8.37254 73.973 -8.44896 73.973C-8.487 73.9728 -8.52462 73.9651 -8.55967 73.9503C-8.59471 73.9355 -8.62648 73.914 -8.65315 73.8869C-8.67981 73.8599 -8.70086 73.8278 -8.71507 73.7926C-8.72927 73.7573 -8.73637 73.7197 -8.73593 73.6817L-8.71298 71.3233C-8.71298 71.2469 -8.68257 71.1736 -8.62844 71.1196C-8.57432 71.0656 -8.50091 71.0352 -8.42436 71.0352L-8.42928 71.032ZM-8.46372 75.7586C-8.42582 75.7588 -8.38833 75.7665 -8.3534 75.7812C-8.31846 75.7958 -8.28676 75.8172 -8.26012 75.8441C-8.23347 75.871 -8.21239 75.9029 -8.19809 75.9379C-8.18378 75.973 -8.17653 76.0105 -8.17674 76.0483L-8.19478 78.4116C-8.19649 78.4879 -8.22794 78.5605 -8.28246 78.614C-8.33697 78.6675 -8.41023 78.6976 -8.48668 78.698C-8.56309 78.6972 -8.63607 78.6663 -8.6898 78.612C-8.74353 78.5578 -8.77365 78.4846 -8.77365 78.4083L-8.75561 76.045C-8.75475 75.969 -8.72402 75.8964 -8.67003 75.8429C-8.61604 75.7893 -8.54313 75.759 -8.467 75.7586H-8.46372ZM-8.49979 80.4885C-8.46175 80.4887 -8.42413 80.4965 -8.38909 80.5112C-8.35405 80.526 -8.32228 80.5476 -8.29561 80.5746C-8.26894 80.6017 -8.24789 80.6338 -8.23369 80.669C-8.21948 80.7042 -8.21239 80.7419 -8.21282 80.7798L-8.22922 83.1415C-8.23092 83.218 -8.26232 83.2907 -8.31678 83.3445C-8.37125 83.3982 -8.44452 83.4287 -8.52111 83.4296C-8.55915 83.4294 -8.59678 83.4216 -8.63182 83.4069C-8.66686 83.3921 -8.69863 83.3706 -8.7253 83.3435C-8.75197 83.3164 -8.77301 83.2843 -8.78722 83.2491C-8.80143 83.2139 -8.80852 83.1762 -8.80809 83.1383L-8.79005 80.7749C-8.79005 80.737 -8.78252 80.6995 -8.76789 80.6646C-8.75327 80.6296 -8.73183 80.5979 -8.70484 80.5712C-8.67784 80.5446 -8.64582 80.5236 -8.61062 80.5094C-8.57543 80.4952 -8.53776 80.4881 -8.49979 80.4885Z" fill="#1A2E35"/>
<path d="M8.40378 54.7313H6.23427C6.16127 54.7368 6.09305 54.7696 6.04326 54.8232C5.99348 54.8767 5.96582 54.9471 5.96582 55.0202C5.96582 55.0932 5.99348 55.1636 6.04326 55.2172C6.09305 55.2707 6.16127 55.3035 6.23427 55.309H8.40378C8.44362 55.312 8.48366 55.3068 8.52137 55.2936C8.55909 55.2805 8.59367 55.2597 8.62297 55.2326C8.65226 55.2054 8.67563 55.1726 8.69161 55.136C8.70759 55.0995 8.71584 55.06 8.71584 55.0202C8.71584 54.9803 8.70759 54.9408 8.69161 54.9043C8.67563 54.8677 8.65226 54.8349 8.62297 54.8078C8.59367 54.7806 8.55909 54.7599 8.52137 54.7467C8.48366 54.7335 8.44362 54.7283 8.40378 54.7313Z" fill="#1A2E35"/>
<path d="M28.0265 122.277L14.5453 97.1694C13.9922 96.1369 13.1682 95.2738 12.1616 94.6724C11.155 94.0711 10.0036 93.7541 8.83043 93.7554H-29.6207C-29.9124 93.7554 -30.1991 93.8308 -30.4528 93.9744C-30.7065 94.1179 -30.9187 94.3247 -31.0685 94.5744C-31.2183 94.8242 -31.3007 95.1084 -31.3076 95.3995C-31.3146 95.6905 -31.2458 95.9783 -31.108 96.2349L-17.6285 121.341C-17.0752 122.374 -16.251 123.237 -15.2441 123.839C-14.2373 124.441 -13.0855 124.758 -11.912 124.757H26.5391C26.8306 124.756 27.117 124.681 27.3705 124.537C27.624 124.393 27.8359 124.187 27.9856 123.937C28.1353 123.687 28.2178 123.403 28.2249 123.112C28.2321 122.822 28.1637 122.534 28.0265 122.277Z" fill="white"/>
<path d="M17.3263 102.926C16.2984 103.085 15.2933 103.366 14.3319 103.762C11.9261 104.739 9.77767 106.255 8.05292 108.193C5.63906 110.911 4.06317 114.449 1.04421 116.477C-2.28304 118.713 -6.79098 118.595 -10.4823 117.03C-11.6302 116.539 -12.7584 115.921 -14.0014 115.808C-15.7019 115.652 -17.3893 116.513 -18.5159 117.793C-18.6651 117.965 -18.8061 118.142 -18.939 118.325L-17.3877 121.214C-16.8573 122.203 -16.0678 123.03 -15.1035 123.606C-14.1392 124.183 -13.0363 124.487 -11.9122 124.487H26.5389C26.7835 124.487 27.0239 124.424 27.2367 124.304C27.4495 124.183 27.6274 124.01 27.753 123.801C27.8785 123.591 27.9475 123.353 27.9532 123.109C27.9588 122.865 27.901 122.623 27.7852 122.408L17.3263 102.926Z" fill="#FF006E"/>
<path d="M4.94726 101.721L-28.1957 101.558C-28.2333 101.56 -28.2712 101.556 -28.3068 101.543C-28.3425 101.531 -28.3752 101.511 -28.4029 101.486C-28.4306 101.46 -28.4527 101.429 -28.4678 101.394C-28.4829 101.36 -28.4907 101.323 -28.4907 101.285C-28.4907 101.247 -28.4829 101.21 -28.4678 101.176C-28.4527 101.141 -28.4306 101.11 -28.4029 101.084C-28.3752 101.059 -28.3425 101.039 -28.3068 101.027C-28.2712 101.015 -28.2333 101.01 -28.1957 101.013L4.94562 101.176C5.01438 101.182 5.07859 101.213 5.12543 101.263C5.17228 101.314 5.1983 101.38 5.1983 101.449C5.1983 101.518 5.17228 101.584 5.12543 101.634C5.07859 101.685 5.01438 101.716 4.94562 101.721H4.94726Z" fill="#293241"/>
<path d="M40.8596 54.1801C40.8596 56.8166 40.0762 59.3939 38.6086 61.5861C37.141 63.7783 35.055 65.4869 32.6144 66.4959C30.1738 67.5048 27.4882 67.7688 24.8973 67.2545C22.3064 66.7401 19.9265 65.4705 18.0585 63.6062C16.1906 61.7419 14.9185 59.3666 14.4031 56.7808C13.8878 54.1949 14.1523 51.5146 15.1632 49.0787C16.1741 46.6429 17.8861 44.561 20.0825 43.0962C22.279 41.6314 24.8614 40.8496 27.503 40.8496C31.0454 40.8496 34.4427 42.2541 36.9475 44.754C39.4524 47.254 40.8596 50.6446 40.8596 54.1801Z" fill="white"/>
<path d="M27.5036 67.7981C23.8846 67.7981 20.4139 66.3633 17.855 63.8093C15.296 61.2554 13.8584 57.7914 13.8584 54.1796C13.8584 50.5677 15.296 47.1038 17.855 44.5498C20.4139 41.9958 23.8846 40.561 27.5036 40.561C27.5766 40.5665 27.6448 40.5993 27.6946 40.6529C27.7444 40.7065 27.772 40.7768 27.772 40.8499C27.772 40.923 27.7444 40.9933 27.6946 41.0469C27.6448 41.1005 27.5766 41.1333 27.5036 41.1388C24.9188 41.1385 22.3921 41.9031 20.2428 43.3361C18.0935 44.7691 16.4183 46.8061 15.429 49.1893C14.4398 51.5726 14.1808 54.1951 14.685 56.7253C15.1892 59.2554 16.4338 61.5795 18.2615 63.4036C20.0892 65.2277 22.4178 66.4699 24.9529 66.9731C27.488 67.4763 30.1156 67.2179 32.5036 66.2306C34.8915 65.2432 36.9324 63.5713 38.3682 61.4262C39.804 59.2811 40.5702 56.7593 40.5699 54.1796C40.5754 54.1067 40.6082 54.0386 40.6619 53.9889C40.7156 53.9393 40.7861 53.9117 40.8593 53.9117C40.9325 53.9117 41.003 53.9393 41.0567 53.9889C41.1104 54.0386 41.1432 54.1067 41.1487 54.1796C41.1444 57.7901 39.7054 61.2515 37.1474 63.8046C34.5893 66.3576 31.1212 67.7938 27.5036 67.7981Z" fill="#293241"/>
<path d="M32.4262 54.9326L23.8334 59.8835C23.7011 59.9617 23.5503 60.0034 23.3965 60.0045C23.2428 60.0055 23.0915 59.9658 22.9581 59.8894C22.8247 59.8131 22.714 59.7027 22.6373 59.5697C22.5606 59.4367 22.5206 59.2857 22.5215 59.1323V49.2289C22.5212 49.0756 22.5614 48.925 22.6383 48.7923C22.7151 48.6595 22.8257 48.5494 22.9589 48.4732C23.0921 48.3969 23.2432 48.3571 23.3967 48.3579C23.5503 48.3587 23.701 48.4 23.8334 48.4777L32.4262 53.4302C32.5583 53.5063 32.668 53.6158 32.7443 53.7477C32.8206 53.8795 32.8608 54.0291 32.8608 54.1814C32.8608 54.3337 32.8206 54.4832 32.7443 54.6151C32.668 54.747 32.5583 54.8565 32.4262 54.9326Z" fill="#FF006E"/>
</g>
</svg>
