<svg width="25" height="23" viewBox="0 0 25 23" fill="none" xmlns="http://www.w3.org/2000/svg">
<path d="M24.1735 16.6617C24.2364 16.3386 24.2157 15.9708 24.1094 15.588C23.4127 13.0782 21.3278 7.93948 19.5952 5.82305C19.1406 5.26769 18.2647 5.31566 17.7569 5.82305C17.5336 6.04656 17.4094 6.33123 17.3829 6.62314C17.2469 6.49733 17.0744 6.41046 16.884 6.3856C16.884 6.3856 12.4898 5.83804 12.4365 5.84499H10.4382C9.78702 5.84499 9.59645 6.22259 9.59645 6.68672V13.1017H8.12983V6.22242C8.12983 5.88209 7.85291 5.60516 7.51257 5.60516H1.56428C1.22395 5.60516 0.947021 5.88209 0.947021 6.22242C0.947021 6.22242 0.949154 15.8823 0.949154 16.5071C0.949154 17.2249 1.53101 17.8067 2.24872 17.8067H3.52398C3.4581 18.075 3.42247 18.3551 3.42247 18.6434C3.42247 20.5796 4.99795 22.1547 6.93442 22.1547C8.87077 22.1547 10.4461 20.5796 10.4461 18.6434C10.4461 18.3551 10.4105 18.075 10.3446 17.8067H14.275V18.6677C14.275 19.3485 14.8288 19.9023 15.5096 19.9023H15.5332C15.8624 19.9023 16.1715 19.7732 16.4035 19.5389C16.6354 19.3045 16.7613 18.9942 16.758 18.6649L16.7492 17.8067H17.866C17.8002 18.075 17.7645 18.3551 17.7645 18.6434C17.7645 20.5796 19.34 22.1547 21.2765 22.1547C23.2128 22.1547 24.7882 20.5796 24.7882 18.6434C24.7881 17.9087 24.5608 17.2262 24.1735 16.6617ZM21.2764 17.3181C22.0071 17.3181 22.6016 17.9127 22.6016 18.6434C22.6016 19.3741 22.0071 19.9686 21.2764 19.9686C20.5454 19.9686 19.9506 19.3741 19.9506 18.6434C19.9506 17.9127 20.5453 17.3181 21.2764 17.3181ZM8.25957 18.6434C8.25957 19.3741 7.66509 19.9686 6.93436 19.9686C6.20335 19.9686 5.60865 19.3741 5.60865 18.6434C5.60865 17.9127 6.20335 17.3181 6.93436 17.3181C7.66509 17.3181 8.25957 17.9127 8.25957 18.6434ZM16.7029 13.2909C16.696 12.6117 16.1379 12.0593 15.4587 12.0593H13.4045V7.86451L14.409 7.98791C14.4907 8.3636 14.8247 8.64507 15.2248 8.64507H18.7409L19.0134 10.9157L16.7095 13.932L16.7029 13.2909Z" fill="white"/>
<path d="M11.1951 4.94505C12.5566 4.94505 13.6642 3.8374 13.6642 2.47583C13.6642 2.30272 13.6461 2.13376 13.612 1.97057L14.1538 1.95991C14.4765 1.95352 14.8244 1.72883 14.9629 1.4372L15.1446 1.05484C15.2309 0.873193 15.2265 0.683525 15.1322 0.534428C15.038 0.385443 14.8689 0.29998 14.6663 0.29998L12.371 0.305311C12.0212 0.114969 11.6205 0.00683594 11.195 0.00683594C9.83348 0.00683594 8.72583 1.11443 8.72583 2.47594C8.72589 3.8374 9.83354 4.94505 11.1951 4.94505Z" fill="white"/>
</svg>
