<svg width="300" height="300" viewBox="0 0 300 300" fill="none" xmlns="http://www.w3.org/2000/svg">
<rect x="1.5" y="1.5" width="297" height="297" rx="10.5" fill="#252525" stroke="white" stroke-width="3" stroke-linecap="round" stroke-dasharray="30 30"/>
<path d="M148.333 148.333V141.667H151.666V148.333H158.333V151.667H151.666V158.333H148.333V151.667H141.666V148.333H148.333ZM150 166.667C140.795 166.667 133.333 159.205 133.333 150C133.333 140.795 140.795 133.333 150 133.333C159.205 133.333 166.666 140.795 166.666 150C166.666 159.205 159.205 166.667 150 166.667ZM150 163.333C153.536 163.333 156.927 161.929 159.428 159.428C161.928 156.928 163.333 153.536 163.333 150C163.333 146.464 161.928 143.072 159.428 140.572C156.927 138.071 153.536 136.667 150 136.667C146.463 136.667 143.072 138.071 140.572 140.572C138.071 143.072 136.666 146.464 136.666 150C136.666 153.536 138.071 156.928 140.572 159.428C143.072 161.929 146.463 163.333 150 163.333Z" fill="white"/>
</svg>
