<svg width="25" height="25" viewBox="0 0 25 25" fill="none" xmlns="http://www.w3.org/2000/svg">
<g clip-path="url(#clip0)">
<path d="M25 12.5C25 5.5791 19.4209 0 12.5 0C5.5791 0 0 5.5791 0 12.5C0 18.7147 4.5904 23.8701 10.5226 24.8588V16.1017H7.34463V12.5H10.5226V9.74576C10.5226 6.63842 12.3588 4.87288 15.2542 4.87288C16.596 4.87288 18.0791 5.08475 18.0791 5.08475V8.19209H16.5254C14.9718 8.19209 14.4774 9.18079 14.4774 10.1695V12.5H17.9379L17.3729 16.1017H14.4774V24.8588C20.4096 23.8701 25 18.7147 25 12.5Z" fill="white"/>
<path d="M17.3729 16.1017L17.9379 12.5H14.4774V10.1695C14.4774 9.18077 14.9718 8.19207 16.5254 8.19207H18.0791V5.15535C18.0791 5.15535 16.6667 4.94348 15.2542 4.94348C12.4294 4.94348 10.5226 6.6384 10.5226 9.81636V12.5706H7.34464V16.1723H10.5226V24.9294C11.1582 25 11.7938 25.0706 12.5 25.0706C13.1356 25.0706 13.8418 25 14.4774 24.9294V16.1017H17.3729Z" fill="#1C2645"/>
</g>
<defs>
<clipPath id="clip0">
<rect width="25" height="25" fill="white"/>
</clipPath>
</defs>
</svg>
