<svg width="25" height="25" viewBox="0 0 25 25" fill="none" xmlns="http://www.w3.org/2000/svg">
<path d="M12.5 25C19.4036 25 25 19.4036 25 12.5C25 5.59644 19.4036 0 12.5 0C5.59644 0 0 5.59644 0 12.5C0 19.4036 5.59644 25 12.5 25Z" fill="white"/>
<path d="M16.3842 7.76843C15.8898 7.76843 15.5367 8.12154 15.5367 8.61589C15.5367 9.11024 15.8898 9.46335 16.3842 9.46335C16.8785 9.46335 17.2316 9.11024 17.2316 8.61589C17.2316 8.12154 16.8785 7.76843 16.3842 7.76843Z" fill="#1C2645"/>
<path d="M12.5706 8.89832C10.5932 8.89832 8.96893 10.5226 8.96893 12.5C8.96893 14.4774 10.5932 16.1017 12.5706 16.1017C14.548 16.1017 16.1723 14.4774 16.1723 12.5C16.1723 10.452 14.548 8.89832 12.5706 8.89832ZM12.5706 14.7599C11.2994 14.7599 10.2401 13.7006 10.2401 12.4294C10.2401 11.1582 11.2994 10.0989 12.5706 10.0989C13.8418 10.0989 14.9011 11.1582 14.9011 12.4294C14.8305 13.7712 13.8418 14.7599 12.5706 14.7599Z" fill="#1C2645"/>
<path d="M15.3955 19.774H9.5339C7.13277 19.774 5.15537 17.7966 5.15537 15.3955V9.53393C5.15537 7.1328 7.13277 5.1554 9.5339 5.1554H15.3955C17.7966 5.1554 19.774 7.1328 19.774 9.53393V15.3955C19.8446 17.7966 17.8672 19.774 15.3955 19.774ZM9.5339 6.4972C7.83898 6.4972 6.49717 7.83901 6.49717 9.53393V15.3955C6.49717 17.0904 7.83898 18.4322 9.5339 18.4322H15.3955C17.0904 18.4322 18.4322 17.0904 18.4322 15.3955V9.53393C18.4322 7.83901 17.0904 6.4972 15.3955 6.4972H9.5339Z" fill="#1C2645"/>
</svg>
