<svg width="300" height="300" viewBox="0 0 300 300" fill="none" xmlns="http://www.w3.org/2000/svg">
<path d="M37.3921 154.284C35.7781 129.456 2.4781 87.504 24.8221 55.104C47.1661 22.704 74.3101 22.704 129.936 32.304C185.562 41.904 207.876 12.354 243.12 26.73C278.364 41.106 285.288 67.5 273.6 106.506C261.912 145.512 269.556 180.786 275.958 208.146C282.36 235.506 260.868 264.696 211.86 264.696C162.852 264.696 138.672 212.304 93.3601 210.456C48.0601 208.602 40.0201 194.67 37.3921 154.284Z" fill="#F5F8FF"/>
<path d="M237.006 214.818C242.01 265.56 189.024 236.898 125.964 252.36C41.2562 273.132 59.5502 229.158 28.8722 209.082C-1.80583 189.006 11.7302 156.444 37.9622 126.12C64.2002 95.796 39.2882 63.474 71.7962 47.472C104.31 31.47 137.196 51.816 170.316 71.82C203.436 91.824 225.27 60.426 252.42 81.9C279.576 103.368 230.754 151.41 237.006 214.818Z" fill="white"/>
<path d="M186.174 271.824C186.174 274.02 167.838 275.796 145.224 275.796C122.61 275.796 104.274 274.014 104.274 271.824C104.274 269.628 122.61 267.852 145.224 267.852C167.838 267.852 186.174 269.634 186.174 271.824Z" fill="#F5F8FF"/>
<path d="M279.792 74.346H175.35V170.226H279.792V74.346Z" fill="#FF006E"/>
<path d="M221.898 79.536H181.572V165.042H221.898V79.536Z" fill="#EAA926"/>
<path d="M273.571 79.536H233.245V165.042H273.571V79.536Z" fill="#EAA926"/>
<path opacity="0.3" d="M279.792 131.58H175.35V170.226H279.792V131.58Z" fill="#ECCFC5"/>
<path d="M210.582 116.868L227.94 103.098L245.298 116.868H210.582Z" stroke="#EAF3FF" stroke-miterlimit="10"/>
<path d="M229.35 103.116C229.35 103.866 228.738 104.478 227.988 104.478C227.238 104.478 226.626 103.866 226.626 103.116C226.626 102.366 227.238 101.754 227.988 101.754C228.738 101.76 229.35 102.366 229.35 103.116Z" fill="#F4406F"/>
<path d="M250.362 141.378C250.362 143.118 248.952 144.528 247.212 144.528H208.662C206.922 144.528 205.512 143.118 205.512 141.378V118.062C205.512 116.322 206.922 114.912 208.662 114.912H247.212C248.952 114.912 250.362 116.322 250.362 118.062V141.378Z" fill="#E3A214"/>
<path d="M249.408 140.814C249.408 142.518 248.028 143.898 246.324 143.898H208.596C206.892 143.898 205.512 142.518 205.512 140.814V117.996C205.512 116.292 206.892 114.912 208.596 114.912H246.324C248.028 114.912 249.408 116.292 249.408 117.996V140.814Z" fill="#FCBF31"/>
<path d="M279.276 48.636H175.866L166.824 76.302V84.33C166.824 88.698 170.364 92.238 174.732 92.238C178.278 92.238 181.278 89.904 182.28 86.688C183.282 89.904 186.282 92.238 189.828 92.238C193.374 92.238 196.374 89.904 197.376 86.688C198.378 89.904 201.378 92.238 204.924 92.238C208.47 92.238 211.47 89.904 212.472 86.688C213.474 89.904 216.474 92.238 220.02 92.238C223.566 92.238 226.566 89.904 227.568 86.688C228.57 89.904 231.57 92.238 235.116 92.238C238.662 92.238 241.662 89.904 242.664 86.688C243.666 89.904 246.666 92.238 250.212 92.238C253.758 92.238 256.758 89.904 257.76 86.688C258.762 89.904 261.762 92.238 265.308 92.238C268.854 92.238 271.854 89.904 272.856 86.688C273.858 89.904 276.858 92.238 280.404 92.238C284.772 92.238 288.312 88.698 288.312 84.33V76.302L279.276 48.636Z" fill="#FF006E"/>
<path d="M201.864 48.636H188.832L182.28 76.302V86.688C183.282 89.904 186.282 92.238 189.828 92.238C193.374 92.238 196.374 89.904 197.376 86.688V76.302L201.864 48.636Z" fill="#EAF3FF"/>
<path d="M214.656 48.636L212.472 76.302V86.688C213.474 89.904 216.474 92.238 220.02 92.238C223.566 92.238 226.566 89.904 227.568 86.688V48.636H214.656Z" fill="#EAF3FF"/>
<path d="M242.67 76.302V86.688C243.672 89.904 246.672 92.238 250.218 92.238C253.764 92.238 256.764 89.904 257.766 86.688V76.302L253.398 48.636H240.486L242.67 76.302Z" fill="#EAF3FF"/>
<path d="M280.41 92.238C284.778 92.238 288.318 88.698 288.318 84.33V76.302L279.276 48.636H266.31L272.862 76.302V86.688C273.864 89.904 276.864 92.238 280.41 92.238Z" fill="#EAF3FF"/>
<path opacity="0.3" d="M174.732 92.238C178.278 92.238 181.278 89.904 182.28 86.688C183.282 89.904 186.282 92.238 189.828 92.238C193.374 92.238 196.374 89.904 197.376 86.688C198.378 89.904 201.378 92.238 204.924 92.238C208.47 92.238 211.47 89.904 212.472 86.688C213.474 89.904 216.474 92.238 220.02 92.238C223.566 92.238 226.566 89.904 227.568 86.688C228.57 89.904 231.57 92.238 235.116 92.238C238.662 92.238 241.662 89.904 242.664 86.688C243.666 89.904 246.666 92.238 250.212 92.238C253.758 92.238 256.758 89.904 257.76 86.688C258.762 89.904 261.762 92.238 265.308 92.238C268.854 92.238 271.854 89.904 272.856 86.688C273.858 89.904 276.858 92.238 280.404 92.238C284.772 92.238 288.312 88.698 288.312 84.33V76.302H166.824V84.33C166.824 88.698 170.364 92.238 174.732 92.238Z" fill="#F0773C"/>
<path d="M261.756 153.696C261.756 153.696 251.28 149.124 247.578 144.204C243.876 139.284 247.578 137.598 252.462 140.622C252.462 140.622 251.124 136.524 253.41 136.212C255.69 135.894 261.438 144.048 261.756 153.696Z" fill="#DD9A24"/>
<path d="M250.488 143.142C249.69 143.784 250.11 145.62 250.71 147.27C255.276 150.87 261.75 153.696 261.75 153.696C258.762 144.798 252.066 141.882 250.488 143.142Z" fill="#EAA926"/>
<path d="M269.124 153.696C269.124 153.696 279.6 149.124 283.302 144.204C287.004 139.284 283.302 137.598 278.418 140.622C278.418 140.622 279.756 136.524 277.47 136.212C275.19 135.894 269.436 144.048 269.124 153.696Z" fill="#DD9A24"/>
<path d="M280.386 143.142C278.808 141.882 272.118 144.798 269.124 153.696C269.124 153.696 275.592 150.87 280.164 147.27C280.77 145.62 281.184 143.784 280.386 143.142Z" fill="#EAA926"/>
<path d="M264.354 153.696C262.632 154.278 257.736 146.448 256.476 140.778C255.216 135.108 256.95 129.516 261.204 133.608C261.204 133.608 261.282 125.97 264.75 125.652C268.218 125.334 268.926 135.024 268.926 135.024C268.926 135.024 271.68 131.556 273.966 132.816C276.246 134.082 274.356 150.312 264.354 153.696Z" fill="#EAA926"/>
<path d="M264.354 153.996C264.342 153.996 264.33 153.996 264.318 153.996C264.156 153.978 264.036 153.828 264.054 153.666C265.374 141.63 264.378 129.666 264.366 129.546C264.354 129.384 264.474 129.234 264.642 129.222C264.798 129.204 264.954 129.33 264.966 129.498C264.978 129.618 265.98 141.642 264.648 153.738C264.636 153.882 264.504 153.996 264.354 153.996Z" fill="white"/>
<path d="M264.534 152.178C264.522 152.178 264.51 152.178 264.504 152.178C264.402 152.166 264.312 152.1 264.264 152.01C260.85 144.816 258.804 137.076 258.786 136.998C258.744 136.836 258.84 136.674 259.002 136.632C259.164 136.59 259.326 136.686 259.368 136.848C259.386 136.926 261.336 144.294 264.594 151.302C265.71 149.754 269.736 143.88 272.262 136.434C272.316 136.278 272.484 136.194 272.64 136.248C272.796 136.302 272.88 136.47 272.826 136.626C269.85 145.392 264.822 152.004 264.768 152.064C264.714 152.136 264.63 152.178 264.534 152.178Z" fill="white"/>
<path d="M277.272 169.02H253.116L249.438 150.054H280.944L277.272 169.02Z" fill="#EAF3FF"/>
<path d="M252.414 165.408L253.116 169.02H277.272L280.266 153.564L252.414 165.408Z" fill="#EAF3FF"/>
<path d="M284.802 168.828H170.334V182.46H284.802V168.828Z" fill="#B52C57"/>
<path d="M284.802 175.644H170.334V182.46H284.802V175.644Z" fill="#FF006E"/>
<path d="M159.864 251.13C159.864 251.13 158.58 237.27 165.06 222.468C169.956 211.296 174.672 205.92 178.452 207.024C182.232 208.128 179.082 215.532 181.92 215.058C184.758 214.584 194.682 204.858 202.554 206.886C210.432 208.914 204.132 215.586 199.878 220.596C195.624 225.612 204.288 221.544 204.918 227.028C206.088 237.222 173.568 240.738 159.864 251.13Z" fill="#EAA926"/>
<path d="M159.864 251.43C159.816 251.43 159.762 251.418 159.714 251.394C159.57 251.31 159.516 251.13 159.6 250.986C175.53 222.714 197.478 212.214 197.7 212.112C197.85 212.04 198.03 212.106 198.102 212.256C198.174 212.406 198.108 212.586 197.958 212.658C197.742 212.76 175.956 223.194 160.128 251.286C160.068 251.376 159.966 251.43 159.864 251.43Z" fill="white"/>
<path d="M174.576 231.114C174.51 231.114 174.45 231.096 174.396 231.054C174.318 230.994 174.276 230.904 174.276 230.808C174.492 219.378 176.826 214.374 176.922 214.17C176.994 214.02 177.168 213.96 177.324 214.026C177.474 214.098 177.534 214.278 177.468 214.428C177.444 214.476 175.146 219.414 174.888 230.412C176.748 229.896 185.04 227.796 197.826 227.52C197.994 227.544 198.126 227.646 198.132 227.814C198.138 227.982 198.006 228.114 197.838 228.12C183.396 228.432 174.75 231.072 174.666 231.102C174.636 231.108 174.606 231.114 174.576 231.114Z" fill="white"/>
<path d="M183.036 222.906C182.928 222.906 182.826 222.846 182.772 222.744C182.694 222.6 182.754 222.414 182.898 222.342C182.97 222.306 190.242 218.508 196.98 217.014C197.148 216.978 197.304 217.08 197.34 217.242C197.376 217.404 197.274 217.566 197.112 217.602C190.452 219.078 183.252 222.834 183.18 222.876C183.132 222.9 183.084 222.906 183.036 222.906Z" fill="white"/>
<path d="M165.498 242.454C165.444 242.454 165.384 242.436 165.336 242.406C165.246 242.346 165.192 242.244 165.198 242.136C165.63 232.59 168.762 223.704 168.792 223.62C168.846 223.464 169.02 223.38 169.176 223.44C169.332 223.494 169.416 223.668 169.356 223.824C169.326 223.908 166.338 232.398 165.822 241.65C167.73 240.702 175.308 237.12 185.316 234.87C185.478 234.84 185.64 234.936 185.676 235.098C185.712 235.26 185.61 235.422 185.448 235.458C173.964 238.038 165.72 242.376 165.636 242.418C165.594 242.442 165.546 242.454 165.498 242.454Z" fill="white"/>
<path d="M160.806 247.038C160.806 247.038 151.356 219.048 159.858 195.786C159.864 195.786 169.314 213.012 160.806 247.038Z" fill="#EAA926"/>
<path d="M160.806 247.338C160.8 247.338 160.794 247.338 160.788 247.338C160.62 247.332 160.494 247.188 160.506 247.02C161.904 221.664 160.056 204.864 160.032 204.702C160.014 204.54 160.134 204.39 160.296 204.372C160.458 204.354 160.608 204.474 160.626 204.636C160.644 204.804 162.504 221.646 161.1 247.056C161.1 247.212 160.968 247.338 160.806 247.338Z" fill="white"/>
<path d="M51.018 238.11C51.018 238.11 34.002 218.574 26.916 215.586C19.83 212.598 18.48 215.13 16.044 218.262C15.06 219.528 6.90603 215.898 4.38603 222.042C1.86603 228.186 7.14003 229.806 13.05 231.492C17.46 232.752 8.79603 235.428 11.79 240.474C14.784 245.514 23.292 244.728 51.018 238.11Z" fill="#EAA926"/>
<path d="M51.0178 238.41C50.9698 238.41 50.9278 238.398 50.8798 238.38C21.2458 223.176 8.16581 224.016 8.03381 224.016C7.86581 224.028 7.72181 223.908 7.70981 223.74C7.69781 223.572 7.81781 223.428 7.98581 223.416C8.11781 223.404 21.3358 222.54 51.1498 237.84C51.2998 237.918 51.3538 238.098 51.2818 238.242C51.2278 238.35 51.1258 238.41 51.0178 238.41Z" fill="white"/>
<path d="M17.4599 238.41C17.3219 238.41 17.1959 238.314 17.1659 238.17C17.1359 238.008 17.2379 237.852 17.3999 237.816C17.5139 237.792 28.9559 235.566 46.8719 236.076C44.5319 233.736 34.6499 224.262 23.6399 219.642C23.4899 219.576 23.4179 219.402 23.4779 219.252C23.5439 219.102 23.7179 219.024 23.8679 219.09C36.5399 224.406 47.7119 236.076 47.8199 236.196C47.9039 236.286 47.9279 236.412 47.8739 236.526C47.8259 236.634 47.7299 236.712 47.5919 236.7C29.3279 236.1 17.6219 238.38 17.5079 238.404C17.5019 238.41 17.4839 238.41 17.4599 238.41Z" fill="white"/>
<path d="M55.9499 238.764C55.9499 238.764 53.7419 213.252 43.0079 197.574C32.2679 181.896 16.0439 173.28 16.0439 173.28C16.0439 173.28 16.5179 196.56 27.0719 214.194C37.6259 231.828 55.9499 238.764 55.9499 238.764Z" fill="#DD9A24"/>
<path d="M55.95 239.064C55.824 239.064 55.71 238.986 55.668 238.866C43.752 205.758 23.754 185.748 23.55 185.55C23.43 185.436 23.43 185.244 23.55 185.124C23.664 185.004 23.856 185.004 23.976 185.124C24.18 185.322 44.274 205.434 56.238 238.662C56.292 238.818 56.214 238.992 56.058 239.046C56.022 239.058 55.986 239.064 55.95 239.064Z" fill="white"/>
<path d="M37.2481 202.518C37.1821 202.518 37.1161 202.494 37.0621 202.452C28.4641 195.78 21.1861 192.282 21.1141 192.246C20.9641 192.174 20.8981 191.994 20.9701 191.844C21.0421 191.694 21.2221 191.628 21.3721 191.7C21.4441 191.736 28.4461 195.096 36.8401 201.516C36.4621 199.224 35.1181 192.114 32.2621 187.806C32.1721 187.668 32.2081 187.482 32.3461 187.392C32.4841 187.302 32.6701 187.338 32.7601 187.476C36.2581 192.756 37.4941 201.792 37.5421 202.176C37.5601 202.296 37.5001 202.416 37.3921 202.476C37.3501 202.5 37.3021 202.518 37.2481 202.518Z" fill="white"/>
<path d="M43.4521 212.346C43.4101 212.346 43.3621 212.334 43.3261 212.316C34.3201 208.032 27.3781 206.328 27.3121 206.31C27.1501 206.268 27.0541 206.106 27.0901 205.95C27.1261 205.788 27.2941 205.692 27.4501 205.728C27.5221 205.746 34.5241 207.468 43.5841 211.776C43.7341 211.848 43.8001 212.028 43.7281 212.178C43.6741 212.286 43.5661 212.346 43.4521 212.346Z" fill="white"/>
<path d="M48.0782 220.842C48.0422 220.842 48.0002 220.836 47.9642 220.818C47.8982 220.788 41.1242 218.076 32.4782 216.372C32.3162 216.342 32.2082 216.18 32.2442 216.018C32.2742 215.856 32.4362 215.748 32.5982 215.784C39.9782 217.242 46.0082 219.432 47.7122 220.074C46.6502 212.634 44.4482 204.264 44.4302 204.18C44.3882 204.018 44.4842 203.856 44.6462 203.814C44.8022 203.772 44.9702 203.868 45.0122 204.03C45.0362 204.12 47.3402 212.904 48.3842 220.5C48.3962 220.608 48.3542 220.71 48.2702 220.776C48.2102 220.818 48.1442 220.842 48.0782 220.842Z" fill="white"/>
<path d="M53.8504 233.55C53.7724 233.55 53.6944 233.52 53.6344 233.46C48.3844 228.06 40.2784 224.736 40.1944 224.706C40.0384 224.646 39.9664 224.466 40.0264 224.316C40.0864 224.166 40.2664 224.088 40.4164 224.148C40.5004 224.184 48.7204 227.544 54.0604 233.04C54.1744 233.16 54.1744 233.346 54.0544 233.466C54.0004 233.52 53.9224 233.55 53.8504 233.55Z" fill="white"/>
<path d="M153.75 74.346H45.6724V238.176H153.75V74.346Z" fill="#FF006E"/>
<path d="M148.098 80.646H51.3242V238.176H148.098V80.646Z" fill="#EAA926"/>
<path d="M126.102 116.856H115.476V129.348H126.102V116.856Z" fill="#FCBF31"/>
<path d="M133.818 120.066H126.096V129.348H133.818V120.066Z" fill="#FCBF31"/>
<path d="M148.098 117.39H141.198V129.342H148.098V117.39Z" fill="#FCBF31"/>
<path d="M148.098 129.348H111.366V131.586H148.098V129.348Z" fill="#FCBF31"/>
<path d="M148.099 158.436H104.623V238.176H148.099V158.436Z" fill="#FCBF31"/>
<path d="M148.104 163.086H108.51V185.166H148.104V163.086Z" fill="#EAA926"/>
<path d="M125.156 159.002L104.869 176.829L106.057 178.181L126.344 160.354L125.156 159.002Z" fill="#FCBF31"/>
<path d="M130.915 159.774L103.285 184.067L105.662 186.771L133.293 162.477L130.915 159.774Z" fill="#FCBF31"/>
<path d="M148.104 188.64H108.51V219.174H148.104V188.64Z" fill="#EAA926"/>
<path d="M125.156 181.604L104.869 199.431L106.057 200.783L126.344 182.956L125.156 181.604Z" fill="#FCBF31"/>
<path d="M130.91 182.38L103.284 206.67L105.661 209.373L133.288 185.084L130.91 182.38Z" fill="#FCBF31"/>
<path d="M99.7142 80.646H51.3242V238.176H99.7142V80.646Z" fill="#FF006E"/>
<path d="M93.4024 147.594C93.4024 149.076 92.2024 150.282 90.7144 150.282C89.2324 150.282 88.0264 149.082 88.0264 147.594C88.0264 146.112 89.2264 144.906 90.7144 144.906C92.2024 144.906 93.4024 146.106 93.4024 147.594Z" fill="#FCBF31"/>
<path d="M94.0026 85.794H57.0366V136.416H94.0026V85.794Z" fill="#B52C57"/>
<path d="M91.9027 87.684H59.1367V134.52H91.9027V87.684Z" fill="#942246"/>
<path d="M94.0026 159.858H57.0366V189.972H94.0026V159.858Z" fill="#B52C57"/>
<path d="M91.9027 162.036H59.1367V187.794H91.9027V162.036Z" fill="#942246"/>
<path d="M94.0026 194.514H57.0366V224.628H94.0026V194.514Z" fill="#B52C57"/>
<path d="M91.9027 196.692H59.1367V222.45H91.9027V196.692Z" fill="#942246"/>
<path d="M52.5303 80.646H50.6943V238.176H52.5303V80.646Z" fill="#B52C57"/>
<path d="M121.062 104.478H115.782V109.986H121.062V104.478Z" fill="#FCBF31"/>
<path d="M130.59 99.87H123.084V109.986H130.59V99.87Z" fill="#FCBF31"/>
<path d="M138.828 102.18H133.818V109.986H138.828V102.18Z" fill="#FCBF31"/>
<path d="M148.098 98.604H141.198V109.98H148.098V98.604Z" fill="#FCBF31"/>
<path d="M148.098 109.986H111.366V112.224H148.098V109.986Z" fill="#FCBF31"/>
<path opacity="0.3" d="M45.6724 100.404C46.5484 99.438 47.2264 98.286 47.6224 97.014C48.7744 100.71 52.2244 103.392 56.3044 103.392C60.3844 103.392 63.8344 100.71 64.9864 97.014C66.1384 100.71 69.5884 103.392 73.6684 103.392C77.7484 103.392 81.1984 100.71 82.3504 97.014C83.5024 100.71 86.9524 103.392 91.0324 103.392C95.1124 103.392 98.5624 100.71 99.7144 97.014C100.866 100.71 104.316 103.392 108.396 103.392C112.476 103.392 115.926 100.71 117.078 97.014C118.23 100.71 121.68 103.392 125.76 103.392C129.84 103.392 133.29 100.71 134.442 97.014C135.594 100.71 139.044 103.392 143.124 103.392C147.204 103.392 150.654 100.71 151.806 97.014C152.202 98.292 152.88 99.438 153.756 100.404V74.346H45.6724V100.404Z" fill="#FF006E"/>
<path d="M159.18 40.638H40.2422L29.8442 72.456V81.69C29.8442 86.712 33.9182 90.786 38.9402 90.786C43.0202 90.786 46.4702 88.104 47.6222 84.408C48.7742 88.104 52.2242 90.786 56.3042 90.786C60.3842 90.786 63.8342 88.104 64.9862 84.408C66.1382 88.104 69.5882 90.786 73.6682 90.786C77.7482 90.786 81.1982 88.104 82.3502 84.408C83.5022 88.104 86.9522 90.786 91.0322 90.786C95.1122 90.786 98.5622 88.104 99.7142 84.408C100.866 88.104 104.316 90.786 108.396 90.786C112.476 90.786 115.926 88.104 117.078 84.408C118.23 88.104 121.68 90.786 125.76 90.786C129.84 90.786 133.29 88.104 134.442 84.408C135.594 88.104 139.044 90.786 143.124 90.786C147.204 90.786 150.654 88.104 151.806 84.408C152.958 88.104 156.408 90.786 160.488 90.786C165.51 90.786 169.584 86.712 169.584 81.69V72.456L159.18 40.638Z" fill="#FF006E"/>
<path d="M70.1461 40.638H55.1581L47.6221 72.456V84.402C48.7741 88.098 52.2241 90.78 56.3041 90.78C60.3841 90.78 63.8341 88.098 64.9861 84.402V72.456L70.1461 40.638Z" fill="#EAF3FF"/>
<path d="M84.8582 40.638L82.3442 72.456V84.402C83.4962 88.098 86.9462 90.78 91.0262 90.78C95.1062 90.78 98.5562 88.098 99.7082 84.402V40.638H84.8582Z" fill="#EAF3FF"/>
<path d="M117.072 72.456V84.402C118.224 88.098 121.674 90.78 125.754 90.78C129.834 90.78 133.284 88.098 134.436 84.402V72.456L129.414 40.638H114.564L117.072 72.456Z" fill="#EAF3FF"/>
<path d="M160.482 90.786C165.504 90.786 169.578 86.712 169.578 81.69V72.456L159.18 40.638H144.264L151.8 72.456V84.402C152.952 88.098 156.402 90.786 160.482 90.786Z" fill="#EAF3FF"/>
<path opacity="0.3" d="M38.9406 90.786C43.0206 90.786 46.4706 88.104 47.6226 84.408C48.7746 88.104 52.2246 90.786 56.3046 90.786C60.3846 90.786 63.8346 88.104 64.9866 84.408C66.1386 88.104 69.5886 90.786 73.6686 90.786C77.7486 90.786 81.1986 88.104 82.3506 84.408C83.5026 88.104 86.9526 90.786 91.0326 90.786C95.1126 90.786 98.5626 88.104 99.7146 84.408C100.867 88.104 104.317 90.786 108.397 90.786C112.477 90.786 115.927 88.104 117.079 84.408C118.231 88.104 121.681 90.786 125.761 90.786C129.841 90.786 133.291 88.104 134.443 84.408C135.595 88.104 139.045 90.786 143.125 90.786C147.205 90.786 150.655 88.104 151.807 84.408C152.959 88.104 156.409 90.786 160.489 90.786C165.511 90.786 169.585 86.712 169.585 81.69V72.456H29.8506V81.69C29.8506 86.712 33.9186 90.786 38.9406 90.786Z" fill="#ECCFC5"/>
<path d="M161.046 238.176H38.3823V247.944H161.046V238.176Z" fill="#B52C57"/>
<path d="M171.534 247.344H27.8823V257.112H171.534V247.344Z" fill="#FF006E"/>
<path d="M218.815 124.986C218.604 125.239 218.306 125.436 217.92 125.576C217.535 125.714 217.108 125.783 216.639 125.783C216.147 125.783 215.715 125.676 215.342 125.463C214.972 125.247 214.686 124.934 214.483 124.525C214.282 124.117 214.18 123.636 214.174 123.084V122.697C214.174 122.13 214.269 121.639 214.459 121.225C214.652 120.808 214.928 120.49 215.288 120.271C215.65 120.05 216.073 119.939 216.557 119.939C217.232 119.939 217.759 120.101 218.139 120.424C218.519 120.744 218.745 121.212 218.815 121.826H217.674C217.622 121.501 217.506 121.262 217.327 121.111C217.15 120.96 216.905 120.885 216.592 120.885C216.194 120.885 215.89 121.034 215.682 121.334C215.474 121.633 215.368 122.079 215.366 122.67V123.033C215.366 123.63 215.479 124.08 215.706 124.385C215.932 124.689 216.264 124.842 216.702 124.842C217.142 124.842 217.456 124.748 217.643 124.561V123.58H216.577V122.717H218.815V124.986ZM222.143 125.705C222.091 125.603 222.053 125.477 222.03 125.326C221.756 125.631 221.401 125.783 220.963 125.783C220.549 125.783 220.206 125.663 219.932 125.424C219.661 125.184 219.526 124.882 219.526 124.518C219.526 124.07 219.691 123.726 220.022 123.486C220.355 123.247 220.836 123.126 221.463 123.123H221.983V122.881C221.983 122.686 221.932 122.529 221.831 122.412C221.732 122.295 221.574 122.236 221.358 122.236C221.168 122.236 221.018 122.282 220.909 122.373C220.802 122.464 220.749 122.589 220.749 122.748H219.62C219.62 122.503 219.695 122.277 219.846 122.068C219.997 121.86 220.211 121.697 220.487 121.58C220.763 121.46 221.073 121.4 221.417 121.4C221.937 121.4 222.35 121.532 222.655 121.795C222.962 122.055 223.116 122.422 223.116 122.896V124.728C223.118 125.13 223.174 125.433 223.284 125.639V125.705H222.143ZM221.209 124.92C221.376 124.92 221.53 124.883 221.67 124.811C221.811 124.735 221.915 124.635 221.983 124.51V123.783H221.561C220.996 123.783 220.695 123.978 220.659 124.369L220.655 124.436C220.655 124.576 220.704 124.692 220.803 124.783C220.902 124.874 221.038 124.92 221.209 124.92ZM227.792 123.631C227.792 124.308 227.647 124.837 227.358 125.217C227.069 125.594 226.665 125.783 226.147 125.783C225.689 125.783 225.323 125.607 225.049 125.256L224.999 125.705H223.983V119.705H225.112V121.857C225.372 121.553 225.715 121.4 226.139 121.4C226.655 121.4 227.058 121.59 227.35 121.971C227.644 122.348 227.792 122.881 227.792 123.568V123.631ZM226.663 123.549C226.663 123.122 226.595 122.811 226.459 122.615C226.324 122.417 226.122 122.318 225.854 122.318C225.495 122.318 225.247 122.465 225.112 122.76V124.428C225.25 124.725 225.5 124.873 225.862 124.873C226.226 124.873 226.466 124.693 226.581 124.334C226.635 124.162 226.663 123.9 226.663 123.549ZM231.022 125.275C230.743 125.614 230.358 125.783 229.866 125.783C229.413 125.783 229.066 125.653 228.827 125.393C228.59 125.132 228.469 124.751 228.463 124.248V121.478H229.592V124.209C229.592 124.649 229.793 124.869 230.194 124.869C230.577 124.869 230.84 124.736 230.983 124.471V121.478H232.116V125.705H231.053L231.022 125.275ZM234.006 121.478L234.042 121.967C234.344 121.589 234.749 121.4 235.256 121.4C235.704 121.4 236.038 121.532 236.256 121.795C236.475 122.058 236.587 122.451 236.592 122.975V125.705H235.463V123.002C235.463 122.762 235.411 122.589 235.307 122.482C235.203 122.373 235.03 122.318 234.788 122.318C234.47 122.318 234.232 122.454 234.073 122.725V125.705H232.944V121.478H234.006ZM237.288 123.561C237.288 122.912 237.441 122.39 237.749 121.994C238.058 121.598 238.475 121.4 238.999 121.4C239.462 121.4 239.823 121.559 240.081 121.877L240.127 121.478H241.151V125.564C241.151 125.934 241.066 126.256 240.897 126.529C240.73 126.803 240.495 127.011 240.19 127.154C239.885 127.297 239.528 127.369 239.12 127.369C238.81 127.369 238.508 127.307 238.213 127.182C237.919 127.059 237.696 126.9 237.545 126.705L238.045 126.018C238.327 126.333 238.668 126.49 239.069 126.49C239.368 126.49 239.601 126.409 239.768 126.248C239.935 126.089 240.018 125.863 240.018 125.568V125.342C239.758 125.636 239.415 125.783 238.991 125.783C238.483 125.783 238.071 125.585 237.756 125.189C237.444 124.791 237.288 124.264 237.288 123.607V123.561ZM238.417 123.643C238.417 124.025 238.493 124.326 238.647 124.545C238.801 124.761 239.012 124.869 239.28 124.869C239.624 124.869 239.87 124.74 240.018 124.482V122.705C239.867 122.447 239.624 122.318 239.288 122.318C239.017 122.318 238.803 122.429 238.647 122.65C238.493 122.872 238.417 123.202 238.417 123.643ZM220.272 129.018L221.733 133.143L223.186 129.018H224.725V134.705H223.549V133.15L223.667 130.467L222.131 134.705H221.327L219.795 130.471L219.913 133.15V134.705H218.741V129.018H220.272ZM226.866 134.705H225.733V130.478H226.866V134.705ZM225.667 129.385C225.667 129.215 225.722 129.076 225.834 128.967C225.949 128.857 226.104 128.803 226.299 128.803C226.492 128.803 226.646 128.857 226.76 128.967C226.875 129.076 226.932 129.215 226.932 129.385C226.932 129.557 226.874 129.697 226.756 129.807C226.642 129.916 226.489 129.971 226.299 129.971C226.109 129.971 225.956 129.916 225.838 129.807C225.724 129.697 225.667 129.557 225.667 129.385ZM229.151 129.439V130.478H229.874V131.307H229.151V133.416C229.151 133.572 229.181 133.684 229.241 133.752C229.301 133.82 229.415 133.853 229.584 133.853C229.709 133.853 229.82 133.844 229.917 133.826V134.682C229.695 134.749 229.467 134.783 229.233 134.783C228.441 134.783 228.038 134.383 228.022 133.584V131.307H227.405V130.478H228.022V129.439H229.151ZM232.877 131.537C232.724 131.516 232.588 131.506 232.471 131.506C232.044 131.506 231.764 131.65 231.631 131.939V134.705H230.502V130.478H231.569L231.6 130.982C231.827 130.594 232.14 130.4 232.542 130.4C232.667 130.4 232.784 130.417 232.893 130.451L232.877 131.537ZM235.756 134.705C235.704 134.603 235.667 134.477 235.643 134.326C235.37 134.631 235.014 134.783 234.577 134.783C234.163 134.783 233.819 134.663 233.545 134.424C233.275 134.184 233.139 133.882 233.139 133.518C233.139 133.07 233.305 132.726 233.635 132.486C233.969 132.247 234.449 132.126 235.077 132.123H235.596V131.881C235.596 131.686 235.545 131.529 235.444 131.412C235.345 131.295 235.187 131.236 234.971 131.236C234.781 131.236 234.631 131.282 234.522 131.373C234.415 131.464 234.362 131.589 234.362 131.748H233.233C233.233 131.503 233.308 131.277 233.459 131.068C233.611 130.86 233.824 130.697 234.1 130.58C234.376 130.46 234.686 130.4 235.03 130.4C235.551 130.4 235.963 130.532 236.268 130.795C236.575 131.055 236.729 131.422 236.729 131.896V133.728C236.732 134.13 236.788 134.433 236.897 134.639V134.705H235.756ZM234.823 133.92C234.989 133.92 235.143 133.883 235.284 133.811C235.424 133.735 235.528 133.635 235.596 133.51V132.783H235.174C234.609 132.783 234.308 132.978 234.272 133.369L234.268 133.436C234.268 133.576 234.318 133.692 234.417 133.783C234.515 133.874 234.651 133.92 234.823 133.92Z" fill="white"/>
</svg>
