<svg width="180" height="33" viewBox="0 0 180 33" fill="none" xmlns="http://www.w3.org/2000/svg">
<rect width="180" height="33" rx="6" fill="#C40054"/>
<path d="M23.763 22H38V10H22V23.385L23.763 22ZM24.455 24L20 27.5V9C20 8.73478 20.1054 8.48043 20.2929 8.29289C20.4804 8.10536 20.7348 8 21 8H39C39.2652 8 39.5196 8.10536 39.7071 8.29289C39.8946 8.48043 40 8.73478 40 9V23C40 23.2652 39.8946 23.5196 39.7071 23.7071C39.5196 23.8946 39.2652 24 39 24H24.455ZM29 19H31V21H29V19ZM26.567 13.813C26.6969 13.1628 27.0088 12.5628 27.4664 12.083C27.924 11.6031 28.5084 11.263 29.1517 11.1024C29.795 10.9417 30.4707 10.967 31.1002 11.1753C31.7297 11.3837 32.287 11.7665 32.7075 12.2792C33.1279 12.792 33.394 13.4136 33.475 14.0717C33.5559 14.7298 33.4483 15.3973 33.1646 15.9966C32.881 16.596 32.433 17.1024 31.8727 17.4571C31.3125 17.8118 30.6631 18 30 18H29V16H30C30.2841 16 30.5623 15.9193 30.8023 15.7673C31.0423 15.6154 31.2343 15.3984 31.3558 15.1416C31.4773 14.8848 31.5234 14.5988 31.4887 14.3168C31.454 14.0349 31.34 13.7686 31.1598 13.5489C30.9797 13.3292 30.7409 13.1652 30.4712 13.076C30.2015 12.9867 29.912 12.9759 29.6364 13.0447C29.3608 13.1135 29.1104 13.2592 28.9144 13.4648C28.7183 13.6704 28.5847 13.9274 28.529 14.206L26.567 13.813Z" fill="white"/>
<path d="M52.6777 13.1016V14.6602H53.7617V15.9023H52.6777V19.0664C52.6777 19.3008 52.7227 19.4688 52.8125 19.5703C52.9023 19.6719 53.0742 19.7227 53.3281 19.7227C53.5156 19.7227 53.6816 19.709 53.8262 19.6816V20.9648C53.4941 21.0664 53.1523 21.1172 52.8008 21.1172C51.6133 21.1172 51.0078 20.5176 50.9844 19.3184V15.9023H50.0586V14.6602H50.9844V13.1016H52.6777ZM58.3789 21C58.3008 20.8477 58.2441 20.6582 58.209 20.4316C57.7988 20.8887 57.2656 21.1172 56.6094 21.1172C55.9883 21.1172 55.4727 20.9375 55.0625 20.5781C54.6562 20.2188 54.4531 19.7656 54.4531 19.2188C54.4531 18.5469 54.7012 18.0312 55.1973 17.6719C55.6973 17.3125 56.418 17.1309 57.3594 17.127H58.1387V16.7637C58.1387 16.4707 58.0625 16.2363 57.9102 16.0605C57.7617 15.8848 57.5254 15.7969 57.2012 15.7969C56.916 15.7969 56.6914 15.8652 56.5273 16.002C56.3672 16.1387 56.2871 16.3262 56.2871 16.5645H54.5938C54.5938 16.1973 54.707 15.8574 54.9336 15.5449C55.1602 15.2324 55.4805 14.9883 55.8945 14.8125C56.3086 14.6328 56.7734 14.543 57.2891 14.543C58.0703 14.543 58.6895 14.7402 59.1465 15.1348C59.6074 15.5254 59.8379 16.0762 59.8379 16.7871V19.5352C59.8418 20.1367 59.9258 20.5918 60.0898 20.9004V21H58.3789ZM56.9785 19.8223C57.2285 19.8223 57.459 19.7676 57.6699 19.6582C57.8809 19.5449 58.0371 19.3945 58.1387 19.207V18.1172H57.5059C56.6582 18.1172 56.207 18.4102 56.1523 18.9961L56.1465 19.0957C56.1465 19.3066 56.2207 19.4805 56.3691 19.6172C56.5176 19.7539 56.7207 19.8223 56.9785 19.8223ZM62.6973 14.6602L62.75 15.3926C63.2031 14.8262 63.8105 14.543 64.5723 14.543C65.2441 14.543 65.7441 14.7402 66.0723 15.1348C66.4004 15.5293 66.5684 16.1191 66.5762 16.9043V21H64.8828V16.9453C64.8828 16.5859 64.8047 16.3262 64.6484 16.166C64.4922 16.002 64.2324 15.9199 63.8691 15.9199C63.3926 15.9199 63.0352 16.123 62.7969 16.5293V21H61.1035V14.6602H62.6973ZM70.2324 18.6035L71.4043 14.6602H73.2207L70.6719 21.9844L70.5312 22.3184C70.1523 23.1465 69.5273 23.5605 68.6562 23.5605C68.4102 23.5605 68.1602 23.5234 67.9062 23.4492V22.166L68.1641 22.1719C68.4844 22.1719 68.7227 22.123 68.8789 22.0254C69.0391 21.9277 69.1641 21.7656 69.2539 21.5391L69.4531 21.0176L67.2324 14.6602H69.0547L70.2324 18.6035ZM77.4688 21C77.3906 20.8477 77.334 20.6582 77.2988 20.4316C76.8887 20.8887 76.3555 21.1172 75.6992 21.1172C75.0781 21.1172 74.5625 20.9375 74.1523 20.5781C73.7461 20.2188 73.543 19.7656 73.543 19.2188C73.543 18.5469 73.791 18.0312 74.2871 17.6719C74.7871 17.3125 75.5078 17.1309 76.4492 17.127H77.2285V16.7637C77.2285 16.4707 77.1523 16.2363 77 16.0605C76.8516 15.8848 76.6152 15.7969 76.291 15.7969C76.0059 15.7969 75.7812 15.8652 75.6172 16.002C75.457 16.1387 75.377 16.3262 75.377 16.5645H73.6836C73.6836 16.1973 73.7969 15.8574 74.0234 15.5449C74.25 15.2324 74.5703 14.9883 74.9844 14.8125C75.3984 14.6328 75.8633 14.543 76.3789 14.543C77.1602 14.543 77.7793 14.7402 78.2363 15.1348C78.6973 15.5254 78.9277 16.0762 78.9277 16.7871V19.5352C78.9316 20.1367 79.0156 20.5918 79.1797 20.9004V21H77.4688ZM76.0684 19.8223C76.3184 19.8223 76.5488 19.7676 76.7598 19.6582C76.9707 19.5449 77.127 19.3945 77.2285 19.207V18.1172H76.5957C75.748 18.1172 75.2969 18.4102 75.2422 18.9961L75.2363 19.0957C75.2363 19.3066 75.3105 19.4805 75.459 19.6172C75.6074 19.7539 75.8105 19.8223 76.0684 19.8223ZM86.8906 21C86.8125 20.8477 86.7559 20.6582 86.7207 20.4316C86.3105 20.8887 85.7773 21.1172 85.1211 21.1172C84.5 21.1172 83.9844 20.9375 83.5742 20.5781C83.168 20.2188 82.9648 19.7656 82.9648 19.2188C82.9648 18.5469 83.2129 18.0312 83.709 17.6719C84.209 17.3125 84.9297 17.1309 85.8711 17.127H86.6504V16.7637C86.6504 16.4707 86.5742 16.2363 86.4219 16.0605C86.2734 15.8848 86.0371 15.7969 85.7129 15.7969C85.4277 15.7969 85.2031 15.8652 85.0391 16.002C84.8789 16.1387 84.7988 16.3262 84.7988 16.5645H83.1055C83.1055 16.1973 83.2188 15.8574 83.4453 15.5449C83.6719 15.2324 83.9922 14.9883 84.4062 14.8125C84.8203 14.6328 85.2852 14.543 85.8008 14.543C86.582 14.543 87.2012 14.7402 87.6582 15.1348C88.1191 15.5254 88.3496 16.0762 88.3496 16.7871V19.5352C88.3535 20.1367 88.4375 20.5918 88.6016 20.9004V21H86.8906ZM85.4902 19.8223C85.7402 19.8223 85.9707 19.7676 86.1816 19.6582C86.3926 19.5449 86.5488 19.3945 86.6504 19.207V18.1172H86.0176C85.1699 18.1172 84.7188 18.4102 84.6641 18.9961L84.6582 19.0957C84.6582 19.3066 84.7324 19.4805 84.8809 19.6172C85.0293 19.7539 85.2324 19.8223 85.4902 19.8223ZM89.3867 17.7832C89.3867 16.7949 89.6074 16.0078 90.0488 15.4219C90.4941 14.8359 91.1016 14.543 91.8711 14.543C92.4883 14.543 92.998 14.7734 93.4004 15.2344V12H95.0996V21H93.5703L93.4883 20.3262C93.0664 20.8535 92.5234 21.1172 91.8594 21.1172C91.1133 21.1172 90.5137 20.8242 90.0605 20.2383C89.6113 19.6484 89.3867 18.8301 89.3867 17.7832ZM91.0801 17.9062C91.0801 18.5 91.1836 18.9551 91.3906 19.2715C91.5977 19.5879 91.8984 19.7461 92.293 19.7461C92.8164 19.7461 93.1855 19.5254 93.4004 19.084V16.582C93.1895 16.1406 92.8242 15.9199 92.3047 15.9199C91.4883 15.9199 91.0801 16.582 91.0801 17.9062ZM98 14.6602L98.0527 15.3691C98.502 14.8184 99.1094 14.543 99.875 14.543C100.691 14.543 101.252 14.8652 101.557 15.5098C102.002 14.8652 102.637 14.543 103.461 14.543C104.148 14.543 104.66 14.7441 104.996 15.1465C105.332 15.5449 105.5 16.1465 105.5 16.9512V21H103.801V16.957C103.801 16.5977 103.73 16.3359 103.59 16.1719C103.449 16.0039 103.201 15.9199 102.846 15.9199C102.338 15.9199 101.986 16.1621 101.791 16.6465L101.797 21H100.104V16.9629C100.104 16.5957 100.031 16.3301 99.8867 16.166C99.7422 16.002 99.4961 15.9199 99.1484 15.9199C98.668 15.9199 98.3203 16.1191 98.1055 16.5176V21H96.4121V14.6602H98ZM108.594 21H106.895V14.6602H108.594V21ZM106.795 13.0195C106.795 12.7656 106.879 12.5566 107.047 12.3926C107.219 12.2285 107.451 12.1465 107.744 12.1465C108.033 12.1465 108.264 12.2285 108.436 12.3926C108.607 12.5566 108.693 12.7656 108.693 13.0195C108.693 13.2773 108.605 13.4883 108.43 13.6523C108.258 13.8164 108.029 13.8984 107.744 13.8984C107.459 13.8984 107.229 13.8164 107.053 13.6523C106.881 13.4883 106.795 13.2773 106.795 13.0195ZM111.553 14.6602L111.605 15.3926C112.059 14.8262 112.666 14.543 113.428 14.543C114.1 14.543 114.6 14.7402 114.928 15.1348C115.256 15.5293 115.424 16.1191 115.432 16.9043V21H113.738V16.9453C113.738 16.5859 113.66 16.3262 113.504 16.166C113.348 16.002 113.088 15.9199 112.725 15.9199C112.248 15.9199 111.891 16.123 111.652 16.5293V21H109.959V14.6602H111.553ZM119.445 17.7832C119.445 16.7949 119.666 16.0078 120.107 15.4219C120.553 14.8359 121.16 14.543 121.93 14.543C122.547 14.543 123.057 14.7734 123.459 15.2344V12H125.158V21H123.629L123.547 20.3262C123.125 20.8535 122.582 21.1172 121.918 21.1172C121.172 21.1172 120.572 20.8242 120.119 20.2383C119.67 19.6484 119.445 18.8301 119.445 17.7832ZM121.139 17.9062C121.139 18.5 121.242 18.9551 121.449 19.2715C121.656 19.5879 121.957 19.7461 122.352 19.7461C122.875 19.7461 123.244 19.5254 123.459 19.084V16.582C123.248 16.1406 122.883 15.9199 122.363 15.9199C121.547 15.9199 121.139 16.582 121.139 17.9062ZM128.258 21H126.559V14.6602H128.258V21ZM126.459 13.0195C126.459 12.7656 126.543 12.5566 126.711 12.3926C126.883 12.2285 127.115 12.1465 127.408 12.1465C127.697 12.1465 127.928 12.2285 128.1 12.3926C128.271 12.5566 128.357 12.7656 128.357 13.0195C128.357 13.2773 128.27 13.4883 128.094 13.6523C127.922 13.8164 127.693 13.8984 127.408 13.8984C127.123 13.8984 126.893 13.8164 126.717 13.6523C126.545 13.4883 126.459 13.2773 126.459 13.0195ZM133.092 19.248C133.092 19.041 132.988 18.8789 132.781 18.7617C132.578 18.6406 132.25 18.5332 131.797 18.4395C130.289 18.123 129.535 17.4824 129.535 16.5176C129.535 15.9551 129.768 15.4863 130.232 15.1113C130.701 14.7324 131.312 14.543 132.066 14.543C132.871 14.543 133.514 14.7324 133.994 15.1113C134.479 15.4902 134.721 15.9824 134.721 16.5879H133.027C133.027 16.3457 132.949 16.1465 132.793 15.9902C132.637 15.8301 132.393 15.75 132.061 15.75C131.775 15.75 131.555 15.8145 131.398 15.9434C131.242 16.0723 131.164 16.2363 131.164 16.4355C131.164 16.623 131.252 16.7754 131.428 16.8926C131.607 17.0059 131.908 17.1055 132.33 17.1914C132.752 17.2734 133.107 17.3672 133.396 17.4727C134.291 17.8008 134.738 18.3691 134.738 19.1777C134.738 19.7559 134.49 20.2246 133.994 20.584C133.498 20.9395 132.857 21.1172 132.072 21.1172C131.541 21.1172 131.068 21.0234 130.654 20.8359C130.244 20.6445 129.922 20.3848 129.688 20.0566C129.453 19.7246 129.336 19.3672 129.336 18.9844H130.941C130.957 19.2852 131.068 19.5156 131.275 19.6758C131.482 19.8359 131.76 19.916 132.107 19.916C132.432 19.916 132.676 19.8555 132.84 19.7344C133.008 19.6094 133.092 19.4473 133.092 19.248ZM137.621 21H135.922V14.6602H137.621V21ZM135.822 13.0195C135.822 12.7656 135.906 12.5566 136.074 12.3926C136.246 12.2285 136.479 12.1465 136.771 12.1465C137.061 12.1465 137.291 12.2285 137.463 12.3926C137.635 12.5566 137.721 12.7656 137.721 13.0195C137.721 13.2773 137.633 13.4883 137.457 13.6523C137.285 13.8164 137.057 13.8984 136.771 13.8984C136.486 13.8984 136.256 13.8164 136.08 13.6523C135.908 13.4883 135.822 13.2773 135.822 13.0195ZM140.58 14.6602L140.633 15.3926C141.086 14.8262 141.693 14.543 142.455 14.543C143.127 14.543 143.627 14.7402 143.955 15.1348C144.283 15.5293 144.451 16.1191 144.459 16.9043V21H142.766V16.9453C142.766 16.5859 142.688 16.3262 142.531 16.166C142.375 16.002 142.115 15.9199 141.752 15.9199C141.275 15.9199 140.918 16.123 140.68 16.5293V21H138.986V14.6602H140.58ZM147.535 21H145.836V14.6602H147.535V21ZM145.736 13.0195C145.736 12.7656 145.82 12.5566 145.988 12.3926C146.16 12.2285 146.393 12.1465 146.686 12.1465C146.975 12.1465 147.205 12.2285 147.377 12.3926C147.549 12.5566 147.635 12.7656 147.635 13.0195C147.635 13.2773 147.547 13.4883 147.371 13.6523C147.199 13.8164 146.971 13.8984 146.686 13.8984C146.4 13.8984 146.17 13.8164 145.994 13.6523C145.822 13.4883 145.736 13.2773 145.736 13.0195Z" fill="white"/>
</svg>
