<svg width="46" height="46" viewBox="0 0 46 46" fill="none" xmlns="http://www.w3.org/2000/svg">
<g clip-path="url(#clip0)">
<path d="M14.1548 20.8754C12.4953 21.1881 10.7276 20.5519 9.66811 19.0956C8.20238 17.0808 8.64745 14.2593 10.6622 12.7936C12.677 11.3279 15.4985 11.7729 16.9642 13.7877C18.0236 15.244 18.0848 17.1217 17.2765 18.6044" stroke="black" stroke-miterlimit="10" stroke-linecap="round" stroke-linejoin="round"/>
<path d="M19.6868 17.3861C19.9253 15.7749 19.5593 14.0734 18.5254 12.6522C17.4915 11.231 15.9853 10.3591 14.3789 10.09" stroke="black" stroke-miterlimit="10" stroke-linecap="round" stroke-linejoin="round"/>
<path d="M17.8163 25.9193C17.1881 25.0558 15.979 24.8651 15.1155 25.4933C14.2519 26.1215 14.0612 27.3306 14.6894 28.1942L17.3434 31.8422C20.4841 36.1594 26.5305 37.1132 30.8477 33.9724C35.1649 30.8316 36.1186 24.7853 32.9779 20.4681L30.3239 16.8201C29.6957 15.9565 28.4866 15.7658 27.623 16.394C26.7595 17.0223 26.5688 18.2314 27.197 19.0949L26.4387 18.0526C25.8105 17.1891 24.6014 16.9983 23.7379 17.6266C22.8743 18.2548 22.6836 19.4639 23.3118 20.3274L22.5536 19.2851C21.9253 18.4216 20.7163 18.2308 19.8527 18.8591C18.9892 19.4873 18.7984 20.6964 19.4267 21.5599L14.877 15.3061C14.2488 14.4426 13.0397 14.2519 12.1762 14.8801C11.3126 15.5083 11.1219 16.7174 11.7501 17.581L20.0911 29.0462L17.8163 25.9193Z" fill="white" stroke="black" stroke-miterlimit="10" stroke-linecap="round" stroke-linejoin="round"/>
<path d="M6.94081 15.501C6.70234 17.1122 7.06829 18.8137 8.1022 20.2349C9.1361 21.6561 10.6423 22.528 12.2487 22.7971" stroke="black" stroke-miterlimit="10" stroke-linecap="round" stroke-linejoin="round"/>
</g>
<defs>
<clipPath id="clip0">
<rect width="32.2235" height="32.2235" fill="white" transform="translate(0 18.9568) rotate(-36.0359)"/>
</clipPath>
</defs>
</svg>
