<svg width="25" height="22" viewBox="0 0 25 22" fill="none" xmlns="http://www.w3.org/2000/svg">
<path d="M24.7843 10.7828C24.7454 10.0061 24.4045 9.27541 23.8342 8.74663C23.264 8.21784 22.5097 7.9329 21.7323 7.95262C20.9549 7.97234 20.216 8.29517 19.6733 8.85219C19.1306 9.40921 18.8272 10.1563 18.8277 10.934V15.9008C18.8277 15.6374 18.7231 15.3847 18.5368 15.1984C18.3505 15.0121 18.0978 14.9075 17.8344 14.9075H7.90064C7.63718 14.9075 7.38451 15.0121 7.19822 15.1984C7.01192 15.3847 6.90726 15.6374 6.90726 15.9008V10.934C6.90723 10.3876 6.757 9.85179 6.47301 9.38506C6.18902 8.91833 5.78218 8.53865 5.29698 8.28752C4.81177 8.03639 4.26687 7.92347 3.72182 7.96111C3.17678 7.99875 2.65257 8.1855 2.20649 8.50095C1.76041 8.8164 1.40964 9.2484 1.1925 9.74974C0.97536 10.2511 0.90022 10.8025 0.975288 11.3436C1.05036 11.8848 1.27275 12.3949 1.61815 12.8182C1.96355 13.2415 2.41867 13.5617 2.93377 13.7438V18.8809C2.93377 19.1444 3.03843 19.3971 3.22472 19.5834C3.41102 19.7697 3.66368 19.8743 3.92714 19.8743H4.92052V21.8611H6.90726V19.8743H18.8277V21.8611H20.8145V19.8743H21.8079C22.0713 19.8743 22.324 19.7697 22.5103 19.5834C22.6966 19.3971 22.8012 19.1444 22.8012 18.8809V13.7438C23.4066 13.5297 23.9266 13.1258 24.284 12.5923C24.6413 12.0588 24.8167 11.4241 24.7843 10.7828Z" fill="white"/>
<path d="M7.90053 10.9339V13.9141H17.8343V10.9339C17.8354 10.0533 18.1285 9.19785 18.6678 8.5016C19.2071 7.80534 19.962 7.30758 20.8144 7.08624V4.9737C20.8129 3.65686 20.2891 2.39438 19.358 1.46323C18.4268 0.532083 17.1644 0.00831489 15.8475 0.00683594H9.88728C8.57044 0.00831489 7.30795 0.532083 6.37681 1.46323C5.44566 2.39438 4.92189 3.65686 4.92041 4.9737V7.08624C5.77281 7.30758 6.52774 7.80534 7.067 8.5016C7.60626 9.19785 7.8994 10.0533 7.90053 10.9339ZM14.8541 3.98033C15.0506 3.98033 15.2427 4.03859 15.406 4.14774C15.5694 4.2569 15.6967 4.41204 15.7719 4.59356C15.8471 4.77507 15.8668 4.97481 15.8284 5.1675C15.7901 5.3602 15.6955 5.5372 15.5566 5.67613C15.4176 5.81505 15.2406 5.90966 15.0479 5.94799C14.8552 5.98632 14.6555 5.96665 14.474 5.89146C14.2925 5.81628 14.1373 5.68895 14.0282 5.52559C13.919 5.36223 13.8608 5.17018 13.8608 4.9737C13.8608 4.71025 13.9654 4.45758 14.1517 4.27128C14.338 4.08499 14.5907 3.98033 14.8541 3.98033ZM14.8541 6.96045C15.0506 6.96045 15.2427 7.01871 15.406 7.12787C15.5694 7.23702 15.6967 7.39216 15.7719 7.57368C15.8471 7.75519 15.8668 7.95493 15.8284 8.14762C15.7901 8.34032 15.6955 8.51732 15.5566 8.65625C15.4176 8.79517 15.2406 8.88978 15.0479 8.92811C14.8552 8.96644 14.6555 8.94677 14.474 8.87158C14.2925 8.7964 14.1373 8.66907 14.0282 8.50571C13.919 8.34235 13.8608 8.1503 13.8608 7.95382C13.8608 7.69037 13.9654 7.4377 14.1517 7.2514C14.338 7.06511 14.5907 6.96045 14.8541 6.96045ZM10.8807 3.98033C11.0771 3.98033 11.2692 4.03859 11.4325 4.14774C11.5959 4.2569 11.7232 4.41204 11.7984 4.59356C11.8736 4.77507 11.8933 4.97481 11.8549 5.1675C11.8166 5.3602 11.722 5.5372 11.5831 5.67613C11.4441 5.81505 11.2671 5.90966 11.0744 5.94799C10.8818 5.98632 10.682 5.96665 10.5005 5.89146C10.319 5.81628 10.1638 5.68895 10.0547 5.52559C9.94554 5.36223 9.88728 5.17018 9.88728 4.9737C9.88728 4.71025 9.99194 4.45758 10.1782 4.27128C10.3645 4.08499 10.6172 3.98033 10.8807 3.98033ZM10.8807 6.96045C11.0771 6.96045 11.2692 7.01871 11.4325 7.12787C11.5959 7.23702 11.7232 7.39216 11.7984 7.57368C11.8736 7.75519 11.8933 7.95493 11.8549 8.14762C11.8166 8.34032 11.722 8.51732 11.5831 8.65625C11.4441 8.79517 11.2671 8.88978 11.0744 8.92811C10.8818 8.96644 10.682 8.94677 10.5005 8.87158C10.319 8.7964 10.1638 8.66907 10.0547 8.50571C9.94554 8.34235 9.88728 8.1503 9.88728 7.95382C9.88728 7.69037 9.99194 7.4377 10.1782 7.2514C10.3645 7.06511 10.6172 6.96045 10.8807 6.96045Z" fill="white"/>
</svg>
