<svg width="25" height="19" viewBox="0 0 25 19" fill="none" xmlns="http://www.w3.org/2000/svg">
<path d="M12.9241 18.0675C14.4624 18.0675 15.7094 16.8205 15.7094 15.2823C15.7094 13.7441 14.4624 12.4971 12.9241 12.4971C11.3859 12.4971 10.1389 13.7441 10.1389 15.2823C10.1389 16.8205 11.3859 18.0675 12.9241 18.0675Z" fill="white"/>
<path d="M19.5805 8.57199C19.5391 8.52951 19.4955 8.49162 19.453 8.45259L19.3279 8.33433C19.3072 8.31252 19.2843 8.29645 19.2578 8.27578C15.6563 5.00377 10.1444 5.1335 6.7071 8.57084L6.30413 8.97496L5.74616 9.53292C5.06651 10.2126 5.06995 11.3205 5.75076 12.0013C6.43271 12.6844 7.5406 12.6855 8.21912 12.0059L9.1812 11.0438C11.3671 8.85901 14.9227 8.859 17.1075 11.0426L17.8021 11.7154C18.4749 12.3882 19.5724 12.387 20.2486 11.7097C20.5758 11.3836 20.7561 10.9485 20.7572 10.4858C20.7584 10.0254 20.5804 9.59033 20.2532 9.26542L19.5805 8.57199Z" fill="white"/>
<path d="M24.3254 5.12892L23.7468 4.55029C23.7445 4.54799 23.7433 4.54455 23.7387 4.5434L23.2818 4.08417C23.2014 4.00495 23.1142 3.93607 23.0223 3.87637C17.1522 -1.27734 8.22367 -1.1189 2.5407 4.34823C2.51315 4.37348 2.48215 4.3907 2.45459 4.41826L1.40985 5.46415C0.789887 6.08297 0.793331 7.08983 1.41674 7.71323C2.03899 8.33549 3.04585 8.34008 3.66581 7.71897L4.71056 6.67537C4.71745 6.66619 4.72319 6.65815 4.73008 6.65241C9.32582 2.21281 16.6161 2.18525 21.2486 6.56171L22.0706 7.38488C22.6894 8.00369 23.6986 8.0014 24.3208 7.37914C24.9419 6.75574 24.9442 5.74773 24.3254 5.12892Z" fill="white"/>
</svg>
