<svg xmlns="http://www.w3.org/2000/svg" viewBox="0 0 189 189"><style>.B{fill:#f80077}.C{fill:#f2007f}.D{fill:#dd0080}.E{fill:#fa0081}.F{fill:#ec007c}.G{fill:#ec0082}.H{fill:#fa0084}.I{fill:#e80082}.J{fill:#e3007f}.K{fill:#f50084}.L{fill:#e6007b}.M{fill:#e90079}.N{fill:#dd0f82}</style><path d="M0 0h189v189H0z" class="E"/><path d="M189 130v-9c-8 3-14 8-21 12l-26 15-6 1-1 1c-1 4-4 4-6 5-2 3-5 0-8 2 0 2-1 2-3 2h-1c-4 5-11 5-17 6h-3l-2 3c2 3-2 4-3 6 4 1 7-3 11-1l19-9h1-1c-1 4-4 4-7 6-9 4-17 11-29 10l-7-1c-2-1-4-1-4 2l2 2h0l-2-1-17-7-18-5c-2 0-3 0-3 2 2 2 5 1 7 2 4 1 7 1 10 4 1 1 4 1 3 4-1 1 0 1 1 2 5 0 9 4 12 3 5-1 9 1 13 2h11l8-4c4-5 9-7 14-10h1c4-3 9-7 15-8h1l1-1h2v-1l2-3c10-5 20-11 31-13 2-1 5-2 6 2l9 6 5 2v-11l-2-2c-4-3-9-1-13-2 7-3 9-3 15 1v-9c-7-1-13 1-19 4l-17 8c8-6 17-11 26-15l10-3zm-64 33c3-3 5-4 7-4-1 3-3 3-7 4zm15-8c-1 2-2 2-5 3 1-3 3-3 5-3v-1l-1 1zm5-3v1c0-3 2-3 4-3-1 2-2 2-4 2z" class="J"/><path d="M82 65l-27-5-18-2-3-1v-1c-2-1-3-2-5 0h-3c-2-3-3-2-6-1-2 2-3 0-3-2L0 50v3h3c0 3 4 2 5 5h3l4-1c1 0 2 0 1 1l-2 1v5l2 1-2 1c-3 0-5-1-6 4 0 6-3 11-8 14v8l11-7c-1-2 1-1 1-1 2-2 4-3 4-6l-1-2c-2-5-1-7 5-7 2 0 4-1 6 1h6c4 1 8-1 11 1l6 1v1h-2v2c2 3 5 1 8 2h-6v1h-1v1l-1 1v1h4c4-1 8-5 13-3 3-2 5-2 7-1h6l1-3c-3-5-9-4-14-6-1 0-3 1-3-1s2-1 3-1a360 360 0 0124 3c-2-4-5-3-6-5zm-72 9v1l-1-1h1zm30-8c-8-2-15 0-23-3 6-6 13-6 20-2h3c2-1 4 0 5 2 0 3-3 3-5 2zm9-4c4 0 5 3 9 3-4 3-7 2-9-3z" class="M"/><path d="M97 45v1h-1v1l-1 1h-3-12l-2-1h-1l-1-1-2-1h-1l-1-1h-1l-1-1h-1c-1 0 0 0 0 0h-1v-1h-1l-2 1c-1 4-4 3-7 2-7-3-15-6-22-7-12-5-24-8-36-11v-4h1c14 3 27 7 40 12 1-4-1-5-3-5l-14-5c-2-1-5 0-5-3 9 1 17 5 25 8 3 3 6 3 9 4l4 2c2 1 3-1 2-2-2-3-2-7-6-8l-11-4-4-3-18-6c0-2 3-3 3-5-4-1-8-3-13-2C7 4 3 4 0 4V3c12 0 23 2 35 6l4 1c5 7 12 8 18 11 1 1 3 2 3 4 2 7 9 7 14 10 1 2-2 5 2 6 6 5 13 6 21 4zm92 49c-6-1-13 0-20 1 2-3 6-2 6-6l-9 2c-2 1-3 2-5 0-3 1-5-3-8-2 1 4-4 4-3 7l4 3 11 4-4 1h9c-4 5-7 6-15 4-3 2-4 0-6-1-5-3-8-7-14-7l1 2c3 5 9 6 12 10 1 1 4 1 2 3-1 2-3 0-4-1-8-5-15-10-24-12-2-1-4-1-4-4-9-3-18-5-28-6 2 2 4 2 3 5 18 3 35 7 49 19 2 2 5 3 8 3 5 2 9 0 13-1 6-2 11-5 14-10 2-2 5-1 6-4h6v-7c-4 1-7 0-11-1h11v-2zm-15 3h-2l-5 1c0 1-1 2-2 1v-1l1-2h6l2 1z" class="E"/><path d="M189 168v11c-9 4-18 7-28 6-2 0-4-1-5-3-4-5-10-7-16-6h-2l-4 1c-4-1-6 0-7 3l-2 3h-2l-2-6 1-1c3 0 3-2 3-3 2 1 4-2 6-2 4 2 7-2 10-4 6-2 13-1 18-7 5-1 9 1 13 5l4 2 2 1c3 2 7 1 11 0z" class="H"/><path d="M189 107v15c-8 2-14 7-21 11l-26 15-6 1c0-2 0-3-3-2l-5 2-5 1-4 1c0-2-2-1-3-3 2 0 4 1 5-1 3-1 5-3 6-5l4-1c9 0 15-5 22-9-7 1-13 5-20 6-3 0-5 0-6-2l1-3c2 0 5 4 6-1h5c4-1 9 0 12-5l15-7c2-1 4-2 5 1-5 4-10 5-14 10 6-3 11-5 16-10 2 0 3-1 3-3 5 0 7-4 9-7l4-4z" class="C"/><path d="M112 149c-1 3 2 2 3 2h4v2c-7 3-13 2-18-4-3-4-8-7-12-10-6-4-15-2-17-11h-1c-13-3-25-7-38-9H18l-2 1h-3-1-1-1l-1 1H7 6l-1 1H3l-1 1H0v-5h1c1-1 1-2-1-4 4 0 7-4 11-3 1 4 3 7 9 5 2 1 4 2 5 1 5-3 9-2 14-2l16 3c0 2 2 3 4 4 14 3 27 6 40 14 1 1 2 1 3-1 5 1 6 6 10 8 2 4 6 4 9 4-1 2-3 1-5 1-1 1-4-2-4 1z" class="H"/><path d="M71 187c-4 1-8-3-13-4l-1-1c1-3-2-4-3-5-3-2-6-2-10-3 0 1 3 2 2 4s-3 0-5 0h-3v1c-1 2 1 3 1 5-8 4-17 3-25 3l-14-2v1h1l-1 1v2h83c-4-1-8-3-13-2zm-21-6h-1v-1h1v1zm44 8z" class="F"/><path d="M118 30c-2 3-7 2-10 4-7 1-14 2-21-2l-2-3c0-5-4-6-8-6-1-5-5-5-8-7C58 10 45 4 31 2l-2-1h12c9 3 17 5 25 9 2 3 5 3 8 5l11 7c2 1 4 2 5 1l4 1c4 2 7 6 11 5 2 2 4 1 6 1 2-1 5-1 7 1z" class="K"/><path d="M189 60v2c-4 1-8 2-12 5l-2 1-6 3c-2 0-5 0-5 3-1 2-3 2-4 2-2-2-3 1-5 0l-2 1h-2a1 1 0 000 1h-1c-1 0-2 0-3 2h-11l-4-3-1-2v-1h-2c0-3-3-4-5-5 0-5 3-3 5-2 2 2 3 5 7 4-6-7-7-7-16-7l-2-1c4-3 9-3 14-1 1 1 2 3 4 2 3-4 7-2 11-1 5 1 6 5 5 9-3 3-8 1-11 3 6 1 12 1 17-4l12-6c2 2 2 1 3-1l3-1h1l1-1 3-1c3 1 5 0 8-1z" class="I"/><path d="M72 158c0 2-2 2-3 1l-6-2c-1-1-3-2-4-1-3 1-8-2-10 3-7-4-18 0-23-9l-1-1-14-2c-4-2-7-2-11-2v-12l4 1c4 5 10 3 14 5 1 1-2 3 0 4 3 2 5 4 9 4l20 3c9 1 17 4 25 8zm1 15l-2 1c-7-5-14-6-22-7l-27-5H12c-1-3-4-3-6-3l-6-1v-9l7 1c3 1 3 4 6 5l40 8c7 2 14 5 20 10z" class="E"/><path d="M180 0l-4 2c-14 9-29 16-44 23-4 2-9 5-14 5-2-2-5-2-8-1-1 0-3 1-5-1a4 4 0 002-2l13-2h2v-1c1-2 4-1 3-4v-1c17-3 32-9 46-18h9z" class="F"/><path d="M189 72v12c-10 0-19 2-28 7-3 1-5-3-8-2-1 0-3 1-4-1l4-3 10-4c8-4 17-7 26-9z" class="B"/><path d="M171 0c-14 9-29 15-46 18-6-1-9-7-14-10-1 0-1-2 1-4l2 2c4 3 8 4 13 1l8 1c8 0 14-3 21-5l2-1 2-1 2-1h9z" class="D"/><path d="M62 134v3l-7-1c-3-2-6-1-8-2h-3l2 2 9 2 1 1v4c-9-2-18-6-28-7v-1c1-2 5-1 4-4-1-2-4-2-7-2h-3c-2-2-4-1-5-1-6-1-11 0-17 1v-2c9-2 18-3 27-2l22 5 13 4z" class="H"/><path d="M62 94h-4c-2-5-6-2-10-3l4 3h-6c-1-2-3-3-4 1h-2c-4-2-8 0-11 3h-1c-2-2-2-1-2 1h-1c-3-2-4 0-4 2h-2c-6 1-12 3-17 7H0v-3a2 2 0 001-1c2-1 6 0 6-4v-1l2-1h7c12-5 24-11 38-11h15c1 5-4 5-7 6z" class="L"/><path d="M189 52v6l-8 3-3 1-1 1h-1l-3 2-3 1-12 5-6 1c1-4 0-8-5-9a34 34 0 0017-2c4-2 9-1 12-6h4l9-3z" class="J"/><path d="M93 13l-2 3c-2-1-4 3-6 0 2-1 1-3-1-4l-7-4c-1-1-2-2-3-1-2 1 0 3 0 4v3c-3-2-6-2-8-5 2-4-3-4-4-6 3-1 2-2 1-3h17v1c1 5 5 6 8 8l5 4z" class="F"/><path d="M38 179h-2c-2 5-7 3-9 3-7-3-15-2-22-4H0v7l14 2c8 0 17 1 25-3 0-2-2-3-1-5zm-2 4h-1 1z" class="L"/><path d="M46 178h-8l-18-2c0-3-1-6-5-6-3-1-7-2-10-1l-5-2v-3l13 1 15 4c2 3 5 3 9 3l7 2c0 1 3 2 2 4zM16 65l-2 1c-3 0-5-1-6 4 0 6-3 11-8 14v-9c1-3 2-4 0-6v-6h14l2 2z" class="E"/><path d="M189 44v5c-4 2-9 2-12 6h-1l-8 1h-4c-7 0-13 1-18-6-2-2-5-2-8-2 1-3 3-2 5-2 3 0 5 1 7 4 3 3 6 5 10 1l4-1c7 0 14-1 20-5l5-1z" class="C"/><path d="M47 28l-3 2c-8-3-17-7-26-8h-2-4c0-2-1-2-2-2H8c-1-2-1-2-2 0l-6-1v-6c14 2 27 6 40 11 2 2 6 2 7 4z" class="D"/><path d="M189 32v6l-3-1c-6 0-11-1-16-6-2-2-6-3-9 1-2 1-5-1-6 2h-2c0-1-1-1-2 1-1-1-3 0-4 1h-1c-2-1-4 3-7 1 2-3 7-2 8-6h1l20-5c4 0 7 0 10 4 2 2 4 3 7 3l4-1z" class="J"/><path d="M28 135v1c-4-2-4 1-4 4l-6-2c-4-1-9 0-14-4l-4-1v-2c6-1 13-3 19 0l3-2h3c3 0 6 0 7 2 1 3-3 2-4 4z" class="C"/><path d="M43 51c-1 0-3 1-3 3-2 0-4-2-7 0-1-3-3-2-5-2-4-1-8-1-11-4l-2-1c-3-2-7-1-10-2l-5-1v-5c4 3 10 3 14 4 10 2 20 4 29 8zm-2-16c-13-5-26-9-40-12H0v-5l6 1h4c0 2 1 2 2 2h2c1 2 2 2 2 0h2c1 3 4 3 5 4l14 4c3 1 4 3 4 6z" class="B"/><path d="M62 3L51 0h12c1 1 2 2-1 3z" class="N"/><path d="M35 7v2C23 5 12 3 0 3V0h29l2 1c-2 4 3 4 4 6z" class="I"/><path d="M43 102l-11 1c-7 2-15 3-21 8-4-1-7 3-11 3v-2l3-2c2-1 1-1-1-2 5-4 10-6 16-7 1 1 1 3 3 3v-3c0-2 1-4 4-2 0 1-3 2-2 4 1 1 3 0 4-1 5-1 10-3 16-2v2z" class="C"/><path d="M49 127v3l-22-5c-9-1-18 0-27 2v-3h1c11-2 22-4 33-2 4 2 10 2 15 5z" class="J"/><path d="M189 66v4c-8 1-15 4-22 7-5 2-11 3-14 8l-6 1-6-2c7-1 13-3 19-8 2 0 3 0 4-2l25-8z" class="H"/><path d="M47 75c-3-1-5 3-7 2-3-1-6 0-8 1l-12 8-8 5-8 5-4 3v-4c8-3 15-7 21-13 5-6 11-10 20-9h7c0 1 1 2-1 2z" class="L"/><path d="M42 22a4 4 0 00-2 2c-13-5-26-9-40-11V9l20 4 18 6 4 3z" class="I"/><path d="M189 179v4l-14 6h-10c1-4-3-3-4-4 10 1 19-3 28-6z" class="M"/><path d="M36 38v2c-3 0-6-2-9-1-3-3-6-3-9-3-6-3-12-4-18-5v-4c12 3 24 6 36 11z" class="I"/><path d="M189 130v5c-7-1-13 2-19 5l-17 7 26-14 10-3z" class="K"/><path d="M189 28v4h-4c-3 0-5 0-7-3-3-3-6-3-10-3 0-2 0-2-2-2 6-3 12-5 18 1l5 3z" class="H"/><path d="M30 71c0 2-2 2-3 3-3 2-6 3-6 8-6 6-13 10-21 13v-3l11-7 1-1c2-1 4-3 4-5h1c2 0 3-1 3-3 2-4 6-5 10-5z" class="C"/><path d="M23 8c0 2-3 3-3 5L0 9V6h10c5-1 9 1 13 2z" class="B"/><path d="M38 179h-9l-29-4v-7l4 1c-1 3-1 5 4 5l11 2 19 2v1z" class="D"/><path d="M127 7c-5 3-9 2-13-2l1-5h9v1l1 1 2 5z" class="G"/><path d="M189 162v6c-4 1-7 2-11 1l-2-1c1-2 4-3 2-6l3-2 8 2z" class="F"/><path d="M189 6v6c-2-1-5 0-8 1-5 2-10 2-15 5h-3l2-2c2 0 4-1 5-3l3-1 5-2 11-4z" class="E"/><path d="M189 23v5l-5-3c-6-6-12-4-18-1h-4c-1-4 3-2 4-3h3l2-1c6-2 13-2 18 3z" class="I"/><path d="M189 0v6l-11 4-5 2c0-2 0-5 3-6l2-1c1 0 2 0 2-2h1l1-1 7-2z" class="D"/><path d="M189 84v3l-5 1h-4-4l-1 1-9 2c-2 1-3 2-5 0 9-5 18-7 28-7z" class="J"/><path d="M189 89v5c-6-1-13 0-20 1 2-3 6-2 6-6 2 0 4 1 5-1h4l5 1z" class="G"/><path d="M189 39v5l-5 1c-4-3-7 0-11 0s-4-1-4-4c6 1 11 1 17-1l3-1z" class="J"/><path d="M36 179c-2 5-7 3-9 3-7-3-15-2-22-4H0v-3l29 4h7z" class="B"/><path d="M143 0h12l-3 2c-3 1-6 2-9 1V1 0zm21 0h-2 2z" class="N"/><path d="M189 159v2l-8-1c-3-5-7-7-12-7l-8 1c4-3 9-3 14-4l9 7 5 2z" class="E"/><path d="M189 183v3l-6 3h-8l14-6zm0 6h-1 1z" class="C"/><path d="M189 70v2c-9 2-18 5-26 9l-10 4c3-5 9-6 14-8 7-3 14-6 22-7z" class="D"/><path d="M189 15v3c-6-3-12-1-18 1l-3 2h-2v-3c5-3 10-3 15-5l8 2z" class="M"/><path d="M14 43c-5-1-10-1-14-4v-5l10 2c-1 1-3 1-3 3l3 1 4 1v2z" class="F"/><path d="M91 4l-7-4h10c1 2-2 3-3 4z" class="L"/><path d="M15 163l-2 2-13-1v-4l12 2h3v1z" class="J"/><path d="M189 64v2l-25 8c0-3 3-3 5-3l6-3 1-1h1l12-3z" class="D"/><path d="M189 18v5c-5-5-12-5-18-4 6-2 12-4 18-1z" class="H"/><path d="M15 47c-1 6-4 1-7 1H0v-4l5 1c3 1 7 0 10 2z" class="L"/><path d="M189 104v3l-4 4c-2 3-4 7-9 7l4-5c1-3 6-4 3-9h6z" class="M"/><path d="M17 48v5L0 50v-2l8 1c3-1 6 4 7-2l2 1z" class="E"/><path d="M17 36l-3 1h-4c-3-2-7-3-10-3v-3c6 1 12 2 17 5z" class="D"/><path d="M11 147c-2 0-4 0-4 3l-7-1v-4c4 0 8 0 11 2z" class="J"/><path d="M14 63H0v-2h6l8-2v4z" class="F"/><path d="M189 186v3h-6l6-3zM22 129l-3 2c-6-3-13-1-19 0v-2c5-1 11-2 17-1 1 0 3-1 5 1z" class="L"/><path d="M189 145v3l-2-2c-4-4-9-1-13-2 7-3 9-3 15 1z" class="B"/><path d="M189 49v3l-9 3h-3c3-4 8-4 12-6z" class="E"/><path d="M7 100c-2 1-5 1-6 4a2 2 0 01-1 1v-4h1l6-2v1z" class="D"/><path d="M12 162l-12-2v-2l6 1c2 0 5 0 6 3z" class="K"/><path d="M189 12v3l-8-2 8-1z" class="I"/><path d="M0 75v-6c2 2 1 3 0 6z" class="C"/><path d="M189 62v2l-12 3c4-3 8-4 12-5z" class="B"/><path d="M3 110l-3 2v-3h2c2 0 3 0 1 1z" class="K"/><path d="M189 58v2c-2 1-5 2-8 1l8-3zm0-58l-7 2a1 1 0 011 0V1h1l2-1h3z" class="C"/><path d="M0 187z" class="H"/><path d="M10 6H0V4c3 0 7 0 10 2z" class="M"/><path d="M189 87v2l-5-1 5-1z" class="H"/><path d="M1 186l-1 1v-1h1z" class="L"/><path d="M149 189h-35l2-1 1-1h1l5-1c5-2 10-4 14-3h3l1 1h1l1 1h2v1h1v1h1l1 1 1 1zm26 0z" class="E"/><path d="M123 184l-3 1-2 2-2 1h-2v1H95c2-2 4-4 7-4h3c3-3 6-4 10-6 2-1 1-3 1-4h1c1 2 2 2 4 2l2 6v1z" class="C"/><path d="M37 172c-3 0-7 0-9-3h2c2 0 4 2 5-1s-3-1-4-2c-3-2-8 1-9-4 9 2 18 5 27 5 8 1 15 2 22 7l3-1c-7-5-14-8-21-10 1-2-2-3-3-4 1-5 6-2 9-3 1-1 3 0 5 1-1 5 4 5 7 7s6 3 8 6c7 8 16 8 24 3l20-9c-1 4-5 5-8 6-9 4-17 11-28 11l-8-2c-2-1-4-1-4 3-11-5-23-9-35-12-2 0-3 0-3 2z" class="K"/><path d="M71 164c-3-2-8-1-8-7l6 2c1 1 3 1 3-1l3-1c0-2-1-2-2-3l-4-3c1 0 3-1 3-3l13 8 3 2c1 5 5 5 9 7l-1 2c-4 1-7-1-10-4-1-1-2-4-4-2-3 1-1 3 0 5v1l-8-5c-3-2-3 0-3 2z" class="G"/><path d="M88 158l-3-2 2-3 9-2 2 1c3 5 7 6 13 5l14-4c2 0 3-1 3-4l5-2c3-1 3 1 3 2l-1 1c-2 1-5 1-6 5-2 3-6 1-8 2l-3 2h-1c-5 2-10 2-14 1l-2 1c-2 2-4 1-5-1-2-3-5-3-8-2z" class="E"/><path d="M88 158c3-1 6-1 8 2 2 1 4 3 6 1l1-1c5 1 10 1 14-1-4 5-11 5-17 6h-3c-3-2-8-2-9-7z" class="C"/><path d="M82 168v-2c-1-2-3-4 0-5 2-2 3 1 4 2 3 3 6 5 9 4 2 4-2 5-3 7-4 0-8-2-10-6z" class="D"/><path d="M82 168c2 4 5 6 10 6 4 1 7-3 11-1-8 5-18 5-24-3-2-3-5-4-8-6 0-2 0-4 3-2l8 5z" class="L"/><path d="M175 150c-5 1-10 1-14 4-1 0-2-2-2 1-5 3-12 3-16 7l-2 1-5 1 2-2c10-5 20-11 31-14 2 0 5-1 6 2zm-54 27c-1 0-3 0-4-2 5-4 9-7 15-9v2l-1 3c-2 0-4 3-6 2-3 0-3 2-3 3l-1 1zm-5-2c0 2 1 3-2 4l-9 6h-3c4-5 9-7 14-10z" class="F"/><path d="M129 155c1-4 4-4 6-5-1 4-4 4-6 5z" class="C"/><path d="M132 159c-1 3-3 3-7 4 2-3 5-4 7-4zm13-6c0-3 2-3 4-3-1 2-2 2-4 2zm-5 2c-1 2-2 2-5 3 1-3 3-3 5-3z" class="K"/><path d="M136 164l5-1v1l-1 1h-4v-1z" class="D"/><path d="M118 159l3-2c0 2-1 2-3 2z" class="C"/><path d="M75 181l2 2-2-2c0 1 0 0 0 0z" class="K"/><g class="D"><path d="M134 165h2l-2 2v-2zM132 168v-2h2l-2 2z"/></g><path d="M122 164h1-1zm-45 19h0zm68-30zm-5 2v-1 1zm-8 4z" class="K"/><path d="M134 166h-1l1-1v1zM78 74c-3-5-9-4-14-6-1 0-3 1-3-1s2-1 3-1l18 2h6c-2-3-5-2-6-3-2-2-3-3-2-5l6 1c0 2 1 3 2 3 4-1 6-3 9-6 2-1 3-3 6-3l-9 11c-3 2-2 4 2 5l10 1 2 1c0 3 4 3 3 7v1l-1 2h-3l-5-2c-4-5-10-4-15-6-2-3-4-2-7-1h-2z" class="F"/><path d="M55 77h-6v1h-1v1c0 1 0 0 0 0l-1 1c-1 0-3-1-4 2-12 3-23 9-34 16l-2 1-6 2H0v-2l4-2v-1l8-4 8-6 12-7c2-2 5-3 8-2 2 1 4-3 7-1 2 2 5-1 8 1z" class="C"/><path d="M9 98c11-7 22-13 34-16l4-1h4c3 2 7 0 11 0 2-1 2-2 2-4h7c2 0 4 1 6-1 4 3 9 2 13 3-1 2-3 1-4 1l-19-2c2 2 5 2 7 3 5 1 11-1 15 3l-16-1c-7-3-15 1-22 0l-2 2c-10 0-18 4-27 8-2 1-5 2-6 5H9z" class="D"/><path d="M81 60c-2 2-1 3 1 5l-27-5-18-2-4-1v-3c3-2 5 0 7 0 3 2 6 1 9 2 5 2 7 0 7-5l15 5 10 4z" class="J"/><path d="M17 63c6-6 13-6 20-2h3c2-1 4 0 5 2 0 3-3 3-5 2-8-1-15 1-23-2z" class="F"/><path d="M34 54v2c-2-1-3-2-5 0h-3c-2-3-3-2-6-1-2 2-3 0-3-2v-5c3 3 7 3 11 4 2 0 4-1 5 2z" class="G"/><path d="M21 82c0-5 3-6 6-8 1-1 3-1 3-3h13l6 1c1 0 2 0 0 1h-8c-9-1-15 3-20 9z" class="H"/><path d="M90 80c-4-2-9-1-13-4l2-2h2c2 1 3 4 6 1 5 2 11 1 15 6h-4l-5-2h-3z" class="C"/><path d="M8 58c-3-1-5 3-8 2v-7h3c0 3 4 2 5 5zm35 13H30c-4 0-8 1-10 5-1 1-1 3-3 2 1-4 3-8 9-8h6c4 0 8-1 11 1z" class="B"/><path d="M65 77c0 2-1 4-3 4-4 0-8 2-11 0 4-1 8-5 14-4z" class="I"/><path d="M26 70c-6 0-8 4-9 9h-1l-1-3c2-2 2-5 5-7 2 0 4-1 6 1z" class="D"/><path d="M49 62c4 0 5 3 9 3-4 3-7 2-9-3z" class="F"/><path d="M14 59l-8 2-4 1H1l-1-1-1-1 1 1c3 0 5-3 8-3h3l3 1z" class="L"/><path d="M20 69c-3 1-3 5-5 7-2-5-1-7 5-7z" class="C"/><path d="M14 59l-3-1 4-1c1 0 2 0 1 1l-2 1z" class="B"/><path d="M47 81l-4 1c1-3 3-2 4-2v1z" class="I"/><path d="M10 75H9l1-1v1z" class="E"/><path d="M34 57l3 1-3-1z" class="G"/><path d="M12 84l-1 1c-1-2 1-1 1-1zm20-14h-1 1z" class="D"/><path d="M166 18v3c-1 1-5-1-4 3l-6 2c-2 2-7 1-8 5h-8c-4 2-9 2-13 6-2 0-4 0-5 3l-3 1-2 2c-1 2-2 1-3 1-5 1-7 5-11 6-2-1-1 0-1 1h-1c-2 0-3 0-3 2l-2 1c-3-2-5 1-8 1-6 1-11-2-16-4-1-1-3-2-3 1L36 40v-2c7 1 15 4 22 7 3 1 6 3 7-2h4c1 4 7 8 11 9 2 0 2-1 3-2 2-1 6 1 8-1 3 0 5 0 6-3l3-2c2 3 3 1 5 0 1-1 0-1-1-2-1-3-3-1-4-1-7 2-14 1-20-2-1-2 1-3 2-4l5 2c4 3 9 3 14 1 2-1 6 0 7-3 3-3 8-1 10-5 5 0 10-3 14-5 15-7 30-14 44-23l4-1c1 1-2 1-1 3l-1 2-2 1c-3 1-3 3-3 5l-2 1c-2 1-5 1-6 4l-2 2s-1-1-1 1l1-1 3-1z" class="L"/><path d="M101 38c-5 2-10 1-14-1l-5-2c-3-1-5-7-8 0-5-3-12-3-14-10 0-2-2-3-3-3-6-4-13-5-18-11 0-2-3-2-4-2V7c8 0 15 4 22 7l19 11c1 5 7 6 10 8 4 4 9 5 15 5z" class="B"/><path d="M100 44l-3 1c-8 3-15 1-21-4l3-2c7 3 13 4 21 2 1-1 3-2 4 1l-4 2z" class="D"/><path d="M40 24a4 4 0 012-2l11 4c4 1 4 5 6 8 1 1 0 3-2 2l-4-1c2-6-3-6-6-7l-7-4z" class="C"/><path d="M80 39c-2 0-3 0-4 2-4-1-1-4-2-7 3-6 5 0 8 1-1 1-3 2-2 4z" class="F"/><path d="M83 50l-3 1c-4 0-10-4-11-8 5 1 8 5 14 5v1z" class="D"/><path d="M47 28c4 1 8 1 6 6-3-2-7-1-9-4l3-2z" class="I"/><path d="M83 50v-2h8c-2 2-5 1-8 1z" class="B"/><path d="M111 83l1-2c3 1 7 2 11 1l-11-3c1-3-3-3-4-6l3-1c6 1 2-4 3-5l4-4 2 1c9 0 10 0 16 7-4 1-5-2-7-4-2-1-4-3-4 2-3 1-6-2-8 2l-1 1c0 2 1 1 2 0h2l6 2c0 1 1 2 3 2 1 2 2 1 3 1l4 2 1 2 4 3 6 2 2 2c1 2 3 1 4 1 1 3-4 3-3 6-3 0-6-1-7-4s-2-3-5-3l-2-1c-9 1-17-2-25-4zm24 17c-2-2-5-2-7-3-10-3-19-6-29-7-4-2-10 0-13-4v1a5 5 0 01-1 1v1h-1-7-1l-3-1-2-1h-2c1 5-4 5-6 6 0 4 3 2 5 3l18 3v-2h-4c4-3 4-3 12 0 0-3-2-3-4-5 10 1 19 3 28 6 6 1 12 5 18 4l-1-2zm-61-9h-1l1-1v1z" class="C"/><path d="M183 104c3 5-2 6-3 9l-4 5c-2 0-3 1-3 3h-2c-1-3-3-2-5-1l-15 7h-6c-2 1-5 0-6-1-1-2 1-3 2-4l1-3c3 1 5 5 8 0 5 2 9 0 14-1 5-2 10-5 14-10 1-2 4-1 5-4z" class="G"/><path d="M138 88c3 0 4 0 5 3 1 4 4 5 7 5l5 3c0 4-3 3-5 2l-21-9c-2 0-3-1-4 1l-24-6v-1l2-1h4l26 6c3 0 4-1 5-3z" class="K"/><path d="M150 119c-3 5-6 1-8 0-5-4-10-8-16-10l-8-4-32-8h-5c5-3 5-3 12 0 18 3 35 7 49 19 2 2 5 3 8 3z" class="D"/><path d="M125 92h4l21 9c2 1 5 2 4-2l11 3-4 2h8c-4 5-6 6-15 3-7-6-16-10-25-12-1-2-4-1-4-3z" class="G"/><path d="M118 98c6 1 12 5 18 4 3 5 9 6 12 9 1 1 4 2 2 4-1 2-3 0-4-1-8-5-15-10-24-13-2 0-4-1-4-3zm11-4c9 3 18 7 25 13-2 3-3 0-5 0-5-3-8-7-14-7-2-2-5-3-7-3l1-2z" class="B"/><path d="M178 96h11v1c-4 1-7 0-11-1z" class="F"/><path d="M172 97l-5 1c0 1-1 2-2 1v-1l1-2h6v1z" class="D"/><path d="M172 97v-1l2 1h-2z" class="G"/><path d="M161 185c1 1 5 0 4 4-4 0-8 1-13-1-4-6-10-9-18-8l-8 3 1-3c2 0 5-1 7-3l5-1h1c6-1 12 0 16 6 1 2 3 3 5 3zm17-23c2 3-1 4-2 5-2 1-3-1-4-2-3-4-8-6-13-5-5 0-8 3-13 2l10-4c8-3 16-3 22 4z" class="B"/><path d="M152 188v1l-1 1-2-1-1-1-1-1h-1v-1a3 3 0 00-1 0v-1h-2l-1-1h-1l-1-1h-2-1c-4-1-9 1-13 3l-6 1 2-2 3-1 1-2h1l9-2c8-1 14 2 18 8z" class="D"/><path d="M146 162c5 1 8-2 13-2-5 6-12 5-18 7-3 2-6 6-10 4l1-3 2-1 2-2h4l1-1v-1l2-1h3zm-12 15c-2 2-5 3-7 3 1-3 3-5 7-3zm-12-1c0-2 0-3 2-3 0 1 0 3-2 3zm17 0h-1 2z" class="C"/><path d="M125 183l-2 1v-2h2zm3-34c0 2-1 4-3 4l-14 4c-6 1-10 0-13-5l-2-1c-9-11-21-14-34-17 1-3 0-5-4-5l-10-2c-4-3-10-2-15-4v-4c13 2 25 6 38 9h1c2 9 11 8 17 11 4 3 9 6 12 10 5 6 11 7 18 4 2-1 4 0 4-3l5-1z" class="B"/><path d="M126 109c6 2 11 6 16 10l-1 3c-1 1-4 2-2 4 1 1 4 2 6 1h6c-2 5-8 4-12 5h-5l-15-13c2-2 0-4 0-6 2 0 5 2 6-2l1-3z" class="E"/><path d="M128 133l-1 3h-1c-5-3-9-9-14-11-7-4-14-7-22-9-2-2-5-1-7-3 1-2 3-3 5-2l25 8 1 1 14 13z" class="B"/><path d="M121 147c-4 0-7 0-9-4 6-2 6-3 2-7-2-2-3-3-3-5 2 0 3 3 5 4 3 2 4 5 8 6l3 1c-1 2-3 4-6 5z" class="I"/><path d="M128 133l-14-13c1-2 3-1 5-1l15 13c-1 4-4 1-6 1zm-1 9l-4-1 3-5h1c1 2 3 2 6 2 7-2 13-5 20-6-7 4-13 9-22 9l-4 1zm44-21h2c-5 5-10 7-16 9 4-5 9-6 14-9z" class="M"/><path d="M119 151h-4c-1 0-4 1-3-2 0-3 3 0 4-1 1 2 3 1 3 3z" class="E"/><path d="M173 121c0-2 1-3 3-3 0 2-1 3-3 3z" class="M"/><path d="M123 150c0 3-2 2-4 2v-1l4-1zm-15-35c-16-5-32-10-49-12l-16-1-11 1c-7 2-15 3-21 8 1 4 3 7 9 5 0-3 1-4 5-5l13-2c1-1 4-1 5 1 10-1 18 3 28 4l4 1c2-3 5-2 8-2 1-2 3-2 5-2l25 8c0-3-3-2-5-4zm-69-11h14-14z" class="E"/><path d="M111 131c0 2 1 3 3 5 4 4 4 5-2 7-4-2-6-7-10-8-1-3-5-3-6-5 1-1 0-3 2-4l1-1c1-1 0-1-1-1h-1c-2-3-5-2-7-4v-4c8 2 15 5 22 9 0 1 0 3-2 4-2-1-3-2-6-1 2 2 4 2 6 2l1 1z" class="J"/><path d="M43 110c10-1 18 3 28 4l4 1c0 6-4 2-5 2-3 0-7-3-9 2-2 1-4 0-6-1l-16-3c0-3 3-4 4-5z" class="D"/><path d="M55 118a317 317 0 0141 12c1 2 5 2 6 5-1 2-2 1-3 1-13-8-27-11-41-15-2 0-3-1-3-3z" class="F"/><path d="M43 110c-1 1-4 2-4 5-5 0-10-1-14 2-1 1-4 0-5-1 0-3 1-5 5-5l13-2c2-1 4-1 5 1z" class="G"/><path d="M34 119v3c-11-2-22 0-33 2H0h-1l1-1h2l1-1h2l1-1h2l1-1h4l3-1h18z" class="C"/><path d="M1 118a1 1 0 01-1 0v-4l1 4z" class="E"/><path d="M50 180v1h-1v-1h1z" class="J"/><path d="M76 25L57 14c-7-3-14-7-23-7 0-2-5-2-3-6 14 2 27 8 38 15 3 2 8 2 8 7l-1 2z" class="D"/><path d="M66 9L42 0h9l11 3c1 2 6 2 4 6z" class="B"/><path d="M85 16c2 3 4-1 6 0l1 1-2 5c-1 1-3 0-5-1l-11-7v-3l11 5z" class="I"/><path d="M90 22l2-5 15 9a4 4 0 01-2 2c-4 1-7-3-11-5l-4-1z" class="D"/><path d="M76 25l1-2c4 0 8 1 8 6l2 3-1 1c-4-2-9-3-10-8z" class="G"/><path d="M86 33l1-1c7 4 14 3 21 2-1 3-5 3-7 4-6 0-11-1-15-5z" class="J"/><path d="M111 72l-3 1-2-1v-3c2-2 4-5 4-8l1-1 4-1c5-4 11-6 17-8 7-2 12 2 17 6 4 3 12 2 15-1h4l8-1c-3 5-8 4-12 6-6 2-11 3-17 2-4-1-7-3-11 1-1 1-3-1-4-2-5-2-9-2-14 1l-4 4c-2 1-5 1-3 5z" class="E"/><path d="M141 84l-4-2c4 0 7-1 10-3 1 1 2 1 3-1 1 0 3 1 3-1l2-1c2 1 3-2 5 0-6 5-12 7-20 8z" class="D"/><path d="M152 72l6-1c-5 5-11 5-17 5 4-3 8-1 11-4z" class="C"/><path d="M120 72h-2l-1-1c2-4 5-1 8-2 1 2 4 2 4 5h-3c-1-2-3-4-6-2z" class="K"/><path d="M147 80l-10 2-1-3h11z" class="B"/><path d="M132 77c-1 0-2 1-3-1v-2c2 0 3 1 3 3z" class="K"/><path d="M171 66l2-2c-1 2-1 3-3 2z" class="C"/><g class="B"><path d="M150 79l-3 1c1-2 2-2 3-2zM153 77c0 2-2 1-3 2 1-2 2-2 3-2zM156 76l-3 1 3-1zm21-9l-2 1 2-1z"/></g><g class="C"><path d="M176 63h0zM177 63l1-1a6 6 0 01-1 1z"/></g><path d="M69 151l4 3c1 1 2 1 2 3l-3 1c-8-4-16-7-25-8l-20-3c-4 0-6-2-9-4-2-1 2-3 0-4l6 1 17 4 28 7z" class="B"/><path d="M50 159c1 1 3 1 3 4l-41-8-5-5c0-2 2-3 4-3l14 2 1 1c5 9 16 6 24 9z" class="G"/><path d="M22 162c1 5 6 2 9 4 1 1 5-1 4 2s-4 1-5 1l-2-1-15-3 2-2 3-1h4z" class="I"/><path d="M19 162l-4 1v-1h4z" class="K"/><path d="M122 23v1h-2l-3-1c-5 1-10-1-14-4l-9-6-6-3c-3-3-7-4-8-9V0h-1 5l7 4c2 2 5 4 6 3 5-3 8 1 11 3l1 1c-2 4-2 5 5 7 4 3 8 1 12 1 0 3-3 2-4 4z" class="H"/><path d="M126 18v1c-4 0-8 2-12-1 2-5-2-5-5-7l-1-1c1-3-2-4-4-6-1-1-3-2-2-4h2l8 4c-2 2-2 4-1 4 6 3 8 9 15 10z" class="J"/><path d="M93 13l10 6c4 3 9 5 14 4 1-1 2-1 3 1l-13 2-15-9-1-1 2-3z" class="B"/><path d="M186 0l-2 1h-1v1h-1l-1 1h-2c-1-1 2-2 1-3h6z" class="N"/><path d="M122 24v-1 1z" class="B"/><path d="M149 88l-2-2 6-1-4 3z" class="D"/><path d="M157 3c-8 2-14 5-22 5l-8-1-2-5a12 12 0 00-1-1V0h9l2 1c2 2 5 2 8 2l9-1c2 1 4-2 5 1z" class="H"/><path d="M115 0l-1 6-2-2-7-4h10z" class="B"/><path d="M162 0l-2 1c-2-1-2 1-2 1l-1 1c-1-3-3 0-5-1l3-2h7z" class="M"/><path d="M158 2s0-2 2-1l-2 1z" class="N"/><path d="M69 151l-28-7-17-4c0-3 0-5 4-4l28 7 16 5c0 2-2 3-3 3z" class="I"/><path d="M62 134c13 3 25 6 34 16-3 2-6 3-9 2a7 7 0 01-3-3c0-3-2-3-4-4l-18-8v-3z" class="K"/><path d="M84 149c0 2 2 3 3 4l-2 3-13-8-16-5v-3c10 1 19 5 28 9z" class="B"/><path d="M84 149c-9-4-18-8-28-9l-1-1v-3l7 2 18 7c2 1 4 2 4 4z" class="D"/><path d="M49 127c3-1 6 1 9 1 4 1 5 3 4 6l-13-4v-3z" class="F"/><path d="M55 136v3l-9-3c-1 0-2 0-2-2h3l8 2z" class="G"/><path d="M62 94c1 3 4 1 6 2l18 3 2 1v2c-2 1-5-3-7 1l-17-2c-7-1-14-4-21-1-6-1-11 1-16 2-1 1-3 2-4 1-1-2 2-3 2-4h1l2-1h1c4 0 8 0 11-3h2c2 1 3 1 4-2h6c2 2 4 2 6 1h4z" class="H"/><path d="M71 87h-1c-1-3-3-2-5-1-2 0-4-1-6 1h-5c-1-2-4 0-5-2l2-2c7 1 15-3 22 0 0 1 1 4-2 4z" class="F"/><path d="M50 85c0 2 3 0 4 2-14 0-26 6-38 11 1-3 4-3 6-4 9-5 18-9 28-9z" class="B"/><path d="M40 95c-3 3-7 3-11 3 3-3 6-5 11-3zm18-2c-2 2-4 2-6 1l-4-3c4 1 8-2 10 3zm-12 1c-1 3-2 2-4 1 1-4 3-3 4-2z" class="C"/><path d="M1 104c1-3 4-3 6-4 0 4-4 3-6 4z" class="B"/><path d="M65 86c2-1 4-2 5 1h-5v-1z" class="E"/><path d="M21 101v3c-2 0-2-2-2-3h2z" class="H"/><path d="M65 86v1h-6c2-2 4-1 6-1z" class="B"/><path d="M28 98l-2 1c0-2 0-3 2-1z" class="C"/><path d="M12 98h3-3z" class="B"/><path d="M85 16l-11-5c0-2-2-3 0-4 1-1 2 0 3 1l7 4c2 1 3 3 1 4z" class="K"/><path d="M35 183h0z" class="B"/><path d="M20 176l-12-2c-5 0-5-2-3-5 3-1 7 0 10 1 4 0 5 3 5 6z" class="G"/><path d="M111 60l-2 1-3 5-2 1c0 1 1 3-1 3s-2-2-2-4c0-3 2-4 3-7 1-1 2-3-1-4 0-2 1-2 2-3 3-3 7-4 9-8l3-1 2-2 3-1c2-1 4-1 5-3 3-4 9-4 13-6 0 2-1 2-2 3s-1 2 1 2c3 3 5-1 7-1h1l4-1h4c3 1 7-1 9 2a7 7 0 00-3 4c-6-4-10 3-15 2h4l-4 1c-3 0-4 1-3 3-2 0-4-1-5 2l-13 2c-5 3-11 5-15 10z" class="F"/><path d="M143 46c-1-2 0-3 3-3 1 0 3 1 4-1 3 0 5 3 6 5 3 3 6 0 8-1 2-2-1-3-2-4l-1-2a7 7 0 013-3l5 4c-1 3 0 4 4 4 4 1 7-2 11 0-6 4-13 5-20 5l-4 1c-4 4-7 2-10-1-2-3-4-4-7-4z" class="G"/><path d="M111 60c3-5 9-8 14-9l13-3c3 0 6 0 8 2 5 7 11 6 18 6-3 3-11 4-15 1-5-4-10-8-17-5-6 1-12 3-17 7l-4 1zm57-4h-1 1z" class="B"/><path d="M8 20H6c0-2 1-2 2 0zm8 2h-2 2zm-4 0l-2-2c1 0 2 0 2 2z" class="E"/><path d="M169 41l-5-4c-2-4-6-2-9-2 1-4 4-2 6-3 4 0 7 1 9 4 3 2 6 3 10 3 2 0 4-1 6 1-6 2-11 2-17 1z" class="H"/><path d="M186 40c-2-2-4-1-6-1-4 0-7-1-10-3-2-3-5-4-9-4 3-4 7-3 9-1 5 5 10 6 16 6l3 1v1l-3 1z" class="B"/><path d="M148 31c1-4 6-3 8-5l6-2h4c2 0 2 1 2 2l-20 5zm-9 6c-2-1-2-2 0-3 0-1 2-1 2-3h6c-1 4-6 3-8 6z" class="C"/><path d="M153 35h-2c1-2 2-2 2 0zm36 3v1-1zm-42-2h-1 1z" class="H"/><path d="M56 52c0 4-2 6-7 5l-9-3c0-2 2-3 3-3 2-2 5 3 7-1l3 1h1a23 23 0 012 1z" class="F"/><path d="M50 50c-2 4-5-1-7 1-9-4-19-6-29-8v-2l22 5c3 1 5 3 8 2h2c0 1 1 2 3 2h1zm-7 50c7-3 14 0 21 1l17 2 24 7c2 1 4 2 3 5-16-5-32-10-49-12l-16-1v-2z" class="D"/><path d="M165 189h-13v-1l13 1z" class="L"/><path d="M50 50h-2c0-2 0-3-2-3h-2c0-2-3-2-4-3l-13-4v-1c3-1 6 1 9 1l33 12 3 2-1 2c-5 0-10-3-15-4l-2-1h-1l-3-1z" class="B"/><path d="M27 39v1l-13-3 4-1c3 0 6 0 9 3z" class="L"/><path d="M146 162h-3c4-4 11-4 16-7l2-2h8c5 0 9 2 12 7l-3 2c-6-7-14-7-22-4l-10 4zm19-146c1-2 3-2 6-3l-6 3zm6-3l2-1-2 1z" class="D"/><path d="M167 21h0z" class="L"/><path d="M179 3h1c0 2-1 3-2 3l1-3zm-3 4l2-2-2 2zm5-4l1-1a6 6 0 00-1 1z" class="C"/><path d="M180 88c-1 2-3 1-5 1 1-2 3-1 5-1z" class="H"/><path d="M143 0v1l-6-1h6z" class="G"/><path d="M143 3c-3 0-6 0-8-2V0h2c2 1 4 2 6 1v2z" class="M"/><path d="M14 37c4 2 9 3 13 3l13 4c2 1 4 1 4 3-3 2-5 0-8-1l-22-5-4-1-3-1 3-2h4z" class="E"/><path d="M108 10c-3-2-6-6-11-3-1 1-4-1-6-3 1-1 4-2 3-4h8c-1 2 1 3 3 4 2 2 4 3 3 6z" class="G"/><path d="M135 0v1l-2-1h2z" class="C"/><g class="D"><path d="M116 188l2-1-2 1zM114 189l2-1-2 1zM114 189h-1 1z"/></g><path d="M120 185l-1 1 1-1z" class="B"/><path d="M161 154l-2 1c0-3 1-1 2-1z" class="E"/><path d="M143 162l-2 1 2-1z" class="D"/><path d="M141 164l-2 1 2-1z" class="B"/><path d="M71 56l1-2 12 3c4 2 9 1 12-3l2-1 3-3h1l1-1c4-1 6-5 11-5-2 4-6 5-9 7l-2 4c-3-1-4 1-6 3-3 2-5 5-9 5a4 4 0 00-2-2l-5-1-10-4z" class="C"/><path d="M107 85h-3l-1-1v1l-2 1c-4 1-8-3-12-2-4-4-10-2-15-3l-7-2c6-1 13 0 19 1h7c1 1 2 3 5 1h4l5 2v2z" class="I"/><path d="M103 55c4 1 2 3 1 4-1 3-3 4-3 7 0 2 0 4 2 4s1-2 1-3l2-1v6l-10-1c-4-1-5-3-2-5l9-11z" class="C"/><path d="M107 85v-2h3c9 2 17 5 26 4l2 1c-1 2-2 3-5 3l-26-6zm5-5l11 2c-4 1-8 0-11-1v-2z" class="J"/><path d="M87 75c-3 4-4 0-6-1 2-1 4-2 6 1z" class="M"/><path d="M86 61a4 4 0 012 2c-1 0-2 0-2-2z" class="J"/><path d="M89 84c4-1 8 3 12 2v1c-3 0-4 1-2 3-4-2-10 0-13-4-2 6-6 2-10 3l-3-1-2-1c3 0 2-3 2-4l16 1z" class="E"/><path d="M98 81c-2 2-3 0-5-2l5 2zm-2-27c-3 4-8 5-12 3l-12-3-3-2c0-3 2-2 3-1 5 1 10 4 16 4 3 0 5-3 8-1z" class="D"/><path d="M100 44l4-2c1 0 2 1 1 2s-3 2-5 0z" class="E"/><path d="M127 37c-1 2-3 3-5 3 1-3 3-3 5-3z" class="C"/><path d="M101 51l-3 2c0-2 1-2 3-2z" class="D"/><path d="M119 41l-2 2 2-2z" class="C"/><path d="M163 18l-1 1 1-1z" class="E"/><path d="M103 50l-1 1c0-1 0-2 1-1z" class="D"/><path d="M143 31h-1 1z" class="F"/><path d="M111 72c-3-4 1-4 3-5-1 1 3 6-3 5z" class="I"/><g class="B"><path d="M120 72c3-2 5 0 6 2l-6-2zM129 74v2c-2 0-3 0-3-2h3zm-12-3l1 1-2 1c-1-1 0-2 1-2z"/></g><path d="M88 100l-2-1v-2l32 8 8 4-1 2c-12-5-24-9-37-11zm11-10c-2-2-1-3 2-3l24 6c0 1 3 0 4 2l-1 2c-10-3-19-6-29-7z" class="M"/><path d="M75 91h-1-1l1-1v1zm-2-3l3 1-3-1z" class="L"/><path d="M103 85v-1l1 1h-1z" class="C"/><path d="M108 115c1-3-1-4-3-5l-24-7c2-4 5 0 7-1l2 1c10 3 20 5 29 10 0 2 2 4 0 6-2 0-4-1-5 1l-1-1c0-3-3-2-5-4z" class="G"/><path d="M119 113c-9-5-19-7-29-10l-2-1v-2c13 2 25 6 36 11 0 4-3 2-5 2z" class="B"/><path d="M96 130l-35-11c2-5 5-2 9-2 1 0 5 4 5-2 2-3 5-2 8-2 2 3 5 2 7 3v4c-1 1-2-1-4 1 4 1 7 3 11 3h1v2c-2 1-1 3-2 4z" class="I"/><path d="M111 131l-2-1v-1c3-1 3-3 3-4 5 2 9 8 14 11l-2 5c-4-1-5-4-8-6-2-1-3-4-5-4z" class="L"/><path d="M53 104H39h13z" class="F"/><path d="M97 124c-4 0-7-2-11-3 2-2 3 0 4-1 2 2 5 1 7 3zm13 5v1c-2 0-4 0-6-2 3-1 4 0 5 1zm-12-3v-2c1 0 2 0 1 1l-1 1z" class="K"/><path d="M106 69v-3l3-5c1 3-1 6-3 8z" class="B"/><path d="M110 11c2 2 7 3 4 7-7-2-7-3-5-7z" class="G"/><path d="M161 40l1 1c1 2 4 3 2 5-2 1-5 4-8 1-1-2-3-5-6-5h-4c5 1 10-5 15-2z" class="H"/><path d="M53 51h1-1zm-7-4c2 0 2 1 3 2-2 1-3 0-3-2z" class="E"/><path d="M86 86z" class="I"/></svg>