<svg width="21" height="22" viewBox="0 0 21 22" fill="none" xmlns="http://www.w3.org/2000/svg">
<path d="M20.989 11.2058C20.989 10.3045 20.9175 9.64674 20.7629 8.96466H10.7092V13.0328H16.6105C16.4916 14.0438 15.8491 15.5663 14.4213 16.5894L14.4013 16.7256L17.5801 19.2466L17.8003 19.2691C19.8229 17.3568 20.989 14.5432 20.989 11.2058Z" fill="#4285F4"/>
<path d="M10.7092 21.9244C13.6004 21.9244 16.0275 20.95 17.8004 19.2692L14.4213 16.5894C13.5171 17.235 12.3035 17.6857 10.7092 17.6857C7.87755 17.6857 5.4742 15.7734 4.61747 13.1303L4.49189 13.1412L1.18654 15.76L1.14331 15.883C2.90418 19.464 6.52114 21.9244 10.7092 21.9244Z" fill="#34A853"/>
<path d="M4.61754 13.1303C4.39149 12.4482 4.26066 11.7173 4.26066 10.9622C4.26066 10.207 4.39149 9.47618 4.60565 8.7941L4.59966 8.64883L1.25289 5.98801L1.14339 6.04133C0.41765 7.52733 0.0012207 9.19606 0.0012207 10.9622C0.0012207 12.7283 0.41765 14.397 1.14339 15.883L4.61754 13.1303Z" fill="#FBBC05"/>
<path d="M10.7092 4.23869C12.7199 4.23869 14.0763 5.12785 14.8497 5.87089L17.8717 2.85018C16.0157 1.08405 13.6004 0 10.7092 0C6.52114 0 2.90418 2.46039 1.14331 6.04135L4.60558 8.79412C5.4742 6.15102 7.87755 4.23869 10.7092 4.23869Z" fill="#EB4335"/>
</svg>
