<svg width="352" height="237" viewBox="0 0 352 237" fill="none" xmlns="http://www.w3.org/2000/svg">
<ellipse cx="176" cy="217" rx="176" ry="20" fill="#111212"/>
<path d="M340.849 184.231C339.095 191.555 335.638 198.371 330.754 204.131C329.9 205.133 329.017 206.085 328.108 207H29.863C26.5699 207 14.4009 181.841 12.5761 177.885C7.29193 166.466 2.91687 154.548 1.00678 142.08C-1.40697 126.342 0.328107 109.592 8.29926 95.778C16.2704 81.9643 31.0581 71.5934 47.0794 71.1463C71.0441 70.4832 92.9492 90.85 116.493 86.4008C131.074 83.6465 142.212 71.8751 150.184 59.447C158.155 47.0188 164.158 33.2051 174.069 22.2388C191.672 2.76183 221.294 -5.00735 246.292 3.29786C271.29 11.6031 290.233 35.5017 292.48 61.5805C293.291 71.0065 292.104 80.4982 292.531 89.9517C293.511 111.66 306.847 116.499 319.624 131.24C329.574 142.719 340.943 154.758 341.939 172.243C342.157 176.27 341.789 180.307 340.849 184.231Z" fill="#121617"/>
<g clip-path="url(#clip0)">
<path d="M96.8672 99.0434H61.6538C59.3932 99.0434 57.5625 97.2136 57.5625 94.9541V43.8685C57.5625 41.6091 59.3932 39.7793 61.6538 39.7793H96.8747C99.1353 39.7793 100.966 41.6091 100.966 43.8685V94.9541C100.959 97.2136 99.1278 99.0434 96.8672 99.0434Z" fill="#F4BE3B"/>
<path d="M91.7976 47.6837H66.7235C65.9082 47.6837 65.2485 47.0244 65.2485 46.2095C65.2485 45.3947 65.9082 44.7354 66.7235 44.7354H91.7976C92.6129 44.7354 93.2725 45.3947 93.2725 46.2095C93.2725 47.0244 92.6129 47.6837 91.7976 47.6837Z" fill="white"/>
<path d="M72.2824 80.6713H86.2389V70.8038H93.1985L79.2569 54.1729L65.3228 70.8038H72.2824V80.6713Z" fill="white"/>
<path d="M86.2387 82.5977H72.2822V85.0719H86.2387V82.5977Z" fill="white"/>
<path d="M86.2387 86.9902H72.2822V87.9977H86.2387V86.9902Z" fill="white"/>
<path d="M287.365 190.132C287.173 190.139 287.01 189.991 286.987 189.799C286.965 189.591 287.113 189.413 287.321 189.391C288.796 189.243 290.278 189.006 291.731 188.68C291.931 188.635 292.131 188.761 292.176 188.961C292.22 189.161 292.094 189.361 291.894 189.406C290.419 189.739 288.9 189.984 287.395 190.132C287.388 190.132 287.38 190.132 287.365 190.132ZM281.354 190.236C281.347 190.236 281.332 190.236 281.325 190.236C279.82 190.139 278.293 189.947 276.804 189.658C276.603 189.621 276.47 189.428 276.507 189.221C276.544 189.021 276.737 188.887 276.944 188.924C278.412 189.198 279.902 189.391 281.377 189.487C281.584 189.502 281.74 189.68 281.725 189.88C281.703 190.08 281.547 190.228 281.354 190.236ZM297.557 187.621C297.408 187.621 297.26 187.532 297.201 187.391C297.127 187.198 297.216 186.983 297.408 186.902C298.787 186.346 300.136 185.694 301.44 184.976C301.618 184.88 301.848 184.939 301.944 185.124C302.041 185.302 301.981 185.532 301.796 185.628C300.469 186.361 299.091 187.028 297.683 187.591C297.645 187.606 297.601 187.621 297.557 187.621ZM271.074 188.072C271.03 188.072 270.985 188.065 270.941 188.05C269.518 187.532 268.109 186.924 266.761 186.235C266.575 186.139 266.501 185.917 266.597 185.732C266.694 185.546 266.916 185.472 267.101 185.569C268.421 186.243 269.799 186.843 271.2 187.346C271.393 187.413 271.497 187.628 271.423 187.821C271.363 187.976 271.222 188.072 271.074 188.072ZM306.636 182.339C306.525 182.339 306.414 182.294 306.34 182.198C306.214 182.035 306.236 181.805 306.399 181.672C307.562 180.753 308.682 179.746 309.727 178.694C309.875 178.546 310.105 178.546 310.253 178.694C310.401 178.842 310.401 179.072 310.253 179.22C309.186 180.294 308.044 181.316 306.858 182.257C306.792 182.309 306.718 182.331 306.636 182.339ZM313.862 174.716C313.788 174.716 313.707 174.694 313.64 174.649C313.47 174.531 313.433 174.301 313.551 174.131C314.411 172.916 315.204 171.641 315.901 170.33C315.997 170.152 316.227 170.078 316.405 170.175C316.583 170.271 316.657 170.501 316.56 170.678C315.841 172.012 315.034 173.316 314.159 174.553C314.092 174.664 313.981 174.716 313.862 174.716ZM318.643 165.367C318.599 165.367 318.554 165.359 318.517 165.345C318.324 165.278 318.221 165.063 318.287 164.871C318.762 163.47 319.162 162.018 319.473 160.567L319.488 160.507C319.532 160.307 319.725 160.174 319.933 160.218C320.133 160.263 320.266 160.455 320.222 160.663L320.207 160.722C319.896 162.211 319.488 163.685 318.999 165.115C318.932 165.271 318.791 165.367 318.643 165.367ZM320.6 154.996C320.592 154.996 320.585 154.996 320.578 154.996C320.37 154.988 320.214 154.81 320.222 154.61C320.259 153.84 320.266 153.062 320.251 152.299C320.237 151.581 320.2 150.862 320.148 150.143C320.133 149.936 320.281 149.758 320.489 149.743C320.696 149.729 320.874 149.877 320.889 150.084C320.948 150.81 320.985 151.551 321 152.284C321.015 153.07 321.007 153.862 320.97 154.648C320.956 154.84 320.793 154.996 320.6 154.996ZM319.547 144.55C319.377 144.55 319.221 144.439 319.177 144.269C318.821 142.832 318.369 141.395 317.835 140.009C317.761 139.817 317.857 139.602 318.05 139.528C318.243 139.454 318.458 139.55 318.532 139.743C319.073 141.158 319.533 142.617 319.903 144.084C319.955 144.284 319.829 144.484 319.629 144.536C319.607 144.55 319.577 144.55 319.547 144.55ZM315.597 134.831C315.463 134.831 315.337 134.764 315.271 134.646C314.522 133.364 313.685 132.112 312.788 130.934C312.662 130.771 312.691 130.534 312.862 130.416C313.025 130.29 313.262 130.32 313.381 130.49C314.3 131.697 315.152 132.972 315.916 134.275C316.019 134.453 315.96 134.683 315.782 134.787C315.715 134.816 315.656 134.831 315.597 134.831ZM309.067 126.608C308.971 126.608 308.874 126.579 308.8 126.504C307.718 125.482 306.569 124.519 305.369 123.638C305.205 123.519 305.168 123.282 305.287 123.119C305.406 122.956 305.643 122.919 305.806 123.038C307.021 123.934 308.2 124.919 309.304 125.964C309.452 126.104 309.46 126.342 309.319 126.49C309.26 126.564 309.163 126.601 309.067 126.608ZM300.484 120.556C300.425 120.556 300.366 120.541 300.306 120.519C298.987 119.845 297.608 119.252 296.208 118.741C296.015 118.674 295.911 118.459 295.985 118.267C296.052 118.074 296.267 117.97 296.46 118.045C297.883 118.563 299.291 119.171 300.64 119.859C300.825 119.956 300.899 120.178 300.803 120.363C300.744 120.474 300.618 120.548 300.484 120.556Z" fill="#F4BE3B"/>
<path d="M210.838 202.259C210.831 202.259 210.824 202.259 210.824 202.259C209.312 202.207 207.792 202.118 206.288 201.985C205.999 201.963 205.791 201.703 205.813 201.422C205.835 201.133 206.095 200.926 206.377 200.948C207.859 201.081 209.363 201.17 210.853 201.222C211.142 201.229 211.365 201.474 211.357 201.763C211.35 202.037 211.12 202.259 210.838 202.259ZM216.857 202.229C216.575 202.229 216.345 202.007 216.338 201.733C216.323 201.444 216.553 201.2 216.835 201.192C218.324 201.126 219.829 201.022 221.311 200.874C221.6 200.844 221.852 201.052 221.882 201.34C221.912 201.629 221.704 201.881 221.415 201.911C219.918 202.059 218.391 202.17 216.886 202.237C216.872 202.229 216.864 202.229 216.857 202.229ZM200.366 201.222C200.336 201.222 200.306 201.222 200.277 201.215C198.787 200.963 197.29 200.674 195.815 200.34C195.533 200.274 195.355 200 195.422 199.718C195.489 199.437 195.763 199.259 196.044 199.326C197.497 199.651 198.972 199.948 200.447 200.192C200.729 200.237 200.921 200.511 200.877 200.792C200.833 201.044 200.618 201.222 200.366 201.222ZM227.322 201.081C227.07 201.081 226.855 200.903 226.811 200.652C226.759 200.37 226.952 200.096 227.233 200.044C228.701 199.785 230.176 199.474 231.621 199.133C231.903 199.066 232.184 199.237 232.251 199.518C232.318 199.8 232.147 200.081 231.866 200.148C230.398 200.496 228.901 200.807 227.419 201.074C227.382 201.081 227.352 201.081 227.322 201.081ZM190.122 198.8C190.071 198.8 190.019 198.792 189.967 198.777C188.522 198.333 187.076 197.837 185.653 197.311C185.386 197.207 185.245 196.91 185.349 196.636C185.453 196.37 185.75 196.229 186.024 196.333C187.425 196.851 188.855 197.34 190.278 197.785C190.552 197.866 190.708 198.162 190.619 198.437C190.545 198.651 190.345 198.8 190.122 198.8ZM237.536 198.548C237.313 198.548 237.113 198.407 237.039 198.185C236.95 197.911 237.106 197.614 237.38 197.525C238.796 197.073 240.219 196.57 241.612 196.036C241.879 195.933 242.183 196.066 242.287 196.333C242.39 196.599 242.257 196.903 241.99 197.007C240.582 197.548 239.137 198.059 237.706 198.518C237.647 198.54 237.595 198.548 237.536 198.548ZM180.28 195.014C180.205 195.014 180.131 194.999 180.057 194.962C178.686 194.325 177.315 193.644 175.988 192.932C175.736 192.799 175.64 192.48 175.773 192.229C175.907 191.977 176.225 191.88 176.477 192.014C177.789 192.718 179.146 193.392 180.495 194.021C180.754 194.14 180.873 194.451 180.747 194.718C180.665 194.903 180.48 195.014 180.28 195.014ZM247.319 194.673C247.127 194.673 246.934 194.562 246.845 194.377C246.719 194.118 246.83 193.807 247.09 193.681C248.431 193.044 249.773 192.355 251.077 191.636C251.329 191.495 251.648 191.592 251.789 191.843C251.929 192.095 251.833 192.414 251.581 192.555C250.262 193.281 248.898 193.977 247.542 194.621C247.475 194.658 247.393 194.673 247.319 194.673ZM171.044 189.947C170.948 189.947 170.852 189.917 170.763 189.865C169.488 189.051 168.228 188.191 167.005 187.31C166.768 187.139 166.716 186.813 166.886 186.584C167.057 186.347 167.383 186.295 167.613 186.465C168.821 187.339 170.066 188.184 171.326 188.991C171.571 189.147 171.637 189.465 171.482 189.71C171.385 189.865 171.215 189.947 171.044 189.947ZM256.488 189.525C256.317 189.525 256.147 189.443 256.05 189.288C255.895 189.043 255.961 188.725 256.199 188.569C257.444 187.754 258.682 186.895 259.882 186.013C260.112 185.843 260.438 185.895 260.609 186.124C260.779 186.354 260.727 186.68 260.497 186.85C259.282 187.747 258.029 188.621 256.769 189.443C256.688 189.495 256.591 189.525 256.488 189.525ZM162.565 183.702C162.447 183.702 162.328 183.665 162.232 183.576C161.083 182.606 159.942 181.583 158.845 180.546C158.637 180.346 158.63 180.02 158.822 179.805C159.023 179.598 159.349 179.591 159.564 179.783C160.646 180.805 161.765 181.813 162.906 182.776C163.129 182.961 163.151 183.295 162.966 183.509C162.862 183.635 162.714 183.702 162.565 183.702ZM264.9 183.198C264.752 183.198 264.611 183.139 264.507 183.02C264.322 182.806 264.344 182.472 264.559 182.287C265.686 181.317 266.798 180.302 267.872 179.265C268.08 179.065 268.413 179.072 268.613 179.279C268.814 179.487 268.806 179.82 268.599 180.02C267.516 181.065 266.382 182.102 265.241 183.087C265.137 183.154 265.019 183.198 264.9 183.198ZM154.991 176.383C154.85 176.383 154.709 176.324 154.605 176.213C153.59 175.094 152.597 173.931 151.655 172.76C151.477 172.538 151.507 172.205 151.737 172.027C151.959 171.849 152.293 171.879 152.471 172.108C153.404 173.264 154.383 174.412 155.383 175.516C155.576 175.731 155.561 176.057 155.346 176.25C155.243 176.338 155.117 176.383 154.991 176.383ZM272.393 175.805C272.267 175.805 272.149 175.761 272.045 175.672C271.83 175.479 271.808 175.153 272.001 174.938C272.986 173.827 273.957 172.671 274.884 171.501C275.062 171.279 275.388 171.234 275.618 171.412C275.847 171.59 275.884 171.916 275.707 172.146C274.773 173.331 273.787 174.501 272.786 175.627C272.682 175.746 272.542 175.805 272.393 175.805ZM148.461 168.138C148.298 168.138 148.135 168.056 148.031 167.908C147.179 166.664 146.348 165.382 145.563 164.1C145.414 163.856 145.489 163.53 145.741 163.382C145.985 163.234 146.311 163.308 146.46 163.56C147.23 164.826 148.053 166.093 148.891 167.323C149.054 167.56 148.994 167.886 148.757 168.049C148.668 168.108 148.565 168.138 148.461 168.138ZM278.849 167.486C278.745 167.486 278.649 167.456 278.56 167.397C278.323 167.234 278.256 166.915 278.419 166.671C279.249 165.434 280.057 164.16 280.821 162.878C280.969 162.634 281.288 162.552 281.54 162.693C281.784 162.841 281.866 163.16 281.725 163.411C280.954 164.708 280.139 166.004 279.294 167.256C279.183 167.412 279.02 167.486 278.849 167.486ZM143.087 159.093C142.894 159.093 142.717 158.989 142.62 158.804C141.938 157.463 141.286 156.078 140.686 154.7C140.567 154.433 140.693 154.129 140.953 154.011C141.219 153.892 141.523 154.018 141.642 154.277C142.235 155.64 142.88 157.004 143.554 158.322C143.688 158.581 143.584 158.893 143.324 159.026C143.25 159.078 143.169 159.093 143.087 159.093ZM284.141 158.381C284.067 158.381 283.985 158.367 283.911 158.33C283.652 158.204 283.548 157.893 283.674 157.633C284.334 156.3 284.964 154.922 285.549 153.551C285.661 153.285 285.964 153.159 286.231 153.277C286.498 153.388 286.624 153.7 286.505 153.959C285.913 155.352 285.275 156.737 284.608 158.093C284.519 158.278 284.334 158.381 284.141 158.381ZM138.974 149.425C138.759 149.425 138.559 149.292 138.477 149.077C137.98 147.655 137.521 146.195 137.106 144.743C137.024 144.469 137.187 144.18 137.462 144.099C137.736 144.017 138.025 144.18 138.106 144.454C138.514 145.884 138.966 147.321 139.455 148.729C139.552 149.003 139.404 149.299 139.137 149.396C139.085 149.418 139.033 149.425 138.974 149.425ZM288.166 148.647C288.114 148.647 288.055 148.64 288.003 148.618C287.728 148.529 287.58 148.232 287.677 147.958C288.151 146.551 288.588 145.106 288.981 143.669C289.055 143.388 289.344 143.225 289.618 143.306C289.9 143.38 290.063 143.669 289.982 143.943C289.581 145.395 289.137 146.862 288.655 148.292C288.588 148.507 288.381 148.647 288.166 148.647ZM136.187 139.276C135.942 139.276 135.727 139.106 135.675 138.861C135.379 137.387 135.112 135.876 134.897 134.387C134.853 134.105 135.053 133.839 135.342 133.794C135.624 133.75 135.89 133.95 135.935 134.239C136.15 135.713 136.402 137.195 136.698 138.654C136.758 138.935 136.572 139.21 136.291 139.269C136.261 139.276 136.224 139.276 136.187 139.276ZM290.841 138.469C290.812 138.469 290.775 138.469 290.745 138.461C290.463 138.409 290.278 138.135 290.33 137.854C290.612 136.394 290.856 134.905 291.049 133.431C291.086 133.142 291.345 132.942 291.634 132.979C291.924 133.016 292.124 133.283 292.087 133.565C291.886 135.061 291.642 136.565 291.36 138.046C291.308 138.298 291.086 138.469 290.841 138.469ZM134.793 128.846C134.519 128.846 134.289 128.631 134.275 128.357C134.171 126.853 134.119 125.327 134.097 123.816C134.097 123.527 134.326 123.29 134.616 123.29C134.616 123.29 134.616 123.29 134.623 123.29C134.912 123.29 135.142 123.519 135.142 123.808C135.157 125.297 135.216 126.809 135.312 128.29C135.334 128.579 135.112 128.824 134.823 128.846C134.816 128.846 134.801 128.846 134.793 128.846ZM292.131 128.031C292.124 128.031 292.109 128.031 292.101 128.031C291.812 128.016 291.59 127.772 291.612 127.483C291.694 126.001 291.738 124.49 291.738 123.001V122.853C291.738 122.564 291.968 122.334 292.257 122.327C292.546 122.327 292.776 122.556 292.776 122.845V122.993C292.776 124.505 292.731 126.031 292.65 127.535C292.635 127.816 292.405 128.031 292.131 128.031ZM134.779 118.326C134.764 118.326 134.756 118.326 134.742 118.326C134.452 118.304 134.238 118.06 134.252 117.771C134.349 116.267 134.489 114.741 134.675 113.252C134.712 112.963 134.971 112.763 135.253 112.8C135.542 112.837 135.742 113.096 135.705 113.378C135.527 114.852 135.386 116.356 135.29 117.837C135.283 118.112 135.053 118.326 134.779 118.326ZM292.02 117.363C291.753 117.363 291.523 117.156 291.501 116.882C291.382 115.393 291.227 113.896 291.027 112.422C290.99 112.133 291.19 111.874 291.471 111.837C291.76 111.8 292.02 112 292.057 112.281C292.257 113.77 292.42 115.289 292.539 116.8C292.561 117.089 292.346 117.341 292.057 117.363C292.05 117.356 292.035 117.363 292.02 117.363ZM136.165 107.896C136.128 107.896 136.098 107.896 136.061 107.888C135.779 107.829 135.594 107.555 135.653 107.274C135.95 105.792 136.298 104.303 136.676 102.851C136.75 102.57 137.032 102.407 137.313 102.481C137.595 102.555 137.758 102.836 137.684 103.118C137.306 104.555 136.965 106.029 136.676 107.481C136.624 107.725 136.409 107.896 136.165 107.896ZM138.929 97.7469C138.87 97.7469 138.818 97.7395 138.759 97.7173C138.484 97.621 138.344 97.3246 138.433 97.0505C138.929 95.6208 139.47 94.1911 140.048 92.7984C140.16 92.5317 140.463 92.4057 140.73 92.5168C140.997 92.628 141.123 92.9317 141.012 93.1984C140.441 94.5763 139.908 95.9912 139.418 97.3987C139.344 97.6061 139.144 97.7469 138.929 97.7469ZM143.035 88.0424C142.954 88.0424 142.872 88.0276 142.798 87.9831C142.539 87.8498 142.435 87.5387 142.568 87.2794C143.25 85.9311 143.977 84.5903 144.733 83.2791C144.881 83.0272 145.2 82.9457 145.444 83.0865C145.696 83.2346 145.778 83.5532 145.637 83.7976C144.888 85.0866 144.169 86.4126 143.495 87.7461C143.413 87.9387 143.228 88.0424 143.035 88.0424ZM148.409 78.9824C148.305 78.9824 148.201 78.9528 148.112 78.8935C147.875 78.7305 147.816 78.4046 147.979 78.1675C148.831 76.923 149.736 75.6859 150.662 74.4932C150.84 74.2635 151.166 74.2265 151.396 74.3969C151.626 74.5747 151.663 74.9006 151.492 75.1303C150.581 76.3081 149.691 77.5304 148.846 78.7528C148.735 78.9009 148.572 78.9824 148.409 78.9824ZM154.931 70.7225C154.805 70.7225 154.679 70.678 154.583 70.5891C154.368 70.3965 154.353 70.0632 154.546 69.8558C155.554 68.7371 156.614 67.6334 157.688 66.574C157.896 66.374 158.222 66.374 158.43 66.5814C158.63 66.7888 158.63 67.1148 158.422 67.3222C157.362 68.3667 156.317 69.4557 155.324 70.5595C155.22 70.6632 155.072 70.7225 154.931 70.7225ZM162.499 63.396C162.35 63.396 162.202 63.3367 162.098 63.2108C161.913 62.9885 161.943 62.6626 162.158 62.4774C163.307 61.4995 164.5 60.5513 165.708 59.6401C165.938 59.4697 166.264 59.5142 166.442 59.7438C166.612 59.9735 166.568 60.2994 166.338 60.4772C165.152 61.3736 163.974 62.3144 162.84 63.2774C162.736 63.3589 162.617 63.396 162.499 63.396ZM170.956 57.1436C170.785 57.1436 170.615 57.0621 170.518 56.9066C170.363 56.6621 170.437 56.3435 170.674 56.188C171.941 55.3731 173.253 54.5878 174.565 53.847C174.817 53.7063 175.136 53.7952 175.277 54.0471C175.417 54.2989 175.329 54.6175 175.077 54.7582C173.779 55.4842 172.49 56.2621 171.237 57.0695C171.156 57.114 171.052 57.1436 170.956 57.1436ZM235.964 48.0021C235.913 48.0021 235.868 47.9947 235.816 47.9799C234.393 47.5576 232.933 47.165 231.48 46.8243C231.199 46.7576 231.028 46.4761 231.095 46.1946C231.162 45.9131 231.443 45.7427 231.725 45.8094C233.192 46.1575 234.667 46.5502 236.113 46.9798C236.387 47.0613 236.543 47.3502 236.461 47.6317C236.402 47.854 236.194 48.0021 235.964 48.0021Z" fill="#F4BE3B"/>
<path d="M301.878 82.4859L312.01 80.908L309.245 63.1954L299.113 64.7733C298.031 62.4102 296.682 60.21 295.103 58.2024L301.151 49.9277L286.669 39.349L280.621 47.6312C278.234 46.7422 275.722 46.1273 273.142 45.8162L271.564 35.6895L253.842 38.4452L255.421 48.572C253.056 49.6536 250.855 51.0018 248.846 52.5797L240.567 46.5348L229.983 61.01L238.262 67.055C237.373 69.4404 236.758 71.9517 236.446 74.5371L226.314 76.115L229.072 93.8275L239.204 92.2496C240.286 94.6128 241.635 96.813 243.213 98.8205L237.165 107.095L251.648 117.674L257.696 109.399C260.083 110.288 262.595 110.903 265.175 111.214L266.753 121.341L284.475 118.585L282.896 108.458C285.261 107.377 287.462 106.029 289.47 104.451L297.749 110.496L308.333 96.0203L300.054 89.968C300.944 87.5826 301.559 85.0713 301.878 82.4859ZM269.155 98.1316C258.311 98.1316 249.528 89.3457 249.528 78.5152C249.528 67.6847 258.319 58.8914 269.155 58.8914C279.998 58.8914 288.789 67.6773 288.789 78.5078C288.789 89.3383 279.998 98.1316 269.155 98.1316Z" fill="#F4BE3B"/>
<path d="M222.594 57.2545L224.995 47.9427L219.673 46.5722C219.644 45.1795 219.444 43.809 219.095 42.483L223.831 39.6902L218.947 31.408L214.211 34.2008C213.225 33.2526 212.121 32.4229 210.913 31.7191L212.284 26.4002L202.967 24L201.596 29.3189C200.203 29.3486 198.831 29.5486 197.505 29.8968L194.71 25.1631L186.424 30.0449L189.218 34.7786C188.27 35.7639 187.439 36.8677 186.735 38.0752L181.414 36.7047L179.012 46.0166L184.334 47.3871C184.364 48.7798 184.564 50.1502 184.912 51.4763L180.176 54.2691L185.06 62.5512L189.796 59.7584C190.782 60.7067 191.886 61.5364 193.095 62.2401L191.723 67.5591L201.04 69.9593L202.411 64.6403C203.805 64.6107 205.176 64.4107 206.503 64.0625L209.297 68.7962L217.583 63.9143L214.789 59.1806C215.738 58.1953 216.568 57.0915 217.272 55.884L222.594 57.2545ZM199.143 58.0472C193.028 56.4693 189.352 50.2391 190.93 44.1275C192.509 38.0159 198.742 34.3416 204.857 35.9195C210.972 37.4974 214.648 43.7275 213.069 49.8391C211.491 55.9507 205.257 59.6251 199.143 58.0472Z" fill="#F4BE3B"/>
<path d="M304.012 147.817L298.468 165.811L297.579 168.701L295.051 166.56L288.433 160.981L304.012 147.817Z" fill="#F4BE3B"/>
<path d="M304.012 147.817L284.749 158.937L275.988 156.033L304.012 147.817Z" fill="#F4BE3B"/>
<path d="M304.012 147.817L288.433 160.981L285.431 166.967L284.749 158.937L304.012 147.817Z" fill="#CD9D2D"/>
<path d="M52.1522 167.662C51.952 167.662 51.7964 167.499 51.7964 167.307C51.7964 167.107 51.9594 166.951 52.1522 166.951C53.5382 166.951 54.8649 166.633 56.0878 166.003C56.2657 165.914 56.4806 165.981 56.5696 166.159C56.6585 166.336 56.5918 166.551 56.4139 166.64C55.1095 167.307 53.6345 167.662 52.1522 167.662Z" fill="#F4BE3B"/>
<path d="M57.4664 165.915C57.3553 165.915 57.2515 165.863 57.1774 165.767C57.0588 165.611 57.0959 165.382 57.2515 165.263C58.052 164.671 58.7339 163.959 59.2898 163.137C59.4009 162.974 59.6233 162.93 59.7863 163.041C59.9494 163.152 59.9939 163.374 59.8827 163.537C59.2823 164.426 58.5412 165.204 57.674 165.841C57.6147 165.893 57.5406 165.915 57.4664 165.915Z" fill="#F4BE3B"/>
<path d="M60.3198 162.381C60.2679 162.381 60.2235 162.373 60.1716 162.351C59.9937 162.269 59.9122 162.055 59.9937 161.877C60.4977 160.766 60.7497 159.58 60.7497 158.351C60.7497 156.454 60.1494 154.661 59.0005 153.158C57.8962 151.698 56.3249 150.617 54.5831 150.106C54.3904 150.046 54.2866 149.854 54.3385 149.661C54.3978 149.468 54.5905 149.365 54.7832 149.417C56.6732 149.972 58.3705 151.15 59.5712 152.721C60.809 154.35 61.4612 156.299 61.4612 158.343C61.4612 159.677 61.187 160.958 60.6459 162.166C60.5866 162.299 60.4606 162.381 60.3198 162.381Z" fill="#F4BE3B"/>
<path d="M45.0959 147.084C45.0144 147.084 44.9254 147.054 44.8587 146.995C42.5018 144.906 41.1528 141.906 41.1528 138.765C41.1528 136.246 42.0274 133.779 43.621 131.831C45.1849 129.905 47.3787 128.556 49.7876 128.03C49.9803 127.986 50.173 128.112 50.2175 128.305C50.2619 128.497 50.1359 128.69 49.9432 128.734C47.69 129.231 45.6444 130.49 44.1768 132.29C42.6945 134.112 41.8718 136.416 41.8718 138.772C41.8718 141.713 43.1318 144.513 45.3405 146.469C45.4887 146.602 45.5036 146.825 45.3701 146.973C45.2886 147.039 45.1923 147.084 45.0959 147.084Z" fill="#F4BE3B"/>
<path d="M50.0024 149.536C49.9801 149.536 49.9579 149.536 49.9283 149.528C48.8091 149.298 47.7344 148.898 46.7338 148.335C46.5633 148.239 46.504 148.017 46.6003 147.846C46.6967 147.676 46.9191 147.617 47.0895 147.713C48.0234 148.239 49.024 148.617 50.0691 148.832C50.2618 148.869 50.3878 149.061 50.3507 149.254C50.3211 149.424 50.1728 149.536 50.0024 149.536Z" fill="#F4BE3B"/>
<path d="M53.8119 112.992C53.7081 112.992 53.6044 112.948 53.5376 112.866C53.4116 112.711 53.4339 112.489 53.5821 112.363C54.2788 111.785 54.5605 110.851 54.3011 109.985C54.0268 109.073 53.0633 108.555 52.1516 108.829C51.9589 108.888 51.7588 108.777 51.7069 108.592C51.6476 108.399 51.7588 108.199 51.9441 108.147C53.2338 107.762 54.5975 108.496 54.9904 109.785C55.3313 110.925 54.9607 112.155 54.0416 112.918C53.9749 112.963 53.8934 112.992 53.8119 112.992Z" fill="#F4BE3B"/>
<path d="M50.9956 113.473C50.9586 113.473 50.9215 113.465 50.8919 113.458C49.743 113.102 48.8462 112.198 48.4978 111.05C47.7937 108.709 49.1204 106.235 51.4626 105.531C52.5076 105.213 53.612 105.22 54.6571 105.546C54.8424 105.605 54.9535 105.805 54.8942 105.998C54.8349 106.183 54.6348 106.294 54.4421 106.235C53.5379 105.953 52.5817 105.946 51.6701 106.22C49.706 106.813 48.5942 108.887 49.1871 110.843C49.4688 111.769 50.1803 112.487 51.1068 112.776C51.2921 112.836 51.4033 113.036 51.344 113.228C51.2921 113.376 51.1513 113.473 50.9956 113.473Z" fill="#F4BE3B"/>
<path d="M52.0482 117.866C51.8629 117.866 51.7073 117.726 51.6925 117.54C51.6777 117.34 51.8185 117.17 52.0186 117.155C52.5374 117.111 53.0488 117.007 53.5528 116.859C56.7251 115.903 58.5261 112.547 57.57 109.384C57.3032 108.503 56.7918 107.725 56.0877 107.132C55.9394 107.006 55.9172 106.777 56.0432 106.628C56.1692 106.48 56.399 106.458 56.5472 106.584C57.3551 107.266 57.948 108.162 58.2519 109.177C59.3192 112.725 57.3032 116.481 53.753 117.548C53.2045 117.711 52.6412 117.822 52.0779 117.874C52.0705 117.866 52.0557 117.866 52.0482 117.866Z" fill="#F4BE3B"/>
<path d="M48.3497 117.303C48.3052 117.303 48.2607 117.296 48.2163 117.273C45.8815 116.318 44.1324 114.392 43.406 111.977C42.7315 109.725 42.8279 107.384 43.6951 105.206C44.54 103.094 46.0743 101.294 48.0236 100.146C48.194 100.042 48.4164 100.102 48.5127 100.272C48.6165 100.442 48.5572 100.665 48.3867 100.761C46.5708 101.828 45.1404 103.502 44.3621 105.472C43.5542 107.502 43.4653 109.68 44.0953 111.769C44.755 113.969 46.3633 115.732 48.4905 116.607C48.6758 116.681 48.7647 116.888 48.6832 117.073C48.6239 117.222 48.4905 117.303 48.3497 117.303Z" fill="#F4BE3B"/>
<path d="M59.875 100.821C59.8158 100.821 59.7565 100.806 59.7046 100.776C58.111 99.9168 56.3248 99.4204 54.5311 99.339C54.331 99.3316 54.1828 99.1612 54.1902 98.9612C54.1976 98.7611 54.3681 98.613 54.5682 98.6204C56.473 98.7093 58.363 99.2353 60.0529 100.139C60.2234 100.235 60.2901 100.45 60.2012 100.621C60.127 100.754 60.0085 100.821 59.875 100.821Z" fill="#F4BE3B"/>
<path d="M66.4863 113.955C66.4789 113.955 66.4641 113.955 66.4567 113.955C66.2566 113.941 66.1157 113.763 66.1306 113.57C66.2936 111.666 66.0935 109.762 65.5376 107.918C64.8187 105.532 63.4104 103.458 61.4611 101.925C61.3055 101.799 61.2758 101.577 61.4018 101.421C61.5278 101.265 61.7502 101.236 61.9058 101.362C63.9737 102.992 65.4635 105.184 66.2269 107.71C66.8124 109.644 67.02 111.637 66.8495 113.629C66.8273 113.815 66.6716 113.955 66.4863 113.955Z" fill="#F4BE3B"/>
<path d="M55.4873 127.519C55.3317 127.519 55.1909 127.423 55.1464 127.267C55.0871 127.075 55.1983 126.875 55.3836 126.823C57.4589 126.2 59.334 125.163 60.9572 123.756C62.5285 122.393 63.7811 120.748 64.6854 118.866C64.7743 118.689 64.9818 118.615 65.1671 118.696C65.345 118.785 65.4191 118.992 65.3376 119.178C64.3889 121.148 63.077 122.867 61.4316 124.297C59.7343 125.771 57.7627 126.852 55.5911 127.512C55.554 127.512 55.517 127.519 55.4873 127.519Z" fill="#F4BE3B"/>
<path d="M68.1838 118.963C68.1467 118.963 68.1023 118.955 68.0652 118.94C67.8799 118.874 67.7835 118.666 67.8503 118.481C68.5914 116.444 68.8805 114.214 68.7026 112.043C68.6878 111.843 68.836 111.673 69.0287 111.658C69.2288 111.643 69.3993 111.792 69.4141 111.984C69.6068 114.258 69.2955 116.592 68.5247 118.725C68.4654 118.874 68.332 118.963 68.1838 118.963Z" fill="#F4BE3B"/>
<path d="M64.9817 124.215C64.8928 124.215 64.8039 124.185 64.7371 124.118C64.5889 123.985 64.5815 123.755 64.7149 123.614C65.6043 122.651 66.3603 121.585 66.9755 120.444C67.0719 120.266 67.2868 120.207 67.4573 120.296C67.6352 120.392 67.6945 120.607 67.6055 120.777C66.9681 121.977 66.175 123.089 65.2412 124.096C65.1744 124.177 65.0781 124.215 64.9817 124.215Z" fill="#F4BE3B"/>
<path d="M61.8617 175.204L61.6616 178.367L60.0532 203.429L59.8976 205.918H43.8362L43.6806 203.429L42.0722 178.367L41.8721 175.204H61.8617Z" fill="#C65F32"/>
<path d="M61.6616 178.012L60.0533 203.399H43.6806L42.0723 178.012H61.6616Z" fill="#EF7B41"/>
<path d="M62.6472 175.205H40.9973L40.4785 172.819H63.255L62.6472 175.205Z" fill="#EF7B41"/>
<path d="M41.8721 172.819L42.2427 169.093L50.3882 169.545C50.8033 169.567 51.2183 169.678 51.6186 169.863L53.264 170.634C53.7161 170.848 54.1905 170.952 54.6648 170.952H61.0538L61.8691 172.812H41.8721V172.819Z" fill="#F4BE3B"/>
<path d="M192.398 205.548L148.305 205.54L149.699 193.599L149.736 193.258L150.796 184.19C150.81 184.064 150.87 183.976 150.936 183.976H190.063C190.13 183.976 190.189 184.072 190.204 184.198L191.138 193.265L191.175 193.599L192.398 205.548Z" fill="#EF7B41"/>
<path d="M191.167 193.599H149.698L149.735 193.258L150.795 184.19C150.81 184.064 150.869 183.976 150.936 183.976H190.063C190.13 183.976 190.189 184.072 190.204 184.198L191.138 193.265L191.167 193.599Z" fill="#C25F33"/>
<path d="M255.991 85.5896V178.879C255.991 182.183 253.182 184.857 249.721 184.857H90.975C87.5137 184.857 84.7046 182.183 84.7046 178.879V85.5896C84.7046 82.2856 87.5137 79.6113 90.975 79.6113H249.721C253.182 79.6113 255.991 82.2856 255.991 85.5896Z" fill="#EF7B41"/>
<path d="M255.991 85.5896V178.879C255.991 182.183 253.182 184.857 249.721 184.857H152.219C230.94 184.738 235.401 79.6113 235.401 79.6113H249.721C253.182 79.6113 255.991 82.2856 255.991 85.5896Z" fill="#F4BE3B"/>
<path d="M250.67 88.8719V163.789C250.67 165.974 248.898 167.745 246.712 167.745H93.9843C92.198 167.745 90.686 166.56 90.1968 164.937C90.0857 164.574 90.0264 164.189 90.0264 163.789V88.8719C90.0264 86.6865 91.7978 84.916 93.9843 84.916H246.704C248.898 84.916 250.67 86.6865 250.67 88.8719Z" fill="white"/>
<path d="M180.539 178.085H160.223C159.097 178.085 158.185 177.174 158.185 176.048C158.185 174.922 159.097 174.011 160.223 174.011H180.539C181.666 174.011 182.577 174.922 182.577 176.048C182.577 177.174 181.666 178.085 180.539 178.085Z" fill="#C8DEF4"/>
<path d="M180.443 178.449H160.327C158.941 178.449 157.814 177.374 157.814 176.056C157.814 174.737 158.941 173.663 160.327 173.663H180.443C181.829 173.663 182.955 174.737 182.955 176.056C182.955 177.374 181.829 178.449 180.443 178.449ZM160.327 174.382C159.356 174.382 158.57 175.13 158.57 176.056C158.57 176.982 159.356 177.73 160.327 177.73H180.443C181.414 177.73 182.199 176.982 182.199 176.056C182.199 175.13 181.414 174.382 180.443 174.382H160.327Z" fill="#F4BE3B"/>
<path d="M250.67 92.9167H90.0264V89.0423C90.0264 86.7606 91.8719 84.916 94.1547 84.916H246.334C248.72 84.916 250.662 86.8495 250.662 89.2423V92.9167H250.67Z" fill="#CC663A"/>
<path d="M96.4599 89.2865C96.4599 89.9977 95.8596 90.5681 95.1184 90.5681C94.3772 90.5681 93.7769 89.9977 93.7769 89.2865C93.7769 88.5754 94.3772 88.005 95.1184 88.005C95.8596 87.9975 96.4599 88.5754 96.4599 89.2865Z" fill="white"/>
<path d="M100.988 89.2865C100.988 89.9977 100.388 90.5681 99.6467 90.5681C98.9055 90.5681 98.3052 89.9977 98.3052 89.2865C98.3052 88.5754 98.9055 88.005 99.6467 88.005C100.38 87.9975 100.988 88.5754 100.988 89.2865Z" fill="white"/>
<path d="M105.51 89.2865C105.51 89.9977 104.909 90.5681 104.168 90.5681C103.427 90.5681 102.827 89.9977 102.827 89.2865C102.827 88.5753 103.427 88.0049 104.168 88.0049C104.909 88.0049 105.51 88.5753 105.51 89.2865Z" fill="white"/>
<path d="M95.778 89.2865C95.778 89.6347 95.4815 89.9236 95.1109 89.9236C94.7403 89.9236 94.4438 89.6421 94.4438 89.2865C94.4438 88.9383 94.7403 88.6494 95.1109 88.6494C95.4815 88.6494 95.778 88.9309 95.778 89.2865Z" fill="white"/>
<path d="M246.756 168.47H94.2215C91.5681 168.47 89.4038 166.41 89.4038 163.877V88.7746C89.4038 86.2411 91.5606 84.1816 94.2215 84.1816H246.756C249.41 84.1816 251.567 86.2411 251.567 88.7746V163.884C251.567 166.41 249.41 168.47 246.756 168.47ZM94.2215 85.641C92.4056 85.641 90.9306 87.0485 90.9306 88.7746V163.884C90.9306 165.61 92.4056 167.018 94.2215 167.018H246.756C248.572 167.018 250.047 165.61 250.047 163.884V88.7746C250.047 87.0485 248.572 85.641 246.756 85.641H94.2215Z" fill="#B64F23"/>
<path d="M154.324 142.09V139.246C154.324 139.001 154.376 138.823 154.487 138.697C154.598 138.579 154.739 138.52 154.917 138.52C155.102 138.52 155.25 138.579 155.361 138.697C155.473 138.816 155.524 139.001 155.524 139.246V142.157C155.524 142.49 155.561 142.764 155.636 142.987C155.71 143.209 155.843 143.379 156.028 143.505C156.214 143.631 156.481 143.69 156.822 143.69C157.288 143.69 157.622 143.564 157.815 143.32C158.007 143.068 158.104 142.698 158.104 142.187V139.253C158.104 139.008 158.156 138.823 158.267 138.705C158.378 138.586 158.519 138.527 158.697 138.527C158.875 138.527 159.023 138.586 159.134 138.705C159.245 138.823 159.304 139.008 159.304 139.253V142.098C159.304 142.557 159.26 142.95 159.171 143.253C159.082 143.564 158.912 143.831 158.66 144.068C158.445 144.268 158.193 144.409 157.911 144.505C157.629 144.594 157.296 144.646 156.91 144.646C156.458 144.646 156.066 144.594 155.739 144.498C155.413 144.402 155.146 144.246 154.939 144.039C154.731 143.831 154.583 143.572 154.479 143.246C154.376 142.92 154.324 142.535 154.324 142.09Z" fill="#EF7B41"/>
<path d="M156.903 144.756C156.436 144.756 156.036 144.705 155.695 144.601C155.347 144.497 155.065 144.334 154.843 144.112C154.62 143.897 154.457 143.608 154.353 143.275C154.257 142.941 154.205 142.541 154.205 142.09V139.245C154.205 138.971 154.272 138.763 154.398 138.623C154.531 138.474 154.702 138.4 154.917 138.4C155.139 138.4 155.317 138.474 155.45 138.623C155.576 138.763 155.643 138.978 155.643 139.245V142.156C155.643 142.475 155.68 142.741 155.747 142.949C155.813 143.149 155.925 143.297 156.095 143.401C156.266 143.512 156.51 143.564 156.821 143.564C157.251 143.564 157.548 143.453 157.718 143.238C157.896 143.008 157.985 142.653 157.985 142.178V139.245C157.985 138.971 158.052 138.763 158.178 138.623C158.311 138.474 158.482 138.4 158.697 138.4C158.912 138.4 159.089 138.474 159.223 138.615C159.356 138.756 159.423 138.971 159.423 139.245V142.09C159.423 142.564 159.379 142.964 159.282 143.282C159.186 143.608 159.001 143.905 158.741 144.149C158.511 144.356 158.245 144.512 157.948 144.608C157.644 144.705 157.296 144.756 156.903 144.756ZM154.917 138.637C154.776 138.637 154.665 138.682 154.576 138.778C154.487 138.875 154.442 139.03 154.442 139.245V142.09C154.442 142.519 154.487 142.897 154.583 143.208C154.672 143.512 154.82 143.756 155.006 143.949C155.198 144.142 155.45 144.282 155.762 144.379C156.08 144.475 156.458 144.519 156.903 144.519C157.274 144.519 157.592 144.475 157.867 144.386C158.133 144.297 158.371 144.164 158.571 143.979C158.8 143.764 158.963 143.504 159.045 143.216C159.134 142.919 159.178 142.541 159.178 142.09V139.245C159.178 139.03 159.134 138.875 159.045 138.778C158.956 138.682 158.845 138.637 158.697 138.637C158.548 138.637 158.437 138.682 158.356 138.778C158.267 138.875 158.222 139.03 158.222 139.245V142.178C158.222 142.712 158.119 143.112 157.904 143.386C157.689 143.667 157.318 143.808 156.814 143.808C156.451 143.808 156.162 143.742 155.962 143.608C155.754 143.475 155.606 143.275 155.517 143.03C155.443 142.801 155.398 142.504 155.398 142.164V139.252C155.398 139.045 155.354 138.882 155.265 138.786C155.183 138.689 155.072 138.637 154.917 138.637Z" fill="#EF7B41"/>
<path d="M162.892 142.23H161.795V143.905C161.795 144.142 161.736 144.327 161.624 144.445C161.513 144.571 161.372 144.631 161.195 144.631C161.017 144.631 160.868 144.571 160.757 144.445C160.646 144.319 160.594 144.142 160.594 143.905V139.349C160.594 139.082 160.654 138.897 160.78 138.786C160.898 138.675 161.091 138.615 161.358 138.615H162.892C163.344 138.615 163.7 138.652 163.944 138.719C164.189 138.786 164.396 138.897 164.574 139.052C164.752 139.208 164.886 139.4 164.975 139.623C165.064 139.845 165.115 140.104 165.115 140.386C165.115 140.986 164.93 141.445 164.56 141.756C164.182 142.075 163.626 142.23 162.892 142.23ZM162.603 139.519H161.795V141.327H162.603C162.884 141.327 163.122 141.297 163.314 141.238C163.507 141.178 163.648 141.082 163.752 140.949C163.848 140.815 163.9 140.638 163.9 140.423C163.9 140.164 163.826 139.949 163.67 139.786C163.492 139.608 163.136 139.519 162.603 139.519Z" fill="#EF7B41"/>
<path d="M161.195 144.757C160.98 144.757 160.802 144.683 160.668 144.534C160.535 144.394 160.476 144.179 160.476 143.92V139.364C160.476 139.067 160.55 138.845 160.698 138.712C160.839 138.578 161.061 138.512 161.358 138.512H162.892C163.359 138.512 163.715 138.549 163.974 138.623C164.233 138.697 164.456 138.815 164.648 138.986C164.841 139.156 164.982 139.364 165.078 139.601C165.175 139.838 165.227 140.112 165.227 140.408C165.227 141.045 165.026 141.534 164.626 141.868C164.233 142.193 163.648 142.364 162.892 142.364H161.913V143.92C161.913 144.186 161.847 144.401 161.713 144.542C161.58 144.683 161.402 144.757 161.195 144.757ZM161.358 138.741C161.128 138.741 160.957 138.786 160.861 138.882C160.765 138.971 160.72 139.134 160.72 139.364V143.92C160.72 144.127 160.765 144.283 160.854 144.379C160.943 144.475 161.054 144.52 161.202 144.52C161.343 144.52 161.454 144.475 161.543 144.371C161.632 144.268 161.684 144.112 161.684 143.905V142.112H162.899C163.603 142.112 164.137 141.964 164.485 141.675C164.834 141.386 164.997 140.964 164.997 140.393C164.997 140.127 164.952 139.89 164.871 139.675C164.789 139.467 164.663 139.29 164.5 139.149C164.337 139.008 164.144 138.904 163.922 138.838C163.685 138.771 163.344 138.734 162.907 138.734H161.358V138.741ZM162.603 141.445H161.676V139.401H162.603C163.173 139.401 163.551 139.497 163.752 139.697C163.929 139.882 164.018 140.127 164.018 140.416C164.018 140.66 163.959 140.86 163.848 141.016C163.737 141.171 163.566 141.282 163.351 141.349C163.144 141.416 162.892 141.445 162.603 141.445ZM161.913 141.208H162.603C162.87 141.208 163.099 141.179 163.277 141.127C163.44 141.075 163.566 140.993 163.648 140.882C163.729 140.771 163.774 140.616 163.774 140.423C163.774 140.193 163.707 140.008 163.574 139.867C163.477 139.764 163.225 139.645 162.603 139.645H161.913V141.208Z" fill="#EF7B41"/>
<path d="M166.849 138.623H168.413C168.821 138.623 169.169 138.66 169.458 138.734C169.748 138.808 170.014 138.949 170.252 139.156C170.867 139.682 171.178 140.482 171.178 141.557C171.178 141.912 171.148 142.238 171.082 142.527C171.022 142.823 170.926 143.083 170.793 143.32C170.667 143.557 170.496 143.764 170.296 143.949C170.14 144.09 169.962 144.209 169.777 144.29C169.592 144.379 169.384 144.438 169.169 144.468C168.954 144.505 168.71 144.52 168.436 144.52H166.872C166.657 144.52 166.486 144.49 166.383 144.423C166.271 144.357 166.197 144.268 166.168 144.142C166.131 144.023 166.116 143.868 166.116 143.675V139.342C166.116 139.082 166.175 138.897 166.286 138.779C166.405 138.682 166.59 138.623 166.849 138.623ZM167.316 139.571V143.586H168.228C168.428 143.586 168.584 143.579 168.695 143.572C168.806 143.564 168.925 143.535 169.043 143.49C169.162 143.446 169.266 143.386 169.355 143.305C169.755 142.964 169.955 142.386 169.955 141.557C169.955 140.971 169.866 140.534 169.688 140.245C169.51 139.956 169.295 139.771 169.036 139.69C168.777 139.608 168.465 139.571 168.102 139.571H167.316Z" fill="#EF7B41"/>
<path d="M168.436 144.653H166.872C166.627 144.653 166.449 144.616 166.316 144.534C166.182 144.453 166.086 144.334 166.049 144.186C166.012 144.053 165.997 143.89 165.997 143.69V139.356C165.997 139.067 166.064 138.852 166.205 138.711C166.345 138.571 166.56 138.504 166.849 138.504H168.413C168.828 138.504 169.192 138.541 169.488 138.622C169.792 138.704 170.081 138.852 170.326 139.074C170.963 139.623 171.289 140.46 171.289 141.571C171.289 141.934 171.259 142.267 171.193 142.571C171.126 142.875 171.03 143.149 170.896 143.393C170.763 143.638 170.585 143.86 170.377 144.052C170.207 144.201 170.022 144.327 169.829 144.415C169.629 144.504 169.414 144.571 169.192 144.608C168.969 144.638 168.71 144.653 168.436 144.653ZM166.849 138.741C166.627 138.741 166.464 138.785 166.375 138.882C166.286 138.971 166.234 139.134 166.234 139.356V143.69C166.234 143.867 166.249 144.015 166.279 144.127C166.301 144.215 166.36 144.282 166.442 144.334C166.531 144.386 166.679 144.415 166.872 144.415H168.436C168.702 144.415 168.94 144.401 169.147 144.364C169.355 144.334 169.547 144.275 169.725 144.193C169.903 144.112 170.066 144.001 170.214 143.867C170.407 143.69 170.563 143.489 170.689 143.267C170.815 143.045 170.904 142.786 170.963 142.504C171.022 142.223 171.052 141.904 171.052 141.556C171.052 140.519 170.755 139.741 170.17 139.245C169.948 139.052 169.696 138.919 169.429 138.845C169.147 138.771 168.806 138.734 168.413 138.734H166.849V138.741ZM168.221 143.704H167.198V139.452H168.109C168.487 139.452 168.814 139.497 169.08 139.578C169.369 139.667 169.607 139.867 169.799 140.186C169.992 140.497 170.081 140.949 170.081 141.556C170.081 142.415 169.866 143.038 169.436 143.393C169.34 143.482 169.221 143.549 169.088 143.593C168.954 143.638 168.828 143.667 168.71 143.682C168.584 143.697 168.421 143.704 168.221 143.704ZM167.435 143.467H168.228C168.421 143.467 168.576 143.46 168.688 143.452C168.791 143.445 168.895 143.415 169.014 143.378C169.117 143.341 169.214 143.289 169.288 143.223C169.658 142.904 169.851 142.349 169.851 141.563C169.851 141.008 169.77 140.586 169.607 140.311C169.444 140.045 169.251 139.882 169.021 139.808C168.776 139.734 168.473 139.697 168.117 139.697H167.442V143.467H167.435Z" fill="#EF7B41"/>
<path d="M175.699 143.869L175.417 143.128H173.016L172.734 143.883C172.623 144.18 172.527 144.38 172.453 144.483C172.371 144.587 172.245 144.639 172.067 144.639C171.919 144.639 171.786 144.587 171.667 144.476C171.548 144.365 171.497 144.239 171.497 144.098C171.497 144.017 171.511 143.935 171.534 143.846C171.563 143.757 171.608 143.639 171.667 143.491L173.179 139.653C173.224 139.542 173.275 139.409 173.335 139.253C173.394 139.098 173.461 138.972 173.527 138.868C173.594 138.764 173.683 138.683 173.794 138.624C173.905 138.557 174.046 138.527 174.209 138.527C174.38 138.527 174.513 138.557 174.624 138.624C174.736 138.69 174.824 138.772 174.891 138.868C174.958 138.964 175.017 139.076 175.062 139.187C175.106 139.298 175.165 139.453 175.24 139.646L176.789 143.461C176.907 143.75 176.974 143.965 176.974 144.091C176.974 144.231 176.915 144.35 176.803 144.469C176.692 144.58 176.551 144.639 176.388 144.639C176.292 144.639 176.21 144.624 176.144 144.587C176.077 144.55 176.018 144.506 175.973 144.446C175.929 144.387 175.877 144.298 175.825 144.18C175.781 144.061 175.736 143.957 175.699 143.869ZM173.32 142.224H175.084L174.194 139.787L173.32 142.224Z" fill="#EF7B41"/>
<path d="M176.388 144.757C176.277 144.757 176.173 144.735 176.092 144.698C176.01 144.653 175.936 144.601 175.884 144.527C175.832 144.461 175.781 144.364 175.721 144.238C175.669 144.12 175.625 144.009 175.588 143.92L175.336 143.253H173.09L172.838 143.935C172.719 144.246 172.623 144.453 172.542 144.564C172.438 144.698 172.282 144.764 172.067 144.764C171.889 144.764 171.726 144.698 171.585 144.564C171.445 144.431 171.378 144.275 171.378 144.105C171.378 144.016 171.393 143.92 171.422 143.816C171.452 143.727 171.497 143.601 171.556 143.446L173.223 139.208C173.29 139.045 173.357 138.912 173.431 138.801C173.513 138.682 173.616 138.586 173.742 138.519C173.868 138.445 174.031 138.408 174.217 138.408C174.402 138.408 174.565 138.445 174.691 138.519C174.817 138.593 174.921 138.682 175.002 138.801C175.076 138.905 175.136 139.023 175.188 139.142C175.232 139.26 175.299 139.416 175.366 139.601L176.907 143.416C177.033 143.72 177.1 143.942 177.1 144.09C177.1 144.261 177.033 144.416 176.892 144.549C176.752 144.683 176.581 144.757 176.388 144.757ZM175.803 143.823C175.84 143.912 175.884 144.016 175.936 144.135C175.988 144.246 176.025 144.327 176.07 144.372C176.107 144.416 176.144 144.453 176.203 144.475C176.255 144.498 176.314 144.512 176.388 144.512C176.522 144.512 176.626 144.468 176.714 144.379C176.803 144.29 176.848 144.194 176.848 144.083C176.848 144.001 176.818 143.838 176.677 143.498L175.128 139.682C175.054 139.49 174.995 139.342 174.95 139.223C174.906 139.119 174.854 139.016 174.787 138.927C174.728 138.845 174.654 138.771 174.558 138.719C174.461 138.667 174.343 138.638 174.202 138.638C174.061 138.638 173.942 138.667 173.846 138.719C173.75 138.771 173.676 138.845 173.616 138.927C173.55 139.023 173.49 139.142 173.431 139.29L173.275 139.69L171.763 143.527C171.704 143.675 171.66 143.794 171.63 143.875C171.608 143.949 171.593 144.024 171.593 144.09C171.593 144.194 171.637 144.29 171.726 144.379C171.823 144.468 171.926 144.512 172.045 144.512C172.186 144.512 172.282 144.475 172.334 144.401C172.386 144.335 172.467 144.186 172.601 143.831L172.912 142.994H175.484L175.803 143.823ZM175.262 142.342H173.157L174.202 139.438L175.262 142.342ZM173.49 142.105H174.921L174.202 140.134L173.49 142.105Z" fill="#EF7B41"/>
<path d="M180.969 139.608H179.665V143.905C179.665 144.149 179.613 144.334 179.502 144.453C179.39 144.571 179.25 144.631 179.072 144.631C178.894 144.631 178.753 144.571 178.634 144.445C178.523 144.327 178.464 144.142 178.464 143.897V139.601H177.16C176.952 139.601 176.804 139.556 176.7 139.467C176.604 139.378 176.552 139.26 176.552 139.112C176.552 138.956 176.604 138.837 176.707 138.749C176.811 138.66 176.959 138.615 177.16 138.615H180.969C181.177 138.615 181.332 138.66 181.429 138.756C181.532 138.845 181.577 138.963 181.577 139.112C181.577 139.26 181.525 139.378 181.421 139.467C181.325 139.563 181.177 139.608 180.969 139.608Z" fill="#EF7B41"/>
<path d="M179.072 144.756C178.857 144.756 178.686 144.682 178.553 144.534C178.419 144.393 178.353 144.178 178.353 143.904V139.726H177.167C176.93 139.726 176.752 139.667 176.633 139.563C176.507 139.452 176.448 139.304 176.448 139.119C176.448 138.934 176.514 138.778 176.648 138.667C176.774 138.563 176.952 138.504 177.174 138.504H180.984C181.221 138.504 181.399 138.563 181.525 138.674C181.651 138.785 181.718 138.941 181.718 139.119C181.718 139.304 181.651 139.452 181.525 139.563C181.399 139.674 181.221 139.726 180.984 139.726H179.798V143.904C179.798 144.178 179.731 144.393 179.598 144.534C179.45 144.682 179.279 144.756 179.072 144.756ZM177.159 138.741C176.996 138.741 176.87 138.778 176.789 138.845C176.715 138.911 176.678 139 176.678 139.119C176.678 139.23 176.715 139.319 176.789 139.385C176.863 139.452 176.989 139.489 177.167 139.489H178.59V143.904C178.59 144.119 178.634 144.275 178.723 144.371C178.812 144.467 178.923 144.512 179.072 144.512C179.212 144.512 179.324 144.467 179.412 144.371C179.501 144.275 179.546 144.119 179.546 143.904V139.489H180.969C181.139 139.489 181.273 139.452 181.347 139.385C181.421 139.319 181.458 139.23 181.458 139.119C181.458 139.008 181.421 138.919 181.347 138.845C181.265 138.771 181.139 138.741 180.962 138.741H177.159Z" fill="#EF7B41"/>
<path d="M186.195 139.549H183.497V141.001H185.98C186.165 141.001 186.298 141.046 186.387 141.127C186.476 141.209 186.521 141.32 186.521 141.453C186.521 141.587 186.476 141.698 186.387 141.779C186.298 141.861 186.165 141.905 185.972 141.905H183.489V143.587H186.283C186.469 143.587 186.617 143.631 186.706 143.72C186.802 143.809 186.847 143.92 186.847 144.068C186.847 144.209 186.802 144.32 186.706 144.409C186.61 144.498 186.469 144.542 186.283 144.542H183.03C182.77 144.542 182.578 144.483 182.466 144.372C182.355 144.254 182.296 144.068 182.296 143.809V139.364C182.296 139.194 182.318 139.053 182.37 138.942C182.422 138.831 182.503 138.757 182.607 138.705C182.718 138.653 182.852 138.631 183.022 138.631H186.187C186.38 138.631 186.521 138.675 186.61 138.757C186.706 138.838 186.75 138.949 186.75 139.09C186.75 139.231 186.706 139.342 186.61 139.424C186.528 139.505 186.38 139.549 186.195 139.549Z" fill="#EF7B41"/>
<path d="M186.283 144.653H183.03C182.733 144.653 182.518 144.586 182.385 144.446C182.251 144.305 182.177 144.09 182.177 143.801V139.356C182.177 139.171 182.207 139.008 182.266 138.882C182.333 138.749 182.429 138.645 182.563 138.586C182.689 138.527 182.844 138.497 183.03 138.497H186.194C186.417 138.497 186.587 138.549 186.698 138.653C186.817 138.764 186.876 138.905 186.876 139.075C186.876 139.245 186.817 139.393 186.698 139.497C186.58 139.601 186.417 139.653 186.194 139.653H183.615V140.868H185.979C186.194 140.868 186.357 140.919 186.469 141.023C186.587 141.127 186.639 141.268 186.639 141.438C186.639 141.608 186.58 141.742 186.469 141.853C186.357 141.957 186.194 142.016 185.972 142.016H183.608V143.46H186.283C186.498 143.46 186.669 143.512 186.787 143.623C186.906 143.735 186.973 143.883 186.973 144.06C186.973 144.231 186.913 144.379 186.787 144.49C186.676 144.601 186.506 144.653 186.283 144.653ZM183.03 138.742C182.881 138.742 182.755 138.764 182.659 138.808C182.577 138.845 182.518 138.905 182.474 138.986C182.429 139.075 182.407 139.201 182.407 139.356V143.801C182.407 144.023 182.451 144.186 182.548 144.275C182.637 144.364 182.8 144.416 183.03 144.416H186.283C186.439 144.416 186.558 144.379 186.632 144.312C186.698 144.246 186.735 144.164 186.735 144.06C186.735 143.949 186.698 143.86 186.632 143.801C186.558 143.735 186.446 143.705 186.283 143.705H183.371V141.786H185.972C186.128 141.786 186.239 141.757 186.298 141.69C186.365 141.631 186.395 141.549 186.395 141.445C186.395 141.342 186.365 141.268 186.298 141.208C186.231 141.149 186.12 141.119 185.972 141.119H183.371V139.43H186.187C186.35 139.43 186.461 139.401 186.535 139.334C186.602 139.275 186.639 139.193 186.639 139.082C186.639 138.979 186.609 138.897 186.535 138.838C186.469 138.771 186.35 138.742 186.187 138.742H183.03Z" fill="#EF7B41"/>
<path d="M209.594 151.668C209.594 152.38 209.304 153.031 208.838 153.498C208.371 153.965 207.726 154.254 207.007 154.254H187.047V149.083H207.007C208.437 149.083 209.594 150.246 209.594 151.668Z" fill="#F4BE3B"/>
<path d="M187.047 154.254H133.823C132.392 154.254 131.236 153.098 131.236 151.668C131.236 150.239 132.392 149.083 133.823 149.083H187.047V154.254Z" fill="#EF7B41"/>
<path d="M183.682 119.37C183.682 121.666 183.089 123.926 181.963 125.911C181.377 126.941 180.651 127.889 179.813 128.733C180.569 127.963 180.562 126.726 179.798 125.955C179.057 125.215 177.864 125.185 177.086 125.874C178.768 124.155 179.732 121.844 179.732 119.37C179.732 114.236 175.551 110.058 170.415 110.058C168.784 110.058 167.176 110.488 165.768 111.295C165.041 111.71 164.382 112.228 163.789 112.821C163.796 112.806 163.811 112.799 163.819 112.784C164.589 112.014 164.589 110.762 163.819 109.991C163.063 109.236 161.847 109.221 161.076 109.947C161.884 109.147 162.796 108.443 163.789 107.872C165.79 106.717 168.08 106.109 170.408 106.109C177.73 106.102 183.682 112.051 183.682 119.37Z" fill="#EF7B41"/>
<path d="M170.415 132.622C167.02 132.622 163.618 131.333 161.031 128.748C155.858 123.577 155.858 115.162 161.031 109.991C161.802 109.22 163.055 109.22 163.826 109.991C164.597 110.761 164.597 112.013 163.826 112.784C160.194 116.414 160.194 122.318 163.826 125.948C167.457 129.578 173.365 129.578 176.996 125.948C177.767 125.177 179.02 125.177 179.791 125.948C180.562 126.718 180.562 127.97 179.791 128.741C177.211 131.326 173.817 132.622 170.415 132.622Z" fill="#F4BE3B"/>
<path d="M83.8448 206.586C83.7262 206.586 83.6002 206.571 83.4816 206.534C82.8294 206.334 82.4662 205.645 82.6663 204.993L96.2076 160.782C96.4078 160.13 97.0971 159.767 97.7493 159.967C98.4015 160.167 98.7647 160.856 98.5646 161.508L85.0232 205.719C84.8602 206.245 84.371 206.586 83.8448 206.586Z" fill="#F4BE3B"/>
<path d="M93.2798 206.586C93.1612 206.586 93.0352 206.571 92.9167 206.534C92.2644 206.334 91.9012 205.645 92.1014 204.993L105.643 160.782C105.843 160.13 106.532 159.767 107.184 159.967C107.837 160.167 108.2 160.856 108 161.508L94.4583 205.719C94.2952 206.245 93.8061 206.586 93.2798 206.586Z" fill="#F4BE3B"/>
<path d="M104.998 168.316H95.563C94.8811 168.316 94.3252 167.76 94.3252 167.079C94.3252 166.397 94.8811 165.842 95.563 165.842H104.998C105.68 165.842 106.236 166.397 106.236 167.079C106.236 167.768 105.68 168.316 104.998 168.316Z" fill="#F4BE3B"/>
<path d="M102.716 175.22H93.5694C92.9097 175.22 92.3687 174.665 92.3687 173.983C92.3687 173.302 92.9023 172.746 93.5694 172.746H102.716C103.375 172.746 103.916 173.302 103.916 173.983C103.916 174.665 103.375 175.22 102.716 175.22Z" fill="#F4BE3B"/>
<path d="M100.766 182.117H91.4714C90.7969 182.117 90.2559 181.561 90.2559 180.88C90.2559 180.198 90.8043 179.643 91.4714 179.643H100.758C101.433 179.643 101.974 180.198 101.974 180.88C101.981 181.561 101.44 182.117 100.766 182.117Z" fill="#F4BE3B"/>
<path d="M98.6536 189.014H89.248C88.5661 189.014 88.0103 188.459 88.0103 187.777C88.0103 187.096 88.5661 186.54 89.248 186.54H98.6536C99.3355 186.54 99.8914 187.096 99.8914 187.777C99.8914 188.459 99.3355 189.014 98.6536 189.014Z" fill="#F4BE3B"/>
<path d="M96.5115 195.918H87.1059C86.4241 195.918 85.8682 195.362 85.8682 194.68C85.8682 193.999 86.4241 193.443 87.1059 193.443H96.5115C97.1934 193.443 97.7493 193.999 97.7493 194.68C97.7493 195.362 97.1934 195.918 96.5115 195.918Z" fill="#F4BE3B"/>
<path d="M94.2583 202.807H85.2678C84.6156 202.807 84.0894 202.252 84.0894 201.57C84.0894 200.889 84.6156 200.333 85.2678 200.333H94.2583C94.9106 200.333 95.4368 200.889 95.4368 201.57C95.4368 202.252 94.9106 202.807 94.2583 202.807Z" fill="#F4BE3B"/>
<path d="M299.083 207H294.977C294.562 207 294.229 206.667 294.229 206.252C294.229 205.837 294.562 205.504 294.977 205.504H299.083C299.498 205.504 299.832 205.837 299.832 206.252C299.832 206.667 299.498 207 299.083 207Z" fill="#EF7B41"/>
<path d="M290.552 207H277.922C277.507 207 277.174 206.667 277.174 206.252C277.174 205.837 277.507 205.504 277.922 205.504H290.552C290.967 205.504 291.301 205.837 291.301 206.252C291.301 206.667 290.967 207 290.552 207Z" fill="#EF7B41"/>
<path d="M273.676 207H32.9551C32.5401 207 32.2065 206.667 32.2065 206.252C32.2065 205.837 32.5401 205.504 32.9551 205.504H273.676C274.091 205.504 274.424 205.837 274.424 206.252C274.424 206.667 274.091 207 273.676 207Z" fill="#EF7B41"/>
<path d="M28.5007 207H21.7486C21.3335 207 21 206.667 21 206.252C21 205.837 21.3335 205.504 21.7486 205.504H28.5007C28.9158 205.504 29.2493 205.837 29.2493 206.252C29.2493 206.667 28.9158 207 28.5007 207Z" fill="#EF7B41"/>
</g>
<defs>
<clipPath id="clip0">
<rect width="300" height="183" fill="white" transform="translate(21 24)"/>
</clipPath>
</defs>
</svg>
