<svg width="366" height="259" viewBox="0 0 366 259" fill="none" xmlns="http://www.w3.org/2000/svg">
<ellipse cx="183" cy="244" rx="183" ry="15" fill="#111212"/>
<path d="M340.849 216.231C339.095 223.555 335.638 230.371 330.754 236.131C329.9 237.133 329.017 238.085 328.108 239H29.863C26.5699 239 14.4009 213.841 12.5761 209.885C7.29193 198.466 2.91687 186.548 1.00678 174.08C-1.40697 158.342 0.328107 141.592 8.29926 127.778C16.2704 113.964 31.0581 103.593 47.0794 103.146C71.0441 102.483 92.9492 122.85 116.493 118.401C131.074 115.646 142.212 103.875 150.184 91.447C158.155 79.0188 164.158 65.2051 174.069 54.2388C191.672 34.7618 221.294 26.9927 246.292 35.2979C271.29 43.6031 290.233 67.5017 292.48 93.5805C293.291 103.006 292.104 112.498 292.531 121.952C293.511 143.66 306.847 148.499 319.624 163.24C329.574 174.719 340.943 186.758 341.939 204.243C342.157 208.27 341.789 212.307 340.849 216.231Z" fill="#121617"/>
<path d="M178.5 213.225H137.634V232.863H178.5V213.225Z" fill="#EF7A3F"/>
<path d="M252.222 214.115H63.911C61.1146 214.115 58.8267 211.827 58.8267 209.03V93.4886C58.8267 90.6922 61.0511 88.4043 63.8474 88.4043C91.4935 88.4043 224.513 88.4043 252.159 88.4043C254.955 88.4043 257.179 90.6922 257.179 93.4886V209.03C257.307 211.827 255.019 214.115 252.222 214.115Z" fill="#F3BD3C"/>
<path d="M257.306 93.4886V202.675H58.8267V93.4886C58.8267 90.6922 61.1146 88.4043 63.8474 88.4043H252.159C255.019 88.4679 257.306 90.6922 257.306 93.4886Z" fill="#EF7A3F"/>
<path d="M252.415 197.381L252.415 93.5332L63.7221 93.5332L63.7221 197.381L252.415 197.381Z" fill="#F4F4F4"/>
<path d="M235.468 183.002V107.754L81.4128 107.754V183.002L235.468 183.002Z" fill="white"/>
<path d="M235.064 183.081V107.833L81.009 107.833V183.081L235.064 183.081Z" stroke="#CFD1D3" stroke-width="1.5" stroke-miterlimit="10" stroke-linecap="round" stroke-dasharray="3 3"/>
<path d="M195.85 235.341H120.284V233.435C120.284 232.481 121.047 231.719 122 231.719H194.198C195.151 231.719 195.914 232.481 195.914 233.435V235.341H195.85Z" fill="#EF7A3F"/>
<path d="M184.918 14.5539C183.329 14.5539 181.804 14.7446 180.279 14.9988C178.308 9.21536 172.779 5.02078 166.36 5.02078C162.865 5.02078 159.687 6.22831 157.145 8.26205C154.221 3.30482 148.883 0 142.718 0C133.376 0 125.876 7.4994 125.876 16.7783C125.876 16.969 125.876 17.0961 125.876 17.2232C114.437 18.8756 105.666 28.7265 105.666 40.6111C105.666 40.6747 105.666 40.7383 105.666 40.8018C105.73 49.1274 112.784 55.6735 121.11 55.6735H138.079H147.548H168.966H169.856H190.956C200.616 55.6735 208.497 47.8563 208.497 38.1961C208.56 25.1039 197.947 14.5539 184.918 14.5539Z" fill="#EF7A3F"/>
<path d="M185.617 151.069C185.617 156.662 181.041 161.238 175.449 161.238H134.901C130.071 161.238 126.003 157.424 125.94 152.594V152.467C125.94 145.54 131.024 139.883 137.697 138.93C137.697 138.803 137.697 138.74 137.697 138.676C137.697 133.274 142.083 128.952 147.421 128.952C150.98 128.952 154.094 130.859 155.81 133.782C157.272 132.638 159.115 131.876 161.149 131.876C164.899 131.876 168.076 134.291 169.284 137.659C170.174 137.468 171.063 137.405 171.953 137.405C179.453 137.341 185.617 143.506 185.617 151.069Z" fill="#CFD1D3"/>
<path d="M163.627 153.039H159.496V161.237H151.997V153.039H147.866L155.746 145.285L163.627 153.039Z" fill="white"/>
<path d="M163.119 151.959L156.382 145.286L155.747 144.65L155.111 145.286L148.375 151.959L146.786 153.484H151.489V161.174H152.378V152.531H148.946L155.683 145.794L162.42 152.531H158.988V161.174H159.878V153.484H164.581L163.119 151.959Z" fill="white"/>
<path d="M242.626 77.6644L223.496 74.3596C221.907 74.1054 220.827 72.5801 221.081 70.9276L224.386 51.7978C224.64 50.209 226.165 49.1286 227.818 49.3828L246.948 52.6876C248.536 52.9418 249.617 54.4671 249.363 56.1195L246.058 75.2493C245.804 76.9017 244.278 77.9822 242.626 77.6644Z" fill="#EF7A3F"/>
<path d="M242.88 59.8706L232.013 59.6164L232.33 57.9004L243.198 58.2182L242.88 59.8706Z" fill="white"/>
<path d="M232.203 58.6631L232.585 58.7266L230.996 68.1962L230.551 68.1327" fill="white"/>
<path d="M242.499 59.5518L242.944 59.6153L241.545 67.7503L241.164 67.6231" fill="white"/>
<path d="M230.996 68.1329C230.805 69.0862 229.915 69.7218 228.962 69.5946C228.008 69.4675 227.373 68.5142 227.5 67.5609C227.691 66.6076 228.58 65.9721 229.534 66.0992C230.487 66.2263 231.123 67.1796 230.996 68.1329Z" fill="white"/>
<path d="M241.482 67.878C241.291 68.8313 240.401 69.4669 239.448 69.3398C238.495 69.1491 237.859 68.2593 237.986 67.306C238.177 66.3527 239.067 65.7172 240.02 65.8443C241.037 66.0349 241.673 66.9247 241.482 67.878Z" fill="white"/>
<path d="M90.0321 77.346L70.9023 74.0412C69.3135 73.787 68.233 72.2617 68.4873 70.6093L71.7285 51.4795C71.9827 49.8906 73.508 48.8102 75.1605 49.0644L94.2903 52.3692C95.8791 52.6234 96.9596 54.1487 96.7053 55.8012L93.4005 74.931C93.1463 76.5198 91.621 77.6003 90.0321 77.346Z" fill="#EF7A3F"/>
<path d="M90.2853 59.5522L79.4175 59.298L79.7353 57.582L90.603 57.8998L90.2853 59.5522Z" fill="white"/>
<path d="M79.6085 58.3447L79.9898 58.4083L78.3374 67.8779L77.9561 67.8143" fill="white"/>
<path d="M89.9041 59.2334L90.2854 59.297L88.8872 67.3683L88.5059 67.3048" fill="white"/>
<path d="M78.3373 67.8145C78.1467 68.7679 77.2569 69.4034 76.3036 69.2763C75.3503 69.0856 74.7147 68.1959 74.8418 67.2426C75.0325 66.2892 75.9223 65.6537 76.8756 65.7808C77.8924 65.9079 78.528 66.8612 78.3373 67.8145Z" fill="white"/>
<path d="M88.8876 67.5597C88.697 68.513 87.8072 69.1485 86.8539 69.0214C85.9006 68.8307 85.265 67.941 85.3921 66.9877C85.5828 66.0344 86.4726 65.3988 87.4259 65.5259C88.3792 65.7166 89.0783 66.6063 88.8876 67.5597Z" fill="white"/>
<path d="M29.9096 144.968L10.7798 141.663C9.19091 141.409 8.11048 139.884 8.3647 138.231L11.6695 119.102C11.9237 117.513 13.449 116.432 15.1014 116.686L34.2313 119.991C35.8201 120.246 36.9005 121.771 36.6463 123.423L33.3415 142.553C33.0237 144.142 31.4984 145.222 29.9096 144.968Z" fill="#EF7A3F"/>
<path d="M30.1637 127.172L19.2959 126.855L19.6137 125.139L30.4814 125.456L30.1637 127.172Z" fill="white"/>
<path d="M19.4869 125.901L19.8682 125.965L18.2158 135.498L17.8345 135.434" fill="white"/>
<path d="M29.7825 126.855L30.1638 126.919L28.8292 134.99L28.3843 134.927" fill="white"/>
<path d="M18.2157 135.371C18.0251 136.324 17.1353 136.96 16.182 136.833C15.2287 136.642 14.5931 135.753 14.7203 134.799C14.9109 133.846 15.8007 133.21 16.754 133.337C17.7709 133.528 18.4064 134.418 18.2157 135.371Z" fill="white"/>
<path d="M28.766 135.18C28.5754 136.133 27.6856 136.769 26.7323 136.642C25.779 136.451 25.1434 135.561 25.2706 134.608C25.4612 133.654 26.351 133.019 27.3043 133.146C28.2576 133.273 28.9567 134.226 28.766 135.18Z" fill="white"/>
<path d="M34.3586 216.529C34.3586 216.529 34.295 216.529 34.2315 216.529C31.0538 216.465 25.3975 199.941 17.2625 200.894C17.199 200.894 17.0719 200.894 17.0083 200.894C17.0083 200.894 24.7619 197.208 28.6387 199.242C35.2484 202.674 35.7568 216.402 34.3586 216.529Z" fill="#F3BD3C"/>
<path d="M34.867 228.414C34.7399 228.414 34.6763 228.286 34.6763 228.223C34.6763 227.969 36.2016 202.229 23.2366 200.45C23.1095 200.45 23.0459 200.323 23.0459 200.259C23.0459 200.132 23.173 200.068 23.2366 200.068C36.5829 201.911 35.0576 228.032 34.9941 228.286C35.0576 228.35 34.9941 228.414 34.867 228.414Z" fill="#EF7A3F"/>
<path d="M55.9663 206.615C47.7042 205.344 41.9843 221.995 38.7431 222.249C38.6795 222.249 38.616 222.249 38.616 222.249C37.2178 222.122 37.7898 208.394 44.3358 204.962C48.1491 202.992 55.5849 206.424 55.9663 206.615Z" fill="#F3BD3C"/>
<path d="M38.1076 234.07C37.9805 234.07 37.917 234.006 37.917 233.879C37.917 233.625 36.3917 207.504 49.6745 205.661C49.8016 205.661 49.8652 205.725 49.8652 205.852C49.8652 205.979 49.8016 206.042 49.6745 206.042C36.7094 207.822 38.2347 233.561 38.2347 233.816C38.2983 233.943 38.2347 234.07 38.1076 234.07Z" fill="#EF7A3F"/>
<path d="M35.3757 205.408C35.3757 205.471 35.3757 205.535 35.3757 205.535C35.3757 205.535 31.0541 202.103 29.0839 192.888C26.4781 180.939 21.8387 178.524 21.8387 178.524L21.5845 178.397C21.648 178.397 21.7751 178.397 21.8387 178.334C28.067 177.19 32.8336 180.24 34.6131 187.485C36.5833 195.493 35.5664 204.391 35.3757 205.408Z" fill="#F3BD3C"/>
<path d="M36.2662 232.863C36.1391 232.863 36.0756 232.8 36.0756 232.673V232.545C36.2027 227.779 37.2195 185.515 25.9069 180.558C25.7798 180.495 25.7798 180.367 25.7798 180.304C25.8433 180.177 25.9704 180.177 26.034 180.177C37.3467 185.134 36.6476 224.665 36.4569 232.545V232.673C36.4569 232.8 36.3298 232.863 36.2662 232.863Z" fill="#EF7A3F"/>
<path d="M51.6447 183.798L51.3905 183.925C51.3905 183.925 46.6874 186.341 44.1453 198.289C42.1751 207.25 38.0441 210.745 37.8534 210.936C37.8534 210.936 36.5188 201.403 38.6796 192.823C40.3956 185.578 45.2257 182.527 51.6447 183.798C51.5811 183.798 51.5811 183.798 51.6447 183.798Z" fill="#F3BD3C"/>
<path d="M36.8368 233.307C36.7097 233.307 36.6462 233.243 36.6462 233.116C36.5826 220.278 37.4088 189.899 47.1326 185.641C47.2597 185.578 47.3233 185.641 47.3868 185.768C47.4504 185.895 47.3868 185.959 47.2597 186.022C37.7902 190.217 36.9639 220.342 37.0275 233.18C37.0275 233.243 36.9639 233.307 36.8368 233.307Z" fill="#EF7A3F"/>
<path d="M40.0155 235.469H32.7703C32.3254 235.469 31.8806 235.087 31.8806 234.643L30.9272 225.109H41.8586L40.9053 234.643C40.9053 235.087 40.4604 235.469 40.0155 235.469Z" fill="#F3BD3C"/>
<path d="M42.1761 226.952H30.6093C30.4186 226.952 30.2915 226.825 30.2915 226.635V225.491C30.2915 225.3 30.4186 225.173 30.6093 225.173H42.1761C42.3668 225.173 42.4939 225.3 42.4939 225.491V226.635C42.4939 226.825 42.3668 226.952 42.1761 226.952Z" fill="#EF7A3F"/>
<path d="M287.05 238.965H18.8514C18.0252 238.965 17.3896 238.33 17.3896 237.504V236.805C17.3896 235.978 18.0252 235.343 18.8514 235.343H287.05C287.876 235.343 288.512 235.978 288.512 236.805V237.504C288.448 238.33 287.813 238.965 287.05 238.965Z" fill="#F3BD3C"/>
<path d="M47.0694 154.755L51.5818 159.203H49.2938V169.181H44.845V159.203H42.5571L47.0694 154.755ZM47.0694 154.119C46.8787 154.119 46.7516 154.183 46.6245 154.31L42.1122 158.759C41.9215 158.949 41.858 159.203 41.9851 159.458C42.1122 159.712 42.3028 159.839 42.5571 159.839H44.2095V169.181C44.2095 169.563 44.4637 169.817 44.845 169.817H49.2938C49.6751 169.817 49.9294 169.563 49.9294 169.181V159.839H51.5818C51.836 159.839 52.0902 159.712 52.1537 159.458C52.2809 159.203 52.2173 158.949 52.0266 158.759L47.5143 154.31C47.3872 154.183 47.2601 154.119 47.0694 154.119Z" fill="#EF7A3F"/>
<path d="M199.409 65.7791L202.333 68.7026H200.871V75.2487H197.948V68.639H196.422L199.409 65.7791ZM199.409 65.1436C199.219 65.1436 199.091 65.2071 198.964 65.3342L196.041 68.2577C195.85 68.4484 195.787 68.7026 195.914 68.9568C196.041 69.211 196.232 69.3381 196.486 69.3381H197.376V75.2487C197.376 75.63 197.63 75.8842 198.011 75.8842H200.935C201.316 75.8842 201.57 75.63 201.57 75.2487V69.2746H202.46C202.714 69.2746 202.968 69.1475 203.032 68.8933C203.159 68.639 203.095 68.3848 202.905 68.1942L199.981 65.2707C199.727 65.2071 199.6 65.1436 199.409 65.1436Z" fill="#EF7A3F"/>
<path d="M31.1173 83.9559L35.6296 88.4047H33.3417V98.3827H28.8929V88.4047H26.6049L31.1173 83.9559ZM31.1173 83.3203C30.9266 83.3203 30.7995 83.3839 30.6724 83.511L26.16 87.9598C25.9694 88.1504 25.9058 88.4046 26.0329 88.6589C26.16 88.9131 26.3507 89.0402 26.6049 89.0402H28.2573V98.3827C28.2573 98.764 28.5115 99.0182 28.8929 99.0182H33.3417C33.723 99.0182 33.9772 98.764 33.9772 98.3827V89.0402H35.6296C35.8838 89.0402 36.138 88.9131 36.2016 88.6589C36.3287 88.4046 36.2652 88.1504 36.0745 87.9598L31.5621 83.511C31.435 83.3839 31.3079 83.3203 31.1173 83.3203Z" fill="#EF7A3F"/>
<path d="M172.78 20.53C172.78 19.5767 172.017 18.814 171.064 18.814H167.823C167.823 18.4327 167.505 18.1785 167.187 18.1785H163.374V18.814H152.252C151.362 18.814 150.536 18.3056 150.282 17.4794C150.155 17.0345 149.71 16.7803 149.265 16.7803H145.642C144.88 16.7803 144.308 17.4158 144.308 18.1149V27.5209H172.843L172.78 20.53Z" fill="#EDBB1B"/>
<path d="M171 21.0381H145.96V32.1601H171V21.0381Z" fill="white" stroke="#EDBB1B" stroke-width="0.75" stroke-miterlimit="10"/>
<path d="M171 22.501H145.96V32.2248H171V22.501Z" fill="white" stroke="#EDBB1B" stroke-width="0.75" stroke-miterlimit="10"/>
<path d="M171 23.8984H145.96V32.224H171V23.8984Z" fill="white" stroke="#EDBB1B" stroke-width="0.75" stroke-miterlimit="10"/>
<path d="M170.619 44.0446H146.405C145.833 44.0446 145.324 43.6633 145.197 43.0913L141.257 26.5672C141.066 25.8046 141.638 25.1055 142.465 25.1055H174.496C175.259 25.1055 175.831 25.8046 175.703 26.5672L171.827 43.0913C171.699 43.6633 171.191 44.0446 170.619 44.0446Z" fill="#FFD53C"/>
<path d="M169.348 42.3924H162.04C161.404 42.3924 160.896 41.884 160.832 41.2485C160.832 40.6129 161.34 40.1045 161.976 40.1045H169.285C169.92 40.1045 170.429 40.6129 170.429 41.2485C170.492 41.884 169.984 42.3924 169.348 42.3924Z" fill="#EDBB1B"/>
<path d="M158.098 84.5279V61.7119" stroke="#EF7A3F" stroke-miterlimit="10"/>
<path d="M164.518 84.5279V73.8508H174.114V61.7119" stroke="#EF7A3F" stroke-miterlimit="10"/>
<path d="M151.68 84.5279V73.8508H142.083V61.7119" stroke="#EF7A3F" stroke-miterlimit="10"/>
<path d="M159.116 61.775H160.196L158.099 59.6777L156.065 61.775H157.082" fill="#EF7A3F"/>
<path d="M175.195 61.775H176.275L174.178 59.6777L172.144 61.775H173.161" fill="#EF7A3F"/>
<path d="M143.036 61.775H144.116L142.019 59.6777L139.985 61.775H141.002" fill="#EF7A3F"/>
<path d="M257.082 222.442L256.46 222.392C257.236 211.526 255.982 200.318 252.731 189.077L253.329 188.885C256.602 200.206 257.865 211.494 257.082 222.442Z" fill="#D39700"/>
<path d="M290.864 162.841C281.988 163.512 273.242 161.092 264.934 158.538C269.523 156.526 275.302 156.301 280.12 157.945C283.921 159.242 287.039 161.588 290.864 162.841Z" fill="#D39700"/>
<path d="M261.356 158.794C257.832 161.411 256.856 166.295 257.487 170.581C259.419 167.184 263.521 165.471 267.474 165.108C271.426 164.745 275.384 165.485 279.347 165.768C283.309 166.051 287.508 165.815 290.865 163.739C287.399 163.756 284.072 162.475 280.927 161.041C277.783 159.607 274.687 157.99 271.304 157.24C267.922 156.49 264.118 156.743 261.356 158.794Z" fill="#FFBC00"/>
<path d="M263.46 219.392C258.454 207.537 255.844 194.788 255.784 181.895C255.774 178.217 255.759 173.177 257.452 169.528C258.991 166.208 263.601 164.678 267.081 164.377C269.687 164.151 272.321 164.432 274.869 164.704C276.008 164.825 277.185 164.95 278.341 165.028C283.015 165.342 286.399 164.685 288.984 162.955L289.339 163.504C286.627 165.317 283.123 166.011 278.299 165.684C277.131 165.606 275.947 165.479 274.803 165.357C272.284 165.083 269.68 164.808 267.136 165.032C263.827 165.319 259.459 166.742 258.036 169.809C256.409 173.327 256.42 178.281 256.431 181.898C256.49 194.7 259.081 207.36 264.051 219.132L263.46 219.392Z" fill="#FFBC00"/>
<path d="M273.389 156.854C274.549 157.445 275.83 157.774 277.136 157.817C276.737 158.734 276.09 159.527 275.264 160.109C274.439 160.686 273.527 161.132 272.561 161.429C272.56 159.868 272.841 158.319 273.389 156.854Z" fill="#D39700"/>
<path d="M240.251 185.872C240.809 185.746 241.394 185.95 241.891 186.224C242.541 186.582 243.114 187.052 243.579 187.61C242.539 187.423 241.457 187.53 240.433 187.791C239.409 188.052 238.438 188.46 237.478 188.885C237.92 188.167 238.416 187.481 238.962 186.83C239.307 186.419 239.709 185.999 240.251 185.872Z" fill="#FFBC00"/>
<path d="M267.08 185.834C264.315 187.146 262.202 189.257 261.131 191.779C260.06 194.301 260.102 197.064 261.25 199.562C264.022 198.256 266.141 196.145 267.213 193.621C268.285 191.097 268.238 188.331 267.08 185.834Z" fill="#FFBC00"/>
<path d="M324.421 201.088V209.404C324.421 209.865 327.152 210.24 330.523 210.24C333.893 210.24 336.624 209.865 336.624 209.404V201.088H324.421Z" fill="#FFBC00"/>
<path d="M336.624 200.324C336.624 200.745 333.891 201.087 330.523 201.087C327.154 201.087 324.421 200.745 324.421 200.324C324.421 199.902 327.152 199.562 330.523 199.562C333.893 199.562 336.624 199.902 336.624 200.324Z" fill="#FF6D00"/>
<path d="M331.285 201.087C333.391 201.087 335.098 200.745 335.098 200.324C335.098 199.903 333.391 199.562 331.285 199.562C329.179 199.562 327.472 199.903 327.472 200.324C327.472 200.745 329.179 201.087 331.285 201.087Z" fill="#FFBC00"/>
<path d="M274.87 120.245C273.373 124.765 273.289 129.648 274.628 134.22C275.451 137.011 276.814 139.801 276.399 142.673C276.06 145.023 274.563 147.08 274.267 149.435C273.668 154.219 278.129 158.761 276.931 163.429C276.379 165.578 274.653 167.283 272.654 168.157C270.655 169.032 268.412 169.171 266.244 168.98C263.043 168.696 259.581 167.456 258.102 164.545C256.93 162.227 257.29 159.44 257.699 156.862C259.505 145.466 261.593 133.991 266.121 123.413" fill="#263238"/>
<path d="M276.974 155.102C276.839 155.154 276.699 155.194 276.555 155.224C276.142 155.313 275.717 155.345 275.293 155.319C274.621 155.275 273.965 155.104 273.37 154.818C272.571 154.434 271.925 153.835 271.521 153.103C271.041 152.214 270.912 151.204 271.155 150.24C271.296 149.703 271.555 149.197 271.917 148.753C272.308 148.294 272.767 147.886 273.281 147.54C274.303 146.815 275.519 146.233 276.516 145.361C277.513 144.489 278.131 143.259 278.328 141.945C278.512 140.654 278.41 139.343 278.028 138.087C277.655 136.918 277.177 135.777 276.601 134.677C275.524 132.566 274.51 130.636 274.12 128.881C273.709 127.139 273.828 125.661 274.141 124.707C274.453 123.754 274.812 123.296 274.812 123.296C274.845 123.31 274.502 123.776 274.237 124.731C273.971 125.686 273.869 127.131 274.297 128.847C274.696 130.574 275.715 132.471 276.806 134.588C277.393 135.696 277.878 136.846 278.255 138.027C278.651 139.309 278.759 140.651 278.573 141.972C278.372 143.322 277.724 144.609 276.684 145.515C275.643 146.421 274.428 146.994 273.417 147.701C272.395 148.385 271.6 149.274 271.354 150.277C271.11 151.202 271.224 152.175 271.676 153.034C272.056 153.74 272.667 154.322 273.427 154.702C274.002 154.991 274.636 155.17 275.29 155.229C276.389 155.306 276.97 155.064 276.974 155.102Z" fill="#263238"/>
<path d="M229.851 230.067L227.961 237.694L208.497 237.506C208.497 237.506 209.929 233.915 220.569 234.09L221.354 230.075L229.851 230.067Z" fill="#EAD5CE"/>
<path d="M322.886 230.067C322.886 230.067 342.708 235.434 343.503 235.701C344.697 236.111 344.497 240.386 342.638 240.32C341.76 240.288 327.414 240.841 325.601 240.73C323.789 240.619 318.32 238.514 318.32 238.514L322.886 230.067Z" fill="#E8505B"/>
<path d="M330.573 237.695C330.703 237.712 330.881 236.501 331.723 235.24C332.565 233.978 333.65 233.225 333.569 233.127C333.522 233.038 332.226 233.683 331.344 235.041C330.462 236.399 330.462 237.705 330.573 237.695Z" fill="#263238"/>
<path d="M329.02 236.17C329.097 236.183 329.255 235.434 329.669 234.594C330.083 233.754 330.573 233.18 330.518 233.123C330.462 233.067 329.866 233.592 329.437 234.472C329.007 235.352 328.954 236.165 329.02 236.17Z" fill="#263238"/>
<path d="M327.587 236.168C327.679 236.161 327.609 235.014 328.01 233.746C328.41 232.477 329.056 231.683 328.993 231.6C328.957 231.512 328.147 232.222 327.729 233.606C327.31 234.99 327.511 236.2 327.587 236.168Z" fill="#263238"/>
<path d="M327.289 232.837C327.32 232.846 327.47 232.329 327.472 231.461C327.469 230.953 327.411 230.447 327.3 229.954C327.234 229.663 327.15 229.378 327.047 229.1C326.995 228.925 326.901 228.768 326.775 228.646C326.691 228.575 326.586 228.539 326.479 228.545C326.372 228.55 326.271 228.598 326.193 228.678C326.063 228.816 325.983 229.002 325.969 229.2C325.951 229.362 325.944 229.525 325.947 229.688C325.951 229.993 325.986 230.296 326.052 230.593C326.165 231.088 326.34 231.563 326.574 232.005C326.969 232.756 327.312 233.14 327.336 233.119C327.361 233.098 327.091 232.659 326.752 231.899C326.552 231.463 326.402 231.002 326.304 230.526C326.25 230.248 326.222 229.965 326.221 229.68C326.229 229.396 326.221 229.041 326.378 228.905C326.406 228.871 326.445 228.85 326.486 228.847C326.528 228.843 326.569 228.856 326.602 228.884C326.687 228.973 326.751 229.084 326.788 229.207C326.889 229.473 326.975 229.745 327.044 230.023C327.162 230.495 327.237 230.979 327.268 231.467C327.32 232.307 327.243 232.826 327.289 232.837Z" fill="#263238"/>
<path d="M327.472 233.266C327.482 233.24 326.93 233.123 325.996 233.119C325.45 233.118 324.905 233.16 324.375 233.242C324.048 233.285 323.733 233.357 323.439 233.455C323.127 233.548 322.798 233.821 322.923 234.1C322.975 234.222 323.079 234.333 323.224 234.422C323.369 234.511 323.549 234.574 323.747 234.605C324.084 234.658 324.436 234.658 324.773 234.605C325.313 234.521 325.819 234.367 326.257 234.154C326.991 233.798 327.348 233.527 327.313 233.507C327.279 233.487 326.84 233.709 326.096 234.016C325.671 234.194 325.195 234.321 324.693 234.389C324.413 234.428 324.123 234.425 323.845 234.381C323.712 234.361 323.591 234.319 323.493 234.26C323.395 234.201 323.325 234.127 323.288 234.046C323.222 233.887 323.377 233.743 323.628 233.651C323.889 233.563 324.168 233.496 324.458 233.452C324.96 233.364 325.476 233.308 325.998 233.285C326.9 233.248 327.461 233.308 327.472 233.266Z" fill="#263238"/>
<path d="M333.72 237.694C333.819 237.684 333.72 236.912 334.116 236.065C334.511 235.218 335.157 234.722 335.094 234.653C335.061 234.579 334.225 235.01 333.806 235.952C333.387 236.894 333.646 237.725 333.72 237.694Z" fill="#263238"/>
<path d="M319.845 239.224C319.836 239.242 320.127 239.353 320.67 239.536C321.444 239.775 322.237 239.972 323.044 240.126C325.084 240.537 327.991 240.771 331.187 240.744C334.382 240.717 337.263 240.6 339.348 240.532L341.82 240.427C342.403 240.396 342.725 240.369 342.725 240.35C342.725 240.331 342.4 240.319 341.816 240.316L339.341 240.33L331.18 240.458C328 240.484 325.129 240.285 323.096 239.928C321.061 239.592 319.874 239.177 319.845 239.224Z" fill="#263238"/>
<path d="M319.846 239.171C319.871 239.211 320.387 238.933 321.257 238.581C322.128 238.23 323.409 237.834 324.825 238.035C326.242 238.237 327.252 239.115 327.908 239.724C328.569 240.355 328.956 240.774 328.994 240.744C329.033 240.715 328.701 240.263 328.071 239.584C327.701 239.183 327.282 238.822 326.821 238.509C326.248 238.116 325.58 237.855 324.874 237.749C323.355 237.535 322.013 238.002 321.164 238.396C320.315 238.79 319.826 239.142 319.846 239.171Z" fill="#263238"/>
<path d="M300.49 223.967C300.49 223.967 281.262 236.357 280.571 236.871C279.537 237.64 280.724 241.306 282.518 240.672C283.367 240.371 299.501 235.954 301.237 235.29C302.973 234.626 307.642 230.878 307.642 230.878L300.49 223.967Z" fill="#E8505B"/>
<path d="M295.424 234.642C295.536 234.625 295.085 233.557 293.725 232.662C292.365 231.766 290.878 231.526 290.866 231.608C290.818 231.702 292.165 232.054 293.422 232.898C294.679 233.741 295.309 234.685 295.424 234.642Z" fill="#263238"/>
<path d="M296.955 233.116C297.036 233.086 296.664 232.138 295.783 231.262C294.903 230.386 293.95 229.994 293.916 230.079C293.883 230.163 294.711 230.661 295.539 231.5C296.368 232.339 296.865 233.162 296.955 233.116Z" fill="#263238"/>
<path d="M298.462 231.594C298.558 231.594 298.451 230.603 297.534 229.689C296.617 228.775 295.462 228.482 295.442 228.554C295.391 228.638 296.408 229.028 297.243 229.882C298.077 230.737 298.352 231.617 298.462 231.594Z" fill="#263238"/>
<path d="M297.871 229.7C297.918 229.671 297.676 229.051 297.472 227.985C297.355 227.361 297.285 226.723 297.264 226.08C297.252 225.704 297.258 225.326 297.284 224.951C297.284 224.783 297.317 224.619 297.378 224.471C297.404 224.42 297.444 224.384 297.49 224.371C297.536 224.358 297.584 224.369 297.624 224.401C297.826 224.505 297.932 224.949 298.026 225.301C298.113 225.655 298.171 226.02 298.198 226.391C298.243 227.027 298.228 227.667 298.154 228.299C298.031 229.387 297.865 230.048 297.908 230.068C297.951 230.087 298.181 229.457 298.366 228.348C298.474 227.695 298.512 227.025 298.479 226.359C298.458 225.96 298.401 225.565 298.312 225.182C298.265 224.978 298.207 224.778 298.139 224.583C298.063 224.342 297.922 224.144 297.742 224.029C297.637 223.964 297.517 223.949 297.405 223.988C297.292 224.027 297.194 224.117 297.127 224.241C297.033 224.448 296.983 224.684 296.982 224.925C296.923 225.984 297.019 227.049 297.264 228.062C297.527 229.144 297.842 229.724 297.871 229.7Z" fill="#263238"/>
<path d="M296.966 229.215C296.994 229.253 297.483 229.078 298.322 228.933C298.812 228.85 299.313 228.801 299.817 228.789C300.104 228.776 300.392 228.788 300.674 228.827C300.946 228.873 301.159 228.992 301.173 229.172C301.178 229.265 301.147 229.357 301.085 229.44C301.023 229.522 300.932 229.591 300.82 229.64C300.586 229.744 300.32 229.807 300.044 229.823C299.551 229.855 299.053 229.82 298.578 229.72C297.749 229.552 297.24 229.397 297.218 229.436C297.196 229.475 297.654 229.675 298.501 229.896C299.004 230.031 299.542 230.088 300.079 230.064C300.413 230.051 300.737 229.98 301.023 229.858C301.19 229.784 301.326 229.68 301.417 229.557C301.508 229.434 301.55 229.295 301.54 229.157C301.522 228.838 301.093 228.624 300.76 228.586C300.444 228.544 300.12 228.533 299.8 228.555C299.274 228.578 298.754 228.647 298.252 228.76C297.395 228.953 296.944 229.191 296.966 229.215Z" fill="#263238"/>
<path d="M284.445 240.742C284.459 240.772 284.637 240.555 284.724 240.025C284.81 239.494 284.76 238.712 284.511 238.016C284.399 237.693 284.271 237.384 284.13 237.092C284.02 236.839 283.89 236.612 283.743 236.417C283.64 236.277 283.513 236.191 283.38 236.169C283.285 236.169 283.236 236.201 283.238 236.219C283.238 236.271 283.441 236.246 283.651 236.594C283.775 236.799 283.885 237.026 283.98 237.269C284.107 237.56 284.226 237.861 284.334 238.172C284.565 238.824 284.634 239.499 284.585 239.979C284.537 240.46 284.419 240.71 284.445 240.742Z" fill="#263238"/>
<path d="M292.344 234.644C292.457 234.649 292.423 234.128 291.485 233.661C290.547 233.194 289.349 233.081 289.34 233.129C289.294 233.179 290.326 233.35 291.156 233.777C291.985 234.204 292.209 234.656 292.344 234.644Z" fill="#263238"/>
<path d="M306.116 231.594C306.1 231.574 305.803 231.793 305.267 232.182C304.502 232.719 303.706 233.211 302.885 233.656C301.662 234.306 300.398 234.874 299.101 235.356C297.638 235.9 296.003 236.427 294.261 236.934C290.785 237.944 287.638 238.869 285.37 239.559L282.685 240.391C282.053 240.594 281.707 240.718 281.712 240.741C281.717 240.764 282.077 240.684 282.721 240.519L285.436 239.793C287.726 239.163 290.879 238.278 294.358 237.266C296.097 236.757 297.746 236.225 299.214 235.654C300.519 235.154 301.785 234.557 303.002 233.87C303.822 233.402 304.606 232.874 305.348 232.289C305.868 231.865 306.137 231.609 306.116 231.594Z" fill="#263238"/>
<path d="M306.117 232.221C306.128 232.177 305.501 231.912 304.43 231.721C303.36 231.529 301.782 231.441 300.245 232.289C299.536 232.693 298.924 233.279 298.458 233.999C298.085 234.575 297.771 235.197 297.525 235.853C297.109 236.963 296.934 237.677 296.97 237.694C297.006 237.711 297.28 237.032 297.75 235.971C298.222 234.938 298.971 233.43 300.408 232.636C301.845 231.841 303.362 231.878 304.402 231.991C305.442 232.104 306.105 232.282 306.117 232.221Z" fill="#263238"/>
<path d="M292.39 205.161L252.911 227.018C252.911 227.018 250.965 219.451 251.626 202.676V202.668C251.626 202.599 251.634 202.535 251.634 202.452C251.669 201.674 251.704 200.879 251.747 200.059C251.825 198.514 250.574 195.542 249.141 192.467L248.324 190.74C248.219 190.533 248.124 190.325 248.028 190.118C247.437 188.9 246.873 187.709 246.404 186.663L246.378 186.601C246.056 185.902 245.787 185.263 245.571 184.693V184.684C245.563 184.649 245.545 184.616 245.537 184.581C245.475 184.426 245.424 184.279 245.371 184.131V184.123C245.371 184.106 245.362 184.097 245.354 184.079V184.071C245.265 183.794 245.195 183.511 245.145 183.224C244.876 181.506 244.65 179.675 244.472 177.792L244.445 177.558C243.872 171.65 243.664 165.319 243.603 160.775V160.552C243.595 160.17 243.595 159.817 243.586 159.472V159.092C243.568 156.416 243.595 154.633 243.595 154.393V154.366L254.263 149.227L270.093 150.698L273.568 151.683L273.689 151.71L276.522 152.513C277.885 152.898 279.196 153.446 280.425 154.145C279.027 155.483 276.151 158.49 274.773 161.737C274.722 161.859 274.669 161.979 274.626 162.1C274.538 162.334 274.452 162.559 274.382 162.791C273.08 166.939 280.178 174.677 282.106 176.68C282.297 176.879 282.436 177.017 282.51 177.095L282.588 177.172L282.145 196.884L292.39 205.161Z" fill="#F3BD3C"/>
<path d="M244.064 153.803C244.064 153.803 235.955 156.752 233.994 163.006C232.256 168.545 226.456 199.697 226.456 199.697L220.7 232.67L232.755 233.119L246.631 176.927L244.064 153.803Z" fill="#F3BD3C"/>
<path d="M243.587 190.411C243.613 190.411 243.71 190.169 243.864 189.714C244.019 189.26 244.226 188.6 244.471 187.779C244.968 186.14 245.586 183.861 246.223 181.333C246.861 178.805 247.362 176.5 247.697 174.829C247.864 173.993 247.99 173.314 248.066 172.845C248.142 172.375 248.173 172.112 248.146 172.107C248.12 172.103 248.04 172.356 247.916 172.818C247.782 173.356 247.618 174.011 247.425 174.779C246.999 176.521 246.448 178.769 245.84 181.255C245.232 183.741 244.642 185.981 244.203 187.72C244.011 188.488 243.851 189.143 243.716 189.682C243.608 190.148 243.56 190.411 243.587 190.411Z" fill="#263238"/>
<path d="M231.275 230.068C231.065 230.053 230.598 230.724 230.232 231.567C229.866 232.409 229.744 233.104 229.954 233.118C230.165 233.131 230.632 232.461 230.995 231.619C231.358 230.776 231.486 230.082 231.275 230.068Z" fill="#263238"/>
<path d="M223.596 230.067C223.382 230.06 223.077 230.742 222.72 231.577C222.364 232.412 222.089 233.096 222.297 233.118C222.506 233.139 223.116 232.479 223.476 231.627C223.835 230.775 223.805 230.073 223.596 230.067Z" fill="#263238"/>
<path d="M237.478 156.923C237.478 156.988 238.357 156.936 239.724 157.215C241.507 157.566 243.165 158.365 244.535 159.532C245.905 160.699 246.94 162.195 247.537 163.871C248.005 165.155 248.072 166.014 248.137 166.005C248.16 166.005 248.166 165.788 248.126 165.402C248.064 164.855 247.948 164.316 247.78 163.792C247.228 162.04 246.186 160.474 244.771 159.269C243.356 158.064 241.624 157.27 239.771 156.975C239.216 156.882 238.654 156.842 238.091 156.856C237.693 156.866 237.477 156.901 237.478 156.923Z" fill="#263238"/>
<path d="M281.067 183.283C280.912 183.929 280.719 184.562 280.487 185.179C280.319 185.604 280.216 185.835 280.192 185.835C280.137 185.808 280.478 184.833 280.821 183.212C280.892 182.876 280.963 182.512 281.027 182.122V182.087C281.316 180.329 281.42 178.539 281.337 176.754C281.338 176.73 281.335 176.706 281.329 176.683C281.504 176.887 281.631 177.028 281.699 177.108C281.769 179.19 281.556 181.272 281.067 183.283Z" fill="#263238"/>
<path d="M281.712 196.467C281.712 196.493 281.465 196.507 281.016 196.511C280.568 196.515 279.923 196.493 279.122 196.434C274.946 196.101 270.88 195.005 267.15 193.206C266.439 192.858 265.876 192.562 265.5 192.326C265.124 192.09 264.921 191.964 264.934 191.94C264.966 191.887 265.832 192.334 267.274 192.97C271.03 194.62 275.039 195.701 279.153 196.174C280.729 196.355 281.715 196.407 281.712 196.467Z" fill="#263238"/>
<g opacity="0.2">
<path opacity="0.2" d="M264.097 190.745C265.348 191.861 267.294 192.023 268.978 191.992C270.661 191.961 272.329 191.631 274.017 191.658C275.704 191.685 277.48 192.137 278.607 193.38C278.952 193.761 279.234 194.232 279.258 194.746C279.281 195.26 278.985 195.809 278.495 195.963C278.187 196.059 277.853 195.996 277.542 195.931C272.828 194.962 267.752 193.864 264.105 190.745H264.097Z" fill="black"/>
</g>
<g opacity="0.2">
<path opacity="0.2" d="M248.658 192.226C249.904 191.869 250.104 190.425 250.226 189.143C250.721 183.844 249.681 178.514 247.229 173.782C246.641 177.261 245.667 180.886 244.973 184.425L248.658 192.226Z" fill="black"/>
</g>
<path d="M246.629 177.404C246.6 177.454 246.328 177.083 245.638 176.93C244.977 176.764 243.876 176.93 242.904 177.78C241.912 178.603 241.363 180.189 241.063 181.948C240.737 183.689 240.577 185.82 239.322 187.589C238.702 188.441 237.809 189.016 236.816 189.202C235.879 189.392 234.977 189.357 234.143 189.412C232.66 189.424 231.239 190.049 230.176 191.157C229.456 191.899 228.919 192.82 228.612 193.838C228.399 194.561 228.376 194.991 228.339 194.986C228.321 194.883 228.321 194.778 228.339 194.675C228.355 194.377 228.399 194.081 228.471 193.793C228.699 192.886 229.108 192.043 229.671 191.323C230.234 190.603 230.937 190.023 231.731 189.625C232.483 189.262 233.294 189.06 234.119 189.032C234.972 188.967 235.864 188.99 236.742 188.805C237.645 188.633 238.455 188.109 239.018 187.333C239.598 186.539 239.937 185.584 240.176 184.651C240.415 183.719 240.537 182.768 240.714 181.873C241.038 180.099 241.632 178.422 242.733 177.55C243.791 176.677 244.971 176.558 245.673 176.779C245.947 176.856 246.203 176.995 246.425 177.185C246.569 177.315 246.638 177.393 246.629 177.404Z" fill="#FAFAFA"/>
<path d="M273.379 161.438C273.616 161.457 273.852 161.491 274.086 161.537C274.036 161.665 273.984 161.791 273.942 161.917C273.747 161.88 273.55 161.856 273.353 161.846C272.603 161.802 271.853 161.903 271.137 162.144C269.662 162.606 268.365 163.465 267.156 164.335C265.948 165.204 264.753 166.082 263.491 166.67C262.294 167.234 260.999 167.526 259.69 167.53C258.553 167.528 257.424 167.329 256.348 166.941C254.791 166.383 253.385 165.429 252.254 164.162C251.953 163.818 251.682 163.446 251.445 163.049C251.352 162.918 251.272 162.777 251.206 162.628C251.265 162.628 251.589 163.207 252.365 164.058C253.51 165.252 254.901 166.147 256.428 166.67C258.33 167.321 260.895 167.512 263.34 166.326C264.56 165.746 265.717 164.877 266.939 163.999C268.16 163.122 269.487 162.234 271.021 161.746C271.785 161.5 272.582 161.396 273.379 161.438Z" fill="#FAFAFA"/>
<path d="M281.713 181.247C281.589 181.285 281.46 181.306 281.33 181.309C280.959 181.342 280.585 181.329 280.218 181.268C279.245 181.157 277.931 180.601 276.388 179.843C275.558 179.42 274.693 179.073 273.804 178.808C272.789 178.526 271.725 178.488 270.695 178.699C268.503 179.138 266.366 180.589 264.496 182.426C262.627 184.263 260.986 186.256 259.164 187.699C257.573 189.024 255.677 189.903 253.66 190.248C252.31 190.482 250.929 190.463 249.585 190.192C249.223 190.122 248.865 190.026 248.515 189.906C248.39 189.873 248.269 189.823 248.156 189.758C248.166 189.721 248.675 189.888 249.616 190.034C250.944 190.24 252.297 190.216 253.617 189.964C255.575 189.589 257.409 188.708 258.948 187.404C260.72 185.975 262.331 184.006 264.233 182.13C266.134 180.255 268.332 178.776 270.632 178.336C271.715 178.125 272.831 178.176 273.892 178.485C274.796 178.771 275.672 179.14 276.511 179.589C278.042 180.383 279.306 180.961 280.247 181.117C281.188 181.273 281.711 181.206 281.713 181.247Z" fill="#FAFAFA"/>
<path d="M274.086 195.086C274.079 195.167 273.61 195.132 273.185 195.551C272.749 195.952 272.658 196.523 272.592 196.51C272.563 196.51 272.539 196.351 272.592 196.109C272.673 195.796 272.829 195.52 273.039 195.32C273.25 195.119 273.505 195.002 273.77 194.985C273.972 194.982 274.086 195.051 274.086 195.086Z" fill="#FAFAFA"/>
<path d="M281.692 191.937C281.801 191.97 281.473 193.21 280.608 194.507C279.743 195.805 278.739 196.593 278.666 196.505C278.594 196.417 279.421 195.516 280.241 194.263C281.061 193.009 281.565 191.891 281.692 191.937Z" fill="#FAFAFA"/>
<path d="M232.903 165.571C232.922 165.544 233.068 165.659 233.367 165.747C233.795 165.846 234.242 165.806 234.647 165.633C235.169 165.434 235.674 164.983 236.133 164.363C236.591 163.743 237.05 162.998 237.701 162.343C238.806 161.224 240.189 160.442 241.698 160.083C242.151 159.979 242.612 159.919 243.076 159.905C243.404 159.905 243.58 159.926 243.58 159.951C243.58 160.016 242.859 160.026 241.758 160.341C240.327 160.759 239.02 161.538 237.955 162.609C237.335 163.231 236.886 163.953 236.391 164.58C235.896 165.208 235.317 165.699 234.729 165.879C234.273 166.049 233.773 166.049 233.317 165.879C233.008 165.744 232.891 165.584 232.903 165.571Z" fill="#FAFAFA"/>
<path d="M274.082 150.756C274.121 150.785 273.811 151.274 273.113 151.883C272.184 152.664 271.094 153.228 269.921 153.535C268.748 153.843 267.522 153.886 266.331 153.661C265.423 153.472 264.916 153.201 264.934 153.152C264.959 153.083 265.496 153.247 266.38 153.348C268.696 153.612 271.027 153.001 272.917 151.635C273.638 151.113 274.026 150.707 274.082 150.756Z" fill="#FAFAFA"/>
<path d="M239.003 207.229C239.003 207.265 238.703 207.259 238.185 207.379C237.458 207.56 236.776 207.901 236.187 208.378C235.424 208.964 234.681 209.853 234.058 210.983C233.436 212.114 232.895 213.443 232.217 214.802C231.539 216.161 230.713 217.403 229.68 218.244C228.662 219.109 227.433 219.453 226.447 219.381C225.452 219.328 224.692 218.935 224.284 218.557C224.12 218.419 223.976 218.257 223.857 218.076C223.777 217.952 223.742 217.884 223.752 217.876C223.781 217.852 223.949 218.115 224.373 218.44C224.984 218.879 225.711 219.113 226.456 219.11C227.56 219.121 228.63 218.716 229.465 217.969C230.432 217.16 231.225 215.961 231.883 214.626C232.54 213.291 233.09 211.941 233.761 210.801C234.431 209.66 235.22 208.734 236.028 208.155C236.656 207.677 237.385 207.359 238.154 207.228C238.362 207.193 238.572 207.181 238.782 207.191C238.931 207.205 239.003 207.216 239.003 207.229Z" fill="#FAFAFA"/>
<path d="M324.421 229.405C324.421 229.405 276.496 198.367 274.534 197.721C272.572 197.076 267.829 194.007 263.089 195.3C258.349 196.593 254.097 200.789 251.97 206.924C249.843 213.06 249.681 226.785 249.681 226.785C249.681 226.785 253.441 237.602 260.8 239.864C261.43 240.055 262.069 240.213 262.716 240.339C271.699 242.098 280.837 238.019 285.861 230.463L286.93 228.855C286.93 228.855 318.282 240.227 318.772 240.066L324.421 229.405Z" fill="#263238"/>
<path d="M341.401 193.075C341.401 193.075 347.272 195.189 347.301 201.823C347.347 214.533 321.805 228.543 321.805 228.543L287.813 205.853V203.469C287.813 203.469 331.569 187.629 341.401 193.075Z" fill="#263238"/>
<path d="M264.934 220.878C264.934 220.878 265.021 220.923 265.196 220.995L265.981 221.31L269.018 222.492L280.304 226.79C285.098 228.599 290.841 230.748 297.284 233.123C303.727 235.498 310.867 238.091 318.494 240.696L318.63 240.744L318.698 240.606L322.441 233.382L324.347 229.696L324.421 229.559L324.285 229.473L287.751 206.025L276.775 199.027L273.794 197.146L273.015 196.664C272.839 196.558 272.743 196.51 272.743 196.51C272.743 196.51 272.824 196.577 272.995 196.693L273.756 197.202L276.703 199.13L287.621 206.22L324.101 229.764L324.042 229.537L322.136 233.221L318.395 240.448L318.602 240.364C310.975 237.76 303.836 235.173 297.386 232.825L280.382 226.568L269.06 222.37L266.003 221.246L265.207 220.961C265.029 220.903 264.934 220.878 264.934 220.878Z" fill="#375A64"/>
<path d="M304.592 216.339C304.608 216.357 304.933 216.154 305.511 215.769C306.088 215.385 306.912 214.819 307.916 214.105C309.934 212.681 312.678 210.656 315.63 208.338C318.582 206.021 321.182 203.842 323.029 202.233C323.953 201.429 324.69 200.77 325.191 200.305C325.692 199.841 325.962 199.578 325.945 199.562C325.928 199.547 325.627 199.778 325.096 200.21C324.522 200.686 323.768 201.309 322.858 202.06C320.97 203.624 318.346 205.769 315.398 208.087C312.451 210.405 309.738 212.449 307.757 213.914L305.419 215.659C304.875 216.084 304.578 216.321 304.592 216.339Z" fill="#375A64"/>
<path d="M332.047 198.104C332.06 198.037 330.567 197.919 328.818 198.34C327.069 198.761 325.892 199.505 325.948 199.556C326.003 199.627 327.225 199 328.908 198.605C330.592 198.21 332.047 198.188 332.047 198.104Z" fill="#375A64"/>
<path d="M328.994 196.517C328.965 196.451 327.889 196.835 327.007 197.729C326.124 198.623 325.877 199.55 325.962 199.56C326.059 199.587 326.427 198.741 327.272 197.904C328.117 197.066 329.051 196.589 328.994 196.517Z" fill="#375A64"/>
<path d="M342.724 236.2C342.738 236.165 342.395 236.093 342.021 236.44C341.646 236.788 341.334 237.419 341.232 238.179C341.145 238.831 341.231 239.497 341.481 240.096C341.675 240.551 341.886 240.765 341.91 240.743C341.934 240.722 341.801 240.462 341.664 240.015C341.484 239.439 341.431 238.824 341.508 238.221C341.601 237.523 341.862 236.919 342.152 236.601C342.443 236.282 342.73 236.249 342.724 236.2Z" fill="#263238"/>
<path d="M244.272 124.63C243.822 124.183 243.286 123.834 242.699 123.605C242.111 123.376 241.484 123.273 240.855 123.3C240.227 123.328 239.61 123.487 239.044 123.766C238.478 124.046 237.974 124.441 237.564 124.926C236.605 126.06 236.236 127.586 236.019 129.066C235.803 130.545 235.707 132.066 235.171 133.46C234.636 134.853 233.551 136.141 232.107 136.421C231.01 136.628 229.718 136.282 228.882 137.031C228.168 137.667 228.184 138.867 228.689 139.683C229.194 140.498 230.063 141.009 230.93 141.396C231.276 141.551 231.683 141.774 231.69 142.158C231.699 142.658 231.067 142.837 230.615 143.032C229.257 143.617 228.865 145.584 229.619 146.877C230.373 148.17 231.928 148.791 233.396 148.8C234.864 148.809 236.295 148.303 237.684 147.796C237.147 148.357 237.163 149.33 237.641 149.947C238.119 150.563 238.943 150.83 239.708 150.732C240.473 150.634 241.165 150.211 241.724 149.671C242.814 148.617 243.417 147.132 243.701 145.628C243.985 144.125 243.962 142.578 243.962 141.052C243.981 135.588 244.363 130.13 245.104 124.718" fill="#263238"/>
<path d="M261.651 112.631C264.587 112.772 267.359 114.064 269.39 116.241C271.421 118.418 272.556 121.312 272.56 124.323C272.569 129.169 272.494 134.44 272.194 137.567C271.494 144.84 266.155 146.084 266.155 146.084C266.155 146.084 266.326 150.602 266.558 154.895C266.783 158.981 263.512 162.574 259.25 162.925C255.03 163.273 251.411 160.309 251.123 156.27L249.693 124.882C249.618 123.253 249.876 121.627 250.451 120.106C251.025 118.585 251.903 117.204 253.028 116.051C254.153 114.898 255.501 113.998 256.985 113.409C258.47 112.819 260.058 112.554 261.648 112.63L261.651 112.631Z" fill="#EAD5CE"/>
<path d="M269.51 128.629C269.5 128.84 269.414 129.038 269.27 129.181C269.126 129.324 268.936 129.401 268.74 129.396C268.644 129.402 268.548 129.386 268.457 129.35C268.367 129.315 268.284 129.26 268.214 129.19C268.143 129.12 268.087 129.035 268.047 128.941C268.008 128.846 267.987 128.745 267.984 128.641C267.994 128.431 268.08 128.233 268.224 128.09C268.367 127.946 268.557 127.869 268.753 127.873C268.849 127.868 268.946 127.884 269.036 127.919C269.126 127.955 269.209 128.01 269.28 128.08C269.35 128.15 269.407 128.235 269.446 128.33C269.486 128.424 269.507 128.526 269.51 128.629Z" fill="#263238"/>
<path d="M260.358 128.628C260.358 128.828 260.197 129.02 259.91 129.164C259.623 129.307 259.231 129.391 258.818 129.397C258.616 129.397 258.416 129.377 258.23 129.339C258.044 129.3 257.875 129.244 257.735 129.174C257.594 129.103 257.484 129.02 257.41 128.929C257.337 128.837 257.302 128.74 257.308 128.642C257.308 128.442 257.468 128.25 257.755 128.106C258.042 127.963 258.433 127.879 258.845 127.872C259.048 127.872 259.248 127.892 259.435 127.93C259.621 127.969 259.79 128.025 259.931 128.095C260.072 128.165 260.183 128.249 260.256 128.34C260.329 128.432 260.364 128.53 260.358 128.628Z" fill="#263238"/>
<path d="M260.348 127.57C260.259 127.749 259.651 127.082 258.824 127.167C257.997 127.252 257.416 128.011 257.319 127.849C257.274 127.778 257.358 127.464 257.613 127.113C257.955 126.658 258.373 126.393 258.809 126.353C259.239 126.308 259.667 126.494 260.03 126.885C260.294 127.194 260.393 127.491 260.348 127.57Z" fill="#263238"/>
<path d="M264.253 133.951C264.246 133.899 264.788 133.766 265.668 133.593C265.89 133.555 266.1 133.495 266.129 133.339C266.158 133.183 266.063 132.921 265.939 132.654C265.696 132.101 265.441 131.521 265.174 130.914C264.107 128.434 263.32 126.391 263.416 126.347C263.512 126.304 264.455 128.278 265.523 130.758C265.781 131.369 266.027 131.953 266.261 132.51C266.362 132.771 266.525 133.064 266.43 133.422C266.402 133.506 266.356 133.583 266.296 133.646C266.235 133.709 266.161 133.757 266.081 133.786C265.958 133.829 265.831 133.855 265.702 133.865C264.812 133.963 264.259 134.002 264.253 133.951Z" fill="#263238"/>
<path d="M266.397 146.167C266.397 146.167 261.128 146.473 255.782 144.65C255.782 144.65 258.673 148.28 266.459 147.621L266.397 146.167Z" fill="#995037"/>
<path d="M257.32 124.754C257.426 124.977 258.059 124.592 258.852 124.341C259.646 124.09 260.328 124.025 260.357 123.758C260.386 123.491 259.64 123.104 258.709 123.406C257.777 123.708 257.217 124.552 257.32 124.754Z" fill="#263238"/>
<path d="M266.462 122.882C266.523 123.291 267.534 123.233 268.745 123.266C269.956 123.299 270.96 123.382 271.031 122.973C271.103 122.564 270.098 121.793 268.755 121.771C267.413 121.749 266.397 122.492 266.462 122.882Z" fill="#263238"/>
<path d="M251.118 153.026C251.049 151.563 252.693 145.189 253.348 141.284C254.003 137.379 251.44 136.74 251.034 134.435C250.628 132.13 251.785 129.934 251.785 129.934C255.526 131.272 257.002 128.613 259.048 127.036C261.213 125.361 261.695 123.304 262.582 120.711C263.47 118.118 264.503 116.503 267.235 116.252C267.235 116.252 269.904 117.603 270.873 120.418C271.707 122.85 272.372 132.315 272.372 132.315C272.753 127.774 276.439 125.866 275.44 119.187C275.008 116.302 272.614 112.362 268.917 111.785C267.845 111.618 265.816 111.488 265.816 111.488C263.617 109.499 262.535 109.558 260.421 108.622C255.865 106.602 250.385 110.21 247.358 114.162C245.03 117.205 243.9 121.323 243.268 125.196C242.83 127.88 242.835 130.609 243.091 133.316C243.243 134.938 243.045 136.974 241.458 138.21C239.197 139.967 238.594 143.331 240.163 147.812C241.733 152.292 235.953 159.904 235.953 159.904C235.953 159.904 238.755 157.607 241.094 156.418C243.433 155.229 251.118 153.026 251.118 153.026Z" fill="#263238"/>
<path d="M263.293 137.416C263.085 137.263 262.823 137.148 262.531 137.083C262.24 137.018 261.929 137.005 261.628 137.045C261.409 137.069 261.2 137.123 261.013 137.204C260.827 137.285 260.666 137.39 260.54 137.514C260.304 137.767 260.286 138.109 260.55 138.325C260.847 138.568 261.416 138.599 261.883 138.482C262.349 138.366 262.733 138.133 263.1 137.901C263.207 137.842 263.297 137.77 263.364 137.688C263.397 137.649 263.412 137.604 263.407 137.559C263.402 137.514 263.377 137.471 263.336 137.436" fill="#995037"/>
<path d="M260.468 135.5C260.613 135.476 260.681 136.702 261.538 137.494C262.395 138.286 263.39 138.059 263.407 138.222C263.425 138.299 263.197 138.482 262.773 138.538C262.222 138.603 261.671 138.412 261.217 137.999C260.782 137.603 260.481 137.002 260.381 136.323C260.315 135.813 260.402 135.5 260.468 135.5Z" fill="#263238"/>
<path d="M229.902 133.68C229.93 133.68 229.874 134.021 229.981 134.618C230.045 134.978 230.174 135.326 230.363 135.647C230.604 136.07 230.981 136.413 231.442 136.626C231.713 136.758 232.012 136.834 232.318 136.849C232.624 136.863 232.929 136.816 233.213 136.709C233.82 136.464 234.239 135.866 234.4 135.181C234.562 134.497 234.56 133.742 234.529 132.958C234.497 132.175 234.449 131.363 234.446 130.527C234.427 128.855 234.679 127.221 235.419 125.918C236.124 124.606 237.327 123.692 238.496 123.44C239.408 123.194 240.384 123.264 241.245 123.638C241.836 123.929 242.054 124.219 242.054 124.219C242.035 124.24 241.791 123.974 241.205 123.718C240.36 123.386 239.418 123.341 238.542 123.59C237.423 123.847 236.292 124.732 235.618 126.008C234.91 127.276 234.668 128.871 234.687 130.522C234.687 131.35 234.738 132.161 234.764 132.947C234.79 133.733 234.81 134.507 234.615 135.228C234.444 135.943 233.977 136.612 233.293 136.877C232.982 136.99 232.648 137.039 232.315 137.02C231.982 137 231.657 136.913 231.363 136.765C230.879 136.53 230.485 136.159 230.24 135.703C230.057 135.367 229.938 135.004 229.888 134.629C229.835 134.314 229.84 133.993 229.902 133.68Z" fill="#263238"/>
<path d="M240.003 149.225C239.855 149.118 239.724 148.991 239.613 148.848C239.296 148.433 239.097 147.945 239.034 147.433C238.933 146.622 239.083 145.8 239.466 145.07C239.891 144.211 240.639 143.385 241.522 142.569C242.406 141.753 243.439 140.913 244.213 139.764C245.016 138.622 245.247 137.113 245.131 135.576C245.045 134.033 244.654 132.416 244.744 130.693C244.771 129.813 244.982 128.947 245.365 128.147C245.794 127.328 246.468 126.652 247.301 126.207C248.965 125.298 250.822 125.057 252.35 124.238C253.894 123.449 254.888 122.047 255.607 120.684C256.327 119.321 256.861 117.904 257.536 116.67C258.212 115.435 259.036 114.364 260.036 113.649C261.036 112.934 262.152 112.567 263.152 112.623C264.002 112.669 264.812 112.983 265.459 113.516C265.87 113.846 266.179 114.278 266.351 114.766C266.398 114.891 266.43 115.021 266.446 115.152C266.456 115.197 266.46 115.243 266.459 115.289C266.439 115.289 266.433 115.106 266.304 114.784C266.116 114.316 265.803 113.904 265.397 113.59C264.759 113.086 263.969 112.794 263.145 112.758C262.192 112.717 261.1 113.074 260.146 113.787C259.193 114.499 258.368 115.536 257.725 116.764C257.082 117.992 256.551 119.386 255.817 120.787C255.083 122.189 254.079 123.619 252.466 124.444C250.893 125.282 249.027 125.536 247.43 126.416C246.639 126.837 245.997 127.478 245.589 128.255C245.22 129.026 245.016 129.862 244.991 130.711C244.896 132.391 245.274 134.002 245.361 135.57C245.477 137.124 245.229 138.7 244.389 139.876C243.579 141.055 242.52 141.886 241.643 142.696C240.766 143.506 240.018 144.295 239.591 145.131C239.208 145.836 239.048 146.634 239.13 147.425C239.302 148.751 240.058 149.207 240.003 149.225Z" fill="#375A64"/>
<path d="M242.487 127.87C242.381 127.925 241.824 126.821 242.162 125.427C242.5 124.032 243.496 123.215 243.569 123.302C243.679 123.38 242.919 124.238 242.626 125.513C242.313 126.779 242.623 127.838 242.487 127.87Z" fill="#FAFAFA"/>
<path d="M245.255 149.71C244.764 153.518 245.487 157.393 247.304 160.699C247.95 161.867 248.751 162.971 249.818 163.698C250.886 164.424 252.25 164.726 253.43 164.249C254.61 163.772 255.499 162.409 255.298 161.066C255.013 159.165 252.843 157.971 252.832 156.042C253.619 156.555 254.687 157.049 255.377 156.395C255.845 155.949 255.873 155.145 255.638 154.522C255.402 153.899 254.959 153.398 254.573 152.87C253.776 151.767 253.195 150.501 252.865 149.149C252.535 147.796 252.462 146.385 252.652 145.002C252.762 144.232 252.952 141.862 252.962 141.083C252.972 140.304 252.771 141.083 252.224 140.572C251.678 140.062 250.901 139.972 250.213 140.175C249.525 140.377 248.94 140.854 248.43 141.38C247.605 142.256 246.961 143.309 246.54 144.472C246.118 145.635 245.929 146.882 245.985 148.129" fill="#263238"/>
<path d="M302.295 121.771C302.1 122.137 296.965 147.168 296.965 147.168L309.061 147.701L313.744 126.174L302.295 121.771Z" fill="#375A64"/>
<path d="M296.669 147.701L295.44 147.131L300.084 121.877L301.541 121.771L296.669 147.701Z" fill="#263238"/>
<path d="M306.123 127.016C306.105 127.166 306.131 127.318 306.199 127.452C306.266 127.587 306.373 127.698 306.504 127.773C306.635 127.847 306.785 127.881 306.935 127.87C307.086 127.859 307.229 127.804 307.348 127.711C307.467 127.619 307.556 127.493 307.604 127.35C307.651 127.207 307.655 127.053 307.615 126.908C307.576 126.762 307.494 126.632 307.38 126.533C307.266 126.435 307.125 126.372 306.976 126.353C306.876 126.34 306.775 126.347 306.678 126.374C306.581 126.4 306.491 126.446 306.412 126.507C306.332 126.569 306.266 126.646 306.216 126.733C306.167 126.82 306.135 126.917 306.123 127.016Z" fill="#263238"/>
<path d="M309.468 145.155L309.643 141.742L304.592 139.638L306.562 134.909C306.789 134.388 307.121 133.92 307.536 133.534C307.951 133.149 308.44 132.855 308.973 132.67C309.507 132.486 310.072 132.415 310.634 132.463C311.195 132.51 311.741 132.675 312.236 132.947L314.263 134.056C314.979 134.446 315.605 134.984 316.101 135.635C316.597 136.286 316.952 137.035 317.143 137.834C317.801 140.62 318.377 146.427 318.315 146.168" fill="#EAD5CE"/>
<path d="M318.32 145.55L316.6 185.235C315.666 188.181 313.614 190.641 310.888 192.084C310.869 192.097 310.849 192.108 310.828 192.117C309.144 192.998 307.273 193.459 305.374 193.46C302.296 193.47 299.335 192.16 297.087 190.045L282.406 176.2L282.327 176.122C282.25 176.044 282.112 175.906 281.926 175.706C280.008 173.691 272.948 165.926 274.244 161.766C274.313 161.531 274.399 161.306 274.486 161.071C274.529 160.95 274.581 160.83 274.633 160.707C275.999 157.448 278.858 154.43 280.255 153.087C281.493 153.789 282.637 154.647 283.659 155.639L291.272 162.965L291.324 163.016L303.898 175.128L304.096 175.319L304.208 175.423L304.27 175.483L304.295 175.267V175.259L308.019 144.65L310.611 144.879L310.758 144.896L316.73 145.416L316.799 145.424L318.32 145.55Z" fill="#F3BD3C"/>
<path d="M281.712 176.683C281.666 176.604 281.584 176.464 281.474 176.262C281.401 174.141 281.158 172.047 280.753 170.038C280.43 168.478 280.154 167.565 280.19 167.531C280.21 167.531 280.286 167.75 280.415 168.144C280.601 168.721 280.765 169.318 280.906 169.932C281.369 171.97 281.641 174.122 281.709 176.306C281.712 176.437 281.712 176.561 281.712 176.683Z" fill="#263238"/>
<path d="M292.39 163.413C292.331 163.558 292.263 163.699 292.185 163.834C291.943 164.252 291.657 164.644 291.33 165.003C290.112 166.3 288.477 167.154 286.694 167.423C285.46 167.631 284.192 167.535 283.005 167.142C281.733 166.707 280.559 165.879 279.419 164.959C278.279 164.038 277.12 163.023 275.712 162.344C275.198 162.093 274.651 161.913 274.086 161.809C274.132 161.683 274.188 161.556 274.244 161.429C274.818 161.545 275.374 161.734 275.898 161.99C277.375 162.706 278.528 163.767 279.66 164.672C280.793 165.577 281.919 166.403 283.126 166.829C284.256 167.216 285.465 167.325 286.648 167.147C288.382 166.902 289.986 166.113 291.22 164.901C291.553 164.554 291.857 164.181 292.129 163.787C292.205 163.655 292.292 163.53 292.39 163.413Z" fill="#FAFAFA"/>
<path d="M310.689 193.46C310.654 193.363 310.629 193.262 310.615 193.159C310.564 192.912 310.486 192.521 310.398 191.991C310.214 191.061 309.981 189.676 309.356 188.116C309.017 187.273 308.559 186.494 307.998 185.808C307.365 185.014 306.547 184.422 305.631 184.094C304.674 183.757 303.582 183.73 302.458 183.748C301.333 183.767 300.134 183.82 298.933 183.474C297.731 183.128 296.7 182.361 295.851 181.54C295.001 180.72 294.259 179.799 293.551 178.969C292.167 177.309 290.693 175.969 289.184 175.568C287.675 175.166 286.385 175.604 285.699 176.143C285.014 176.681 284.817 177.191 284.766 177.191C284.75 177.191 284.8 177.064 284.917 176.835C285.106 176.52 285.343 176.242 285.617 176.014C286.309 175.412 287.657 174.911 289.249 175.285C290.84 175.66 292.399 177.054 293.807 178.714C294.532 179.544 295.257 180.429 296.098 181.231C296.94 182.033 297.905 182.754 299.031 183.067C301.297 183.696 303.677 182.957 305.742 183.733C306.71 184.086 307.571 184.721 308.235 185.569C308.807 186.291 309.268 187.11 309.6 187.995C310.217 189.609 310.4 191.005 310.542 191.95C310.608 192.433 310.651 192.798 310.671 193.053V193.108C310.692 193.224 310.699 193.342 310.689 193.46Z" fill="#FAFAFA"/>
<g opacity="0.3">
<path opacity="0.3" d="M304.814 179.586C304.816 179.587 304.817 179.588 304.817 179.59C304.818 179.591 304.818 179.593 304.818 179.595C304.818 179.596 304.818 179.598 304.817 179.6C304.817 179.601 304.816 179.602 304.814 179.604C304.778 180.169 304.692 180.73 304.56 181.281C304.511 181.559 304.403 181.824 304.242 182.057C304.16 182.172 304.044 182.26 303.911 182.309C303.778 182.359 303.633 182.369 303.495 182.337C303.161 182.241 303.003 181.865 302.924 181.534C302.676 180.517 302.667 179.457 302.899 178.436C303.131 177.415 303.597 176.462 304.26 175.649C304.269 175.629 304.281 175.612 304.296 175.596L304.454 175.43C304.463 175.447 304.463 175.474 304.471 175.492C304.515 175.641 304.55 175.792 304.576 175.945C304.849 177.139 304.929 178.367 304.814 179.586Z" fill="black"/>
</g>
</svg>
