<svg width="32" height="32" viewBox="0 0 32 32" fill="none" xmlns="http://www.w3.org/2000/svg">
<path d="M8.32 19.63V26C8.32 26.7771 8.6287 27.5223 9.17818 28.0718C9.72766 28.6213 10.4729 28.93 11.25 28.93H20.75C21.5271 28.93 22.2723 28.6213 22.8218 28.0718C23.3713 27.5223 23.68 26.7771 23.68 26V19.63C23.6799 18.8101 23.5142 17.9986 23.1929 17.2442C22.8715 16.4899 22.4012 15.8082 21.81 15.24C22.0948 15.0709 22.3311 14.8311 22.4958 14.5437C22.6605 14.2563 22.7481 13.9312 22.75 13.6V12.42C22.7469 11.9424 22.5659 11.483 22.2423 11.1317C21.9187 10.7804 21.4758 10.5623 21 10.52C20.9632 9.87216 20.7316 9.25055 20.3354 8.73663C19.9393 8.22272 19.3971 7.84047 18.78 7.64V5.93C18.779 5.52008 18.6883 5.11535 18.5143 4.7442C18.3403 4.37304 18.0872 4.04444 17.7728 3.78146C17.4583 3.51848 17.0902 3.32747 16.6941 3.22184C16.298 3.11621 15.8836 3.09852 15.48 3.17C14.814 3.29904 14.2145 3.65829 13.7867 4.18483C13.3589 4.71137 13.13 5.37164 13.14 6.05V7.62C12.5333 7.83249 12.0046 8.2228 11.6229 8.74007C11.2412 9.25734 11.0241 9.87759 11 10.52C10.5314 10.5716 10.0982 10.7937 9.78286 11.1441C9.46751 11.4945 9.29208 11.9486 9.29 12.42V13.6C9.29191 13.9312 9.37948 14.2563 9.54419 14.5437C9.70891 14.8311 9.94516 15.0709 10.23 15.24C9.63157 15.8048 9.1538 16.4849 8.82553 17.2394C8.49725 17.994 8.32528 18.8072 8.32 19.63ZM21.68 26C21.68 26.2467 21.582 26.4832 21.4076 26.6576C21.2332 26.832 20.9967 26.93 20.75 26.93H11.25C11.0033 26.93 10.7668 26.832 10.5924 26.6576C10.418 26.4832 10.32 26.2467 10.32 26V19.63C10.3226 18.5408 10.7565 17.4969 11.5267 16.7267C12.2969 15.9565 13.3408 15.5226 14.43 15.52H17.57C18.6592 15.5226 19.7031 15.9565 20.4733 16.7267C21.2435 17.4969 21.6774 18.5408 21.68 19.63V26ZM14.18 9.48C14.4452 9.48 14.6996 9.37464 14.8871 9.18711C15.0746 8.99957 15.18 8.74521 15.18 8.48V6.05C15.169 5.8442 15.2299 5.64098 15.352 5.47502C15.4742 5.30906 15.6502 5.19065 15.85 5.14C15.9695 5.11544 16.0932 5.11891 16.2111 5.15014C16.3291 5.18137 16.4383 5.23951 16.53 5.32C16.6194 5.39482 16.6916 5.48805 16.7416 5.59333C16.7917 5.69861 16.8184 5.81344 16.82 5.93V8.48C16.82 8.74521 16.9254 8.99957 17.1129 9.18711C17.3004 9.37464 17.5548 9.48 17.82 9.48C18.1073 9.48109 18.3855 9.58112 18.6077 9.76325C18.8299 9.94538 18.9825 10.1985 19.04 10.48H13C13.0453 10.2001 13.189 9.94548 13.4054 9.76214C13.6217 9.5788 13.8964 9.47874 14.18 9.48ZM11.25 13.48V12.48H20.75V13.48H11.25Z" fill="white"/>
<path d="M13.65 18.16H12.16C11.8948 18.16 11.6404 18.2654 11.4529 18.4529C11.2654 18.6404 11.16 18.8948 11.16 19.16C11.16 19.4252 11.2654 19.6796 11.4529 19.8671C11.6404 20.0546 11.8948 20.16 12.16 20.16H13.65C13.9152 20.16 14.1696 20.0546 14.3571 19.8671C14.5446 19.6796 14.65 19.4252 14.65 19.16C14.65 18.8948 14.5446 18.6404 14.3571 18.4529C14.1696 18.2654 13.9152 18.16 13.65 18.16Z" fill="white"/>
<path d="M13.65 21.17H12.16C11.8948 21.17 11.6404 21.2754 11.4529 21.4629C11.2654 21.6504 11.16 21.9048 11.16 22.17C11.16 22.4352 11.2654 22.6896 11.4529 22.8771C11.6404 23.0646 11.8948 23.17 12.16 23.17H13.65C13.9152 23.17 14.1696 23.0646 14.3571 22.8771C14.5446 22.6896 14.65 22.4352 14.65 22.17C14.65 21.9048 14.5446 21.6504 14.3571 21.4629C14.1696 21.2754 13.9152 21.17 13.65 21.17Z" fill="white"/>
<path d="M13.65 24.18H12.16C11.8948 24.18 11.6404 24.2854 11.4529 24.4729C11.2654 24.6604 11.16 24.9148 11.16 25.18C11.16 25.4452 11.2654 25.6996 11.4529 25.8871C11.6404 26.0746 11.8948 26.18 12.16 26.18H13.65C13.9152 26.18 14.1696 26.0746 14.3571 25.8871C14.5446 25.6996 14.65 25.4452 14.65 25.18C14.65 24.9148 14.5446 24.6604 14.3571 24.4729C14.1696 24.2854 13.9152 24.18 13.65 24.18Z" fill="white"/>
</svg>
