<svg width="32" height="32" viewBox="0 0 32 32" fill="none" xmlns="http://www.w3.org/2000/svg">
<path d="M7.75 28.93H24.25C25.0456 28.93 25.8087 28.6139 26.3713 28.0513C26.9339 27.4887 27.25 26.7256 27.25 25.93V6C27.25 5.20435 26.9339 4.44129 26.3713 3.87868C25.8087 3.31607 25.0456 3 24.25 3H7.75C6.95435 3 6.19129 3.31607 5.62868 3.87868C5.06607 4.44129 4.75 5.20435 4.75 6V26C4.76829 26.7835 5.09241 27.5287 5.65305 28.0762C6.21369 28.6238 6.96633 28.9302 7.75 28.93ZM24.25 26.93H7.75C7.48478 26.93 7.23043 26.8246 7.04289 26.6371C6.85536 26.4496 6.75 26.1952 6.75 25.93V11H25.22V26C25.2027 26.2478 25.0938 26.4803 24.9145 26.6522C24.7352 26.8241 24.4983 26.9232 24.25 26.93ZM7.75 5.07H24.25C24.5152 5.07 24.7696 5.17536 24.9571 5.36289C25.1446 5.55043 25.25 5.80478 25.25 6.07V9H6.78V6C6.79729 5.7522 6.9062 5.5197 7.08551 5.34779C7.26481 5.17587 7.50169 5.07685 7.75 5.07Z" fill="white"/>
<path d="M22.5 8.12C22.7116 8.12 22.9185 8.05724 23.0945 7.93967C23.2704 7.8221 23.4076 7.65498 23.4886 7.45947C23.5695 7.26395 23.5907 7.04881 23.5494 6.84125C23.5082 6.63369 23.4062 6.44303 23.2566 6.29339C23.107 6.14375 22.9163 6.04184 22.7087 6.00056C22.5012 5.95927 22.286 5.98046 22.0905 6.06145C21.895 6.14243 21.7279 6.27958 21.6103 6.45554C21.4928 6.6315 21.43 6.83837 21.43 7.05C21.43 7.33378 21.5427 7.60594 21.7434 7.8066C21.9441 8.00726 22.2162 8.12 22.5 8.12Z" fill="white"/>
<path d="M19.47 8.12C19.6816 8.12 19.8885 8.05724 20.0645 7.93967C20.2404 7.8221 20.3776 7.65498 20.4586 7.45947C20.5395 7.26395 20.5607 7.04881 20.5194 6.84125C20.4782 6.63369 20.3762 6.44303 20.2266 6.29339C20.077 6.14375 19.8863 6.04184 19.6787 6.00056C19.4712 5.95927 19.256 5.98046 19.0605 6.06145C18.865 6.14243 18.6979 6.27958 18.5803 6.45554C18.4628 6.6315 18.4 6.83837 18.4 7.05C18.4 7.33378 18.5127 7.60594 18.7134 7.8066C18.9141 8.00726 19.1862 8.12 19.47 8.12Z" fill="white"/>
<path d="M16 12.76C14.2451 12.7626 12.5628 13.461 11.3219 14.7019C10.081 15.9428 9.38265 17.6251 9.38 19.38C9.38 19.63 9.38 19.87 9.38 20.1C9.5189 21.3694 10.022 22.5714 10.8285 23.5614C11.6351 24.5513 12.7108 25.2869 13.9259 25.6794C15.141 26.0719 16.4437 26.1046 17.677 25.7735C18.9102 25.4425 20.0214 24.7618 20.8767 23.8136C21.7319 22.8654 22.2946 21.69 22.497 20.4292C22.6994 19.1685 22.5329 17.876 22.0175 16.7078C21.502 15.5395 20.6597 14.5452 19.592 13.8447C18.5244 13.1443 17.2769 12.7676 16 12.76ZM16 14.76C17.1659 14.7671 18.2863 15.2139 19.1372 16.011C19.9881 16.8082 20.5069 17.897 20.59 19.06C19.08 19.82 17.33 20.28 16.92 19.82C16.2365 19.0967 15.3563 18.5892 14.3879 18.36C13.4195 18.1307 12.4052 18.1899 11.47 18.53C11.6679 17.4724 12.2288 16.5171 13.0558 15.8289C13.8828 15.1406 14.9241 14.7626 16 14.76ZM16 24C14.9904 23.9948 14.0102 23.6599 13.2087 23.0461C12.4071 22.4323 11.8282 21.5733 11.56 20.6C12.56 20.25 14.28 19.86 15.43 21.15C15.7022 21.437 16.034 21.6609 16.4019 21.806C16.7699 21.9511 17.1652 22.0139 17.56 21.99C18.4345 21.9562 19.2969 21.7736 20.11 21.45C19.7275 22.2133 19.1409 22.8557 18.4154 23.3058C17.6899 23.756 16.8538 23.9962 16 24Z" fill="white"/>
</svg>
