<svg width="32" height="32" viewBox="0 0 32 32" fill="none" xmlns="http://www.w3.org/2000/svg">
<path d="M5.57 14.4C5.69061 14.6139 5.88568 14.7759 6.11804 14.8552C6.35041 14.9345 6.60382 14.9255 6.83 14.83L8.67 14.05V24.75C8.67 25.3689 8.91516 25.9626 9.35183 26.4011C9.78851 26.8397 10.3811 27.0874 11 27.09H20.83C21.4506 27.09 22.0458 26.8435 22.4846 26.4046C22.9235 25.9658 23.17 25.3706 23.17 24.75V14.07L25.06 14.9C25.2804 14.9962 25.5281 15.0097 25.7577 14.938C25.9873 14.8664 26.1834 14.7145 26.31 14.51L28.75 10.57C28.8797 10.3582 28.9259 10.1058 28.8797 9.86177C28.8335 9.61777 28.6981 9.39971 28.5 9.25L23.76 5.68C23.5374 5.43492 23.2656 5.23964 22.9623 5.10694C22.659 4.97425 22.3311 4.90713 22 4.91H18.6C18.466 4.90922 18.3332 4.93537 18.2095 4.98691C18.0859 5.03844 17.9738 5.11431 17.88 5.21C17.7879 5.30545 17.7157 5.41826 17.6677 5.54187C17.6196 5.66548 17.5966 5.79742 17.6 5.93C17.6011 6.09705 17.5689 6.26265 17.5054 6.41716C17.4419 6.57167 17.3483 6.712 17.23 6.83C17.1139 6.95145 16.9741 7.04783 16.8193 7.11319C16.6646 7.17854 16.498 7.21149 16.33 7.21H15.59C15.4219 7.20739 15.256 7.1717 15.1017 7.10495C14.9474 7.03821 14.8077 6.94172 14.6907 6.821C14.5737 6.70028 14.4816 6.55769 14.4197 6.40138C14.3578 6.24507 14.3274 6.0781 14.33 5.91C14.33 5.64478 14.2246 5.39043 14.0371 5.20289C13.8496 5.01536 13.5952 4.91 13.33 4.91H10C9.67558 4.90939 9.35451 4.97567 9.05685 5.10472C8.75919 5.23376 8.49133 5.42279 8.27 5.66L3.52 8.92C3.31621 9.06208 3.1726 9.27493 3.11714 9.51709C3.06168 9.75926 3.09835 10.0134 3.22 10.23L5.57 14.4ZM9.46 7.24C9.54239 7.17175 9.61329 7.09072 9.67 7C9.71371 6.95955 9.76653 6.93025 9.82398 6.91458C9.88143 6.89891 9.94181 6.89734 10 6.91H12.5C12.705 7.57515 13.1174 8.15724 13.677 8.57109C14.2366 8.98495 14.914 9.20884 15.61 9.21H16.35C17.0485 9.21417 17.7296 8.99249 18.2919 8.57802C18.8541 8.16354 19.2674 7.57847 19.47 6.91H22C22.0535 6.90215 22.1082 6.90614 22.16 6.92169C22.2118 6.93724 22.2596 6.96397 22.3 7C22.3489 7.06394 22.4061 7.1211 22.47 7.17L26.58 10.26L25.08 12.68L22.58 11.59C22.4288 11.525 22.264 11.4982 22.1 11.5122C21.936 11.5261 21.778 11.5803 21.64 11.67C21.4992 11.7604 21.3833 11.8846 21.3029 12.0314C21.2225 12.1781 21.1803 12.3427 21.18 12.51V24.71C21.18 24.8002 21.1442 24.8867 21.0804 24.9504C21.0167 25.0142 20.9302 25.05 20.84 25.05H11C10.9098 25.05 10.8233 25.0142 10.7596 24.9504C10.6958 24.8867 10.66 24.8002 10.66 24.71V12.55C10.6608 12.3836 10.6201 12.2196 10.5415 12.073C10.4629 11.9263 10.349 11.8015 10.21 11.71C10.0462 11.6042 9.85502 11.5486 9.66 11.55C9.52569 11.5476 9.39251 11.5749 9.27 11.63L6.86 12.63L5.41 10L9.46 7.24Z" fill="white"/>
</svg>
