<svg width="32" height="32" viewBox="0 0 32 32" fill="none" xmlns="http://www.w3.org/2000/svg">
<path d="M25.45 22.82C25.3 20.82 23.15 19.28 20.4 19.28H19.97C18.8152 18.2761 17.3299 17.7347 15.8 17.76C14.2704 17.7366 12.7858 18.2778 11.63 19.28H11.2C8.45 19.28 6.3 20.82 6.2 22.82C6.0296 22.8511 5.87021 22.9259 5.73743 23.0372C5.60466 23.1484 5.50305 23.2922 5.44256 23.4545C5.38208 23.6168 5.36479 23.7921 5.39238 23.9631C5.41998 24.1341 5.49152 24.295 5.6 24.43L8.6 28.09C8.69402 28.2029 8.81176 28.2937 8.94484 28.3559C9.07793 28.4181 9.22309 28.4502 9.37 28.45H22.37C22.5169 28.4502 22.6621 28.4181 22.7951 28.3559C22.9282 28.2937 23.046 28.2029 23.14 28.09L26.14 24.43C26.2485 24.295 26.32 24.1341 26.3476 23.9631C26.3752 23.7921 26.3579 23.6168 26.2974 23.4545C26.2369 23.2922 26.1353 23.1484 26.0026 23.0372C25.8698 22.9259 25.7104 22.8511 25.54 22.82H25.45ZM11.2 21.28C11.4164 21.2644 11.6336 21.2644 11.85 21.28C12.0156 21.3048 12.1849 21.2875 12.3421 21.2299C12.4994 21.1722 12.6396 21.076 12.75 20.95C13.1482 20.5493 13.6243 20.2344 14.1488 20.0245C14.6733 19.8147 15.2353 19.7145 15.8 19.73C16.3683 19.721 16.9324 19.8291 17.4572 20.0476C17.9819 20.2661 18.456 20.5903 18.85 21C18.9604 21.126 19.1006 21.2222 19.2579 21.2799C19.4151 21.3375 19.5843 21.3548 19.75 21.33C19.9664 21.3144 20.1836 21.3144 20.4 21.33C22.04 21.33 23.22 22.09 23.4 22.85H8.17C8.38 22 9.56 21.28 11.2 21.28ZM21.81 26.45H9.8L8.44 24.8H23.16L21.81 26.45Z" fill="white"/>
<path d="M22.8 8.12C23.0054 7.9153 23.1715 7.67465 23.29 7.41C23.4424 7.08828 23.53 6.73968 23.5476 6.38411C23.5653 6.02854 23.5127 5.67298 23.3929 5.33773C23.2731 5.00248 23.0885 4.69413 22.8495 4.43028C22.6105 4.16643 22.3218 3.95226 22 3.8C21.3462 3.49689 20.5988 3.46565 19.9219 3.71314C19.2451 3.96063 18.6941 4.46662 18.39 5.12C18.2694 5.38606 18.1917 5.66959 18.16 5.96C17.0744 5.65574 15.9396 5.56741 14.82 5.7C13.3173 5.88083 11.8856 6.44234 10.6606 7.33134C9.43557 8.22033 8.45784 9.40738 7.82 10.78C7.76454 10.8995 7.73322 11.0287 7.72785 11.1603C7.72247 11.2919 7.74314 11.4232 7.78867 11.5468C7.8342 11.6704 7.90369 11.7838 7.99316 11.8804C8.08262 11.9771 8.1903 12.0551 8.31 12.11L24.64 19.68C24.7724 19.7383 24.9153 19.769 25.06 19.77C25.1792 19.7696 25.2975 19.7494 25.41 19.71C25.6581 19.6176 25.8595 19.4306 25.97 19.19C26.8368 17.2681 26.9939 15.101 26.4135 13.0741C25.8331 11.0472 24.5527 9.29184 22.8 8.12ZM20.17 6C20.2293 5.8757 20.323 5.771 20.4399 5.69833C20.5569 5.62566 20.6923 5.58806 20.83 5.59C20.9329 5.59052 21.0348 5.61089 21.13 5.65C21.2904 5.71994 21.4213 5.84375 21.5 6C21.5371 6.08693 21.5563 6.18047 21.5563 6.275C21.5563 6.36953 21.5371 6.46307 21.5 6.55C21.4594 6.64043 21.4008 6.72165 21.3277 6.78869C21.2547 6.85573 21.1688 6.9072 21.0752 6.93995C20.9817 6.9727 20.8824 6.98604 20.7835 6.97918C20.6846 6.97231 20.5881 6.94537 20.5 6.9C20.329 6.81537 20.1967 6.66875 20.13 6.49C20.0836 6.3272 20.0979 6.15313 20.17 6ZM24.39 17.46L10 10.76C10.8891 9.40462 12.2275 8.40609 13.78 7.94V9.26C13.78 9.52522 13.8854 9.77957 14.0729 9.96711C14.2604 10.1546 14.5148 10.26 14.78 10.26C15.0452 10.26 15.2996 10.1546 15.4871 9.96711C15.6746 9.77957 15.78 9.52522 15.78 9.26V7.64C16.7846 7.63312 17.7782 7.84824 18.69 8.27L20.69 9.19C22.1893 9.89235 23.387 11.1089 24.0659 12.619C24.7448 14.129 24.8598 15.8324 24.39 17.42V17.46Z" fill="white"/>
</svg>
