<svg width="32" height="32" viewBox="0 0 32 32" fill="none" xmlns="http://www.w3.org/2000/svg">
<path d="M5.53999 6.45V25.55C5.53999 26.267 5.82413 26.9548 6.33019 27.4627C6.83626 27.9707 7.52299 28.2574 8.23999 28.26H23.76C24.477 28.2574 25.1637 27.9707 25.6698 27.4627C26.1759 26.9548 26.46 26.267 26.46 25.55V6.45C26.46 5.73299 26.1759 5.0452 25.6698 4.53727C25.1637 4.02933 24.477 3.74264 23.76 3.74H8.23999C7.52299 3.74264 6.83626 4.02933 6.33019 4.53727C5.82413 5.0452 5.53999 5.73299 5.53999 6.45ZM7.53999 6.45C7.53867 6.35723 7.5558 6.26513 7.59038 6.17905C7.62496 6.09296 7.67632 6.01461 7.74145 5.94855C7.80658 5.88248 7.8842 5.83002 7.96978 5.79422C8.05537 5.75842 8.14722 5.73999 8.23999 5.74H23.76C23.8528 5.73999 23.9446 5.75842 24.0302 5.79422C24.1158 5.83002 24.1934 5.88248 24.2585 5.94855C24.3237 6.01461 24.375 6.09296 24.4096 6.17905C24.4442 6.26513 24.4613 6.35723 24.46 6.45V25.55C24.4613 25.6428 24.4442 25.7349 24.4096 25.8209C24.375 25.907 24.3237 25.9854 24.2585 26.0515C24.1934 26.1175 24.1158 26.17 24.0302 26.2058C23.9446 26.2416 23.8528 26.26 23.76 26.26H8.23999C8.14722 26.26 8.05537 26.2416 7.96978 26.2058C7.8842 26.17 7.80658 26.1175 7.74145 26.0515C7.67632 25.9854 7.62496 25.907 7.59038 25.8209C7.5558 25.7349 7.53867 25.6428 7.53999 25.55V6.45Z" fill="white"/>
<path d="M9.9 14.46H22.39C22.6552 14.46 22.9096 14.3546 23.0971 14.1671C23.2846 13.9796 23.39 13.7252 23.39 13.46V7.57C23.39 7.30478 23.2846 7.05043 23.0971 6.86289C22.9096 6.67536 22.6552 6.57 22.39 6.57H9.9C9.63479 6.57 9.38043 6.67536 9.19289 6.86289C9.00536 7.05043 8.9 7.30478 8.9 7.57V13.46C8.9 13.7252 9.00536 13.9796 9.19289 14.1671C9.38043 14.3546 9.63479 14.46 9.9 14.46ZM10.9 8.57H21.39V12.46H10.9V8.57Z" fill="white"/>
<path d="M10.68 14.99H9.85C9.29771 14.99 8.85 15.4377 8.85 15.99V16.82C8.85 17.3723 9.29771 17.82 9.85 17.82H10.68C11.2323 17.82 11.68 17.3723 11.68 16.82V15.99C11.68 15.4377 11.2323 14.99 10.68 14.99Z" fill="white"/>
<path d="M14.56 14.99H13.73C13.1777 14.99 12.73 15.4377 12.73 15.99V16.82C12.73 17.3723 13.1777 17.82 13.73 17.82H14.56C15.1123 17.82 15.56 17.3723 15.56 16.82V15.99C15.56 15.4377 15.1123 14.99 14.56 14.99Z" fill="white"/>
<path d="M18.44 14.99H17.61C17.0577 14.99 16.61 15.4377 16.61 15.99V16.82C16.61 17.3723 17.0577 17.82 17.61 17.82H18.44C18.9923 17.82 19.44 17.3723 19.44 16.82V15.99C19.44 15.4377 18.9923 14.99 18.44 14.99Z" fill="white"/>
<path d="M10.68 18.63H9.85C9.29771 18.63 8.85 19.0777 8.85 19.63V20.46C8.85 21.0123 9.29771 21.46 9.85 21.46H10.68C11.2323 21.46 11.68 21.0123 11.68 20.46V19.63C11.68 19.0777 11.2323 18.63 10.68 18.63Z" fill="white"/>
<path d="M14.56 18.63H13.73C13.1777 18.63 12.73 19.0777 12.73 19.63V20.46C12.73 21.0123 13.1777 21.46 13.73 21.46H14.56C15.1123 21.46 15.56 21.0123 15.56 20.46V19.63C15.56 19.0777 15.1123 18.63 14.56 18.63Z" fill="white"/>
<path d="M18.44 18.63H17.61C17.0577 18.63 16.61 19.0777 16.61 19.63V20.46C16.61 21.0123 17.0577 21.46 17.61 21.46H18.44C18.9923 21.46 19.44 21.0123 19.44 20.46V19.63C19.44 19.0777 18.9923 18.63 18.44 18.63Z" fill="white"/>
<path d="M10.68 22.26H9.85C9.29771 22.26 8.85 22.7077 8.85 23.26V24.09C8.85 24.6423 9.29771 25.09 9.85 25.09H10.68C11.2323 25.09 11.68 24.6423 11.68 24.09V23.26C11.68 22.7077 11.2323 22.26 10.68 22.26Z" fill="white"/>
<path d="M14.56 22.26H13.73C13.1777 22.26 12.73 22.7077 12.73 23.26V24.09C12.73 24.6423 13.1777 25.09 13.73 25.09H14.56C15.1123 25.09 15.56 24.6423 15.56 24.09V23.26C15.56 22.7077 15.1123 22.26 14.56 22.26Z" fill="white"/>
<path d="M18.44 22.26H17.61C17.0577 22.26 16.61 22.7077 16.61 23.26V24.09C16.61 24.6423 17.0577 25.09 17.61 25.09H18.44C18.9923 25.09 19.44 24.6423 19.44 24.09V23.26C19.44 22.7077 18.9923 22.26 18.44 22.26Z" fill="white"/>
<path d="M22.31 15.01H21.48C20.9277 15.01 20.48 15.4577 20.48 16.01V16.84C20.48 17.3923 20.9277 17.84 21.48 17.84H22.31C22.8623 17.84 23.31 17.3923 23.31 16.84V16.01C23.31 15.4577 22.8623 15.01 22.31 15.01Z" fill="white"/>
<path d="M22.31 18.74H21.48C20.9277 18.74 20.48 19.1877 20.48 19.74V24.09C20.48 24.6423 20.9277 25.09 21.48 25.09H22.31C22.8623 25.09 23.31 24.6423 23.31 24.09V19.74C23.31 19.1877 22.8623 18.74 22.31 18.74Z" fill="white"/>
</svg>
