<svg width="32" height="32" viewBox="0 0 32 32" fill="none" xmlns="http://www.w3.org/2000/svg">
<path d="M17.71 3.45C14.9126 3.45794 12.2328 4.57661 10.26 6.56C10.192 6.36693 10.0663 6.19938 9.9 6.08L7.05 4.08C6.89974 3.97032 6.72187 3.90473 6.53638 3.8906C6.35089 3.87646 6.16514 3.91435 6 4C5.83695 4.08447 5.70031 4.2122 5.60506 4.36919C5.5098 4.52619 5.45962 4.70637 5.46 4.89V10C5.20888 10.0202 4.97463 10.1343 4.80406 10.3197C4.6335 10.5051 4.53919 10.7481 4.54 11V13.4C4.31072 13.4468 4.1051 13.5724 3.95893 13.7551C3.81275 13.9379 3.73528 14.1661 3.74 14.4V26.4C3.73999 26.9738 3.96724 27.5242 4.37204 27.9309C4.77683 28.3376 5.32621 28.5674 5.9 28.57H9.9C10.2001 28.5687 10.4966 28.5039 10.77 28.38C10.8629 28.4152 10.9608 28.4355 11.06 28.44H23.1C24.1386 28.4402 25.1478 28.0956 25.9695 27.4604C26.7911 26.8252 27.3787 25.9352 27.64 24.93L27.92 23.81C27.9589 23.6596 27.9623 23.5022 27.9298 23.3503C27.8973 23.1984 27.8298 23.0561 27.7328 22.9348C27.6357 22.8135 27.5117 22.7165 27.3706 22.6514C27.2296 22.5863 27.0753 22.555 26.92 22.56H23.87C25.6866 21.2594 27.0429 19.4152 27.7432 17.2936C28.4435 15.172 28.4515 12.8828 27.7661 10.7563C27.0806 8.62987 25.7372 6.77624 23.9297 5.463C22.1222 4.14976 19.9442 3.44484 17.71 3.45ZM6.55 12H9.25V13.36H6.55V12ZM7.47 6.84L8.33 7.44V10H7.47V6.84ZM9.89 26.55H5.89C5.84667 26.5474 5.80595 26.5284 5.7762 26.4968C5.74646 26.4652 5.72992 26.4234 5.73 26.38V15.38H10.03V26.38C10.0306 26.4203 10.0169 26.4596 9.99125 26.4907C9.9656 26.5219 9.92971 26.5429 9.89 26.55ZM25.66 24.55C25.4894 25.0953 25.149 25.5719 24.6885 25.9101C24.228 26.2483 23.6714 26.4305 23.1 26.43H12.1V24.54L25.66 24.55ZM17.71 22.55C15.6221 22.5496 13.6073 21.7807 12.05 20.39V14.39C12.0547 14.1561 11.9772 13.9279 11.8311 13.7451C11.6849 13.5624 11.4793 13.4368 11.25 13.39V11C11.2508 10.7481 11.1565 10.5051 10.9859 10.3197C10.8154 10.1343 10.5811 10.0202 10.33 10V9.67L10.38 9.62C11.1461 8.3377 12.2351 7.27876 13.5384 6.54889C14.8417 5.81902 16.3136 5.44375 17.8072 5.46054C19.3009 5.47733 20.764 5.88559 22.0505 6.64457C23.337 7.40355 24.402 8.4867 25.1391 9.7859C25.8762 11.0851 26.2596 12.5549 26.2511 14.0486C26.2426 15.5423 25.8425 17.0077 25.0906 18.2984C24.3388 19.5891 23.2616 20.6601 21.9665 21.4044C20.6714 22.1486 19.2037 22.5402 17.71 22.54V22.55Z" fill="white"/>
<path d="M22.66 15.86C22.2952 16.7994 21.655 17.6066 20.8235 18.1759C19.9919 18.7451 19.0077 19.0498 18 19.05C17.7348 19.05 17.4804 19.1554 17.2929 19.3429C17.1054 19.5304 17 19.7848 17 20.05C17 20.3152 17.1054 20.5696 17.2929 20.7571C17.4804 20.9446 17.7348 21.05 18 21.05C19.4163 21.0575 20.8015 20.6352 21.9727 19.8389C23.144 19.0426 24.0461 17.9098 24.56 16.59C24.6087 16.4679 24.6329 16.3374 24.6311 16.2059C24.6293 16.0744 24.6016 15.9446 24.5496 15.8239C24.4976 15.7031 24.4223 15.5938 24.3279 15.5022C24.2336 15.4106 24.1222 15.3385 24 15.29C23.8751 15.2352 23.7403 15.2066 23.6039 15.2058C23.4675 15.205 23.3324 15.2322 23.2069 15.2856C23.0814 15.339 22.9681 15.4175 22.8741 15.5162C22.78 15.615 22.7072 15.732 22.66 15.86Z" fill="white"/>
</svg>
