<svg width="32" height="32" viewBox="0 0 32 32" fill="none" xmlns="http://www.w3.org/2000/svg">
<path d="M5.68 17.34C5.13499 19.6753 5.13499 22.1047 5.68 24.44C5.78677 24.8949 6.01837 25.3109 6.34874 25.6413C6.67912 25.9716 7.09514 26.2032 7.55 26.31C9.81273 26.8524 12.1696 26.8695 14.44 26.36C14.5898 26.356 14.7367 26.3184 14.87 26.25C17.6273 25.5802 20.1506 24.1734 22.17 22.18C24.1754 20.1547 25.5896 17.6202 26.26 14.85C26.2813 14.788 26.298 14.7245 26.31 14.66C26.855 12.3247 26.855 9.89529 26.31 7.56C26.2032 7.10515 25.9716 6.68912 25.6413 6.35875C25.3109 6.02838 24.8949 5.79677 24.44 5.69C22.1115 5.14488 19.6885 5.14488 17.36 5.69C17.2881 5.69711 17.2174 5.71393 17.15 5.74C14.3761 6.39672 11.8392 7.81144 9.82265 9.82624C7.80608 11.841 6.38914 14.3766 5.73 17.15C5.70867 17.212 5.69196 17.2755 5.68 17.34ZM8.02 24.34C7.93156 24.3237 7.84932 24.2833 7.78229 24.2233C7.71526 24.1634 7.66603 24.0861 7.64 24C7.30359 22.5829 7.1989 21.1206 7.33 19.67L12.33 24.67C10.8794 24.8011 9.41713 24.6964 8 24.36L8.02 24.34ZM20.87 7.27C21.9244 7.26741 22.9753 7.39163 24 7.64C24.0935 7.65944 24.1792 7.70575 24.2467 7.77326C24.3142 7.84077 24.3606 7.92653 24.38 8.02C24.7164 9.43714 24.8211 10.8994 24.69 12.35L19.69 7.35C20.05 7.29 20.46 7.27 20.87 7.27ZM11.24 11.27C12.9042 9.61125 14.9723 8.41522 17.24 7.8L24.24 14.8C23.6248 17.0729 22.425 19.145 20.76 20.81C19.095 22.475 17.0229 23.6748 14.75 24.29L7.75 17.29C8.36854 15.0046 9.57131 12.9196 11.24 11.24V11.27Z" fill="white"/>
<path d="M11.21 16.77L12.51 18.07L12.07 18.51C11.9763 18.603 11.9019 18.7136 11.8511 18.8354C11.8003 18.9573 11.7742 19.088 11.7742 19.22C11.7742 19.352 11.8003 19.4827 11.8511 19.6046C11.9019 19.7264 11.9763 19.837 12.07 19.93C12.1634 20.0227 12.2743 20.096 12.3961 20.1458C12.5179 20.1955 12.6484 20.2208 12.78 20.22C12.9116 20.2208 13.0421 20.1955 13.1639 20.1458C13.2857 20.096 13.3966 20.0227 13.49 19.93L13.93 19.49L15.23 20.79C15.4163 20.9747 15.6677 21.0789 15.93 21.08C16.0616 21.0808 16.1921 21.0555 16.3139 21.0058C16.4357 20.956 16.5466 20.8827 16.64 20.79C16.7337 20.697 16.8081 20.5864 16.8589 20.4646C16.9097 20.3427 16.9358 20.212 16.9358 20.08C16.9358 19.948 16.9097 19.8173 16.8589 19.6954C16.8081 19.5736 16.7337 19.463 16.64 19.37L15.34 18.07L16.03 17.38L17.33 18.68C17.504 18.8687 17.7439 18.9833 18 19C18.1966 18.9992 18.3886 18.9405 18.5519 18.8311C18.7153 18.7218 18.8429 18.5668 18.9186 18.3854C18.9944 18.204 19.015 18.0043 18.9779 17.8113C18.9408 17.6182 18.8476 17.4404 18.71 17.3L17.45 16L18.07 15.37L19.37 16.67C19.4634 16.7627 19.5743 16.836 19.6961 16.8858C19.8179 16.9355 19.9484 16.9608 20.08 16.96C20.2116 16.9608 20.3421 16.9355 20.4639 16.8858C20.5857 16.836 20.6966 16.7627 20.79 16.67C20.9762 16.4826 21.0808 16.2292 21.0808 15.965C21.0808 15.7008 20.9762 15.4474 20.79 15.26L19.49 13.96L19.99 13.45C20.0852 13.3574 20.1612 13.247 20.2138 13.125C20.2663 13.0031 20.2943 12.8719 20.2962 12.7391C20.298 12.6064 20.2737 12.4745 20.2246 12.3511C20.1755 12.2277 20.1026 12.1152 20.01 12.02C19.9174 11.9248 19.807 11.8488 19.685 11.7962C19.563 11.7437 19.4319 11.7157 19.2991 11.7138C19.1664 11.712 19.0345 11.7363 18.9111 11.7854C18.7877 11.8345 18.6752 11.9074 18.58 12L18.07 12.5L16.77 11.2C16.5826 11.0138 16.3292 10.9092 16.065 10.9092C15.8008 10.9092 15.5474 11.0138 15.36 11.2C15.2663 11.293 15.1919 11.4036 15.1411 11.5254C15.0903 11.6473 15.0642 11.778 15.0642 11.91C15.0642 12.042 15.0903 12.1727 15.1411 12.2946C15.1919 12.4164 15.2663 12.527 15.36 12.62L16.66 13.92L16.03 14.54L14.73 13.24C14.5426 13.0538 14.2892 12.9492 14.025 12.9492C13.7608 12.9492 13.5074 13.0538 13.32 13.24C13.2263 13.333 13.1519 13.4436 13.1011 13.5654C13.0503 13.6873 13.0242 13.818 13.0242 13.95C13.0242 14.082 13.0503 14.2127 13.1011 14.3346C13.1519 14.4564 13.2263 14.567 13.32 14.66L14.62 15.96L13.93 16.65L12.63 15.35C12.537 15.2563 12.4264 15.1819 12.3046 15.1311C12.1827 15.0803 12.052 15.0542 11.92 15.0542C11.788 15.0542 11.6573 15.0803 11.5354 15.1311C11.4136 15.1819 11.303 15.2563 11.21 15.35C11.1163 15.443 11.0419 15.5536 10.9911 15.6754C10.9403 15.7973 10.9142 15.928 10.9142 16.06C10.9142 16.192 10.9403 16.3227 10.9911 16.4446C11.0419 16.5664 11.1163 16.677 11.21 16.77Z" fill="white"/>
</svg>
