<svg width="32" height="32" viewBox="0 0 32 32" fill="none" xmlns="http://www.w3.org/2000/svg">
<path d="M18.56 11.63C18.6537 11.537 18.7281 11.4264 18.7789 11.3046C18.8297 11.1827 18.8558 11.052 18.8558 10.92C18.8558 10.788 18.8297 10.6573 18.7789 10.5354C18.7281 10.4136 18.6537 10.303 18.56 10.21C18.3726 10.0237 18.1192 9.91921 17.855 9.91921C17.5908 9.91921 17.3374 10.0237 17.15 10.21L10.3 17.06C9.99099 17.3684 9.74583 17.7347 9.57856 18.1379C9.41129 18.5412 9.32519 18.9734 9.32519 19.41C9.32519 19.8466 9.41129 20.2788 9.57856 20.6821C9.74583 21.0853 9.99099 21.4516 10.3 21.76C10.9315 22.3674 11.7738 22.7067 12.65 22.7067C13.5262 22.7067 14.3685 22.3674 15 21.76L22.29 14.48C23.3296 13.4403 23.9137 12.0303 23.9137 10.56C23.9137 9.08971 23.3296 7.67965 22.29 6.64C21.2504 5.60035 19.8403 5.01628 18.37 5.01628C16.8997 5.01628 15.4896 5.60035 14.45 6.64L7.05 14C5.62181 15.4242 4.81788 17.3574 4.81507 19.3744C4.81225 21.3913 5.61079 23.3268 7.035 24.755C8.45921 26.1832 10.3924 26.9871 12.4094 26.9899C14.4263 26.9927 16.3618 26.1942 17.79 24.77L26.88 15.68C26.9732 15.5868 27.0472 15.4761 27.0977 15.3542C27.1481 15.2324 27.1741 15.1019 27.1741 14.97C27.1741 14.8381 27.1481 14.7076 27.0977 14.5857C27.0472 14.4639 26.9732 14.3532 26.88 14.26C26.7868 14.1668 26.6761 14.0928 26.5542 14.0423C26.4324 13.9919 26.3019 13.9659 26.17 13.9659C26.0381 13.9659 25.9076 13.9919 25.7858 14.0423C25.6639 14.0928 25.5532 14.1668 25.46 14.26L16.38 23.35C15.3311 24.3989 13.9084 24.9882 12.425 24.9882C10.9416 24.9882 9.51893 24.3989 8.47 23.35C7.42107 22.3011 6.83179 20.8784 6.83179 19.395C6.83179 17.9116 7.42107 16.4889 8.47 15.44L15.86 8.05C16.5335 7.40692 17.4288 7.04809 18.36 7.04809C19.2912 7.04809 20.1865 7.40692 20.86 8.05C21.5219 8.71362 21.8937 9.61268 21.8937 10.55C21.8937 11.4873 21.5219 12.3864 20.86 13.05L13.58 20.34C13.3258 20.5798 12.9895 20.7134 12.64 20.7134C12.2905 20.7134 11.9542 20.5798 11.7 20.34C11.4556 20.0881 11.319 19.7509 11.319 19.4C11.319 19.049 11.4556 18.7119 11.7 18.46L18.56 11.63Z" fill="white"/>
</svg>
