<svg width="399" height="98" viewBox="0 0 399 98" fill="none" xmlns="http://www.w3.org/2000/svg">
<g filter="url(#filter0_d)">
<rect x="11" y="11" width="369" height="68" rx="6" fill="url(#paint0_radial)"/>
</g>
<path d="M142.156 50.4844H135.992L134.82 54H131.082L137.434 36.9375H140.691L147.078 54H143.34L142.156 50.4844ZM136.941 47.6367H141.207L139.062 41.25L136.941 47.6367ZM152.293 38.2031V41.3203H154.461V43.8047H152.293V50.1328C152.293 50.6016 152.383 50.9375 152.562 51.1406C152.742 51.3438 153.086 51.4453 153.594 51.4453C153.969 51.4453 154.301 51.418 154.59 51.3633V53.9297C153.926 54.1328 153.242 54.2344 152.539 54.2344C150.164 54.2344 148.953 53.0352 148.906 50.6367V43.8047H147.055V41.3203H148.906V38.2031H152.293ZM163.941 52.7109C163.105 53.7266 161.949 54.2344 160.473 54.2344C159.113 54.2344 158.074 53.8438 157.355 53.0625C156.645 52.2812 156.281 51.1367 156.266 49.6289V41.3203H159.652V49.5117C159.652 50.832 160.254 51.4922 161.457 51.4922C162.605 51.4922 163.395 51.0938 163.824 50.2969V41.3203H167.223V54H164.035L163.941 52.7109ZM176.902 44.4961C176.441 44.4336 176.035 44.4023 175.684 44.4023C174.402 44.4023 173.562 44.8359 173.164 45.7031V54H169.777V41.3203H172.977L173.07 42.832C173.75 41.668 174.691 41.0859 175.895 41.0859C176.27 41.0859 176.621 41.1367 176.949 41.2383L176.902 44.4961ZM188.258 47.9883V54H184.742V36.9375H191.398C192.68 36.9375 193.805 37.1719 194.773 37.6406C195.75 38.1094 196.5 38.7773 197.023 39.6445C197.547 40.5039 197.809 41.4844 197.809 42.5859C197.809 44.2578 197.234 45.5781 196.086 46.5469C194.945 47.5078 193.363 47.9883 191.34 47.9883H188.258ZM188.258 45.1406H191.398C192.328 45.1406 193.035 44.9219 193.52 44.4844C194.012 44.0469 194.258 43.4219 194.258 42.6094C194.258 41.7734 194.012 41.0977 193.52 40.582C193.027 40.0664 192.348 39.8008 191.48 39.7852H188.258V45.1406ZM207.137 44.4961C206.676 44.4336 206.27 44.4023 205.918 44.4023C204.637 44.4023 203.797 44.8359 203.398 45.7031V54H200.012V41.3203H203.211L203.305 42.832C203.984 41.668 204.926 41.0859 206.129 41.0859C206.504 41.0859 206.855 41.1367 207.184 41.2383L207.137 44.4961ZM207.828 47.543C207.828 46.2852 208.07 45.1641 208.555 44.1797C209.039 43.1953 209.734 42.4336 210.641 41.8945C211.555 41.3555 212.613 41.0859 213.816 41.0859C215.527 41.0859 216.922 41.6094 218 42.6562C219.086 43.7031 219.691 45.125 219.816 46.9219L219.84 47.7891C219.84 49.7344 219.297 51.2969 218.211 52.4766C217.125 53.6484 215.668 54.2344 213.84 54.2344C212.012 54.2344 210.551 53.6484 209.457 52.4766C208.371 51.3047 207.828 49.7109 207.828 47.6953V47.543ZM211.215 47.7891C211.215 48.9922 211.441 49.9141 211.895 50.5547C212.348 51.1875 212.996 51.5039 213.84 51.5039C214.66 51.5039 215.301 51.1914 215.762 50.5664C216.223 49.9336 216.453 48.9258 216.453 47.543C216.453 46.3633 216.223 45.4492 215.762 44.8008C215.301 44.1523 214.652 43.8281 213.816 43.8281C212.988 43.8281 212.348 44.1523 211.895 44.8008C211.441 45.4414 211.215 46.4375 211.215 47.7891ZM221.398 47.5664C221.398 45.5898 221.84 44.0156 222.723 42.8438C223.613 41.6719 224.828 41.0859 226.367 41.0859C227.602 41.0859 228.621 41.5469 229.426 42.4688V36H232.824V54H229.766L229.602 52.6523C228.758 53.707 227.672 54.2344 226.344 54.2344C224.852 54.2344 223.652 53.6484 222.746 52.4766C221.848 51.2969 221.398 49.6602 221.398 47.5664ZM224.785 47.8125C224.785 49 224.992 49.9102 225.406 50.543C225.82 51.1758 226.422 51.4922 227.211 51.4922C228.258 51.4922 228.996 51.0508 229.426 50.168V45.1641C229.004 44.2812 228.273 43.8398 227.234 43.8398C225.602 43.8398 224.785 45.1641 224.785 47.8125ZM243.043 52.7109C242.207 53.7266 241.051 54.2344 239.574 54.2344C238.215 54.2344 237.176 53.8438 236.457 53.0625C235.746 52.2812 235.383 51.1367 235.367 49.6289V41.3203H238.754V49.5117C238.754 50.832 239.355 51.4922 240.559 51.4922C241.707 51.4922 242.496 51.0938 242.926 50.2969V41.3203H246.324V54H243.137L243.043 52.7109ZM253.484 48.9141L252.266 50.1328V54H248.879V36H252.266V45.9727L252.922 45.1289L256.168 41.3203H260.234L255.652 46.6055L260.633 54H256.742L253.484 48.9141Z" fill="white"/>
<path d="M58 46H76V54.002C76 54.553 75.555 55 75.007 55H58.993C58.8623 54.9997 58.7328 54.9737 58.6122 54.9234C58.4915 54.8731 58.3819 54.7995 58.2897 54.7068C58.1974 54.6141 58.1244 54.5042 58.0747 54.3832C58.025 54.2623 57.9996 54.1328 58 54.002V46ZM58 35.998C58 35.447 58.445 35 58.993 35H75.007C75.555 35 76 35.446 76 35.998V44H58V35.998ZM64 38V40H70V38H64ZM64 49V51H70V49H64Z" fill="white"/>
<defs>
<filter id="filter0_d" x="0" y="0" width="399" height="98" filterUnits="userSpaceOnUse" color-interpolation-filters="sRGB">
<feFlood flood-opacity="0" result="BackgroundImageFix"/>
<feColorMatrix in="SourceAlpha" type="matrix" values="0 0 0 0 0 0 0 0 0 0 0 0 0 0 0 0 0 0 127 0"/>
<feOffset dx="4" dy="4"/>
<feGaussianBlur stdDeviation="7.5"/>
<feColorMatrix type="matrix" values="0 0 0 0 0 0 0 0 0 0 0 0 0 0 0 0 0 0 0.78 0"/>
<feBlend mode="normal" in2="BackgroundImageFix" result="effect1_dropShadow"/>
<feBlend mode="normal" in="SourceGraphic" in2="effect1_dropShadow" result="shape"/>
</filter>
<radialGradient id="paint0_radial" cx="0" cy="0" r="1" gradientUnits="userSpaceOnUse" gradientTransform="translate(-16.3832 105.297) rotate(-13.0906) scale(394.054 819.976)">
<stop stop-color="#232323"/>
<stop offset="0.427083" stop-color="#353535"/>
<stop offset="0.776042" stop-color="#1C1C1D"/>
<stop offset="1" stop-color="#252526"/>
</radialGradient>
</defs>
</svg>
