<svg width="399" height="98" viewBox="0 0 399 98" fill="none" xmlns="http://www.w3.org/2000/svg">
<g filter="url(#filter0_d)">
<rect x="11" y="11" width="369" height="68" rx="6" fill="url(#paint0_radial)"/>
</g>
<path d="M144.207 50.4844H138.043L136.871 54H133.133L139.484 36.9375H142.742L149.129 54H145.391L144.207 50.4844ZM138.992 47.6367H143.258L141.113 41.25L138.992 47.6367ZM154.344 38.2031V41.3203H156.512V43.8047H154.344V50.1328C154.344 50.6016 154.434 50.9375 154.613 51.1406C154.793 51.3438 155.137 51.4453 155.645 51.4453C156.02 51.4453 156.352 51.418 156.641 51.3633V53.9297C155.977 54.1328 155.293 54.2344 154.59 54.2344C152.215 54.2344 151.004 53.0352 150.957 50.6367V43.8047H149.105V41.3203H150.957V38.2031H154.344ZM165.992 52.7109C165.156 53.7266 164 54.2344 162.523 54.2344C161.164 54.2344 160.125 53.8438 159.406 53.0625C158.695 52.2812 158.332 51.1367 158.316 49.6289V41.3203H161.703V49.5117C161.703 50.832 162.305 51.4922 163.508 51.4922C164.656 51.4922 165.445 51.0938 165.875 50.2969V41.3203H169.273V54H166.086L165.992 52.7109ZM178.953 44.4961C178.492 44.4336 178.086 44.4023 177.734 44.4023C176.453 44.4023 175.613 44.8359 175.215 45.7031V54H171.828V41.3203H175.027L175.121 42.832C175.801 41.668 176.742 41.0859 177.945 41.0859C178.32 41.0859 178.672 41.1367 179 41.2383L178.953 44.4961ZM198.934 39.7852H193.707V54H190.191V39.7852H185.035V36.9375H198.934V39.7852ZM197.762 47.543C197.762 46.2852 198.004 45.1641 198.488 44.1797C198.973 43.1953 199.668 42.4336 200.574 41.8945C201.488 41.3555 202.547 41.0859 203.75 41.0859C205.461 41.0859 206.855 41.6094 207.934 42.6562C209.02 43.7031 209.625 45.125 209.75 46.9219L209.773 47.7891C209.773 49.7344 209.23 51.2969 208.145 52.4766C207.059 53.6484 205.602 54.2344 203.773 54.2344C201.945 54.2344 200.484 53.6484 199.391 52.4766C198.305 51.3047 197.762 49.7109 197.762 47.6953V47.543ZM201.148 47.7891C201.148 48.9922 201.375 49.9141 201.828 50.5547C202.281 51.1875 202.93 51.5039 203.773 51.5039C204.594 51.5039 205.234 51.1914 205.695 50.5664C206.156 49.9336 206.387 48.9258 206.387 47.543C206.387 46.3633 206.156 45.4492 205.695 44.8008C205.234 44.1523 204.586 43.8281 203.75 43.8281C202.922 43.8281 202.281 44.1523 201.828 44.8008C201.375 45.4414 201.148 46.4375 201.148 47.7891ZM216.465 48.9141L215.246 50.1328V54H211.859V36H215.246V45.9727L215.902 45.1289L219.148 41.3203H223.215L218.633 46.6055L223.613 54H219.723L216.465 48.9141ZM224.152 47.543C224.152 46.2852 224.395 45.1641 224.879 44.1797C225.363 43.1953 226.059 42.4336 226.965 41.8945C227.879 41.3555 228.938 41.0859 230.141 41.0859C231.852 41.0859 233.246 41.6094 234.324 42.6562C235.41 43.7031 236.016 45.125 236.141 46.9219L236.164 47.7891C236.164 49.7344 235.621 51.2969 234.535 52.4766C233.449 53.6484 231.992 54.2344 230.164 54.2344C228.336 54.2344 226.875 53.6484 225.781 52.4766C224.695 51.3047 224.152 49.7109 224.152 47.6953V47.543ZM227.539 47.7891C227.539 48.9922 227.766 49.9141 228.219 50.5547C228.672 51.1875 229.32 51.5039 230.164 51.5039C230.984 51.5039 231.625 51.1914 232.086 50.5664C232.547 49.9336 232.777 48.9258 232.777 47.543C232.777 46.3633 232.547 45.4492 232.086 44.8008C231.625 44.1523 230.977 43.8281 230.141 43.8281C229.312 43.8281 228.672 44.1523 228.219 44.8008C227.766 45.4414 227.539 46.4375 227.539 47.7891Z" fill="white"/>
<path d="M76 45.646V55C76 55.2652 75.8946 55.5196 75.7071 55.7071C75.5196 55.8946 75.2652 56 75 56H59C58.7348 56 58.4804 55.8946 58.2929 55.7071C58.1054 55.5196 58 55.2652 58 55V45.646C57.3543 44.916 56.9986 43.9746 57 43V37C57 36.7348 57.1054 36.4804 57.2929 36.2929C57.4804 36.1054 57.7348 36 58 36H76C76.2652 36 76.5196 36.1054 76.7071 36.2929C76.8946 36.4804 77 36.7348 77 37V43C77 44.014 76.622 44.94 76 45.646ZM74 46.874C73.2849 47.0577 72.5328 47.0403 71.827 46.8236C71.1211 46.6069 70.4889 46.1994 70 45.646C69.625 46.0721 69.1635 46.4133 68.6461 46.6468C68.1288 46.8802 67.5676 47.0007 67 47C66.4324 47.0007 65.8712 46.8802 65.3539 46.6468C64.8365 46.4133 64.375 46.0721 64 45.646C63.5123 46.2009 62.8801 46.6096 62.1739 46.8264C61.4676 47.0432 60.7151 47.0597 60 46.874V54H74V46.874ZM69 43C69 42.7348 69.1054 42.4804 69.2929 42.2929C69.4804 42.1054 69.7348 42 70 42C70.2652 42 70.5196 42.1054 70.7071 42.2929C70.8946 42.4804 71 42.7348 71 43C71 43.5304 71.2107 44.0391 71.5858 44.4142C71.9609 44.7893 72.4696 45 73 45C73.5304 45 74.0391 44.7893 74.4142 44.4142C74.7893 44.0391 75 43.5304 75 43V38H59V43C59 43.5304 59.2107 44.0391 59.5858 44.4142C59.9609 44.7893 60.4696 45 61 45C61.5304 45 62.0391 44.7893 62.4142 44.4142C62.7893 44.0391 63 43.5304 63 43C63 42.7348 63.1054 42.4804 63.2929 42.2929C63.4804 42.1054 63.7348 42 64 42C64.2652 42 64.5196 42.1054 64.7071 42.2929C64.8946 42.4804 65 42.7348 65 43C65 43.5304 65.2107 44.0391 65.5858 44.4142C65.9609 44.7893 66.4696 45 67 45C67.5304 45 68.0391 44.7893 68.4142 44.4142C68.7893 44.0391 69 43.5304 69 43Z" fill="white"/>
<defs>
<filter id="filter0_d" x="0" y="0" width="399" height="98" filterUnits="userSpaceOnUse" color-interpolation-filters="sRGB">
<feFlood flood-opacity="0" result="BackgroundImageFix"/>
<feColorMatrix in="SourceAlpha" type="matrix" values="0 0 0 0 0 0 0 0 0 0 0 0 0 0 0 0 0 0 127 0"/>
<feOffset dx="4" dy="4"/>
<feGaussianBlur stdDeviation="7.5"/>
<feColorMatrix type="matrix" values="0 0 0 0 0 0 0 0 0 0 0 0 0 0 0 0 0 0 0.78 0"/>
<feBlend mode="normal" in2="BackgroundImageFix" result="effect1_dropShadow"/>
<feBlend mode="normal" in="SourceGraphic" in2="effect1_dropShadow" result="shape"/>
</filter>
<radialGradient id="paint0_radial" cx="0" cy="0" r="1" gradientUnits="userSpaceOnUse" gradientTransform="translate(-16.3832 105.297) rotate(-13.0906) scale(394.054 819.976)">
<stop stop-color="#232323"/>
<stop offset="0.427083" stop-color="#353535"/>
<stop offset="0.776042" stop-color="#1C1C1D"/>
<stop offset="1" stop-color="#252526"/>
</radialGradient>
</defs>
</svg>
