<svg width="399" height="98" viewBox="0 0 399 98" fill="none" xmlns="http://www.w3.org/2000/svg">
<g filter="url(#filter0_d)">
<rect x="11" y="11" width="369" height="68" rx="6" fill="url(#paint0_radial)"/>
</g>
<path d="M142.156 50.4844H135.992L134.82 54H131.082L137.434 36.9375H140.691L147.078 54H143.34L142.156 50.4844ZM136.941 47.6367H141.207L139.062 41.25L136.941 47.6367ZM152.293 38.2031V41.3203H154.461V43.8047H152.293V50.1328C152.293 50.6016 152.383 50.9375 152.562 51.1406C152.742 51.3438 153.086 51.4453 153.594 51.4453C153.969 51.4453 154.301 51.418 154.59 51.3633V53.9297C153.926 54.1328 153.242 54.2344 152.539 54.2344C150.164 54.2344 148.953 53.0352 148.906 50.6367V43.8047H147.055V41.3203H148.906V38.2031H152.293ZM163.941 52.7109C163.105 53.7266 161.949 54.2344 160.473 54.2344C159.113 54.2344 158.074 53.8438 157.355 53.0625C156.645 52.2812 156.281 51.1367 156.266 49.6289V41.3203H159.652V49.5117C159.652 50.832 160.254 51.4922 161.457 51.4922C162.605 51.4922 163.395 51.0938 163.824 50.2969V41.3203H167.223V54H164.035L163.941 52.7109ZM176.902 44.4961C176.441 44.4336 176.035 44.4023 175.684 44.4023C174.402 44.4023 173.562 44.8359 173.164 45.7031V54H169.777V41.3203H172.977L173.07 42.832C173.75 41.668 174.691 41.0859 175.895 41.0859C176.27 41.0859 176.621 41.1367 176.949 41.2383L176.902 44.4961ZM188.258 51.1758H195.723V54H184.742V36.9375H188.258V51.1758ZM204.875 54C204.719 53.6953 204.605 53.3164 204.535 52.8633C203.715 53.7773 202.648 54.2344 201.336 54.2344C200.094 54.2344 199.062 53.875 198.242 53.1562C197.43 52.4375 197.023 51.5312 197.023 50.4375C197.023 49.0938 197.52 48.0625 198.512 47.3438C199.512 46.625 200.953 46.2617 202.836 46.2539H204.395V45.5273C204.395 44.9414 204.242 44.4727 203.938 44.1211C203.641 43.7695 203.168 43.5938 202.52 43.5938C201.949 43.5938 201.5 43.7305 201.172 44.0039C200.852 44.2773 200.691 44.6523 200.691 45.1289H197.305C197.305 44.3945 197.531 43.7148 197.984 43.0898C198.438 42.4648 199.078 41.9766 199.906 41.625C200.734 41.2656 201.664 41.0859 202.695 41.0859C204.258 41.0859 205.496 41.4805 206.41 42.2695C207.332 43.0508 207.793 44.1523 207.793 45.5742V51.0703C207.801 52.2734 207.969 53.1836 208.297 53.8008V54H204.875ZM202.074 51.6445C202.574 51.6445 203.035 51.5352 203.457 51.3164C203.879 51.0898 204.191 50.7891 204.395 50.4141V48.2344H203.129C201.434 48.2344 200.531 48.8203 200.422 49.9922L200.41 50.1914C200.41 50.6133 200.559 50.9609 200.855 51.2344C201.152 51.5078 201.559 51.6445 202.074 51.6445ZM213.512 41.3203L213.617 42.7852C214.523 41.6523 215.738 41.0859 217.262 41.0859C218.605 41.0859 219.605 41.4805 220.262 42.2695C220.918 43.0586 221.254 44.2383 221.27 45.8086V54H217.883V45.8906C217.883 45.1719 217.727 44.6523 217.414 44.332C217.102 44.0039 216.582 43.8398 215.855 43.8398C214.902 43.8398 214.188 44.2461 213.711 45.0586V54H210.324V41.3203H213.512ZM223.32 47.5664C223.32 45.5898 223.762 44.0156 224.645 42.8438C225.535 41.6719 226.75 41.0859 228.289 41.0859C229.523 41.0859 230.543 41.5469 231.348 42.4688V36H234.746V54H231.688L231.523 52.6523C230.68 53.707 229.594 54.2344 228.266 54.2344C226.773 54.2344 225.574 53.6484 224.668 52.4766C223.77 51.2969 223.32 49.6602 223.32 47.5664ZM226.707 47.8125C226.707 49 226.914 49.9102 227.328 50.543C227.742 51.1758 228.344 51.4922 229.133 51.4922C230.18 51.4922 230.918 51.0508 231.348 50.168V45.1641C230.926 44.2812 230.195 43.8398 229.156 43.8398C227.523 43.8398 226.707 45.1641 226.707 47.8125ZM240.945 54H237.547V41.3203H240.945V54ZM237.348 38.0391C237.348 37.5312 237.516 37.1133 237.852 36.7852C238.195 36.457 238.66 36.293 239.246 36.293C239.824 36.293 240.285 36.457 240.629 36.7852C240.973 37.1133 241.145 37.5312 241.145 38.0391C241.145 38.5547 240.969 38.9766 240.617 39.3047C240.273 39.6328 239.816 39.7969 239.246 39.7969C238.676 39.7969 238.215 39.6328 237.863 39.3047C237.52 38.9766 237.348 38.5547 237.348 38.0391ZM246.863 41.3203L246.969 42.7852C247.875 41.6523 249.09 41.0859 250.613 41.0859C251.957 41.0859 252.957 41.4805 253.613 42.2695C254.27 43.0586 254.605 44.2383 254.621 45.8086V54H251.234V45.8906C251.234 45.1719 251.078 44.6523 250.766 44.332C250.453 44.0039 249.934 43.8398 249.207 43.8398C248.254 43.8398 247.539 44.2461 247.062 45.0586V54H243.676V41.3203H246.863ZM256.707 47.5664C256.707 45.6211 257.168 44.0547 258.09 42.8672C259.02 41.6797 260.27 41.0859 261.84 41.0859C263.23 41.0859 264.312 41.5625 265.086 42.5156L265.227 41.3203H268.297V53.5781C268.297 54.6875 268.043 55.6523 267.535 56.4727C267.035 57.293 266.328 57.918 265.414 58.3477C264.5 58.7773 263.43 58.9922 262.203 58.9922C261.273 58.9922 260.367 58.8047 259.484 58.4297C258.602 58.0625 257.934 57.5859 257.48 57L258.98 54.9375C259.824 55.8828 260.848 56.3555 262.051 56.3555C262.949 56.3555 263.648 56.1133 264.148 55.6289C264.648 55.1523 264.898 54.4727 264.898 53.5898V52.9102C264.117 53.793 263.09 54.2344 261.816 54.2344C260.293 54.2344 259.059 53.6406 258.113 52.4531C257.176 51.2578 256.707 49.6758 256.707 47.707V47.5664ZM260.094 47.8125C260.094 48.9609 260.324 49.8633 260.785 50.5195C261.246 51.168 261.879 51.4922 262.684 51.4922C263.715 51.4922 264.453 51.1055 264.898 50.332V45C264.445 44.2266 263.715 43.8398 262.707 43.8398C261.895 43.8398 261.254 44.1719 260.785 44.8359C260.324 45.5 260.094 46.4922 260.094 47.8125ZM280.625 47.9883V54H277.109V36.9375H283.766C285.047 36.9375 286.172 37.1719 287.141 37.6406C288.117 38.1094 288.867 38.7773 289.391 39.6445C289.914 40.5039 290.176 41.4844 290.176 42.5859C290.176 44.2578 289.602 45.5781 288.453 46.5469C287.312 47.5078 285.73 47.9883 283.707 47.9883H280.625ZM280.625 45.1406H283.766C284.695 45.1406 285.402 44.9219 285.887 44.4844C286.379 44.0469 286.625 43.4219 286.625 42.6094C286.625 41.7734 286.379 41.0977 285.887 40.582C285.395 40.0664 284.715 39.8008 283.848 39.7852H280.625V45.1406ZM299.586 54C299.43 53.6953 299.316 53.3164 299.246 52.8633C298.426 53.7773 297.359 54.2344 296.047 54.2344C294.805 54.2344 293.773 53.875 292.953 53.1562C292.141 52.4375 291.734 51.5312 291.734 50.4375C291.734 49.0938 292.23 48.0625 293.223 47.3438C294.223 46.625 295.664 46.2617 297.547 46.2539H299.105V45.5273C299.105 44.9414 298.953 44.4727 298.648 44.1211C298.352 43.7695 297.879 43.5938 297.23 43.5938C296.66 43.5938 296.211 43.7305 295.883 44.0039C295.562 44.2773 295.402 44.6523 295.402 45.1289H292.016C292.016 44.3945 292.242 43.7148 292.695 43.0898C293.148 42.4648 293.789 41.9766 294.617 41.625C295.445 41.2656 296.375 41.0859 297.406 41.0859C298.969 41.0859 300.207 41.4805 301.121 42.2695C302.043 43.0508 302.504 44.1523 302.504 45.5742V51.0703C302.512 52.2734 302.68 53.1836 303.008 53.8008V54H299.586ZM296.785 51.6445C297.285 51.6445 297.746 51.5352 298.168 51.3164C298.59 51.0898 298.902 50.7891 299.105 50.4141V48.2344H297.84C296.145 48.2344 295.242 48.8203 295.133 49.9922L295.121 50.1914C295.121 50.6133 295.27 50.9609 295.566 51.2344C295.863 51.5078 296.27 51.6445 296.785 51.6445ZM304.613 47.5664C304.613 45.6211 305.074 44.0547 305.996 42.8672C306.926 41.6797 308.176 41.0859 309.746 41.0859C311.137 41.0859 312.219 41.5625 312.992 42.5156L313.133 41.3203H316.203V53.5781C316.203 54.6875 315.949 55.6523 315.441 56.4727C314.941 57.293 314.234 57.918 313.32 58.3477C312.406 58.7773 311.336 58.9922 310.109 58.9922C309.18 58.9922 308.273 58.8047 307.391 58.4297C306.508 58.0625 305.84 57.5859 305.387 57L306.887 54.9375C307.73 55.8828 308.754 56.3555 309.957 56.3555C310.855 56.3555 311.555 56.1133 312.055 55.6289C312.555 55.1523 312.805 54.4727 312.805 53.5898V52.9102C312.023 53.793 310.996 54.2344 309.723 54.2344C308.199 54.2344 306.965 53.6406 306.02 52.4531C305.082 51.2578 304.613 49.6758 304.613 47.707V47.5664ZM308 47.8125C308 48.9609 308.23 49.8633 308.691 50.5195C309.152 51.168 309.785 51.4922 310.59 51.4922C311.621 51.4922 312.359 51.1055 312.805 50.332V45C312.352 44.2266 311.621 43.8398 310.613 43.8398C309.801 43.8398 309.16 44.1719 308.691 44.8359C308.23 45.5 308 46.4922 308 47.8125ZM324.652 54.2344C322.793 54.2344 321.277 53.6641 320.105 52.5234C318.941 51.3828 318.359 49.8633 318.359 47.9648V47.6367C318.359 46.3633 318.605 45.2266 319.098 44.2266C319.59 43.2188 320.285 42.4453 321.184 41.9062C322.09 41.3594 323.121 41.0859 324.277 41.0859C326.012 41.0859 327.375 41.6328 328.367 42.7266C329.367 43.8203 329.867 45.3711 329.867 47.3789V48.7617H321.793C321.902 49.5898 322.23 50.2539 322.777 50.7539C323.332 51.2539 324.031 51.5039 324.875 51.5039C326.18 51.5039 327.199 51.0312 327.934 50.0859L329.598 51.9492C329.09 52.668 328.402 53.2305 327.535 53.6367C326.668 54.0352 325.707 54.2344 324.652 54.2344ZM324.266 43.8281C323.594 43.8281 323.047 44.0547 322.625 44.5078C322.211 44.9609 321.945 45.6094 321.828 46.4531H326.539V46.1836C326.523 45.4336 326.32 44.8555 325.93 44.4492C325.539 44.0352 324.984 43.8281 324.266 43.8281Z" fill="white"/>
<path d="M77 52V54H57V52H58V45.242C57.3844 44.8311 56.8797 44.2745 56.5308 43.6218C56.1819 42.969 55.9996 42.2402 56 41.5C56 40.673 56.224 39.876 56.633 39.197L59.345 34.5C59.4328 34.348 59.559 34.2217 59.711 34.134C59.863 34.0462 60.0355 34 60.211 34H73.79C73.9655 34 74.138 34.0462 74.29 34.134C74.442 34.2217 74.5682 34.348 74.656 34.5L77.358 39.182C77.9546 40.1729 78.1463 41.3555 77.8934 42.4841C77.6405 43.6127 76.9624 44.6005 76 45.242V52H77ZM60.789 36L58.356 40.213C58.1196 40.7971 58.1125 41.449 58.3361 42.0382C58.5598 42.6273 58.9977 43.1103 59.5622 43.3904C60.1267 43.6705 60.7761 43.7271 61.3806 43.5488C61.985 43.3706 62.4998 42.9706 62.822 42.429C63.157 41.592 64.342 41.592 64.678 42.429C64.8633 42.8934 65.1836 43.2916 65.5975 43.5721C66.0115 43.8526 66.5 44.0025 67 44.0025C67.5 44.0025 67.9885 43.8526 68.4025 43.5721C68.8164 43.2916 69.1367 42.8934 69.322 42.429C69.657 41.592 70.842 41.592 71.178 42.429C71.3078 42.7484 71.5022 43.0376 71.7491 43.2783C71.996 43.519 72.2901 43.706 72.6127 43.8275C72.9354 43.9491 73.2797 44.0026 73.6241 43.9847C73.9684 43.9668 74.3053 43.8778 74.6136 43.7234C74.9219 43.569 75.1949 43.3525 75.4155 43.0875C75.6361 42.8225 75.7995 42.5148 75.8955 42.1836C75.9914 41.8524 76.0178 41.5049 75.973 41.1631C75.9281 40.8212 75.8131 40.4923 75.635 40.197L73.21 36H60.79H60.789Z" fill="white"/>
<defs>
<filter id="filter0_d" x="0" y="0" width="399" height="98" filterUnits="userSpaceOnUse" color-interpolation-filters="sRGB">
<feFlood flood-opacity="0" result="BackgroundImageFix"/>
<feColorMatrix in="SourceAlpha" type="matrix" values="0 0 0 0 0 0 0 0 0 0 0 0 0 0 0 0 0 0 127 0"/>
<feOffset dx="4" dy="4"/>
<feGaussianBlur stdDeviation="7.5"/>
<feColorMatrix type="matrix" values="0 0 0 0 0 0 0 0 0 0 0 0 0 0 0 0 0 0 0.78 0"/>
<feBlend mode="normal" in2="BackgroundImageFix" result="effect1_dropShadow"/>
<feBlend mode="normal" in="SourceGraphic" in2="effect1_dropShadow" result="shape"/>
</filter>
<radialGradient id="paint0_radial" cx="0" cy="0" r="1" gradientUnits="userSpaceOnUse" gradientTransform="translate(-16.3832 105.297) rotate(-13.0906) scale(394.054 819.976)">
<stop stop-color="#232323"/>
<stop offset="0.427083" stop-color="#353535"/>
<stop offset="0.776042" stop-color="#1C1C1D"/>
<stop offset="1" stop-color="#252526"/>
</radialGradient>
</defs>
</svg>
