<svg width="367" height="105" viewBox="0 0 367 105" fill="none" xmlns="http://www.w3.org/2000/svg">
<g filter="url(#filter0_d)">
<rect x="3" y="3" width="359" height="97" rx="11" fill="url(#paint0_linear)"/>
</g>
<mask id="mask0" mask-type="alpha" maskUnits="userSpaceOnUse" x="262" y="3" width="100" height="97">
<rect x="262" y="3" width="100" height="97" rx="11" fill="url(#paint1_linear)"/>
</mask>
<g mask="url(#mask0)">
<path d="M336 59.3V39.2L362.8 66L336 92.8V72.7L309.2 72.7V59.3H336ZM336 -0.999985C372.984 -0.999985 403 29.016 403 66C403 102.984 372.984 133 336 133C299.016 133 269 102.984 269 66C269 29.016 299.016 -0.999985 336 -0.999985ZM336 119.6C365.614 119.6 389.6 95.614 389.6 66C389.6 36.386 365.614 12.4 336 12.4C306.386 12.4 282.4 36.386 282.4 66C282.4 95.614 306.386 119.6 336 119.6Z" fill="white" fill-opacity="0.22"/>
</g>
<defs>
<filter id="filter0_d" x="0" y="0" width="367" height="105" filterUnits="userSpaceOnUse" color-interpolation-filters="sRGB">
<feFlood flood-opacity="0" result="BackgroundImageFix"/>
<feColorMatrix in="SourceAlpha" type="matrix" values="0 0 0 0 0 0 0 0 0 0 0 0 0 0 0 0 0 0 127 0"/>
<feOffset dx="1" dy="1"/>
<feGaussianBlur stdDeviation="2"/>
<feColorMatrix type="matrix" values="0 0 0 0 0 0 0 0 0 0 0 0 0 0 0 0 0 0 0.21 0"/>
<feBlend mode="normal" in2="BackgroundImageFix" result="effect1_dropShadow"/>
<feBlend mode="normal" in="SourceGraphic" in2="effect1_dropShadow" result="shape"/>
</filter>
<linearGradient id="paint0_linear" x1="107" y1="-68" x2="107" y2="117.5" gradientUnits="userSpaceOnUse">
<stop stop-color="#353434"/>
<stop offset="0.447917" stop-color="#212121"/>
<stop offset="0.864583" stop-color="#2E2D2D"/>
</linearGradient>
<linearGradient id="paint1_linear" x1="290.969" y1="-68" x2="290.969" y2="117.5" gradientUnits="userSpaceOnUse">
<stop stop-color="#353434"/>
<stop offset="0.447917" stop-color="#212121"/>
<stop offset="0.864583" stop-color="#2E2D2D"/>
</linearGradient>
</defs>
</svg>
