<svg width="98" height="103" viewBox="0 0 98 103" fill="none" xmlns="http://www.w3.org/2000/svg">
<path d="M67 60.3L67 40.2L93.8 67L67 93.8V73.7L40.2 73.7V60.3H67ZM67 1.52588e-05C103.984 1.52588e-05 134 30.016 134 67C134 103.984 103.984 134 67 134C30.016 134 0 103.984 0 67C0 30.016 30.016 1.52588e-05 67 1.52588e-05ZM67 120.6C96.614 120.6 120.6 96.614 120.6 67C120.6 37.386 96.614 13.4 67 13.4C37.386 13.4 13.4 37.386 13.4 67C13.4 96.614 37.386 120.6 67 120.6Z" fill="white" fill-opacity="0.22"/>
</svg>
