<svg width="98" height="101" viewBox="0 0 98 101" fill="none" xmlns="http://www.w3.org/2000/svg">
<path d="M51.9997 61.4013C52.8036 61.4013 53.5746 61.7215 54.1431 62.2916C54.7115 62.8616 55.0309 63.6347 55.0309 64.4408C59.7933 64.4338 64.4184 66.0404 68.1559 69H74.7335C78.7741 69 82.4024 70.7629 84.9001 73.5592H94.4362C97.3014 73.5584 100.108 74.3721 102.531 75.9058C104.954 77.4396 106.894 79.6306 108.125 82.2248C100.956 91.711 89.3499 97.875 76.2491 97.875C67.7921 97.875 60.6386 96.0422 54.849 92.8356C54.637 93.4224 54.2496 93.9293 53.7397 94.2872C53.2297 94.6451 52.6221 94.8366 51.9997 94.8355H42.9062C42.1023 94.8355 41.3313 94.5153 40.7628 93.9453C40.1944 93.3753 39.875 92.6022 39.875 91.7961V64.4408C39.875 63.6347 40.1944 62.8616 40.7628 62.2916C41.3313 61.7215 42.1023 61.4013 42.9062 61.4013H51.9997ZM55.0339 70.5197L55.0309 85.784L55.1673 85.8812C60.6083 89.711 67.6951 91.7961 76.2491 91.7961C85.3548 91.7961 93.8269 88.2824 99.9984 82.2825L100.402 81.8783L100.038 81.5743C98.6065 80.4502 96.8715 79.7831 95.0576 79.6594L94.4362 79.6382H88.0374C88.2556 80.6169 88.3738 81.6321 88.3738 82.6776V85.7171H61.0932V79.6382L81.6749 79.6351L81.5719 79.398C80.991 78.1809 80.0974 77.1407 78.983 76.3843C77.8686 75.6279 76.5735 75.1826 75.2307 75.0942L74.7335 75.079H65.8522C64.4436 73.6344 62.7612 72.4868 60.9039 71.7039C59.0465 70.9209 57.0518 70.5183 55.037 70.5197H55.0339ZM48.9685 67.4803H45.9374V88.7566H48.9685V67.4803ZM91.405 49.2434C93.8168 49.2434 96.1298 50.2041 97.8351 51.9141C99.5405 53.6242 100.499 55.9435 100.499 58.3618C100.499 60.7802 99.5405 63.0995 97.8351 64.8095C96.1298 66.5196 93.8168 67.4803 91.405 67.4803C88.9933 67.4803 86.6803 66.5196 84.9749 64.8095C83.2696 63.0995 82.3115 60.7802 82.3115 58.3618C82.3115 55.9435 83.2696 53.6242 84.9749 51.9141C86.6803 50.2041 88.9933 49.2434 91.405 49.2434ZM91.405 55.3224C90.6011 55.3224 89.8301 55.6426 89.2617 56.2126C88.6932 56.7826 88.3738 57.5557 88.3738 58.3618C88.3738 59.168 88.6932 59.9411 89.2617 60.5111C89.8301 61.0811 90.6011 61.4013 91.405 61.4013C92.2089 61.4013 92.9799 61.0811 93.5484 60.5111C94.1168 59.9411 94.4362 59.168 94.4362 58.3618C94.4362 57.5557 94.1168 56.7826 93.5484 56.2126C92.9799 55.6426 92.2089 55.3224 91.405 55.3224ZM70.1868 40.125C72.5985 40.125 74.9115 41.0857 76.6169 42.7957C78.3222 44.5058 79.2803 46.8251 79.2803 49.2434C79.2803 51.6618 78.3222 53.9811 76.6169 55.6911C74.9115 57.4012 72.5985 58.3618 70.1868 58.3618C67.775 58.3618 65.462 57.4012 63.7567 55.6911C62.0513 53.9811 61.0932 51.6618 61.0932 49.2434C61.0932 46.8251 62.0513 44.5058 63.7567 42.7957C65.462 41.0857 67.775 40.125 70.1868 40.125ZM70.1868 46.204C69.3829 46.204 68.6119 46.5242 68.0434 47.0942C67.475 47.6642 67.1556 48.4373 67.1556 49.2434C67.1556 50.0495 67.475 50.8226 68.0434 51.3927C68.6119 51.9627 69.3829 52.2829 70.1868 52.2829C70.9907 52.2829 71.7617 51.9627 72.3301 51.3927C72.8986 50.8226 73.218 50.0495 73.218 49.2434C73.218 48.4373 72.8986 47.6642 72.3301 47.0942C71.7617 46.5242 70.9907 46.204 70.1868 46.204Z" fill="#595959"/>
<path d="M132 69C132 103.794 103.794 132 69 132C34.2061 132 6 103.794 6 69C6 34.2061 34.2061 6 69 6C103.794 6 132 34.2061 132 69Z" stroke="#595959" stroke-width="12"/>
</svg>
