<svg width="367" height="105" viewBox="0 0 367 105" fill="none" xmlns="http://www.w3.org/2000/svg">
<g filter="url(#filter0_d)">
<rect x="3" y="3" width="359" height="97" rx="11" fill="url(#paint0_linear)"/>
</g>
<mask id="mask0" mask-type="alpha" maskUnits="userSpaceOnUse" x="262" y="3" width="100" height="97">
<rect x="262" y="3" width="100" height="97" rx="11" fill="url(#paint1_linear)"/>
</mask>
<g mask="url(#mask0)">
<path d="M321 62.4013C321.804 62.4013 322.575 62.7215 323.143 63.2916C323.712 63.8616 324.031 64.6347 324.031 65.4408C328.793 65.4338 333.418 67.0404 337.156 70H343.734C347.774 70 351.402 71.7629 353.9 74.5592H363.436C366.301 74.5584 369.108 75.3721 371.531 76.9058C373.954 78.4396 375.894 80.6306 377.125 83.2248C369.956 92.711 358.35 98.875 345.249 98.875C336.792 98.875 329.639 97.0422 323.849 93.8356C323.637 94.4224 323.25 94.9293 322.74 95.2872C322.23 95.6451 321.622 95.8366 321 95.8355H311.906C311.102 95.8355 310.331 95.5153 309.763 94.9453C309.194 94.3753 308.875 93.6022 308.875 92.7961V65.4408C308.875 64.6347 309.194 63.8616 309.763 63.2916C310.331 62.7215 311.102 62.4013 311.906 62.4013H321ZM324.034 71.5197L324.031 86.784L324.167 86.8812C329.608 90.711 336.695 92.7961 345.249 92.7961C354.355 92.7961 362.827 89.2824 368.998 83.2825L369.402 82.8783L369.038 82.5743C367.606 81.4502 365.871 80.7831 364.058 80.6594L363.436 80.6382H357.037C357.256 81.6169 357.374 82.6321 357.374 83.6776V86.7171H330.093V80.6382L350.675 80.6351L350.572 80.398C349.991 79.1809 349.097 78.1407 347.983 77.3843C346.869 76.6279 345.573 76.1826 344.231 76.0942L343.734 76.079H334.852C333.444 74.6344 331.761 73.4868 329.904 72.7039C328.047 71.9209 326.052 71.5183 324.037 71.5197H324.034ZM317.969 68.4803H314.937V89.7566H317.969V68.4803ZM360.405 50.2434C362.817 50.2434 365.13 51.2041 366.835 52.9141C368.54 54.6242 369.499 56.9435 369.499 59.3618C369.499 61.7802 368.54 64.0995 366.835 65.8095C365.13 67.5196 362.817 68.4803 360.405 68.4803C357.993 68.4803 355.68 67.5196 353.975 65.8095C352.27 64.0995 351.311 61.7802 351.311 59.3618C351.311 56.9435 352.27 54.6242 353.975 52.9141C355.68 51.2041 357.993 50.2434 360.405 50.2434ZM360.405 56.3224C359.601 56.3224 358.83 56.6426 358.262 57.2126C357.693 57.7826 357.374 58.5557 357.374 59.3618C357.374 60.168 357.693 60.9411 358.262 61.5111C358.83 62.0811 359.601 62.4013 360.405 62.4013C361.209 62.4013 361.98 62.0811 362.548 61.5111C363.117 60.9411 363.436 60.168 363.436 59.3618C363.436 58.5557 363.117 57.7826 362.548 57.2126C361.98 56.6426 361.209 56.3224 360.405 56.3224ZM339.187 41.125C341.599 41.125 343.912 42.0857 345.617 43.7957C347.322 45.5058 348.28 47.8251 348.28 50.2434C348.28 52.6618 347.322 54.9811 345.617 56.6911C343.912 58.4012 341.599 59.3618 339.187 59.3618C336.775 59.3618 334.462 58.4012 332.757 56.6911C331.051 54.9811 330.093 52.6618 330.093 50.2434C330.093 47.8251 331.051 45.5058 332.757 43.7957C334.462 42.0857 336.775 41.125 339.187 41.125ZM339.187 47.204C338.383 47.204 337.612 47.5242 337.043 48.0942C336.475 48.6642 336.156 49.4373 336.156 50.2434C336.156 51.0495 336.475 51.8226 337.043 52.3927C337.612 52.9627 338.383 53.2829 339.187 53.2829C339.991 53.2829 340.762 52.9627 341.33 52.3927C341.899 51.8226 342.218 51.0495 342.218 50.2434C342.218 49.4373 341.899 48.6642 341.33 48.0942C340.762 47.5242 339.991 47.204 339.187 47.204Z" fill="#595959"/>
<path d="M401 70C401 104.794 372.794 133 338 133C303.206 133 275 104.794 275 70C275 35.2061 303.206 7 338 7C372.794 7 401 35.2061 401 70Z" stroke="#595959" stroke-width="12"/>
</g>
<defs>
<filter id="filter0_d" x="0" y="0" width="367" height="105" filterUnits="userSpaceOnUse" color-interpolation-filters="sRGB">
<feFlood flood-opacity="0" result="BackgroundImageFix"/>
<feColorMatrix in="SourceAlpha" type="matrix" values="0 0 0 0 0 0 0 0 0 0 0 0 0 0 0 0 0 0 127 0"/>
<feOffset dx="1" dy="1"/>
<feGaussianBlur stdDeviation="2"/>
<feColorMatrix type="matrix" values="0 0 0 0 0 0 0 0 0 0 0 0 0 0 0 0 0 0 0.21 0"/>
<feBlend mode="normal" in2="BackgroundImageFix" result="effect1_dropShadow"/>
<feBlend mode="normal" in="SourceGraphic" in2="effect1_dropShadow" result="shape"/>
</filter>
<linearGradient id="paint0_linear" x1="107" y1="-68" x2="107" y2="117.5" gradientUnits="userSpaceOnUse">
<stop stop-color="#353434"/>
<stop offset="0.447917" stop-color="#212121"/>
<stop offset="0.864583" stop-color="#2E2D2D"/>
</linearGradient>
<linearGradient id="paint1_linear" x1="290.969" y1="-68" x2="290.969" y2="117.5" gradientUnits="userSpaceOnUse">
<stop stop-color="#353434"/>
<stop offset="0.447917" stop-color="#212121"/>
<stop offset="0.864583" stop-color="#2E2D2D"/>
</linearGradient>
</defs>
</svg>
