<svg width="98" height="105" viewBox="0 0 98 105" fill="none" xmlns="http://www.w3.org/2000/svg">
<path d="M67 72.7L67 92.8L40.2 66L67 39.2L67 59.3L93.8 59.3L93.8 72.7L67 72.7ZM67 133C30.016 133 -1.26347e-05 102.984 -9.40146e-06 66C-6.16822e-06 29.016 30.016 -0.999994 67 -0.999991C103.984 -0.999987 134 29.016 134 66C134 102.984 103.984 133 67 133ZM67 12.4C37.386 12.4 13.4 36.386 13.4 66C13.4 95.614 37.386 119.6 67 119.6C96.614 119.6 120.6 95.614 120.6 66C120.6 36.386 96.614 12.4 67 12.4Z" fill="white" fill-opacity="0.22"/>
</svg>
