<svg width="399" height="98" viewBox="0 0 399 98" fill="none" xmlns="http://www.w3.org/2000/svg">
<g filter="url(#filter0_d)">
<rect x="11" y="11" width="369" height="68" rx="6" fill="url(#paint0_radial)"/>
</g>
<path d="M148.312 51.8438C147.68 52.6016 146.785 53.1914 145.629 53.6133C144.473 54.0273 143.191 54.2344 141.785 54.2344C140.309 54.2344 139.012 53.9141 137.895 53.2734C136.785 52.625 135.926 51.6875 135.316 50.4609C134.715 49.2344 134.406 47.793 134.391 46.1367V44.9766C134.391 43.2734 134.676 41.8008 135.246 40.5586C135.824 39.3086 136.652 38.3555 137.73 37.6992C138.816 37.0352 140.086 36.7031 141.539 36.7031C143.562 36.7031 145.145 37.1875 146.285 38.1562C147.426 39.1172 148.102 40.5195 148.312 42.3633H144.891C144.734 41.3867 144.387 40.6719 143.848 40.2188C143.316 39.7656 142.582 39.5391 141.645 39.5391C140.449 39.5391 139.539 39.9883 138.914 40.8867C138.289 41.7852 137.973 43.1211 137.965 44.8945V45.9844C137.965 47.7734 138.305 49.125 138.984 50.0391C139.664 50.9531 140.66 51.4102 141.973 51.4102C143.293 51.4102 144.234 51.1289 144.797 50.5664V47.625H141.598V45.0352H148.312V51.8438ZM158.297 54C158.141 53.6953 158.027 53.3164 157.957 52.8633C157.137 53.7773 156.07 54.2344 154.758 54.2344C153.516 54.2344 152.484 53.875 151.664 53.1562C150.852 52.4375 150.445 51.5312 150.445 50.4375C150.445 49.0938 150.941 48.0625 151.934 47.3438C152.934 46.625 154.375 46.2617 156.258 46.2539H157.816V45.5273C157.816 44.9414 157.664 44.4727 157.359 44.1211C157.062 43.7695 156.59 43.5938 155.941 43.5938C155.371 43.5938 154.922 43.7305 154.594 44.0039C154.273 44.2773 154.113 44.6523 154.113 45.1289H150.727C150.727 44.3945 150.953 43.7148 151.406 43.0898C151.859 42.4648 152.5 41.9766 153.328 41.625C154.156 41.2656 155.086 41.0859 156.117 41.0859C157.68 41.0859 158.918 41.4805 159.832 42.2695C160.754 43.0508 161.215 44.1523 161.215 45.5742V51.0703C161.223 52.2734 161.391 53.1836 161.719 53.8008V54H158.297ZM155.496 51.6445C155.996 51.6445 156.457 51.5352 156.879 51.3164C157.301 51.0898 157.613 50.7891 157.816 50.4141V48.2344H156.551C154.855 48.2344 153.953 48.8203 153.844 49.9922L153.832 50.1914C153.832 50.6133 153.98 50.9609 154.277 51.2344C154.574 51.5078 154.98 51.6445 155.496 51.6445ZM166.934 41.3203L167.039 42.7852C167.945 41.6523 169.16 41.0859 170.684 41.0859C172.027 41.0859 173.027 41.4805 173.684 42.2695C174.34 43.0586 174.676 44.2383 174.691 45.8086V54H171.305V45.8906C171.305 45.1719 171.148 44.6523 170.836 44.332C170.523 44.0039 170.004 43.8398 169.277 43.8398C168.324 43.8398 167.609 44.2461 167.133 45.0586V54H163.746V41.3203H166.934ZM181.324 38.2031V41.3203H183.492V43.8047H181.324V50.1328C181.324 50.6016 181.414 50.9375 181.594 51.1406C181.773 51.3438 182.117 51.4453 182.625 51.4453C183 51.4453 183.332 51.418 183.621 51.3633V53.9297C182.957 54.1328 182.273 54.2344 181.57 54.2344C179.195 54.2344 177.984 53.0352 177.938 50.6367V43.8047H176.086V41.3203H177.938V38.2031H181.324ZM188.953 54H185.555V41.3203H188.953V54ZM185.355 38.0391C185.355 37.5312 185.523 37.1133 185.859 36.7852C186.203 36.457 186.668 36.293 187.254 36.293C187.832 36.293 188.293 36.457 188.637 36.7852C188.98 37.1133 189.152 37.5312 189.152 38.0391C189.152 38.5547 188.977 38.9766 188.625 39.3047C188.281 39.6328 187.824 39.7969 187.254 39.7969C186.684 39.7969 186.223 39.6328 185.871 39.3047C185.527 38.9766 185.355 38.5547 185.355 38.0391ZM201.469 51.1758H208.934V54H197.953V36.9375H201.469V51.1758ZM218.086 54C217.93 53.6953 217.816 53.3164 217.746 52.8633C216.926 53.7773 215.859 54.2344 214.547 54.2344C213.305 54.2344 212.273 53.875 211.453 53.1562C210.641 52.4375 210.234 51.5312 210.234 50.4375C210.234 49.0938 210.73 48.0625 211.723 47.3438C212.723 46.625 214.164 46.2617 216.047 46.2539H217.605V45.5273C217.605 44.9414 217.453 44.4727 217.148 44.1211C216.852 43.7695 216.379 43.5938 215.73 43.5938C215.16 43.5938 214.711 43.7305 214.383 44.0039C214.062 44.2773 213.902 44.6523 213.902 45.1289H210.516C210.516 44.3945 210.742 43.7148 211.195 43.0898C211.648 42.4648 212.289 41.9766 213.117 41.625C213.945 41.2656 214.875 41.0859 215.906 41.0859C217.469 41.0859 218.707 41.4805 219.621 42.2695C220.543 43.0508 221.004 44.1523 221.004 45.5742V51.0703C221.012 52.2734 221.18 53.1836 221.508 53.8008V54H218.086ZM215.285 51.6445C215.785 51.6445 216.246 51.5352 216.668 51.3164C217.09 51.0898 217.402 50.7891 217.605 50.4141V48.2344H216.34C214.645 48.2344 213.742 48.8203 213.633 49.9922L213.621 50.1914C213.621 50.6133 213.77 50.9609 214.066 51.2344C214.363 51.5078 214.77 51.6445 215.285 51.6445ZM226.723 41.3203L226.828 42.7852C227.734 41.6523 228.949 41.0859 230.473 41.0859C231.816 41.0859 232.816 41.4805 233.473 42.2695C234.129 43.0586 234.465 44.2383 234.48 45.8086V54H231.094V45.8906C231.094 45.1719 230.938 44.6523 230.625 44.332C230.312 44.0039 229.793 43.8398 229.066 43.8398C228.113 43.8398 227.398 44.2461 226.922 45.0586V54H223.535V41.3203H226.723ZM236.531 47.5664C236.531 45.5898 236.973 44.0156 237.855 42.8438C238.746 41.6719 239.961 41.0859 241.5 41.0859C242.734 41.0859 243.754 41.5469 244.559 42.4688V36H247.957V54H244.898L244.734 52.6523C243.891 53.707 242.805 54.2344 241.477 54.2344C239.984 54.2344 238.785 53.6484 237.879 52.4766C236.98 51.2969 236.531 49.6602 236.531 47.5664ZM239.918 47.8125C239.918 49 240.125 49.9102 240.539 50.543C240.953 51.1758 241.555 51.4922 242.344 51.4922C243.391 51.4922 244.129 51.0508 244.559 50.168V45.1641C244.137 44.2812 243.406 43.8398 242.367 43.8398C240.734 43.8398 239.918 45.1641 239.918 47.8125ZM254.156 54H250.758V41.3203H254.156V54ZM250.559 38.0391C250.559 37.5312 250.727 37.1133 251.062 36.7852C251.406 36.457 251.871 36.293 252.457 36.293C253.035 36.293 253.496 36.457 253.84 36.7852C254.184 37.1133 254.355 37.5312 254.355 38.0391C254.355 38.5547 254.18 38.9766 253.828 39.3047C253.484 39.6328 253.027 39.7969 252.457 39.7969C251.887 39.7969 251.426 39.6328 251.074 39.3047C250.73 38.9766 250.559 38.5547 250.559 38.0391ZM260.074 41.3203L260.18 42.7852C261.086 41.6523 262.301 41.0859 263.824 41.0859C265.168 41.0859 266.168 41.4805 266.824 42.2695C267.48 43.0586 267.816 44.2383 267.832 45.8086V54H264.445V45.8906C264.445 45.1719 264.289 44.6523 263.977 44.332C263.664 44.0039 263.145 43.8398 262.418 43.8398C261.465 43.8398 260.75 44.2461 260.273 45.0586V54H256.887V41.3203H260.074ZM269.918 47.5664C269.918 45.6211 270.379 44.0547 271.301 42.8672C272.23 41.6797 273.48 41.0859 275.051 41.0859C276.441 41.0859 277.523 41.5625 278.297 42.5156L278.438 41.3203H281.508V53.5781C281.508 54.6875 281.254 55.6523 280.746 56.4727C280.246 57.293 279.539 57.918 278.625 58.3477C277.711 58.7773 276.641 58.9922 275.414 58.9922C274.484 58.9922 273.578 58.8047 272.695 58.4297C271.812 58.0625 271.145 57.5859 270.691 57L272.191 54.9375C273.035 55.8828 274.059 56.3555 275.262 56.3555C276.16 56.3555 276.859 56.1133 277.359 55.6289C277.859 55.1523 278.109 54.4727 278.109 53.5898V52.9102C277.328 53.793 276.301 54.2344 275.027 54.2344C273.504 54.2344 272.27 53.6406 271.324 52.4531C270.387 51.2578 269.918 49.6758 269.918 47.707V47.5664ZM273.305 47.8125C273.305 48.9609 273.535 49.8633 273.996 50.5195C274.457 51.168 275.09 51.4922 275.895 51.4922C276.926 51.4922 277.664 51.1055 278.109 50.332V45C277.656 44.2266 276.926 43.8398 275.918 43.8398C275.105 43.8398 274.465 44.1719 273.996 44.8359C273.535 45.5 273.305 46.4922 273.305 47.8125ZM293.836 47.9883V54H290.32V36.9375H296.977C298.258 36.9375 299.383 37.1719 300.352 37.6406C301.328 38.1094 302.078 38.7773 302.602 39.6445C303.125 40.5039 303.387 41.4844 303.387 42.5859C303.387 44.2578 302.812 45.5781 301.664 46.5469C300.523 47.5078 298.941 47.9883 296.918 47.9883H293.836ZM293.836 45.1406H296.977C297.906 45.1406 298.613 44.9219 299.098 44.4844C299.59 44.0469 299.836 43.4219 299.836 42.6094C299.836 41.7734 299.59 41.0977 299.098 40.582C298.605 40.0664 297.926 39.8008 297.059 39.7852H293.836V45.1406ZM312.797 54C312.641 53.6953 312.527 53.3164 312.457 52.8633C311.637 53.7773 310.57 54.2344 309.258 54.2344C308.016 54.2344 306.984 53.875 306.164 53.1562C305.352 52.4375 304.945 51.5312 304.945 50.4375C304.945 49.0938 305.441 48.0625 306.434 47.3438C307.434 46.625 308.875 46.2617 310.758 46.2539H312.316V45.5273C312.316 44.9414 312.164 44.4727 311.859 44.1211C311.562 43.7695 311.09 43.5938 310.441 43.5938C309.871 43.5938 309.422 43.7305 309.094 44.0039C308.773 44.2773 308.613 44.6523 308.613 45.1289H305.227C305.227 44.3945 305.453 43.7148 305.906 43.0898C306.359 42.4648 307 41.9766 307.828 41.625C308.656 41.2656 309.586 41.0859 310.617 41.0859C312.18 41.0859 313.418 41.4805 314.332 42.2695C315.254 43.0508 315.715 44.1523 315.715 45.5742V51.0703C315.723 52.2734 315.891 53.1836 316.219 53.8008V54H312.797ZM309.996 51.6445C310.496 51.6445 310.957 51.5352 311.379 51.3164C311.801 51.0898 312.113 50.7891 312.316 50.4141V48.2344H311.051C309.355 48.2344 308.453 48.8203 308.344 49.9922L308.332 50.1914C308.332 50.6133 308.48 50.9609 308.777 51.2344C309.074 51.5078 309.48 51.6445 309.996 51.6445ZM317.824 47.5664C317.824 45.6211 318.285 44.0547 319.207 42.8672C320.137 41.6797 321.387 41.0859 322.957 41.0859C324.348 41.0859 325.43 41.5625 326.203 42.5156L326.344 41.3203H329.414V53.5781C329.414 54.6875 329.16 55.6523 328.652 56.4727C328.152 57.293 327.445 57.918 326.531 58.3477C325.617 58.7773 324.547 58.9922 323.32 58.9922C322.391 58.9922 321.484 58.8047 320.602 58.4297C319.719 58.0625 319.051 57.5859 318.598 57L320.098 54.9375C320.941 55.8828 321.965 56.3555 323.168 56.3555C324.066 56.3555 324.766 56.1133 325.266 55.6289C325.766 55.1523 326.016 54.4727 326.016 53.5898V52.9102C325.234 53.793 324.207 54.2344 322.934 54.2344C321.41 54.2344 320.176 53.6406 319.23 52.4531C318.293 51.2578 317.824 49.6758 317.824 47.707V47.5664ZM321.211 47.8125C321.211 48.9609 321.441 49.8633 321.902 50.5195C322.363 51.168 322.996 51.4922 323.801 51.4922C324.832 51.4922 325.57 51.1055 326.016 50.332V45C325.562 44.2266 324.832 43.8398 323.824 43.8398C323.012 43.8398 322.371 44.1719 321.902 44.8359C321.441 45.5 321.211 46.4922 321.211 47.8125ZM337.863 54.2344C336.004 54.2344 334.488 53.6641 333.316 52.5234C332.152 51.3828 331.57 49.8633 331.57 47.9648V47.6367C331.57 46.3633 331.816 45.2266 332.309 44.2266C332.801 43.2188 333.496 42.4453 334.395 41.9062C335.301 41.3594 336.332 41.0859 337.488 41.0859C339.223 41.0859 340.586 41.6328 341.578 42.7266C342.578 43.8203 343.078 45.3711 343.078 47.3789V48.7617H335.004C335.113 49.5898 335.441 50.2539 335.988 50.7539C336.543 51.2539 337.242 51.5039 338.086 51.5039C339.391 51.5039 340.41 51.0312 341.145 50.0859L342.809 51.9492C342.301 52.668 341.613 53.2305 340.746 53.6367C339.879 54.0352 338.918 54.2344 337.863 54.2344ZM337.477 43.8281C336.805 43.8281 336.258 44.0547 335.836 44.5078C335.422 44.9609 335.156 45.6094 335.039 46.4531H339.75V46.1836C339.734 45.4336 339.531 44.8555 339.141 44.4492C338.75 44.0352 338.195 43.8281 337.477 43.8281Z" fill="white"/>
<path d="M76 45.646V55C76 55.2652 75.8946 55.5196 75.7071 55.7071C75.5196 55.8946 75.2652 56 75 56H59C58.7348 56 58.4804 55.8946 58.2929 55.7071C58.1054 55.5196 58 55.2652 58 55V45.646C57.3543 44.916 56.9986 43.9746 57 43V37C57 36.7348 57.1054 36.4804 57.2929 36.2929C57.4804 36.1054 57.7348 36 58 36H76C76.2652 36 76.5196 36.1054 76.7071 36.2929C76.8946 36.4804 77 36.7348 77 37V43C77 44.014 76.622 44.94 76 45.646ZM74 46.874C73.2849 47.0577 72.5328 47.0403 71.827 46.8236C71.1211 46.6069 70.4889 46.1994 70 45.646C69.625 46.0721 69.1635 46.4133 68.6461 46.6468C68.1288 46.8802 67.5676 47.0007 67 47C66.4324 47.0007 65.8712 46.8802 65.3539 46.6468C64.8365 46.4133 64.375 46.0721 64 45.646C63.5123 46.2009 62.8801 46.6096 62.1739 46.8264C61.4676 47.0432 60.7151 47.0597 60 46.874V54H74V46.874ZM69 43C69 42.7348 69.1054 42.4804 69.2929 42.2929C69.4804 42.1054 69.7348 42 70 42C70.2652 42 70.5196 42.1054 70.7071 42.2929C70.8946 42.4804 71 42.7348 71 43C71 43.5304 71.2107 44.0391 71.5858 44.4142C71.9609 44.7893 72.4696 45 73 45C73.5304 45 74.0391 44.7893 74.4142 44.4142C74.7893 44.0391 75 43.5304 75 43V38H59V43C59 43.5304 59.2107 44.0391 59.5858 44.4142C59.9609 44.7893 60.4696 45 61 45C61.5304 45 62.0391 44.7893 62.4142 44.4142C62.7893 44.0391 63 43.5304 63 43C63 42.7348 63.1054 42.4804 63.2929 42.2929C63.4804 42.1054 63.7348 42 64 42C64.2652 42 64.5196 42.1054 64.7071 42.2929C64.8946 42.4804 65 42.7348 65 43C65 43.5304 65.2107 44.0391 65.5858 44.4142C65.9609 44.7893 66.4696 45 67 45C67.5304 45 68.0391 44.7893 68.4142 44.4142C68.7893 44.0391 69 43.5304 69 43Z" fill="white"/>
<defs>
<filter id="filter0_d" x="0" y="0" width="399" height="98" filterUnits="userSpaceOnUse" color-interpolation-filters="sRGB">
<feFlood flood-opacity="0" result="BackgroundImageFix"/>
<feColorMatrix in="SourceAlpha" type="matrix" values="0 0 0 0 0 0 0 0 0 0 0 0 0 0 0 0 0 0 127 0"/>
<feOffset dx="4" dy="4"/>
<feGaussianBlur stdDeviation="7.5"/>
<feColorMatrix type="matrix" values="0 0 0 0 0 0 0 0 0 0 0 0 0 0 0 0 0 0 0.78 0"/>
<feBlend mode="normal" in2="BackgroundImageFix" result="effect1_dropShadow"/>
<feBlend mode="normal" in="SourceGraphic" in2="effect1_dropShadow" result="shape"/>
</filter>
<radialGradient id="paint0_radial" cx="0" cy="0" r="1" gradientUnits="userSpaceOnUse" gradientTransform="translate(-16.3832 105.297) rotate(-13.0906) scale(394.054 819.976)">
<stop stop-color="#232323"/>
<stop offset="0.427083" stop-color="#353535"/>
<stop offset="0.776042" stop-color="#1C1C1D"/>
<stop offset="1" stop-color="#252526"/>
</radialGradient>
</defs>
</svg>
