<svg width="399" height="98" viewBox="0 0 399 98" fill="none" xmlns="http://www.w3.org/2000/svg">
<g filter="url(#filter0_d)">
<rect x="11" y="11" width="369" height="68" rx="6" fill="url(#paint0_radial)"/>
</g>
<path d="M142.312 51.8438C141.68 52.6016 140.785 53.1914 139.629 53.6133C138.473 54.0273 137.191 54.2344 135.785 54.2344C134.309 54.2344 133.012 53.9141 131.895 53.2734C130.785 52.625 129.926 51.6875 129.316 50.4609C128.715 49.2344 128.406 47.793 128.391 46.1367V44.9766C128.391 43.2734 128.676 41.8008 129.246 40.5586C129.824 39.3086 130.652 38.3555 131.73 37.6992C132.816 37.0352 134.086 36.7031 135.539 36.7031C137.562 36.7031 139.145 37.1875 140.285 38.1562C141.426 39.1172 142.102 40.5195 142.312 42.3633H138.891C138.734 41.3867 138.387 40.6719 137.848 40.2188C137.316 39.7656 136.582 39.5391 135.645 39.5391C134.449 39.5391 133.539 39.9883 132.914 40.8867C132.289 41.7852 131.973 43.1211 131.965 44.8945V45.9844C131.965 47.7734 132.305 49.125 132.984 50.0391C133.664 50.9531 134.66 51.4102 135.973 51.4102C137.293 51.4102 138.234 51.1289 138.797 50.5664V47.625H135.598V45.0352H142.312V51.8438ZM152.297 54C152.141 53.6953 152.027 53.3164 151.957 52.8633C151.137 53.7773 150.07 54.2344 148.758 54.2344C147.516 54.2344 146.484 53.875 145.664 53.1562C144.852 52.4375 144.445 51.5312 144.445 50.4375C144.445 49.0938 144.941 48.0625 145.934 47.3438C146.934 46.625 148.375 46.2617 150.258 46.2539H151.816V45.5273C151.816 44.9414 151.664 44.4727 151.359 44.1211C151.062 43.7695 150.59 43.5938 149.941 43.5938C149.371 43.5938 148.922 43.7305 148.594 44.0039C148.273 44.2773 148.113 44.6523 148.113 45.1289H144.727C144.727 44.3945 144.953 43.7148 145.406 43.0898C145.859 42.4648 146.5 41.9766 147.328 41.625C148.156 41.2656 149.086 41.0859 150.117 41.0859C151.68 41.0859 152.918 41.4805 153.832 42.2695C154.754 43.0508 155.215 44.1523 155.215 45.5742V51.0703C155.223 52.2734 155.391 53.1836 155.719 53.8008V54H152.297ZM149.496 51.6445C149.996 51.6445 150.457 51.5352 150.879 51.3164C151.301 51.0898 151.613 50.7891 151.816 50.4141V48.2344H150.551C148.855 48.2344 147.953 48.8203 147.844 49.9922L147.832 50.1914C147.832 50.6133 147.98 50.9609 148.277 51.2344C148.574 51.5078 148.98 51.6445 149.496 51.6445ZM160.934 41.3203L161.039 42.7852C161.945 41.6523 163.16 41.0859 164.684 41.0859C166.027 41.0859 167.027 41.4805 167.684 42.2695C168.34 43.0586 168.676 44.2383 168.691 45.8086V54H165.305V45.8906C165.305 45.1719 165.148 44.6523 164.836 44.332C164.523 44.0039 164.004 43.8398 163.277 43.8398C162.324 43.8398 161.609 44.2461 161.133 45.0586V54H157.746V41.3203H160.934ZM175.324 38.2031V41.3203H177.492V43.8047H175.324V50.1328C175.324 50.6016 175.414 50.9375 175.594 51.1406C175.773 51.3438 176.117 51.4453 176.625 51.4453C177 51.4453 177.332 51.418 177.621 51.3633V53.9297C176.957 54.1328 176.273 54.2344 175.57 54.2344C173.195 54.2344 171.984 53.0352 171.938 50.6367V43.8047H170.086V41.3203H171.938V38.2031H175.324ZM182.953 54H179.555V41.3203H182.953V54ZM179.355 38.0391C179.355 37.5312 179.523 37.1133 179.859 36.7852C180.203 36.457 180.668 36.293 181.254 36.293C181.832 36.293 182.293 36.457 182.637 36.7852C182.98 37.1133 183.152 37.5312 183.152 38.0391C183.152 38.5547 182.977 38.9766 182.625 39.3047C182.281 39.6328 181.824 39.7969 181.254 39.7969C180.684 39.7969 180.223 39.6328 179.871 39.3047C179.527 38.9766 179.355 38.5547 179.355 38.0391ZM195.469 51.1758H202.934V54H191.953V36.9375H195.469V51.1758ZM212.086 54C211.93 53.6953 211.816 53.3164 211.746 52.8633C210.926 53.7773 209.859 54.2344 208.547 54.2344C207.305 54.2344 206.273 53.875 205.453 53.1562C204.641 52.4375 204.234 51.5312 204.234 50.4375C204.234 49.0938 204.73 48.0625 205.723 47.3438C206.723 46.625 208.164 46.2617 210.047 46.2539H211.605V45.5273C211.605 44.9414 211.453 44.4727 211.148 44.1211C210.852 43.7695 210.379 43.5938 209.73 43.5938C209.16 43.5938 208.711 43.7305 208.383 44.0039C208.062 44.2773 207.902 44.6523 207.902 45.1289H204.516C204.516 44.3945 204.742 43.7148 205.195 43.0898C205.648 42.4648 206.289 41.9766 207.117 41.625C207.945 41.2656 208.875 41.0859 209.906 41.0859C211.469 41.0859 212.707 41.4805 213.621 42.2695C214.543 43.0508 215.004 44.1523 215.004 45.5742V51.0703C215.012 52.2734 215.18 53.1836 215.508 53.8008V54H212.086ZM209.285 51.6445C209.785 51.6445 210.246 51.5352 210.668 51.3164C211.09 51.0898 211.402 50.7891 211.605 50.4141V48.2344H210.34C208.645 48.2344 207.742 48.8203 207.633 49.9922L207.621 50.1914C207.621 50.6133 207.77 50.9609 208.066 51.2344C208.363 51.5078 208.77 51.6445 209.285 51.6445ZM220.723 41.3203L220.828 42.7852C221.734 41.6523 222.949 41.0859 224.473 41.0859C225.816 41.0859 226.816 41.4805 227.473 42.2695C228.129 43.0586 228.465 44.2383 228.48 45.8086V54H225.094V45.8906C225.094 45.1719 224.938 44.6523 224.625 44.332C224.312 44.0039 223.793 43.8398 223.066 43.8398C222.113 43.8398 221.398 44.2461 220.922 45.0586V54H217.535V41.3203H220.723ZM230.531 47.5664C230.531 45.5898 230.973 44.0156 231.855 42.8438C232.746 41.6719 233.961 41.0859 235.5 41.0859C236.734 41.0859 237.754 41.5469 238.559 42.4688V36H241.957V54H238.898L238.734 52.6523C237.891 53.707 236.805 54.2344 235.477 54.2344C233.984 54.2344 232.785 53.6484 231.879 52.4766C230.98 51.2969 230.531 49.6602 230.531 47.5664ZM233.918 47.8125C233.918 49 234.125 49.9102 234.539 50.543C234.953 51.1758 235.555 51.4922 236.344 51.4922C237.391 51.4922 238.129 51.0508 238.559 50.168V45.1641C238.137 44.2812 237.406 43.8398 236.367 43.8398C234.734 43.8398 233.918 45.1641 233.918 47.8125ZM248.156 54H244.758V41.3203H248.156V54ZM244.559 38.0391C244.559 37.5312 244.727 37.1133 245.062 36.7852C245.406 36.457 245.871 36.293 246.457 36.293C247.035 36.293 247.496 36.457 247.84 36.7852C248.184 37.1133 248.355 37.5312 248.355 38.0391C248.355 38.5547 248.18 38.9766 247.828 39.3047C247.484 39.6328 247.027 39.7969 246.457 39.7969C245.887 39.7969 245.426 39.6328 245.074 39.3047C244.73 38.9766 244.559 38.5547 244.559 38.0391ZM254.074 41.3203L254.18 42.7852C255.086 41.6523 256.301 41.0859 257.824 41.0859C259.168 41.0859 260.168 41.4805 260.824 42.2695C261.48 43.0586 261.816 44.2383 261.832 45.8086V54H258.445V45.8906C258.445 45.1719 258.289 44.6523 257.977 44.332C257.664 44.0039 257.145 43.8398 256.418 43.8398C255.465 43.8398 254.75 44.2461 254.273 45.0586V54H250.887V41.3203H254.074ZM263.918 47.5664C263.918 45.6211 264.379 44.0547 265.301 42.8672C266.23 41.6797 267.48 41.0859 269.051 41.0859C270.441 41.0859 271.523 41.5625 272.297 42.5156L272.438 41.3203H275.508V53.5781C275.508 54.6875 275.254 55.6523 274.746 56.4727C274.246 57.293 273.539 57.918 272.625 58.3477C271.711 58.7773 270.641 58.9922 269.414 58.9922C268.484 58.9922 267.578 58.8047 266.695 58.4297C265.812 58.0625 265.145 57.5859 264.691 57L266.191 54.9375C267.035 55.8828 268.059 56.3555 269.262 56.3555C270.16 56.3555 270.859 56.1133 271.359 55.6289C271.859 55.1523 272.109 54.4727 272.109 53.5898V52.9102C271.328 53.793 270.301 54.2344 269.027 54.2344C267.504 54.2344 266.27 53.6406 265.324 52.4531C264.387 51.2578 263.918 49.6758 263.918 47.707V47.5664ZM267.305 47.8125C267.305 48.9609 267.535 49.8633 267.996 50.5195C268.457 51.168 269.09 51.4922 269.895 51.4922C270.926 51.4922 271.664 51.1055 272.109 50.332V45C271.656 44.2266 270.926 43.8398 269.918 43.8398C269.105 43.8398 268.465 44.1719 267.996 44.8359C267.535 45.5 267.305 46.4922 267.305 47.8125ZM287.836 47.9883V54H284.32V36.9375H290.977C292.258 36.9375 293.383 37.1719 294.352 37.6406C295.328 38.1094 296.078 38.7773 296.602 39.6445C297.125 40.5039 297.387 41.4844 297.387 42.5859C297.387 44.2578 296.812 45.5781 295.664 46.5469C294.523 47.5078 292.941 47.9883 290.918 47.9883H287.836ZM287.836 45.1406H290.977C291.906 45.1406 292.613 44.9219 293.098 44.4844C293.59 44.0469 293.836 43.4219 293.836 42.6094C293.836 41.7734 293.59 41.0977 293.098 40.582C292.605 40.0664 291.926 39.8008 291.059 39.7852H287.836V45.1406ZM306.797 54C306.641 53.6953 306.527 53.3164 306.457 52.8633C305.637 53.7773 304.57 54.2344 303.258 54.2344C302.016 54.2344 300.984 53.875 300.164 53.1562C299.352 52.4375 298.945 51.5312 298.945 50.4375C298.945 49.0938 299.441 48.0625 300.434 47.3438C301.434 46.625 302.875 46.2617 304.758 46.2539H306.316V45.5273C306.316 44.9414 306.164 44.4727 305.859 44.1211C305.562 43.7695 305.09 43.5938 304.441 43.5938C303.871 43.5938 303.422 43.7305 303.094 44.0039C302.773 44.2773 302.613 44.6523 302.613 45.1289H299.227C299.227 44.3945 299.453 43.7148 299.906 43.0898C300.359 42.4648 301 41.9766 301.828 41.625C302.656 41.2656 303.586 41.0859 304.617 41.0859C306.18 41.0859 307.418 41.4805 308.332 42.2695C309.254 43.0508 309.715 44.1523 309.715 45.5742V51.0703C309.723 52.2734 309.891 53.1836 310.219 53.8008V54H306.797ZM303.996 51.6445C304.496 51.6445 304.957 51.5352 305.379 51.3164C305.801 51.0898 306.113 50.7891 306.316 50.4141V48.2344H305.051C303.355 48.2344 302.453 48.8203 302.344 49.9922L302.332 50.1914C302.332 50.6133 302.48 50.9609 302.777 51.2344C303.074 51.5078 303.48 51.6445 303.996 51.6445ZM311.824 47.5664C311.824 45.6211 312.285 44.0547 313.207 42.8672C314.137 41.6797 315.387 41.0859 316.957 41.0859C318.348 41.0859 319.43 41.5625 320.203 42.5156L320.344 41.3203H323.414V53.5781C323.414 54.6875 323.16 55.6523 322.652 56.4727C322.152 57.293 321.445 57.918 320.531 58.3477C319.617 58.7773 318.547 58.9922 317.32 58.9922C316.391 58.9922 315.484 58.8047 314.602 58.4297C313.719 58.0625 313.051 57.5859 312.598 57L314.098 54.9375C314.941 55.8828 315.965 56.3555 317.168 56.3555C318.066 56.3555 318.766 56.1133 319.266 55.6289C319.766 55.1523 320.016 54.4727 320.016 53.5898V52.9102C319.234 53.793 318.207 54.2344 316.934 54.2344C315.41 54.2344 314.176 53.6406 313.23 52.4531C312.293 51.2578 311.824 49.6758 311.824 47.707V47.5664ZM315.211 47.8125C315.211 48.9609 315.441 49.8633 315.902 50.5195C316.363 51.168 316.996 51.4922 317.801 51.4922C318.832 51.4922 319.57 51.1055 320.016 50.332V45C319.562 44.2266 318.832 43.8398 317.824 43.8398C317.012 43.8398 316.371 44.1719 315.902 44.8359C315.441 45.5 315.211 46.4922 315.211 47.8125ZM331.863 54.2344C330.004 54.2344 328.488 53.6641 327.316 52.5234C326.152 51.3828 325.57 49.8633 325.57 47.9648V47.6367C325.57 46.3633 325.816 45.2266 326.309 44.2266C326.801 43.2188 327.496 42.4453 328.395 41.9062C329.301 41.3594 330.332 41.0859 331.488 41.0859C333.223 41.0859 334.586 41.6328 335.578 42.7266C336.578 43.8203 337.078 45.3711 337.078 47.3789V48.7617H329.004C329.113 49.5898 329.441 50.2539 329.988 50.7539C330.543 51.2539 331.242 51.5039 332.086 51.5039C333.391 51.5039 334.41 51.0312 335.145 50.0859L336.809 51.9492C336.301 52.668 335.613 53.2305 334.746 53.6367C333.879 54.0352 332.918 54.2344 331.863 54.2344ZM331.477 43.8281C330.805 43.8281 330.258 44.0547 329.836 44.5078C329.422 44.9609 329.156 45.6094 329.039 46.4531H333.75V46.1836C333.734 45.4336 333.531 44.8555 333.141 44.4492C332.75 44.0352 332.195 43.8281 331.477 43.8281Z" fill="white"/>
<path d="M72.6127 51.0996V52.4596H60.3866V51.0996H61.0301V46.6796C60.7084 46.3396 60.3866 45.9996 60.0649 45.6596C59.904 45.3196 59.7432 44.8096 59.7432 44.2996C59.7432 43.7896 59.904 43.2796 60.0649 42.7696L61.6736 39.7096C61.6736 39.5396 61.8345 39.5396 61.8345 39.5396C61.9953 39.5396 61.9953 39.3696 62.1562 39.3696H70.5214C70.6823 39.3696 70.6823 39.3696 70.8432 39.5396C71.004 39.5396 71.004 39.7096 71.004 39.7096L72.6127 42.7696C72.9345 43.4496 73.0953 44.1296 72.9345 44.9796C72.7736 45.6596 72.291 46.3396 71.8084 46.8496V51.0996H72.6127ZM62.6388 40.8996L61.191 43.6196C61.0301 43.9596 61.0301 44.2996 61.191 44.8096C61.3519 45.1496 61.6736 45.4896 61.9953 45.6596C62.3171 45.8296 62.7997 45.8296 63.1214 45.8296C63.4432 45.6596 63.7649 45.4896 63.9258 45.1496C64.0866 44.6396 64.891 44.6396 65.0519 45.1496C65.2127 45.4896 65.3736 45.6596 65.6953 45.8296C66.0171 45.9996 66.1779 46.1696 66.4997 46.1696C66.8214 46.1696 67.1432 45.9996 67.304 45.8296C67.6258 45.6596 67.7866 45.3196 67.9475 45.1496C68.1084 44.6396 68.9127 44.6396 69.0736 45.1496C69.0736 45.3196 69.2345 45.4896 69.3953 45.6596C69.5562 45.8296 69.7171 45.9996 69.8779 45.9996C70.0388 45.9996 70.3606 46.1696 70.5214 46.1696C70.6823 46.1696 71.004 46.1696 71.1649 45.9996C71.3258 45.8296 71.4866 45.8296 71.6475 45.6596C71.8084 45.4896 71.8084 45.3196 71.9693 45.1496C71.9693 44.9796 71.9693 44.6396 71.9693 44.4696C71.9693 44.2996 71.8084 43.9596 71.8084 43.7896L70.3606 40.8996H62.6388Z" fill="white"/>
<path d="M80.9783 46.0002C80.9783 42.7702 80.013 39.7102 78.4043 37.1602L75.6696 39.2002C76.9565 41.2402 77.7609 43.6202 77.7609 46.0002C77.7609 50.7602 75.0261 55.0102 71.0043 56.8802L70.8435 55.6902L66.5 59.6002L71.9696 61.6402L71.6478 60.2802C77.2783 58.0702 80.9783 52.4602 80.9783 46.0002Z" fill="white"/>
<path d="M66.4997 32.3999L61.0302 30.3599L61.3519 31.7199C55.7215 33.9299 52.0215 39.7099 52.0215 45.9999C52.0215 49.2299 52.9867 52.2899 54.5954 54.8399L57.3302 52.7999C56.0432 50.7599 55.2389 48.3799 55.2389 45.9999C55.2389 41.2399 57.9737 36.9899 61.9954 35.1199L62.1563 36.3099L66.4997 32.3999Z" fill="white"/>
<defs>
<filter id="filter0_d" x="0" y="0" width="399" height="98" filterUnits="userSpaceOnUse" color-interpolation-filters="sRGB">
<feFlood flood-opacity="0" result="BackgroundImageFix"/>
<feColorMatrix in="SourceAlpha" type="matrix" values="0 0 0 0 0 0 0 0 0 0 0 0 0 0 0 0 0 0 127 0"/>
<feOffset dx="4" dy="4"/>
<feGaussianBlur stdDeviation="7.5"/>
<feColorMatrix type="matrix" values="0 0 0 0 0 0 0 0 0 0 0 0 0 0 0 0 0 0 0.78 0"/>
<feBlend mode="normal" in2="BackgroundImageFix" result="effect1_dropShadow"/>
<feBlend mode="normal" in="SourceGraphic" in2="effect1_dropShadow" result="shape"/>
</filter>
<radialGradient id="paint0_radial" cx="0" cy="0" r="1" gradientUnits="userSpaceOnUse" gradientTransform="translate(-16.3832 105.297) rotate(-13.0906) scale(394.054 819.976)">
<stop stop-color="#232323"/>
<stop offset="0.427083" stop-color="#353535"/>
<stop offset="0.776042" stop-color="#1C1C1D"/>
<stop offset="1" stop-color="#252526"/>
</radialGradient>
</defs>
</svg>
