<svg width="48" height="48" viewBox="0 0 48 48" fill="none" xmlns="http://www.w3.org/2000/svg">
<path d="M15.6189 21.1053C15.9252 21.1053 16.2189 21.2273 16.4355 21.4444C16.652 21.6616 16.7737 21.9561 16.7737 22.2632C18.5879 22.2605 20.3499 22.8725 21.7737 24H24.2794C25.8187 24 27.2009 24.6716 28.1524 25.7368H31.7852C32.8767 25.7365 33.946 26.0465 34.869 26.6308C35.792 27.2151 36.5309 28.0497 37 29.038C34.2691 32.6518 29.8476 35 24.8568 35C21.6351 35 18.9099 34.3018 16.7044 33.0802C16.6236 33.3038 16.476 33.4969 16.2818 33.6332C16.0875 33.7696 15.8561 33.8425 15.6189 33.8421H12.1547C11.8485 33.8421 11.5548 33.7201 11.3382 33.503C11.1217 33.2858 11 32.9913 11 32.6842V22.2632C11 21.9561 11.1217 21.6616 11.3382 21.4444C11.5548 21.2273 11.8485 21.1053 12.1547 21.1053H15.6189ZM16.7748 24.5789L16.7737 30.3939L16.8256 30.4309C18.8984 31.8899 21.5982 32.6842 24.8568 32.6842C28.3256 32.6842 31.5531 31.3457 33.9042 29.06L34.0577 28.906L33.9192 28.7902C33.3739 28.362 32.7129 28.1078 32.0219 28.0607L31.7852 28.0526H29.3476C29.4307 28.4255 29.4757 28.8122 29.4757 29.2105V30.3684H19.0831V28.0526L26.9238 28.0515L26.8845 27.9612C26.6632 27.4975 26.3228 27.1012 25.8983 26.8131C25.4737 26.5249 24.9804 26.3553 24.4688 26.3216L24.2794 26.3158H20.8961C20.3595 25.7655 19.7186 25.3283 19.011 25.03C18.3034 24.7318 17.5435 24.5784 16.776 24.5789H16.7748ZM14.4642 23.4211H13.3095V31.5263H14.4642V23.4211ZM30.6305 16.4737C31.5492 16.4737 32.4304 16.8397 33.08 17.4911C33.7297 18.1425 34.0947 19.0261 34.0947 19.9474C34.0947 20.8686 33.7297 21.7522 33.08 22.4036C32.4304 23.0551 31.5492 23.4211 30.6305 23.4211C29.7117 23.4211 28.8306 23.0551 28.1809 22.4036C27.5313 21.7522 27.1663 20.8686 27.1663 19.9474C27.1663 19.0261 27.5313 18.1425 28.1809 17.4911C28.8306 16.8397 29.7117 16.4737 30.6305 16.4737ZM30.6305 18.7895C30.3242 18.7895 30.0305 18.9115 29.814 19.1286C29.5974 19.3458 29.4757 19.6403 29.4757 19.9474C29.4757 20.2545 29.5974 20.549 29.814 20.7661C30.0305 20.9833 30.3242 21.1053 30.6305 21.1053C30.9367 21.1053 31.2305 20.9833 31.447 20.7661C31.6636 20.549 31.7852 20.2545 31.7852 19.9474C31.7852 19.6403 31.6636 19.3458 31.447 19.1286C31.2305 18.9115 30.9367 18.7895 30.6305 18.7895ZM22.5473 13C23.4661 13 24.3472 13.366 24.9969 14.0174C25.6466 14.6689 26.0115 15.5524 26.0115 16.4737C26.0115 17.395 25.6466 18.2785 24.9969 18.9299C24.3472 19.5814 23.4661 19.9474 22.5473 19.9474C21.6286 19.9474 20.7474 19.5814 20.0978 18.9299C19.4481 18.2785 19.0831 17.395 19.0831 16.4737C19.0831 15.5524 19.4481 14.6689 20.0978 14.0174C20.7474 13.366 21.6286 13 22.5473 13ZM22.5473 15.3158C22.2411 15.3158 21.9474 15.4378 21.7308 15.6549C21.5143 15.8721 21.3926 16.1666 21.3926 16.4737C21.3926 16.7808 21.5143 17.0753 21.7308 17.2924C21.9474 17.5096 22.2411 17.6316 22.5473 17.6316C22.8536 17.6316 23.1473 17.5096 23.3639 17.2924C23.5804 17.0753 23.7021 16.7808 23.7021 16.4737C23.7021 16.1666 23.5804 15.8721 23.3639 15.6549C23.1473 15.4378 22.8536 15.3158 22.5473 15.3158Z" fill="white"/>
<circle cx="24" cy="24" r="21.5" stroke="white" stroke-width="5"/>
</svg>
