<svg width="399" height="98" viewBox="0 0 399 98" fill="none" xmlns="http://www.w3.org/2000/svg">
<g filter="url(#filter0_d)">
<rect x="11" y="11" width="369" height="68" rx="6" fill="url(#paint0_radial)"/>
</g>
<path d="M137.359 54H133.844V36.9375H137.359V54ZM143.523 41.3203L143.629 42.7852C144.535 41.6523 145.75 41.0859 147.273 41.0859C148.617 41.0859 149.617 41.4805 150.273 42.2695C150.93 43.0586 151.266 44.2383 151.281 45.8086V54H147.895V45.8906C147.895 45.1719 147.738 44.6523 147.426 44.332C147.113 44.0039 146.594 43.8398 145.867 43.8398C144.914 43.8398 144.199 44.2461 143.723 45.0586V54H140.336V41.3203H143.523ZM165.273 47.7773C165.273 49.7305 164.828 51.2969 163.938 52.4766C163.055 53.6484 161.859 54.2344 160.352 54.2344C159.07 54.2344 158.035 53.7891 157.246 52.8984V58.875H153.859V41.3203H157L157.117 42.5625C157.938 41.5781 159.008 41.0859 160.328 41.0859C161.891 41.0859 163.105 41.6641 163.973 42.8203C164.84 43.9766 165.273 45.5703 165.273 47.6016V47.7773ZM161.887 47.5312C161.887 46.3516 161.676 45.4414 161.254 44.8008C160.84 44.1602 160.234 43.8398 159.438 43.8398C158.375 43.8398 157.645 44.2461 157.246 45.0586V50.25C157.66 51.0859 158.398 51.5039 159.461 51.5039C161.078 51.5039 161.887 50.1797 161.887 47.5312ZM174.977 52.7109C174.141 53.7266 172.984 54.2344 171.508 54.2344C170.148 54.2344 169.109 53.8438 168.391 53.0625C167.68 52.2812 167.316 51.1367 167.301 49.6289V41.3203H170.688V49.5117C170.688 50.832 171.289 51.4922 172.492 51.4922C173.641 51.4922 174.43 51.0938 174.859 50.2969V41.3203H178.258V54H175.07L174.977 52.7109ZM184.867 38.2031V41.3203H187.035V43.8047H184.867V50.1328C184.867 50.6016 184.957 50.9375 185.137 51.1406C185.316 51.3438 185.66 51.4453 186.168 51.4453C186.543 51.4453 186.875 51.418 187.164 51.3633V53.9297C186.5 54.1328 185.816 54.2344 185.113 54.2344C182.738 54.2344 181.527 53.0352 181.48 50.6367V43.8047H179.629V41.3203H181.48V38.2031H184.867ZM198.637 47.9883V54H195.121V36.9375H201.777C203.059 36.9375 204.184 37.1719 205.152 37.6406C206.129 38.1094 206.879 38.7773 207.402 39.6445C207.926 40.5039 208.188 41.4844 208.188 42.5859C208.188 44.2578 207.613 45.5781 206.465 46.5469C205.324 47.5078 203.742 47.9883 201.719 47.9883H198.637ZM198.637 45.1406H201.777C202.707 45.1406 203.414 44.9219 203.898 44.4844C204.391 44.0469 204.637 43.4219 204.637 42.6094C204.637 41.7734 204.391 41.0977 203.898 40.582C203.406 40.0664 202.727 39.8008 201.859 39.7852H198.637V45.1406ZM216.062 54.2344C214.203 54.2344 212.688 53.6641 211.516 52.5234C210.352 51.3828 209.77 49.8633 209.77 47.9648V47.6367C209.77 46.3633 210.016 45.2266 210.508 44.2266C211 43.2188 211.695 42.4453 212.594 41.9062C213.5 41.3594 214.531 41.0859 215.688 41.0859C217.422 41.0859 218.785 41.6328 219.777 42.7266C220.777 43.8203 221.277 45.3711 221.277 47.3789V48.7617H213.203C213.312 49.5898 213.641 50.2539 214.188 50.7539C214.742 51.2539 215.441 51.5039 216.285 51.5039C217.59 51.5039 218.609 51.0312 219.344 50.0859L221.008 51.9492C220.5 52.668 219.812 53.2305 218.945 53.6367C218.078 54.0352 217.117 54.2344 216.062 54.2344ZM215.676 43.8281C215.004 43.8281 214.457 44.0547 214.035 44.5078C213.621 44.9609 213.355 45.6094 213.238 46.4531H217.949V46.1836C217.934 45.4336 217.73 44.8555 217.34 44.4492C216.949 44.0352 216.395 43.8281 215.676 43.8281ZM230.078 50.4961C230.078 50.082 229.871 49.7578 229.457 49.5234C229.051 49.2812 228.395 49.0664 227.488 48.8789C224.473 48.2461 222.965 46.9648 222.965 45.0352C222.965 43.9102 223.43 42.9727 224.359 42.2227C225.297 41.4648 226.52 41.0859 228.027 41.0859C229.637 41.0859 230.922 41.4648 231.883 42.2227C232.852 42.9805 233.336 43.9648 233.336 45.1758H229.949C229.949 44.6914 229.793 44.293 229.48 43.9805C229.168 43.6602 228.68 43.5 228.016 43.5C227.445 43.5 227.004 43.6289 226.691 43.8867C226.379 44.1445 226.223 44.4727 226.223 44.8711C226.223 45.2461 226.398 45.5508 226.75 45.7852C227.109 46.0117 227.711 46.2109 228.555 46.3828C229.398 46.5469 230.109 46.7344 230.688 46.9453C232.477 47.6016 233.371 48.7383 233.371 50.3555C233.371 51.5117 232.875 52.4492 231.883 53.168C230.891 53.8789 229.609 54.2344 228.039 54.2344C226.977 54.2344 226.031 54.0469 225.203 53.6719C224.383 53.2891 223.738 52.7695 223.27 52.1133C222.801 51.4492 222.566 50.7344 222.566 49.9688H225.777C225.809 50.5703 226.031 51.0312 226.445 51.3516C226.859 51.6719 227.414 51.832 228.109 51.832C228.758 51.832 229.246 51.7109 229.574 51.4688C229.91 51.2188 230.078 50.8945 230.078 50.4961ZM242.91 54C242.754 53.6953 242.641 53.3164 242.57 52.8633C241.75 53.7773 240.684 54.2344 239.371 54.2344C238.129 54.2344 237.098 53.875 236.277 53.1562C235.465 52.4375 235.059 51.5312 235.059 50.4375C235.059 49.0938 235.555 48.0625 236.547 47.3438C237.547 46.625 238.988 46.2617 240.871 46.2539H242.43V45.5273C242.43 44.9414 242.277 44.4727 241.973 44.1211C241.676 43.7695 241.203 43.5938 240.555 43.5938C239.984 43.5938 239.535 43.7305 239.207 44.0039C238.887 44.2773 238.727 44.6523 238.727 45.1289H235.34C235.34 44.3945 235.566 43.7148 236.02 43.0898C236.473 42.4648 237.113 41.9766 237.941 41.625C238.77 41.2656 239.699 41.0859 240.73 41.0859C242.293 41.0859 243.531 41.4805 244.445 42.2695C245.367 43.0508 245.828 44.1523 245.828 45.5742V51.0703C245.836 52.2734 246.004 53.1836 246.332 53.8008V54H242.91ZM240.109 51.6445C240.609 51.6445 241.07 51.5352 241.492 51.3164C241.914 51.0898 242.227 50.7891 242.43 50.4141V48.2344H241.164C239.469 48.2344 238.566 48.8203 238.457 49.9922L238.445 50.1914C238.445 50.6133 238.594 50.9609 238.891 51.2344C239.188 51.5078 239.594 51.6445 240.109 51.6445ZM251.547 41.3203L251.652 42.7852C252.559 41.6523 253.773 41.0859 255.297 41.0859C256.641 41.0859 257.641 41.4805 258.297 42.2695C258.953 43.0586 259.289 44.2383 259.305 45.8086V54H255.918V45.8906C255.918 45.1719 255.762 44.6523 255.449 44.332C255.137 44.0039 254.617 43.8398 253.891 43.8398C252.938 43.8398 252.223 44.2461 251.746 45.0586V54H248.359V41.3203H251.547ZM269.23 54C269.074 53.6953 268.961 53.3164 268.891 52.8633C268.07 53.7773 267.004 54.2344 265.691 54.2344C264.449 54.2344 263.418 53.875 262.598 53.1562C261.785 52.4375 261.379 51.5312 261.379 50.4375C261.379 49.0938 261.875 48.0625 262.867 47.3438C263.867 46.625 265.309 46.2617 267.191 46.2539H268.75V45.5273C268.75 44.9414 268.598 44.4727 268.293 44.1211C267.996 43.7695 267.523 43.5938 266.875 43.5938C266.305 43.5938 265.855 43.7305 265.527 44.0039C265.207 44.2773 265.047 44.6523 265.047 45.1289H261.66C261.66 44.3945 261.887 43.7148 262.34 43.0898C262.793 42.4648 263.434 41.9766 264.262 41.625C265.09 41.2656 266.02 41.0859 267.051 41.0859C268.613 41.0859 269.852 41.4805 270.766 42.2695C271.688 43.0508 272.148 44.1523 272.148 45.5742V51.0703C272.156 52.2734 272.324 53.1836 272.652 53.8008V54H269.23ZM266.43 51.6445C266.93 51.6445 267.391 51.5352 267.812 51.3164C268.234 51.0898 268.547 50.7891 268.75 50.4141V48.2344H267.484C265.789 48.2344 264.887 48.8203 264.777 49.9922L264.766 50.1914C264.766 50.6133 264.914 50.9609 265.211 51.2344C265.508 51.5078 265.914 51.6445 266.43 51.6445ZM277.867 41.3203L277.973 42.7852C278.879 41.6523 280.094 41.0859 281.617 41.0859C282.961 41.0859 283.961 41.4805 284.617 42.2695C285.273 43.0586 285.609 44.2383 285.625 45.8086V54H282.238V45.8906C282.238 45.1719 282.082 44.6523 281.77 44.332C281.457 44.0039 280.938 43.8398 280.211 43.8398C279.258 43.8398 278.543 44.2461 278.066 45.0586V54H274.68V41.3203H277.867Z" fill="white"/>
<path d="M64.958 42.9585V33.7085H68.0413V42.9585H77.2913V46.0418H68.0413V55.2918H64.958V46.0418H55.708V42.9585H64.958Z" fill="white"/>
<defs>
<filter id="filter0_d" x="0" y="0" width="399" height="98" filterUnits="userSpaceOnUse" color-interpolation-filters="sRGB">
<feFlood flood-opacity="0" result="BackgroundImageFix"/>
<feColorMatrix in="SourceAlpha" type="matrix" values="0 0 0 0 0 0 0 0 0 0 0 0 0 0 0 0 0 0 127 0"/>
<feOffset dx="4" dy="4"/>
<feGaussianBlur stdDeviation="7.5"/>
<feColorMatrix type="matrix" values="0 0 0 0 0 0 0 0 0 0 0 0 0 0 0 0 0 0 0.78 0"/>
<feBlend mode="normal" in2="BackgroundImageFix" result="effect1_dropShadow"/>
<feBlend mode="normal" in="SourceGraphic" in2="effect1_dropShadow" result="shape"/>
</filter>
<radialGradient id="paint0_radial" cx="0" cy="0" r="1" gradientUnits="userSpaceOnUse" gradientTransform="translate(-16.3832 105.297) rotate(-13.0906) scale(394.054 819.976)">
<stop stop-color="#232323"/>
<stop offset="0.427083" stop-color="#353535"/>
<stop offset="0.776042" stop-color="#1C1C1D"/>
<stop offset="1" stop-color="#252526"/>
</radialGradient>
</defs>
</svg>
