<svg width="399" height="98" viewBox="0 0 399 98" fill="none" xmlns="http://www.w3.org/2000/svg">
<g filter="url(#filter0_d)">
<rect x="11" y="11" width="369" height="68" rx="6" fill="url(#paint0_radial)"/>
</g>
<path d="M142.016 51.1758H149.48V54H138.5V36.9375H142.016V51.1758ZM158.633 54C158.477 53.6953 158.363 53.3164 158.293 52.8633C157.473 53.7773 156.406 54.2344 155.094 54.2344C153.852 54.2344 152.82 53.875 152 53.1562C151.188 52.4375 150.781 51.5312 150.781 50.4375C150.781 49.0938 151.277 48.0625 152.27 47.3438C153.27 46.625 154.711 46.2617 156.594 46.2539H158.152V45.5273C158.152 44.9414 158 44.4727 157.695 44.1211C157.398 43.7695 156.926 43.5938 156.277 43.5938C155.707 43.5938 155.258 43.7305 154.93 44.0039C154.609 44.2773 154.449 44.6523 154.449 45.1289H151.062C151.062 44.3945 151.289 43.7148 151.742 43.0898C152.195 42.4648 152.836 41.9766 153.664 41.625C154.492 41.2656 155.422 41.0859 156.453 41.0859C158.016 41.0859 159.254 41.4805 160.168 42.2695C161.09 43.0508 161.551 44.1523 161.551 45.5742V51.0703C161.559 52.2734 161.727 53.1836 162.055 53.8008V54H158.633ZM155.832 51.6445C156.332 51.6445 156.793 51.5352 157.215 51.3164C157.637 51.0898 157.949 50.7891 158.152 50.4141V48.2344H156.887C155.191 48.2344 154.289 48.8203 154.18 49.9922L154.168 50.1914C154.168 50.6133 154.316 50.9609 154.613 51.2344C154.91 51.5078 155.316 51.6445 155.832 51.6445ZM167.27 41.3203L167.375 42.7852C168.281 41.6523 169.496 41.0859 171.02 41.0859C172.363 41.0859 173.363 41.4805 174.02 42.2695C174.676 43.0586 175.012 44.2383 175.027 45.8086V54H171.641V45.8906C171.641 45.1719 171.484 44.6523 171.172 44.332C170.859 44.0039 170.34 43.8398 169.613 43.8398C168.66 43.8398 167.945 44.2461 167.469 45.0586V54H164.082V41.3203H167.27ZM177.078 47.5664C177.078 45.5898 177.52 44.0156 178.402 42.8438C179.293 41.6719 180.508 41.0859 182.047 41.0859C183.281 41.0859 184.301 41.5469 185.105 42.4688V36H188.504V54H185.445L185.281 52.6523C184.438 53.707 183.352 54.2344 182.023 54.2344C180.531 54.2344 179.332 53.6484 178.426 52.4766C177.527 51.2969 177.078 49.6602 177.078 47.5664ZM180.465 47.8125C180.465 49 180.672 49.9102 181.086 50.543C181.5 51.1758 182.102 51.4922 182.891 51.4922C183.938 51.4922 184.676 51.0508 185.105 50.168V45.1641C184.684 44.2812 183.953 43.8398 182.914 43.8398C181.281 43.8398 180.465 45.1641 180.465 47.8125ZM194.703 54H191.305V41.3203H194.703V54ZM191.105 38.0391C191.105 37.5312 191.273 37.1133 191.609 36.7852C191.953 36.457 192.418 36.293 193.004 36.293C193.582 36.293 194.043 36.457 194.387 36.7852C194.73 37.1133 194.902 37.5312 194.902 38.0391C194.902 38.5547 194.727 38.9766 194.375 39.3047C194.031 39.6328 193.574 39.7969 193.004 39.7969C192.434 39.7969 191.973 39.6328 191.621 39.3047C191.277 38.9766 191.105 38.5547 191.105 38.0391ZM200.621 41.3203L200.727 42.7852C201.633 41.6523 202.848 41.0859 204.371 41.0859C205.715 41.0859 206.715 41.4805 207.371 42.2695C208.027 43.0586 208.363 44.2383 208.379 45.8086V54H204.992V45.8906C204.992 45.1719 204.836 44.6523 204.523 44.332C204.211 44.0039 203.691 43.8398 202.965 43.8398C202.012 43.8398 201.297 44.2461 200.82 45.0586V54H197.434V41.3203H200.621ZM210.465 47.5664C210.465 45.6211 210.926 44.0547 211.848 42.8672C212.777 41.6797 214.027 41.0859 215.598 41.0859C216.988 41.0859 218.07 41.5625 218.844 42.5156L218.984 41.3203H222.055V53.5781C222.055 54.6875 221.801 55.6523 221.293 56.4727C220.793 57.293 220.086 57.918 219.172 58.3477C218.258 58.7773 217.188 58.9922 215.961 58.9922C215.031 58.9922 214.125 58.8047 213.242 58.4297C212.359 58.0625 211.691 57.5859 211.238 57L212.738 54.9375C213.582 55.8828 214.605 56.3555 215.809 56.3555C216.707 56.3555 217.406 56.1133 217.906 55.6289C218.406 55.1523 218.656 54.4727 218.656 53.5898V52.9102C217.875 53.793 216.848 54.2344 215.574 54.2344C214.051 54.2344 212.816 53.6406 211.871 52.4531C210.934 51.2578 210.465 49.6758 210.465 47.707V47.5664ZM213.852 47.8125C213.852 48.9609 214.082 49.8633 214.543 50.5195C215.004 51.168 215.637 51.4922 216.441 51.4922C217.473 51.4922 218.211 51.1055 218.656 50.332V45C218.203 44.2266 217.473 43.8398 216.465 43.8398C215.652 43.8398 215.012 44.1719 214.543 44.8359C214.082 45.5 213.852 46.4922 213.852 47.8125ZM234.383 47.9883V54H230.867V36.9375H237.523C238.805 36.9375 239.93 37.1719 240.898 37.6406C241.875 38.1094 242.625 38.7773 243.148 39.6445C243.672 40.5039 243.934 41.4844 243.934 42.5859C243.934 44.2578 243.359 45.5781 242.211 46.5469C241.07 47.5078 239.488 47.9883 237.465 47.9883H234.383ZM234.383 45.1406H237.523C238.453 45.1406 239.16 44.9219 239.645 44.4844C240.137 44.0469 240.383 43.4219 240.383 42.6094C240.383 41.7734 240.137 41.0977 239.645 40.582C239.152 40.0664 238.473 39.8008 237.605 39.7852H234.383V45.1406ZM253.344 54C253.188 53.6953 253.074 53.3164 253.004 52.8633C252.184 53.7773 251.117 54.2344 249.805 54.2344C248.562 54.2344 247.531 53.875 246.711 53.1562C245.898 52.4375 245.492 51.5312 245.492 50.4375C245.492 49.0938 245.988 48.0625 246.98 47.3438C247.98 46.625 249.422 46.2617 251.305 46.2539H252.863V45.5273C252.863 44.9414 252.711 44.4727 252.406 44.1211C252.109 43.7695 251.637 43.5938 250.988 43.5938C250.418 43.5938 249.969 43.7305 249.641 44.0039C249.32 44.2773 249.16 44.6523 249.16 45.1289H245.773C245.773 44.3945 246 43.7148 246.453 43.0898C246.906 42.4648 247.547 41.9766 248.375 41.625C249.203 41.2656 250.133 41.0859 251.164 41.0859C252.727 41.0859 253.965 41.4805 254.879 42.2695C255.801 43.0508 256.262 44.1523 256.262 45.5742V51.0703C256.27 52.2734 256.438 53.1836 256.766 53.8008V54H253.344ZM250.543 51.6445C251.043 51.6445 251.504 51.5352 251.926 51.3164C252.348 51.0898 252.66 50.7891 252.863 50.4141V48.2344H251.598C249.902 48.2344 249 48.8203 248.891 49.9922L248.879 50.1914C248.879 50.6133 249.027 50.9609 249.324 51.2344C249.621 51.5078 250.027 51.6445 250.543 51.6445ZM258.371 47.5664C258.371 45.6211 258.832 44.0547 259.754 42.8672C260.684 41.6797 261.934 41.0859 263.504 41.0859C264.895 41.0859 265.977 41.5625 266.75 42.5156L266.891 41.3203H269.961V53.5781C269.961 54.6875 269.707 55.6523 269.199 56.4727C268.699 57.293 267.992 57.918 267.078 58.3477C266.164 58.7773 265.094 58.9922 263.867 58.9922C262.938 58.9922 262.031 58.8047 261.148 58.4297C260.266 58.0625 259.598 57.5859 259.145 57L260.645 54.9375C261.488 55.8828 262.512 56.3555 263.715 56.3555C264.613 56.3555 265.312 56.1133 265.812 55.6289C266.312 55.1523 266.562 54.4727 266.562 53.5898V52.9102C265.781 53.793 264.754 54.2344 263.48 54.2344C261.957 54.2344 260.723 53.6406 259.777 52.4531C258.84 51.2578 258.371 49.6758 258.371 47.707V47.5664ZM261.758 47.8125C261.758 48.9609 261.988 49.8633 262.449 50.5195C262.91 51.168 263.543 51.4922 264.348 51.4922C265.379 51.4922 266.117 51.1055 266.562 50.332V45C266.109 44.2266 265.379 43.8398 264.371 43.8398C263.559 43.8398 262.918 44.1719 262.449 44.8359C261.988 45.5 261.758 46.4922 261.758 47.8125ZM278.41 54.2344C276.551 54.2344 275.035 53.6641 273.863 52.5234C272.699 51.3828 272.117 49.8633 272.117 47.9648V47.6367C272.117 46.3633 272.363 45.2266 272.855 44.2266C273.348 43.2188 274.043 42.4453 274.941 41.9062C275.848 41.3594 276.879 41.0859 278.035 41.0859C279.77 41.0859 281.133 41.6328 282.125 42.7266C283.125 43.8203 283.625 45.3711 283.625 47.3789V48.7617H275.551C275.66 49.5898 275.988 50.2539 276.535 50.7539C277.09 51.2539 277.789 51.5039 278.633 51.5039C279.938 51.5039 280.957 51.0312 281.691 50.0859L283.355 51.9492C282.848 52.668 282.16 53.2305 281.293 53.6367C280.426 54.0352 279.465 54.2344 278.41 54.2344ZM278.023 43.8281C277.352 43.8281 276.805 44.0547 276.383 44.5078C275.969 44.9609 275.703 45.6094 275.586 46.4531H280.297V46.1836C280.281 45.4336 280.078 44.8555 279.688 44.4492C279.297 44.0352 278.742 43.8281 278.023 43.8281Z" fill="white"/>
<path d="M80 53V55H60V53H61V46.242C60.3844 45.8311 59.8797 45.2745 59.5308 44.6218C59.1819 43.969 58.9996 43.2402 59 42.5C59 41.673 59.224 40.876 59.633 40.197L62.345 35.5C62.4328 35.348 62.559 35.2217 62.711 35.134C62.863 35.0462 63.0355 35 63.211 35H76.79C76.9655 35 77.138 35.0462 77.29 35.134C77.442 35.2217 77.5682 35.348 77.656 35.5L80.358 40.182C80.9546 41.1729 81.1463 42.3555 80.8934 43.4841C80.6405 44.6127 79.9624 45.6005 79 46.242V53H80ZM63.789 37L61.356 41.213C61.1196 41.7971 61.1125 42.449 61.3361 43.0382C61.5598 43.6273 61.9977 44.1103 62.5622 44.3904C63.1267 44.6705 63.7761 44.7271 64.3806 44.5488C64.985 44.3706 65.4998 43.9706 65.822 43.429C66.157 42.592 67.342 42.592 67.678 43.429C67.8633 43.8934 68.1836 44.2916 68.5975 44.5721C69.0115 44.8526 69.5 45.0025 70 45.0025C70.5 45.0025 70.9885 44.8526 71.4025 44.5721C71.8164 44.2916 72.1367 43.8934 72.322 43.429C72.657 42.592 73.842 42.592 74.178 43.429C74.3078 43.7484 74.5022 44.0376 74.7491 44.2783C74.996 44.519 75.2901 44.706 75.6127 44.8275C75.9354 44.9491 76.2797 45.0026 76.6241 44.9847C76.9684 44.9668 77.3053 44.8778 77.6136 44.7234C77.9219 44.569 78.1949 44.3525 78.4155 44.0875C78.6361 43.8225 78.7995 43.5148 78.8955 43.1836C78.9914 42.8524 79.0178 42.5049 78.973 42.1631C78.9281 41.8212 78.8131 41.4923 78.635 41.197L76.21 37H63.79H63.789Z" fill="white"/>
<defs>
<filter id="filter0_d" x="0" y="0" width="399" height="98" filterUnits="userSpaceOnUse" color-interpolation-filters="sRGB">
<feFlood flood-opacity="0" result="BackgroundImageFix"/>
<feColorMatrix in="SourceAlpha" type="matrix" values="0 0 0 0 0 0 0 0 0 0 0 0 0 0 0 0 0 0 127 0"/>
<feOffset dx="4" dy="4"/>
<feGaussianBlur stdDeviation="7.5"/>
<feColorMatrix type="matrix" values="0 0 0 0 0 0 0 0 0 0 0 0 0 0 0 0 0 0 0.78 0"/>
<feBlend mode="normal" in2="BackgroundImageFix" result="effect1_dropShadow"/>
<feBlend mode="normal" in="SourceGraphic" in2="effect1_dropShadow" result="shape"/>
</filter>
<radialGradient id="paint0_radial" cx="0" cy="0" r="1" gradientUnits="userSpaceOnUse" gradientTransform="translate(-16.3832 105.297) rotate(-13.0906) scale(394.054 819.976)">
<stop stop-color="#232323"/>
<stop offset="0.427083" stop-color="#353535"/>
<stop offset="0.776042" stop-color="#1C1C1D"/>
<stop offset="1" stop-color="#252526"/>
</radialGradient>
</defs>
</svg>
