<svg width="399" height="98" viewBox="0 0 399 98" fill="none" xmlns="http://www.w3.org/2000/svg">
<g filter="url(#filter0_d)">
<rect x="11" y="11" width="369" height="68" rx="6" fill="url(#paint0_radial)"/>
</g>
<path d="M135.039 51.1758H142.504V54H131.523V36.9375H135.039V51.1758ZM151.656 54C151.5 53.6953 151.387 53.3164 151.316 52.8633C150.496 53.7773 149.43 54.2344 148.117 54.2344C146.875 54.2344 145.844 53.875 145.023 53.1562C144.211 52.4375 143.805 51.5312 143.805 50.4375C143.805 49.0938 144.301 48.0625 145.293 47.3438C146.293 46.625 147.734 46.2617 149.617 46.2539H151.176V45.5273C151.176 44.9414 151.023 44.4727 150.719 44.1211C150.422 43.7695 149.949 43.5938 149.301 43.5938C148.73 43.5938 148.281 43.7305 147.953 44.0039C147.633 44.2773 147.473 44.6523 147.473 45.1289H144.086C144.086 44.3945 144.312 43.7148 144.766 43.0898C145.219 42.4648 145.859 41.9766 146.688 41.625C147.516 41.2656 148.445 41.0859 149.477 41.0859C151.039 41.0859 152.277 41.4805 153.191 42.2695C154.113 43.0508 154.574 44.1523 154.574 45.5742V51.0703C154.582 52.2734 154.75 53.1836 155.078 53.8008V54H151.656ZM148.855 51.6445C149.355 51.6445 149.816 51.5352 150.238 51.3164C150.66 51.0898 150.973 50.7891 151.176 50.4141V48.2344H149.91C148.215 48.2344 147.312 48.8203 147.203 49.9922L147.191 50.1914C147.191 50.6133 147.34 50.9609 147.637 51.2344C147.934 51.5078 148.34 51.6445 148.855 51.6445ZM168.59 47.7773C168.59 49.7305 168.145 51.2969 167.254 52.4766C166.371 53.6484 165.176 54.2344 163.668 54.2344C162.387 54.2344 161.352 53.7891 160.562 52.8984V58.875H157.176V41.3203H160.316L160.434 42.5625C161.254 41.5781 162.324 41.0859 163.645 41.0859C165.207 41.0859 166.422 41.6641 167.289 42.8203C168.156 43.9766 168.59 45.5703 168.59 47.6016V47.7773ZM165.203 47.5312C165.203 46.3516 164.992 45.4414 164.57 44.8008C164.156 44.1602 163.551 43.8398 162.754 43.8398C161.691 43.8398 160.961 44.2461 160.562 45.0586V50.25C160.977 51.0859 161.715 51.5039 162.777 51.5039C164.395 51.5039 165.203 50.1797 165.203 47.5312ZM170.172 47.543C170.172 46.2852 170.414 45.1641 170.898 44.1797C171.383 43.1953 172.078 42.4336 172.984 41.8945C173.898 41.3555 174.957 41.0859 176.16 41.0859C177.871 41.0859 179.266 41.6094 180.344 42.6562C181.43 43.7031 182.035 45.125 182.16 46.9219L182.184 47.7891C182.184 49.7344 181.641 51.2969 180.555 52.4766C179.469 53.6484 178.012 54.2344 176.184 54.2344C174.355 54.2344 172.895 53.6484 171.801 52.4766C170.715 51.3047 170.172 49.7109 170.172 47.6953V47.543ZM173.559 47.7891C173.559 48.9922 173.785 49.9141 174.238 50.5547C174.691 51.1875 175.34 51.5039 176.184 51.5039C177.004 51.5039 177.645 51.1914 178.105 50.5664C178.566 49.9336 178.797 48.9258 178.797 47.543C178.797 46.3633 178.566 45.4492 178.105 44.8008C177.645 44.1523 176.996 43.8281 176.16 43.8281C175.332 43.8281 174.691 44.1523 174.238 44.8008C173.785 45.4414 173.559 46.4375 173.559 47.7891ZM191.395 44.4961C190.934 44.4336 190.527 44.4023 190.176 44.4023C188.895 44.4023 188.055 44.8359 187.656 45.7031V54H184.27V41.3203H187.469L187.562 42.832C188.242 41.668 189.184 41.0859 190.387 41.0859C190.762 41.0859 191.113 41.1367 191.441 41.2383L191.395 44.4961ZM200.031 54C199.875 53.6953 199.762 53.3164 199.691 52.8633C198.871 53.7773 197.805 54.2344 196.492 54.2344C195.25 54.2344 194.219 53.875 193.398 53.1562C192.586 52.4375 192.18 51.5312 192.18 50.4375C192.18 49.0938 192.676 48.0625 193.668 47.3438C194.668 46.625 196.109 46.2617 197.992 46.2539H199.551V45.5273C199.551 44.9414 199.398 44.4727 199.094 44.1211C198.797 43.7695 198.324 43.5938 197.676 43.5938C197.105 43.5938 196.656 43.7305 196.328 44.0039C196.008 44.2773 195.848 44.6523 195.848 45.1289H192.461C192.461 44.3945 192.688 43.7148 193.141 43.0898C193.594 42.4648 194.234 41.9766 195.062 41.625C195.891 41.2656 196.82 41.0859 197.852 41.0859C199.414 41.0859 200.652 41.4805 201.566 42.2695C202.488 43.0508 202.949 44.1523 202.949 45.5742V51.0703C202.957 52.2734 203.125 53.1836 203.453 53.8008V54H200.031ZM197.23 51.6445C197.73 51.6445 198.191 51.5352 198.613 51.3164C199.035 51.0898 199.348 50.7891 199.551 50.4141V48.2344H198.285C196.59 48.2344 195.688 48.8203 195.578 49.9922L195.566 50.1914C195.566 50.6133 195.715 50.9609 196.012 51.2344C196.309 51.5078 196.715 51.6445 197.23 51.6445ZM208.668 41.3203L208.773 42.7852C209.68 41.6523 210.895 41.0859 212.418 41.0859C213.762 41.0859 214.762 41.4805 215.418 42.2695C216.074 43.0586 216.41 44.2383 216.426 45.8086V54H213.039V45.8906C213.039 45.1719 212.883 44.6523 212.57 44.332C212.258 44.0039 211.738 43.8398 211.012 43.8398C210.059 43.8398 209.344 44.2461 208.867 45.0586V54H205.48V41.3203H208.668ZM230.547 47.1562L228.719 49.125V54H225.203V36.9375H228.719V44.6719L230.266 42.5508L234.613 36.9375H238.938L232.879 44.5195L239.113 54H234.93L230.547 47.1562ZM245.746 54.2344C243.887 54.2344 242.371 53.6641 241.199 52.5234C240.035 51.3828 239.453 49.8633 239.453 47.9648V47.6367C239.453 46.3633 239.699 45.2266 240.191 44.2266C240.684 43.2188 241.379 42.4453 242.277 41.9062C243.184 41.3594 244.215 41.0859 245.371 41.0859C247.105 41.0859 248.469 41.6328 249.461 42.7266C250.461 43.8203 250.961 45.3711 250.961 47.3789V48.7617H242.887C242.996 49.5898 243.324 50.2539 243.871 50.7539C244.426 51.2539 245.125 51.5039 245.969 51.5039C247.273 51.5039 248.293 51.0312 249.027 50.0859L250.691 51.9492C250.184 52.668 249.496 53.2305 248.629 53.6367C247.762 54.0352 246.801 54.2344 245.746 54.2344ZM245.359 43.8281C244.688 43.8281 244.141 44.0547 243.719 44.5078C243.305 44.9609 243.039 45.6094 242.922 46.4531H247.633V46.1836C247.617 45.4336 247.414 44.8555 247.023 44.4492C246.633 44.0352 246.078 43.8281 245.359 43.8281ZM260.488 52.7109C259.652 53.7266 258.496 54.2344 257.02 54.2344C255.66 54.2344 254.621 53.8438 253.902 53.0625C253.191 52.2812 252.828 51.1367 252.812 49.6289V41.3203H256.199V49.5117C256.199 50.832 256.801 51.4922 258.004 51.4922C259.152 51.4922 259.941 51.0938 260.371 50.2969V41.3203H263.77V54H260.582L260.488 52.7109ZM273.672 54C273.516 53.6953 273.402 53.3164 273.332 52.8633C272.512 53.7773 271.445 54.2344 270.133 54.2344C268.891 54.2344 267.859 53.875 267.039 53.1562C266.227 52.4375 265.82 51.5312 265.82 50.4375C265.82 49.0938 266.316 48.0625 267.309 47.3438C268.309 46.625 269.75 46.2617 271.633 46.2539H273.191V45.5273C273.191 44.9414 273.039 44.4727 272.734 44.1211C272.438 43.7695 271.965 43.5938 271.316 43.5938C270.746 43.5938 270.297 43.7305 269.969 44.0039C269.648 44.2773 269.488 44.6523 269.488 45.1289H266.102C266.102 44.3945 266.328 43.7148 266.781 43.0898C267.234 42.4648 267.875 41.9766 268.703 41.625C269.531 41.2656 270.461 41.0859 271.492 41.0859C273.055 41.0859 274.293 41.4805 275.207 42.2695C276.129 43.0508 276.59 44.1523 276.59 45.5742V51.0703C276.598 52.2734 276.766 53.1836 277.094 53.8008V54H273.672ZM270.871 51.6445C271.371 51.6445 271.832 51.5352 272.254 51.3164C272.676 51.0898 272.988 50.7891 273.191 50.4141V48.2344H271.926C270.23 48.2344 269.328 48.8203 269.219 49.9922L269.207 50.1914C269.207 50.6133 269.355 50.9609 269.652 51.2344C269.949 51.5078 270.355 51.6445 270.871 51.6445ZM282.309 41.3203L282.414 42.7852C283.32 41.6523 284.535 41.0859 286.059 41.0859C287.402 41.0859 288.402 41.4805 289.059 42.2695C289.715 43.0586 290.051 44.2383 290.066 45.8086V54H286.68V45.8906C286.68 45.1719 286.523 44.6523 286.211 44.332C285.898 44.0039 285.379 43.8398 284.652 43.8398C283.699 43.8398 282.984 44.2461 282.508 45.0586V54H279.121V41.3203H282.309ZM292.152 47.5664C292.152 45.6211 292.613 44.0547 293.535 42.8672C294.465 41.6797 295.715 41.0859 297.285 41.0859C298.676 41.0859 299.758 41.5625 300.531 42.5156L300.672 41.3203H303.742V53.5781C303.742 54.6875 303.488 55.6523 302.98 56.4727C302.48 57.293 301.773 57.918 300.859 58.3477C299.945 58.7773 298.875 58.9922 297.648 58.9922C296.719 58.9922 295.812 58.8047 294.93 58.4297C294.047 58.0625 293.379 57.5859 292.926 57L294.426 54.9375C295.27 55.8828 296.293 56.3555 297.496 56.3555C298.395 56.3555 299.094 56.1133 299.594 55.6289C300.094 55.1523 300.344 54.4727 300.344 53.5898V52.9102C299.562 53.793 298.535 54.2344 297.262 54.2344C295.738 54.2344 294.504 53.6406 293.559 52.4531C292.621 51.2578 292.152 49.6758 292.152 47.707V47.5664ZM295.539 47.8125C295.539 48.9609 295.77 49.8633 296.23 50.5195C296.691 51.168 297.324 51.4922 298.129 51.4922C299.16 51.4922 299.898 51.1055 300.344 50.332V45C299.891 44.2266 299.16 43.8398 298.152 43.8398C297.34 43.8398 296.699 44.1719 296.23 44.8359C295.77 45.5 295.539 46.4922 295.539 47.8125ZM313.703 54C313.547 53.6953 313.434 53.3164 313.363 52.8633C312.543 53.7773 311.477 54.2344 310.164 54.2344C308.922 54.2344 307.891 53.875 307.07 53.1562C306.258 52.4375 305.852 51.5312 305.852 50.4375C305.852 49.0938 306.348 48.0625 307.34 47.3438C308.34 46.625 309.781 46.2617 311.664 46.2539H313.223V45.5273C313.223 44.9414 313.07 44.4727 312.766 44.1211C312.469 43.7695 311.996 43.5938 311.348 43.5938C310.777 43.5938 310.328 43.7305 310 44.0039C309.68 44.2773 309.52 44.6523 309.52 45.1289H306.133C306.133 44.3945 306.359 43.7148 306.812 43.0898C307.266 42.4648 307.906 41.9766 308.734 41.625C309.562 41.2656 310.492 41.0859 311.523 41.0859C313.086 41.0859 314.324 41.4805 315.238 42.2695C316.16 43.0508 316.621 44.1523 316.621 45.5742V51.0703C316.629 52.2734 316.797 53.1836 317.125 53.8008V54H313.703ZM310.902 51.6445C311.402 51.6445 311.863 51.5352 312.285 51.3164C312.707 51.0898 313.02 50.7891 313.223 50.4141V48.2344H311.957C310.262 48.2344 309.359 48.8203 309.25 49.9922L309.238 50.1914C309.238 50.6133 309.387 50.9609 309.684 51.2344C309.98 51.5078 310.387 51.6445 310.902 51.6445ZM322.34 41.3203L322.445 42.7852C323.352 41.6523 324.566 41.0859 326.09 41.0859C327.434 41.0859 328.434 41.4805 329.09 42.2695C329.746 43.0586 330.082 44.2383 330.098 45.8086V54H326.711V45.8906C326.711 45.1719 326.555 44.6523 326.242 44.332C325.93 44.0039 325.41 43.8398 324.684 43.8398C323.73 43.8398 323.016 44.2461 322.539 45.0586V54H319.152V41.3203H322.34Z" fill="white"/>
<path d="M68.5 57C61.5963 57 56 51.4037 56 44.5C56 37.5963 61.5963 32 68.5 32C75.4037 32 81 37.5963 81 44.5C81 51.4037 75.4037 57 68.5 57ZM68.5 54.5C71.1522 54.5 73.6957 53.4464 75.5711 51.5711C77.4464 49.6957 78.5 47.1522 78.5 44.5C78.5 41.8478 77.4464 39.3043 75.5711 37.4289C73.6957 35.5536 71.1522 34.5 68.5 34.5C65.8478 34.5 63.3043 35.5536 61.4289 37.4289C59.5536 39.3043 58.5 41.8478 58.5 44.5C58.5 47.1522 59.5536 49.6957 61.4289 51.5711C63.3043 53.4464 65.8478 54.5 68.5 54.5ZM64.125 47H71C71.1658 47 71.3247 46.9342 71.4419 46.8169C71.5592 46.6997 71.625 46.5408 71.625 46.375C71.625 46.2092 71.5592 46.0503 71.4419 45.9331C71.3247 45.8158 71.1658 45.75 71 45.75H66C65.1712 45.75 64.3763 45.4208 63.7903 44.8347C63.2042 44.2487 62.875 43.4538 62.875 42.625C62.875 41.7962 63.2042 41.0013 63.7903 40.4153C64.3763 39.8292 65.1712 39.5 66 39.5H67.25V37H69.75V39.5H72.875V42H66C65.8342 42 65.6753 42.0658 65.5581 42.1831C65.4408 42.3003 65.375 42.4592 65.375 42.625C65.375 42.7908 65.4408 42.9497 65.5581 43.0669C65.6753 43.1842 65.8342 43.25 66 43.25H71C71.8288 43.25 72.6237 43.5792 73.2097 44.1653C73.7958 44.7513 74.125 45.5462 74.125 46.375C74.125 47.2038 73.7958 47.9987 73.2097 48.5847C72.6237 49.1708 71.8288 49.5 71 49.5H69.75V52H67.25V49.5H64.125V47Z" fill="white"/>
<defs>
<filter id="filter0_d" x="0" y="0" width="399" height="98" filterUnits="userSpaceOnUse" color-interpolation-filters="sRGB">
<feFlood flood-opacity="0" result="BackgroundImageFix"/>
<feColorMatrix in="SourceAlpha" type="matrix" values="0 0 0 0 0 0 0 0 0 0 0 0 0 0 0 0 0 0 127 0"/>
<feOffset dx="4" dy="4"/>
<feGaussianBlur stdDeviation="7.5"/>
<feColorMatrix type="matrix" values="0 0 0 0 0 0 0 0 0 0 0 0 0 0 0 0 0 0 0.78 0"/>
<feBlend mode="normal" in2="BackgroundImageFix" result="effect1_dropShadow"/>
<feBlend mode="normal" in="SourceGraphic" in2="effect1_dropShadow" result="shape"/>
</filter>
<radialGradient id="paint0_radial" cx="0" cy="0" r="1" gradientUnits="userSpaceOnUse" gradientTransform="translate(-16.3832 105.297) rotate(-13.0906) scale(394.054 819.976)">
<stop stop-color="#232323"/>
<stop offset="0.427083" stop-color="#353535"/>
<stop offset="0.776042" stop-color="#1C1C1D"/>
<stop offset="1" stop-color="#252526"/>
</radialGradient>
</defs>
</svg>
