<svg width="399" height="98" viewBox="0 0 399 98" fill="none" xmlns="http://www.w3.org/2000/svg">
<g filter="url(#filter0_d)">
<rect x="11" y="11" width="369" height="68" rx="6" fill="url(#paint0_radial)"/>
</g>
<path d="M136.039 51.1758H143.504V54H132.523V36.9375H136.039V51.1758ZM148.883 54H145.484V41.3203H148.883V54ZM145.285 38.0391C145.285 37.5312 145.453 37.1133 145.789 36.7852C146.133 36.457 146.598 36.293 147.184 36.293C147.762 36.293 148.223 36.457 148.566 36.7852C148.91 37.1133 149.082 37.5312 149.082 38.0391C149.082 38.5547 148.906 38.9766 148.555 39.3047C148.211 39.6328 147.754 39.7969 147.184 39.7969C146.613 39.7969 146.152 39.6328 145.801 39.3047C145.457 38.9766 145.285 38.5547 145.285 38.0391ZM158.551 50.4961C158.551 50.082 158.344 49.7578 157.93 49.5234C157.523 49.2812 156.867 49.0664 155.961 48.8789C152.945 48.2461 151.438 46.9648 151.438 45.0352C151.438 43.9102 151.902 42.9727 152.832 42.2227C153.77 41.4648 154.992 41.0859 156.5 41.0859C158.109 41.0859 159.395 41.4648 160.355 42.2227C161.324 42.9805 161.809 43.9648 161.809 45.1758H158.422C158.422 44.6914 158.266 44.293 157.953 43.9805C157.641 43.6602 157.152 43.5 156.488 43.5C155.918 43.5 155.477 43.6289 155.164 43.8867C154.852 44.1445 154.695 44.4727 154.695 44.8711C154.695 45.2461 154.871 45.5508 155.223 45.7852C155.582 46.0117 156.184 46.2109 157.027 46.3828C157.871 46.5469 158.582 46.7344 159.16 46.9453C160.949 47.6016 161.844 48.7383 161.844 50.3555C161.844 51.5117 161.348 52.4492 160.355 53.168C159.363 53.8789 158.082 54.2344 156.512 54.2344C155.449 54.2344 154.504 54.0469 153.676 53.6719C152.855 53.2891 152.211 52.7695 151.742 52.1133C151.273 51.4492 151.039 50.7344 151.039 49.9688H154.25C154.281 50.5703 154.504 51.0312 154.918 51.3516C155.332 51.6719 155.887 51.832 156.582 51.832C157.23 51.832 157.719 51.7109 158.047 51.4688C158.383 51.2188 158.551 50.8945 158.551 50.4961ZM168.09 38.2031V41.3203H170.258V43.8047H168.09V50.1328C168.09 50.6016 168.18 50.9375 168.359 51.1406C168.539 51.3438 168.883 51.4453 169.391 51.4453C169.766 51.4453 170.098 51.418 170.387 51.3633V53.9297C169.723 54.1328 169.039 54.2344 168.336 54.2344C165.961 54.2344 164.75 53.0352 164.703 50.6367V43.8047H162.852V41.3203H164.703V38.2031H168.09ZM181.859 47.9883V54H178.344V36.9375H185C186.281 36.9375 187.406 37.1719 188.375 37.6406C189.352 38.1094 190.102 38.7773 190.625 39.6445C191.148 40.5039 191.41 41.4844 191.41 42.5859C191.41 44.2578 190.836 45.5781 189.688 46.5469C188.547 47.5078 186.965 47.9883 184.941 47.9883H181.859ZM181.859 45.1406H185C185.93 45.1406 186.637 44.9219 187.121 44.4844C187.613 44.0469 187.859 43.4219 187.859 42.6094C187.859 41.7734 187.613 41.0977 187.121 40.582C186.629 40.0664 185.949 39.8008 185.082 39.7852H181.859V45.1406ZM199.285 54.2344C197.426 54.2344 195.91 53.6641 194.738 52.5234C193.574 51.3828 192.992 49.8633 192.992 47.9648V47.6367C192.992 46.3633 193.238 45.2266 193.73 44.2266C194.223 43.2188 194.918 42.4453 195.816 41.9062C196.723 41.3594 197.754 41.0859 198.91 41.0859C200.645 41.0859 202.008 41.6328 203 42.7266C204 43.8203 204.5 45.3711 204.5 47.3789V48.7617H196.426C196.535 49.5898 196.863 50.2539 197.41 50.7539C197.965 51.2539 198.664 51.5039 199.508 51.5039C200.812 51.5039 201.832 51.0312 202.566 50.0859L204.23 51.9492C203.723 52.668 203.035 53.2305 202.168 53.6367C201.301 54.0352 200.34 54.2344 199.285 54.2344ZM198.898 43.8281C198.227 43.8281 197.68 44.0547 197.258 44.5078C196.844 44.9609 196.578 45.6094 196.461 46.4531H201.172V46.1836C201.156 45.4336 200.953 44.8555 200.562 44.4492C200.172 44.0352 199.617 43.8281 198.898 43.8281ZM213.301 50.4961C213.301 50.082 213.094 49.7578 212.68 49.5234C212.273 49.2812 211.617 49.0664 210.711 48.8789C207.695 48.2461 206.188 46.9648 206.188 45.0352C206.188 43.9102 206.652 42.9727 207.582 42.2227C208.52 41.4648 209.742 41.0859 211.25 41.0859C212.859 41.0859 214.145 41.4648 215.105 42.2227C216.074 42.9805 216.559 43.9648 216.559 45.1758H213.172C213.172 44.6914 213.016 44.293 212.703 43.9805C212.391 43.6602 211.902 43.5 211.238 43.5C210.668 43.5 210.227 43.6289 209.914 43.8867C209.602 44.1445 209.445 44.4727 209.445 44.8711C209.445 45.2461 209.621 45.5508 209.973 45.7852C210.332 46.0117 210.934 46.2109 211.777 46.3828C212.621 46.5469 213.332 46.7344 213.91 46.9453C215.699 47.6016 216.594 48.7383 216.594 50.3555C216.594 51.5117 216.098 52.4492 215.105 53.168C214.113 53.8789 212.832 54.2344 211.262 54.2344C210.199 54.2344 209.254 54.0469 208.426 53.6719C207.605 53.2891 206.961 52.7695 206.492 52.1133C206.023 51.4492 205.789 50.7344 205.789 49.9688H209C209.031 50.5703 209.254 51.0312 209.668 51.3516C210.082 51.6719 210.637 51.832 211.332 51.832C211.98 51.832 212.469 51.7109 212.797 51.4688C213.133 51.2188 213.301 50.8945 213.301 50.4961ZM226.133 54C225.977 53.6953 225.863 53.3164 225.793 52.8633C224.973 53.7773 223.906 54.2344 222.594 54.2344C221.352 54.2344 220.32 53.875 219.5 53.1562C218.688 52.4375 218.281 51.5312 218.281 50.4375C218.281 49.0938 218.777 48.0625 219.77 47.3438C220.77 46.625 222.211 46.2617 224.094 46.2539H225.652V45.5273C225.652 44.9414 225.5 44.4727 225.195 44.1211C224.898 43.7695 224.426 43.5938 223.777 43.5938C223.207 43.5938 222.758 43.7305 222.43 44.0039C222.109 44.2773 221.949 44.6523 221.949 45.1289H218.562C218.562 44.3945 218.789 43.7148 219.242 43.0898C219.695 42.4648 220.336 41.9766 221.164 41.625C221.992 41.2656 222.922 41.0859 223.953 41.0859C225.516 41.0859 226.754 41.4805 227.668 42.2695C228.59 43.0508 229.051 44.1523 229.051 45.5742V51.0703C229.059 52.2734 229.227 53.1836 229.555 53.8008V54H226.133ZM223.332 51.6445C223.832 51.6445 224.293 51.5352 224.715 51.3164C225.137 51.0898 225.449 50.7891 225.652 50.4141V48.2344H224.387C222.691 48.2344 221.789 48.8203 221.68 49.9922L221.668 50.1914C221.668 50.6133 221.816 50.9609 222.113 51.2344C222.41 51.5078 222.816 51.6445 223.332 51.6445ZM234.77 41.3203L234.875 42.7852C235.781 41.6523 236.996 41.0859 238.52 41.0859C239.863 41.0859 240.863 41.4805 241.52 42.2695C242.176 43.0586 242.512 44.2383 242.527 45.8086V54H239.141V45.8906C239.141 45.1719 238.984 44.6523 238.672 44.332C238.359 44.0039 237.84 43.8398 237.113 43.8398C236.16 43.8398 235.445 44.2461 234.969 45.0586V54H231.582V41.3203H234.77ZM252.453 54C252.297 53.6953 252.184 53.3164 252.113 52.8633C251.293 53.7773 250.227 54.2344 248.914 54.2344C247.672 54.2344 246.641 53.875 245.82 53.1562C245.008 52.4375 244.602 51.5312 244.602 50.4375C244.602 49.0938 245.098 48.0625 246.09 47.3438C247.09 46.625 248.531 46.2617 250.414 46.2539H251.973V45.5273C251.973 44.9414 251.82 44.4727 251.516 44.1211C251.219 43.7695 250.746 43.5938 250.098 43.5938C249.527 43.5938 249.078 43.7305 248.75 44.0039C248.43 44.2773 248.27 44.6523 248.27 45.1289H244.883C244.883 44.3945 245.109 43.7148 245.562 43.0898C246.016 42.4648 246.656 41.9766 247.484 41.625C248.312 41.2656 249.242 41.0859 250.273 41.0859C251.836 41.0859 253.074 41.4805 253.988 42.2695C254.91 43.0508 255.371 44.1523 255.371 45.5742V51.0703C255.379 52.2734 255.547 53.1836 255.875 53.8008V54H252.453ZM249.652 51.6445C250.152 51.6445 250.613 51.5352 251.035 51.3164C251.457 51.0898 251.77 50.7891 251.973 50.4141V48.2344H250.707C249.012 48.2344 248.109 48.8203 248 49.9922L247.988 50.1914C247.988 50.6133 248.137 50.9609 248.434 51.2344C248.73 51.5078 249.137 51.6445 249.652 51.6445ZM261.09 41.3203L261.195 42.7852C262.102 41.6523 263.316 41.0859 264.84 41.0859C266.184 41.0859 267.184 41.4805 267.84 42.2695C268.496 43.0586 268.832 44.2383 268.848 45.8086V54H265.461V45.8906C265.461 45.1719 265.305 44.6523 264.992 44.332C264.68 44.0039 264.16 43.8398 263.434 43.8398C262.48 43.8398 261.766 44.2461 261.289 45.0586V54H257.902V41.3203H261.09Z" fill="white"/>
<path d="M75 35C75.552 35 76 35.448 76 36V39.757L74 41.757V37H60V53H74V50.242L76 48.242V54C76 54.552 75.552 55 75 55H59C58.448 55 58 54.552 58 54V36C58 35.448 58.448 35 59 35H75ZM76.778 41.808L78.192 43.222L70.414 51L68.998 50.998L69 49.586L76.778 41.808ZM68 45V47H63V45H68ZM71 41V43H63V41H71Z" fill="white"/>
<defs>
<filter id="filter0_d" x="0" y="0" width="399" height="98" filterUnits="userSpaceOnUse" color-interpolation-filters="sRGB">
<feFlood flood-opacity="0" result="BackgroundImageFix"/>
<feColorMatrix in="SourceAlpha" type="matrix" values="0 0 0 0 0 0 0 0 0 0 0 0 0 0 0 0 0 0 127 0"/>
<feOffset dx="4" dy="4"/>
<feGaussianBlur stdDeviation="7.5"/>
<feColorMatrix type="matrix" values="0 0 0 0 0 0 0 0 0 0 0 0 0 0 0 0 0 0 0.78 0"/>
<feBlend mode="normal" in2="BackgroundImageFix" result="effect1_dropShadow"/>
<feBlend mode="normal" in="SourceGraphic" in2="effect1_dropShadow" result="shape"/>
</filter>
<radialGradient id="paint0_radial" cx="0" cy="0" r="1" gradientUnits="userSpaceOnUse" gradientTransform="translate(-16.3832 105.297) rotate(-13.0906) scale(394.054 819.976)">
<stop stop-color="#232323"/>
<stop offset="0.427083" stop-color="#353535"/>
<stop offset="0.776042" stop-color="#1C1C1D"/>
<stop offset="1" stop-color="#252526"/>
</radialGradient>
</defs>
</svg>
