<svg width="391" height="98" viewBox="0 0 391 98" fill="none" xmlns="http://www.w3.org/2000/svg">
<g filter="url(#filter0_d)">
<rect x="11" y="11" width="361" height="68" rx="6" fill="url(#paint0_radial)"/>
</g>
<path d="M171.484 49.5234C171.484 48.8594 171.25 48.3516 170.781 48C170.312 47.6406 169.469 47.2656 168.25 46.875C167.031 46.4766 166.066 46.0859 165.355 45.7031C163.418 44.6562 162.449 43.2461 162.449 41.4727C162.449 40.5508 162.707 39.7305 163.223 39.0117C163.746 38.2852 164.492 37.7188 165.461 37.3125C166.438 36.9062 167.531 36.7031 168.742 36.7031C169.961 36.7031 171.047 36.9258 172 37.3711C172.953 37.8086 173.691 38.4297 174.215 39.2344C174.746 40.0391 175.012 40.9531 175.012 41.9766H171.496C171.496 41.1953 171.25 40.5898 170.758 40.1602C170.266 39.7227 169.574 39.5039 168.684 39.5039C167.824 39.5039 167.156 39.6875 166.68 40.0547C166.203 40.4141 165.965 40.8906 165.965 41.4844C165.965 42.0391 166.242 42.5039 166.797 42.8789C167.359 43.2539 168.184 43.6055 169.27 43.9336C171.27 44.5352 172.727 45.2812 173.641 46.1719C174.555 47.0625 175.012 48.1719 175.012 49.5C175.012 50.9766 174.453 52.1367 173.336 52.9805C172.219 53.8164 170.715 54.2344 168.824 54.2344C167.512 54.2344 166.316 53.9961 165.238 53.5195C164.16 53.0352 163.336 52.375 162.766 51.5391C162.203 50.7031 161.922 49.7344 161.922 48.6328H165.449C165.449 50.5156 166.574 51.457 168.824 51.457C169.66 51.457 170.312 51.2891 170.781 50.9531C171.25 50.6094 171.484 50.1328 171.484 49.5234ZM180.754 54H177.355V41.3203H180.754V54ZM177.156 38.0391C177.156 37.5312 177.324 37.1133 177.66 36.7852C178.004 36.457 178.469 36.293 179.055 36.293C179.633 36.293 180.094 36.457 180.438 36.7852C180.781 37.1133 180.953 37.5312 180.953 38.0391C180.953 38.5547 180.777 38.9766 180.426 39.3047C180.082 39.6328 179.625 39.7969 179.055 39.7969C178.484 39.7969 178.023 39.6328 177.672 39.3047C177.328 38.9766 177.156 38.5547 177.156 38.0391ZM186.73 41.3203L186.836 42.7383C187.734 41.6367 188.949 41.0859 190.48 41.0859C192.113 41.0859 193.234 41.7305 193.844 43.0195C194.734 41.7305 196.004 41.0859 197.652 41.0859C199.027 41.0859 200.051 41.4883 200.723 42.293C201.395 43.0898 201.73 44.293 201.73 45.9023V54H198.332V45.9141C198.332 45.1953 198.191 44.6719 197.91 44.3438C197.629 44.0078 197.133 43.8398 196.422 43.8398C195.406 43.8398 194.703 44.3242 194.312 45.293L194.324 54H190.938V45.9258C190.938 45.1914 190.793 44.6602 190.504 44.332C190.215 44.0039 189.723 43.8398 189.027 43.8398C188.066 43.8398 187.371 44.2383 186.941 45.0352V54H183.555V41.3203H186.73ZM215.758 47.7773C215.758 49.7305 215.312 51.2969 214.422 52.4766C213.539 53.6484 212.344 54.2344 210.836 54.2344C209.555 54.2344 208.52 53.7891 207.73 52.8984V58.875H204.344V41.3203H207.484L207.602 42.5625C208.422 41.5781 209.492 41.0859 210.812 41.0859C212.375 41.0859 213.59 41.6641 214.457 42.8203C215.324 43.9766 215.758 45.5703 215.758 47.6016V47.7773ZM212.371 47.5312C212.371 46.3516 212.16 45.4414 211.738 44.8008C211.324 44.1602 210.719 43.8398 209.922 43.8398C208.859 43.8398 208.129 44.2461 207.73 45.0586V50.25C208.145 51.0859 208.883 51.5039 209.945 51.5039C211.562 51.5039 212.371 50.1797 212.371 47.5312ZM225.215 54C225.059 53.6953 224.945 53.3164 224.875 52.8633C224.055 53.7773 222.988 54.2344 221.676 54.2344C220.434 54.2344 219.402 53.875 218.582 53.1562C217.77 52.4375 217.363 51.5312 217.363 50.4375C217.363 49.0938 217.859 48.0625 218.852 47.3438C219.852 46.625 221.293 46.2617 223.176 46.2539H224.734V45.5273C224.734 44.9414 224.582 44.4727 224.277 44.1211C223.98 43.7695 223.508 43.5938 222.859 43.5938C222.289 43.5938 221.84 43.7305 221.512 44.0039C221.191 44.2773 221.031 44.6523 221.031 45.1289H217.645C217.645 44.3945 217.871 43.7148 218.324 43.0898C218.777 42.4648 219.418 41.9766 220.246 41.625C221.074 41.2656 222.004 41.0859 223.035 41.0859C224.598 41.0859 225.836 41.4805 226.75 42.2695C227.672 43.0508 228.133 44.1523 228.133 45.5742V51.0703C228.141 52.2734 228.309 53.1836 228.637 53.8008V54H225.215ZM222.414 51.6445C222.914 51.6445 223.375 51.5352 223.797 51.3164C224.219 51.0898 224.531 50.7891 224.734 50.4141V48.2344H223.469C221.773 48.2344 220.871 48.8203 220.762 49.9922L220.75 50.1914C220.75 50.6133 220.898 50.9609 221.195 51.2344C221.492 51.5078 221.898 51.6445 222.414 51.6445ZM233.852 41.3203L233.957 42.7852C234.863 41.6523 236.078 41.0859 237.602 41.0859C238.945 41.0859 239.945 41.4805 240.602 42.2695C241.258 43.0586 241.594 44.2383 241.609 45.8086V54H238.223V45.8906C238.223 45.1719 238.066 44.6523 237.754 44.332C237.441 44.0039 236.922 43.8398 236.195 43.8398C235.242 43.8398 234.527 44.2461 234.051 45.0586V54H230.664V41.3203H233.852Z" fill="white"/>
<path d="M53 36H67L69.707 38.707C69.8946 38.8945 69.9999 39.1488 70 39.414V53C70 53.2652 69.8946 53.5196 69.7071 53.7071C69.5196 53.8946 69.2652 54 69 54H53C52.7348 54 52.4804 53.8946 52.2929 53.7071C52.1054 53.5196 52 53.2652 52 53V37C52 36.7348 52.1054 36.4804 52.2929 36.2929C52.4804 36.1054 52.7348 36 53 36V36ZM56 37V42H65V37H56ZM55 45V52H67V45H55ZM62 38H64V41H62V38Z" fill="white"/>
<defs>
<filter id="filter0_d" x="0" y="0" width="391" height="98" filterUnits="userSpaceOnUse" color-interpolation-filters="sRGB">
<feFlood flood-opacity="0" result="BackgroundImageFix"/>
<feColorMatrix in="SourceAlpha" type="matrix" values="0 0 0 0 0 0 0 0 0 0 0 0 0 0 0 0 0 0 127 0"/>
<feOffset dx="4" dy="4"/>
<feGaussianBlur stdDeviation="7.5"/>
<feColorMatrix type="matrix" values="0 0 0 0 0 0 0 0 0 0 0 0 0 0 0 0 0 0 0.78 0"/>
<feBlend mode="normal" in2="BackgroundImageFix" result="effect1_dropShadow"/>
<feBlend mode="normal" in="SourceGraphic" in2="effect1_dropShadow" result="shape"/>
</filter>
<radialGradient id="paint0_radial" cx="0" cy="0" r="1" gradientUnits="userSpaceOnUse" gradientTransform="translate(-15.7896 105.297) rotate(-13.3704) scale(385.954 819.035)">
<stop stop-color="#232323"/>
<stop offset="0.427083" stop-color="#353535"/>
<stop offset="0.776042" stop-color="#1C1C1D"/>
<stop offset="1" stop-color="#252526"/>
</radialGradient>
</defs>
</svg>
