<svg width="388" height="98" viewBox="0 0 388 98" fill="none" xmlns="http://www.w3.org/2000/svg">
<g filter="url(#filter0_d)">
<rect x="11" y="11" width="358" height="68" rx="6" fill="url(#paint0_linear)"/>
</g>
<path d="M131.646 41.9312H127.943V52H125.453V41.9312H121.801V39.9141H131.646V41.9312ZM136.726 52C136.615 51.7842 136.535 51.5158 136.485 51.1948C135.904 51.8423 135.148 52.166 134.219 52.166C133.339 52.166 132.608 51.9115 132.027 51.4023C131.452 50.8932 131.164 50.2513 131.164 49.4766C131.164 48.5247 131.515 47.7943 132.218 47.2852C132.927 46.776 133.948 46.5187 135.281 46.5132H136.385V45.9985C136.385 45.5835 136.277 45.2515 136.062 45.0024C135.851 44.7534 135.516 44.6289 135.057 44.6289C134.653 44.6289 134.335 44.7257 134.103 44.9194C133.876 45.1131 133.762 45.3787 133.762 45.7163H131.363C131.363 45.1961 131.524 44.7147 131.845 44.272C132.166 43.8293 132.619 43.4834 133.206 43.2344C133.793 42.9798 134.451 42.8525 135.182 42.8525C136.288 42.8525 137.166 43.132 137.813 43.6909C138.466 44.2443 138.792 45.0246 138.792 46.0317V49.9248C138.798 50.777 138.917 51.4217 139.149 51.8589V52H136.726ZM134.742 50.3315C135.096 50.3315 135.422 50.2541 135.721 50.0991C136.02 49.9386 136.241 49.7256 136.385 49.46V47.916H135.489C134.288 47.916 133.649 48.3311 133.571 49.1611L133.563 49.3022C133.563 49.6011 133.668 49.8473 133.878 50.041C134.089 50.2347 134.376 50.3315 134.742 50.3315ZM142.885 43.0186L142.959 44.0229C143.596 43.2427 144.456 42.8525 145.541 42.8525C146.698 42.8525 147.492 43.3091 147.923 44.2222C148.554 43.3091 149.453 42.8525 150.621 42.8525C151.595 42.8525 152.32 43.1375 152.796 43.7075C153.272 44.272 153.51 45.1242 153.51 46.2642V52H151.103V46.2725C151.103 45.7633 151.003 45.3926 150.804 45.1602C150.604 44.9222 150.253 44.8032 149.75 44.8032C149.03 44.8032 148.532 45.1463 148.255 45.8325L148.264 52H145.865V46.2808C145.865 45.7606 145.762 45.3843 145.558 45.1519C145.353 44.9194 145.004 44.8032 144.512 44.8032C143.831 44.8032 143.339 45.0854 143.034 45.6499V52H140.635V43.0186H142.885ZM163.454 47.5923C163.454 49.0311 163.147 50.1545 162.533 50.9624C161.918 51.7648 161.061 52.166 159.959 52.166C158.986 52.166 158.208 51.7925 157.627 51.0454L157.519 52H155.361V39.25H157.76V43.8237C158.313 43.1763 159.041 42.8525 159.943 42.8525C161.039 42.8525 161.896 43.2565 162.516 44.0645C163.141 44.8669 163.454 45.9985 163.454 47.4595V47.5923ZM161.055 47.418C161.055 46.5104 160.911 45.8491 160.624 45.4341C160.336 45.0135 159.907 44.8032 159.337 44.8032C158.573 44.8032 158.048 45.1159 157.76 45.7412V49.2856C158.053 49.9165 158.584 50.2319 159.354 50.2319C160.128 50.2319 160.637 49.8501 160.881 49.0864C160.997 48.7212 161.055 48.165 161.055 47.418ZM170.145 52C170.034 51.7842 169.954 51.5158 169.904 51.1948C169.323 51.8423 168.567 52.166 167.638 52.166C166.758 52.166 166.027 51.9115 165.446 51.4023C164.871 50.8932 164.583 50.2513 164.583 49.4766C164.583 48.5247 164.934 47.7943 165.637 47.2852C166.346 46.776 167.367 46.5187 168.7 46.5132H169.804V45.9985C169.804 45.5835 169.696 45.2515 169.48 45.0024C169.27 44.7534 168.935 44.6289 168.476 44.6289C168.072 44.6289 167.754 44.7257 167.521 44.9194C167.295 45.1131 167.181 45.3787 167.181 45.7163H164.782C164.782 45.1961 164.943 44.7147 165.264 44.272C165.585 43.8293 166.038 43.4834 166.625 43.2344C167.212 42.9798 167.87 42.8525 168.601 42.8525C169.707 42.8525 170.584 43.132 171.232 43.6909C171.885 44.2443 172.211 45.0246 172.211 46.0317V49.9248C172.217 50.777 172.336 51.4217 172.568 51.8589V52H170.145ZM168.161 50.3315C168.515 50.3315 168.841 50.2541 169.14 50.0991C169.439 49.9386 169.66 49.7256 169.804 49.46V47.916H168.908C167.707 47.916 167.068 48.3311 166.99 49.1611L166.982 49.3022C166.982 49.6011 167.087 49.8473 167.297 50.041C167.508 50.2347 167.795 50.3315 168.161 50.3315ZM176.395 43.998C177.031 43.2344 177.831 42.8525 178.794 42.8525C180.742 42.8525 181.73 43.9842 181.757 46.2476V52H179.358V46.314C179.358 45.7993 179.248 45.4202 179.026 45.1768C178.805 44.9277 178.437 44.8032 177.922 44.8032C177.22 44.8032 176.71 45.0744 176.395 45.6167V52H173.996V39.25H176.395V43.998ZM187.958 52V39.9141H191.677C192.739 39.9141 193.688 40.1548 194.524 40.6362C195.365 41.1121 196.021 41.7928 196.491 42.6782C196.962 43.5581 197.197 44.5597 197.197 45.6831V46.2393C197.197 47.3626 196.964 48.3615 196.5 49.2358C196.04 50.1102 195.39 50.7881 194.549 51.2695C193.708 51.751 192.759 51.9945 191.702 52H187.958ZM190.448 41.9312V49.9995H191.652C192.626 49.9995 193.37 49.6813 193.885 49.0449C194.399 48.4085 194.662 47.4982 194.673 46.314V45.6748C194.673 44.4463 194.419 43.5166 193.91 42.8857C193.401 42.2493 192.656 41.9312 191.677 41.9312H190.448ZM202.991 52.166C201.674 52.166 200.6 51.762 199.77 50.9541C198.945 50.1462 198.533 49.0698 198.533 47.7251V47.4927C198.533 46.5907 198.708 45.7855 199.056 45.0771C199.405 44.3633 199.897 43.8154 200.534 43.4336C201.176 43.0462 201.906 42.8525 202.725 42.8525C203.954 42.8525 204.919 43.2399 205.622 44.0146C206.33 44.7894 206.685 45.8879 206.685 47.3101V48.2896H200.965C201.043 48.8761 201.275 49.3465 201.663 49.7007C202.056 50.0549 202.551 50.2319 203.148 50.2319C204.073 50.2319 204.795 49.8971 205.315 49.2275L206.494 50.5474C206.134 51.0565 205.647 51.4549 205.033 51.7427C204.418 52.0249 203.738 52.166 202.991 52.166ZM202.717 44.7949C202.241 44.7949 201.854 44.9554 201.555 45.2764C201.261 45.5973 201.073 46.0566 200.99 46.6543H204.327V46.4634C204.316 45.9321 204.172 45.5226 203.896 45.2349C203.619 44.9416 203.226 44.7949 202.717 44.7949ZM212.918 49.5181C212.918 49.2248 212.772 48.9951 212.479 48.8291C212.191 48.6576 211.726 48.5054 211.084 48.3726C208.948 47.9243 207.88 47.0168 207.88 45.6499C207.88 44.853 208.209 44.189 208.868 43.6577C209.532 43.1209 210.398 42.8525 211.466 42.8525C212.606 42.8525 213.516 43.1209 214.197 43.6577C214.883 44.1945 215.226 44.8918 215.226 45.7495H212.827C212.827 45.4064 212.716 45.1242 212.495 44.9028C212.274 44.6759 211.928 44.5625 211.458 44.5625C211.054 44.5625 210.741 44.6538 210.52 44.8364C210.298 45.019 210.188 45.2515 210.188 45.5337C210.188 45.7993 210.312 46.0151 210.561 46.1812C210.816 46.3416 211.242 46.4827 211.839 46.6045C212.437 46.7207 212.941 46.8535 213.35 47.0029C214.617 47.4678 215.251 48.2729 215.251 49.4185C215.251 50.2375 214.9 50.9015 214.197 51.4106C213.494 51.9142 212.586 52.166 211.474 52.166C210.722 52.166 210.052 52.0332 209.465 51.7676C208.884 51.4964 208.428 51.1284 208.096 50.6636C207.764 50.1932 207.598 49.6868 207.598 49.1445H209.872C209.894 49.5706 210.052 49.8971 210.345 50.124C210.639 50.3509 211.031 50.4644 211.524 50.4644C211.983 50.4644 212.329 50.3786 212.562 50.207C212.799 50.0299 212.918 49.8003 212.918 49.5181ZM220.065 48.3975L219.202 49.2607V52H216.803V39.25H219.202V46.314L219.667 45.7163L221.966 43.0186H224.847L221.601 46.7622L225.129 52H222.373L220.065 48.3975ZM230.931 45.2681C230.605 45.2238 230.317 45.2017 230.068 45.2017C229.16 45.2017 228.565 45.5088 228.283 46.123V52H225.884V43.0186H228.15L228.217 44.0894C228.698 43.2648 229.365 42.8525 230.217 42.8525C230.483 42.8525 230.732 42.8885 230.964 42.9604L230.931 45.2681ZM234.625 52H232.218V43.0186H234.625V52ZM232.077 40.6943C232.077 40.3346 232.196 40.0386 232.434 39.8062C232.677 39.5737 233.006 39.4575 233.421 39.4575C233.831 39.4575 234.157 39.5737 234.401 39.8062C234.644 40.0386 234.766 40.3346 234.766 40.6943C234.766 41.0596 234.642 41.3584 234.393 41.5908C234.149 41.8232 233.825 41.9395 233.421 41.9395C233.017 41.9395 232.691 41.8232 232.442 41.5908C232.198 41.3584 232.077 41.0596 232.077 40.6943ZM244.694 47.5923C244.694 48.9757 244.378 50.0853 243.748 50.9209C243.122 51.751 242.276 52.166 241.208 52.166C240.3 52.166 239.567 51.8506 239.008 51.2197V55.4531H236.609V43.0186H238.833L238.917 43.8984C239.498 43.2012 240.256 42.8525 241.191 42.8525C242.298 42.8525 243.158 43.262 243.772 44.0811C244.387 44.9001 244.694 46.029 244.694 47.4678V47.5923ZM242.295 47.418C242.295 46.5824 242.146 45.9377 241.847 45.4839C241.553 45.0301 241.125 44.8032 240.56 44.8032C239.807 44.8032 239.29 45.091 239.008 45.6665V49.3438C239.301 49.9359 239.824 50.2319 240.577 50.2319C241.722 50.2319 242.295 49.2939 242.295 47.418ZM251.052 49.5181C251.052 49.2248 250.906 48.9951 250.612 48.8291C250.325 48.6576 249.86 48.5054 249.218 48.3726C247.082 47.9243 246.014 47.0168 246.014 45.6499C246.014 44.853 246.343 44.189 247.001 43.6577C247.666 43.1209 248.532 42.8525 249.6 42.8525C250.74 42.8525 251.65 43.1209 252.331 43.6577C253.017 44.1945 253.36 44.8918 253.36 45.7495H250.961C250.961 45.4064 250.85 45.1242 250.629 44.9028C250.408 44.6759 250.062 44.5625 249.591 44.5625C249.187 44.5625 248.875 44.6538 248.653 44.8364C248.432 45.019 248.321 45.2515 248.321 45.5337C248.321 45.7993 248.446 46.0151 248.695 46.1812C248.949 46.3416 249.375 46.4827 249.973 46.6045C250.571 46.7207 251.074 46.8535 251.484 47.0029C252.751 47.4678 253.385 48.2729 253.385 49.4185C253.385 50.2375 253.033 50.9015 252.331 51.4106C251.628 51.9142 250.72 52.166 249.608 52.166C248.855 52.166 248.186 52.0332 247.599 51.7676C247.018 51.4964 246.562 51.1284 246.229 50.6636C245.897 50.1932 245.731 49.6868 245.731 49.1445H248.006C248.028 49.5706 248.186 49.8971 248.479 50.124C248.772 50.3509 249.165 50.4644 249.658 50.4644C250.117 50.4644 250.463 50.3786 250.695 50.207C250.933 50.0299 251.052 49.8003 251.052 49.5181ZM257.469 52H255.062V43.0186H257.469V52ZM254.92 40.6943C254.92 40.3346 255.039 40.0386 255.277 39.8062C255.521 39.5737 255.85 39.4575 256.265 39.4575C256.675 39.4575 257.001 39.5737 257.245 39.8062C257.488 40.0386 257.61 40.3346 257.61 40.6943C257.61 41.0596 257.485 41.3584 257.236 41.5908C256.993 41.8232 256.669 41.9395 256.265 41.9395C255.861 41.9395 255.535 41.8232 255.286 41.5908C255.042 41.3584 254.92 41.0596 254.92 40.6943Z" fill="white"/>
<path d="M56 45V41H58V45H62V47H58V51H56V47H52V45H56ZM57 56C51.477 56 47 51.523 47 46C47 40.477 51.477 36 57 36C62.523 36 67 40.477 67 46C67 51.523 62.523 56 57 56ZM57 54C59.1217 54 61.1566 53.1571 62.6569 51.6569C64.1571 50.1566 65 48.1217 65 46C65 43.8783 64.1571 41.8434 62.6569 40.3431C61.1566 38.8429 59.1217 38 57 38C54.8783 38 52.8434 38.8429 51.3431 40.3431C49.8429 41.8434 49 43.8783 49 46C49 48.1217 49.8429 50.1566 51.3431 51.6569C52.8434 53.1571 54.8783 54 57 54Z" fill="white"/>
<defs>
<filter id="filter0_d" x="0" y="0" width="388" height="98" filterUnits="userSpaceOnUse" color-interpolation-filters="sRGB">
<feFlood flood-opacity="0" result="BackgroundImageFix"/>
<feColorMatrix in="SourceAlpha" type="matrix" values="0 0 0 0 0 0 0 0 0 0 0 0 0 0 0 0 0 0 127 0"/>
<feOffset dx="4" dy="4"/>
<feGaussianBlur stdDeviation="7.5"/>
<feColorMatrix type="matrix" values="0 0 0 0 0 0 0 0 0 0 0 0 0 0 0 0 0 0 0.78 0"/>
<feBlend mode="normal" in2="BackgroundImageFix" result="effect1_dropShadow"/>
<feBlend mode="normal" in="SourceGraphic" in2="effect1_dropShadow" result="shape"/>
</filter>
<linearGradient id="paint0_linear" x1="109" y1="-223" x2="-51" y2="155" gradientUnits="userSpaceOnUse">
<stop offset="0.215676" stop-color="#A47E1B"/>
<stop offset="0.338542" stop-color="#76520E"/>
<stop offset="0.666667" stop-color="#A47E1B"/>
<stop offset="1" stop-color="#76520E"/>
</linearGradient>
</defs>
</svg>
