<svg width="399" height="98" viewBox="0 0 399 98" fill="none" xmlns="http://www.w3.org/2000/svg">
<g filter="url(#filter0_d)">
<rect x="11" y="11" width="369" height="68" rx="6" fill="url(#paint0_radial)"/>
</g>
<path d="M138.605 39.7852H133.379V54H129.863V39.7852H124.707V36.9375H138.605V39.7852ZM145.777 54C145.621 53.6953 145.508 53.3164 145.438 52.8633C144.617 53.7773 143.551 54.2344 142.238 54.2344C140.996 54.2344 139.965 53.875 139.145 53.1562C138.332 52.4375 137.926 51.5312 137.926 50.4375C137.926 49.0938 138.422 48.0625 139.414 47.3438C140.414 46.625 141.855 46.2617 143.738 46.2539H145.297V45.5273C145.297 44.9414 145.145 44.4727 144.84 44.1211C144.543 43.7695 144.07 43.5938 143.422 43.5938C142.852 43.5938 142.402 43.7305 142.074 44.0039C141.754 44.2773 141.594 44.6523 141.594 45.1289H138.207C138.207 44.3945 138.434 43.7148 138.887 43.0898C139.34 42.4648 139.98 41.9766 140.809 41.625C141.637 41.2656 142.566 41.0859 143.598 41.0859C145.16 41.0859 146.398 41.4805 147.312 42.2695C148.234 43.0508 148.695 44.1523 148.695 45.5742V51.0703C148.703 52.2734 148.871 53.1836 149.199 53.8008V54H145.777ZM142.977 51.6445C143.477 51.6445 143.938 51.5352 144.359 51.3164C144.781 51.0898 145.094 50.7891 145.297 50.4141V48.2344H144.031C142.336 48.2344 141.434 48.8203 141.324 49.9922L141.312 50.1914C141.312 50.6133 141.461 50.9609 141.758 51.2344C142.055 51.5078 142.461 51.6445 142.977 51.6445ZM154.473 41.3203L154.578 42.7383C155.477 41.6367 156.691 41.0859 158.223 41.0859C159.855 41.0859 160.977 41.7305 161.586 43.0195C162.477 41.7305 163.746 41.0859 165.395 41.0859C166.77 41.0859 167.793 41.4883 168.465 42.293C169.137 43.0898 169.473 44.293 169.473 45.9023V54H166.074V45.9141C166.074 45.1953 165.934 44.6719 165.652 44.3438C165.371 44.0078 164.875 43.8398 164.164 43.8398C163.148 43.8398 162.445 44.3242 162.055 45.293L162.066 54H158.68V45.9258C158.68 45.1914 158.535 44.6602 158.246 44.332C157.957 44.0039 157.465 43.8398 156.77 43.8398C155.809 43.8398 155.113 44.2383 154.684 45.0352V54H151.297V41.3203H154.473ZM183.512 47.7773C183.512 49.8086 183.078 51.3945 182.211 52.5352C181.344 53.668 180.133 54.2344 178.578 54.2344C177.203 54.2344 176.105 53.707 175.285 52.6523L175.133 54H172.086V36H175.473V42.457C176.254 41.543 177.281 41.0859 178.555 41.0859C180.102 41.0859 181.312 41.6562 182.188 42.7969C183.07 43.9297 183.512 45.5273 183.512 47.5898V47.7773ZM180.125 47.5312C180.125 46.25 179.922 45.3164 179.516 44.7305C179.109 44.1367 178.504 43.8398 177.699 43.8398C176.621 43.8398 175.879 44.2812 175.473 45.1641V50.168C175.887 51.0586 176.637 51.5039 177.723 51.5039C178.816 51.5039 179.535 50.9648 179.879 49.8867C180.043 49.3711 180.125 48.5859 180.125 47.5312ZM192.957 54C192.801 53.6953 192.688 53.3164 192.617 52.8633C191.797 53.7773 190.73 54.2344 189.418 54.2344C188.176 54.2344 187.145 53.875 186.324 53.1562C185.512 52.4375 185.105 51.5312 185.105 50.4375C185.105 49.0938 185.602 48.0625 186.594 47.3438C187.594 46.625 189.035 46.2617 190.918 46.2539H192.477V45.5273C192.477 44.9414 192.324 44.4727 192.02 44.1211C191.723 43.7695 191.25 43.5938 190.602 43.5938C190.031 43.5938 189.582 43.7305 189.254 44.0039C188.934 44.2773 188.773 44.6523 188.773 45.1289H185.387C185.387 44.3945 185.613 43.7148 186.066 43.0898C186.52 42.4648 187.16 41.9766 187.988 41.625C188.816 41.2656 189.746 41.0859 190.777 41.0859C192.34 41.0859 193.578 41.4805 194.492 42.2695C195.414 43.0508 195.875 44.1523 195.875 45.5742V51.0703C195.883 52.2734 196.051 53.1836 196.379 53.8008V54H192.957ZM190.156 51.6445C190.656 51.6445 191.117 51.5352 191.539 51.3164C191.961 51.0898 192.273 50.7891 192.477 50.4141V48.2344H191.211C189.516 48.2344 188.613 48.8203 188.504 49.9922L188.492 50.1914C188.492 50.6133 188.641 50.9609 188.938 51.2344C189.234 51.5078 189.641 51.6445 190.156 51.6445ZM201.781 42.7031C202.68 41.625 203.809 41.0859 205.168 41.0859C207.918 41.0859 209.312 42.6836 209.352 45.8789V54H205.965V45.9727C205.965 45.2461 205.809 44.7109 205.496 44.3672C205.184 44.0156 204.664 43.8398 203.938 43.8398C202.945 43.8398 202.227 44.2227 201.781 44.9883V54H198.395V36H201.781V42.7031ZM221.621 47.9883V54H218.105V36.9375H224.762C226.043 36.9375 227.168 37.1719 228.137 37.6406C229.113 38.1094 229.863 38.7773 230.387 39.6445C230.91 40.5039 231.172 41.4844 231.172 42.5859C231.172 44.2578 230.598 45.5781 229.449 46.5469C228.309 47.5078 226.727 47.9883 224.703 47.9883H221.621ZM221.621 45.1406H224.762C225.691 45.1406 226.398 44.9219 226.883 44.4844C227.375 44.0469 227.621 43.4219 227.621 42.6094C227.621 41.7734 227.375 41.0977 226.883 40.582C226.391 40.0664 225.711 39.8008 224.844 39.7852H221.621V45.1406ZM240.5 44.4961C240.039 44.4336 239.633 44.4023 239.281 44.4023C238 44.4023 237.16 44.8359 236.762 45.7031V54H233.375V41.3203H236.574L236.668 42.832C237.348 41.668 238.289 41.0859 239.492 41.0859C239.867 41.0859 240.219 41.1367 240.547 41.2383L240.5 44.4961ZM241.191 47.543C241.191 46.2852 241.434 45.1641 241.918 44.1797C242.402 43.1953 243.098 42.4336 244.004 41.8945C244.918 41.3555 245.977 41.0859 247.18 41.0859C248.891 41.0859 250.285 41.6094 251.363 42.6562C252.449 43.7031 253.055 45.125 253.18 46.9219L253.203 47.7891C253.203 49.7344 252.66 51.2969 251.574 52.4766C250.488 53.6484 249.031 54.2344 247.203 54.2344C245.375 54.2344 243.914 53.6484 242.82 52.4766C241.734 51.3047 241.191 49.7109 241.191 47.6953V47.543ZM244.578 47.7891C244.578 48.9922 244.805 49.9141 245.258 50.5547C245.711 51.1875 246.359 51.5039 247.203 51.5039C248.023 51.5039 248.664 51.1914 249.125 50.5664C249.586 49.9336 249.816 48.9258 249.816 47.543C249.816 46.3633 249.586 45.4492 249.125 44.8008C248.664 44.1523 248.016 43.8281 247.18 43.8281C246.352 43.8281 245.711 44.1523 245.258 44.8008C244.805 45.4414 244.578 46.4375 244.578 47.7891ZM254.762 47.5664C254.762 45.5898 255.203 44.0156 256.086 42.8438C256.977 41.6719 258.191 41.0859 259.73 41.0859C260.965 41.0859 261.984 41.5469 262.789 42.4688V36H266.188V54H263.129L262.965 52.6523C262.121 53.707 261.035 54.2344 259.707 54.2344C258.215 54.2344 257.016 53.6484 256.109 52.4766C255.211 51.2969 254.762 49.6602 254.762 47.5664ZM258.148 47.8125C258.148 49 258.355 49.9102 258.77 50.543C259.184 51.1758 259.785 51.4922 260.574 51.4922C261.621 51.4922 262.359 51.0508 262.789 50.168V45.1641C262.367 44.2812 261.637 43.8398 260.598 43.8398C258.965 43.8398 258.148 45.1641 258.148 47.8125ZM276.406 52.7109C275.57 53.7266 274.414 54.2344 272.938 54.2344C271.578 54.2344 270.539 53.8438 269.82 53.0625C269.109 52.2812 268.746 51.1367 268.73 49.6289V41.3203H272.117V49.5117C272.117 50.832 272.719 51.4922 273.922 51.4922C275.07 51.4922 275.859 51.0938 276.289 50.2969V41.3203H279.688V54H276.5L276.406 52.7109ZM286.848 48.9141L285.629 50.1328V54H282.242V36H285.629V45.9727L286.285 45.1289L289.531 41.3203H293.598L289.016 46.6055L293.996 54H290.105L286.848 48.9141Z" fill="white"/>
<path d="M64.958 42.9583V33.7083H68.0413V42.9583H77.2913V46.0416H68.0413V55.2916H64.958V46.0416H55.708V42.9583H64.958Z" fill="white"/>
<defs>
<filter id="filter0_d" x="0" y="0" width="399" height="98" filterUnits="userSpaceOnUse" color-interpolation-filters="sRGB">
<feFlood flood-opacity="0" result="BackgroundImageFix"/>
<feColorMatrix in="SourceAlpha" type="matrix" values="0 0 0 0 0 0 0 0 0 0 0 0 0 0 0 0 0 0 127 0"/>
<feOffset dx="4" dy="4"/>
<feGaussianBlur stdDeviation="7.5"/>
<feColorMatrix type="matrix" values="0 0 0 0 0 0 0 0 0 0 0 0 0 0 0 0 0 0 0.78 0"/>
<feBlend mode="normal" in2="BackgroundImageFix" result="effect1_dropShadow"/>
<feBlend mode="normal" in="SourceGraphic" in2="effect1_dropShadow" result="shape"/>
</filter>
<radialGradient id="paint0_radial" cx="0" cy="0" r="1" gradientUnits="userSpaceOnUse" gradientTransform="translate(-16.3832 105.297) rotate(-13.0906) scale(394.054 819.976)">
<stop stop-color="#232323"/>
<stop offset="0.427083" stop-color="#353535"/>
<stop offset="0.776042" stop-color="#1C1C1D"/>
<stop offset="1" stop-color="#252526"/>
</radialGradient>
</defs>
</svg>
