<svg width="388" height="98" viewBox="0 0 388 98" fill="none" xmlns="http://www.w3.org/2000/svg">
<g filter="url(#filter0_d)">
<rect x="11" y="11" width="358" height="68" rx="6" fill="url(#paint0_linear)"/>
</g>
<path d="M169.588 41.9312H165.886V52H163.396V41.9312H159.744V39.9141H169.588V41.9312ZM174.668 52C174.558 51.7842 174.478 51.5158 174.428 51.1948C173.847 51.8423 173.091 52.166 172.162 52.166C171.282 52.166 170.551 51.9115 169.97 51.4023C169.395 50.8932 169.107 50.2513 169.107 49.4766C169.107 48.5247 169.458 47.7943 170.161 47.2852C170.869 46.776 171.89 46.5187 173.224 46.5132H174.328V45.9985C174.328 45.5835 174.22 45.2515 174.004 45.0024C173.794 44.7534 173.459 44.6289 173 44.6289C172.596 44.6289 172.278 44.7257 172.045 44.9194C171.819 45.1131 171.705 45.3787 171.705 45.7163H169.306C169.306 45.1961 169.467 44.7147 169.788 44.272C170.109 43.8293 170.562 43.4834 171.149 43.2344C171.736 42.9798 172.394 42.8525 173.125 42.8525C174.231 42.8525 175.108 43.132 175.756 43.6909C176.409 44.2443 176.735 45.0246 176.735 46.0317V49.9248C176.741 50.777 176.86 51.4217 177.092 51.8589V52H174.668ZM172.685 50.3315C173.039 50.3315 173.365 50.2541 173.664 50.0991C173.963 49.9386 174.184 49.7256 174.328 49.46V47.916H173.432C172.231 47.916 171.592 48.3311 171.514 49.1611L171.506 49.3022C171.506 49.6011 171.611 49.8473 171.821 50.041C172.032 50.2347 172.319 50.3315 172.685 50.3315ZM180.828 43.0186L180.902 44.0229C181.539 43.2427 182.399 42.8525 183.484 42.8525C184.64 42.8525 185.435 43.3091 185.866 44.2222C186.497 43.3091 187.396 42.8525 188.564 42.8525C189.538 42.8525 190.263 43.1375 190.739 43.7075C191.215 44.272 191.453 45.1242 191.453 46.2642V52H189.045V46.2725C189.045 45.7633 188.946 45.3926 188.747 45.1602C188.547 44.9222 188.196 44.8032 187.692 44.8032C186.973 44.8032 186.475 45.1463 186.198 45.8325L186.207 52H183.808V46.2808C183.808 45.7606 183.705 45.3843 183.5 45.1519C183.296 44.9194 182.947 44.8032 182.455 44.8032C181.774 44.8032 181.281 45.0854 180.977 45.6499V52H178.578V43.0186H180.828ZM201.397 47.5923C201.397 49.0311 201.09 50.1545 200.476 50.9624C199.861 51.7648 199.004 52.166 197.902 52.166C196.928 52.166 196.151 51.7925 195.57 51.0454L195.462 52H193.304V39.25H195.703V43.8237C196.256 43.1763 196.984 42.8525 197.886 42.8525C198.981 42.8525 199.839 43.2565 200.459 44.0645C201.084 44.8669 201.397 45.9985 201.397 47.4595V47.5923ZM198.998 47.418C198.998 46.5104 198.854 45.8491 198.566 45.4341C198.279 45.0135 197.85 44.8032 197.28 44.8032C196.516 44.8032 195.99 45.1159 195.703 45.7412V49.2856C195.996 49.9165 196.527 50.2319 197.296 50.2319C198.071 50.2319 198.58 49.8501 198.824 49.0864C198.94 48.7212 198.998 48.165 198.998 47.418ZM208.087 52C207.977 51.7842 207.896 51.5158 207.847 51.1948C207.266 51.8423 206.51 52.166 205.581 52.166C204.701 52.166 203.97 51.9115 203.389 51.4023C202.814 50.8932 202.526 50.2513 202.526 49.4766C202.526 48.5247 202.877 47.7943 203.58 47.2852C204.288 46.776 205.309 46.5187 206.643 46.5132H207.747V45.9985C207.747 45.5835 207.639 45.2515 207.423 45.0024C207.213 44.7534 206.878 44.6289 206.419 44.6289C206.015 44.6289 205.697 44.7257 205.464 44.9194C205.237 45.1131 205.124 45.3787 205.124 45.7163H202.725C202.725 45.1961 202.886 44.7147 203.207 44.272C203.528 43.8293 203.981 43.4834 204.568 43.2344C205.154 42.9798 205.813 42.8525 206.543 42.8525C207.65 42.8525 208.527 43.132 209.175 43.6909C209.828 44.2443 210.154 45.0246 210.154 46.0317V49.9248C210.16 50.777 210.279 51.4217 210.511 51.8589V52H208.087ZM206.104 50.3315C206.458 50.3315 206.784 50.2541 207.083 50.0991C207.382 49.9386 207.603 49.7256 207.747 49.46V47.916H206.851C205.65 47.916 205.011 48.3311 204.933 49.1611L204.925 49.3022C204.925 49.6011 205.03 49.8473 205.24 50.041C205.451 50.2347 205.738 50.3315 206.104 50.3315ZM214.338 43.998C214.974 43.2344 215.774 42.8525 216.737 42.8525C218.685 42.8525 219.673 43.9842 219.7 46.2476V52H217.301V46.314C217.301 45.7993 217.191 45.4202 216.969 45.1768C216.748 44.9277 216.38 44.8032 215.865 44.8032C215.162 44.8032 214.653 45.0744 214.338 45.6167V52H211.939V39.25H214.338V43.998Z" fill="white"/>
<path d="M56 45V41H58V45H62V47H58V51H56V47H52V45H56ZM57 56C51.477 56 47 51.523 47 46C47 40.477 51.477 36 57 36C62.523 36 67 40.477 67 46C67 51.523 62.523 56 57 56ZM57 54C59.1217 54 61.1566 53.1571 62.6569 51.6569C64.1571 50.1566 65 48.1217 65 46C65 43.8783 64.1571 41.8434 62.6569 40.3431C61.1566 38.8429 59.1217 38 57 38C54.8783 38 52.8434 38.8429 51.3431 40.3431C49.8429 41.8434 49 43.8783 49 46C49 48.1217 49.8429 50.1566 51.3431 51.6569C52.8434 53.1571 54.8783 54 57 54Z" fill="white"/>
<defs>
<filter id="filter0_d" x="0" y="0" width="388" height="98" filterUnits="userSpaceOnUse" color-interpolation-filters="sRGB">
<feFlood flood-opacity="0" result="BackgroundImageFix"/>
<feColorMatrix in="SourceAlpha" type="matrix" values="0 0 0 0 0 0 0 0 0 0 0 0 0 0 0 0 0 0 127 0"/>
<feOffset dx="4" dy="4"/>
<feGaussianBlur stdDeviation="7.5"/>
<feColorMatrix type="matrix" values="0 0 0 0 0 0 0 0 0 0 0 0 0 0 0 0 0 0 0.78 0"/>
<feBlend mode="normal" in2="BackgroundImageFix" result="effect1_dropShadow"/>
<feBlend mode="normal" in="SourceGraphic" in2="effect1_dropShadow" result="shape"/>
</filter>
<linearGradient id="paint0_linear" x1="109" y1="-223" x2="-51" y2="155" gradientUnits="userSpaceOnUse">
<stop offset="0.215676" stop-color="#A47E1B"/>
<stop offset="0.338542" stop-color="#76520E"/>
<stop offset="0.666667" stop-color="#A47E1B"/>
<stop offset="1" stop-color="#76520E"/>
</linearGradient>
</defs>
</svg>
