<svg width="388" height="98" viewBox="0 0 388 98" fill="none" xmlns="http://www.w3.org/2000/svg">
<g filter="url(#filter0_d)">
<rect x="11" y="11" width="358" height="68" rx="6" fill="url(#paint0_linear)"/>
</g>
<path d="M140.637 41.9312H136.935V52H134.445V41.9312H130.792V39.9141H140.637V41.9312ZM145.717 52C145.607 51.7842 145.526 51.5158 145.477 51.1948C144.896 51.8423 144.14 52.166 143.21 52.166C142.331 52.166 141.6 51.9115 141.019 51.4023C140.444 50.8932 140.156 50.2513 140.156 49.4766C140.156 48.5247 140.507 47.7943 141.21 47.2852C141.918 46.776 142.939 46.5187 144.273 46.5132H145.377V45.9985C145.377 45.5835 145.269 45.2515 145.053 45.0024C144.843 44.7534 144.508 44.6289 144.049 44.6289C143.645 44.6289 143.327 44.7257 143.094 44.9194C142.867 45.1131 142.754 45.3787 142.754 45.7163H140.355C140.355 45.1961 140.515 44.7147 140.836 44.272C141.157 43.8293 141.611 43.4834 142.198 43.2344C142.784 42.9798 143.443 42.8525 144.173 42.8525C145.28 42.8525 146.157 43.132 146.805 43.6909C147.458 44.2443 147.784 45.0246 147.784 46.0317V49.9248C147.79 50.777 147.909 51.4217 148.141 51.8589V52H145.717ZM143.733 50.3315C144.088 50.3315 144.414 50.2541 144.713 50.0991C145.012 49.9386 145.233 49.7256 145.377 49.46V47.916H144.48C143.28 47.916 142.64 48.3311 142.563 49.1611L142.555 49.3022C142.555 49.6011 142.66 49.8473 142.87 50.041C143.08 50.2347 143.368 50.3315 143.733 50.3315ZM151.876 43.0186L151.951 44.0229C152.588 43.2427 153.448 42.8525 154.533 42.8525C155.689 42.8525 156.483 43.3091 156.915 44.2222C157.546 43.3091 158.445 42.8525 159.613 42.8525C160.587 42.8525 161.312 43.1375 161.788 43.7075C162.264 44.272 162.501 45.1242 162.501 46.2642V52H160.094V46.2725C160.094 45.7633 159.995 45.3926 159.795 45.1602C159.596 44.9222 159.245 44.8032 158.741 44.8032C158.022 44.8032 157.524 45.1463 157.247 45.8325L157.255 52H154.856V46.2808C154.856 45.7606 154.754 45.3843 154.549 45.1519C154.345 44.9194 153.996 44.8032 153.503 44.8032C152.823 44.8032 152.33 45.0854 152.026 45.6499V52H149.627V43.0186H151.876ZM172.446 47.5923C172.446 49.0311 172.139 50.1545 171.524 50.9624C170.91 51.7648 170.052 52.166 168.951 52.166C167.977 52.166 167.2 51.7925 166.619 51.0454L166.511 52H164.353V39.25H166.751V43.8237C167.305 43.1763 168.033 42.8525 168.935 42.8525C170.03 42.8525 170.888 43.2565 171.508 44.0645C172.133 44.8669 172.446 45.9985 172.446 47.4595V47.5923ZM170.047 47.418C170.047 46.5104 169.903 45.8491 169.615 45.4341C169.327 45.0135 168.899 44.8032 168.329 44.8032C167.565 44.8032 167.039 45.1159 166.751 45.7412V49.2856C167.045 49.9165 167.576 50.2319 168.345 50.2319C169.12 50.2319 169.629 49.8501 169.873 49.0864C169.989 48.7212 170.047 48.165 170.047 47.418ZM179.136 52C179.026 51.7842 178.945 51.5158 178.896 51.1948C178.314 51.8423 177.559 52.166 176.629 52.166C175.75 52.166 175.019 51.9115 174.438 51.4023C173.862 50.8932 173.575 50.2513 173.575 49.4766C173.575 48.5247 173.926 47.7943 174.629 47.2852C175.337 46.776 176.358 46.5187 177.692 46.5132H178.796V45.9985C178.796 45.5835 178.688 45.2515 178.472 45.0024C178.262 44.7534 177.927 44.6289 177.468 44.6289C177.064 44.6289 176.746 44.7257 176.513 44.9194C176.286 45.1131 176.173 45.3787 176.173 45.7163H173.774C173.774 45.1961 173.934 44.7147 174.255 44.272C174.576 43.8293 175.03 43.4834 175.617 43.2344C176.203 42.9798 176.862 42.8525 177.592 42.8525C178.699 42.8525 179.576 43.132 180.224 43.6909C180.877 44.2443 181.203 45.0246 181.203 46.0317V49.9248C181.209 50.777 181.328 51.4217 181.56 51.8589V52H179.136ZM177.152 50.3315C177.507 50.3315 177.833 50.2541 178.132 50.0991C178.431 49.9386 178.652 49.7256 178.796 49.46V47.916H177.899C176.699 47.916 176.059 48.3311 175.982 49.1611L175.974 49.3022C175.974 49.6011 176.079 49.8473 176.289 50.041C176.499 50.2347 176.787 50.3315 177.152 50.3315ZM185.387 43.998C186.023 43.2344 186.823 42.8525 187.786 42.8525C189.734 42.8525 190.721 43.9842 190.749 46.2476V52H188.35V46.314C188.35 45.7993 188.239 45.4202 188.018 45.1768C187.797 44.9277 187.429 44.8032 186.914 44.8032C186.211 44.8032 185.702 45.0744 185.387 45.6167V52H182.988V39.25H185.387V43.998ZM199.44 47.7417V52H196.95V39.9141H201.665C202.572 39.9141 203.369 40.0801 204.055 40.4121C204.747 40.7441 205.278 41.2173 205.649 41.8315C206.02 42.4403 206.205 43.1348 206.205 43.915C206.205 45.0993 205.798 46.0345 204.985 46.7207C204.177 47.4014 203.056 47.7417 201.623 47.7417H199.44ZM199.44 45.7246H201.665C202.323 45.7246 202.824 45.5697 203.167 45.2598C203.516 44.9499 203.69 44.5072 203.69 43.9316C203.69 43.3395 203.516 42.8608 203.167 42.4956C202.818 42.1304 202.337 41.9422 201.723 41.9312H199.44V45.7246ZM212.812 45.2681C212.486 45.2238 212.198 45.2017 211.949 45.2017C211.042 45.2017 210.447 45.5088 210.165 46.123V52H207.766V43.0186H210.032L210.098 44.0894C210.58 43.2648 211.246 42.8525 212.099 42.8525C212.364 42.8525 212.613 42.8885 212.846 42.9604L212.812 45.2681ZM213.302 47.4263C213.302 46.5353 213.474 45.7412 213.817 45.0439C214.16 44.3467 214.653 43.8071 215.294 43.4253C215.942 43.0435 216.692 42.8525 217.544 42.8525C218.756 42.8525 219.744 43.2233 220.507 43.9648C221.277 44.7064 221.705 45.7135 221.794 46.9863L221.811 47.6006C221.811 48.9785 221.426 50.0853 220.657 50.9209C219.888 51.751 218.855 52.166 217.561 52.166C216.266 52.166 215.231 51.751 214.456 50.9209C213.687 50.0908 213.302 48.9619 213.302 47.5342V47.4263ZM215.701 47.6006C215.701 48.4528 215.862 49.1058 216.183 49.5596C216.504 50.0078 216.963 50.2319 217.561 50.2319C218.142 50.2319 218.595 50.0106 218.922 49.5679C219.248 49.1196 219.412 48.4058 219.412 47.4263C219.412 46.5907 219.248 45.9432 218.922 45.4839C218.595 45.0246 218.136 44.7949 217.544 44.7949C216.957 44.7949 216.504 45.0246 216.183 45.4839C215.862 45.9377 215.701 46.6432 215.701 47.6006ZM222.915 47.4429C222.915 46.0428 223.227 44.9277 223.853 44.0977C224.483 43.2676 225.344 42.8525 226.434 42.8525C227.308 42.8525 228.031 43.179 228.601 43.832V39.25H231.008V52H228.841L228.725 51.0454C228.127 51.7925 227.358 52.166 226.417 52.166C225.361 52.166 224.511 51.751 223.869 50.9209C223.233 50.0853 222.915 48.9259 222.915 47.4429ZM225.313 47.6172C225.313 48.4583 225.46 49.103 225.753 49.5513C226.047 49.9995 226.473 50.2236 227.032 50.2236C227.773 50.2236 228.296 49.911 228.601 49.2856V45.7412C228.302 45.1159 227.784 44.8032 227.048 44.8032C225.892 44.8032 225.313 45.7412 225.313 47.6172ZM238.246 51.0869C237.654 51.8063 236.835 52.166 235.789 52.166C234.826 52.166 234.09 51.8893 233.581 51.3359C233.077 50.7826 232.82 49.9718 232.809 48.9038V43.0186H235.208V48.8208C235.208 49.756 235.634 50.2236 236.486 50.2236C237.3 50.2236 237.859 49.9414 238.163 49.377V43.0186H240.57V52H238.312L238.246 51.0869ZM245.642 48.3975L244.779 49.2607V52H242.38V39.25H244.779V46.314L245.244 45.7163L247.543 43.0186H250.423L247.178 46.7622L250.706 52H247.95L245.642 48.3975Z" fill="white"/>
<path d="M56 45V41H58V45H62V47H58V51H56V47H52V45H56ZM57 56C51.477 56 47 51.523 47 46C47 40.477 51.477 36 57 36C62.523 36 67 40.477 67 46C67 51.523 62.523 56 57 56ZM57 54C59.1217 54 61.1566 53.1571 62.6569 51.6569C64.1571 50.1566 65 48.1217 65 46C65 43.8783 64.1571 41.8434 62.6569 40.3431C61.1566 38.8429 59.1217 38 57 38C54.8783 38 52.8434 38.8429 51.3431 40.3431C49.8429 41.8434 49 43.8783 49 46C49 48.1217 49.8429 50.1566 51.3431 51.6569C52.8434 53.1571 54.8783 54 57 54Z" fill="white"/>
<defs>
<filter id="filter0_d" x="0" y="0" width="388" height="98" filterUnits="userSpaceOnUse" color-interpolation-filters="sRGB">
<feFlood flood-opacity="0" result="BackgroundImageFix"/>
<feColorMatrix in="SourceAlpha" type="matrix" values="0 0 0 0 0 0 0 0 0 0 0 0 0 0 0 0 0 0 127 0"/>
<feOffset dx="4" dy="4"/>
<feGaussianBlur stdDeviation="7.5"/>
<feColorMatrix type="matrix" values="0 0 0 0 0 0 0 0 0 0 0 0 0 0 0 0 0 0 0.78 0"/>
<feBlend mode="normal" in2="BackgroundImageFix" result="effect1_dropShadow"/>
<feBlend mode="normal" in="SourceGraphic" in2="effect1_dropShadow" result="shape"/>
</filter>
<linearGradient id="paint0_linear" x1="109" y1="-223" x2="-51" y2="155" gradientUnits="userSpaceOnUse">
<stop offset="0.215676" stop-color="#A47E1B"/>
<stop offset="0.338542" stop-color="#76520E"/>
<stop offset="0.666667" stop-color="#A47E1B"/>
<stop offset="1" stop-color="#76520E"/>
</linearGradient>
</defs>
</svg>
