<svg width="89" height="93" viewBox="0 0 89 93" fill="none" xmlns="http://www.w3.org/2000/svg">
<path d="M44.3273 83.6895C67.4938 83.6895 86.274 64.9549 86.274 41.8447C86.274 18.7345 67.4938 0 44.3273 0C21.1608 0 2.38062 18.7345 2.38062 41.8447C2.38062 64.9549 21.1608 83.6895 44.3273 83.6895Z" fill="url(#paint0_radial)"/>
<mask id="mask0" mask-type="alpha" maskUnits="userSpaceOnUse" x="2" y="0" width="85" height="84">
<path d="M44.2117 83.6895C67.3782 83.6895 86.1584 64.955 86.1584 41.8447C86.1584 18.7345 67.3782 0 44.2117 0C21.0452 0 2.26501 18.7345 2.26501 41.8447C2.26501 64.955 21.0452 83.6895 44.2117 83.6895Z" fill="white"/>
</mask>
<g mask="url(#mask0)">
<path d="M44.2117 92.4391C68.6292 92.4391 88.4234 86.6277 88.4234 79.4589C88.4234 72.2901 68.6292 66.4787 44.2117 66.4787C19.7943 66.4787 0 72.2901 0 79.4589C0 86.6277 19.7943 92.4391 44.2117 92.4391Z" fill="#C1035F"/>
<path d="M80.4789 71.4964C80.4789 71.4964 76.8603 67.4591 76.8603 67.4659C76.8603 67.4659 74.1294 75.0451 74.1294 75.0586C76.2448 73.8712 78.3635 72.6838 80.4789 71.4964Z" fill="#BA006A"/>
<path d="M76.8603 67.4693C76.8603 67.4693 76.7685 50.1771 76.7175 40.793C76.7107 40.793 76.7005 40.793 76.6937 40.793C76.1189 40.5386 76.2992 40.6166 75.7278 40.3622C74.813 52.1821 74.4117 63.3948 74.1328 75.0586C75.0409 73.04 76.8603 67.4761 76.8603 67.4693Z" fill="#DD0074"/>
<path d="M80.4788 71.4964C80.4992 71.4862 80.5162 71.476 80.5366 71.4625C80.0095 61.1896 78.7341 50.9676 78.207 40.6947C77.4622 40.7422 77.4622 40.7422 76.7174 40.7897C76.7684 50.1737 76.8092 58.0819 76.8602 67.4659L80.4788 71.4964Z" fill="#BA006A"/>
<path d="M54.768 41.1764C61.6209 40.793 68.8716 40.7456 75.7244 40.3622C75.6122 47.4562 75.0238 54.2143 74.7517 61.3049C74.5749 65.8917 74.3674 70.4752 74.126 75.0586C67.0623 73.3827 60.002 71.7033 52.9384 70.0274C53.3227 64.8841 53.6729 59.7409 53.996 54.5943C54.2817 50.1228 54.5368 45.6513 54.768 41.1764Z" fill="#FF006E"/>
<path d="M69.681 44.5487C69.5926 44.5487 69.5381 44.5249 69.5075 44.4944C69.2355 44.4062 69.0382 44.1518 69.0382 43.8532C69.0382 43.48 69.3443 43.1747 69.7252 43.1747C70.1027 43.1747 70.4122 43.48 70.4122 43.8532C70.4122 44.1755 70.2489 44.3451 70.1129 44.43C69.9326 44.5385 69.7354 44.5487 69.681 44.5487ZM69.7218 44.2569V44.4978C69.7524 44.4707 69.7796 44.43 69.7796 44.3757C69.7796 44.3214 69.7524 44.2841 69.7218 44.2569ZM69.7218 44.2094V44.2264C69.7932 44.2196 69.902 44.1925 69.9803 44.1246C70.0517 44.0602 70.0891 43.972 70.0891 43.8498C70.0891 43.653 69.9258 43.4936 69.7252 43.4936C69.5245 43.4936 69.3613 43.653 69.3613 43.8498C69.3579 44.0466 69.5211 44.2094 69.7218 44.2094Z" fill="#666464"/>
<path d="M58.9885 45.0508C58.611 45.0508 58.3015 44.7455 58.3015 44.3723C58.3015 43.9991 58.6076 43.6938 58.9885 43.6938C59.366 43.6938 59.6755 43.9991 59.6755 44.3723C59.6755 44.7489 59.366 45.0508 58.9885 45.0508ZM58.9885 44.0161C58.7878 44.0161 58.6246 44.1755 58.6246 44.3723C58.6246 44.5691 58.7878 44.7285 58.9885 44.7285C59.1892 44.7285 59.3524 44.5691 59.3524 44.3723C59.3558 44.1789 59.1892 44.0161 58.9885 44.0161Z" fill="#666464"/>
<path d="M69.6367 44.5487C69.5482 44.5487 69.4938 44.5249 69.4632 44.4944C69.1912 44.4062 68.9939 44.1518 68.9939 43.8532C68.9939 43.48 69.3 43.1747 69.6809 43.1747C70.0584 43.1747 70.3679 43.48 70.3679 43.8532C70.3679 44.1755 70.2046 44.3451 70.0686 44.43C69.8883 44.5385 69.6945 44.5487 69.6367 44.5487ZM69.6809 44.2569V44.4978C69.7115 44.4707 69.7387 44.43 69.7387 44.3757C69.7353 44.3214 69.7115 44.2841 69.6809 44.2569ZM69.6809 44.2094V44.2264C69.7523 44.2196 69.8611 44.1925 69.9394 44.1246C70.0108 44.0602 70.0482 43.972 70.0482 43.8498C70.0482 43.653 69.8849 43.4936 69.6843 43.4936C69.4836 43.4936 69.3204 43.653 69.3204 43.8498C69.3136 44.0466 69.4802 44.2094 69.6809 44.2094Z" fill="url(#paint1_radial)"/>
<path d="M58.9477 45.0508C58.5702 45.0508 58.2607 44.7455 58.2607 44.3723C58.2607 43.9991 58.5668 43.6938 58.9477 43.6938C59.3252 43.6938 59.6347 43.9991 59.6347 44.3723C59.6313 44.7489 59.3252 45.0508 58.9477 45.0508ZM58.9477 44.0161C58.7471 44.0161 58.5838 44.1755 58.5838 44.3723C58.5838 44.5691 58.7471 44.7285 58.9477 44.7285C59.1484 44.7285 59.3116 44.5691 59.3116 44.3723C59.3116 44.1789 59.1484 44.0161 58.9477 44.0161Z" fill="url(#paint2_radial)"/>
<path d="M62.8009 52.6401C62.0357 52.6401 61.3419 52.3246 60.7331 51.7072C59.3966 50.3433 58.6382 47.6428 58.7096 44.491C58.713 44.3621 58.8184 44.2569 58.951 44.2569C58.9544 44.2569 58.9544 44.2569 58.9579 44.2569C59.0905 44.2603 59.1959 44.3689 59.1925 44.5012C59.1245 47.4833 59.8489 50.116 61.08 51.3713C61.5935 51.8937 62.1751 52.1618 62.8043 52.1618C65.4876 52.1618 68.7116 49.6105 69.4462 44.0127C69.4632 43.8803 69.5823 43.7887 69.7149 43.8057C69.8475 43.8227 69.9393 43.9448 69.9223 44.0737C69.1469 49.9566 65.6882 52.6401 62.8009 52.6401Z" fill="#263238"/>
<path d="M7.94458 71.4964C7.94458 71.4964 11.5631 67.4591 11.5631 67.4659C11.5631 67.4659 14.2941 75.0451 14.2941 75.0586C12.1753 73.8712 10.0599 72.6838 7.94458 71.4964Z" fill="#BA006A"/>
<path d="M11.5597 67.4693C11.5597 67.4693 11.6515 50.1771 11.7025 40.793C11.7093 40.793 11.7195 40.793 11.7263 40.793C12.3011 40.5386 12.1208 40.6166 12.6922 40.3622C13.607 52.1821 14.0083 63.3948 14.2872 75.0586C13.3792 73.04 11.5597 67.4761 11.5597 67.4693Z" fill="#DD0074"/>
<path d="M7.94453 71.4964C7.92413 71.4862 7.90712 71.476 7.88672 71.4625C8.41386 61.1896 9.6892 50.9676 10.2163 40.6947C10.9611 40.7422 10.9611 40.7422 11.7059 40.7897C11.6549 50.1737 11.6141 58.0819 11.5631 67.4659L7.94453 71.4964Z" fill="#BA006A"/>
<path d="M33.6519 41.1764C26.7991 40.793 19.5484 40.7456 12.6956 40.3622C12.8078 47.4562 13.3961 54.2143 13.6682 61.3049C13.8451 65.8917 14.0525 70.4752 14.294 75.0586C21.3576 73.3827 28.4179 71.7033 35.4816 70.0274C35.0973 64.8841 34.747 59.7409 34.4239 54.5943C34.1416 50.1228 33.8866 45.6513 33.6519 41.1764Z" fill="#FF006E"/>
<path d="M18.3105 44.4265C18.1745 44.3417 18.0112 44.1721 18.0112 43.8498C18.0112 43.4766 18.3173 43.1713 18.6982 43.1713C19.0757 43.1713 19.3852 43.4766 19.3852 43.8498C19.3852 44.1483 19.1879 44.4028 18.9159 44.491C18.8853 44.5215 18.8308 44.5453 18.7424 44.5453C18.6846 44.5487 18.4908 44.5385 18.3105 44.4265ZM18.6404 44.379C18.6404 44.4333 18.6642 44.474 18.6982 44.5012V44.2603C18.6676 44.2841 18.6438 44.3214 18.6404 44.379ZM19.0655 43.8498C19.0655 43.653 18.9023 43.4936 18.7016 43.4936C18.501 43.4936 18.3377 43.653 18.3377 43.8498C18.3377 43.9719 18.3717 44.0635 18.4465 44.1246C18.5248 44.1924 18.6336 44.2196 18.705 44.2264V44.2094C18.8989 44.2094 19.0655 44.0466 19.0655 43.8498Z" fill="#666464"/>
<path d="M28.7479 44.3757C28.7479 44.0025 29.054 43.6971 29.4349 43.6971C29.8124 43.6971 30.1219 44.0025 30.1219 44.3757C30.1219 44.7489 29.8158 45.0542 29.4349 45.0542C29.054 45.0508 28.7479 44.7489 28.7479 44.3757ZM29.0676 44.3757C29.0676 44.5724 29.2309 44.7319 29.4315 44.7319C29.6322 44.7319 29.7954 44.5724 29.7954 44.3757C29.7954 44.1789 29.6322 44.0194 29.4315 44.0194C29.2309 44.016 29.0676 44.1789 29.0676 44.3757Z" fill="#666464"/>
<path d="M18.3558 44.4265C18.2198 44.3417 18.0565 44.1721 18.0565 43.8498C18.0565 43.4766 18.3626 43.1713 18.7435 43.1713C19.121 43.1713 19.4305 43.4766 19.4305 43.8498C19.4305 44.1483 19.2332 44.4028 18.9612 44.491C18.9306 44.5215 18.8761 44.5453 18.7877 44.5453C18.7299 44.5487 18.536 44.5385 18.3558 44.4265ZM18.6857 44.379C18.6857 44.4333 18.7095 44.474 18.7435 44.5012V44.2603C18.7129 44.2841 18.6857 44.3214 18.6857 44.379ZM19.1074 43.8498C19.1074 43.653 18.9442 43.4936 18.7435 43.4936C18.5428 43.4936 18.3796 43.653 18.3796 43.8498C18.3796 43.9719 18.4136 44.0635 18.4884 44.1246C18.5667 44.1924 18.6755 44.2196 18.7469 44.2264V44.2094C18.9442 44.2094 19.1074 44.0466 19.1074 43.8498Z" fill="url(#paint3_radial)"/>
<path d="M28.7887 44.3757C28.7887 44.0025 29.0948 43.6971 29.4757 43.6971C29.8532 43.6971 30.1627 44.0025 30.1627 44.3757C30.1627 44.7489 29.8566 45.0542 29.4757 45.0542C29.0982 45.0508 28.7887 44.7489 28.7887 44.3757ZM29.1084 44.3757C29.1084 44.5724 29.2716 44.7319 29.4723 44.7319C29.6729 44.7319 29.8362 44.5724 29.8362 44.3757C29.8362 44.1789 29.6729 44.0194 29.4723 44.0194C29.275 44.016 29.1084 44.1789 29.1084 44.3757Z" fill="url(#paint4_radial)"/>
<path d="M25.6191 52.6401C26.3843 52.6401 27.0781 52.3246 27.6869 51.7071C29.0234 50.3433 29.7818 47.6428 29.7104 44.491C29.707 44.3621 29.6016 44.2569 29.4689 44.2569C29.4655 44.2569 29.4655 44.2569 29.4621 44.2569C29.3295 44.2603 29.2241 44.3689 29.2275 44.5012C29.2955 47.4833 28.5711 50.116 27.34 51.3713C26.8264 51.8937 26.2449 52.1618 25.6157 52.1618C22.9324 52.1618 19.7084 49.6105 18.9738 44.0127C18.9568 43.8803 18.8377 43.7887 18.7051 43.8057C18.5725 43.8227 18.4806 43.9448 18.4976 44.0737C19.2764 49.9565 22.7352 52.6401 25.6191 52.6401Z" fill="#263238"/>
<path d="M62.1548 10.9277V72.0935C62.1548 74.8517 61.8726 77.0908 57.9717 77.0908H30.4483C29.1865 77.0908 28.3023 76.8601 27.6867 76.453C27.3875 76.2562 27.1494 76.0187 26.9623 75.7439C26.3366 74.8313 26.2686 73.5353 26.2686 72.0935V9.23815C26.2686 7.80645 27.0304 5.93033 30.4517 5.93033H57.9751C61.2468 5.93033 62.0358 7.80645 62.1446 10.2424C62.1514 10.4663 62.1548 10.697 62.1548 10.9277Z" fill="#263238"/>
<path d="M60.7604 12.4001V70.6211C60.7604 73.247 60.7604 75.3775 56.9038 75.3775H31.5195C27.6628 75.3775 27.6628 73.247 27.6628 70.6211V12.4001C27.6628 11.7894 27.6628 11.2025 27.7105 10.6664H60.7128C60.7604 11.2059 60.7604 11.7894 60.7604 12.4001Z" fill="url(#paint5_linear)"/>
<path opacity="0.3" d="M62.1548 31.2869V40.637L26.9623 75.7439C26.3366 74.8313 26.2686 73.5353 26.2686 72.0935V67.0859L62.1548 31.2869Z" fill="white"/>
<path opacity="0.3" d="M62.1549 42.0687V47.0321L60.7605 48.4231L33.737 75.3775L32.0195 77.0908H30.4483C29.1866 77.0908 28.3023 76.8601 27.6868 76.453L62.1549 42.0687Z" fill="white"/>
<path d="M32.4173 10.6699L29.2171 17.3432H23.2145L27.6901 10.6699H32.4173Z" fill="#E80572"/>
<path d="M29.2172 17.3431V19.9996C29.2172 21.8214 27.935 23.3006 26.3502 23.3006H26.0781C24.4967 23.3006 23.2112 21.8214 23.2112 19.9996V17.3431H29.2172Z" fill="#CC026C"/>
<path d="M37.131 10.6699L35.2163 17.3432H29.2103L32.4072 10.6699H37.131Z" fill="#E9EDF4"/>
<path d="M35.2129 17.3431V19.9996C35.2129 21.8214 33.9308 23.3006 32.3459 23.3006H32.0739C30.4925 23.3006 29.2069 21.8214 29.2069 19.9996V17.3431H35.2129Z" fill="#D5D4D4"/>
<path d="M41.8548 10.6699L41.2155 17.3432H35.2095L37.131 10.6699H41.8548Z" fill="#E80572"/>
<path d="M41.2155 17.3431V19.9996C41.2155 21.8214 39.9333 23.3006 38.3485 23.3006H38.0764C36.495 23.3006 35.2095 21.8214 35.2095 19.9996V17.3431H41.2155Z" fill="#CC026C"/>
<path d="M47.2113 17.3432H41.2053L41.8447 10.6699H46.5719L47.2113 17.3432Z" fill="#E9EDF4"/>
<path d="M47.2113 17.3431V19.9996C47.2113 21.8214 45.9292 23.3006 44.3444 23.3006H44.0723C42.4909 23.3006 41.2053 21.8214 41.2053 19.9996V17.3431H47.2113Z" fill="#D5D4D4"/>
<path d="M53.2106 17.3432H47.208L46.5686 10.6699H51.2925L53.2106 17.3432Z" fill="#E80572"/>
<path d="M53.2105 17.3431V19.9996C53.2105 21.8214 51.9283 23.3006 50.3435 23.3006H50.0714C48.49 23.3006 47.2045 21.8214 47.2045 19.9996V17.3431H53.2105Z" fill="#CC026C"/>
<path d="M59.2062 17.3432H53.2002L51.2855 10.6699H56.0094L59.2062 17.3432Z" fill="#E9EDF4"/>
<path d="M59.2063 17.3431V19.9996C59.2063 21.8214 57.9242 23.3006 56.3393 23.3006H56.0673C54.4859 23.3006 53.2003 21.8214 53.2003 19.9996V17.3431H59.2063Z" fill="#D5D4D4"/>
<path d="M65.2054 17.3398H59.2028L57.8527 14.5205L56.006 10.6699H60.7298L61.1243 11.2568L62.1548 12.7936L63.8417 15.3042L65.2054 17.3398Z" fill="#E80572"/>
<path d="M65.2054 17.3398V19.9962C65.2054 20.176 65.1918 20.3524 65.168 20.5254C64.9504 22.0759 63.7941 23.2667 62.3929 23.2938C62.3759 23.2972 62.3555 23.2972 62.3385 23.2972H62.0664C61.5937 23.2972 61.1516 23.1683 60.7571 22.9308C59.8524 22.3982 59.2301 21.3227 59.2029 20.0776C59.1995 20.0505 59.1995 20.0233 59.1995 19.9928V17.3364H65.2054V17.3398Z" fill="#CC026C"/>
<path d="M47.5344 8.42392H39.4981C39.3382 8.42392 39.209 8.295 39.209 8.13554C39.209 7.97609 39.3382 7.84717 39.4981 7.84717H47.5344C47.6942 7.84717 47.8235 7.97609 47.8235 8.13554C47.8235 8.295 47.6942 8.42392 47.5344 8.42392Z" fill="#C4C5C6"/>
<path d="M49.2111 8.17964C49.2111 8.35945 49.0648 8.50533 48.8846 8.50533C48.7043 8.50533 48.5581 8.35945 48.5581 8.17964C48.5581 7.99983 48.7043 7.85394 48.8846 7.85394C49.0648 7.85734 49.2111 7.99983 49.2111 8.17964Z" fill="#C4C5C6"/>
<path d="M43.3541 37.3972C42.0781 33.3096 37.8858 30.3088 32.9089 30.3088C27.935 30.3088 23.7427 33.3066 22.4667 37.3912C22.9937 32.6421 27.4672 28.9355 32.9089 28.9355C38.3565 28.9355 42.8331 32.648 43.3541 37.3972Z" fill="#263238"/>
<path d="M43.4074 38.3304C43.4074 43.5167 38.7089 47.7225 32.9119 47.7225C27.1149 47.7225 22.4164 43.5167 22.4164 38.3304C22.4164 38.0144 22.4341 37.7014 22.4667 37.3912C23.7457 33.3066 27.9351 30.3088 32.909 30.3088C37.8858 30.3088 42.0781 33.3096 43.3542 37.3971C43.3897 37.7043 43.4074 38.0144 43.4074 38.3304Z" fill="white"/>
<path d="M42.6584 38.4958C42.6584 38.6967 42.6495 38.8946 42.6347 39.0924C42.3297 42.8138 39.2062 45.7436 35.3929 45.7436C31.7335 45.7436 28.7048 43.0442 28.2015 39.5325C28.1541 39.1929 28.1274 38.8473 28.1274 38.4958C28.1274 38.3393 28.1304 38.1887 28.1422 38.0351C28.3791 34.2488 31.5352 31.248 35.3929 31.248C37.1101 31.248 38.6881 31.8417 39.9316 32.8341C41.5955 34.1631 42.6584 36.204 42.6584 38.4958Z" fill="#33201B"/>
<path d="M42.6346 39.0924C42.3297 42.8138 39.2062 45.7436 35.3929 45.7436C31.7335 45.7436 28.7047 43.0442 28.2014 39.5325C31.7335 38.4988 36.8643 37.7132 42.6346 39.0924Z" fill="#020202"/>
<path d="M39.9326 32.8341C37.0637 35.6162 31.2993 37.2908 28.1462 38.0351C28.3831 34.2488 31.5392 31.248 35.3969 31.248C37.1111 31.248 38.6892 31.8417 39.9326 32.8341Z" fill="#6F4D3A"/>
<path d="M42.6584 38.4958C42.6584 38.6967 42.6495 38.8946 42.6347 39.0924C42.3297 42.8138 39.2062 45.7436 35.3929 45.7436C31.7335 45.7436 28.7048 43.0442 28.2015 39.5325C28.1541 39.1929 28.1274 38.8473 28.1274 38.4958C28.1274 38.3393 28.1304 38.1887 28.1422 38.0351C28.3791 34.2488 31.5352 31.248 35.3929 31.248C37.1101 31.248 38.6881 31.8417 39.9316 32.8341C41.5955 34.1631 42.6584 36.204 42.6584 38.4958Z" stroke="#683900" stroke-width="4" stroke-miterlimit="10"/>
<path d="M31.4523 34.5146C32.0638 34.5146 32.5595 34.02 32.5595 33.41C32.5595 32.7999 32.0638 32.3054 31.4523 32.3054C30.8407 32.3054 30.345 32.7999 30.345 33.41C30.345 34.02 30.8407 34.5146 31.4523 34.5146Z" fill="white"/>
<path d="M47.5537 37.1048C48.8298 33.0172 53.022 30.0165 57.9989 30.0165C62.9728 30.0165 67.1651 33.0142 68.4412 37.0989C67.9142 32.3497 63.4406 28.6431 57.9989 28.6431C52.5543 28.6431 48.0777 32.3526 47.5537 37.1048Z" fill="#263238"/>
<path d="M47.5034 38.0351C47.5034 43.2214 52.202 47.4271 57.999 47.4271C63.7959 47.4271 68.4945 43.2214 68.4945 38.0351C68.4945 37.7191 68.4767 37.406 68.4442 37.0959C67.1652 33.0113 62.9758 30.0135 58.0019 30.0135C53.0251 30.0135 48.8328 33.0142 47.5567 37.1018C47.5182 37.409 47.5034 37.722 47.5034 38.0351Z" fill="white"/>
<path d="M48.2494 38.2005C48.2494 38.4013 48.2583 38.5992 48.2731 38.7971C48.578 42.5185 51.7015 45.4483 55.5148 45.4483C59.1742 45.4483 62.203 42.7488 62.7063 39.2372C62.7537 38.8975 62.7803 38.552 62.7803 38.2005C62.7803 38.044 62.7774 37.8933 62.7655 37.7398C62.5287 33.9534 59.3726 30.9527 55.5148 30.9527C53.7977 30.9527 52.2196 31.5463 50.9762 32.5387C49.3152 33.8678 48.2494 35.9116 48.2494 38.2005Z" fill="#33201B"/>
<path d="M48.2731 38.8C48.578 42.5214 51.7015 45.4512 55.5148 45.4512C59.1742 45.4512 62.203 42.7518 62.7063 39.2401C59.1742 38.2064 54.0434 37.4208 48.2731 38.8Z" fill="#020202"/>
<path d="M50.9762 32.5417C53.8451 35.3238 59.6095 36.9984 62.7626 37.7427C62.5257 33.9564 59.3697 30.9557 55.5119 30.9557C53.7977 30.9557 52.2197 31.5493 50.9762 32.5417Z" fill="#6F4D3A"/>
<path d="M48.2494 38.2005C48.2494 38.4013 48.2583 38.5992 48.2731 38.7971C48.578 42.5185 51.7015 45.4483 55.5148 45.4483C59.1742 45.4483 62.203 42.7488 62.7063 39.2372C62.7537 38.8975 62.7803 38.552 62.7803 38.2005C62.7803 38.044 62.7774 37.8933 62.7655 37.7398C62.5287 33.9534 59.3726 30.9527 55.5148 30.9527C53.7977 30.9527 52.2196 31.5463 50.9762 32.5387C49.3152 33.8678 48.2494 35.9116 48.2494 38.2005Z" stroke="#683900" stroke-width="4" stroke-miterlimit="10"/>
<path d="M59.4554 34.2222C60.067 34.2222 60.5627 33.7276 60.5627 33.1176C60.5627 32.5075 60.067 32.013 59.4554 32.013C58.8439 32.013 58.3481 32.5075 58.3481 33.1176C58.3481 33.7276 58.8439 34.2222 59.4554 34.2222Z" fill="white"/>
<path d="M58.6613 54.4465C58.6613 56.3023 57.3452 58.8264 55.1958 60.9739C52.7947 63.3725 49.3496 65.2995 45.5202 65.2995C41.5038 65.2995 37.9124 63.2232 35.5012 60.7025C33.5525 58.6669 32.3792 56.343 32.3792 54.589C32.3792 54.3481 32.3996 54.1242 32.4438 53.9172C33.1035 50.7146 38.7082 51.0878 45.5202 51.0878C52.5431 51.0878 58.2838 50.5585 58.6443 54.0835C58.6545 54.1988 58.6613 54.321 58.6613 54.4465Z" fill="#282828"/>
<path d="M58.6443 54.08C52.1519 54.8162 38.7388 54.2463 32.4437 53.9172C33.1035 50.7145 38.7082 51.0877 45.5202 51.0877C52.543 51.0877 58.2804 50.5585 58.6443 54.08Z" fill="white"/>
<path d="M55.1957 60.9739C52.7947 63.3724 49.3496 65.2995 45.5202 65.2995C41.5037 65.2995 37.9123 63.2232 35.5011 60.7024C37.8239 59.705 41.2452 59.0774 45.0576 59.0774C49.1999 59.0774 52.8831 59.8237 55.1957 60.9739Z" fill="#FF006E"/>
</g>
<defs>
<radialGradient id="paint0_radial" cx="0" cy="0" r="1" gradientUnits="userSpaceOnUse" gradientTransform="translate(44.3264 41.8435) scale(41.9455 41.8435)">
<stop stop-color="#FFB36E"/>
<stop offset="1" stop-color="#FF006E"/>
</radialGradient>
<radialGradient id="paint1_radial" cx="0" cy="0" r="1" gradientUnits="userSpaceOnUse" gradientTransform="translate(69.6802 43.8605) scale(0.687363 0.685685)">
<stop stop-color="white"/>
<stop offset="0.2039" stop-color="#CBCBCB"/>
<stop offset="0.933" stop-color="#ADACAC"/>
<stop offset="1" stop-color="#ADACAC"/>
</radialGradient>
<radialGradient id="paint2_radial" cx="0" cy="0" r="1" gradientUnits="userSpaceOnUse" gradientTransform="translate(58.9463 44.3749) scale(0.682296 0.680633)">
<stop stop-color="white"/>
<stop offset="0.2039" stop-color="#CBCBCB"/>
<stop offset="0.933" stop-color="#ADACAC"/>
<stop offset="1" stop-color="#ADACAC"/>
</radialGradient>
<radialGradient id="paint3_radial" cx="0" cy="0" r="1" gradientUnits="userSpaceOnUse" gradientTransform="translate(18.7425 43.8605) rotate(180) scale(0.687356 0.685686)">
<stop stop-color="white"/>
<stop offset="0.2039" stop-color="#CBCBCB"/>
<stop offset="0.933" stop-color="#ADACAC"/>
<stop offset="1" stop-color="#ADACAC"/>
</radialGradient>
<radialGradient id="paint4_radial" cx="0" cy="0" r="1" gradientUnits="userSpaceOnUse" gradientTransform="translate(29.4753 44.3749) rotate(180) scale(0.682287 0.680627)">
<stop stop-color="white"/>
<stop offset="0.2039" stop-color="#CBCBCB"/>
<stop offset="0.933" stop-color="#ADACAC"/>
<stop offset="1" stop-color="#ADACAC"/>
</radialGradient>
<linearGradient id="paint5_linear" x1="56.8674" y1="61.3308" x2="-7.34199" y2="-37.2131" gradientUnits="userSpaceOnUse">
<stop stop-color="#FFB36E"/>
<stop offset="1" stop-color="#FF006E"/>
</linearGradient>
</defs>
</svg>
