<svg width="26" height="31" viewBox="0 0 26 31" fill="none" xmlns="http://www.w3.org/2000/svg">
<path d="M5.91667 10.3332V7.49984C5.91667 5.62122 6.66294 3.81955 7.99133 2.49116C9.31971 1.16278 11.1214 0.416504 13 0.416504C14.8786 0.416504 16.6803 1.16278 18.0087 2.49116C19.3371 3.81955 20.0833 5.62122 20.0833 7.49984V10.3332H24.3333C24.7091 10.3332 25.0694 10.4824 25.3351 10.7481C25.6007 11.0138 25.75 11.3741 25.75 11.7498V28.7498C25.75 29.1256 25.6007 29.4859 25.3351 29.7516C25.0694 30.0172 24.7091 30.1665 24.3333 30.1665H1.66667C1.29094 30.1665 0.930608 30.0172 0.664932 29.7516C0.399255 29.4859 0.25 29.1256 0.25 28.7498V11.7498C0.25 11.3741 0.399255 11.0138 0.664932 10.7481C0.930608 10.4824 1.29094 10.3332 1.66667 10.3332H5.91667ZM5.91667 13.1665H3.08333V27.3332H22.9167V13.1665H20.0833V15.9998H17.25V13.1665H8.75V15.9998H5.91667V13.1665ZM8.75 10.3332H17.25V7.49984C17.25 6.37267 16.8022 5.29166 16.0052 4.49463C15.2082 3.6976 14.1272 3.24984 13 3.24984C11.8728 3.24984 10.7918 3.6976 9.99479 4.49463C9.19777 5.29166 8.75 6.37267 8.75 7.49984V10.3332Z" fill="#FF006E"/>
</svg>
