<svg width="24" height="24" viewBox="0 0 24 24" fill="none" xmlns="http://www.w3.org/2000/svg">
<g clip-path="url(#clip0)">
<path d="M0.89 14.57L4.08 14.91C4.1 14.95 4.12 14.99 4.13 15.04L2.11 17.54C1.79 17.94 1.82 18.51 2.18 18.88L4.7 21.4C5.06 21.76 5.64 21.79 6.04 21.47L8.54 19.45C8.58 19.47 8.62 19.49 8.67 19.5L9.01 22.69C9.06 23.2 9.49 23.59 10 23.59H13.57C14.08 23.59 14.51 23.2 14.56 22.69L14.9 19.5C14.94 19.48 14.98 19.46 15.03 19.45L17.53 21.47C17.93 21.79 18.5 21.76 18.87 21.4L21.39 18.88C21.75 18.52 21.78 17.94 21.46 17.54L19.44 15.04C19.46 15 19.48 14.96 19.49 14.91L22.68 14.57C23.19 14.52 23.58 14.09 23.58 13.58V10.01C23.58 9.5 23.19 9.07 22.68 9.02L19.5 8.67C19.48 8.63 19.46 8.59 19.45 8.54L21.47 6.04C21.79 5.64 21.76 5.07 21.4 4.7L18.88 2.18C18.52 1.82 17.94 1.79 17.54 2.11L15.04 4.13C15 4.11 14.96 4.09 14.91 4.08L14.57 0.89C14.52 0.39 14.09 0 13.58 0H10.01C9.5 0 9.07 0.39 9.01 0.89L8.67 4.09C8.63 4.1 8.59 4.12 8.55 4.14L6.05 2.12C5.65 1.8 5.08 1.83 4.72 2.19L2.19 4.72C1.83 5.08 1.8 5.65 2.12 6.05L4.14 8.55C4.12 8.59 4.1 8.63 4.09 8.67L0.89 9.01C0.39 9.07 0 9.5 0 10.01V13.58C0 14.09 0.39 14.52 0.89 14.57ZM2 10.91L4.92 10.6C5.32 10.56 5.65 10.29 5.77 9.91C5.87 9.56 6.02 9.21 6.2 8.87C6.39 8.52 6.34 8.09 6.09 7.78L4.24 5.49L5.49 4.24L7.78 6.09C8.09 6.34 8.52 6.38 8.87 6.2C9.21 6.02 9.56 5.87 9.9 5.77C10.28 5.65 10.55 5.32 10.59 4.92L10.91 2H12.68L12.99 4.92C13.03 5.32 13.31 5.65 13.68 5.77C14.02 5.88 14.37 6.02 14.71 6.2C15.06 6.39 15.49 6.34 15.8 6.09L18.09 4.24L19.34 5.49L17.49 7.78C17.24 8.09 17.2 8.52 17.38 8.87C17.56 9.21 17.7 9.56 17.81 9.9C17.93 10.28 18.26 10.55 18.66 10.59L21.58 10.9V12.67L18.66 12.98C18.26 13.02 17.93 13.3 17.81 13.67C17.7 14.01 17.56 14.36 17.38 14.7C17.2 15.05 17.24 15.48 17.49 15.79L19.34 18.08L18.09 19.33L15.8 17.48C15.49 17.23 15.06 17.19 14.71 17.37C14.37 17.55 14.02 17.69 13.68 17.8C13.3 17.92 13.03 18.25 12.99 18.65L12.68 21.57H10.91L10.6 18.65C10.56 18.25 10.29 17.92 9.91 17.8C9.57 17.69 9.22 17.55 8.88 17.37C8.53 17.19 8.1 17.23 7.79 17.48L5.5 19.33L4.25 18.08L6.1 15.79C6.35 15.48 6.39 15.05 6.21 14.7C6.03 14.36 5.89 14.01 5.78 13.67C5.66 13.29 5.33 13.02 4.93 12.98L2 12.68V10.91Z" fill="#FF006E"/>
<path d="M11.79 15.58C13.88 15.58 15.58 13.88 15.58 11.79C15.58 9.7 13.88 8 11.79 8C9.7 8 8 9.7 8 11.79C8 13.88 9.7 15.58 11.79 15.58ZM11.79 10C12.78 10 13.58 10.8 13.58 11.79C13.58 12.78 12.78 13.58 11.79 13.58C10.8 13.58 10 12.78 10 11.79C10 10.8 10.81 10 11.79 10Z" fill="#FF006E"/>
</g>
<defs>
<clipPath id="clip0">
<rect width="23.58" height="23.58" fill="white"/>
</clipPath>
</defs>
</svg>
