<svg xmlns="http://www.w3.org/2000/svg" viewBox="0 0 1184.3 181.4"><style>.st0{fill:#164194}.st1{fill:#ffed00}.st2{fill:#e30613}.st3{fill:#fff}.st4{fill:#b61f2b}.st5{fill:#878787}</style><g id="znak"><path class="st0" d="M1018 49.1h136.1v90.7H1018z"/><path class="st1" d="M1083.2 68.9l2.8-2.1 2.9 2.1-1.1-3.4 2.9-2.1h-3.6L1086 60l-1.1 3.4h-3.6l3 2.1zM1068.3 72.9l2.9-2.1 2.9 2.1-1.1-3.4 2.9-2.1h-3.6l-1.1-3.4-1.1 3.4h-3.6l2.9 2.1zM1060.3 74.9l-1.1 3.4h-3.6l2.9 2.1-1.1 3.4 2.9-2.1 2.9 2.1-1.1-3.4 2.9-2.1h-3.6zM1056.3 96.5l2.9 2.1-1.1-3.4 2.9-2.1h-3.6l-1.1-3.4-1.1 3.5-3.6-.1 2.9 2.1-1.1 3.4zM1061.4 108l-1.1-3.4-1.1 3.4h-3.6l2.9 2.1-1.1 3.4 2.9-2.1 2.9 2.1-1.1-3.4 2.9-2.1zM1072.3 118.9l-1.1-3.4-1.1 3.4h-3.6l2.9 2.1-1.1 3.4 2.9-2.1 2.9 2.1-1.1-3.4 2.9-2.1zM1087.1 122.9l-1.1-3.5-1.1 3.5h-3.6l3 2.1-1.1 3.3 2.8-2.1 2.9 2.1-1.1-3.3 2.9-2.1zM1102 118.9l-1.1-3.4-1.1 3.4h-3.6l2.9 2.1-1.1 3.4 2.9-2.1 2.9 2.1-1.1-3.4 2.9-2.1zM1112.9 108l-1.1-3.4-1.1 3.4h-3.6l2.9 2.1-1.1 3.4 2.9-2.1 2.9 2.1-1.1-3.4 2.9-2.1zM1120.4 93.1h-3.6l-1.1-3.4-1.1 3.4h-3.6l3 2.1-1.2 3.4 2.9-2.1 2.9 2.1-1.1-3.4zM1108.9 83.7l2.9-2.1 2.9 2.1-1.1-3.4 2.9-2h-3.6l-1.1-3.5-1.1 3.5h-3.6l2.9 2zM1100.9 64l-1.1 3.4h-3.6l3 2.1-1.1 3.4 2.8-2.1 2.9 2.1-1.1-3.4 2.9-2.1h-3.6z"/><path d="M807.4 108.2v-15h9.1V95h-7v4.5h6.3v1.8h-6.3v5.2h7.6v1.8h-9.7zM828.1 107.6c-.5.1-1.1.2-1.8.4-.8.1-1.6.2-2.6.2-.9 0-1.6-.1-2.2-.4-.6-.2-1.1-.6-1.4-1.1-.4-.5-.6-1-.8-1.6-.2-.6-.2-1.3-.2-2.1v-6.3h2v5.9c0 1.4.2 2.3.6 2.9.4.6 1.2.9 2.2.9h.7c.2 0 .4 0 .6-.1.2 0 .4 0 .6-.1.2 0 .3 0 .4-.1v-9.5h2v11zM835.6 96.7h.6c.2 0 .4.1.7.1.2 0 .4.1.6.1.2 0 .3.1.4.1l-.3 1.8c-.2-.1-.4-.1-.8-.2s-.8-.1-1.4-.1c-.4 0-.7 0-1.1.1-.4.1-.6.1-.7.2v9.4h-2V97.4c.5-.2 1.1-.3 1.8-.5.5-.1 1.3-.2 2.2-.2zM849.6 102.3c0 .9-.1 1.7-.4 2.4-.3.7-.6 1.3-1.1 1.9-.5.5-1 .9-1.7 1.2-.6.3-1.4.4-2.1.4-.8 0-1.5-.1-2.1-.4-.6-.3-1.2-.7-1.7-1.2s-.8-1.1-1.1-1.9c-.3-.7-.4-1.5-.4-2.4 0-.9.1-1.7.4-2.4.3-.7.6-1.4 1.1-1.9.5-.5 1-.9 1.7-1.2.6-.3 1.4-.4 2.1-.4.8 0 1.5.1 2.1.4.6.3 1.2.7 1.7 1.2s.8 1.1 1.1 1.9c.2.7.4 1.5.4 2.4zm-2.1 0c0-1.3-.3-2.3-.9-3-.6-.7-1.3-1.1-2.3-1.1-1 0-1.8.4-2.3 1.1-.6.7-.9 1.7-.9 3s.3 2.3.9 3c.6.7 1.3 1.1 2.3 1.1 1 0 1.8-.4 2.3-1.1.6-.7.9-1.7.9-3zM862.2 102.6c0 .9-.1 1.6-.3 2.4-.2.7-.6 1.3-1 1.9-.4.5-1 .9-1.6 1.2-.6.3-1.3.4-2.1.4-.6 0-1.2-.1-1.7-.3-.5-.2-.9-.3-1.1-.5v4.5h-2V97.3c.5-.1 1.1-.2 1.8-.4.7-.1 1.5-.2 2.5-.2.9 0 1.6.1 2.3.4.7.3 1.3.7 1.8 1.2s.9 1.1 1.1 1.8c.1.8.3 1.6.3 2.5zm-2.1 0c0-1.3-.3-2.3-1-3-.6-.7-1.5-1.1-2.6-1.1-.6 0-1.1 0-1.4.1-.3 0-.6.1-.8.2v7.1c.2.2.6.4 1.1.6.5.2 1 .3 1.5.3.6 0 1.1-.1 1.5-.3.4-.2.7-.5 1-.9.3-.4.4-.8.6-1.3 0-.6.1-1.1.1-1.7zM864.3 102.3c0-1 .1-1.9.4-2.6.3-.7.7-1.4 1.1-1.8.5-.5 1-.9 1.6-1.1.6-.2 1.3-.4 1.9-.4 1.5 0 2.7.5 3.5 1.4.8.9 1.2 2.4 1.2 4.3v.7h-7.7c.1 1.2.4 2.1 1 2.7.6.6 1.5.9 2.8.9.7 0 1.3-.1 1.8-.2s.8-.2 1.1-.4l.3 1.7c-.2.1-.7.3-1.3.4-.6.1-1.3.2-2.1.2-1 0-1.8-.1-2.5-.4-.7-.3-1.3-.7-1.8-1.2s-.8-1.1-1-1.8c-.2-.7-.3-1.5-.3-2.4zm7.7-1.1c0-.9-.2-1.7-.7-2.2s-1.1-.9-1.9-.9c-.5 0-.9.1-1.2.3-.4.2-.7.4-.9.7-.2.3-.4.6-.6 1s-.2.8-.3 1.1h5.6zM880.5 96.4c.8 0 1.5.1 2 .3.6.2 1 .5 1.3.9.3.4.6.8.7 1.4.1.5.2 1.1.2 1.7v7c-.2 0-.4.1-.7.1-.3.1-.7.1-1 .1-.4 0-.8.1-1.3.1s-.9.1-1.3.1c-.6 0-1.2-.1-1.8-.2-.5-.1-1-.3-1.4-.6-.4-.3-.7-.7-.9-1.1-.2-.5-.3-1-.3-1.7 0-.6.1-1.2.4-1.6.3-.4.6-.8 1-1.1.4-.3.9-.5 1.5-.6.6-.1 1.2-.2 1.8-.2h.6c.2 0 .4.1.6.1.2 0 .4.1.5.1.1 0 .2.1.3.1v-.6c0-.3 0-.7-.1-1-.1-.3-.2-.6-.4-.9-.2-.3-.4-.5-.8-.6-.3-.2-.7-.2-1.3-.2-.7 0-1.2 0-1.7.1s-.9.2-1.1.3l-.2-1.7c.3-.1.7-.2 1.3-.3.7.1 1.4 0 2.1 0zm.2 10.1h1.3c.4 0 .7-.1.9-.1V103c-.1-.1-.4-.1-.7-.2-.3-.1-.7-.1-1.2-.1-.3 0-.6 0-1 .1-.3 0-.6.1-.9.3-.3.1-.5.3-.7.6-.2.2-.3.5-.3.9 0 .7.2 1.2.7 1.5.4.3 1.1.4 1.9.4zM888 97.3c.5-.1 1.1-.2 1.8-.4.8-.1 1.6-.2 2.6-.2.9 0 1.6.1 2.2.4.6.3 1.1.6 1.4 1.1.4.5.6 1 .7 1.6.1.6.2 1.3.2 2.1v6.3h-2v-5.9c0-.7 0-1.3-.1-1.8s-.2-.9-.5-1.2c-.2-.3-.5-.5-.9-.7-.4-.1-.8-.2-1.3-.2h-.7c-.2 0-.4 0-.7.1-.2 0-.4 0-.6.1-.2 0-.3.1-.4.1v9.5h-2V97.3zM912.7 101.9c.2.3.5.7.9 1.1.4.5.7 1 1.1 1.6.4.6.7 1.2 1.1 1.8.4.6.7 1.2.9 1.8h-2.3c-.3-.5-.6-1.1-.9-1.7-.3-.6-.7-1.1-1-1.6-.3-.5-.7-1-1-1.4l-.9-1.2H907.5v5.9h-2.1V93.4c.6-.1 1.2-.2 2-.3.7 0 1.4-.1 2-.1 2.1 0 3.7.4 4.8 1.2 1.1.8 1.7 2 1.7 3.5 0 1-.3 1.8-.8 2.6-.6.7-1.4 1.3-2.4 1.6zm-3.2-7c-.9 0-1.6 0-2.1.1v5.6h1.5c.7 0 1.4 0 1.9-.1.6-.1 1.1-.2 1.5-.4.4-.2.7-.5.9-.9.2-.4.3-.9.3-1.5s-.1-1-.3-1.4c-.2-.4-.5-.7-.9-.9-.4-.2-.8-.4-1.3-.5h-1.5zM918.1 102.3c0-1 .1-1.9.4-2.6.3-.7.7-1.4 1.1-1.8.5-.5 1-.9 1.6-1.1.6-.2 1.3-.4 1.9-.4 1.5 0 2.7.5 3.5 1.4.8.9 1.2 2.4 1.2 4.3v.7h-7.7c.1 1.2.4 2.1 1 2.7.6.6 1.5.9 2.8.9.7 0 1.3-.1 1.8-.2s.8-.2 1.1-.4l.3 1.7c-.2.1-.7.3-1.3.4-.6.1-1.3.2-2.1.2-1 0-1.8-.1-2.5-.4-.7-.3-1.3-.7-1.8-1.2s-.8-1.1-1-1.8c-.2-.7-.3-1.5-.3-2.4zm7.7-1.1c0-.9-.2-1.7-.7-2.2-.5-.6-1.1-.9-1.9-.9-.5 0-.9.1-1.2.3-.4.2-.7.4-.9.7-.2.3-.4.6-.6 1-.1.4-.2.8-.3 1.1h5.6zM937.7 107.1c-.2.1-.5.3-1 .4-.5.2-1.1.3-1.7.3-.7 0-1.3-.1-1.9-.3-.6-.2-1.1-.5-1.6-1-.4-.5-.8-1-1.1-1.7-.3-.7-.4-1.5-.4-2.4 0-.8.1-1.6.4-2.3.2-.7.6-1.3 1.1-1.8s1-.9 1.7-1.2c.7-.3 1.4-.4 2.3-.4.9 0 1.8.1 2.5.2s1.3.3 1.8.4v10c0 1.7-.4 3-1.3 3.8-.9.8-2.2 1.2-4.1 1.2-.7 0-1.4-.1-2-.2-.6-.1-1.2-.2-1.6-.4l.4-1.8c.4.2.9.3 1.5.4.6.1 1.2.2 1.8.2 1.2 0 2.1-.2 2.6-.7.5-.5.8-1.2.8-2.3v-.4zm0-8.4c-.2-.1-.5-.1-.8-.2-.3 0-.8-.1-1.4-.1-1.1 0-1.9.4-2.5 1.1-.6.7-.9 1.6-.9 2.8 0 .6.1 1.2.2 1.7.2.5.4.8.7 1.1.3.3.6.5 1 .7.4.1.7.2 1.1.2.5 0 1-.1 1.5-.2.4-.2.8-.3 1.1-.5v-6.6zM944 94.9c-.4 0-.7-.1-.9-.4-.3-.2-.4-.6-.4-1s.1-.7.4-1c.3-.2.6-.4.9-.4.4 0 .7.1.9.4.3.2.4.6.4 1s-.1.7-.4 1c-.2.3-.5.4-.9.4zm1 13.3h-2V96.9h2v11.3zM958.3 102.3c0 .9-.1 1.7-.4 2.4-.3.7-.6 1.3-1.1 1.9-.5.5-1 .9-1.7 1.2-.6.3-1.4.4-2.1.4-.8 0-1.5-.1-2.1-.4-.6-.3-1.2-.7-1.7-1.2s-.8-1.1-1.1-1.9c-.3-.7-.4-1.5-.4-2.4 0-.9.1-1.7.4-2.4.3-.7.6-1.4 1.1-1.9.5-.5 1-.9 1.7-1.2.6-.3 1.4-.4 2.1-.4.8 0 1.5.1 2.1.4.6.3 1.2.7 1.7 1.2s.8 1.1 1.1 1.9c.3.7.4 1.5.4 2.4zm-2.1 0c0-1.3-.3-2.3-.9-3-.6-.7-1.3-1.1-2.3-1.1-1 0-1.8.4-2.3 1.1-.6.7-.9 1.7-.9 3s.3 2.3.9 3c.6.7 1.3 1.1 2.3 1.1 1 0 1.8-.4 2.3-1.1.6-.7.9-1.7.9-3zM961 97.3c.5-.1 1.1-.2 1.8-.4.8-.1 1.6-.2 2.6-.2.9 0 1.6.1 2.2.4.6.3 1.1.6 1.4 1.1.4.5.6 1 .7 1.6.1.6.2 1.3.2 2.1v6.3h-2v-5.9c0-.7 0-1.3-.1-1.8s-.2-.9-.5-1.2c-.2-.3-.5-.5-.9-.7-.4-.1-.8-.2-1.3-.2h-.7c-.2 0-.5 0-.7.1-.2 0-.4 0-.6.1-.2 0-.3.1-.4.1v9.5h-2V97.3zM976.9 96.4c.8 0 1.5.1 2 .3.6.2 1 .5 1.3.9.3.4.6.8.7 1.4.1.5.2 1.1.2 1.7v7c-.2 0-.4.1-.7.1-.3.1-.7.1-1 .1-.4 0-.8.1-1.3.1s-.9.1-1.3.1c-.6 0-1.2-.1-1.8-.2-.5-.1-1-.3-1.4-.6-.4-.3-.7-.7-.9-1.1-.2-.5-.3-1-.3-1.7 0-.6.1-1.2.4-1.6.3-.4.6-.8 1-1.1.4-.3.9-.5 1.5-.6.6-.1 1.2-.2 1.8-.2h.6c.2 0 .4.1.6.1.2 0 .4.1.5.1.1 0 .2.1.3.1v-.6c0-.3 0-.7-.1-1-.1-.3-.2-.6-.4-.9-.2-.3-.4-.5-.8-.6-.3-.2-.7-.2-1.3-.2-.7 0-1.2 0-1.7.1s-.9.2-1.1.3l-.2-1.7c.3-.1.7-.2 1.3-.3.8.1 1.4 0 2.1 0zm.2 10.1h1.3c.4 0 .7-.1.9-.1V103c-.1-.1-.4-.1-.7-.2-.3-.1-.7-.1-1.2-.1-.3 0-.6 0-1 .1-.3 0-.6.1-.9.3-.3.1-.5.3-.7.6-.2.2-.3.5-.3.9 0 .7.2 1.2.7 1.5.5.3 1.1.4 1.9.4zM987.9 108.2c-1.2 0-2.1-.3-2.6-.8s-.8-1.3-.8-2.4V91.5l2-.3v13.5c0 .3 0 .6.1.8.1.2.2.4.3.5.1.1.3.2.5.3.2.1.5.1.8.2l-.3 1.7zM817.6 127c0 1.3-.2 2.4-.6 3.4-.4 1-1 1.8-1.7 2.4-.7.6-1.6 1.1-2.6 1.4-1 .3-2.1.5-3.4.5-.6 0-1.3 0-2-.1s-1.4-.1-2-.3v-14.5c.6-.1 1.2-.2 2-.3.7-.1 1.4-.1 2-.1 1.2 0 2.3.2 3.4.5 1 .3 1.9.8 2.6 1.4.7.6 1.3 1.4 1.7 2.4.4.9.6 2 .6 3.3zm-8.1 5.8c2 0 3.5-.5 4.5-1.5s1.5-2.4 1.5-4.3c0-1.8-.5-3.3-1.5-4.3s-2.5-1.5-4.5-1.5H807.4v11.4h.7c.3.2.8.2 1.4.2zM819.9 128.8c0-1 .1-1.9.4-2.6.3-.7.7-1.4 1.1-1.8.5-.5 1-.9 1.6-1.1.6-.2 1.3-.4 1.9-.4 1.5 0 2.7.5 3.5 1.4.8.9 1.2 2.4 1.2 4.3v.7H822c.1 1.2.4 2.1 1 2.7.6.6 1.5.9 2.8.9.7 0 1.3-.1 1.8-.2s.8-.2 1.1-.4l.3 1.7c-.2.1-.7.3-1.3.4s-1.3.2-2.1.2c-1 0-1.8-.1-2.5-.4-.7-.3-1.3-.7-1.8-1.2s-.8-1.1-1-1.8c-.3-.8-.4-1.6-.4-2.4zm7.7-1.1c0-.9-.2-1.7-.7-2.2-.5-.6-1.1-.9-1.9-.9-.5 0-.9.1-1.2.3-.4.2-.7.4-.9.7-.2.3-.4.6-.6 1-.1.4-.2.8-.3 1.1h5.6zM841.2 123.4c-.6 2.1-1.2 4.1-2 6-.8 1.9-1.5 3.7-2.2 5.2h-1.8c-.7-1.5-1.4-3.3-2.2-5.2-.8-1.9-1.4-3.9-2-6h2.2c.2.7.4 1.5.6 2.3.2.8.5 1.6.8 2.4.3.8.5 1.5.8 2.3.3.7.5 1.4.8 2 .2-.6.5-1.2.8-2 .3-.7.5-1.5.8-2.3.3-.8.5-1.6.8-2.4.2-.8.4-1.6.6-2.3h2zM842.3 128.8c0-1 .1-1.9.4-2.6.3-.7.7-1.4 1.1-1.8.5-.5 1-.9 1.6-1.1.6-.2 1.3-.4 1.9-.4 1.5 0 2.7.5 3.5 1.4.8.9 1.2 2.4 1.2 4.3v.7h-7.7c.1 1.2.4 2.1 1 2.7.6.6 1.5.9 2.8.9.7 0 1.3-.1 1.8-.2s.8-.2 1.1-.4l.3 1.7c-.2.1-.7.3-1.3.4-.6.1-1.3.2-2.1.2-1 0-1.8-.1-2.5-.4-.7-.3-1.3-.7-1.8-1.2s-.8-1.1-1-1.8c-.2-.8-.3-1.6-.3-2.4zm7.7-1.1c0-.9-.2-1.7-.7-2.2-.5-.6-1.1-.9-1.9-.9-.5 0-.9.1-1.2.3-.4.2-.7.4-.9.7-.2.3-.4.6-.6 1-.1.4-.2.8-.3 1.1h5.6zM858.2 134.7c-1.2 0-2.1-.3-2.6-.8s-.8-1.3-.8-2.4V118l2-.3v13.5c0 .3 0 .6.1.8.1.2.2.4.3.5.1.1.3.2.5.3.2.1.5.1.8.2l-.3 1.7zM870.6 128.8c0 .9-.1 1.7-.4 2.4-.3.7-.6 1.3-1.1 1.9-.5.5-1 .9-1.7 1.2-.6.3-1.4.4-2.1.4-.8 0-1.5-.1-2.1-.4-.6-.3-1.2-.7-1.7-1.2s-.8-1.1-1.1-1.9c-.3-.7-.4-1.5-.4-2.4 0-.9.1-1.7.4-2.4.3-.7.6-1.4 1.1-1.9.5-.5 1-.9 1.7-1.2.6-.3 1.4-.4 2.1-.4.8 0 1.5.1 2.1.4.6.3 1.2.7 1.7 1.2s.8 1.1 1.1 1.9c.2.7.4 1.5.4 2.4zm-2.1 0c0-1.3-.3-2.3-.9-3-.6-.7-1.3-1.1-2.3-1.1-1 0-1.8.4-2.3 1.1-.6.7-.9 1.7-.9 3s.3 2.3.9 3c.6.7 1.3 1.1 2.3 1.1 1 0 1.8-.4 2.3-1.1.6-.8.9-1.8.9-3zM883.2 129.1c0 .9-.1 1.6-.3 2.4s-.6 1.3-1 1.9c-.4.5-1 .9-1.6 1.2-.6.3-1.3.4-2.1.4-.6 0-1.2-.1-1.7-.3-.5-.2-.9-.3-1.1-.5v4.5h-2v-14.9c.5-.1 1.1-.2 1.8-.4.7-.1 1.5-.2 2.5-.2.9 0 1.6.1 2.3.4.7.3 1.3.7 1.8 1.2s.9 1.1 1.1 1.8c.2.7.3 1.5.3 2.5zm-2.1 0c0-1.3-.3-2.3-1-3-.6-.7-1.5-1.1-2.6-1.1-.6 0-1.1 0-1.4.1-.3 0-.6.1-.8.2v7.1c.2.2.6.4 1.1.6.5.2 1 .3 1.5.3.6 0 1.1-.1 1.5-.3.4-.2.7-.5 1-.9.3-.4.4-.8.6-1.3 0-.6.1-1.2.1-1.7zM885.9 123.7c.5-.1 1.1-.2 1.8-.4.8-.1 1.6-.2 2.6-.2.7 0 1.3.1 1.8.3.5.2.9.5 1.2.9.1-.1.3-.2.5-.3.2-.1.5-.3.8-.4.3-.1.7-.2 1.1-.3.4-.1.8-.1 1.3-.1.9 0 1.6.1 2.1.4.5.3 1 .6 1.3 1.1.3.5.5 1 .6 1.6.1.6.2 1.3.2 2.1v6.3h-2v-5.9c0-.7 0-1.2-.1-1.7s-.2-.9-.4-1.2c-.2-.3-.4-.5-.7-.7-.3-.2-.7-.2-1.2-.2-.7 0-1.2.1-1.7.3-.4.2-.7.3-.9.5l.3 1.2c.1.4.1.9.1 1.4v6.3h-2v-5.9c0-.7 0-1.2-.1-1.7s-.2-.9-.4-1.2c-.2-.3-.4-.5-.7-.7-.3-.2-.7-.2-1.2-.2h-.6c-.2 0-.5 0-.7.1-.2 0-.4 0-.6.1-.2 0-.3 0-.3.1v9.5h-2v-11.1zM903.8 128.8c0-1 .1-1.9.4-2.6.3-.7.7-1.4 1.1-1.8.5-.5 1-.9 1.6-1.1.6-.2 1.3-.4 1.9-.4 1.5 0 2.7.5 3.5 1.4.8.9 1.2 2.4 1.2 4.3v.7h-7.7c.1 1.2.4 2.1 1 2.7.6.6 1.5.9 2.8.9.7 0 1.3-.1 1.8-.2s.8-.2 1.1-.4l.3 1.7c-.2.1-.7.3-1.3.4-.6.1-1.3.2-2.1.2-1 0-1.8-.1-2.5-.4-.7-.3-1.3-.7-1.8-1.2s-.8-1.1-1-1.8c-.2-.8-.3-1.6-.3-2.4zm7.7-1.1c0-.9-.2-1.7-.7-2.2-.5-.6-1.1-.9-1.9-.9-.5 0-.9.1-1.2.3-.4.2-.7.4-.9.7-.2.3-.4.6-.6 1-.1.4-.2.8-.3 1.1h5.6zM916.4 123.7c.5-.1 1.1-.2 1.8-.4.8-.1 1.6-.2 2.6-.2.9 0 1.6.1 2.2.4.6.3 1.1.6 1.4 1.1.4.5.6 1 .7 1.6.1.6.2 1.3.2 2.1v6.3h-2v-5.9c0-.7 0-1.3-.1-1.8s-.2-.9-.5-1.2c-.2-.3-.5-.5-.9-.7-.4-.1-.8-.2-1.3-.2h-.7c-.2 0-.5 0-.7.1-.2 0-.4 0-.6.1-.2 0-.3 0-.4.1v9.5h-2v-10.9zM930.5 123.2h4.3v1.7h-4.3v5.2c0 .6 0 1 .1 1.4.1.4.2.7.4.9.2.2.4.4.6.4.3.1.6.1.9.1.6 0 1.1-.1 1.5-.2.4-.1.6-.2.8-.3l.4 1.7c-.2.1-.6.2-1.1.4-.5.2-1.1.2-1.7.2-.8 0-1.4-.1-1.9-.3-.5-.2-.9-.5-1.2-.9-.3-.4-.5-.9-.6-1.4-.1-.6-.2-1.2-.2-2v-10l2-.3v3.4zM942.3 134.7v-15h9v1.8h-6.9v4.5h6.2v1.8h-6.2v6.9h-2.1zM962 134.1c-.5.1-1.1.2-1.8.4-.8.1-1.6.2-2.6.2-.9 0-1.6-.1-2.2-.4-.6-.2-1.1-.6-1.4-1.1-.4-.5-.6-1-.8-1.6-.2-.6-.2-1.3-.2-2.1v-6.3h2v5.9c0 1.4.2 2.3.6 2.9.4.6 1.2.9 2.2.9h.7c.2 0 .4 0 .6-.1.2 0 .4 0 .6-.1.2 0 .3 0 .4-.1v-9.5h2v11zM965.4 123.7c.5-.1 1.1-.2 1.8-.4.8-.1 1.6-.2 2.6-.2.9 0 1.6.1 2.2.4.6.3 1.1.6 1.4 1.1.4.5.6 1 .7 1.6.1.6.2 1.3.2 2.1v6.3h-2v-5.9c0-.7 0-1.3-.1-1.8s-.2-.9-.5-1.2c-.2-.3-.5-.5-.9-.7-.4-.1-.8-.2-1.3-.2h-.7c-.2 0-.5 0-.7.1-.2 0-.4 0-.6.1-.2 0-.3 0-.4.1v9.5h-2v-10.9zM984.9 118l2-.3v16.4c-.5.1-1.1.3-1.8.4-.7.1-1.5.2-2.5.2-.9 0-1.6-.1-2.3-.4-.7-.3-1.3-.7-1.8-1.2s-.9-1.1-1.1-1.8c-.3-.7-.4-1.5-.4-2.5 0-.9.1-1.7.3-2.4.2-.7.6-1.3 1-1.9.4-.5 1-.9 1.6-1.2.6-.3 1.3-.4 2.2-.4.6 0 1.2.1 1.7.3.5.2.9.3 1.1.5V118zm0 7.5c-.2-.2-.6-.4-1.1-.6-.5-.2-1-.3-1.5-.3-.6 0-1.1.1-1.5.3-.4.2-.7.5-1 .9-.3.4-.4.8-.6 1.3-.1.5-.2 1-.2 1.6 0 1.3.3 2.3 1 3 .6.7 1.5 1.1 2.6 1.1.5 0 1 0 1.4-.1.4-.1.7-.1.9-.2v-7z"/><g><path d="M752.6 77.9V55.3h14.6v3.5h-10.4v5.6h9.3v3.4h-9.3v6.6H768v3.5h-15.4zM784.9 77.1c-.8.2-1.8.4-3 .6-1.2.2-2.6.3-4 .3s-2.5-.2-3.5-.6c-.9-.4-1.7-.9-2.2-1.6-.6-.7-1-1.5-1.2-2.5-.2-1-.4-2-.4-3.2v-9.6h4v9c0 1.8.3 3.1.8 3.9.5.8 1.5 1.2 2.8 1.2.5 0 1 0 1.5-.1.5 0 .9-.1 1.2-.2V60.5h4v16.6zM799.5 64.4c-.3-.1-.8-.2-1.4-.3-.6-.1-1.3-.2-2-.2-.4 0-.9 0-1.4.1-.5.1-.8.2-1 .2v13.7h-4V61.6c.8-.3 1.7-.6 2.9-.8 1.1-.2 2.4-.4 3.8-.4h.9c.3 0 .7.1 1 .1.3.1.7.1 1 .2.3.1.6.1.8.2l-.6 3.5zM818.2 68.9c0 1.4-.2 2.6-.6 3.7-.4 1.1-.9 2.1-1.7 2.8-.7.8-1.6 1.4-2.6 1.8-1 .4-2.1.7-3.4.7-1.2 0-2.3-.2-3.3-.7-1-.4-1.9-1-2.6-1.8-.7-.8-1.3-1.7-1.7-2.8-.4-1.1-.6-2.3-.6-3.7 0-1.4.2-2.6.6-3.7.4-1.1 1-2 1.7-2.8.7-.8 1.6-1.4 2.6-1.8 1-.4 2.1-.6 3.3-.6 1.2 0 2.3.2 3.3.6 1 .4 1.9 1 2.6 1.8.7.8 1.3 1.7 1.7 2.8.5 1.2.7 2.4.7 3.7zm-4 0c0-1.7-.4-3-1.1-4-.7-1-1.8-1.5-3.1-1.5s-2.3.5-3.1 1.5c-.7 1-1.1 2.3-1.1 4 0 1.7.4 3.1 1.1 4.1.7 1 1.8 1.5 3.1 1.5s2.3-.5 3.1-1.5c.7-1 1.1-2.3 1.1-4.1zM837.5 69.4c0 1.3-.2 2.5-.5 3.6s-.8 2-1.5 2.8c-.6.8-1.4 1.4-2.4 1.8-.9.4-2 .7-3.2.7-.8 0-1.5-.1-2.2-.3-.7-.2-1.2-.4-1.7-.7V84h-4V61.4c.8-.2 1.8-.4 3-.6 1.2-.2 2.4-.3 3.7-.3 1.4 0 2.6.2 3.6.6 1.1.4 2 1 2.7 1.8.8.8 1.3 1.7 1.7 2.8.6 1.1.8 2.3.8 3.7zm-4 .1c0-1.8-.4-3.1-1.2-4.1-.8-1-2.1-1.5-3.8-1.5h-1.2c-.4 0-.8.1-1.2.2v9.8c.3.2.8.5 1.4.7.6.2 1.2.3 1.8.3 1.4 0 2.5-.5 3.2-1.5.6-1 1-2.3 1-3.9zM840.5 69.1c0-1.5.2-2.8.7-4 .4-1.1 1-2.1 1.8-2.8.7-.8 1.6-1.3 2.6-1.7 1-.4 1.9-.6 2.9-.6 2.4 0 4.2.7 5.5 2.2 1.3 1.5 2 3.6 2 6.5v1.4h-11.3c.1 1.4.6 2.4 1.5 3.2.9.8 2.1 1.1 3.7 1.1 1 0 1.8-.1 2.6-.3.8-.2 1.4-.4 1.9-.6l.5 3.2c-.2.1-.5.2-.9.3-.4.1-.8.2-1.3.3-.5.1-1 .2-1.6.2-.6.1-1.1.1-1.7.1-1.5 0-2.8-.2-3.9-.7-1.1-.4-2-1.1-2.7-1.9-.7-.8-1.3-1.7-1.6-2.8-.5-.7-.7-1.8-.7-3.1zm11.5-1.8c0-.5-.1-1.1-.2-1.6-.2-.5-.4-.9-.7-1.3-.3-.4-.7-.6-1.1-.9-.4-.2-.9-.3-1.5-.3s-1.1.1-1.6.3c-.5.2-.8.5-1.2.9-.3.4-.6.8-.7 1.3-.2.5-.3 1-.4 1.5h7.4zM865.6 60.1c1.3 0 2.4.2 3.3.5.9.3 1.6.8 2.1 1.4.5.6.9 1.3 1.1 2.1.2.8.3 1.8.3 2.8v10.4c-.6.1-1.5.3-2.8.5-1.2.2-2.6.3-4.2.3-1 0-2-.1-2.8-.3-.9-.2-1.6-.5-2.2-.9-.6-.4-1.1-1-1.4-1.7-.3-.7-.5-1.6-.5-2.6s.2-1.8.6-2.5c.4-.7.9-1.2 1.6-1.7.7-.4 1.4-.7 2.3-.9.9-.2 1.8-.3 2.7-.3.4 0 .9 0 1.4.1.5.1 1 .1 1.5.3v-.7c0-.5-.1-.9-.2-1.3s-.3-.8-.6-1.1c-.3-.3-.6-.6-1.1-.7-.4-.2-1-.3-1.7-.3-.9 0-1.8.1-2.5.2-.8.1-1.4.3-1.9.5l-.5-3.2c.5-.2 1.2-.3 2.2-.5s2.2-.4 3.3-.4zm.3 14.7c1.2 0 2.1-.1 2.8-.2v-4.4c-.2-.1-.5-.1-.9-.2s-.9-.1-1.4-.1c-.4 0-.9 0-1.3.1s-.9.2-1.2.4c-.4.2-.6.4-.9.7-.2.3-.3.7-.3 1.2 0 .9.3 1.6.9 1.9.5.5 1.3.6 2.3.6zM877.2 61.4c.8-.2 1.8-.4 3-.6 1.2-.2 2.6-.3 4.1-.3 1.4 0 2.6.2 3.5.6.9.4 1.7.9 2.2 1.6.6.7.9 1.5 1.2 2.5.2 1 .3 2 .3 3.2V78h-4v-9c0-.9-.1-1.7-.2-2.3-.1-.6-.3-1.2-.6-1.6-.3-.4-.6-.7-1.1-.9-.5-.2-1-.3-1.7-.3-.5 0-1 0-1.6.1-.5.1-.9.1-1.2.2V78h-4V61.4zM912.5 78c-1.5 0-2.9-.2-4-.7-1.1-.4-2-1.1-2.8-1.9-.7-.8-1.3-1.8-1.6-2.8-.3-1.1-.5-2.3-.5-3.6V54.8h4.2v13.8c0 1 .1 1.9.3 2.6.2.7.6 1.3 1 1.8s.9.8 1.5 1c.6.2 1.2.3 1.9.3s1.4-.1 2-.3c.6-.2 1.1-.6 1.5-1 .4-.5.8-1.1 1-1.8.2-.7.3-1.6.3-2.6V54.8h4.2V69c0 1.3-.2 2.5-.5 3.6-.4 1.1-.9 2-1.6 2.8-.7.8-1.7 1.4-2.8 1.9-1.2.5-2.5.7-4.1.7zM926.4 61.4c.8-.2 1.8-.4 3-.6 1.2-.2 2.6-.3 4.1-.3 1.4 0 2.6.2 3.5.6.9.4 1.7.9 2.2 1.6.6.7.9 1.5 1.2 2.5.2 1 .3 2 .3 3.2V78h-4v-9c0-.9-.1-1.7-.2-2.3-.1-.6-.3-1.2-.6-1.6-.3-.4-.6-.7-1.1-.9-.5-.2-1-.3-1.7-.3-.5 0-1 0-1.6.1-.5.1-.9.1-1.2.2V78h-4V61.4zM949.8 55.8c0 .7-.2 1.3-.7 1.8-.5.4-1 .7-1.7.7s-1.3-.2-1.7-.7c-.5-.4-.7-1-.7-1.8s.2-1.4.7-1.8c.5-.4 1.1-.7 1.7-.7.7 0 1.2.2 1.7.7.4.5.7 1.1.7 1.8zm-.4 22.1h-4V60.8h4v17.1zM969.7 68.9c0 1.4-.2 2.6-.6 3.7-.4 1.1-.9 2.1-1.7 2.8-.7.8-1.6 1.4-2.6 1.8-1 .4-2.1.7-3.4.7-1.2 0-2.3-.2-3.3-.7-1-.4-1.9-1-2.6-1.8-.7-.8-1.3-1.7-1.7-2.8-.4-1.1-.6-2.3-.6-3.7 0-1.4.2-2.6.6-3.7.4-1.1 1-2 1.7-2.8.7-.8 1.6-1.4 2.6-1.8 1-.4 2.1-.6 3.3-.6 1.2 0 2.3.2 3.3.6 1 .4 1.9 1 2.6 1.8.7.8 1.3 1.7 1.7 2.8.5 1.2.7 2.4.7 3.7zm-4.1 0c0-1.7-.4-3-1.1-4-.7-1-1.8-1.5-3.1-1.5s-2.3.5-3.1 1.5c-.7 1-1.1 2.3-1.1 4 0 1.7.4 3.1 1.1 4.1.7 1 1.8 1.5 3.1 1.5s2.3-.5 3.1-1.5c.8-1 1.1-2.3 1.1-4.1zM973.6 61.4c.8-.2 1.8-.4 3-.6 1.2-.2 2.6-.3 4.1-.3 1.4 0 2.6.2 3.5.6.9.4 1.7.9 2.2 1.6.6.7.9 1.5 1.2 2.5.2 1 .3 2 .3 3.2V78h-4v-9c0-.9-.1-1.7-.2-2.3-.1-.6-.3-1.2-.6-1.6-.3-.4-.6-.7-1.1-.9-.5-.2-1-.3-1.7-.3-.5 0-1 0-1.6.1s-.9.1-1.2.2V78h-4V61.4z"/></g><g><g id="XMLID_1312_"><g id="XMLID_1606_"><path id="XMLID_1610_" class="st0" d="M90.7 151.2l-60.5-11.3V49.1l60.5-18.9z"/><path id="XMLID_1609_" class="st1" d="M30.2 118.1V94.5c3 .8 6.4 1.2 8.7-.1 4.9-2.9 12.3-11.8 12.3-11.8s-3.9 9.6-2.4 13.2c1.6 3.7 10.8 4 10.8 4s-10.4 6.4-15.3 10.6c-5 4.3-8.5 20.1-8.5 20.1s-2.5-10.3-5.6-12.4"/><path id="XMLID_1608_" class="st2" d="M90.7 76.5c-2.1 1.3-4.1 2.4-5.7 2.7-4.8.9-10-4.7-10-4.7s1.2 8.2-1.8 13.2C69.9 93 59.6 99.6 59.6 99.6S71 97.4 73.2 101c2.4 3.8 2.7 17.1 2.7 17.1s5.8-16 11.1-18.1c1-.4 2.3-.8 3.7-1.2V76.5z"/><path id="XMLID_1607_" class="st3" d="M51.2 82.5s5.8-9.2 5.5-12.4c-.3-3.1-6.4-4.2-6.4-4.2s7.9-2 11.4-5.1c3.3-3 6.3-9.2 6.3-9.2s.7 5.2 3.7 5.9C74.8 58.3 83 55 83 55s-6.5 6.1-9 9.4c-2.8 3.5 1 10.1 1 10.1s-6.9-2.4-10.7-1.7c-3.8.8-13.1 9.7-13.1 9.7"/></g></g><path d="M120.9 75.6V52.9h14.6v3.5h-10.4V62h9.3v3.4h-9.3V72h11.2v3.5h-15.4zM153.2 74.7c-.8.2-1.8.4-3 .6-1.2.2-2.6.3-4 .3s-2.5-.2-3.5-.6c-.9-.4-1.7-.9-2.2-1.6-.6-.7-1-1.5-1.2-2.5-.2-1-.4-2-.4-3.2v-9.6h4v9c0 1.8.3 3.1.8 3.9.5.8 1.5 1.2 2.8 1.2.5 0 1 0 1.5-.1.5 0 .9-.1 1.2-.2V58.1h4v16.6zM167.8 62c-.3-.1-.8-.2-1.4-.3-.6-.1-1.3-.2-2-.2-.4 0-.9 0-1.4.1-.5.1-.8.2-1 .2v13.7h-4V59.3c.8-.3 1.7-.6 2.9-.8 1.1-.2 2.4-.4 3.8-.4.3 0 .6 0 .9.1.3 0 .7.1 1 .1.3.1.7.1 1 .2.3.1.6.1.8.2l-.6 3.3zM186.5 66.6c0 1.4-.2 2.6-.6 3.7-.4 1.1-1 2.1-1.7 2.8-.7.8-1.6 1.4-2.6 1.8-1 .4-2.1.7-3.4.7-1.2 0-2.3-.2-3.3-.7-1-.4-1.9-1-2.6-1.8-.7-.8-1.3-1.7-1.7-2.8-.4-1.1-.6-2.3-.6-3.7 0-1.4.2-2.6.6-3.7.4-1.1 1-2 1.7-2.8.7-.8 1.6-1.4 2.6-1.8 1-.4 2.1-.6 3.3-.6 1.2 0 2.3.2 3.3.6 1 .4 1.9 1 2.6 1.8.7.8 1.3 1.7 1.7 2.8.5 1.1.7 2.3.7 3.7zm-4 0c0-1.7-.4-3-1.1-4-.7-1-1.8-1.5-3.1-1.5s-2.3.5-3.1 1.5c-.7 1-1.1 2.3-1.1 4 0 1.7.4 3.1 1.1 4.1.7 1 1.8 1.5 3.1 1.5s2.3-.5 3.1-1.5c.7-1 1.1-2.4 1.1-4.1zM205.8 67.1c0 1.3-.2 2.5-.5 3.6s-.8 2-1.5 2.8c-.6.8-1.4 1.4-2.4 1.8-.9.4-2 .7-3.2.7-.8 0-1.6-.1-2.2-.3-.7-.2-1.2-.4-1.7-.7v6.6h-4V59c.8-.2 1.8-.4 3-.6 1.2-.2 2.4-.3 3.7-.3 1.4 0 2.6.2 3.6.6 1.1.4 2 1 2.7 1.8.8.8 1.3 1.7 1.7 2.8.6 1.1.8 2.4.8 3.8zm-4 0c0-1.8-.4-3.1-1.2-4.1-.8-1-2.1-1.5-3.8-1.5h-1.2c-.4 0-.8.1-1.2.2v9.8c.3.2.8.5 1.4.7.6.2 1.2.3 1.9.3 1.4 0 2.5-.5 3.2-1.5.6-.9.9-2.2.9-3.9zM208.8 66.7c0-1.5.2-2.8.7-4 .4-1.1 1-2.1 1.8-2.8.7-.8 1.6-1.3 2.6-1.7 1-.4 1.9-.6 2.9-.6 2.4 0 4.2.7 5.5 2.2 1.3 1.5 2 3.6 2 6.5v1.4H213c.1 1.4.6 2.4 1.5 3.2.9.8 2.1 1.1 3.7 1.1 1 0 1.8-.1 2.6-.3.8-.2 1.4-.4 1.9-.6l.5 3.2c-.2.1-.5.2-.9.3-.4.1-.8.2-1.3.3-.5.1-1 .2-1.6.2-.6.1-1.1.1-1.7.1-1.5 0-2.8-.2-3.9-.7-1.1-.4-2-1.1-2.7-1.9-.7-.8-1.3-1.7-1.6-2.8-.5-.6-.7-1.8-.7-3.1zm11.5-1.7c0-.5-.1-1.1-.2-1.6-.2-.5-.4-.9-.7-1.3-.3-.4-.7-.6-1.1-.9-.4-.2-.9-.3-1.5-.3s-1.1.1-1.6.3c-.5.2-.8.5-1.2.9-.3.4-.6.8-.7 1.3-.2.5-.3 1-.4 1.5h7.4zM233.9 57.7c1.3 0 2.4.2 3.3.5.9.3 1.6.8 2.1 1.4.5.6.9 1.3 1.1 2.1.2.8.3 1.8.3 2.8v10.4c-.6.1-1.5.3-2.8.5-1.2.2-2.6.3-4.2.3-1 0-2-.1-2.8-.3-.9-.2-1.6-.5-2.2-.9-.6-.4-1.1-1-1.4-1.7-.3-.7-.5-1.6-.5-2.6s.2-1.8.6-2.5c.4-.7.9-1.2 1.6-1.7.7-.4 1.4-.7 2.3-.9.9-.2 1.8-.3 2.7-.3.4 0 .9 0 1.4.1.5.1 1 .1 1.5.3v-.7c0-.5-.1-.9-.2-1.3s-.3-.8-.6-1.1c-.3-.3-.6-.6-1.1-.7-.4-.2-1-.3-1.7-.3-.9 0-1.8.1-2.5.2-.8.1-1.4.3-1.9.5l-.5-3.2c.5-.2 1.2-.3 2.2-.5 1.2-.3 2.2-.4 3.3-.4zm.4 14.8c1.2 0 2.1-.1 2.8-.2v-4.4c-.2-.1-.5-.1-.9-.2s-.9-.1-1.4-.1c-.4 0-.9 0-1.3.1s-.9.2-1.2.4c-.4.2-.7.4-.9.7-.2.3-.3.7-.3 1.2 0 .9.3 1.6.9 1.9.5.4 1.3.6 2.3.6zM245.5 59c.8-.2 1.8-.4 3-.6 1.2-.2 2.6-.3 4.1-.3 1.4 0 2.6.2 3.5.6.9.4 1.7.9 2.2 1.6.6.7.9 1.5 1.2 2.5.2 1 .3 2 .3 3.2v9.6h-4v-9c0-.9-.1-1.7-.2-2.3-.1-.6-.3-1.2-.6-1.6-.3-.4-.6-.7-1.1-.9-.5-.2-1-.3-1.7-.3-.5 0-1 0-1.6.1-.5.1-.9.1-1.2.2v13.8h-4V59zM120.9 105.8V83.2h14.3v3.5H125v5.8h9.1V96H125v9.9h-4.1zM151.9 105c-.8.2-1.8.4-3 .6-1.2.2-2.6.3-4 .3s-2.5-.2-3.5-.6c-.9-.4-1.7-.9-2.2-1.6-.6-.7-1-1.5-1.2-2.5-.2-1-.4-2-.4-3.2v-9.6h4v9c0 1.8.3 3.1.8 3.9.5.8 1.5 1.2 2.8 1.2.5 0 1 0 1.5-.1.5 0 .9-.1 1.2-.2V88.4h4V105zM156.7 89.3c.8-.2 1.8-.4 3-.6 1.2-.2 2.6-.3 4.1-.3 1.4 0 2.6.2 3.5.6.9.4 1.7.9 2.2 1.6.6.7.9 1.5 1.2 2.5.2 1 .3 2 .3 3.2v9.6h-4v-9c0-.9-.1-1.7-.2-2.3-.1-.6-.3-1.2-.6-1.6-.3-.4-.6-.7-1.1-.9-.5-.2-1-.3-1.7-.3-.5 0-1 0-1.6.1-.5.1-.9.1-1.2.2v13.8h-4V89.3zM190.2 104.9c-.8.2-1.8.5-3 .7-1.2.2-2.4.3-3.7.3-1.4 0-2.6-.2-3.6-.6-1.1-.4-2-1-2.7-1.8-.8-.8-1.3-1.7-1.7-2.8-.4-1.1-.6-2.3-.6-3.7 0-1.4.2-2.6.5-3.7s.8-2 1.5-2.8c.7-.8 1.5-1.4 2.4-1.8.9-.4 2-.6 3.2-.6.8 0 1.6.1 2.2.3.6.2 1.2.4 1.6.7V84l4-.7v21.6zm-11.4-8.1c0 1.7.4 3.1 1.2 4.1.8 1 2 1.5 3.4 1.5.6 0 1.2 0 1.6-.1.4-.1.8-.1 1.1-.2v-9.8c-.4-.2-.8-.5-1.4-.7-.6-.2-1.2-.3-1.8-.3-1.4 0-2.5.5-3.2 1.5-.6 1-.9 2.4-.9 4zM199.3 102.6c1 0 1.8-.1 2.3-.4.5-.2.7-.7.7-1.3 0-.6-.3-1-.8-1.4-.5-.4-1.4-.8-2.5-1.2-.7-.3-1.4-.5-2-.8-.6-.3-1.1-.6-1.6-1-.4-.4-.8-.9-1-1.4-.3-.6-.4-1.2-.4-2 0-1.6.6-2.8 1.7-3.7 1.2-.9 2.7-1.4 4.7-1.4 1 0 2 .1 2.9.3.9.2 1.6.4 2.1.5l-.7 3.2c-.4-.2-1-.4-1.7-.5-.7-.2-1.5-.2-2.4-.2-.8 0-1.5.1-2 .4-.5.3-.8.7-.8 1.3 0 .3 0 .5.1.8.1.2.3.4.5.6.2.2.6.4.9.6.4.2.9.4 1.4.6.9.3 1.7.7 2.4 1a5 5 0 0 1 1.6 1.1c.4.4.7.9.9 1.5.2.5.3 1.2.3 2 0 1.6-.6 2.9-1.8 3.7-1.2.8-2.9 1.3-5.2 1.3-1.5 0-2.7-.1-3.6-.4-.9-.2-1.6-.5-1.9-.6l.7-3.3c.6.2 1.3.5 2.1.7 1.1-.1 2.1 0 3.1 0z"/><g><path d="M124.4 134.3c2.2 0 3.3-.8 3.3-2.2 0-.5-.1-.9-.3-1.2-.2-.3-.5-.6-.8-.8-.3-.2-.7-.4-1.1-.6-.4-.2-.9-.3-1.3-.5-.5-.2-1.1-.4-1.6-.6-.5-.2-.9-.5-1.3-.8-.4-.3-.6-.7-.9-1.2-.2-.4-.3-1-.3-1.6 0-1.3.4-2.3 1.3-3.1.9-.7 2.1-1.1 3.7-1.1.9 0 1.7.1 2.5.3.7.2 1.3.4 1.6.6l-.7 1.7c-.3-.2-.8-.4-1.3-.6-.6-.2-1.3-.3-2.1-.3-.4 0-.8 0-1.1.1-.3.1-.6.2-.9.4-.3.2-.5.4-.6.7-.2.3-.2.6-.2.9 0 .4.1.7.2 1 .2.3.4.5.7.7.3.2.6.4 1 .6.4.2.8.3 1.3.5.6.3 1.2.5 1.8.8.5.3 1 .6 1.4.9.4.4.7.8.9 1.3.2.5.3 1.1.3 1.8 0 1.3-.5 2.3-1.4 3-1 .7-2.3 1.1-4.1 1.1-.6 0-1.1 0-1.6-.1s-.9-.2-1.3-.3c-.4-.1-.7-.2-1-.3-.3-.1-.5-.2-.7-.3l.6-1.7c.3.2.8.4 1.5.6.7.2 1.6.3 2.5.3zM132.2 125.2c.5-.1 1.1-.2 1.8-.4.8-.1 1.6-.2 2.6-.2.7 0 1.3.1 1.8.3.5.2.9.5 1.2.9.1-.1.3-.2.5-.3.2-.1.5-.3.8-.4.3-.1.7-.2 1.1-.3.4-.1.8-.1 1.3-.1.9 0 1.6.1 2.1.4.5.3 1 .6 1.3 1.1.3.5.5 1 .6 1.6.1.6.2 1.3.2 2.1v6.3h-2v-5.9c0-.7 0-1.2-.1-1.7s-.2-.9-.4-1.2c-.2-.3-.4-.6-.7-.7-.3-.2-.7-.2-1.2-.2-.7 0-1.2.1-1.7.3-.4.2-.7.3-.9.5l.3 1.2c.1.4.1.9.1 1.4v6.3h-2v-5.9c0-.7 0-1.2-.1-1.7s-.2-.9-.4-1.2-.4-.6-.7-.7c-.3-.2-.7-.2-1.2-.2h-.6c-.2 0-.5 0-.7.1-.2 0-.4 0-.6.1-.2 0-.3 0-.3.1v9.5h-2v-11.1zM154.3 124.4c.8 0 1.5.1 2 .3.6.2 1 .5 1.3.9.3.4.6.8.7 1.4.1.5.2 1.1.2 1.7v7c-.2 0-.4.1-.7.1-.3.1-.7.1-1 .1-.4 0-.8.1-1.3.1s-.9.1-1.4.1c-.6 0-1.2-.1-1.7-.2s-1-.3-1.4-.6c-.4-.3-.7-.7-.9-1.1-.2-.5-.3-1-.3-1.7 0-.6.1-1.2.4-1.6.3-.4.6-.8 1-1.1.4-.3.9-.5 1.5-.6.6-.1 1.2-.2 1.8-.2h.6c.2 0 .4 0 .6.1.2 0 .4.1.5.1.1 0 .2.1.3.1v-.6c0-.3 0-.7-.1-1-.1-.3-.2-.6-.4-.9-.2-.3-.4-.5-.8-.6-.3-.2-.7-.2-1.3-.2-.7 0-1.2 0-1.7.1s-.9.2-1.1.3l-.2-1.7c.3-.1.7-.2 1.3-.3h2.1zm.2 10h1.3c.4 0 .7-.1.9-.1V131c-.1-.1-.4-.1-.7-.2-.3-.1-.7-.1-1.2-.1-.3 0-.6 0-1 .1-.3 0-.6.1-.9.3-.3.1-.5.3-.7.6-.2.2-.3.6-.3.9 0 .7.2 1.2.7 1.5.5.2 1.1.3 1.9.3zM166 124.6h.6c.2 0 .4.1.7.1.2 0 .4.1.6.1.2 0 .3.1.4.1l-.3 1.8c-.2-.1-.4-.1-.8-.2s-.8-.1-1.4-.1c-.4 0-.7 0-1.1.1-.4.1-.6.1-.7.2v9.4h-2v-10.8c.5-.2 1.1-.3 1.8-.5.6-.1 1.3-.2 2.2-.2zM172 124.6h4.3v1.7H172v5.2c0 .6 0 1 .1 1.4.1.4.2.7.4.9.2.2.4.4.6.4.3.1.6.1.9.1.6 0 1.1-.1 1.5-.2.4-.1.6-.2.8-.3l.4 1.7c-.2.1-.6.2-1.1.4-.5.2-1.1.2-1.7.2-.8 0-1.4-.1-1.9-.3-.5-.2-.9-.5-1.2-.9-.3-.4-.5-.9-.6-1.4-.1-.6-.2-1.2-.2-2v-10l2-.3v3.4zM192.8 128.4h2.1v7c-.2.1-.4.1-.7.2-.3.1-.7.1-1.1.2-.4.1-.9.1-1.4.2-.5.1-1 .1-1.5.1-1.1 0-2-.2-2.9-.5-.9-.3-1.6-.8-2.2-1.5-.6-.7-1.1-1.5-1.4-2.4-.3-1-.5-2.1-.5-3.3 0-1.2.2-2.4.6-3.3.4-1 .9-1.8 1.5-2.5s1.4-1.2 2.3-1.5c.9-.3 1.8-.5 2.8-.5.7 0 1.3 0 1.8.1s1 .2 1.4.3c.4.1.7.2.9.3.2.1.4.2.5.3l-.7 1.8c-.4-.3-1-.5-1.7-.7-.7-.2-1.4-.3-2.1-.3-.8 0-1.5.1-2.1.4-.6.3-1.2.7-1.6 1.2-.4.5-.8 1.1-1 1.9-.2.7-.4 1.6-.4 2.5 0 .9.1 1.7.3 2.4.2.7.5 1.4 1 1.9.4.5 1 .9 1.6 1.2.6.3 1.4.4 2.2.4.6 0 1.1 0 1.5-.1.4-.1.7-.1.9-.2v-5.6zM202.1 124.6h.6c.2 0 .4.1.7.1.2 0 .4.1.6.1.2 0 .3.1.4.1l-.3 1.8c-.2-.1-.4-.1-.8-.2s-.8-.1-1.4-.1c-.4 0-.7 0-1.1.1-.4.1-.6.1-.7.2v9.4h-2v-10.8c.5-.2 1.1-.3 1.8-.5.6-.1 1.3-.2 2.2-.2zM216.1 130.2c0 .9-.1 1.7-.4 2.4-.3.7-.6 1.3-1.1 1.9-.5.5-1 .9-1.7 1.2-.6.3-1.4.4-2.1.4-.8 0-1.5-.1-2.1-.4-.6-.3-1.2-.7-1.7-1.2s-.8-1.1-1.1-1.9c-.3-.7-.4-1.5-.4-2.4 0-.9.1-1.7.4-2.4.3-.7.6-1.3 1.1-1.9.5-.5 1-.9 1.7-1.2.6-.3 1.4-.4 2.1-.4.8 0 1.5.1 2.1.4.6.3 1.2.7 1.7 1.2s.8 1.1 1.1 1.9c.3.7.4 1.5.4 2.4zm-2.1 0c0-1.3-.3-2.3-.9-3-.6-.7-1.3-1.1-2.3-1.1-1 0-1.8.4-2.3 1.1-.6.7-.9 1.7-.9 3s.3 2.3.9 3c.6.7 1.3 1.1 2.3 1.1 1 0 1.8-.4 2.3-1.1.6-.7.9-1.7.9-3zM227.7 136.1c-.4-1-.8-2.2-1.3-3.6-.5-1.3-.9-2.7-1.2-4.2l-1.2 4.2c-.4 1.3-.9 2.5-1.3 3.6H221c-.7-1.5-1.3-3.2-1.9-5.1-.6-1.9-1.2-4-1.8-6.2h2.2c.1.7.3 1.4.5 2.2l.6 2.4c.2.8.5 1.6.7 2.3.2.7.5 1.4.7 1.9.2-.7.5-1.4.7-2.2.2-.8.5-1.5.7-2.3.2-.8.4-1.5.6-2.3.2-.7.4-1.4.5-2.1h1.7c.1.6.3 1.3.5 2.1.2.7.4 1.5.6 2.3.2.8.4 1.5.7 2.3.2.8.5 1.5.7 2.2.2-.5.4-1.2.7-1.9.2-.7.5-1.5.7-2.3l.6-2.4c.2-.8.4-1.5.5-2.2h2.1c-.6 2.2-1.2 4.3-1.8 6.2-.6 1.9-1.3 3.6-1.9 5.1h-1.9zM237.1 124.6h4.3v1.7h-4.3v5.2c0 .6 0 1 .1 1.4.1.4.2.7.4.9.2.2.4.4.6.4.3.1.6.1.9.1.6 0 1.1-.1 1.5-.2.4-.1.6-.2.8-.3l.4 1.7c-.2.1-.6.2-1.1.4-.5.2-1.1.2-1.7.2-.8 0-1.4-.1-1.9-.3-.5-.2-.9-.5-1.2-.9-.3-.4-.5-.9-.6-1.4-.1-.6-.2-1.2-.2-2v-10l2-.3v3.4zM243.8 136.1v-16.4l2-.3v5.7c.4-.1.8-.3 1.2-.3.4-.1.8-.1 1.3-.1.9 0 1.6.1 2.2.4.6.3 1.1.6 1.4 1.1.4.5.6 1 .7 1.6.1.6.2 1.3.2 2.1v6.3h-2v-5.9c0-.7 0-1.3-.1-1.8s-.2-.9-.5-1.2c-.2-.3-.5-.5-.9-.7-.4-.1-.8-.2-1.3-.2h-.7c-.2 0-.5.1-.7.1-.2 0-.4.1-.6.1-.2 0-.3.1-.4.1v9.3h-1.8z"/></g></g><g><path class="st3" d="M350.5 49.1H487v47.2H350.5z"/><path class="st4" d="M350.5 94.6H487v45.5H350.5z"/><path class="st5" d="M487 49.1H350.5v91H487v-91zm-.4 90.6H350.9V49.6h135.6v90.1z"/><g><path d="M635.6 85.7c.4 1.1.9 2.1 1.6 2.9.7.8 1.6 1.5 2.7 1.9 1.1.5 2.4.7 3.9.7 1 0 1.9-.1 2.8-.3.9-.2 1.6-.4 2-.6L648 87c-.5.2-1.1.4-1.7.5-.7.1-1.4.2-2 .2-1.9 0-3.2-.5-4-1.5-.8-1-1.2-2.4-1.2-4.1 0-1.8.4-3.2 1.2-4.2.8-1 2-1.5 3.6-1.5.7 0 1.3.1 1.9.2.6.1 1.1.3 1.6.5l.9-3.3c-1.5-.6-3-.9-4.7-.9-1.3 0-2.5.2-3.6.7-1.1.5-2 1.1-2.7 1.9-.7.8-1.3 1.8-1.7 2.9-.4 1.1-.6 2.3-.6 3.6.1 1.4.3 2.6.6 3.7m-5-19.4c-.5-.4-1.1-.7-1.7-.7-.7 0-1.3.2-1.8.7-.5.4-.7 1.1-.7 1.8 0 .8.2 1.4.7 1.8.5.4 1.1.7 1.8.7s1.3-.2 1.7-.7c.5-.4.7-1 .7-1.8 0-.7-.2-1.3-.7-1.8m.3 7h-4.1v17.5h4.1V73.3zm-7.4 14.5c-.5-.1-1-.2-1.3-.3-.3-.1-.6-.3-.8-.5-.2-.2-.3-.5-.4-.9-.1-.3-.1-.7-.1-1.2V64.8l-4.1.7v20.2c0 .9.1 1.6.3 2.3.2.7.5 1.3 1 1.7.5.5 1.1.8 1.9 1.1.8.2 1.8.4 3 .4l.5-3.4zm-11.3-9.5c-.3-1.1-.8-2.1-1.5-2.9-.6-.8-1.5-1.4-2.4-1.9-1-.4-2.1-.7-3.3-.7-.8 0-1.6.1-2.3.3-.7.2-1.3.4-1.7.7v-9.1l-4.1.7v24.8c.8.2 1.8.5 3 .7 1.2.2 2.5.3 3.8.3 1.4 0 2.6-.2 3.7-.6 1.1-.4 2-1 2.8-1.8.8-.8 1.4-1.8 1.8-2.9.4-1.1.6-2.4.6-3.8.1-1.4-.1-2.6-.4-3.8m-4.9 7.9c-.8 1-2 1.5-3.5 1.5-.6 0-1.2 0-1.7-.1s-.8-.1-1.1-.2v-10c.4-.2.8-.5 1.4-.7.6-.2 1.2-.3 1.9-.3 1.5 0 2.6.5 3.2 1.5.7 1 1 2.4 1 4.1 0 1.8-.4 3.2-1.2 4.2m-15.6-12.9h-4.1v14.2c-.3.1-.7.1-1.2.2-.5 0-1.1.1-1.6.1-1.4 0-2.3-.4-2.9-1.2-.5-.8-.8-2.1-.8-4v-9.2H577v9.8c0 1.2.1 2.3.4 3.3.2 1 .7 1.8 1.2 2.6.6.7 1.3 1.3 2.3 1.7.9.4 2.1.6 3.5.6 1.5 0 2.9-.1 4.1-.3 1.2-.2 2.3-.4 3-.6V73.3zm-19.1 5c-.4-1.1-1-2.1-1.8-2.9-.8-.8-1.7-1.4-2.8-1.8-1.1-.4-2.3-.6-3.7-.6-1.3 0-2.6.1-3.8.3-1.2.2-2.2.4-3 .6V97h4.1v-6.8c.4.2 1 .5 1.7.7.7.2 1.5.3 2.3.3 1.2 0 2.3-.2 3.3-.7 1-.4 1.8-1.1 2.4-1.9.6-.8 1.1-1.8 1.5-2.9.3-1.1.5-2.3.5-3.7-.1-1.3-.3-2.6-.7-3.7m-4.6 7.9c-.7 1-1.8 1.5-3.2 1.5-.7 0-1.3-.1-1.9-.3-.6-.2-1.1-.4-1.4-.7v-10c.4-.1.8-.2 1.2-.2.4 0 .8-.1 1.2-.1 1.8 0 3.1.5 3.9 1.5.8 1 1.2 2.4 1.2 4.2 0 1.7-.3 3.1-1 4.1m-26.5-5.9c.1-.5.2-1 .4-1.5s.4-.9.8-1.3c.3-.4.7-.7 1.2-.9.5-.2 1-.4 1.6-.4.6 0 1.1.1 1.6.3.4.2.8.5 1.1.9.3.4.5.8.7 1.3.2.5.2 1 .2 1.6h-7.6zm-3.6 5.5c.4 1.1.9 2.1 1.6 2.9.7.8 1.7 1.5 2.8 1.9 1.1.5 2.5.7 4 .7.6 0 1.2 0 1.8-.1.6-.1 1.1-.2 1.6-.3.5-.1.9-.2 1.3-.3.4-.1.7-.2.9-.4l-.5-3.3c-.5.2-1.1.4-1.9.6-.8.2-1.7.3-2.7.3-1.7 0-3-.4-3.8-1.2-.9-.8-1.4-1.9-1.5-3.3h11.6c0-.2 0-.5.1-.8v-.8c0-3-.7-5.2-2-6.7s-3.2-2.2-5.6-2.2c-1 0-2 .2-3 .6-1 .4-1.9 1-2.6 1.7-.8.8-1.4 1.7-1.8 2.9-.5 1.2-.7 2.5-.7 4.1-.2 1.3 0 2.6.4 3.7M526 71.2c.7.1 1.3.3 1.8.6s.9.7 1.2 1.2c.3.5.4 1.1.4 1.8 0 .8-.1 1.4-.4 1.9-.3.5-.7.9-1.2 1.2-.5.3-1.2.5-2 .6-.8.1-1.7.2-2.7.2h-1.8v-7.5c.8-.1 1.6-.1 2.5-.1.8-.1 1.5 0 2.2.1m-5.7-3.7c-1.2.1-2.3.2-3.3.5v22.9h4.2V82H524.6c.4.5.9 1.1 1.4 1.8.5.7 1 1.4 1.5 2.2l1.5 2.4c.5.8.9 1.6 1.4 2.4h4.7c-.4-.9-.9-1.8-1.4-2.7-.5-.9-1.1-1.8-1.6-2.6-.6-.9-1.1-1.7-1.6-2.4s-1-1.4-1.4-1.9c3.1-1.1 4.7-3.2 4.7-6.4 0-2.5-.9-4.4-2.7-5.6-1.8-1.2-4.3-1.8-7.7-1.8-.9 0-1.9 0-3.1.1M661.6 98l-4.1.7v8.4c-.5-.2-1-.5-1.7-.7-.6-.2-1.4-.3-2.2-.3-1.3 0-2.4.2-3.3.7-1 .4-1.8 1.1-2.4 1.9-.7.8-1.2 1.8-1.5 2.9-.3 1.1-.5 2.4-.5 3.8s.2 2.7.6 3.8c.4 1.1 1 2.1 1.8 2.9.8.8 1.7 1.4 2.8 1.8 1.1.4 2.3.6 3.7.6 1.3 0 2.6-.1 3.8-.3 1.2-.2 2.2-.4 3-.7V98zM651 111.1c.7-1 1.8-1.5 3.2-1.5.7 0 1.3.1 1.9.3.6.2 1.1.4 1.4.7v10c-.3.1-.7.1-1.1.2-.5.1-1 .1-1.7.1-1.5 0-2.7-.5-3.5-1.5-.9-1-1.3-2.4-1.3-4.2.1-1.8.4-3.1 1.1-4.1M627.2 124h4.1v-14.1c.3 0 .7-.1 1.2-.2.6-.1 1.1-.1 1.6-.1.7 0 1.3.1 1.8.3.5.2.9.5 1.1.9.3.4.5.9.6 1.6.1.7.2 1.5.2 2.4v9.2h4.1v-9.8c0-1.2-.1-2.3-.4-3.3-.2-1-.6-1.8-1.2-2.5s-1.3-1.2-2.3-1.6c-1-.4-2.2-.6-3.6-.6-1.5 0-2.9.1-4.2.3-1.2.2-2.3.4-3 .6V124zM612 106.3c-1 .2-1.7.4-2.2.5l.5 3.3c.5-.2 1.1-.3 1.9-.5.8-.1 1.6-.2 2.6-.2.7 0 1.3.1 1.7.3.5.2.8.4 1.1.8.3.3.5.7.6 1.1.1.4.2.9.2 1.3v.7c-.6-.1-1.1-.2-1.6-.3-.5-.1-1-.1-1.4-.1-1 0-1.9.1-2.8.3-.9.2-1.7.5-2.3.9-.7.4-1.2 1-1.6 1.7-.4.7-.6 1.5-.6 2.5s.2 1.9.5 2.6c.3.7.8 1.3 1.4 1.7.6.4 1.4.8 2.2 1 .9.2 1.8.3 2.9.3 1.6 0 3-.1 4.3-.3 1.3-.2 2.2-.4 2.8-.5V113c0-1-.1-2-.4-2.8-.2-.9-.6-1.6-1.2-2.2-.5-.6-1.3-1.1-2.2-1.4-.9-.3-2-.5-3.4-.5-.9-.1-2 0-3 .2m1.1 14.3c-.6-.4-.9-1-.9-2 0-.5.1-.9.3-1.2.2-.3.5-.6.9-.8.4-.2.8-.3 1.2-.4.5-.1.9-.1 1.4-.1.5 0 1 0 1.4.1.4.1.7.1 1 .2v4.5c-.7.1-1.6.2-2.8.2-1.1 0-1.9-.2-2.5-.5m-7 .4c-.5-.1-1-.2-1.3-.3-.3-.1-.6-.3-.8-.5-.2-.2-.3-.5-.4-.9-.1-.3-.1-.7-.1-1.2V98l-4.1.7v20.2c0 .9.1 1.6.3 2.3.2.7.5 1.3 1 1.7.5.5 1.1.8 1.9 1.1.8.2 1.8.4 3 .4l.5-3.4zm-16.2-1.6c-.7 1-1.8 1.5-3.1 1.5s-2.4-.5-3.1-1.5c-.7-1-1.1-2.4-1.1-4.2 0-1.7.4-3.1 1.1-4.1.7-1 1.8-1.5 3.1-1.5s2.4.5 3.1 1.5c.7 1 1.1 2.4 1.1 4.1.1 1.8-.3 3.2-1.1 4.2m4.7-8c-.4-1.1-1-2.1-1.7-2.9-.7-.8-1.6-1.4-2.7-1.9-1-.4-2.2-.7-3.4-.7-1.2 0-2.4.2-3.4.7-1 .4-1.9 1.1-2.7 1.9-.7.8-1.3 1.8-1.7 2.9-.4 1.1-.6 2.4-.6 3.8s.2 2.6.6 3.8c.4 1.1 1 2.1 1.7 2.9.7.8 1.6 1.4 2.6 1.9 1 .4 2.2.7 3.4.7 1.3 0 2.4-.2 3.4-.7 1-.4 1.9-1.1 2.7-1.9.7-.8 1.3-1.8 1.7-2.9.4-1.1.6-2.4.6-3.8.1-1.4-.1-2.6-.5-3.8m-26.2-7c.7.1 1.3.3 1.8.6s.9.7 1.2 1.2c.3.5.4 1.2.4 1.9 0 1.6-.5 2.7-1.6 3.2-1.1.6-2.7.9-4.7.9h-2v-7.9c.7-.1 1.6-.1 2.6-.1.9 0 1.6 0 2.3.2m-5.8-3.8c-1.2.1-2.3.2-3.3.5V124h4.2v-8.2h2.1c1.7 0 3.2-.1 4.5-.4 1.3-.3 2.4-.7 3.3-1.4.9-.6 1.6-1.4 2.1-2.4s.7-2.1.7-3.5c0-2.6-.9-4.5-2.7-5.8-1.8-1.2-4.4-1.8-7.8-1.8-.8 0-1.9.1-3.1.1m-22.9-.7c-1.2 1.3-1.8 3.1-1.8 5.3V124h4.1v-14.1h6.4v-3.4H542v-1.2c0-.6.1-1.1.2-1.6s.3-.9.6-1.2c.3-.3.6-.6 1.1-.8.4-.2 1-.3 1.6-.3.6 0 1.1.1 1.6.2s.9.3 1.3.4l.8-3.3c-.4-.1-.9-.3-1.6-.5-.7-.2-1.5-.3-2.5-.3-2.5.1-4.2.7-5.4 2m-11.3 19.5c-.7 1-1.8 1.5-3.1 1.5s-2.4-.5-3.1-1.5c-.7-1-1.1-2.4-1.1-4.2 0-1.7.4-3.1 1.1-4.1.7-1 1.8-1.5 3.1-1.5s2.4.5 3.1 1.5c.7 1 1.1 2.4 1.1 4.1.1 1.8-.3 3.2-1.1 4.2m4.7-8c-.4-1.1-1-2.1-1.7-2.9-.7-.8-1.6-1.4-2.7-1.9-1-.4-2.2-.7-3.4-.7-1.2 0-2.4.2-3.4.7-1 .4-1.9 1.1-2.7 1.9-.7.8-1.3 1.8-1.7 2.9-.4 1.1-.6 2.4-.6 3.8s.2 2.6.6 3.8c.4 1.1 1 2.1 1.7 2.9.7.8 1.6 1.4 2.6 1.9 1 .4 2.2.7 3.4.7 1.3 0 2.4-.2 3.4-.7 1-.4 1.9-1.1 2.7-1.9.7-.8 1.3-1.8 1.7-2.9.4-1.1.6-2.4.6-3.8.1-1.4-.1-2.6-.5-3.8"/></g></g></g></svg>