<svg width="310" height="279" viewBox="0 0 310 279" fill="none" xmlns="http://www.w3.org/2000/svg">
<path d="M289.923 224.709C287.57 218.669 285.813 212.257 283.896 205.486C282.601 200.921 280.517 195.817 276.003 194.381C271.604 192.983 266.872 195.881 264.173 199.619C261.473 203.358 260.108 207.884 257.793 211.879C253.599 219.112 246.181 222.145 240.045 215.784C231.279 206.698 227.336 194.317 221.777 183.237C217.744 175.196 214.365 165.777 209.28 158.365C201.528 147.061 190.897 137.423 176.765 137.423C167.807 138.783 159.914 146.714 154.567 156.634C149.226 166.553 146.109 178.344 143.455 190.11C138.627 211.507 135.087 231.769 131.554 253.634C131.554 253.634 309.877 253.185 309.884 253.185C309.172 253.191 304.799 247.35 303.965 246.542C297.117 239.912 293.007 232.628 289.923 224.709Z" fill="#FF006E"/>
<path d="M256.074 234.904C255.722 241.836 248.181 253.954 241.25 253.608C234.319 253.262 230.619 240.573 230.972 233.641C231.324 226.71 238.704 192.021 245.636 192.368C252.567 192.714 256.427 227.973 256.074 234.904Z" fill="#EFAF3F"/>
<path d="M245.302 196.875L241.808 253.051" stroke="#2A294F" stroke-width="0.7798" stroke-miterlimit="10" stroke-linecap="round" stroke-linejoin="round"/>
<path d="M240.211 233.462C238.634 236.931 237.428 240.567 236.704 244.362C236.338 246.286 236.101 248.37 236.973 250.12C237.922 252.038 240.032 253.153 242.141 253.499C247.296 254.346 252.445 251.191 255.465 246.927C258.485 242.67 259.793 237.463 260.992 232.379C261.935 228.377 262.865 224.319 264.647 220.587C265.41 218.99 269.886 212.816 267.77 211.219C264.878 208.943 256.497 211.418 251.131 217.278C246.713 222.1 242.911 227.531 240.211 233.462Z" fill="#FFC957"/>
<path d="M242.141 253.493C242.141 253.493 248.361 229.275 263.384 215.387" stroke="#2A294F" stroke-width="0.7798" stroke-miterlimit="10" stroke-linecap="round" stroke-linejoin="round"/>
<path d="M276.65 227.749C276.118 228.705 275.118 229.352 274.214 229.865C273.098 230.493 271.905 231.045 270.758 231.584C269.283 232.27 267.757 232.981 266.346 233.866C265.32 234.514 264.403 235.238 263.64 236.021C264.852 233.27 266.263 230.872 267.93 228.724C270.123 225.903 272.373 224.473 274.624 224.473C274.675 224.473 274.727 224.473 274.778 224.473C275.477 224.492 276.015 224.665 276.387 224.986C277.15 225.64 277.118 226.903 276.65 227.749Z" fill="#FFC957"/>
<path d="M279.157 243.407C278.266 244.042 277.086 244.202 276.048 244.279C274.772 244.369 273.457 244.362 272.188 244.35C270.559 244.337 268.873 244.324 267.225 244.523C266.019 244.664 264.884 244.933 263.858 245.311C266.128 243.343 268.437 241.778 270.86 240.554C274.053 238.938 276.695 238.611 278.728 239.573C278.773 239.592 278.824 239.618 278.869 239.643C279.491 239.957 279.908 240.349 280.106 240.797C280.517 241.721 279.946 242.849 279.157 243.407Z" fill="#FFC957"/>
<path d="M273.233 251.114C272.495 251.012 271.829 250.537 271.277 250.088C270.597 249.537 269.95 248.915 269.322 248.319C268.514 247.549 267.686 246.754 266.77 246.081C266.103 245.587 265.41 245.19 264.724 244.895C266.776 244.978 268.655 245.28 270.437 245.812C272.778 246.504 274.252 247.581 274.81 249.011C274.823 249.043 274.836 249.075 274.849 249.114C275.009 249.563 275.035 249.947 274.926 250.268C274.695 250.909 273.88 251.204 273.233 251.114Z" fill="#FFC957"/>
<path d="M256.363 253.628C256.363 253.628 256.433 238.81 274.528 226.23" stroke="#2A294F" stroke-width="0.7798" stroke-miterlimit="10" stroke-linecap="round" stroke-linejoin="round"/>
<path d="M256.363 253.628C256.363 253.628 261.922 241.721 276.984 241.721" stroke="#2A294F" stroke-width="0.7798" stroke-miterlimit="10" stroke-linecap="round" stroke-linejoin="round"/>
<path d="M264.564 245.036C264.564 245.036 267.481 244.824 273.573 249.415" stroke="#2A294F" stroke-width="0.7798" stroke-miterlimit="10" stroke-linecap="round" stroke-linejoin="round"/>
<path d="M142 253.987C136.115 238.188 130.193 222.383 123.269 207.083C119.361 198.453 115.055 189.862 109.07 182.962C103.086 176.061 95.1601 170.968 87.1985 171C74.9402 172.685 67.0237 181.277 61.8333 190.797C58.4302 197.037 56.7783 204.597 54.3772 211.196C51.0644 220.281 49.3222 230.167 42.9584 238.111C38.4991 243.679 31.6478 242.256 27.0261 237.259C24.4806 234.498 22.6752 231.217 19.8228 228.7C16.9703 226.182 12.466 224.542 8.84623 226.131C5.11817 227.764 4.00788 231.89 3.50238 235.516C2.76219 240.892 2.10324 245.972 0.884622 250.848C0.622846 251.911 0.324963 252.956 0 254H142V253.987Z" fill="#FF006E"/>
<path d="M63.4656 231.936C60.8495 228.922 57.541 226.319 56.5022 222.517C55.7392 219.74 56.3419 216.797 56.6369 213.931C56.9318 211.065 56.8292 207.897 54.9762 205.692C53.4501 203.871 51.0328 203.082 48.7117 202.582C46.3906 202.082 43.9669 201.768 41.9086 200.588C38.5616 198.671 39.2284 195.407 37.4331 192.547C35.4197 189.335 30.7262 185.238 26.7123 187.373C22.4547 189.63 23.128 196.491 25.9621 199.517C27.8408 201.524 30.2453 203.454 30.521 206.185C30.9378 210.302 26.2186 214.014 27.5138 217.945C28.4756 220.85 32.1304 221.843 33.9385 224.312C35.7275 226.755 35.3684 230.173 34.3104 233.007C33.2589 235.841 31.5982 238.463 30.9442 241.419C29.6041 247.459 34.3425 251.64 39.7478 252.986C44.7106 254.224 55.4186 253.64 55.4186 253.64C59.2401 252.307 63.4784 248.947 65.5751 245.279C67.1653 242.509 67.3833 238.995 66.1522 236.046C65.5239 234.52 64.5556 233.193 63.4656 231.936Z" fill="#FFC957"/>
<path d="M31.4636 193.881C31.4636 193.881 49.7441 222.119 51.7318 253.474" stroke="#2A294F" stroke-width="0.7798" stroke-miterlimit="10" stroke-linecap="round" stroke-linejoin="round"/>
<path d="M15.1834 231.968C15.4656 231.724 15.8759 231.596 16.4017 231.583C16.4402 231.583 16.4786 231.583 16.5171 231.583C18.2163 231.583 19.9219 232.667 21.5762 234.802C22.8393 236.424 23.9037 238.239 24.8206 240.316C24.2435 239.726 23.551 239.175 22.7752 238.688C21.7108 238.021 20.5567 237.482 19.441 236.963C18.5689 236.559 17.6713 236.142 16.8249 235.661C16.1388 235.277 15.3822 234.783 14.9847 234.065C14.6256 233.423 14.6064 232.468 15.1834 231.968Z" fill="#FFC957"/>
<path d="M12.3687 243.926C12.5226 243.586 12.8368 243.291 13.3049 243.054C13.3369 243.035 13.3754 243.016 13.4075 243.003C14.9463 242.272 16.9469 242.522 19.3578 243.747C21.1916 244.676 22.9356 245.856 24.6476 247.344C23.8718 247.055 23.0126 246.856 22.1021 246.747C20.8517 246.6 19.5758 246.606 18.3447 246.613C17.3829 246.619 16.3954 246.626 15.4272 246.555C14.645 246.497 13.7473 246.375 13.0804 245.901C12.4905 245.478 12.0609 244.625 12.3687 243.926Z" fill="#FFC957"/>
<path d="M16.2864 251.082C16.203 250.845 16.2223 250.55 16.3441 250.21C16.3505 250.184 16.3633 250.158 16.3697 250.133C16.7929 249.049 17.9022 248.235 19.6783 247.709C21.0248 247.312 22.4483 247.081 24 247.017C23.4806 247.241 22.9548 247.542 22.4547 247.914C21.7622 248.427 21.1338 249.03 20.5247 249.607C20.0502 250.062 19.5629 250.53 19.0499 250.947C18.6332 251.287 18.133 251.646 17.5752 251.723C17.0751 251.794 16.4595 251.569 16.2864 251.082Z" fill="#FFC957"/>
<path d="M30.3223 253.627C30.3223 253.627 30.271 242.419 16.5879 232.91" stroke="#2A294F" stroke-width="0.7798" stroke-miterlimit="10" stroke-linecap="round" stroke-linejoin="round"/>
<path d="M30.3222 253.627C30.3222 253.627 26.1223 244.625 14.7283 244.625" stroke="#2A294F" stroke-width="0.7798" stroke-miterlimit="10" stroke-linecap="round" stroke-linejoin="round"/>
<path d="M24.1218 247.132C24.1218 247.132 21.916 246.972 17.3123 250.447" stroke="#2A294F" stroke-width="0.7798" stroke-miterlimit="10" stroke-linecap="round" stroke-linejoin="round"/>
<g clip-path="url(#clip0)">
<path d="M65.7686 40.9293C65.571 40.2966 65.4507 39.6421 65.4103 38.9803C65.3067 37.598 65.5727 36.2131 66.1809 34.9685C66.7891 33.724 67.7174 32.665 68.8699 31.901C70.0223 31.137 71.3571 30.6958 72.7364 30.6228C74.1156 30.5498 75.4893 30.8477 76.7154 31.4858C77.3023 30.2036 78.2299 29.1084 79.3963 28.3205C80.5627 27.5325 81.9228 27.0824 83.3274 27.0193C84.2304 27.0174 85.1292 27.1424 85.9977 27.3906C86.4349 26.3806 87.1453 25.5138 88.0483 24.8884C88.9514 24.263 90.011 23.904 91.1069 23.8522C92.6687 23.7681 94.2065 24.2648 95.4264 25.2472C96.6462 26.2296 97.4624 27.6288 97.7189 29.1772L99.1523 29.2584C100.314 29.4927 101.394 30.0287 102.285 30.813C103.584 31.9698 104.384 33.5881 104.516 35.3259V35.4651C105.247 35.1348 106.029 34.9308 106.828 34.8618L108.608 34.9546C110.045 35.2261 111.357 35.9529 112.351 37.0284C113.346 38.1038 113.971 39.4711 114.133 40.9293H65.7686Z" fill="white"/>
<path d="M212.482 64.4686V244.753C212.481 248.764 210.958 252.625 208.222 255.549C205.486 258.473 201.744 260.242 197.755 260.496C197.431 260.496 197.096 260.496 196.761 260.496H108.631C106.568 260.496 104.524 260.088 102.617 259.295C100.71 258.502 98.9781 257.339 97.5192 255.874C96.0604 254.409 94.9035 252.669 94.1147 250.755C93.3259 248.841 92.9207 246.79 92.9222 244.718V64.4686C92.9148 62.0864 93.453 59.7343 94.4952 57.594C95.5374 55.4538 97.0558 53.5825 98.9331 52.1248V239.927C98.9316 240.815 99.1049 241.696 99.443 242.517C99.7811 243.338 100.277 244.084 100.904 244.713C101.53 245.341 102.273 245.839 103.092 246.179C103.91 246.518 104.787 246.692 105.672 246.69H199.836C200.721 246.69 201.597 246.515 202.415 246.176C203.232 245.836 203.975 245.337 204.601 244.709C205.227 244.081 205.723 243.336 206.062 242.515C206.4 241.695 206.575 240.815 206.575 239.927V52.1248C207.685 52.9881 208.67 54.0034 209.499 55.1411C211.461 57.8506 212.506 61.1195 212.482 64.4686Z" fill="#292929"/>
<path d="M199.789 19.6875H105.614C104.342 19.686 103.081 19.9369 101.906 20.426C100.731 20.915 99.6631 21.6325 98.765 22.5371C97.8669 23.4417 97.1559 24.5156 96.6728 25.697C96.1898 26.8784 95.9442 28.144 95.9503 29.421V239.927C95.9534 242.498 96.9725 244.963 98.7841 246.781C100.596 248.6 103.052 249.622 105.614 249.626H199.789C201.884 249.615 203.918 248.921 205.586 247.649C207.254 246.377 208.465 244.595 209.036 242.572C209.284 241.712 209.408 240.822 209.406 239.927V29.421C209.416 26.8508 208.408 24.3819 206.605 22.5569C204.801 20.7318 202.35 19.6998 199.789 19.6875ZM206.528 239.927C206.533 240.816 206.361 241.698 206.024 242.521C205.687 243.343 205.191 244.091 204.564 244.72C203.938 245.349 203.193 245.847 202.373 246.185C201.554 246.523 200.675 246.695 199.789 246.69H105.614C103.836 246.678 102.135 245.96 100.883 244.692C99.6306 243.425 98.9295 241.712 98.9326 239.927V52.1248C101.694 49.8825 105.137 48.6545 108.689 48.6444H196.818C200.374 48.6547 203.82 49.8825 206.586 52.1248L206.528 239.927Z" fill="#292929"/>
<g style="mix-blend-mode:multiply" opacity="0.2">
<g style="mix-blend-mode:multiply" opacity="0.2">
<path d="M168.763 172.175H117.555C117.006 172.175 116.48 172.394 116.092 172.783C115.704 173.173 115.486 173.701 115.486 174.252C115.486 174.802 115.704 175.331 116.092 175.72C116.48 176.11 117.006 176.328 117.555 176.328H168.763C169.312 176.328 169.838 176.11 170.226 175.72C170.615 175.331 170.833 174.802 170.833 174.252C170.833 173.701 170.615 173.173 170.226 172.783C169.838 172.394 169.312 172.175 168.763 172.175Z" fill="#191D3F"/>
</g>
<g style="mix-blend-mode:multiply" opacity="0.2">
<path d="M191.408 172.175H175.468C174.919 172.175 174.393 172.394 174.005 172.783C173.617 173.173 173.399 173.701 173.399 174.252C173.399 174.802 173.617 175.331 174.005 175.72C174.393 176.11 174.919 176.328 175.468 176.328H191.408C191.957 176.328 192.483 176.11 192.871 175.72C193.259 175.331 193.477 174.802 193.477 174.252C193.477 173.701 193.259 173.173 192.871 172.783C192.483 172.394 191.957 172.175 191.408 172.175Z" fill="#191D3F"/>
</g>
</g>
<g style="mix-blend-mode:multiply" opacity="0.2">
<path d="M191.408 184.113H117.555C117.006 184.113 116.48 184.332 116.092 184.721C115.704 185.111 115.486 185.639 115.486 186.19C115.486 186.74 115.704 187.269 116.092 187.658C116.48 188.048 117.006 188.266 117.555 188.266H191.408C191.957 188.266 192.483 188.048 192.871 187.658C193.259 187.269 193.477 186.74 193.477 186.19C193.477 185.639 193.259 185.111 192.871 184.721C192.483 184.332 191.957 184.113 191.408 184.113Z" fill="#191D3F"/>
</g>
<g style="mix-blend-mode:multiply" opacity="0.2">
<g style="mix-blend-mode:multiply" opacity="0.2">
<path d="M168.763 194.311H117.555C117.283 194.311 117.014 194.364 116.763 194.469C116.512 194.573 116.284 194.726 116.092 194.919C115.9 195.112 115.747 195.341 115.643 195.592C115.539 195.844 115.486 196.114 115.486 196.387C115.486 196.66 115.539 196.93 115.643 197.182C115.747 197.434 115.9 197.663 116.092 197.856C116.284 198.048 116.512 198.201 116.763 198.306C117.014 198.41 117.283 198.464 117.555 198.464H168.763C169.312 198.464 169.838 198.245 170.226 197.856C170.615 197.466 170.833 196.938 170.833 196.387C170.833 195.836 170.615 195.308 170.226 194.919C169.838 194.529 169.312 194.311 168.763 194.311Z" fill="#191D3F"/>
</g>
</g>
<g style="mix-blend-mode:multiply" opacity="0.2">
<g style="mix-blend-mode:multiply" opacity="0.2">
<path d="M168.763 138.763H117.555C117.006 138.763 116.48 138.982 116.092 139.372C115.704 139.761 115.486 140.289 115.486 140.84C115.486 141.391 115.704 141.919 116.092 142.308C116.48 142.698 117.006 142.917 117.555 142.917H168.763C169.312 142.917 169.838 142.698 170.226 142.308C170.615 141.919 170.833 141.391 170.833 140.84C170.833 140.289 170.615 139.761 170.226 139.372C169.838 138.982 169.312 138.763 168.763 138.763Z" fill="#191D3F"/>
</g>
<g style="mix-blend-mode:multiply" opacity="0.2">
<path d="M191.408 138.763H175.468C174.919 138.763 174.393 138.982 174.005 139.372C173.617 139.761 173.399 140.289 173.399 140.84C173.399 141.391 173.617 141.919 174.005 142.308C174.393 142.698 174.919 142.917 175.468 142.917H191.408C191.957 142.917 192.483 142.698 192.871 142.308C193.259 141.919 193.477 141.391 193.477 140.84C193.477 140.289 193.259 139.761 192.871 139.372C192.483 138.982 191.957 138.763 191.408 138.763Z" fill="#191D3F"/>
</g>
</g>
<g style="mix-blend-mode:multiply" opacity="0.2">
<path d="M191.408 150.701H117.555C117.006 150.701 116.48 150.92 116.092 151.309C115.704 151.699 115.486 152.227 115.486 152.778C115.486 153.328 115.704 153.857 116.092 154.246C116.48 154.635 117.006 154.854 117.555 154.854H191.408C191.957 154.854 192.483 154.635 192.871 154.246C193.259 153.857 193.477 153.328 193.477 152.778C193.477 152.227 193.259 151.699 192.871 151.309C192.483 150.92 191.957 150.701 191.408 150.701Z" fill="#191D3F"/>
</g>
<g style="mix-blend-mode:multiply" opacity="0.2">
<g style="mix-blend-mode:multiply" opacity="0.2">
<path d="M168.763 160.91H117.555C117.006 160.91 116.48 161.129 116.092 161.519C115.704 161.908 115.486 162.436 115.486 162.987C115.486 163.538 115.704 164.066 116.092 164.455C116.48 164.845 117.006 165.064 117.555 165.064H168.763C169.312 165.064 169.838 164.845 170.226 164.455C170.615 164.066 170.833 163.538 170.833 162.987C170.833 162.436 170.615 161.908 170.226 161.519C169.838 161.129 169.312 160.91 168.763 160.91Z" fill="#191D3F"/>
</g>
</g>
<path d="M206.528 52.1249V239.927C206.528 240.816 206.354 241.697 206.014 242.518C205.675 243.339 205.177 244.085 204.55 244.714C203.923 245.342 203.179 245.84 202.36 246.179C201.541 246.518 200.664 246.692 199.778 246.691H105.614C103.836 246.678 102.135 245.96 100.883 244.692C99.6309 243.425 98.9298 241.712 98.9329 239.927V52.1249C101.694 49.881 105.136 48.6528 108.689 48.6445H196.818C200.354 48.668 203.778 49.895 206.528 52.1249Z" fill="#FF9C00"/>
<path opacity="0.25" d="M117.486 52.1249V239.927C117.486 241.551 117.416 243.025 117.301 244.196C117.15 245.716 116.931 246.691 116.688 246.691H105.521C105.082 246.691 104.724 243.663 104.724 239.927V52.1249C105.048 49.9787 105.441 48.6445 105.88 48.6445H116.283C116.757 48.7025 117.162 49.9787 117.486 52.1249Z" fill="white"/>
<path opacity="0.25" d="M200.771 52.1249V239.927C200.771 241.551 200.702 243.025 200.598 244.196C200.448 245.716 200.217 246.691 199.974 246.691H188.807C188.368 246.691 188.01 243.663 188.01 239.927V52.1249C188.333 49.9787 188.738 48.6445 189.166 48.6445H199.569C200.055 48.7025 200.448 49.9787 200.771 52.1249Z" fill="white"/>
<path d="M199.905 23.5273C202.437 23.5273 204.866 24.5369 206.656 26.334C208.447 28.1311 209.453 30.5685 209.453 33.11V35.5927C209.453 37.7465 208.6 39.8121 207.083 41.3351C205.565 42.858 203.507 43.7136 201.361 43.7136C199.215 43.7136 197.157 42.858 195.64 41.3351C194.122 39.8121 193.27 37.7465 193.27 35.5927V23.5273H199.905Z" fill="#FF0070"/>
<path d="M185.432 43.4238H184.993C182.908 43.4238 180.909 42.5926 179.435 41.1132C177.961 39.6337 177.133 37.6272 177.133 35.5349V23.5275L193.316 23.5275V35.5349C193.316 36.5728 193.112 37.6006 192.715 38.5592C192.319 39.5179 191.738 40.3886 191.005 41.1214C190.273 41.8543 189.404 42.4349 188.448 42.83C187.491 43.225 186.467 43.4268 185.432 43.4238Z" fill="#EFE6DC"/>
<path d="M160.972 23.5273V35.6043C160.972 37.7581 161.825 39.8237 163.342 41.3467C164.86 42.8696 166.918 43.7252 169.064 43.7252C171.21 43.7252 173.268 42.8696 174.786 41.3467C176.303 39.8237 177.156 37.7581 177.156 35.6043V23.5273H160.972Z" fill="#FF0070"/>
<path d="M153.112 43.4238H152.673C150.588 43.4238 148.589 42.5926 147.114 41.1132C145.64 39.6337 144.812 37.6272 144.812 35.5349V23.5275L160.995 23.5275V35.5349C160.995 36.5728 160.791 37.6006 160.395 38.5592C159.998 39.5179 159.417 40.3886 158.685 41.1214C157.953 41.8543 157.083 42.4349 156.127 42.83C155.171 43.225 154.146 43.4268 153.112 43.4238Z" fill="#EFE6DC"/>
<path d="M128.652 23.5273V35.6043C128.652 37.7581 129.505 39.8237 131.022 41.3467C132.54 42.8696 134.598 43.7252 136.744 43.7252C138.89 43.7252 140.948 42.8696 142.465 41.3467C143.983 39.8237 144.835 37.7581 144.835 35.6043V23.5273H128.652Z" fill="#FF0070"/>
<path d="M120.792 43.4238H120.353C118.268 43.4238 116.269 42.5926 114.795 41.1132C113.32 39.6337 112.492 37.6272 112.492 35.5349V23.5275L128.676 23.5275V35.5349C128.676 36.5728 128.471 37.6006 128.075 38.5592C127.679 39.5179 127.097 40.3886 126.365 41.1214C125.633 41.8543 124.763 42.4349 123.807 42.83C122.851 43.225 121.826 43.4268 120.792 43.4238Z" fill="#EFE6DC"/>
<path d="M112.492 23.5274V35.5927C112.492 37.7465 111.64 39.8121 110.122 41.3351C108.605 42.8581 106.547 43.7137 104.401 43.7137C102.255 43.7137 100.197 42.8581 98.6791 41.3351C97.1616 39.8121 96.3091 37.7465 96.3091 35.5927V33.1101C96.3076 31.8502 96.5539 30.6025 97.0339 29.4384C97.5139 28.2744 98.2182 27.2168 99.1064 26.3266C99.9945 25.4363 101.049 24.7307 102.209 24.2504C103.37 23.77 104.613 23.5243 105.869 23.5274H112.492Z" fill="#FF0070"/>
<g style="mix-blend-mode:multiply" opacity="0.2">
<path d="M206.944 48.1453H93.1531V69.6773C94.2776 69.2044 95.3105 68.5369 96.2048 67.7051C97.0225 66.9751 97.6801 66.0825 98.1358 65.084C98.5915 64.0854 98.8353 63.0026 98.8519 61.9044V59.9786C98.8519 62.8555 99.9906 65.6145 102.017 67.6488C104.044 69.683 106.793 70.8258 109.66 70.8258C112.526 70.8258 115.276 69.683 117.302 67.6488C119.329 65.6145 120.468 62.8555 120.468 59.9786V61.9044C120.468 66.8002 125.311 70.7794 131.276 70.7794C137.241 70.7794 142.096 66.8002 142.096 61.9044V59.9786C142.096 62.8555 143.235 65.6145 145.261 67.6488C147.288 69.683 150.037 70.8258 152.904 70.8258C155.77 70.8258 158.519 69.683 160.546 67.6488C162.573 65.6145 163.712 62.8555 163.712 59.9786V61.9044C163.712 66.8002 168.555 70.7794 174.52 70.7794C180.485 70.7794 185.328 66.8002 185.328 61.9044V59.9786C185.353 62.1113 186.003 64.1895 187.196 65.9543C188.389 67.7192 190.073 69.0928 192.039 69.9041C194.004 70.7153 196.164 70.9284 198.249 70.5168C200.334 70.1051 202.253 69.087 203.765 67.5891C204.768 66.602 205.565 65.4252 206.11 64.1268C206.656 62.8284 206.939 61.4342 206.944 60.025V61.9044C206.958 63.9794 207.789 65.9647 209.256 67.4267C210.14 68.3279 211.177 69.0627 212.319 69.5961V48.1453H206.944Z" fill="#191D3F"/>
</g>
<path d="M193.292 34.6882L206.794 43.2152L206.944 43.54L207.152 44.0273C208.794 47.6469 215.244 50.7328 221.451 50.7328C224.827 50.7328 227.3 49.8511 228.56 48.4126V43.54L228.399 43.2268L209.649 34.6882H193.292Z" fill="#FF5AB4"/>
<path d="M195.616 50.7441H201.592C206.216 50.7441 209.025 46.5328 207.846 43.7833L193.292 34.6995H177.109L185.837 43.7253C186.576 46.4864 190.957 50.7441 195.616 50.7441Z" fill="white"/>
<path d="M160.972 34.6995L163.735 43.9805C164.047 47.6465 169.445 50.7905 175.745 50.7905C182.045 50.7905 186.634 47.3101 185.698 43.5861L177.133 34.7343L160.972 34.6995Z" fill="#FF5AB4"/>
<path d="M149.91 50.7444H155.886C160.51 50.7444 164.498 47.7977 164.267 45.0366L160.972 34.6882H144.789L141.703 44.5029C141.425 47.2292 145.24 50.7444 149.91 50.7444Z" fill="white"/>
<path d="M128.652 34.6998L119.196 44.5029C118.248 48.169 123.739 50.7444 130.039 50.7444C136.339 50.7444 141.425 47.8673 141.749 44.2013L144.812 34.6882L128.652 34.6998Z" fill="#FF5AB4"/>
<path d="M104.192 50.7444H110.168C114.792 50.7444 118.48 47.4149 119.196 44.6538L128.652 34.6882H112.469L96.7133 44.6422C95.5226 47.4149 99.5338 50.7444 104.192 50.7444Z" fill="white"/>
<path d="M77.2244 43.5746V48.4587C78.4728 49.8509 80.9581 50.779 84.3334 50.779C90.6449 50.779 97.0488 47.635 98.6787 43.969L98.8405 43.5978L98.9793 43.2613L112.481 34.7344H95.5461L77.4324 43.2265L77.2244 43.5746Z" fill="#FF5AB4"/>
<path d="M206.944 43.2266V56.9277C206.944 61.8235 211.788 65.8143 217.752 65.8143C223.717 65.8143 228.561 61.8235 228.561 56.9277V43.5398L228.399 43.2266H206.944Z" fill="#FF0070"/>
<path d="M163.666 43.2148V56.9276C163.666 61.8233 168.521 65.8026 174.474 65.8026C180.427 65.8026 185.294 61.8233 185.294 56.9276V43.2148H163.666Z" fill="#FF0070"/>
<path d="M120.468 43.2148V56.9276C120.468 61.8233 125.312 65.8026 131.276 65.8026C137.241 65.8026 142.084 61.8233 142.084 56.9276V43.2148H120.468Z" fill="#FF0070"/>
<path d="M185.328 43.2148V55.0482C185.334 56.4666 185.619 57.8699 186.165 59.178C186.711 60.486 187.509 61.6733 188.513 62.6719C189.516 63.6706 190.706 64.4611 192.014 64.9982C193.322 65.5354 194.723 65.8087 196.136 65.8026C197.549 65.8087 198.95 65.5354 200.258 64.9982C201.566 64.4611 202.756 63.6706 203.76 62.6719C204.763 61.6733 205.561 60.486 206.107 59.178C206.654 57.8699 206.938 56.4666 206.944 55.0482V43.2148H185.328Z" fill="#EFE6DC"/>
<path d="M142.084 55.0482C142.09 56.4666 142.375 57.8699 142.921 59.178C143.468 60.486 144.265 61.6733 145.269 62.6719C146.273 63.6706 147.462 64.4611 148.77 64.9982C150.078 65.5354 151.479 65.8087 152.892 65.8026C155.741 65.8057 158.474 64.6755 160.493 62.6596C162.513 60.6438 163.653 57.9067 163.666 55.0482V43.2148H142.05L142.084 55.0482Z" fill="#EFE6DC"/>
<path d="M98.8521 55.0482C98.8521 57.925 99.9908 60.6841 102.018 62.7183C104.045 64.7526 106.794 65.8954 109.66 65.8954C112.527 65.8954 115.276 64.7526 117.303 62.7183C119.33 60.6841 120.468 57.925 120.468 55.0482V43.2148H98.8521V55.0482Z" fill="#EFE6DC"/>
<path d="M77.2244 43.5746V56.9277C77.2244 61.8235 82.0678 65.8143 88.044 65.8143C94.0202 65.8143 98.8405 61.8235 98.8405 56.9277V43.2266H77.4324L77.2244 43.5746Z" fill="#FF0070"/>
<path d="M246.732 17.8196C246.954 17.1627 247.093 16.4808 247.148 15.7894C247.248 14.3544 246.966 12.9186 246.332 11.6288C245.697 10.3389 244.733 9.24136 243.537 8.44835C242.341 7.65534 240.957 7.19534 239.526 7.11539C238.095 7.03544 236.668 7.33842 235.392 7.99333C234.782 6.66175 233.819 5.52435 232.608 4.7058C231.397 3.88725 229.985 3.41915 228.526 3.35281C227.588 3.35436 226.655 3.48314 225.752 3.73565C225.299 2.68584 224.561 1.78465 223.623 1.13453C222.685 0.484403 221.584 0.111439 220.446 0.0580342C218.811 -0.0442829 217.196 0.466326 215.914 1.49089C214.633 2.51545 213.776 3.981 213.51 5.60346L212.031 5.68467C210.818 5.90118 209.685 6.43775 208.748 7.23925C207.41 8.42929 206.582 10.0917 206.436 11.8798C206.436 11.8798 206.436 11.9842 206.436 12.0306C205.686 11.6809 204.879 11.4688 204.055 11.4041L202.205 11.5085C200.705 11.7829 199.333 12.5347 198.292 13.6525C197.251 14.7704 196.597 16.1949 196.425 17.7152L246.732 17.8196Z" fill="white"/>
<path d="M69.5253 144.332C69.1076 145.063 68.8846 145.89 68.878 146.733C68.878 149.053 69.8143 150.213 67.8492 152.476C65.8841 154.738 67.9532 158.125 65.8378 160.191C65.7474 160.278 65.6954 160.398 65.6932 160.525C65.691 160.651 65.7389 160.773 65.8263 160.863C65.9136 160.954 66.0334 161.006 66.1591 161.009C66.2848 161.011 66.4063 160.963 66.4967 160.875C68.8895 158.555 66.7973 155.156 69.0051 152.58C71.213 150.005 69.0051 147.603 70.3345 144.83C70.6003 144.285 69.7912 143.786 69.5253 144.332Z" fill="#351E59"/>
<path d="M75.2131 85.3626C66.8788 83.7152 59.1108 87.4972 56.8914 98.7041C54.776 109.401 59.2033 119.389 66.8672 121.71L65.2257 123.601L69.9189 124.529L69.1097 122.208C77.0742 122.997 84.9693 115.456 87.0847 104.806C89.2925 93.5067 83.559 87.0216 75.2131 85.3626Z" fill="#D60066"/>
<path d="M73.7679 121.686C72.2722 122.146 70.7016 122.307 69.1442 122.162L69.9533 124.482L65.2602 123.554L66.9016 121.663C59.2377 119.343 54.8104 109.354 56.9258 98.6578C59.1452 87.4509 66.9132 83.6573 75.2475 85.3163C75.8486 85.4323 76.4035 85.5831 76.993 85.7455C83.8478 90.7689 84.183 97.7529 83.0271 105.723C82.1601 111.489 75.814 117.51 73.7679 121.686Z" fill="#FF0070"/>
<path d="M67.3523 123.786C66.8075 124.802 66.6592 125.985 66.9362 127.104C67.8725 129.61 68.2655 130.921 66.312 133.612C65.7732 134.273 65.3793 135.04 65.156 135.863C64.7977 138.879 65.156 141.664 64.0001 144.599C63.503 145.84 65.5028 158.52 66.2195 159.495C66.5316 159.924 67.2252 159.495 66.9015 159.031C65.5375 157.175 63.8036 142.395 66.3698 141.014C68.6816 139.75 65.7109 135.886 67.5951 133.288C69.8145 130.213 66.9246 127.417 68.1152 124.157C68.3002 123.659 67.5604 123.287 67.3754 123.786H67.3523Z" fill="#351E59"/>
<path d="M54.2439 79.0863C45.9442 80.8961 40.3147 87.4741 42.6844 98.6461C44.9963 109.308 53.0186 116.698 60.9715 115.758L60.2085 118.148L64.8323 117.127L63.2487 115.271C70.8664 112.811 75.1087 102.741 72.8083 92.0682C70.3924 80.9193 62.5551 77.2765 54.2439 79.0863Z" fill="#D60066"/>
<path d="M67.3293 112.95C66.1353 113.987 64.7484 114.775 63.2488 115.27L64.9249 117.127L60.3011 118.148L61.0641 115.758C53.1112 116.697 45.0773 109.296 42.777 98.6458C40.3611 87.4737 45.9905 80.8957 54.3365 79.0859C54.926 78.9583 55.4924 78.8539 56.1051 78.7727C64.3816 80.6405 67.468 86.8936 69.5718 94.6897C70.9936 100.27 67.5836 108.31 67.3293 112.95Z" fill="#FF0070"/>
<path d="M62.2778 117.463C62.1805 118.614 62.5144 119.76 63.2141 120.677C65.0752 122.603 65.9421 123.658 65.2254 126.907C64.9897 127.724 64.9306 128.582 65.052 129.424C65.919 132.336 67.3639 134.703 67.4448 137.905C67.4524 138.46 67.6232 139 67.9358 139.459C68.2484 139.917 68.6888 140.272 69.2019 140.48C69.6643 140.747 70.1035 140.051 69.6411 139.784C67.6529 138.624 68.3812 135.538 68.1962 133.682C67.9188 130.99 65.5491 129.227 66.2542 126.094C67.0749 122.394 63.3066 120.978 63.11 117.51C63.11 116.987 62.2431 116.929 62.2778 117.51V117.463Z" fill="#351E59"/>
<path d="M78.7268 113.53C72.0223 111.593 65.3987 114.157 62.821 123.171C60.3588 131.768 63.2949 140.248 69.3983 142.673L67.9187 144.1L71.6871 145.19L71.19 143.195C77.6518 144.355 84.6337 138.786 87.0958 130.178C89.6852 121.164 85.4313 115.468 78.7268 113.53Z" fill="url(#paint0_linear)"/>
<path opacity="0.32" d="M83.2118 129.83C82.227 134.527 80.1073 138.91 77.039 142.592C75.1916 143.366 73.1626 143.595 71.1899 143.253L71.687 145.248L67.9186 144.158L69.3867 142.743C68.9875 142.574 68.6012 142.376 68.2307 142.151C62.9596 139.135 60.5668 131.234 62.8671 123.229C63.6533 119.846 65.627 116.86 68.4272 114.818C69.961 113.85 71.6908 113.237 73.4906 113.024C75.2903 112.811 77.1147 113.004 78.8307 113.588C80.4619 114.039 82.0002 114.778 83.3736 115.769C84.464 120.399 84.4085 125.227 83.2118 129.83Z" fill="white"/>
<path d="M66.9593 124.192C66.6869 124.906 66.4667 125.638 66.3004 126.384L63.9885 125.839C64.1081 125.082 64.278 124.334 64.4971 123.6L66.9593 124.192Z" fill="url(#paint1_linear)"/>
<path d="M75.8139 114.447C71.9066 116.187 68.8381 119.4 67.2715 123.391L64.74 122.8C65.6139 120.502 67.1172 118.498 69.0765 117.02C71.0358 115.542 73.3714 114.65 75.8139 114.447Z" fill="url(#paint2_linear)"/>
<path d="M62.6479 144.97C62.9571 145.73 63.0647 146.557 62.96 147.372C62.6363 149.622 61.6191 150.608 63.2143 153.068C64.8095 155.527 62.3936 158.532 64.1737 160.794C64.2504 160.891 64.2855 161.015 64.2714 161.138C64.2573 161.261 64.1952 161.373 64.0986 161.45C64.002 161.527 63.8789 161.562 63.7565 161.548C63.634 161.534 63.5221 161.471 63.4455 161.374C61.4341 158.81 63.8963 155.794 62.0815 153.021C60.2666 150.249 62.7288 148.207 61.7925 145.353C61.6075 144.784 62.4514 144.402 62.6479 144.97Z" fill="#351E59"/>
<path opacity="0.33" d="M68.1846 142.093C62.9135 139.077 60.5206 131.176 62.821 123.171C63.6071 119.788 65.5809 116.802 68.3811 114.76C71.5368 116.431 73.9065 119.772 74.681 125.016C75.8138 132.487 72.9933 139.367 68.1846 142.093Z" fill="#351E59"/>
<path d="M57.7002 113.948C64.4509 112.95 70.5311 116.268 71.8605 125.352C73.1436 133.995 69.2134 141.814 62.9828 143.381L64.2544 144.958L60.4629 145.515L61.2027 143.648C54.7872 143.972 48.7531 137.638 47.4816 128.983C46.1176 119.911 50.961 114.957 57.7002 113.948Z" fill="url(#paint3_linear)"/>
<path opacity="0.32" d="M55.6081 142.244C57.2911 143.242 59.2264 143.73 61.1798 143.647L60.44 145.515L64.2315 144.958L62.983 143.381C69.2136 141.814 73.1438 133.995 71.8607 125.352C70.5314 116.292 64.4511 112.95 57.7004 113.948C56.0824 114.186 54.5178 114.704 53.0766 115.479C51.4723 119.848 50.8719 124.525 51.3202 129.159C51.7686 133.793 53.2541 138.266 55.6659 142.244H55.6081Z" fill="white"/>
<path d="M67.7224 125.793C67.8939 126.522 68.0136 127.263 68.0808 128.009L70.3926 127.777C70.3741 127.035 70.3046 126.294 70.1846 125.561L67.7224 125.793Z" fill="url(#paint4_linear)"/>
<path d="M60.4512 115.271C63.9942 117.481 66.5338 120.996 67.5256 125.063L70.0571 124.819C69.5125 122.482 68.3224 120.346 66.6233 118.657C64.9241 116.969 62.7849 115.795 60.4512 115.271Z" fill="url(#paint5_linear)"/>
<path d="M68.0114 141.118C68.0504 141.056 68.071 140.983 68.071 140.91C68.071 140.836 68.0504 140.763 68.0114 140.701C66.4162 138.299 69.0865 135.527 67.6762 132.928C66.266 130.329 67.3641 129.447 67.8727 127.22C68.0348 126.417 67.987 125.586 67.734 124.807C67.5953 124.227 66.7284 124.54 66.8671 125.109C67.5722 128.032 64.9251 129.749 66.5434 132.777C68.1617 135.805 65.6071 138.346 67.1098 140.979C67.4797 143.961 64.6592 145.422 65.9539 148.566C67.2485 151.71 64.1968 154.123 65.688 157.024C65.7447 157.133 65.8423 157.215 65.9594 157.252C66.0765 157.289 66.2034 157.278 66.3122 157.221C66.421 157.164 66.5029 157.066 66.5397 156.949C66.5766 156.831 66.5654 156.704 66.5087 156.594C65.1909 154.031 68.1617 151.583 67.052 148.833C65.9423 146.084 67.1445 145.353 67.8959 143.195C68.0975 142.522 68.1372 141.81 68.0114 141.118Z" fill="#351E59"/>
<path opacity="0.33" d="M68.8782 124.772C63.6071 121.756 66.7628 110.978 69.0516 102.973C70.2076 98.9359 64.8324 95.0611 67.2599 93.4485C70.4272 95.1191 78.8193 92.8916 80.9232 104.818C83.3622 118.971 73.6407 122.046 68.8782 124.772Z" fill="#351E59"/>
<path d="M63.8959 93.7502C70.6351 92.7524 76.7154 96.0704 78.0563 105.154C79.3394 113.797 75.3976 121.617 69.1786 123.183L70.427 124.76L66.6355 125.317L67.3753 123.45C60.9598 123.774 54.9258 117.44 53.6543 108.785C52.3134 99.7248 57.1568 94.7595 63.8959 93.7502Z" fill="url(#paint6_linear)"/>
<path opacity="0.32" d="M61.8038 122.046C63.4863 123.046 65.4219 123.533 67.3754 123.45L66.6356 125.317L70.4271 124.761L69.1787 123.183C75.3977 121.617 79.3394 113.797 78.0563 105.143C76.7155 96.0821 70.6352 92.7526 63.896 93.7503C62.2772 93.9846 60.712 94.5029 59.2722 95.2816C57.5734 99.6222 56.9698 104.317 57.5152 108.948C57.8478 113.602 59.321 118.101 61.8038 122.046Z" fill="white"/>
<path d="M73.918 105.595C74.0899 106.324 74.2059 107.064 74.2648 107.811L76.5766 107.579C76.5576 106.832 76.488 106.088 76.3686 105.351L73.918 105.595Z" fill="url(#paint7_linear)"/>
<path d="M66.636 95.0146C70.1857 97.2306 72.7294 100.754 73.7219 104.829L76.2419 104.586C75.7012 102.244 74.5128 100.104 72.8134 98.4108C71.114 96.7175 68.9727 95.5403 66.636 95.0146Z" fill="url(#paint8_linear)"/>
<path d="M135.322 166.386C112.646 165.865 90.0244 163.947 67.5833 160.643L66.9822 160.551L65.7107 169.565H66.3465C92.8061 171.711 115.89 173.115 135.322 173.764V166.386Z" fill="url(#paint9_linear)"/>
<path d="M135.322 166.989C112.61 166.457 89.9532 164.52 67.4794 161.188L66.3928 168.973C95.488 171.293 117.983 172.593 135.322 173.173V166.989Z" fill="#F6BB36"/>
<g style="mix-blend-mode:soft-light" opacity="0.21">
<path d="M70.0339 263.768C70.0386 263.791 70.0386 263.814 70.0339 263.837C69.9068 264.614 67.6411 265.218 64.8669 265.218C64.063 265.219 63.26 265.168 62.4625 265.067C60.8442 264.823 59.7345 264.348 59.6882 263.802V260.322H70.0339V263.71C70.0368 263.729 70.0368 263.748 70.0339 263.768Z" fill="white"/>
</g>
<g style="mix-blend-mode:soft-light" opacity="0.21">
<path d="M70.0341 263.767C70.0387 263.79 70.0387 263.814 70.0341 263.837C69.9069 264.614 67.6413 265.218 64.867 265.218C64.0632 265.218 63.2601 265.168 62.4626 265.067C63.1596 264.758 63.9452 264.717 64.6705 264.951C66.5662 265.403 68.751 263.93 67.5026 264.104C66.2541 264.278 65.8496 263.164 67.2598 263.095C68.6701 263.025 68.7741 261.934 67.6991 262.178C66.4088 262.2 65.1204 262.067 63.8613 261.784C63.8613 261.784 66.1732 260.937 68.0458 260.299H70.0341V263.686C70.0397 263.713 70.0397 263.741 70.0341 263.767Z" fill="white"/>
</g>
<path d="M64.8211 261.784C67.6875 261.784 70.0112 261.129 70.0112 260.322C70.0112 259.515 67.6875 258.86 64.8211 258.86C61.9546 258.86 59.6309 259.515 59.6309 260.322C59.6309 261.129 61.9546 261.784 64.8211 261.784Z" fill="#292929"/>
<path d="M135.322 166.989C112.61 166.457 89.9532 164.52 67.4794 161.188L66.3928 168.973C95.488 171.293 117.983 172.593 135.322 173.173V166.989Z" fill="url(#paint10_linear)"/>
<path d="M68.5776 158.219H66.3928V173.01H68.5776V158.219Z" fill="#241442"/>
<path d="M67.098 153.81V260.38C66.9477 260.681 66.0461 260.913 64.9479 260.913C63.8498 260.913 62.9366 260.681 62.7979 260.38V153.81H67.098Z" fill="#292929"/>
<g style="mix-blend-mode:soft-light" opacity="0.21">
<path d="M67.098 153.81V260.38C66.9477 260.681 66.0461 260.913 64.9479 260.913C63.8498 260.913 62.9366 260.681 62.7979 260.38V257.433C63.5085 256.343 64.1606 255.216 64.7514 254.057C67.1789 248.941 67.1789 158.799 65.4796 158.323C63.7804 157.847 63.4221 154.309 63.4221 154.309L64.0809 153.81H67.098Z" fill="white"/>
</g>
<path d="M64.913 154.425C66.1196 154.425 67.0977 154.15 67.0977 153.81C67.0977 153.471 66.1196 153.196 64.913 153.196C63.7064 153.196 62.7283 153.471 62.7283 153.81C62.7283 154.15 63.7064 154.425 64.913 154.425Z" fill="#50468C"/>
<path d="M238.201 160.516L237.589 160.608C212.38 164.366 186.942 166.367 161.458 166.595C159.736 166.595 157.99 166.595 156.384 166.595V173.788C178.266 173.683 205.974 172.291 238.826 169.634H239.461L238.201 160.516Z" fill="url(#paint11_linear)"/>
<path d="M156.384 173.173C174.936 173.092 201.373 172.013 238.779 169.02L237.693 161.235C237.693 161.235 197.292 167.755 156.384 167.187V173.173Z" fill="#F6BB36"/>
<g style="mix-blend-mode:soft-light" opacity="0.21">
<path d="M235.172 263.768C235.168 263.791 235.168 263.814 235.172 263.837C235.311 264.615 237.565 265.218 240.351 265.218C241.151 265.218 241.95 265.168 242.744 265.067C244.362 264.823 245.472 264.348 245.518 263.802V260.322H235.172V263.71C235.169 263.729 235.169 263.748 235.172 263.768Z" fill="white"/>
</g>
<g style="mix-blend-mode:soft-light" opacity="0.21">
<path d="M235.172 263.767C235.168 263.79 235.168 263.814 235.172 263.837C235.311 264.614 237.565 265.218 240.351 265.218C241.151 265.218 241.95 265.168 242.744 265.067C242.051 264.759 241.269 264.717 240.547 264.951C238.64 265.403 236.467 263.93 237.704 264.104C238.941 264.278 239.357 263.164 237.958 263.095C236.559 263.025 236.432 261.934 237.507 262.178C238.798 262.2 240.086 262.067 241.345 261.784C241.345 261.784 239.033 260.937 237.172 260.299H235.172V263.686C235.167 263.713 235.167 263.741 235.172 263.767Z" fill="white"/>
</g>
<path d="M240.339 261.784C243.206 261.784 245.53 261.129 245.53 260.322C245.53 259.515 243.206 258.86 240.339 258.86C237.473 258.86 235.149 259.515 235.149 260.322C235.149 261.129 237.473 261.784 240.339 261.784Z" fill="#292929"/>
<path d="M156.384 173.173C174.936 173.092 201.373 172.013 238.779 169.02L237.693 161.235C237.693 161.235 197.292 167.755 156.384 167.187V173.173Z" fill="url(#paint12_linear)"/>
<path d="M236.594 173.01H238.779V158.219H236.594V173.01Z" fill="#241442"/>
<path d="M238.074 153.81V260.38C238.224 260.681 239.126 260.913 240.224 260.913C241.322 260.913 242.235 260.681 242.385 260.38V153.81H238.074Z" fill="#292929"/>
<g style="mix-blend-mode:soft-light" opacity="0.21">
<path d="M238.074 153.81V260.38C238.224 260.681 239.126 260.913 240.224 260.913C241.322 260.913 242.235 260.681 242.385 260.38V257.433C241.675 256.343 241.023 255.216 240.432 254.057C238.004 248.941 238.004 158.799 239.704 158.323C241.403 157.847 241.761 154.309 241.761 154.309L241.102 153.81H238.074Z" fill="white"/>
</g>
<path d="M240.247 154.425C241.454 154.425 242.432 154.15 242.432 153.81C242.432 153.471 241.454 153.196 240.247 153.196C239.041 153.196 238.063 153.471 238.063 153.81C238.063 154.15 239.041 154.425 240.247 154.425Z" fill="#50468C"/>
<path d="M160.579 177.918C158.672 175.447 152.372 168.637 152.372 168.637L153.528 165.156C156.145 167.505 158.885 169.712 161.735 171.769C163.481 173.022 164.637 173.823 165.4 174.333C165.407 174.352 165.407 174.372 165.4 174.391C167.077 177.8 167.944 181.553 167.931 185.354L167.816 185.818C165.237 183.343 162.82 180.704 160.579 177.918Z" fill="url(#paint13_linear)"/>
<path d="M152.569 168.126L153.343 165.945C156.087 168.37 158.958 170.648 161.943 172.767C163.908 174.112 165.099 174.959 165.897 175.528C167.255 178.547 167.964 181.821 167.977 185.134C165.521 182.812 163.226 180.324 161.111 177.686C159.354 175.389 154.418 170.145 152.569 168.126Z" fill="url(#paint14_linear)"/>
<path d="M136.616 161.351C136.848 161.351 142.292 162.279 145.24 162.778C146.821 163.081 148.369 163.535 149.864 164.135C150.593 164.493 151.27 164.95 151.875 165.493L151.806 166.467C151.806 166.467 151.586 166.641 150.65 166.537C148.06 166.224 148.095 166.537 146.812 166.224C144.469 165.842 142.152 165.311 139.876 164.634C138.936 164.296 138.064 163.793 137.298 163.149C136.917 162.621 136.681 162 136.616 161.351Z" fill="#BC6C0C"/>
<path d="M136.605 162.221C136.836 162.221 142.292 162.975 145.24 163.474C146.82 163.784 148.369 164.242 149.864 164.843C150.564 165.146 151.224 165.536 151.829 166.003V167.163C151.829 167.163 151.598 167.337 150.673 167.233C148.084 166.919 148.107 167.233 146.835 166.919C145.564 166.606 141.287 166.119 139.899 165.481C138.955 165.153 138.08 164.649 137.322 163.996C136.932 163.477 136.685 162.865 136.605 162.221Z" fill="url(#paint15_linear)"/>
<path d="M151.829 165.446C149.566 165.372 147.31 165.143 145.078 164.762C141.945 164.182 136.616 161.281 136.616 161.281C136.147 163.492 135.872 165.74 135.796 167.999C135.957 172.639 136.605 174.043 136.605 173.973C136.605 173.904 142.5 172.941 145.575 172.535C147.785 172.1 149.89 171.237 151.771 169.994L151.829 165.446Z" fill="url(#paint16_linear)"/>
<path d="M137.518 172.953C137.321 172.953 136.431 173.022 136.362 173.022C136.019 171.417 135.845 169.78 135.842 168.138C135.902 166.221 136.114 164.313 136.478 162.43C139.22 163.798 142.099 164.871 145.066 165.632C147.323 165.998 149.601 166.223 151.886 166.305V169.437C149.945 170.534 147.836 171.298 145.644 171.7C144.003 171.92 140.708 172.639 139.425 172.767C138.794 172.868 138.157 172.93 137.518 172.953Z" fill="url(#paint17_linear)"/>
<path d="M167.804 161.003C165.438 160.914 163.07 161.086 160.741 161.514C158.337 161.966 155.308 164.112 154.51 164.414C153.826 164.72 153.165 165.077 152.534 165.481V166.456C152.534 166.456 152.765 166.63 153.69 166.456C156.291 166.085 156.256 166.363 157.539 166.061C159.904 165.624 162.24 165.039 164.532 164.31C165.477 163.97 166.356 163.472 167.133 162.836C167.512 162.294 167.743 161.662 167.804 161.003Z" fill="#BC6C0C"/>
<path d="M167.804 161.862C165.435 161.779 163.063 161.95 160.73 162.372C158.596 162.964 156.527 163.772 154.557 164.785C153.854 165.122 153.194 165.543 152.592 166.038V167.198C152.592 167.198 152.823 167.372 153.748 167.198C156.337 166.827 156.314 167.105 157.597 166.804C158.88 166.502 163.157 165.864 164.59 165.203C165.538 164.848 166.415 164.325 167.18 163.66C167.539 163.125 167.754 162.505 167.804 161.862Z" fill="url(#paint18_linear)"/>
<path d="M152.557 165.446C155.294 164.506 158.085 163.731 160.915 163.126C163.284 162.635 165.605 161.932 167.85 161.026C168.303 163.23 168.558 165.471 168.613 167.72C168.405 172.361 167.746 173.788 167.746 173.718C165.243 173.712 162.743 173.522 160.267 173.15C157.558 172.579 154.968 171.539 152.615 170.075L152.557 165.446Z" fill="url(#paint19_linear)"/>
<path d="M165.076 172.662C165.631 172.662 166.232 172.662 166.787 172.662C166.983 172.662 167.873 172.662 168.012 172.662C168.435 171.381 168.62 170.032 168.555 168.683C168.667 166.463 168.477 164.238 167.989 162.07C165.752 163.05 163.403 163.747 160.996 164.147C157.909 164.785 153.667 166.224 152.546 166.293V169.426C154.939 170.783 157.541 171.732 160.244 172.233C161.836 172.482 163.442 172.626 165.053 172.662H165.076Z" fill="url(#paint20_linear)"/>
<path d="M144.754 177.454C146.095 175.006 150.823 168.323 150.823 168.323L148.823 164.971C146.751 167.305 144.527 169.499 142.165 171.537C140.708 172.778 139.749 173.579 139.113 174.089C139.107 174.108 139.107 174.129 139.113 174.147C138.229 177.665 138.229 181.349 139.113 184.867L139.333 185.308C141.347 182.84 143.16 180.214 144.754 177.454Z" fill="url(#paint21_linear)"/>
<path d="M150.5 167.79L149.217 165.69C147.04 168.104 144.704 170.368 142.223 172.465C140.57 173.811 139.576 174.658 138.917 175.215C138.264 178.314 138.307 181.52 139.044 184.6C140.962 182.301 142.68 179.84 144.177 177.245C145.402 174.971 149.089 169.797 150.5 167.79Z" fill="url(#paint22_linear)"/>
<path d="M154.129 167.581C154.071 170.539 154.407 170.945 154.407 170.945C153.61 171.544 152.683 171.941 151.702 172.105C150.821 172.148 149.943 171.985 149.135 171.63C148.358 170.186 147.982 168.559 148.049 166.92C148.049 164.019 149.078 163.033 149.078 163.033C149.885 162.567 150.828 162.395 151.748 162.546C152.886 162.716 153.917 163.318 154.626 164.228C154.626 164.228 154.175 164.623 154.129 167.581Z" fill="url(#paint23_linear)"/>
<path d="M151.702 172.117C150.943 172.153 150.186 172.022 149.482 171.734C148.849 170.321 148.537 168.783 148.569 167.233C148.554 165.739 148.895 164.264 149.563 162.929C150.08 162.637 150.671 162.504 151.263 162.546C151.531 162.568 151.797 162.607 152.06 162.662C152.884 162.773 153.637 163.187 154.176 163.822C153.846 165.18 153.653 166.568 153.598 167.964C153.588 169.102 153.67 170.238 153.84 171.363C153.184 171.76 152.458 172.028 151.702 172.152V172.117Z" fill="#BC6C0C"/>
<g opacity="0.75">
<path opacity="0.75" d="M128.074 101.349L127.635 101.001C128.271 100.189 143.309 81.0701 150.129 80.5016C156.95 79.9332 173.387 99.551 174.069 100.386L173.63 100.746C173.468 100.549 156.707 80.4784 150.164 81.0237C143.621 81.5689 128.224 101.106 128.074 101.349Z" fill="#594A42"/>
<path opacity="0.75" d="M175.514 96.3486H126.525C125.414 96.3486 124.514 97.2524 124.514 98.3673V115.062C124.514 116.176 125.414 117.08 126.525 117.08H175.514C176.625 117.08 177.526 116.176 177.526 115.062V98.3673C177.526 97.2524 176.625 96.3486 175.514 96.3486Z" fill="url(#paint24_linear)"/>
<g opacity="0.25">
<path opacity="0.25" d="M129.877 104.935C129.877 103.671 130.652 102.94 132.062 102.94C133.472 102.94 134.247 103.671 134.247 104.935V109.054C134.247 110.33 133.472 111.049 132.062 111.049C130.652 111.049 129.877 110.33 129.877 109.054V104.935ZM131.322 109.135C131.322 109.704 131.611 109.912 132.062 109.912C132.513 109.912 132.813 109.704 132.813 109.135V104.831C132.813 104.262 132.524 104.054 132.062 104.054C131.6 104.054 131.322 104.262 131.322 104.831V109.135Z" fill="#211533"/>
<path opacity="0.25" d="M139.391 104.992V105.99C139.391 107.254 138.686 107.95 137.252 107.95H136.57V110.92H135.125V103.031H137.252C138.732 103.031 139.391 103.67 139.391 104.992ZM136.57 104.168V106.848H137.252C137.703 106.848 137.957 106.663 137.957 106.094V104.934C137.957 104.366 137.703 104.192 137.252 104.192L136.57 104.168Z" fill="#211533"/>
<path opacity="0.25" d="M141.61 106.373H143.587V107.533H141.61V109.853H144.095V111.013H140.177V103.031H144.095V104.192H141.61V106.373Z" fill="#211533"/>
<path opacity="0.25" d="M146.326 105.213V111.013H145.032V103.031H146.835L148.315 107.776V103.031H149.598V110.955H148.06L146.326 105.213Z" fill="#211533"/>
<path opacity="0.25" d="M154.534 102.939C154.811 102.898 155.093 102.92 155.36 103.004C155.627 103.087 155.872 103.23 156.076 103.422C156.281 103.614 156.439 103.849 156.541 104.111C156.642 104.373 156.683 104.654 156.661 104.934V105.178H155.297V104.83C155.297 104.261 155.031 104.052 154.58 104.052C154.129 104.052 153.852 104.261 153.852 104.83C153.852 106.466 156.672 106.767 156.672 109.029C156.672 110.306 155.933 111.025 154.522 111.025C153.112 111.025 152.384 110.306 152.384 109.029V108.542H153.736V109.111C153.736 109.679 154.025 109.876 154.488 109.876C154.95 109.876 155.227 109.679 155.227 109.111C155.227 107.486 152.418 107.173 152.418 104.911C152.398 104.633 152.44 104.355 152.542 104.096C152.643 103.837 152.801 103.604 153.004 103.415C153.207 103.226 153.45 103.084 153.715 103.002C153.98 102.92 154.26 102.898 154.534 102.939Z" fill="#211533"/>
<path opacity="0.25" d="M157.377 104.934C157.377 103.67 158.152 102.939 159.562 102.939C160.972 102.939 161.747 103.67 161.747 104.934V109.053C161.747 110.329 160.972 111.048 159.562 111.048C158.152 111.048 157.377 110.329 157.377 109.053V104.934ZM158.811 109.134C158.811 109.702 159.1 109.911 159.562 109.911C160.025 109.911 160.302 109.702 160.302 109.134V104.83C160.302 104.261 160.013 104.052 159.562 104.052C159.111 104.052 158.811 104.261 158.811 104.83V109.134Z" fill="#211533"/>
<path opacity="0.25" d="M162.51 104.934C162.51 103.67 163.284 102.939 164.695 102.939C166.105 102.939 166.879 103.67 166.879 104.934V109.053C166.879 110.329 166.105 111.048 164.695 111.048C163.284 111.048 162.51 110.329 162.51 109.053V104.934ZM163.943 109.134C163.943 109.702 164.232 109.911 164.695 109.911C165.157 109.911 165.434 109.702 165.434 109.134V104.83C165.434 104.261 165.157 104.052 164.695 104.052C164.232 104.052 163.943 104.261 163.943 104.83V109.134Z" fill="#211533"/>
<path opacity="0.25" d="M169.133 105.213V111.013H167.838V103.031H169.642L171.121 107.776V103.031H172.404V110.955H170.925L169.133 105.213Z" fill="#211533"/>
</g>
<path opacity="0.75" d="M130.479 104.505C130.479 103.24 131.253 102.509 132.663 102.509C134.074 102.509 134.848 103.24 134.848 104.505V108.623C134.848 109.899 134.074 110.619 132.663 110.619C131.253 110.619 130.479 109.899 130.479 108.623V104.505ZM131.924 108.704C131.924 109.273 132.201 109.482 132.663 109.482C133.126 109.482 133.415 109.273 133.415 108.704V104.423C133.415 103.855 133.126 103.646 132.663 103.646C132.201 103.646 131.924 103.855 131.924 104.423V108.704Z" fill="white"/>
<path opacity="0.75" d="M140.039 104.563V105.595C140.039 106.86 139.333 107.556 137.9 107.556H137.218V110.526H135.773V102.602H137.9C139.391 102.602 140.039 103.298 140.039 104.563ZM137.218 103.739V106.419H137.9C138.351 106.419 138.605 106.233 138.605 105.676V104.516C138.605 103.948 138.351 103.774 137.9 103.774L137.218 103.739Z" fill="white"/>
<path opacity="0.75" d="M142.211 105.99H144.188V107.15H142.211V109.47H144.697V110.63H140.778V102.602H144.697V103.762H142.211V105.99Z" fill="white"/>
<path opacity="0.75" d="M146.87 104.829V110.63H145.575V102.602H147.378L148.858 107.347V102.602H150.141V110.526H148.638L146.87 104.829Z" fill="white"/>
<path opacity="0.75" d="M155.135 102.509C155.411 102.468 155.694 102.49 155.961 102.574C156.228 102.658 156.473 102.801 156.677 102.992C156.882 103.184 157.04 103.42 157.142 103.681C157.243 103.943 157.284 104.225 157.262 104.504V104.748H155.898V104.423C155.898 103.855 155.632 103.646 155.181 103.646C154.73 103.646 154.453 103.855 154.453 104.423C154.453 106.059 157.273 106.361 157.273 108.623C157.273 109.899 156.533 110.618 155.123 110.618C153.713 110.618 152.985 109.899 152.985 108.623V108.136H154.337V108.704C154.337 109.273 154.626 109.47 155.088 109.47C155.551 109.47 155.828 109.273 155.828 108.704C155.828 107.08 153.019 106.767 153.019 104.504C152.995 104.225 153.035 103.944 153.134 103.682C153.234 103.42 153.392 103.184 153.595 102.992C153.799 102.8 154.043 102.657 154.31 102.573C154.576 102.49 154.858 102.468 155.135 102.509Z" fill="white"/>
<path opacity="0.75" d="M157.979 104.505C157.979 103.24 158.753 102.509 160.163 102.509C161.574 102.509 162.348 103.24 162.348 104.505V108.623C162.348 109.899 161.574 110.619 160.163 110.619C158.753 110.619 157.979 109.899 157.979 108.623V104.505ZM159.412 108.704C159.412 109.273 159.701 109.482 160.163 109.482C160.626 109.482 160.903 109.273 160.903 108.704V104.423C160.903 103.855 160.614 103.646 160.163 103.646C159.712 103.646 159.412 103.855 159.412 104.423V108.704Z" fill="white"/>
<path opacity="0.75" d="M163.157 104.505C163.157 103.24 163.932 102.509 165.342 102.509C166.752 102.509 167.527 103.24 167.527 104.505V108.623C167.527 109.899 166.752 110.619 165.342 110.619C163.932 110.619 163.157 109.899 163.157 108.623V104.505ZM164.591 108.704C164.591 109.273 164.88 109.482 165.342 109.482C165.804 109.482 166.082 109.273 166.082 108.704V104.423C166.082 103.855 165.793 103.646 165.342 103.646C164.891 103.646 164.591 103.855 164.591 104.423V108.704Z" fill="white"/>
<path opacity="0.75" d="M169.734 104.829V110.63H168.44V102.602H170.243L171.723 107.347V102.602H173.006V110.526H171.526L169.734 104.829Z" fill="white"/>
<path opacity="0.75" d="M152.106 82.2418C152.106 82.4678 152.062 82.6914 151.975 82.8999C151.888 83.1083 151.761 83.2974 151.601 83.456C151.44 83.6147 151.25 83.7398 151.041 83.8241C150.833 83.9085 150.609 83.9503 150.384 83.9472C150.127 83.9503 149.873 83.8906 149.644 83.7732C149.308 83.6023 149.039 83.3243 148.877 82.9828C148.716 82.6414 148.672 82.2558 148.753 81.8868C148.834 81.5177 149.034 81.1859 149.323 80.9436C149.612 80.7013 149.973 80.5622 150.349 80.5481C150.577 80.5387 150.804 80.5755 151.017 80.6565C151.229 80.7374 151.424 80.8606 151.588 81.0189C151.752 81.1771 151.883 81.367 151.972 81.5772C152.061 81.7873 152.107 82.0134 152.106 82.2418Z" fill="#6838AD"/>
<path opacity="0.36" d="M152.106 82.2418C152.106 82.4678 152.062 82.6914 151.975 82.8999C151.888 83.1083 151.761 83.2974 151.6 83.456C151.44 83.6147 151.25 83.7398 151.041 83.8241C150.832 83.9085 150.609 83.9503 150.384 83.9472C150.127 83.9503 149.873 83.8906 149.644 83.7732C149.745 83.7196 149.855 83.6842 149.968 83.6688C151.54 83.3092 150.95 81.685 150.349 80.5481C150.577 80.5387 150.804 80.5755 151.016 80.6565C151.229 80.7374 151.424 80.8606 151.588 81.0189C151.752 81.1771 151.882 81.367 151.971 81.5772C152.061 81.7873 152.106 82.0134 152.106 82.2418Z" fill="#211533"/>
</g>
<path d="M109.961 216.132C109.961 216.132 98.1237 215.042 99.0832 211.41C100.043 207.779 103.349 210.25 103.349 210.25C103.349 210.25 100.54 214.903 109.961 216.132Z" fill="#CC384E"/>
<path d="M112.376 216.84C112.376 216.84 108.099 209.276 103.603 208.603C99.1062 207.93 99.1756 210.923 99.1756 210.923C99.1756 210.923 101.95 208.997 104.759 212.269C107.568 215.541 111.336 216.875 112.376 216.84Z" fill="#F65372"/>
<path d="M125.947 209.926C125.947 209.926 122.375 216.748 112.376 216.887C112.376 216.887 119.416 215.959 121.104 213.232C122.059 211.868 122.605 210.258 122.676 208.592L125.947 209.926Z" fill="#CC384E"/>
<path d="M111.81 216.887C111.81 216.887 116.966 208.696 120.376 207.896C121.4 207.698 122.46 207.782 123.441 208.14C124.421 208.497 125.288 209.114 125.947 209.926C125.947 209.926 121.809 208.012 119.486 211.086C117.162 214.161 116.388 216.62 111.81 216.887Z" fill="#F65372"/>
<path d="M95.9735 223.569C95.9735 223.569 121.312 220.402 129.057 223.001C129.057 223.001 129.704 242.108 125.832 250.612C119.774 252.932 104.608 253.199 98.8056 251.586C95.9171 242.549 94.9523 233.004 95.9735 223.569Z" fill="#D89F21"/>
<g style="mix-blend-mode:multiply" opacity="0.2">
<path d="M95.8926 225.182C95.8926 225.182 95.569 227.293 95.8926 227.618C96.2163 227.943 126.317 229.718 129.219 225.994C132.12 222.27 95.8926 225.182 95.8926 225.182Z" fill="#191D3F"/>
</g>
<path d="M109.128 225.344C109.128 226.156 107.348 252.387 108.966 252.874C110.585 253.361 114.295 253.523 115.255 252.711C116.214 251.899 118.33 225.506 115.417 225.344C112.504 225.181 109.128 225.344 109.128 225.344Z" fill="#BF304C"/>
<path d="M93.6846 216.898C93.6846 216.898 93.9851 226.179 96.0543 225.913C98.1234 225.646 128.224 226.237 129.704 226.237C131.183 226.237 131.299 222.223 130.409 220.193C129.519 218.163 103.163 213.348 93.6846 216.898Z" fill="#F6BB36"/>
<path d="M107.833 215.146C107.833 215.146 105.741 227.908 107.833 227.908C109.926 227.908 117.682 228.882 117.682 226.748C117.682 224.613 120.584 217.351 117.197 216.051C113.81 214.752 107.833 215.146 107.833 215.146Z" fill="#CC384E"/>
<path d="M120.422 234.196L120.664 236.191L120.919 238.268L120.953 238.523L121.196 240.495V240.565L121.439 242.549L121.462 242.815L121.705 244.776L121.728 244.869L121.971 246.841L121.994 247.108L122.236 249.08L122.248 249.173L122.479 251.145L122.525 251.4L122.745 253.373L122.768 253.465L123.011 255.426L123.034 255.704L123.277 257.677L123.288 257.769L123.531 259.73L123.566 259.985L123.809 261.969V262.05L124.051 264.034L124.074 264.278L124.202 265.241L126.444 265.136H126.641L131.056 264.939L131.634 264.916L136.05 264.719L136.247 264.695L140.651 264.51L141.206 264.487L145.818 264.278L149.482 264.115L149.794 262.201L150.187 259.788L150.257 259.51L150.626 257.201L150.65 257.097L151.02 254.8L151.077 254.486L151.459 252.201L151.47 252.096L151.852 249.799L151.91 249.509L152.291 247.201L152.303 247.096L152.684 244.811L152.742 244.509L153.123 242.2L153.135 242.096L153.516 239.811L153.574 239.497L153.956 237.189L153.967 237.096L154.337 234.81L154.406 234.497L154.765 232.293L154.58 232.316H154.383L149.875 232.571L149.297 232.606L144.789 232.838L144.592 232.861L140.096 233.105L139.495 233.151L134.975 233.383L134.79 233.407L130.293 233.65L129.692 233.674L124.999 233.929L120.422 234.196Z" fill="#853FD5"/>
<path d="M120.422 234.196L116.653 235.704L119.289 258.431L124.202 265.241L120.422 234.196Z" fill="#6838AD"/>
<path d="M140.651 264.51L141.206 264.487L145.818 264.278L149.794 262.202L150.187 259.788L150.257 259.51L140.651 264.51Z" fill="#853FD5"/>
<path d="M136.05 264.719L136.247 264.696L140.651 264.51L141.206 264.487L150.188 259.788L150.257 259.51L150.627 257.201L150.65 257.097L136.05 264.719Z" fill="#6838AD"/>
<path d="M131.057 264.939L131.635 264.916L136.05 264.719L136.247 264.696L150.627 257.201L150.65 257.097L151.02 254.8L151.078 254.487L131.057 264.939Z" fill="#853FD5"/>
<path d="M126.444 265.137H126.641L131.056 264.939L131.634 264.916L151.02 254.8L151.077 254.487L151.459 252.201L151.47 252.097L126.444 265.137Z" fill="#6838AD"/>
<path d="M124.052 264.034L124.075 264.278L124.202 265.241L126.444 265.136H126.641L151.459 252.201L151.471 252.096L151.852 249.799L151.91 249.509L124.052 264.034Z" fill="#853FD5"/>
<path d="M123.809 261.969V262.051L124.051 264.034L124.074 264.278L151.852 249.8L151.91 249.51L152.291 247.201L152.303 247.096L123.809 261.969Z" fill="#6838AD"/>
<path d="M123.531 259.73L123.566 259.985L123.809 261.969V262.05L152.291 247.201L152.303 247.096L152.684 244.811L152.742 244.509L123.531 259.73Z" fill="#853FD5"/>
<path d="M123.277 257.677L123.289 257.77L123.531 259.73L123.566 259.986L152.684 244.811L152.742 244.51L153.124 242.201L153.135 242.096L123.277 257.677Z" fill="#6838AD"/>
<path d="M123.011 255.426L123.035 255.705L123.277 257.677L123.289 257.77L153.124 242.201L153.135 242.096L153.517 239.811L153.575 239.498L123.011 255.426Z" fill="#853FD5"/>
<path d="M122.745 253.373L122.768 253.465L123.011 255.426L123.034 255.704L153.516 239.811L153.574 239.497L153.956 237.189L153.967 237.096L122.745 253.373Z" fill="#6838AD"/>
<path d="M122.479 251.145L122.525 251.4L122.745 253.372L122.768 253.465L153.956 237.189L153.967 237.096L154.337 234.81L154.406 234.497L122.479 251.145Z" fill="#853FD5"/>
<path d="M122.237 249.08L122.248 249.173L122.479 251.145L122.526 251.4L154.337 234.81L154.407 234.497L154.765 232.293L154.58 232.316H154.383L122.237 249.08Z" fill="#6838AD"/>
<path d="M121.971 246.841L121.994 247.108L122.237 249.08L122.248 249.173L154.58 232.316H154.383L149.875 232.572L149.297 232.606L121.971 246.841Z" fill="#853FD5"/>
<path d="M121.705 244.776L121.728 244.869L121.971 246.841L121.994 247.108L149.875 232.572L149.297 232.606L144.789 232.838L144.593 232.862L121.705 244.776Z" fill="#6838AD"/>
<path d="M121.439 242.549L121.462 242.815L121.705 244.776L121.728 244.869L144.789 232.838L144.593 232.862L140.096 233.105L139.495 233.152L121.439 242.549Z" fill="#853FD5"/>
<path d="M121.196 240.495V240.565L121.439 242.549L121.462 242.816L140.096 233.105L139.495 233.152L134.975 233.384L134.79 233.407L121.196 240.495Z" fill="#6838AD"/>
<path d="M120.919 238.268L120.954 238.523L121.196 240.495V240.565L134.975 233.384L134.79 233.407L130.294 233.65L129.693 233.674L120.919 238.268Z" fill="#853FD5"/>
<path d="M120.665 236.191L120.919 238.268L120.954 238.523L130.294 233.651L129.692 233.674L124.999 233.929L120.665 236.191Z" fill="#6838AD"/>
<path d="M138.536 229.729C138.536 229.729 150.604 228.569 149.633 224.903C148.662 221.237 145.275 223.743 145.275 223.743C145.275 223.743 148.142 228.465 138.536 229.729Z" fill="#DBA11D"/>
<path d="M136.073 230.449C136.073 230.449 140.431 222.734 145.02 222.049C149.609 221.365 149.54 224.369 149.54 224.369C149.54 224.369 146.696 222.409 143.83 225.738C140.963 229.068 137.137 230.483 136.073 230.449Z" fill="#FFC532"/>
<path d="M122.225 223.395C122.225 223.395 125.866 230.356 136.096 230.448C136.096 230.448 128.906 229.497 127.184 226.713C126.192 225.335 125.615 223.7 125.52 222.003L122.225 223.395Z" fill="#DBA11D"/>
<path d="M136.64 230.495C136.64 230.495 131.38 222.131 127.901 221.33C126.857 221.124 125.777 221.207 124.777 221.571C123.777 221.935 122.895 222.566 122.225 223.395C122.225 223.395 126.444 221.435 128.814 224.555C131.184 227.676 131.97 230.228 136.64 230.495Z" fill="#FFC532"/>
<path d="M139.495 233.152L139.922 264.614L132.756 264.87L134.385 233.43L139.495 233.152Z" fill="#DBA11D"/>
<g style="mix-blend-mode:multiply" opacity="0.2">
<path d="M154.58 232.316L153.956 237.189L121.185 237.85L116.653 235.704L122.56 233.187L154.58 232.316Z" fill="#191D3F"/>
</g>
<path d="M155.516 229.172L156.083 233.72L119.948 235.425L120.237 229.648L155.516 229.172Z" fill="#6838AD"/>
<path d="M120.237 229.648L115.232 231.156L114.573 236.458L120.422 235.333L120.237 229.648Z" fill="#512893"/>
<path d="M140.743 229.393V234.509L132.813 234.695V229.265L140.743 229.393Z" fill="#FFC532"/>
<path d="M111.625 238.279L111.417 240.031L111.186 241.864L111.163 242.085L110.955 243.813V243.883L110.735 245.623L110.712 245.855L110.504 247.584L110.481 247.665L110.273 249.393L110.249 249.637L110.03 251.366L110.018 251.447L109.822 253.175L109.787 253.407L109.579 255.136L109.567 255.217L109.359 256.946L109.336 257.189L109.117 258.918L109.105 258.999L108.897 260.728L108.874 260.948L108.654 262.7V262.758L108.446 264.51L108.423 264.719L108.307 265.566L106.331 265.473H106.157L102.285 265.31L101.776 265.276L97.8924 265.102L97.7305 265.09L93.8466 264.916L93.3611 264.904L89.3153 264.719L86.0902 264.568L85.8127 262.897L85.466 260.774L85.4197 260.519L85.0845 258.5L85.0729 258.408L84.7377 256.389L84.6799 256.122L84.3563 254.104L84.3447 254.011L84.0095 251.992L83.9517 251.737L83.628 249.718L83.6165 249.625L83.2812 247.607L83.2234 247.34L82.8998 245.321L82.8766 245.229L82.553 243.221L82.4952 242.943L82.16 240.913L82.1484 240.832L81.8247 238.825L81.7669 238.546L81.4548 236.62L81.6051 236.632H81.7785L85.7434 236.852L86.252 236.876L90.2169 237.096L90.3903 237.108L94.3436 237.316L94.8754 237.363L98.8402 237.572L99.0021 237.583L102.955 237.804L103.487 237.827L107.614 238.047L111.625 238.279Z" fill="#F65372"/>
<path d="M111.625 238.279L114.943 239.613L116.156 260.194L108.308 265.566L111.625 238.279Z" fill="#F94964"/>
<path d="M93.8465 264.916L93.361 264.904L89.3152 264.719L85.8127 262.897L85.4659 260.774L85.4197 260.519L93.8465 264.916Z" fill="#F65372"/>
<path d="M97.8927 265.101L97.7308 265.09L93.8469 264.916L93.3614 264.904L85.4663 260.774L85.42 260.519L85.0848 258.5L85.0732 258.407L97.8927 265.101Z" fill="#CC384E"/>
<path d="M102.285 265.311L101.776 265.276L97.8924 265.102L97.7306 265.09L85.0845 258.501L85.073 258.408L84.7377 256.389L84.6799 256.123L102.285 265.311Z" fill="#F65372"/>
<path d="M106.331 265.473H106.157L102.285 265.31L101.776 265.276L84.7377 256.389L84.68 256.122L84.3563 254.104L84.3447 254.011L106.331 265.473Z" fill="#CC384E"/>
<path d="M108.446 264.51L108.423 264.719L108.308 265.566L106.331 265.473H106.158L84.3565 254.104L84.3449 254.011L84.0097 251.993L83.9519 251.737L108.446 264.51Z" fill="#F65372"/>
<path d="M108.654 262.7V262.758L108.446 264.51L108.423 264.719L84.0095 251.992L83.9517 251.737L83.628 249.718L83.6165 249.625L108.654 262.7Z" fill="#CC384E"/>
<path d="M108.897 260.728L108.874 260.948L108.654 262.7V262.758L83.628 249.718L83.6164 249.626L83.2812 247.607L83.2234 247.34L108.897 260.728Z" fill="#F65372"/>
<path d="M109.117 258.918L109.105 258.999L108.897 260.728L108.874 260.948L83.2813 247.607L83.2235 247.34L82.8998 245.321L82.8767 245.229L109.117 258.918Z" fill="#CC384E"/>
<path d="M109.359 256.946L109.336 257.19L109.117 258.918L109.105 259L82.8997 245.322L82.8766 245.229L82.5529 243.222L82.4951 242.943L109.359 256.946Z" fill="#F65372"/>
<path d="M109.579 255.136L109.568 255.217L109.36 256.946L109.337 257.189L82.5533 243.221L82.4955 242.943L82.1602 240.913L82.1487 240.832L109.579 255.136Z" fill="#CC384E"/>
<path d="M109.822 253.175L109.787 253.407L109.579 255.136L109.567 255.217L82.1599 240.913L82.1483 240.832L81.8246 238.825L81.7668 238.546L109.822 253.175Z" fill="#F65372"/>
<path d="M110.03 251.366L110.018 251.447L109.822 253.175L109.787 253.407L81.8247 238.825L81.7669 238.546L81.4548 236.62L81.6051 236.632H81.7785L110.03 251.366Z" fill="#CC384E"/>
<path d="M110.273 249.394L110.25 249.637L110.03 251.366L110.018 251.447L81.6052 236.632H81.7786L85.7435 236.853L86.2521 236.876L110.273 249.394Z" fill="#F65372"/>
<path d="M110.504 247.584L110.48 247.665L110.272 249.394L110.249 249.637L85.7432 236.853L86.2518 236.876L90.2167 237.096L90.3901 237.108L110.504 247.584Z" fill="#CC384E"/>
<path d="M110.735 245.623L110.712 245.855L110.504 247.584L110.481 247.665L90.217 237.096L90.3904 237.108L94.3438 237.316L94.8755 237.363L110.735 245.623Z" fill="#F65372"/>
<path d="M110.954 243.813V243.883L110.735 245.623L110.712 245.855L94.3435 237.317L94.8752 237.363L98.8401 237.572L99.002 237.583L110.954 243.813Z" fill="#CC384E"/>
<path d="M111.186 241.864L111.163 242.085L110.955 243.813V243.883L98.8403 237.572L99.0022 237.583L102.956 237.804L103.487 237.827L111.186 241.864Z" fill="#F65372"/>
<path d="M111.417 240.031L111.186 241.864L111.163 242.085L102.956 237.804L103.487 237.827L107.614 238.048L111.417 240.031Z" fill="#CC384E"/>
<path d="M95.7195 234.359C95.7195 234.359 85.0617 233.384 85.9633 230.124C86.865 226.864 89.8011 229.138 89.8011 229.138C89.8011 229.138 87.2695 233.245 95.7195 234.359Z" fill="#DBA11D"/>
<path d="M97.8811 234.985C97.8811 234.985 94.0549 228.209 90.0207 227.606C85.9864 227.003 86.0442 229.66 86.0442 229.66C86.0442 229.66 88.5411 227.943 91.061 230.82C93.581 233.697 96.9563 235.019 97.8811 234.985Z" fill="#FFC532"/>
<path d="M110.053 228.789C110.053 228.789 106.851 234.903 97.8809 234.984C97.8809 234.984 104.192 234.149 105.707 231.713C106.564 230.488 107.053 229.043 107.117 227.548L110.053 228.789Z" fill="#DBA11D"/>
<path d="M97.3835 235.031C97.3835 235.031 102.007 227.687 105.059 226.968C105.978 226.788 106.928 226.862 107.808 227.183C108.687 227.504 109.463 228.059 110.053 228.789C110.053 228.789 106.342 227.072 104.273 229.81C102.204 232.548 101.487 234.764 97.3835 235.031Z" fill="#FFC532"/>
<path d="M94.8754 237.363L94.4939 265.021L100.794 265.241L99.3604 237.618L94.8754 237.363Z" fill="#DBA11D"/>
<g style="mix-blend-mode:multiply" opacity="0.2">
<path d="M81.6052 236.632L82.1601 240.913L110.966 241.493L114.943 239.614L109.752 237.386L81.6052 236.632Z" fill="#191D3F"/>
</g>
<path d="M80.7842 233.871L80.2871 237.861L112.041 239.358L111.798 234.288L80.7842 233.871Z" fill="#CC384E"/>
<path d="M111.799 234.289L116.191 235.611L116.769 240.275L111.625 239.277L111.799 234.289Z" fill="#B72E48"/>
<path d="M93.7773 234.057V238.558L100.736 238.72V233.952L93.7773 234.057Z" fill="#FFC532"/>
<g style="mix-blend-mode:multiply" opacity="0.2">
<path d="M139.818 241.725C139.183 240.217 120.491 236.643 113.763 239.277C113.763 239.277 113.96 245.542 115.255 245.948C114.787 252.405 115.524 258.893 117.428 265.078C121.543 266.238 130.143 265.624 134.49 263.918C136.536 259.208 138.917 250.611 138.917 246.296H139.344C140.362 246.261 140.443 243.279 139.818 241.725Z" fill="#191D3F"/>
</g>
<path d="M122.699 240.623C122.699 240.623 114.607 239.88 115.243 237.386C115.879 234.892 118.179 236.632 118.179 236.632C118.179 236.632 116.272 239.776 122.699 240.623Z" fill="#CC384E"/>
<path d="M124.364 241.11C124.364 241.11 121.439 235.924 118.364 235.472C115.29 235.019 115.324 237.038 115.324 237.038C115.324 237.038 117.232 235.727 119.15 237.955C120.476 239.576 122.316 240.69 124.364 241.11Z" fill="#F65372"/>
<path d="M133.611 236.377C133.611 236.377 131.161 241.017 124.306 241.11C124.306 241.11 129.126 240.472 130.294 238.604C130.948 237.67 131.321 236.567 131.369 235.426L133.611 236.377Z" fill="#CC384E"/>
<path d="M123.97 241.145C123.97 241.145 127.438 235.53 129.831 234.985C130.535 234.847 131.262 234.903 131.936 235.149C132.61 235.394 133.205 235.818 133.657 236.377C133.657 236.377 130.814 235.066 129.23 237.154C127.646 239.242 127.103 240.959 123.97 241.145Z" fill="#F65372"/>
<path d="M113.128 245.716C113.128 245.716 130.467 243.546 135.784 245.333C135.784 245.333 136.223 258.419 133.576 264.243C129.426 265.856 119.034 266.018 115.081 264.905C113.096 258.717 112.43 252.179 113.128 245.716Z" fill="#D89F21"/>
<g style="mix-blend-mode:multiply" opacity="0.2">
<path d="M113.07 246.829C113.07 246.829 112.85 248.268 113.07 248.488C113.289 248.709 133.877 249.927 135.9 247.328C137.923 244.73 113.07 246.829 113.07 246.829Z" fill="#191D3F"/>
</g>
<path d="M122.133 246.934C122.133 247.491 120.977 265.496 122.017 265.798C123.057 266.1 125.67 266.239 126.329 265.682C126.988 265.125 128.432 247.05 126.444 246.934C124.456 246.818 122.133 246.934 122.133 246.934Z" fill="#BF304C"/>
<path d="M111.556 241.145C111.556 241.145 111.752 247.503 113.174 247.329C114.596 247.155 135.206 247.549 136.224 247.549C137.241 247.549 137.322 244.799 136.709 243.407C136.096 242.015 118.052 238.72 111.556 241.145Z" fill="#F6BB36"/>
<path d="M121.243 239.95C121.243 239.95 119.809 248.709 121.243 248.709C122.676 248.709 127.993 249.382 127.993 247.932C127.993 246.481 129.981 241.505 127.658 240.611C125.569 240.048 123.402 239.824 121.243 239.95Z" fill="#CC384E"/>
<g style="mix-blend-mode:multiply" opacity="0.35">
<path d="M207.233 94.7594C206.963 95.0597 206.723 95.3862 206.517 95.7339C206.196 96.2315 206.025 96.8117 206.025 97.4045C206.025 97.9973 206.196 98.5774 206.517 99.0751C207.041 99.8939 207.73 100.593 208.54 101.128C208.451 101.259 208.37 101.395 208.297 101.535C208.2 101.73 208.115 101.932 208.043 102.138C206.54 105.757 206.54 110.259 208.366 111.036C209.077 111.041 209.776 110.852 210.389 110.491L210.482 112.973C209.708 113.27 209.042 113.796 208.574 114.482C208.337 114.726 208.12 114.99 207.927 115.271C207.448 115.323 206.975 115.424 206.517 115.572C201.072 117.231 198.148 124.25 198.148 124.25C198.202 124.385 198.264 124.516 198.333 124.644L194.321 129.946L195.882 120.897L197.038 114.203L196.841 113.043C196.796 113.03 196.748 113.03 196.703 113.043L197.258 112.579H197.362H197.443C197.702 112.643 197.976 112.607 198.21 112.478C198.445 112.348 198.621 112.135 198.706 111.88C198.791 111.626 198.776 111.349 198.667 111.104C198.557 110.859 198.359 110.665 198.113 110.56L196.576 109.98L196.078 109.505L183.721 97.7177L179.444 93.6573C179.413 93.5881 179.361 93.5311 179.294 93.4948C178.462 93.1932 176.162 97.2653 174.139 102.613C172.116 107.962 171.133 112.544 171.954 112.857C172.013 112.873 172.075 112.875 172.135 112.863C172.195 112.851 172.252 112.825 172.301 112.788L194.807 111.964L194.61 112.521C194.446 112.508 194.281 112.528 194.125 112.58C193.969 112.631 193.824 112.713 193.7 112.821C193.575 112.929 193.473 113.061 193.399 113.208C193.325 113.356 193.281 113.516 193.27 113.681C193.27 113.681 193.27 113.681 193.27 113.762C193.269 114.192 193.43 114.607 193.72 114.922L193.374 115.851L194.472 116.257L194.657 115.735C195.015 115.967 195.292 116.117 195.292 116.117L194.067 118.368H193.952C193.952 118.368 187.455 129.54 189.455 135.712C191.374 141.64 196.102 138.821 199.338 135.932C199.72 140.654 201.338 141.582 200.009 145.005C198.679 148.427 200.009 152.836 201.8 153.126C198.159 168.207 184.577 195.726 189.571 206.642C190.927 209.254 193.152 211.306 195.859 212.443C196.489 217.15 198.062 221.681 200.483 225.761C200.795 226.318 201.13 226.922 201.488 227.478L203.465 245.588L204.852 258.28C207.532 256.653 209.669 254.262 210.99 251.412L212.447 243.546V92.0679C210.435 92.2795 208.575 93.2397 207.233 94.7594ZM196.24 113.426C196.158 113.532 196.085 113.644 196.021 113.762V113.623L196.24 113.426Z" fill="#6838AD"/>
</g>
<path d="M203.777 121.86L198.956 128.206L200.852 117.266L198.54 116.605C198.54 116.605 192.044 127.777 194.044 134.007C197.072 143.404 207.21 130.805 207.21 130.805L203.777 121.86Z" fill="#F3AFB1"/>
<path d="M208.586 130.039C208.586 130.039 209.464 129.1 207.927 129.68C206.39 130.26 202.783 122.522 202.783 122.522C202.783 122.522 206.251 114.285 212.574 113.531C214.377 113.322 209.904 126.536 208.586 130.039Z" fill="#D89F21"/>
<path d="M213.834 113.275C213.834 113.275 205.002 119.076 204.066 128.844C203.13 138.613 206.378 138.81 204.644 143.242C202.91 147.673 205.638 153.822 208.112 150.307C210.586 146.792 209.984 131.257 211.187 123.624C212.389 115.99 216.747 115.271 213.834 113.275Z" fill="#D89F21"/>
<path d="M219.925 206.573L216.943 218.731L234.525 254.394L232.837 256.714C232.837 256.714 212.631 237.258 205.095 223.94C197.558 210.622 201.107 203.185 201.107 203.185L219.925 206.573Z" fill="#E29CA1"/>
<path d="M204.158 207.199L210.123 262.027L213.371 262.016L223.694 206.097L204.158 207.199Z" fill="#F3AFB1"/>
<path d="M215.325 112.022C213.106 111.546 212.042 114.041 207.511 122.927C204.182 129.459 205.604 133.229 207.222 144.1C208.84 154.97 188.23 191.769 194.206 204.844C200.182 217.919 236.976 215.459 234.086 201.561C231.196 187.663 239.681 169.971 229.67 156.583C219.66 143.195 231.659 115.526 215.325 112.022Z" fill="white"/>
<path d="M222.064 113.948C222.064 113.948 215.441 129.157 215.383 135.445C215.325 141.733 212.481 149.97 219.024 152.847C225.567 155.724 237.265 157.952 236.213 154.773C235.161 151.594 223.671 137.441 226.341 126.315C227.497 121.524 227.589 113.902 222.064 113.948Z" fill="#F6BB36"/>
<path d="M215.175 123.902C218.851 121.071 220.157 114.354 220.157 114.354L220.608 105.943C225.474 103.217 220.781 102.289 220.781 102.289C220.781 102.289 216.365 97.7759 213.984 98.7157C213.75 98.8113 213.537 98.953 213.359 99.1323C213.18 99.3116 213.039 99.5249 212.944 99.7598C212.851 99.957 212.759 100.154 212.678 100.351C211.187 103.983 211.175 108.472 213.001 109.261C213.718 109.266 214.421 109.073 215.036 108.704L215.14 111.233C215.14 111.233 212.019 112.15 211.765 117.545C211.51 122.939 215.175 123.902 215.175 123.902Z" fill="#F3AFB1"/>
<path opacity="0.68" d="M212.678 100.352C214.26 100.796 215.806 101.362 217.302 102.045C219.717 103.356 219.244 103.751 219.983 103.136C220.723 102.521 216.203 99.5395 214.019 98.7158C213.785 98.8115 213.572 98.9531 213.393 99.1325C213.215 99.3118 213.074 99.5251 212.978 99.7599C212.851 99.9572 212.759 100.189 212.678 100.352Z" fill="#CC8F95"/>
<path d="M214.862 100.317C214.862 100.317 207.927 97.2657 211.88 92.9964C215.833 88.7271 220.839 90.3049 223.185 91.8362C225.532 93.3676 227.728 96.3492 228.167 101.825C229.323 116.512 225.855 124.54 220.238 130.469C214.62 136.397 215.07 112.579 218.538 108.426C222.006 104.273 221.59 102.741 214.862 100.317Z" fill="#241442"/>
<path d="M219.903 105.989C219.903 105.989 222.943 105.212 221.856 103.785C220.769 102.358 219.244 103.646 219.244 103.646L219.903 105.989Z" fill="#F3AFB1"/>
<path d="M217.914 109.772C216.319 112.949 215.215 116.353 214.643 119.865C215.219 117.931 216.214 116.148 217.556 114.644C218.164 113.997 218.532 113.159 218.597 112.272C218.662 111.385 218.421 110.502 217.914 109.772Z" fill="#241442"/>
<path d="M215.683 121.779C215.683 121.779 215.024 130.051 217.729 131.536C220.434 133.021 221.671 130.886 221.671 130.886C221.671 130.886 219.868 135.26 217.047 132.545C214.227 129.83 215.683 121.779 215.683 121.779Z" fill="#241442"/>
<path d="M213.903 257.839L213.198 261.9C213.198 261.9 207.916 267.921 203.858 266.749C199.801 265.577 201.627 264.986 201.627 264.986C204.519 264.272 207.367 263.393 210.158 262.352C212.077 261.412 210.297 260.809 210.297 260.809L210.147 256.981L213.903 257.839Z" fill="#F3AFB1"/>
<path d="M213.926 260.45C213.926 260.45 210.227 259.928 209.858 261.239C209.488 262.55 208.702 265.311 205.765 265.322C202.829 265.334 199.801 264.765 200.171 265.67C200.541 266.575 205.303 269.371 208.135 267.991C209.668 267.348 210.956 266.23 211.811 264.8L211.21 269.046L212.008 269.278C212.008 269.278 215.129 262.306 213.926 260.45Z" fill="#241442"/>
<path d="M234.803 255.321C234.803 255.321 234.583 263.349 230.711 265.043C226.838 266.737 227.867 265.124 227.867 265.124C229.64 262.719 231.272 260.213 232.757 257.618C233.635 255.669 231.878 256.354 231.878 256.354L234.803 255.321Z" fill="#E29CA1"/>
<path d="M234.444 253.744C234.444 253.744 231.265 255.716 231.809 256.958C232.352 258.199 233.496 260.844 231.277 262.758C229.057 264.673 226.329 266.158 227.185 266.61C228.04 267.062 233.496 266.158 234.791 263.28C235.565 261.807 235.845 260.123 235.589 258.477L237.831 262.12L238.582 261.784C238.582 261.784 236.49 254.394 234.444 253.744Z" fill="#241442"/>
<path d="M201.511 111.28L201.708 112.44L200.552 119.134L197.373 119.041L199.939 114.401C199.939 114.401 197.835 113.414 197.916 112.08C197.997 110.746 199.477 111.257 199.477 111.257L200.633 112.069C200.633 112.069 201.222 110.955 201.511 111.28Z" fill="#F3AFB1"/>
<path d="M201.974 110.723L199.858 112.509L199.095 114.528L198.009 114.11L198.829 111.929L199.558 109.899C199.558 109.899 202.378 110.038 201.974 110.723Z" fill="#FF0070"/>
<path d="M176.624 111.025L199.523 110.178L203.165 110.05H203.176V110.038L202.737 109.621L200.749 107.73L183.93 91.72L181.803 97.335L176.624 111.025Z" fill="white"/>
<path d="M176.601 111.083C177.422 111.396 179.733 107.312 181.756 101.964L181.999 101.326C183.698 96.6855 184.565 92.7294 184.091 91.8825C184.06 91.8097 184.002 91.7517 183.93 91.7201C183.109 91.4184 180.809 95.4905 178.786 100.839C176.763 106.187 175.78 110.769 176.601 111.083Z" fill="#CC0062"/>
<path d="M179.132 100.978C178.947 101.465 178.762 101.952 178.6 102.416C177.167 106.477 176.485 109.714 177.04 109.922C177.595 110.131 179.236 107.254 180.843 103.263C181.028 102.799 181.224 102.324 181.409 101.836C181.594 101.349 181.86 100.676 182.057 100.038C183.398 96.1516 184.033 93.0773 183.49 92.8916C182.947 92.706 181.398 95.3859 179.826 99.1912C179.595 99.7712 179.363 100.363 179.132 100.978Z" fill="#FF0070"/>
<path d="M200.448 110.189L202.043 110.793H202.124C202.384 110.857 202.658 110.821 202.892 110.691C203.126 110.562 203.303 110.348 203.388 110.094C203.472 109.839 203.458 109.562 203.348 109.317C203.238 109.073 203.041 108.879 202.795 108.774L201.257 108.194H201.199L200.91 108.971L200.448 110.189Z" fill="#FF0070"/>
<path opacity="0.3" d="M181.999 101.349L199.269 108.217L199.777 106.883H199.87L184.091 91.8826C184.565 92.7295 183.698 96.7087 181.999 101.349Z" fill="#C1C1C1"/>
<path opacity="0.25" d="M201.165 109.319L183.317 100.189C183.317 100.189 185.224 95.5484 184.646 93.0193L200.829 108.101C200.829 108.101 202.482 109.029 201.165 109.319Z" fill="#EFEFEF"/>
<path d="M200.494 111.361C200.494 111.361 201.13 112.962 200.124 113.136C199.118 113.31 198.02 112.811 197.916 111.976C197.812 111.141 199.107 110.004 200.494 111.361Z" fill="#F3AFB1"/>
<path opacity="0.25" d="M206.713 131.571C206.713 131.571 210.331 148.404 207.36 153.694C204.39 158.984 192.125 191.468 196.564 202.107C200.61 211.828 215.776 210.436 215.776 210.436C215.776 210.436 198.194 209.392 198.702 197.35C199.327 182.431 202.055 170.064 208.956 156.827C212.8 155.928 216.713 155.357 220.654 155.121C220.654 155.121 211.406 156.281 210.632 149.622C209.857 142.963 215.926 135.132 206.713 131.571Z" fill="#BC6C0C"/>
<path opacity="0.68" d="M215.036 108.704C215.232 108.704 217.926 107.034 217.775 107.741C217.029 108.997 216.145 110.164 215.14 111.222C215.209 111.141 215.036 108.704 215.036 108.704Z" fill="#CC8F95"/>
<path d="M225.601 128.902C225.601 128.902 233.381 140.666 236.513 138.589C239.646 136.513 230.918 123.183 230.918 123.183L225.601 128.902Z" fill="#E29CA1"/>
<path d="M251.032 127.638L251.136 130.155C251.136 130.155 236.941 142.569 233.138 137.893C230.965 135.248 231.67 132.615 233.254 131.571C234.042 131.064 234.898 130.673 235.797 130.41L237.82 130.039L251.032 127.638Z" fill="#E29CA1"/>
<path d="M251.032 127.638C251.032 127.638 254.384 122.869 255.656 123.125C256.928 123.38 255.009 125.851 255.009 125.851C256.104 126.267 257.02 127.055 257.598 128.078C258.442 129.703 252.003 131.976 250.604 130.201C249.206 128.426 251.032 127.638 251.032 127.638Z" fill="#E29CA1"/>
<path opacity="0.68" d="M251.032 127.638C251.032 127.638 241.068 132.278 237.38 132.545C235.969 132.396 234.583 132.068 233.253 131.571C234.041 131.064 234.898 130.673 235.796 130.41L237.819 130.039L251.032 127.638Z" fill="#CC8F95"/>
<path d="M224.018 127.522C224.018 127.522 223.636 131.617 228.584 132.591C230.456 128.856 234.363 128.38 234.121 126.942C233.878 125.503 230.653 121.361 226.896 119.308C226.896 122.637 224.018 127.522 224.018 127.522Z" fill="#F6BB36"/>
<path d="M260.028 106.405L256.723 106.001L253.146 135.541L256.45 135.945L260.028 106.405Z" fill="url(#paint25_linear)"/>
<g opacity="0.28">
<path style="mix-blend-mode:multiply" opacity="0.28" d="M256.692 105.995L256.14 110.556L259.445 110.959L259.997 106.399L256.692 105.995Z" fill="url(#paint26_linear)"/>
</g>
<path d="M244.761 87.0425L242.622 104.709C242.538 105.396 243.026 106.02 243.71 106.104L272.593 109.627C273.277 109.711 273.9 109.221 273.983 108.534L276.122 90.868C276.205 90.1811 275.718 89.5566 275.034 89.4731L246.151 85.9498C245.467 85.8663 244.844 86.3555 244.761 87.0425Z" fill="url(#paint27_linear)"/>
<path opacity="0.17" d="M268.371 89.5855C268.371 89.5855 274.035 89.4347 274.578 92.7527C275.122 96.0707 272.324 90.27 268.371 89.5855Z" fill="white"/>
<path d="M255.644 126.802C255.644 126.802 257.297 124.911 258.407 126.292C259.517 127.673 258.407 130.515 256.742 130.515C255.078 130.515 253.829 128.461 255.644 126.802Z" fill="#E29CA1"/>
<path d="M270.452 86.1278C270.452 86.1278 277.087 86.1279 278.197 88.3437C279.306 90.5596 277.757 95.4437 277.757 95.4437C277.757 95.4437 286.196 84.1208 270.452 86.1278Z" fill="white"/>
<path d="M233.358 140.921C233.358 140.921 237.982 142.081 240.155 140.747C239.257 141.64 238.054 142.155 236.791 142.187C235.528 142.22 234.3 141.767 233.358 140.921Z" fill="white"/>
<path d="M251.51 97.5374C251.531 97.348 251.481 97.1955 251.358 97.0799C251.236 96.9621 251.008 96.8276 250.673 96.6765C250.338 96.5231 250.075 96.3802 249.885 96.2478C249.366 95.886 249.136 95.4521 249.193 94.9462C249.223 94.6833 249.323 94.4577 249.493 94.2695C249.666 94.0793 249.897 93.9421 250.187 93.8578C250.479 93.7737 250.797 93.7515 251.143 93.791C251.49 93.8307 251.793 93.9297 252.05 94.0878C252.308 94.2437 252.498 94.4449 252.621 94.6915C252.747 94.9384 252.793 95.2078 252.76 95.4997L251.757 95.385C251.783 95.1622 251.732 94.9815 251.605 94.8428C251.479 94.702 251.289 94.617 251.035 94.588C250.79 94.56 250.594 94.5905 250.446 94.6797C250.298 94.7667 250.215 94.8949 250.196 95.0642C250.178 95.2225 250.242 95.3641 250.388 95.4892C250.536 95.6145 250.76 95.7417 251.059 95.8707C251.61 96.1075 252.001 96.3678 252.233 96.6517C252.465 96.9356 252.559 97.2669 252.516 97.6458C252.469 98.067 252.272 98.3797 251.926 98.5839C251.58 98.7859 251.137 98.8561 250.598 98.7945C250.224 98.7517 249.891 98.6447 249.599 98.4736C249.307 98.3003 249.093 98.0851 248.957 97.828C248.824 97.5712 248.775 97.2857 248.811 96.9715L249.817 97.0865C249.756 97.6236 250.046 97.9288 250.688 98.0022C250.927 98.0295 251.118 98.0028 251.263 97.9223C251.407 97.8395 251.49 97.7112 251.51 97.5374ZM254.646 99.2573C254.116 99.1967 253.702 98.9846 253.404 98.621C253.109 98.2576 252.993 97.8052 253.054 97.2637L253.065 97.1701C253.106 96.8068 253.213 96.4906 253.386 96.2214C253.559 95.95 253.782 95.752 254.056 95.6276C254.332 95.5011 254.635 95.4568 254.965 95.4945C255.459 95.551 255.831 95.7515 256.078 96.0959C256.328 96.4405 256.42 96.8991 256.355 97.4719L256.311 97.8663L254.008 97.603C254.012 97.8428 254.084 98.0429 254.224 98.2034C254.366 98.3641 254.557 98.4582 254.798 98.4857C255.17 98.5283 255.476 98.4267 255.716 98.181L256.13 98.7668C255.962 98.9552 255.748 99.0933 255.488 99.1809C255.227 99.2662 254.947 99.2917 254.646 99.2573ZM254.873 96.2763C254.681 96.2544 254.518 96.3012 254.383 96.4167C254.25 96.5324 254.153 96.7087 254.092 96.9456L255.436 97.0992L255.445 97.0224C255.465 96.8079 255.425 96.6364 255.327 96.5077C255.229 96.3769 255.078 96.2997 254.873 96.2763ZM256.76 97.5724C256.823 97.0175 257.006 96.5857 257.307 96.277C257.611 95.9686 257.986 95.84 258.434 95.8912C258.831 95.9366 259.124 96.1078 259.314 96.4049L259.393 96.0685L260.268 96.1687L259.871 99.6652C259.836 99.9817 259.732 100.249 259.56 100.466C259.391 100.684 259.169 100.839 258.895 100.932C258.62 101.024 258.308 101.051 257.958 101.011C257.693 100.981 257.44 100.897 257.201 100.762C256.961 100.628 256.786 100.47 256.676 100.289L257.17 99.7491C257.38 100.046 257.657 100.214 258 100.254C258.256 100.283 258.463 100.237 258.622 100.115C258.78 99.9953 258.873 99.8095 258.902 99.5577L258.924 99.3638C258.672 99.5902 258.365 99.6826 258.002 99.641C257.567 99.5914 257.234 99.3817 257.003 99.0122C256.775 98.6406 256.692 98.1741 256.756 97.6125L256.76 97.5724ZM257.718 97.753C257.681 98.0806 257.718 98.3455 257.828 98.5477C257.938 98.7478 258.108 98.8609 258.338 98.8871C258.632 98.9208 258.855 98.8345 259.007 98.6284L259.18 97.1075C259.076 96.872 258.88 96.7379 258.592 96.705C258.361 96.6785 258.167 96.7524 258.012 96.9265C257.859 97.1009 257.761 97.3764 257.718 97.753ZM262.26 100.128C261.73 100.067 261.316 99.8552 261.019 99.4916C260.724 99.1283 260.607 98.6759 260.668 98.1343L260.679 98.0407C260.72 97.6775 260.827 97.3613 261 97.0921C261.173 96.8206 261.396 96.6227 261.67 96.4982C261.946 96.3718 262.249 96.3274 262.579 96.3651C263.074 96.4217 263.445 96.6222 263.692 96.9665C263.942 97.3111 264.035 97.7698 263.97 98.3425L263.925 98.737L261.622 98.4736C261.626 98.7134 261.698 98.9136 261.838 99.074C261.98 99.2347 262.171 99.3289 262.412 99.3564C262.784 99.3989 263.09 99.2974 263.33 99.0517L263.745 99.6374C263.577 99.8259 263.362 99.9639 263.102 100.052C262.841 100.137 262.561 100.162 262.26 100.128ZM262.487 97.147C262.295 97.1251 262.132 97.1718 261.997 97.2873C261.864 97.4031 261.767 97.5794 261.707 97.8163L263.05 97.9699L263.059 97.893C263.079 97.6786 263.04 97.507 262.941 97.3784C262.843 97.2476 262.692 97.1704 262.487 97.147ZM266.647 97.8157C266.517 97.7828 266.402 97.7606 266.302 97.7492C265.937 97.7074 265.683 97.8037 265.541 98.038L265.273 100.405L264.307 100.294L264.717 96.6774L265.63 96.7817L265.608 97.216C265.839 96.9061 266.126 96.7708 266.47 96.81C266.577 96.8223 266.675 96.8482 266.765 96.8879L266.647 97.8157ZM268.802 100.808C268.768 100.716 268.748 100.605 268.742 100.473C268.479 100.707 268.16 100.803 267.785 100.76C267.431 100.719 267.148 100.583 266.938 100.351C266.729 100.12 266.643 99.848 266.678 99.5361C266.722 99.1527 266.897 98.8748 267.203 98.7021C267.511 98.5297 267.934 98.4731 268.471 98.5323L268.916 98.5831L268.94 98.3758C268.959 98.2087 268.93 98.07 268.855 97.9598C268.781 97.8498 268.652 97.7843 268.467 97.7631C268.305 97.7445 268.172 97.7689 268.07 97.8362C267.97 97.9037 267.912 98.0055 267.896 98.1414L266.93 98.0309C266.954 97.8215 267.041 97.635 267.19 97.4715C267.34 97.308 267.538 97.1896 267.786 97.1163C268.034 97.0408 268.305 97.0199 268.599 97.0535C269.044 97.1045 269.385 97.2574 269.62 97.5123C269.858 97.7652 269.953 98.0945 269.907 98.5L269.729 100.068C269.693 100.411 269.711 100.676 269.785 100.863L269.778 100.92L268.802 100.808ZM268.08 100.045C268.222 100.061 268.357 100.045 268.485 99.9966C268.612 99.9457 268.711 99.8701 268.781 99.7698L268.852 99.148L268.491 99.1067C268.007 99.0514 267.731 99.1892 267.662 99.5199L267.652 99.5763C267.638 99.6967 267.67 99.8007 267.745 99.8883C267.821 99.976 267.933 100.028 268.08 100.045Z" fill="white"/>
</g>
<defs>
<linearGradient id="paint0_linear" x1="62.0585" y1="126.268" x2="86.6985" y2="131.994" gradientUnits="userSpaceOnUse">
<stop stop-color="white"/>
<stop offset="0.06" stop-color="#FBFBFB"/>
<stop offset="0.51" stop-color="#DFDFDF"/>
<stop offset="0.78" stop-color="#BCBEC0"/>
<stop offset="1" stop-color="#E6E7E8"/>
</linearGradient>
<linearGradient id="paint1_linear" x1="237.095" y1="498.594" x2="271.003" y2="651.77" gradientUnits="userSpaceOnUse">
<stop stop-color="white"/>
<stop offset="0.06" stop-color="#FBFBFB"/>
<stop offset="0.51" stop-color="#DFDFDF"/>
<stop offset="0.78" stop-color="#BCBEC0"/>
<stop offset="1" stop-color="#E6E7E8"/>
</linearGradient>
<linearGradient id="paint2_linear" x1="754.869" y1="1310.52" x2="849.885" y2="1808.58" gradientUnits="userSpaceOnUse">
<stop stop-color="white"/>
<stop offset="0.06" stop-color="#FBFBFB"/>
<stop offset="0.51" stop-color="#DFDFDF"/>
<stop offset="0.78" stop-color="#BCBEC0"/>
<stop offset="1" stop-color="#E6E7E8"/>
</linearGradient>
<linearGradient id="paint3_linear" x1="-7187.89" y1="5039.77" x2="-7719.02" y2="5092.69" gradientUnits="userSpaceOnUse">
<stop stop-color="white"/>
<stop offset="0.06" stop-color="#FBFBFB"/>
<stop offset="0.51" stop-color="#DFDFDF"/>
<stop offset="0.78" stop-color="#BCBEC0"/>
<stop offset="1" stop-color="#E6E7E8"/>
</linearGradient>
<linearGradient id="paint4_linear" x1="-455.722" y1="410.525" x2="-471.035" y2="545.204" gradientUnits="userSpaceOnUse">
<stop stop-color="white"/>
<stop offset="0.06" stop-color="#FBFBFB"/>
<stop offset="0.51" stop-color="#DFDFDF"/>
<stop offset="0.78" stop-color="#BCBEC0"/>
<stop offset="1" stop-color="#E6E7E8"/>
</linearGradient>
<linearGradient id="paint5_linear" x1="-2612.59" y1="1339.47" x2="-2685.86" y2="1873.72" gradientUnits="userSpaceOnUse">
<stop stop-color="white"/>
<stop offset="0.06" stop-color="#FBFBFB"/>
<stop offset="0.51" stop-color="#DFDFDF"/>
<stop offset="0.78" stop-color="#BCBEC0"/>
<stop offset="1" stop-color="#E6E7E8"/>
</linearGradient>
<linearGradient id="paint6_linear" x1="-7080.18" y1="4469.71" x2="-7611.65" y2="4522.66" gradientUnits="userSpaceOnUse">
<stop stop-color="white"/>
<stop offset="0.06" stop-color="#FBFBFB"/>
<stop offset="0.51" stop-color="#DFDFDF"/>
<stop offset="0.78" stop-color="#BCBEC0"/>
<stop offset="1" stop-color="#E6E7E8"/>
</linearGradient>
<linearGradient id="paint7_linear" x1="-445.639" y1="348.501" x2="-461.274" y2="483.733" gradientUnits="userSpaceOnUse">
<stop stop-color="white"/>
<stop offset="0.06" stop-color="#FBFBFB"/>
<stop offset="0.51" stop-color="#DFDFDF"/>
<stop offset="0.78" stop-color="#BCBEC0"/>
<stop offset="1" stop-color="#E6E7E8"/>
</linearGradient>
<linearGradient id="paint8_linear" x1="-2569.68" y1="1150.26" x2="-2643.39" y2="1685.76" gradientUnits="userSpaceOnUse">
<stop stop-color="white"/>
<stop offset="0.06" stop-color="#FBFBFB"/>
<stop offset="0.51" stop-color="#DFDFDF"/>
<stop offset="0.78" stop-color="#BCBEC0"/>
<stop offset="1" stop-color="#E6E7E8"/>
</linearGradient>
<linearGradient id="paint9_linear" x1="65.7107" y1="167.186" x2="191.42" y2="167.186" gradientUnits="userSpaceOnUse">
<stop stop-color="#D49B28"/>
<stop offset="0.5" stop-color="#FFF4D9"/>
<stop offset="1" stop-color="#BF9337"/>
</linearGradient>
<linearGradient id="paint10_linear" x1="66.3928" y1="167.233" x2="190.599" y2="167.233" gradientUnits="userSpaceOnUse">
<stop stop-color="#F6BB36"/>
<stop offset="1" stop-color="#BC6C0C"/>
</linearGradient>
<linearGradient id="paint11_linear" x1="8901.98" y1="2187.53" x2="17899.3" y2="2187.53" gradientUnits="userSpaceOnUse">
<stop stop-color="#D49B28"/>
<stop offset="0.5" stop-color="#FFF4D9"/>
<stop offset="1" stop-color="#BF9337"/>
</linearGradient>
<linearGradient id="paint12_linear" x1="115.059" y1="167.21" x2="238.779" y2="167.21" gradientUnits="userSpaceOnUse">
<stop stop-color="#BC6C0C"/>
<stop offset="1" stop-color="#F6BB36"/>
</linearGradient>
<linearGradient id="paint13_linear" x1="147.009" y1="139.424" x2="166.328" y2="157.53" gradientUnits="userSpaceOnUse">
<stop stop-color="#916200"/>
<stop offset="0.09" stop-color="#AE8838"/>
<stop offset="0.19" stop-color="#C6A969"/>
<stop offset="0.28" stop-color="#DBC491"/>
<stop offset="0.38" stop-color="#EAD9B1"/>
<stop offset="0.47" stop-color="#F6E8C7"/>
<stop offset="0.55" stop-color="#FDF1D4"/>
<stop offset="0.63" stop-color="#FFF4D9"/>
<stop offset="1" stop-color="#BF9337"/>
</linearGradient>
<linearGradient id="paint14_linear" x1="2285.14" y1="3235.16" x2="2490.7" y2="3235.16" gradientUnits="userSpaceOnUse">
<stop stop-color="#F6BB36"/>
<stop offset="1" stop-color="#BC6C0C"/>
</linearGradient>
<linearGradient id="paint15_linear" x1="2033.34" y1="922.266" x2="2233.38" y2="922.266" gradientUnits="userSpaceOnUse">
<stop stop-color="#F6BB36"/>
<stop offset="1" stop-color="#BC6C0C"/>
</linearGradient>
<linearGradient id="paint16_linear" x1="-5748.51" y1="26893.2" x2="-5525.97" y2="26893.2" gradientUnits="userSpaceOnUse">
<stop stop-color="#D49B28"/>
<stop offset="0.5" stop-color="#FFF4D9"/>
<stop offset="1" stop-color="#BF9337"/>
</linearGradient>
<linearGradient id="paint17_linear" x1="2123.44" y1="1785.23" x2="2346.13" y2="1785.23" gradientUnits="userSpaceOnUse">
<stop stop-color="#F6BB36"/>
<stop offset="1" stop-color="#BC6C0C"/>
</linearGradient>
<linearGradient id="paint18_linear" x1="2258.12" y1="979.548" x2="2458.46" y2="979.548" gradientUnits="userSpaceOnUse">
<stop stop-color="#F6BB36"/>
<stop offset="1" stop-color="#BC6C0C"/>
</linearGradient>
<linearGradient id="paint19_linear" x1="-5508.29" y1="26889.1" x2="-5285.75" y2="26889.1" gradientUnits="userSpaceOnUse">
<stop stop-color="#D49B28"/>
<stop offset="0.5" stop-color="#FFF4D9"/>
<stop offset="1" stop-color="#BF9337"/>
</linearGradient>
<linearGradient id="paint20_linear" x1="2666.95" y1="1813.26" x2="2381.46" y2="1657.23" gradientUnits="userSpaceOnUse">
<stop stop-color="#F6BB36"/>
<stop offset="1" stop-color="#BC6C0C"/>
</linearGradient>
<linearGradient id="paint21_linear" x1="-14184.8" y1="51210.8" x2="-14432" y2="51544.3" gradientUnits="userSpaceOnUse">
<stop stop-color="#D49B28"/>
<stop offset="0.5" stop-color="#FFF4D9"/>
<stop offset="1" stop-color="#BF9337"/>
</linearGradient>
<linearGradient id="paint22_linear" x1="1776.44" y1="3095.44" x2="1571.45" y2="3217.8" gradientUnits="userSpaceOnUse">
<stop stop-color="#F6BB36"/>
<stop offset="1" stop-color="#BC6C0C"/>
</linearGradient>
<linearGradient id="paint23_linear" x1="-1822" y1="19763.7" x2="-1819.91" y2="19849.4" gradientUnits="userSpaceOnUse">
<stop stop-color="#D49B28"/>
<stop offset="0.5" stop-color="#FFF4D9"/>
<stop offset="1" stop-color="#BF9337"/>
</linearGradient>
<linearGradient id="paint24_linear" x1="161.076" y1="123.589" x2="133.255" y2="77.2138" gradientUnits="userSpaceOnUse">
<stop stop-color="#FFF200"/>
<stop offset="1" stop-color="#F6BB36"/>
</linearGradient>
<linearGradient id="paint25_linear" x1="518.357" y1="3990.94" x2="637.216" y2="4016" gradientUnits="userSpaceOnUse">
<stop stop-color="#F6BB36"/>
<stop offset="1" stop-color="#BC6C0C"/>
</linearGradient>
<linearGradient id="paint26_linear" x1="1246.88" y1="620.745" x2="1264.44" y2="644.837" gradientUnits="userSpaceOnUse">
<stop stop-color="#F6BB36"/>
<stop offset="1" stop-color="#BC6C0C"/>
</linearGradient>
<linearGradient id="paint27_linear" x1="4087.43" y1="3778.99" x2="5050.5" y2="4414.69" gradientUnits="userSpaceOnUse">
<stop stop-color="#FF9C00"/>
<stop offset="1" stop-color="#F6BB36"/>
</linearGradient>
<clipPath id="clip0">
<rect width="269" height="279" fill="white" transform="translate(11)"/>
</clipPath>
</defs>
</svg>
