<svg width="310" height="204" viewBox="0 0 310 204" fill="none" xmlns="http://www.w3.org/2000/svg">
<path d="M289.923 137.71C287.569 131.67 285.813 125.258 283.895 118.487C282.6 113.921 280.516 108.818 276.002 107.381C271.604 105.983 266.872 108.882 264.172 112.62C261.473 116.358 260.107 120.885 257.792 124.879C253.599 132.112 246.18 135.145 240.044 128.784C231.279 119.699 227.336 107.317 221.776 96.2373C217.743 88.1967 214.364 78.7775 209.279 71.3653C201.527 60.061 190.896 50.4238 176.764 50.4238C167.807 51.7832 159.914 59.7148 154.566 69.6341C149.225 79.5534 146.109 91.3449 143.454 103.111C138.626 124.508 135.087 144.769 131.554 166.634C131.554 166.634 309.877 166.185 309.883 166.185C309.171 166.192 304.798 160.35 303.965 159.543C297.117 152.913 293.007 145.629 289.923 137.71Z" fill="#1F1F20"/>
<path d="M256.074 147.905C255.721 154.836 248.181 166.955 241.25 166.608C234.318 166.262 230.619 153.573 230.971 146.642C231.324 139.71 238.704 105.022 245.635 105.368C252.567 105.714 256.427 140.973 256.074 147.905Z" fill="#EFAF3F"/>
<path d="M245.302 109.876L241.808 166.051" stroke="#2A294F" stroke-width="0.7798" stroke-miterlimit="10" stroke-linecap="round" stroke-linejoin="round"/>
<path d="M240.211 146.463C238.634 149.931 237.428 153.567 236.704 157.363C236.338 159.287 236.101 161.37 236.973 163.121C237.922 165.038 240.031 166.154 242.141 166.5C247.296 167.346 252.445 164.192 255.465 159.928C258.485 155.67 259.793 150.464 260.992 145.379C261.935 141.378 262.864 137.319 264.647 133.587C265.41 131.991 269.885 125.816 267.769 124.22C264.878 121.943 256.497 124.418 251.13 130.279C246.713 135.101 242.91 140.532 240.211 146.463Z" fill="#FFC957"/>
<path d="M242.141 166.493C242.141 166.493 248.36 142.275 263.383 128.387" stroke="#2A294F" stroke-width="0.7798" stroke-miterlimit="10" stroke-linecap="round" stroke-linejoin="round"/>
<path d="M276.65 140.749C276.117 141.705 275.117 142.352 274.213 142.865C273.097 143.493 271.905 144.045 270.757 144.584C269.282 145.27 267.756 145.981 266.345 146.866C265.32 147.514 264.403 148.238 263.64 149.021C264.852 146.27 266.262 143.872 267.929 141.724C270.122 138.903 272.373 137.473 274.623 137.473C274.675 137.473 274.726 137.473 274.777 137.473C275.476 137.492 276.015 137.665 276.387 137.986C277.15 138.64 277.118 139.903 276.65 140.749Z" fill="#FFC957"/>
<path d="M279.156 156.407C278.265 157.042 277.085 157.202 276.047 157.279C274.771 157.369 273.456 157.362 272.187 157.349C270.558 157.337 268.872 157.324 267.224 157.523C266.018 157.664 264.883 157.933 263.857 158.311C266.127 156.343 268.436 154.778 270.859 153.554C274.052 151.938 276.694 151.611 278.727 152.572C278.772 152.592 278.823 152.617 278.868 152.643C279.49 152.957 279.907 153.348 280.105 153.797C280.516 154.721 279.945 155.849 279.156 156.407Z" fill="#FFC957"/>
<path d="M273.232 164.114C272.495 164.012 271.828 163.537 271.277 163.088C270.597 162.537 269.949 161.915 269.321 161.319C268.513 160.549 267.686 159.754 266.769 159.081C266.102 158.587 265.41 158.189 264.724 157.895C266.775 157.978 268.654 158.279 270.437 158.811C272.777 159.504 274.252 160.581 274.81 162.011C274.822 162.043 274.835 162.075 274.848 162.114C275.008 162.562 275.034 162.947 274.925 163.268C274.694 163.909 273.88 164.204 273.232 164.114Z" fill="#FFC957"/>
<path d="M256.362 166.628C256.362 166.628 256.433 151.81 274.527 139.229" stroke="#2A294F" stroke-width="0.7798" stroke-miterlimit="10" stroke-linecap="round" stroke-linejoin="round"/>
<path d="M256.362 166.628C256.362 166.628 261.921 154.721 276.983 154.721" stroke="#2A294F" stroke-width="0.7798" stroke-miterlimit="10" stroke-linecap="round" stroke-linejoin="round"/>
<path d="M264.563 158.036C264.563 158.036 267.481 157.824 273.572 162.415" stroke="#2A294F" stroke-width="0.7798" stroke-miterlimit="10" stroke-linecap="round" stroke-linejoin="round"/>
<path d="M142 166.988C136.115 151.189 130.193 135.384 123.269 120.084C119.361 111.454 115.055 102.863 109.07 95.9626C103.086 89.0625 95.1601 83.9691 87.1985 84.0011C74.9402 85.6861 67.0237 94.2776 61.8333 103.798C58.4302 110.038 56.7783 117.598 54.3772 124.197C51.0644 133.282 49.3222 143.168 42.9584 151.112C38.4991 156.68 31.6478 155.257 27.0261 150.26C24.4806 147.499 22.6752 144.218 19.8228 141.701C16.9703 139.183 12.466 137.543 8.84623 139.131C5.11817 140.765 4.00788 144.891 3.50238 148.517C2.76219 153.893 2.10324 158.973 0.884622 163.849C0.622846 164.912 0.324963 165.957 0 167.001H142V166.988Z" fill="#1F1F20"/>
<path d="M63.4656 144.936C60.8495 141.923 57.541 139.319 56.5022 135.517C55.7392 132.741 56.3419 129.798 56.6369 126.932C56.9318 124.065 56.8292 120.898 54.9762 118.692C53.4501 116.871 51.0328 116.083 48.7117 115.582C46.3906 115.082 43.9669 114.768 41.9086 113.588C38.5616 111.671 39.2284 108.407 37.4331 105.548C35.4197 102.335 30.7262 98.238 26.7123 100.373C22.4547 102.63 23.128 109.491 25.9621 112.517C27.8408 114.524 30.2453 116.454 30.521 119.186C30.9378 123.302 26.2186 127.015 27.5138 130.945C28.4756 133.85 32.1304 134.844 33.9385 137.313C35.7275 139.755 35.3684 143.173 34.3104 146.007C33.2589 148.841 31.5982 151.464 30.9442 154.42C29.6041 160.46 34.3425 164.64 39.7478 165.987C44.7106 167.224 55.4186 166.641 55.4186 166.641C59.2401 165.307 63.4784 161.947 65.5751 158.28C67.1653 155.51 67.3833 151.996 66.1522 149.046C65.5239 147.52 64.5556 146.193 63.4656 144.936Z" fill="#FFC957"/>
<path d="M31.4639 106.882C31.4639 106.882 49.7444 135.12 51.7321 166.475" stroke="#2A294F" stroke-width="0.7798" stroke-miterlimit="10" stroke-linecap="round" stroke-linejoin="round"/>
<path d="M15.1842 144.969C15.4663 144.725 15.8767 144.597 16.4024 144.584C16.4409 144.584 16.4794 144.584 16.5179 144.584C18.217 144.584 19.9226 145.668 21.5769 147.803C22.84 149.425 23.9044 151.24 24.8213 153.317C24.2443 152.727 23.5518 152.176 22.7759 151.688C21.7115 151.022 20.5574 150.483 19.4417 149.964C18.5697 149.56 17.672 149.143 16.8256 148.662C16.1395 148.277 15.3829 147.784 14.9854 147.065C14.6263 146.424 14.6071 145.469 15.1842 144.969Z" fill="#FFC957"/>
<path d="M12.369 156.927C12.5229 156.587 12.837 156.292 13.3051 156.055C13.3372 156.036 13.3756 156.016 13.4077 156.004C14.9466 155.273 16.9471 155.523 19.358 156.747C21.1918 157.677 22.9359 158.857 24.6479 160.344C23.872 160.056 23.0128 159.857 22.1023 159.748C20.852 159.601 19.576 159.607 18.3449 159.613C17.3831 159.62 16.3957 159.626 15.4275 159.556C14.6452 159.498 13.7475 159.376 13.0807 158.902C12.4908 158.479 12.0612 157.626 12.369 156.927Z" fill="#FFC957"/>
<path d="M16.2861 164.083C16.2028 163.846 16.222 163.551 16.3439 163.211C16.3503 163.185 16.3631 163.159 16.3695 163.134C16.7927 162.05 17.902 161.236 19.6781 160.71C21.0246 160.313 22.448 160.082 23.9997 160.018C23.4804 160.242 22.9546 160.543 22.4544 160.915C21.762 161.428 21.1336 162.031 20.5245 162.608C20.05 163.063 19.5627 163.531 19.0497 163.948C18.6329 164.288 18.1328 164.647 17.5749 164.724C17.0748 164.795 16.4593 164.57 16.2861 164.083Z" fill="#FFC957"/>
<path d="M30.3223 166.628C30.3223 166.628 30.271 155.42 16.5879 145.911" stroke="#2A294F" stroke-width="0.7798" stroke-miterlimit="10" stroke-linecap="round" stroke-linejoin="round"/>
<path d="M30.3224 166.628C30.3224 166.628 26.1226 157.626 14.7285 157.626" stroke="#2A294F" stroke-width="0.7798" stroke-miterlimit="10" stroke-linecap="round" stroke-linejoin="round"/>
<path d="M24.122 160.133C24.122 160.133 21.9163 159.973 17.3125 163.448" stroke="#2A294F" stroke-width="0.7798" stroke-miterlimit="10" stroke-linecap="round" stroke-linejoin="round"/>
<path d="M118.813 38.5699C122.76 36.5514 128.807 40.2256 130.605 44.138C132.694 48.674 130.856 53.2441 130.625 53.7885C131.438 54.174 136.682 56.7369 138.55 63.2235C140.187 68.9163 138.56 75.3688 134.412 79.7008C134.733 79.8709 139.564 82.4904 140.237 88.2399C140.8 93.0822 138.168 98.0378 133.729 100.09C137.234 101.179 139.835 104.445 140.318 108.335C140.87 112.825 138.5 117.35 134.532 119.097C134.763 119.493 138.52 126.366 135.506 133.465C133.136 139.044 127.612 142.367 121.806 141.573C123.041 145.247 121.917 149.284 119.285 151.235C117.196 152.788 114.413 152.834 112.093 151.405C112.204 154.115 110.657 156.564 108.377 157.324C106.157 158.061 103.746 157.007 102.521 154.773C102.421 155.079 101.446 157.993 98.7846 158.855C96.5146 159.581 92.3964 158.538 90.9199 156.19L118.813 38.5699Z" fill="#D3DAF4"/>
<path d="M90.9194 156.167C87.7957 158.344 82.7133 156.745 81.1966 154.886C80.0515 153.479 79.7201 151.37 80.3127 149.42C77.9021 150.202 75.3408 149.431 73.7538 147.435C71.8353 145.008 71.6746 141.187 73.4926 138.329C70.3588 138.941 67.2853 137.297 65.9394 134.405C64.3021 130.89 65.4974 126.104 68.9325 123.825C64.5934 121.353 61.9819 116.227 62.3134 110.874C62.6147 105.987 65.3367 101.655 69.3544 99.591C66.9237 95.4405 66.7529 90.156 68.9325 86.0508C71.6746 80.8911 76.7771 80.188 77.3697 80.1199C75.8229 75.788 76.5059 70.889 79.1476 67.521C82.4622 63.2798 87.2432 63.5406 87.8358 63.586C84.3806 59.0499 84.0692 52.4726 86.9921 47.7324C90.146 42.6066 96.3634 40.7922 101.536 43.6499C102.31 39.7262 104.811 36.585 108.075 35.5077C111.862 34.2489 116.974 36.5056 118.832 38.5582L90.9194 156.167Z" fill="#DEE3F9"/>
<path d="M113.358 60.6376C110.677 58.8572 108.125 56.8046 105.695 54.582C103.184 52.2799 100.783 49.8418 98.523 47.2335C100.713 49.9212 103.053 52.45 105.504 54.8428C107.914 57.1902 110.466 59.3902 113.188 61.3067L107.131 85.4272C105.564 84.3159 104.017 83.1705 102.521 81.9231C100.823 80.5169 99.1457 79.0541 97.5286 77.5118C94.2843 74.4386 91.1706 71.184 88.2477 67.7026C91.0199 71.3314 94.0031 74.7675 97.1268 78.0221C98.6837 79.6551 100.311 81.22 101.968 82.7283C103.515 84.1458 105.132 85.4726 106.789 86.7654L101.777 106.701C97.3779 104.354 93.2196 101.406 89.2421 98.1509C85.0235 94.6695 80.9757 90.9045 77.1689 86.8334C80.8351 91.0633 84.7624 95.0097 88.8805 98.6839C92.8179 102.165 96.9661 105.363 101.446 107.972L96.3333 128.293C94.4048 127.136 92.4864 125.934 90.6483 124.596C88.4285 123.02 86.2489 121.342 84.1396 119.561C79.921 116.023 75.8732 112.167 72.1367 107.96C75.7326 112.326 79.6498 116.352 83.768 120.094C85.827 121.977 87.9564 123.746 90.1461 125.435C92.0344 126.921 94.0031 128.27 96.0019 129.563L84.1697 176.795L85.9074 177.317L117.316 44.8975L113.358 60.6376Z" fill="white"/>
<path d="M111.802 134.768C109.06 135.482 106.308 136.14 103.526 136.548C102.139 136.809 100.743 136.934 99.3471 137.115C98.4532 137.217 97.5693 137.285 96.6754 137.354L101.356 116.386C102.491 116.227 103.636 116.079 104.771 115.898C106.167 115.626 107.583 115.444 108.97 115.104C111.762 114.537 114.524 113.766 117.256 112.927C119.978 112.042 122.67 111.033 125.302 109.854C127.923 108.663 130.514 107.347 132.935 105.703C130.464 107.245 127.843 108.459 125.191 109.536C122.539 110.613 119.827 111.498 117.095 112.28C114.353 113.006 111.601 113.653 108.819 114.106C107.433 114.378 106.027 114.514 104.64 114.719C103.646 114.843 102.652 114.934 101.657 115.025L105.936 95.8712C108.045 95.2928 110.145 94.6805 112.204 93.932C114.424 93.1609 116.603 92.2423 118.753 91.2671C120.902 90.2805 123.001 89.1805 125.07 87.9898C127.13 86.7877 129.148 85.5176 131.067 84.0547C129.098 85.4269 127.029 86.5949 124.94 87.6949C122.841 88.7722 120.711 89.7702 118.542 90.6434C116.372 91.5052 114.183 92.3217 111.953 92.9681C110.074 93.5578 108.166 94.0227 106.258 94.4537L111.551 70.7527C115.107 69.5846 118.572 68.1104 121.907 66.3187C125.312 64.4929 128.606 62.4063 131.68 59.9568C128.556 62.3156 125.211 64.3001 121.786 66.0125C118.532 67.6455 115.157 68.9723 111.722 70.0042L117.326 44.8857L85.918 177.305L87.6556 177.827L96.3941 138.68C97.4287 138.556 98.4532 138.442 99.4878 138.283C100.894 138.034 102.3 137.864 103.686 137.535C106.479 137.002 109.241 136.231 111.973 135.403C114.695 134.53 117.377 133.509 120.008 132.318C122.63 131.116 125.211 129.79 127.622 128.145C125.151 129.699 122.539 130.912 119.898 132.001C117.226 133.101 114.534 134.008 111.802 134.768Z" fill="white"/>
<path d="M185.728 188.476H40.4478C36.4904 188.476 33.2461 184.813 33.2461 180.345C33.2461 175.877 36.4904 172.214 40.4478 172.214H185.728C189.685 172.214 192.93 175.877 192.93 180.345C192.93 184.824 189.685 188.476 185.728 188.476Z" fill="#5E5E63"/>
<path d="M187.365 194.542H271.295C277.673 194.542 282.886 188.657 282.886 181.456C282.886 174.255 277.673 168.369 271.295 168.369H187.365C180.987 168.369 175.774 174.255 175.774 181.456C175.774 188.645 180.987 194.542 187.365 194.542Z" fill="#414144"/>
<path d="M235.789 181.545H303.005C304.743 181.545 306.159 179.947 306.159 177.985C306.159 176.023 304.743 174.424 303.005 174.424H235.789C234.051 174.424 232.635 176.023 232.635 177.985C232.635 179.947 234.051 181.545 235.789 181.545Z" fill="#414144"/>
<path d="M276.709 176.183H209.493C207.755 176.183 206.339 177.782 206.339 179.743C206.339 180.288 206.459 180.809 206.66 181.274H187.496C185.758 181.274 184.342 182.873 184.342 184.835C184.342 186.797 185.758 188.396 187.496 188.396H254.712C256.45 188.396 257.866 186.797 257.866 184.835C257.866 184.291 257.745 183.769 257.544 183.304H276.709C278.446 183.304 279.863 181.705 279.863 179.743C279.863 177.782 278.446 176.183 276.709 176.183Z" fill="#5E5E63"/>
<path d="M130.867 180.412H198.083C199.821 180.412 201.237 178.813 201.237 176.851C201.237 174.889 199.821 173.29 198.083 173.29H130.867C129.129 173.29 127.713 174.889 127.713 176.851C127.713 178.813 129.129 180.412 130.867 180.412Z" fill="#C27700"/>
<path d="M104.49 204H171.706C173.444 204 174.86 202.401 174.86 200.439C174.86 198.477 173.444 196.878 171.706 196.878H104.49C102.752 196.878 101.336 198.477 101.336 200.439C101.336 202.389 102.762 204 104.49 204Z" fill="#5E5E63"/>
<path d="M4.8414 181.545H72.0576C73.7953 181.545 75.2115 179.947 75.2115 177.985C75.2115 176.023 73.7953 174.424 72.0576 174.424H4.8414C3.10374 174.424 1.6875 176.023 1.6875 177.985C1.6875 179.947 3.10374 181.545 4.8414 181.545Z" fill="#5E5E63"/>
<path d="M136.853 179.119H113.179C113.359 178.677 113.46 178.178 113.46 177.667C113.46 175.705 112.044 174.106 110.306 174.106H43.0797C41.342 174.106 39.9258 175.705 39.9258 177.667C39.9258 179.629 41.342 181.228 43.0797 181.228H66.754C66.5732 181.67 66.4728 182.169 66.4728 182.68C66.4728 184.641 67.889 186.24 69.6266 186.24H136.843C138.58 186.24 139.997 184.641 139.997 182.68C139.997 180.718 138.591 179.119 136.853 179.119Z" fill="#C27700"/>
<path d="M262.205 92.2988L256.67 47.5278C256.489 46.0989 255.395 45.0896 254.219 45.2711L234.241 48.4237C233.066 48.6051 232.253 49.9206 232.433 51.3494L237.968 96.1204C238.149 97.5493 239.243 98.5586 240.419 98.3771L260.397 95.2245C261.572 95.0318 262.385 93.7276 262.205 92.2988Z" fill="#FF006D"/>
<path d="M220.24 113.018L235.326 71.1384C235.808 69.8003 235.306 68.3034 234.211 67.8044L215.529 59.2312C214.434 58.7209 213.148 59.4013 212.666 60.7395L197.58 102.619C197.098 103.957 197.6 105.454 198.695 105.953L217.377 114.526C218.472 115.036 219.758 114.356 220.24 113.018Z" fill="#FF006D"/>
<path d="M242.729 76.4337C242.368 76.7739 242.317 77.3863 242.609 77.7945L242.89 78.1801L242.759 78.2935C242.488 78.543 242.448 78.9966 242.679 79.3028L243.975 81.0605C244.196 81.3667 244.597 81.412 244.869 81.1512L244.999 81.0378L245.28 81.4234C245.582 81.8316 246.114 81.8883 246.476 81.5481C246.827 81.8316 247.289 81.8543 247.661 81.5935L247.842 81.8429L248.565 81.1625L248.404 80.9357L249.127 80.2553L249.288 80.4821L250.011 79.8017L249.851 79.5749L250.574 78.8945L250.734 79.1213L251.458 78.4409L251.106 77.9533L251.428 77.6584C253.507 75.7193 256.289 75.0502 259.071 75.8213C262.737 76.8533 266.665 75.844 269.567 73.1224C274.64 68.3822 275.353 59.8657 271.154 54.1389C270.863 53.7533 270.562 53.3678 270.23 53.0162C266.323 48.741 260.156 48.0379 255.566 51.3492C251.869 54.0142 249.75 58.7317 250.041 63.6533C250.222 66.7038 249.087 69.6863 247.008 71.6368L246.687 71.9316L246.496 71.6708L246.335 71.444L245.612 72.1244L245.773 72.3512L245.049 73.0316L244.889 72.8048L244.166 73.4852L244.326 73.712L243.603 74.3925L243.442 74.1657L242.719 74.8461L242.9 75.0955C242.619 75.4698 242.548 75.9914 242.729 76.4337Z" fill="#FF5AB1"/>
<path d="M226.749 50.0463L225.474 51.0783L224.379 49.3432C223.957 48.6742 223.134 48.5154 222.541 48.9917L217.278 53.2329C216.685 53.7092 216.545 54.6391 216.966 55.3082L218.061 57.0432L216.776 58.0752C216.183 58.5514 216.042 59.4813 216.464 60.1504L241.474 99.6709C241.896 100.34 242.72 100.499 243.312 100.022L253.276 91.9823C253.869 91.506 254.01 90.5761 253.588 89.907L228.578 50.3865C228.166 49.7175 227.342 49.5587 226.749 50.0463Z" fill="#FF5AB1"/>
<path d="M98.6845 68.5637L96.2538 67.0328L98.7146 62.0658C99.1365 61.2153 98.8653 60.1493 98.112 59.673L94.9481 57.6772L103.174 38.7504C103.315 38.4215 103.204 38.036 102.923 37.8545C102.642 37.6731 102.29 37.7752 102.12 38.0813L92.1557 55.9081L88.9918 53.9122C88.2385 53.4359 87.2943 53.7421 86.8725 54.5926L84.4116 59.5596L81.9809 58.0287C81.2276 57.5524 80.2834 57.8586 79.8616 58.7091L63.0173 92.7183C62.5955 93.5688 62.8667 94.6348 63.62 95.1111L80.3236 105.646C81.0769 106.122 82.0211 105.816 82.4429 104.966L99.2872 70.9565C99.699 70.106 99.4378 69.04 98.6845 68.5637Z" fill="#FF006D"/>
<path d="M45.3901 88.9082L48.092 89.6793L46.8566 95.202C46.6457 96.1432 47.1479 97.0958 47.9816 97.334L51.497 98.3319L47.8912 119.016C47.8309 119.368 48.0217 119.719 48.3331 119.81C48.6445 119.901 48.9659 119.697 49.0563 119.357L54.5907 99.2164L58.1062 100.214C58.9398 100.453 59.7836 99.8855 59.9945 98.9443L61.2299 93.4216L63.9318 94.1927C64.7655 94.4309 65.6092 93.8639 65.8202 92.9226L74.2674 55.1485C74.4783 54.2073 73.9761 53.2547 73.1424 53.0166L54.5907 47.732C53.757 47.4939 52.9133 48.0609 52.7024 49.0021L44.2551 86.7763C44.0542 87.7062 44.5565 88.6701 45.3901 88.9082Z" fill="#FF006D"/>
<path d="M64.3831 104.841L67.4466 101.949L68.2903 103.083C68.5414 103.424 68.9934 103.469 69.3048 103.185L71.4743 101.144C71.7757 100.861 71.8158 100.35 71.5647 99.9988L70.721 98.8648L73.7845 95.9731C74.347 95.4401 74.4173 94.5102 73.9553 93.8751L61.0383 76.434L46.3536 56.6113C45.8816 55.9763 45.0579 55.8969 44.4954 56.4186L35.094 65.2866C34.5315 65.8196 34.4612 66.7494 34.9233 67.3845L49.608 87.2071L62.5249 104.648C62.9869 105.283 63.8206 105.374 64.3831 104.841Z" fill="#FF006D"/>
<path d="M189.144 71.0584L193.071 71.9089L192.82 73.3604C192.75 73.8027 193.001 74.2223 193.392 74.313L196.165 74.914C196.556 74.9934 196.928 74.7099 197.008 74.2676L197.26 72.8161L201.187 73.6666C201.9 73.8254 202.593 73.2924 202.734 72.4872L206.53 50.1584L210.849 24.7791C210.99 23.974 210.518 23.1915 209.805 23.0327L197.772 20.4245C197.059 20.2657 196.366 20.7987 196.225 21.6039L191.906 46.9832L188.109 69.312C187.969 70.1285 188.431 70.8996 189.144 71.0584Z" fill="#FF006D"/>
<path d="M275.152 71.8184L274.609 77.2049L265.248 170.126C264.796 174.606 261.441 177.985 257.444 177.985H212.626C208.628 177.985 205.274 174.606 204.822 170.126L195.46 77.2049L194.918 71.8184H275.152Z" fill="#F10067"/>
<path d="M275.152 71.8184L274.609 77.2049H195.45L194.918 71.8184H275.152Z" fill="#E6E7E8"/>
<path d="M277.131 73.7015H192.93C192.006 73.7015 191.263 72.8623 191.263 71.819C191.263 70.7757 192.006 69.9365 192.93 69.9365H277.131C278.055 69.9365 278.798 70.7757 278.798 71.819C278.798 72.8623 278.055 73.7015 277.131 73.7015Z" fill="#FF006D"/>
<path d="M236.703 86.8791L235.025 163.266L233.358 86.8791C233.338 85.8358 234.061 84.9739 234.985 84.9399C235.909 84.9172 236.672 85.7337 236.703 86.777C236.703 86.811 236.703 86.8451 236.703 86.8791Z" fill="#D30267"/>
<path d="M258.921 87.083L249.972 163.266L255.596 86.686C255.677 85.6427 256.48 84.8716 257.404 84.9623C258.328 85.0531 259.011 85.9603 258.931 87.0036C258.931 87.0149 258.921 87.0489 258.921 87.083Z" fill="#D30267"/>
<path d="M214.464 86.6747L220.089 163.255L211.14 87.0716C211.019 86.0396 211.662 85.0871 212.576 84.951C213.49 84.8149 214.334 85.5407 214.454 86.5726C214.464 86.6066 214.464 86.6407 214.464 86.6747Z" fill="#D30267"/>
<path d="M201.348 23.2031L161.592 28.6237C160.317 28.7938 159.403 30.0185 159.553 31.3453L161.974 53.9576C162.115 55.2844 163.26 56.2256 164.535 56.0555L204.29 50.6349C205.566 50.4648 206.48 49.2401 206.329 47.9133L203.909 25.301C203.758 23.9628 202.613 23.0216 201.348 23.2031Z" fill="#FF5AB1"/>
<path d="M113.138 71.8184L112.595 77.2049L103.234 170.126C102.782 174.606 99.4274 177.985 95.4298 177.985H50.6123C46.6147 177.985 43.2599 174.606 42.8079 170.126L33.4467 77.2049L32.9043 71.8184H113.138Z" fill="#F10067"/>
<path d="M113.138 71.8184L112.595 77.2049H33.4467L32.9043 71.8184H113.138Z" fill="#E6E7E8"/>
<path d="M115.116 73.7015H30.9154C29.9913 73.7015 29.248 72.8623 29.248 71.819C29.248 70.7757 29.9913 69.9365 30.9154 69.9365H115.116C116.041 69.9365 116.784 70.7757 116.784 71.819C116.794 72.8623 116.041 73.7015 115.116 73.7015Z" fill="#FF006D"/>
<path d="M74.6886 86.8791L73.0213 163.266L71.3539 86.8791C71.3338 85.8358 72.057 84.9739 72.9811 84.9399C73.9052 84.9172 74.6685 85.7337 74.6987 86.777C74.6987 86.811 74.6987 86.8451 74.6886 86.8791Z" fill="#D30267"/>
<path d="M96.9162 87.083L87.9668 163.266L93.5916 86.686C93.6719 85.6427 94.4755 84.8716 95.3996 84.9623C96.3236 85.0531 97.0066 85.9603 96.9263 87.0036C96.9162 87.0149 96.9162 87.0489 96.9162 87.083Z" fill="#D30267"/>
<path d="M52.4505 86.6747L58.0753 163.255L49.1259 87.0716C49.0053 86.0396 49.6482 85.0871 50.5622 84.951C51.4762 84.8149 52.3199 85.5407 52.4405 86.5726C52.4505 86.6066 52.4505 86.6407 52.4505 86.6747Z" fill="#D30267"/>
<path d="M180.854 15.2035L159.896 4.89746L145.806 41.421L166.765 51.727L180.854 15.2035Z" fill="#FF5AB1"/>
<path d="M160.065 2.1901L144.074 43.6384C143.562 44.9652 144.034 46.4735 145.119 47.0065L163.61 56.1013C164.695 56.6343 165.991 55.9992 166.503 54.6724L182.494 13.2241C183.006 11.8973 182.534 10.389 181.449 9.85605L162.957 0.761238C161.873 0.22825 160.577 0.874642 160.065 2.1901ZM166.774 51.724L145.812 41.4158L159.904 4.88906L180.866 15.1973L166.774 51.724Z" fill="#FF006D"/>
<path d="M173.483 9.38033L168.702 7.03291C168.541 6.95353 168.461 6.73807 168.531 6.55663C168.602 6.37518 168.793 6.28446 168.953 6.36385L173.734 8.71126C173.895 8.79064 173.975 9.0061 173.905 9.18755C173.835 9.38033 173.644 9.45971 173.483 9.38033Z" fill="white"/>
<path d="M156.569 49.944C156.248 50.7718 155.404 51.146 154.671 50.7831C153.937 50.4202 153.606 49.4677 153.927 48.6398C154.249 47.812 155.093 47.4378 155.826 47.8007C156.559 48.1635 156.89 49.1161 156.569 49.944Z" fill="#112B46"/>
<path d="M155.706 43.6265L128.968 9.96884C128.114 8.89153 126.708 8.7441 125.824 9.63998L110.808 24.8471C109.924 25.743 109.904 27.342 110.758 28.4193L137.495 62.0656C138.349 63.1429 139.755 63.2903 140.639 62.3945L155.655 47.1873C156.539 46.2914 156.559 44.7038 155.706 43.6265Z" fill="#FF5AB1"/>
<path d="M145.923 18.6219L141.986 19.4044L141.755 17.9529C141.684 17.5106 141.313 17.2158 140.921 17.2951L138.139 17.8508C137.747 17.9302 137.486 18.3498 137.556 18.792L137.787 20.2436L133.85 21.0261C133.137 21.1735 132.654 21.9446 132.785 22.7498L136.301 45.1353L140.298 70.5826C140.429 71.3878 141.112 71.9321 141.825 71.7847L153.888 69.3692C154.601 69.2218 155.083 68.4507 154.953 67.6455L150.965 42.2095L147.45 19.824C147.329 19.0188 146.636 18.4745 145.923 18.6219Z" fill="#FF006D"/>
<path d="M211.723 36.0283L211 43.2293L198.475 167.484C197.872 173.471 193.382 177.996 188.039 177.996H128.115C122.771 177.996 118.281 173.471 117.679 167.484L105.164 43.2293L104.44 36.0283H211.723Z" fill="#FF006D"/>
<path d="M211.723 36.0283L211 43.2293H105.164L104.44 36.0283H211.723Z" fill="#E05858"/>
<path d="M214.375 38.546H101.789C100.553 38.546 99.5488 37.412 99.5488 36.0171C99.5488 34.6223 100.553 33.4883 101.789 33.4883H214.375C215.61 33.4883 216.615 34.6223 216.615 36.0171C216.615 37.412 215.61 38.546 214.375 38.546Z" fill="#EC827D"/>
<path d="M160.316 56.1576L158.076 158.287L155.837 56.1576C155.806 54.7628 156.781 53.6061 158.016 53.5721C159.252 53.538 160.276 54.638 160.306 56.0329C160.316 56.0782 160.316 56.1236 160.316 56.1576Z" fill="#D30267"/>
<path d="M190.027 56.4291L178.064 158.298L185.588 55.8961C185.688 54.5013 186.773 53.4693 187.998 53.5827C189.224 53.6961 190.148 54.9209 190.047 56.3044C190.037 56.3384 190.037 56.3951 190.027 56.4291Z" fill="#D30267"/>
<path d="M130.586 55.8853L138.109 158.287L126.146 56.4183C125.985 55.0348 126.849 53.7647 128.065 53.5833C129.29 53.4018 130.415 54.3771 130.576 55.7492C130.576 55.8059 130.586 55.8513 130.586 55.8853Z" fill="#D30267"/>
<path d="M232.142 130.492H219.888C219.155 130.492 218.572 131.161 218.572 131.978V180.548C218.572 181.376 219.165 182.033 219.888 182.033H232.142C232.875 182.033 233.458 181.364 233.458 180.548V131.978C233.468 131.161 232.875 130.492 232.142 130.492Z" fill="#FBD15B"/>
<path d="M233.468 154.715H218.582V180.559C218.582 181.387 219.175 182.045 219.898 182.045H232.152C232.885 182.045 233.468 181.376 233.468 180.559V154.715Z" fill="#2D2D2D"/>
<path d="M227.431 128.213H224.609C224.217 128.213 223.896 128.576 223.896 129.018V130.492H228.154V129.018C228.154 128.576 227.833 128.213 227.431 128.213Z" fill="#BEE1F4"/>
<path d="M229.019 166.849H226.016V159.194L223.022 169.922H226.016V177.577L229.019 166.849Z" fill="#FBD15B"/>
<path d="M225.733 132.886V137.694H226.296V132.886" fill="#56548C"/>
<path d="M223.886 135.607H228.155V134.972H223.886" fill="#56548C"/>
<path d="M223.886 148.761H228.155V148.126H223.886" fill="#56548C"/>
<path d="M177.651 171.068V184.903C177.651 185.73 178.244 186.388 178.967 186.388H221.987C222.72 186.388 223.303 185.719 223.303 184.903V171.068C223.303 170.24 222.71 169.582 221.987 169.582H178.967C178.244 169.582 177.651 170.251 177.651 171.068Z" fill="#FBD15B"/>
<path d="M199.106 169.582V186.388H221.997C222.731 186.388 223.313 185.719 223.313 184.903V171.068C223.313 170.24 222.721 169.582 221.997 169.582H199.106Z" fill="#2D2D2D"/>
<path d="M175.623 176.386V179.572C175.623 180.015 175.944 180.378 176.336 180.378H177.642V175.569H176.336C175.944 175.581 175.623 175.944 175.623 176.386Z" fill="#BEE1F4"/>
<path d="M209.844 174.594V177.984H203.064L212.576 181.375V177.984H219.346L209.844 174.594Z" fill="#FBD15B"/>
<path d="M179.771 178.302H184.03V177.667H179.771" fill="#56548C"/>
<path d="M182.182 180.389V175.581H181.619V180.389" fill="#56548C"/>
<path d="M193.823 180.389V175.581H193.271V180.389" fill="#56548C"/>
<path d="M151.538 109.989H142.388V117.961H151.538V109.989Z" fill="#FBD15B"/>
<path d="M151.006 105.612H142.91C142.167 105.612 141.564 106.293 141.564 107.132V110.806H152.352V107.132C152.352 106.293 151.749 105.612 151.006 105.612Z" fill="#56548C"/>
<path d="M161.15 154.069V179.55C161.15 179.902 161.12 180.253 161.06 180.582C160.648 183.009 158.75 184.835 156.48 184.835H137.446C134.864 184.835 132.785 182.465 132.785 179.55V154.069C132.785 151.347 133.348 148.671 134.422 146.233C136.13 142.411 136.542 138.011 135.537 133.884C135.256 132.749 135.105 131.547 135.105 130.3C135.105 124.732 138.119 119.98 142.387 117.962H151.538C155.405 119.799 158.278 123.927 158.74 128.78C158.91 130.538 158.78 132.239 158.408 133.815C157.404 137.955 157.785 142.377 159.493 146.233C160.457 148.399 161.03 150.792 161.12 153.196C161.15 153.491 161.15 153.786 161.15 154.069Z" fill="#FBD15B"/>
<path d="M135.879 180.583C135.136 180.583 134.533 179.902 134.533 179.063V154.069C134.533 151.677 135.035 149.284 135.99 147.14C137.908 142.82 138.35 137.932 137.225 133.362C136.984 132.376 136.863 131.344 136.863 130.312C136.863 126.717 138.39 123.303 140.941 121.171C141.534 120.673 142.378 120.82 142.82 121.489C143.262 122.158 143.131 123.111 142.538 123.61C140.67 125.175 139.545 127.681 139.545 130.312C139.545 131.071 139.636 131.82 139.816 132.546C141.122 137.842 140.61 143.5 138.39 148.49C137.627 150.214 137.225 152.141 137.225 154.058V179.052C137.225 179.902 136.622 180.583 135.879 180.583Z" fill="#F9E3AC"/>
<path d="M161.15 154.069V179.55C161.15 179.902 161.12 180.253 161.06 180.582H139.395V153.207H161.13C161.15 153.491 161.15 153.785 161.15 154.069Z" fill="#F9FBFC"/>
<path d="M161.149 157.221H143.592V162.913H161.149V157.221Z" fill="#F9E3AC"/>
<path d="M161.149 166.736H143.592V168.358H161.149V166.736Z" fill="#F9E3AC"/>
<path d="M161.149 174.164H143.592V175.786H161.149V174.164Z" fill="#F9E3AC"/>
<path d="M161.149 170.591H143.592V172.212H161.149V170.591Z" fill="#F9E3AC"/>
<path d="M274.971 164.593C274.821 164.117 274.64 163.64 274.439 163.187C272.028 157.675 266.424 154.681 261.12 156.054C256.842 157.165 253.447 160.805 252.261 165.545C251.528 168.494 249.569 170.875 247.038 171.919L246.044 172.327L248.414 179.687L249.409 179.278C251.95 178.235 254.772 178.655 257.153 180.446C260.307 182.805 264.294 183.338 267.84 181.875C274.027 179.335 277.231 171.578 274.971 164.593Z" fill="#FBD15B"/>
<path d="M242.438 180.321L241.102 176.182C240.911 175.592 241.183 174.946 241.695 174.742L244.919 173.415L246.938 179.675L243.714 181.002C243.201 181.206 242.629 180.911 242.438 180.321Z" fill="#56548C"/>
<path d="M241.334 179.528L240.711 177.611C240.57 177.169 240.771 176.692 241.153 176.534L244.608 175.116L245.743 178.62L242.288 180.038C241.896 180.185 241.474 179.958 241.334 179.528Z" fill="#56548C"/>
<path d="M247.39 175.944C247.32 175.729 247.38 175.479 247.551 175.343L260.98 164.162C261.131 164.037 261.342 164.026 261.502 164.139C261.663 164.252 261.743 164.468 261.713 164.683L260.729 170.455L264.777 174.152C264.927 174.288 264.988 174.515 264.927 174.719C264.867 174.923 264.706 175.071 264.516 175.082L247.862 176.273C247.651 176.307 247.46 176.16 247.39 175.944ZM260.568 165.806L249.379 175.116L263.25 174.118L259.915 171.068C259.785 170.943 259.714 170.75 259.755 170.558L260.568 165.806Z" fill="#D8EDF8"/>
<path d="M243.373 180.582L241.665 175.298C241.424 174.549 241.766 173.722 242.429 173.449L246.537 171.76L249.118 179.755L245.01 181.444C244.347 181.716 243.614 181.331 243.373 180.582Z" fill="#56548C"/>
<path d="M247.447 180.772L244.692 172.237L243.805 172.602L246.56 181.137L247.447 180.772Z" fill="#7876A3"/>
<path d="M249.19 180.02L246.437 171.485L245.549 171.85L248.303 180.385L249.19 180.02Z" fill="#7876A3"/>
<path d="M245.657 181.476L242.903 172.941L242.016 173.306L244.77 181.841L245.657 181.476Z" fill="#7876A3"/>
<path d="M107.927 174.98H126.649L130.305 117.599H104.271L107.927 174.98Z" fill="#FF63A6"/>
<path d="M107.937 183.851H126.649V174.971H107.937V183.851Z" fill="#A80050"/>
<path d="M114.998 183.854H119.578V179.738H114.998V183.854Z" fill="#FBD15B"/>
<path d="M104.27 121.783H130.305L130.867 117.599H103.768L104.27 121.783Z" fill="#A80050"/>
<path d="M108.7 133.804H125.876L124.63 155.531H109.946L108.7 133.804Z" fill="#EFC04B"/>
<path d="M110.297 171.782C109.594 171.782 109.002 171.17 108.961 170.365L106.591 128.542C106.541 127.703 107.103 126.988 107.847 126.932C108.58 126.864 109.223 127.51 109.273 128.349L111.643 170.172C111.693 171.011 111.131 171.725 110.388 171.782C110.358 171.782 110.327 171.782 110.297 171.782Z" fill="#FBD15B"/>
<path d="M97.1175 139.554H78.5156C77.5111 139.554 76.6875 140.472 76.6875 141.618V179.97C76.6875 181.104 77.5011 182.034 78.5156 182.034H97.1075C98.1119 182.034 98.9355 181.115 98.9355 179.97V141.618C98.9456 140.484 98.122 139.554 97.1175 139.554Z" fill="#FF63A6"/>
<path d="M94.6069 139.553H81.0371V134.166C81.0371 133.032 81.8507 132.103 82.8652 132.103H92.7889C93.7933 132.103 94.617 133.021 94.617 134.166V139.553H94.6069Z" fill="#A80050"/>
<path d="M87.8168 110.409C87.4953 110.409 87.2342 110.693 87.2141 111.056L86.2197 132.114H89.4138L88.4194 111.056C88.3993 110.693 88.1382 110.409 87.8168 110.409Z" fill="#A80050"/>
<path d="M80.8247 141.571H78.1328V179.221H80.8247V141.571Z" fill="#F9FBFC"/>
<path d="M98.9456 154.114H85.4863V159.059H98.9456V154.114Z" fill="#F9FBFC"/>
<path d="M98.9456 164.139H85.4863V165.443H98.9456V164.139Z" fill="#F9FBFC"/>
<path d="M98.9456 167.212H85.4863V168.516H98.9456V167.212Z" fill="#F9FBFC"/>
<path d="M79.068 202.015H66.9748C65.1567 202.015 63.6602 200.336 63.6602 198.273C63.6602 196.22 65.1467 194.53 66.9748 194.53H79.068C80.8861 194.53 82.3827 196.209 82.3827 198.273C82.3726 200.336 80.8861 202.015 79.068 202.015Z" fill="#5E5E63"/>
</svg>
