<svg width="316" height="264" viewBox="0 0 316 264" fill="none" xmlns="http://www.w3.org/2000/svg">
<path d="M295.923 173.71C293.569 167.67 291.813 161.258 289.895 154.487C288.6 149.921 286.516 144.818 282.002 143.381C277.604 141.983 272.872 144.882 270.172 148.62C267.473 152.358 266.107 156.885 263.792 160.879C259.599 168.112 252.18 171.145 246.044 164.784C237.279 155.699 233.336 143.317 227.776 132.237C223.743 124.197 220.364 114.778 215.279 107.365C207.527 96.061 196.896 86.4238 182.764 86.4238C173.807 87.7832 165.914 95.7148 160.566 105.634C155.225 115.553 152.109 127.345 149.454 139.111C144.626 160.508 141.087 180.769 137.554 202.634C137.554 202.634 315.877 202.185 315.883 202.185C315.171 202.192 310.798 196.35 309.965 195.543C303.117 188.913 299.007 181.629 295.923 173.71Z" fill="#1F1F20"/>
<path d="M262.074 183.905C261.721 190.836 254.181 202.955 247.25 202.608C240.318 202.262 236.619 189.573 236.971 182.642C237.324 175.71 244.704 141.022 251.635 141.368C258.567 141.714 262.427 176.973 262.074 183.905Z" fill="#EFAF3F"/>
<path d="M251.302 145.876L247.808 202.051" stroke="#2A294F" stroke-width="0.7798" stroke-miterlimit="10" stroke-linecap="round" stroke-linejoin="round"/>
<path d="M246.211 182.463C244.634 185.931 243.428 189.567 242.704 193.363C242.338 195.287 242.101 197.37 242.973 199.121C243.922 201.038 246.031 202.154 248.141 202.5C253.296 203.346 258.445 200.192 261.465 195.928C264.485 191.67 265.793 186.464 266.992 181.379C267.935 177.378 268.864 173.319 270.647 169.587C271.41 167.991 275.885 161.816 273.769 160.22C270.878 157.943 262.497 160.418 257.13 166.279C252.713 171.101 248.91 176.532 246.211 182.463Z" fill="#FFC957"/>
<path d="M248.141 202.493C248.141 202.493 254.36 178.275 269.383 164.387" stroke="#2A294F" stroke-width="0.7798" stroke-miterlimit="10" stroke-linecap="round" stroke-linejoin="round"/>
<path d="M282.65 176.749C282.117 177.705 281.117 178.352 280.213 178.865C279.097 179.493 277.905 180.045 276.757 180.584C275.282 181.27 273.756 181.981 272.345 182.866C271.32 183.514 270.403 184.238 269.64 185.021C270.852 182.27 272.262 179.872 273.929 177.724C276.122 174.903 278.373 173.473 280.623 173.473C280.675 173.473 280.726 173.473 280.777 173.473C281.476 173.492 282.015 173.665 282.387 173.986C283.15 174.64 283.118 175.903 282.65 176.749Z" fill="#FFC957"/>
<path d="M285.156 192.407C284.265 193.042 283.085 193.202 282.047 193.279C280.771 193.369 279.456 193.362 278.187 193.349C276.558 193.337 274.872 193.324 273.224 193.523C272.018 193.664 270.883 193.933 269.857 194.311C272.127 192.343 274.436 190.778 276.859 189.554C280.052 187.938 282.694 187.611 284.727 188.572C284.772 188.592 284.823 188.617 284.868 188.643C285.49 188.957 285.907 189.348 286.105 189.797C286.516 190.721 285.945 191.849 285.156 192.407Z" fill="#FFC957"/>
<path d="M279.232 200.114C278.495 200.012 277.828 199.537 277.277 199.088C276.597 198.537 275.949 197.915 275.321 197.319C274.513 196.549 273.686 195.754 272.769 195.081C272.102 194.587 271.41 194.189 270.724 193.895C272.775 193.978 274.654 194.279 276.437 194.811C278.777 195.504 280.252 196.581 280.81 198.011C280.822 198.043 280.835 198.075 280.848 198.114C281.008 198.562 281.034 198.947 280.925 199.268C280.694 199.909 279.88 200.204 279.232 200.114Z" fill="#FFC957"/>
<path d="M262.362 202.628C262.362 202.628 262.433 187.81 280.527 175.229" stroke="#2A294F" stroke-width="0.7798" stroke-miterlimit="10" stroke-linecap="round" stroke-linejoin="round"/>
<path d="M262.362 202.628C262.362 202.628 267.921 190.721 282.983 190.721" stroke="#2A294F" stroke-width="0.7798" stroke-miterlimit="10" stroke-linecap="round" stroke-linejoin="round"/>
<path d="M270.563 194.036C270.563 194.036 273.481 193.824 279.572 198.415" stroke="#2A294F" stroke-width="0.7798" stroke-miterlimit="10" stroke-linecap="round" stroke-linejoin="round"/>
<path d="M148 202.988C142.115 187.189 136.193 171.384 129.269 156.084C125.361 147.454 121.055 138.863 115.07 131.963C109.086 125.062 101.16 119.969 93.1985 120.001C80.9402 121.686 73.0237 130.278 67.8333 139.798C64.4302 146.038 62.7783 153.598 60.3772 160.197C57.0644 169.282 55.3222 179.168 48.9584 187.112C44.4991 192.68 37.6478 191.257 33.0261 186.26C30.4806 183.499 28.6752 180.218 25.8228 177.701C22.9703 175.183 18.466 173.543 14.8462 175.131C11.1182 176.765 10.0079 180.891 9.50238 184.517C8.76219 189.893 8.10324 194.973 6.88462 199.849C6.62285 200.912 6.32496 201.957 6 203.001H148V202.988Z" fill="#1F1F20"/>
<path d="M69.4656 180.936C66.8495 177.923 63.541 175.319 62.5022 171.517C61.7392 168.741 62.3419 165.798 62.6369 162.932C62.9318 160.065 62.8292 156.898 60.9762 154.692C59.4501 152.871 57.0328 152.083 54.7117 151.582C52.3906 151.082 49.9669 150.768 47.9086 149.588C44.5616 147.671 45.2284 144.407 43.4331 141.548C41.4197 138.335 36.7262 134.238 32.7123 136.373C28.4547 138.63 29.128 145.491 31.9621 148.517C33.8408 150.524 36.2453 152.454 36.521 155.186C36.9378 159.302 32.2186 163.015 33.5138 166.945C34.4756 169.85 38.1304 170.844 39.9385 173.313C41.7275 175.755 41.3684 179.173 40.3104 182.007C39.2589 184.841 37.5982 187.464 36.9442 190.42C35.6041 196.46 40.3425 200.64 45.7478 201.987C50.7106 203.224 61.4186 202.641 61.4186 202.641C65.2401 201.307 69.4784 197.947 71.5751 194.28C73.1653 191.51 73.3833 187.996 72.1522 185.046C71.5239 183.52 70.5556 182.193 69.4656 180.936Z" fill="#FFC957"/>
<path d="M37.4639 142.882C37.4639 142.882 55.7444 171.12 57.7321 202.475" stroke="#2A294F" stroke-width="0.7798" stroke-miterlimit="10" stroke-linecap="round" stroke-linejoin="round"/>
<path d="M21.1842 180.969C21.4663 180.725 21.8767 180.597 22.4024 180.584C22.4409 180.584 22.4794 180.584 22.5179 180.584C24.217 180.584 25.9226 181.668 27.5769 183.803C28.84 185.425 29.9044 187.24 30.8213 189.317C30.2443 188.727 29.5518 188.176 28.7759 187.688C27.7115 187.022 26.5574 186.483 25.4417 185.964C24.5697 185.56 23.672 185.143 22.8256 184.662C22.1395 184.277 21.3829 183.784 20.9854 183.065C20.6263 182.424 20.6071 181.469 21.1842 180.969Z" fill="#FFC957"/>
<path d="M18.369 192.927C18.5229 192.587 18.837 192.292 19.3051 192.055C19.3372 192.036 19.3756 192.016 19.4077 192.004C20.9466 191.273 22.9471 191.523 25.358 192.747C27.1918 193.677 28.9359 194.857 30.6479 196.344C29.872 196.056 29.0128 195.857 28.1023 195.748C26.852 195.601 25.576 195.607 24.3449 195.613C23.3831 195.62 22.3957 195.626 21.4275 195.556C20.6452 195.498 19.7475 195.376 19.0807 194.902C18.4908 194.479 18.0612 193.626 18.369 192.927Z" fill="#FFC957"/>
<path d="M22.2861 200.083C22.2028 199.846 22.222 199.551 22.3439 199.211C22.3503 199.185 22.3631 199.159 22.3695 199.134C22.7927 198.05 23.902 197.236 25.6781 196.71C27.0246 196.313 28.448 196.082 29.9997 196.018C29.4804 196.242 28.9546 196.543 28.4544 196.915C27.762 197.428 27.1336 198.031 26.5245 198.608C26.05 199.063 25.5627 199.531 25.0497 199.948C24.6329 200.288 24.1328 200.647 23.5749 200.724C23.0748 200.795 22.4593 200.57 22.2861 200.083Z" fill="#FFC957"/>
<path d="M36.3223 202.628C36.3223 202.628 36.271 191.42 22.5879 181.911" stroke="#2A294F" stroke-width="0.7798" stroke-miterlimit="10" stroke-linecap="round" stroke-linejoin="round"/>
<path d="M36.3224 202.628C36.3224 202.628 32.1226 193.626 20.7285 193.626" stroke="#2A294F" stroke-width="0.7798" stroke-miterlimit="10" stroke-linecap="round" stroke-linejoin="round"/>
<path d="M30.122 196.133C30.122 196.133 27.9163 195.973 23.3125 199.448" stroke="#2A294F" stroke-width="0.7798" stroke-miterlimit="10" stroke-linecap="round" stroke-linejoin="round"/>
<path d="M43.5558 57.8256C47.2526 56.7109 51.1143 55.7689 51.491 54.6306C51.9227 53.351 48.3515 50.7054 44.898 48.4524C45.3532 43.5067 46.0596 37.7289 44.898 37.1245C43.7364 36.52 39.6079 40.4608 35.864 43.6245C31.6805 41.8503 27.0811 40.6414 26.1 41.8974C25.2602 42.9886 26.8849 46.741 28.2584 50.8075C24.0672 55.1722 21.6105 59.0424 22.3012 59.9531C23.0861 61.005 27.0105 61.0913 32.3006 60.2985C35.0398 65.7936 38.25 68.9338 39.5843 68.5412C40.9186 68.1487 42.3628 64.1137 43.5558 57.8256Z" fill="url(#paint0_linear)"/>
<path d="M189.105 160.287C191.954 162.493 194.764 164.895 195.926 164.746C197.237 164.573 197.621 161.08 197.778 157.775C202.221 156.268 207.511 154.635 207.432 153.599C207.354 152.562 201.86 151.079 197.229 149.587C196.585 145.96 195.235 142.247 193.657 142.012C192.292 141.815 189.921 144.367 187.19 146.84C181.303 145.474 176.743 145.152 176.319 145.976C175.841 146.942 177.771 149.736 181.193 153.206C177.905 157.194 176.932 160.617 177.936 161.433C178.941 162.25 183.132 161.755 189.105 160.287Z" fill="url(#paint1_linear)"/>
<path d="M152.852 71.4847C152.852 71.4847 144.791 44.9665 154.752 43.6477C164.712 42.3288 160.191 55.1876 160.191 55.1876C160.191 55.1876 169.052 47.2117 172.71 53.3506C176.367 59.4895 152.852 71.4847 152.852 71.4847Z" fill="url(#paint2_linear)"/>
<path d="M187.262 75.0961C197.034 86.8715 197.779 108.672 179.005 111.411C173.071 112.275 165.466 107.675 167.043 117.032C168.276 124.309 172.844 132.78 166.839 139.241C161.8 144.642 154.744 142.915 148.622 140.74C142.343 138.503 139.714 137.843 139.878 145.968C140.2 161.583 131.896 160.052 120.029 157.092C122.383 157.61 118.302 156.307 116.505 159.746C114.809 162.98 114.236 166.677 112.525 169.951C107.588 179.285 94.0097 172.306 86.8438 169.715C94.7397 172.589 101.199 173.743 104.731 164.683C105.744 162.077 106.733 155.043 109.864 154.07C113.53 152.932 118.639 155.287 121.991 156.527C136.292 161.81 121.598 131.406 141.244 136.422C145.875 137.592 150.859 142.051 155.309 138.778C158.158 136.674 159.312 132.992 159.681 129.616C160.168 125.079 154.587 111.804 158.449 108.994C162.593 105.995 167.349 111.678 171.062 109.347C174.986 106.874 179.099 105.249 181.901 101.285C188.133 92.4609 183.808 81.0466 178.424 72.9766C180.174 75.5593 185.245 72.6782 187.262 75.0961Z" fill="url(#paint3_linear)"/>
<g style="mix-blend-mode:multiply" opacity="0.3">
<path d="M189.64 106.175C187.725 105.209 185.881 104.087 184.146 103.09C183.361 102.611 182.435 102.156 181.525 101.692C178.738 105.311 174.845 106.921 171.054 109.291C170.459 109.617 169.8 109.811 169.123 109.861C168.447 109.911 167.767 109.816 167.13 109.582C168.048 110.076 168.974 110.563 169.877 111.066C172.349 110.814 175.913 111.851 179.021 111.411C183.73 110.72 187.223 108.82 189.64 106.175Z" fill="#B14026"/>
</g>
<g style="mix-blend-mode:multiply" opacity="0.3">
<path d="M155.308 138.723C150.858 142.02 145.889 137.561 141.243 136.368C140.17 136.081 139.071 135.902 137.962 135.834C139.807 136.744 141.525 137.893 143.072 139.249C144.437 139.249 146.274 139.885 148.621 140.717C154.468 142.797 161.179 144.446 166.155 139.861C165.602 138.336 164.748 136.937 163.643 135.748C162.322 134.461 160.77 133.435 159.067 132.726C158.522 135.09 157.198 137.202 155.308 138.723Z" fill="#B14026"/>
</g>
<g style="mix-blend-mode:multiply" opacity="0.3">
<path d="M121.99 156.495C121.064 156.15 120.004 155.71 118.851 155.31C119.588 155.961 120.303 156.636 120.985 157.335C127.877 159.031 133.481 160.067 136.746 157.209C135.435 156.518 134.117 155.843 132.735 155.2C131.487 154.619 130.098 154.022 128.811 153.292C128.057 156.361 126.401 158.12 121.99 156.495Z" fill="#B14026"/>
</g>
<g style="mix-blend-mode:multiply" opacity="0.3">
<path d="M101.757 169.409C98.0755 173.02 92.8874 171.851 86.8438 169.653C92.8481 171.835 103.326 177.079 109.511 173.217C106.811 172.198 104.214 170.923 101.757 169.409Z" fill="#B14026"/>
</g>
<path d="M112.94 202.254C115.883 201.618 120.231 203.478 123.057 204.373C126.887 205.574 127.876 208.518 128.763 212.09C131.29 209.036 132.931 204.625 137.538 204.687C141.313 204.734 145.159 206.257 148.801 207.184C155.669 208.024 154.005 217.593 155.747 222.712C158.322 220.113 160.245 213.119 164.546 213.001C168.125 212.899 172.858 214.877 175.84 216.243C185.73 220.765 188.767 232.352 190.533 242.149C190.243 240.579 183.532 241.364 182.284 240.312C181.036 239.26 180.715 234.299 180.283 232.705C179.38 229.389 178.102 226.187 176.476 223.159C175.09 220.596 173.225 218.323 170.982 216.463C168.462 218.245 167.246 221.338 165.551 223.795C161.791 229.243 155.983 226.048 150.716 224.768C147.318 224.666 145.426 217.091 145.222 213.652C145.128 212.184 144.971 206.807 142.726 208.118C140.654 209.335 139.288 211.486 138.017 213.472C135.152 218.041 131 216.502 126.762 215.615C124.407 215.12 121.558 214.485 120.255 212.231C119.117 210.277 119.14 207.914 118.403 205.818C115.828 207.27 113.583 209.523 110.601 210.128C106.857 210.913 103.027 208.62 99.3848 208.079C104.785 208.856 108.066 203.298 112.94 202.254Z" fill="#7CDE3E"/>
<path d="M115.028 202.175C114.332 202.098 113.629 202.124 112.941 202.254C108.066 203.298 104.786 208.856 99.4248 208.055C103.067 208.597 106.897 210.866 110.641 210.104C113.529 209.515 115.97 207.247 118.443 205.794C118.317 205.386 116.237 202.568 115.028 202.175Z" fill="url(#paint4_linear)"/>
<path d="M138.058 213.449C139.306 211.462 140.546 209.288 142.767 208.299C143.173 208.14 143.613 208.084 144.046 208.134C141.692 205.779 138.246 205.08 136.001 204.853C132.862 205.638 131.292 208.778 129.377 211.321C128.113 212.93 127.116 214.014 125.452 214.516C124.959 214.664 124.455 214.774 123.945 214.846C124.886 215.154 125.846 215.403 126.818 215.592C131.041 216.51 135.193 218.017 138.058 213.449Z" fill="url(#paint5_linear)"/>
<path d="M165.567 223.773C167.246 221.347 168.455 218.277 170.912 216.511C169.472 215.204 167.893 214.059 166.203 213.096C165.646 213.023 165.084 212.991 164.523 213.002C160.473 213.12 158.526 219.322 156.172 222.21C155.628 222.981 154.906 223.608 154.066 224.038C153.227 224.467 152.295 224.686 151.353 224.675L150.513 224.715H150.709C155.991 226.026 161.807 229.221 165.567 223.773Z" fill="url(#paint6_linear)"/>
<path d="M67.0711 64.152C67.7461 64.7015 71.5371 66.7347 73.2795 67.7788C83.2947 72.9521 75.4537 80.1665 70.14 86.5409C64.8263 92.9154 85.1784 99.8864 83.954 108.223C82.6668 117.063 64.4574 112.447 74.1743 125.361C76.9685 129.066 76.6075 132.826 71.7255 134.577C65.2109 136.932 64.2377 139.632 67.8011 145.756C65.4856 141.752 60.7763 143.581 59.4106 137.654C57.8409 130.864 66.1136 132.088 68.6487 127.935C71.9845 122.479 62.6208 118.57 65.1089 113.248C67.597 107.925 76.4112 109.527 77.4316 102.72C79.0014 92.1382 53.4534 90.3091 67.3144 78.8712C70.3205 76.3984 74.9514 64.8742 67.2124 67.0958C65.6426 67.5354 63.076 70.0868 61.5298 69.2311C60.6664 68.7522 56.9382 64.8977 55.9336 65.5493C59.4891 63.2178 63.0996 62.26 67.0711 64.152Z" fill="url(#paint7_linear)"/>
<path d="M70.6973 67.4336C70.4141 66.8018 70.0443 66.2126 69.5984 65.6829C68.7299 65.2029 67.8863 64.6789 67.0711 64.1129C63.0996 62.221 59.4891 63.1787 55.9336 65.471C56.9382 64.8194 60.6429 68.6739 61.5298 69.1528C63.0996 70.0084 65.6505 67.4571 67.2124 67.0175C68.9627 66.57 70.0537 66.7898 70.6973 67.4336Z" fill="#00A290"/>
<g style="mix-blend-mode:multiply" opacity="0.3">
<path d="M81.6068 102.243C77.6824 97.6585 70.3281 93.5057 69.3783 89.6041C67.9134 89.5791 66.4607 89.333 65.0693 88.874C68.5699 92.4223 75.8301 95.2877 77.2507 100.108C78.8192 100.552 80.2948 101.275 81.6068 102.243Z" fill="#008689"/>
</g>
<g style="mix-blend-mode:multiply" opacity="0.3">
<path d="M73.3429 124.16C71.2081 121.02 70.9883 119.002 71.7732 117.613C70.1939 116.999 68.7471 116.087 67.5113 114.928C66.7455 114.239 66.044 113.483 65.4156 112.667C65.2919 112.852 65.1817 113.047 65.086 113.248C63.8144 115.956 65.6275 118.303 67.2601 120.666L73.3429 124.16Z" fill="#008689"/>
</g>
<g style="mix-blend-mode:multiply" opacity="0.3">
<path d="M69.7941 135.371L68.6247 134.68C66.8268 133.694 65.0963 132.59 63.4444 131.375C60.8229 132.513 58.5153 133.777 59.4101 137.655C60.7758 143.582 65.4851 141.753 67.8005 145.757C64.6453 140.316 65.077 137.553 69.7941 135.371Z" fill="#008689"/>
</g>
<path d="M129.486 78.7217C131.731 86.1873 131.77 97.6173 129.337 103.795C126.126 114.252 122.5 127.346 111.551 132.268C100.131 137.442 92.5256 142.199 90.5869 155.246C91.4895 149.162 92.1567 142.968 95.4454 137.607C101.057 128.406 110.625 128.453 118.388 122.495C126.15 116.536 129.054 105.687 128.811 96.4083C128.646 90.1203 126.503 82.9137 129.486 78.7217ZM129.054 79.86C129.14 79.5931 129.219 79.334 129.297 79.0749C129.192 79.3283 129.11 79.5911 129.054 79.86Z" fill="url(#paint8_linear)"/>
<path d="M101.113 61.9231C105.343 68.69 112.509 72.7407 109.911 81.9334C107.313 91.1261 99.2916 93.1828 107.235 102.509C103.962 98.6623 99.3858 99.2354 97.3843 93.4811C95.9166 89.2655 99.1111 85.4974 101.387 82.3102C108.655 72.1049 99.3387 65.7304 94.5273 58.0215C95.9637 60.3295 99.6683 59.6072 101.113 61.9231Z" fill="url(#paint9_linear)"/>
<path d="M159.97 176.254C167.748 180.744 175.212 185.674 178.988 194.223C173.98 191.263 172.96 190.627 170.024 185.674C167.363 181.176 163.463 177.439 158.039 176.889C152.945 176.363 148.04 178.962 143.37 180.548C138.362 182.251 137.561 176.623 133.998 177.478C142.906 175.335 151.195 171.182 159.97 176.254ZM173.313 190.863L172.968 190.659C173.08 190.735 173.198 190.803 173.321 190.863H173.313Z" fill="#FF6126"/>
<path d="M39.5457 105.822C49.6629 114.144 50.8638 128.141 46.5626 139.822C46.7117 139.406 40.9821 136.729 40.4091 136.352C40.26 136.242 42.7638 120.981 42.3713 118.65C41.5251 113.668 39.3718 109.001 36.1315 105.124C33.7768 102.486 26.1478 97.6896 22.71 97.0537C28.9733 98.2234 34.703 101.897 39.5457 105.822Z" fill="#7CDE3E"/>
<path d="M136.008 51.6552C134.289 52.4402 132.028 51.0664 130.945 48.6328C129.862 46.1992 130.38 43.6165 132.099 42.8472C133.818 42.0778 136.078 43.4359 137.161 45.8695C138.244 48.3031 137.726 50.9172 136.008 51.6552Z" fill="#FF6126"/>
<path d="M140.38 36.3934C138.669 37.1785 136.401 35.8047 135.317 33.3711C134.234 30.9375 134.752 28.3469 136.463 27.5854C138.174 26.824 140.451 28.1742 141.534 30.6078C142.617 33.0414 142.099 35.6241 140.38 36.3934Z" fill="#7CDE3E"/>
<path d="M207.323 119.905C205.149 123.155 201.696 124.662 199.608 123.272C197.52 121.883 197.607 118.107 199.781 114.857C201.955 111.607 205.408 110.092 207.488 111.489C209.568 112.886 209.498 116.647 207.323 119.905Z" fill="#7CDE3E"/>
<path d="M228.138 139.053C226.231 139.963 224.214 139.696 223.649 138.487C223.084 137.278 224.143 135.544 226.051 134.649C227.958 133.754 229.975 134.005 230.54 135.222C231.105 136.439 230.038 138.158 228.138 139.053Z" fill="#FF6126"/>
<path d="M237.181 154.374C237.181 154.374 253.844 139.522 259.628 146.257C265.413 152.993 253.2 153.77 253.2 153.77C253.2 153.77 266.41 160.466 259.479 165.859C252.549 171.253 245.767 153.817 237.181 154.374Z" fill="url(#paint10_linear)"/>
<path d="M192.331 35.3262L185.307 0L197.221 0.290459C197.221 0.290459 197.802 32.296 196.711 34.0466C195.62 35.7972 192.331 35.3262 192.331 35.3262Z" fill="url(#paint11_linear)"/>
<path d="M224.104 67.7401C224.104 67.7401 239.802 40.2641 243.68 44.7623C247.557 49.2605 248.459 56.9145 248.459 56.9145L224.104 67.7401Z" fill="url(#paint12_linear)"/>
<path d="M108.303 37.3592C108.303 37.3592 100.737 14.7582 97.7539 17.3253C94.7714 19.8923 91.6318 22.9461 91.6318 22.9461L105.053 39.2354L108.303 37.3592Z" fill="url(#paint13_linear)"/>
<path d="M81.5842 51.3643C79.3002 52.3849 76.2549 50.5793 74.795 47.2508C73.3351 43.9223 74.0101 40.4682 76.2863 39.4476C78.5624 38.4271 81.6156 40.2326 83.0834 43.569C84.5511 46.9054 83.8761 50.3516 81.5842 51.3643Z" fill="#FFB026"/>
<path d="M215.022 178.499C213.593 179.135 211.655 177.911 210.705 175.767C209.755 173.624 210.132 171.363 211.56 170.728C212.989 170.092 214.928 171.316 215.877 173.467C216.827 175.618 216.427 177.863 215.022 178.499Z" fill="#7CDE3E"/>
<path d="M226.183 99.5423C224.472 100.327 222.564 99.7621 221.929 98.3255C221.293 96.8889 222.164 95.1226 223.883 94.3533C225.602 93.5839 227.501 94.1334 228.137 95.5622C228.773 96.9909 227.902 98.7965 226.183 99.5423Z" fill="#FF6126"/>
<path d="M242.667 122.306C242.1 122.565 241.47 122.649 240.855 122.548C240.241 122.448 239.67 122.166 239.216 121.74C238.761 121.314 238.444 120.763 238.304 120.156C238.164 119.549 238.208 118.914 238.429 118.332C238.651 117.75 239.041 117.247 239.549 116.887C240.057 116.527 240.661 116.326 241.284 116.311C241.906 116.295 242.52 116.465 243.045 116.798C243.571 117.132 243.986 117.615 244.237 118.185C244.569 118.94 244.591 119.796 244.297 120.568C244.003 121.339 243.418 121.963 242.667 122.306Z" fill="#FFB026"/>
<path d="M207.409 206.22C205.698 208.049 202.457 207.79 200.173 205.647C197.889 203.503 197.433 200.285 199.16 198.456C200.887 196.627 204.121 196.886 206.397 199.029C208.673 201.172 209.128 204.391 207.409 206.22Z" fill="url(#paint14_linear)"/>
<path d="M220.893 222.43C220.445 222.695 219.928 222.817 219.409 222.781C218.89 222.745 218.395 222.553 217.988 222.229C217.581 221.905 217.282 221.465 217.131 220.967C216.979 220.47 216.983 219.938 217.14 219.442C217.298 218.947 217.602 218.511 218.013 218.192C218.424 217.873 218.922 217.687 219.441 217.657C219.961 217.628 220.477 217.757 220.921 218.028C221.365 218.298 221.716 218.697 221.929 219.172C222.221 219.742 222.276 220.404 222.082 221.014C221.888 221.625 221.461 222.134 220.893 222.43Z" fill="#FFB226"/>
<path d="M71.6321 168.13C70.8377 168.484 69.956 168.595 69.0986 168.448C68.2412 168.301 67.4468 167.902 66.8158 167.304C66.1849 166.705 65.7458 165.932 65.5542 165.083C65.3626 164.234 65.4271 163.348 65.7395 162.536C66.052 161.724 66.5983 161.023 67.3092 160.522C68.0202 160.02 68.864 159.741 69.7336 159.72C70.6032 159.699 71.4596 159.936 72.1944 160.402C72.9292 160.867 73.5092 161.541 73.8612 162.336C74.0953 162.863 74.2234 163.431 74.2381 164.007C74.2528 164.583 74.1538 165.157 73.9468 165.695C73.7398 166.233 73.4288 166.725 73.0316 167.143C72.6345 167.56 72.1589 167.896 71.6321 168.13Z" fill="#FF6126"/>
<path d="M95.9799 193.745C92.44 194.389 89.4025 194.004 89.2063 192.897C89.0101 191.79 91.7179 190.377 95.2578 189.757C98.7976 189.137 101.835 189.498 102.039 190.605C102.243 191.712 99.5275 193.117 95.9799 193.745Z" fill="#FF6126"/>
<path d="M163.777 18.5512C162.89 16.5572 159.789 17.931 160.676 19.925C161.563 21.9189 164.664 20.5452 163.777 18.5512Z" fill="#7CDE3E"/>
<path d="M136.989 4.3961C136.11 2.41783 133.065 3.77593 133.928 5.76205C134.791 7.74817 137.868 6.36652 136.989 4.3961Z" fill="#7CDE3E"/>
<path d="M258.75 83.842C257.855 81.848 254.762 83.2297 255.649 85.2236C256.536 87.2176 259.597 85.8438 258.75 83.842Z" fill="#FF6126"/>
<path d="M3.44892 80.5194C2.50706 78.4077 -0.773758 79.8678 0.168104 81.9795C1.10996 84.0913 4.39078 82.6311 3.44892 80.5194Z" fill="#FFB026"/>
<path d="M4.862 111.066C4.82085 110.757 4.69694 110.466 4.50344 110.223C4.30994 109.98 4.05411 109.793 3.76316 109.684C3.31212 109.518 2.81386 109.536 2.37615 109.735C1.93845 109.933 1.59648 110.296 1.42423 110.745C1.25197 111.194 1.26327 111.692 1.45568 112.133C1.64809 112.573 2.00615 112.92 2.4524 113.099C2.74207 113.212 3.05688 113.244 3.36357 113.193C3.67026 113.142 3.95746 113.009 4.19485 112.808C4.39754 112.809 4.59578 112.749 4.7631 112.634C4.93043 112.52 5.0589 112.357 5.13138 112.168C5.20386 111.978 5.2169 111.772 5.16877 111.575C5.12065 111.378 5.01363 111.2 4.862 111.066Z" fill="#FFB026"/>
<path d="M113.316 260.644C112.359 258.485 109.015 259.969 109.981 262.12C110.946 264.271 114.274 262.826 113.316 260.644Z" fill="#FF6126"/>
<path d="M140.293 250.51C138.966 247.535 134.351 249.584 135.67 252.559C136.989 255.535 141.612 253.486 140.293 250.51Z" fill="#FF6126"/>
<path d="M142.263 231.018C141.188 228.608 137.46 230.233 138.527 232.674C139.594 235.116 143.331 233.428 142.263 231.018Z" fill="#FF6126"/>
<path d="M79.5918 180.399C79.7472 180.128 79.8259 179.82 79.8192 179.509C79.8125 179.197 79.7207 178.893 79.5538 178.629C79.3868 178.366 79.1511 178.153 78.872 178.014C78.593 177.875 78.2812 177.814 77.9704 177.84C77.6595 177.865 77.3615 177.974 77.1085 178.157C76.8554 178.339 76.657 178.587 76.5347 178.874C76.4123 179.161 76.3707 179.476 76.4142 179.784C76.4578 180.093 76.5849 180.384 76.7819 180.626C77.0291 180.922 77.3647 181.131 77.7394 181.223C77.9151 181.291 78.1025 181.324 78.2909 181.319C78.4793 181.315 78.665 181.273 78.8371 181.196C79.0093 181.12 79.1646 181.01 79.2942 180.873C79.4237 180.736 79.5248 180.575 79.5918 180.399Z" fill="#FF6126"/>
<path d="M80.0382 154.493C79.8956 154.171 79.6311 153.92 79.3028 153.793C78.9746 153.666 78.6095 153.675 78.2879 153.818C77.9663 153.961 77.7145 154.225 77.5879 154.553C77.4613 154.882 77.4703 155.247 77.6129 155.569C77.7555 155.89 78.02 156.142 78.3482 156.269C78.6765 156.395 79.0416 156.386 79.3632 156.244C79.6848 156.101 79.9366 155.836 80.0632 155.508C80.1898 155.18 80.1808 154.815 80.0382 154.493Z" fill="#FF6126"/>
<path d="M59.5522 182.189C58.524 179.881 54.9449 181.475 55.9652 183.759C56.9856 186.043 60.5804 184.505 59.5522 182.189Z" fill="#FFB026"/>
<path d="M74.4972 203.009C74.3546 202.735 74.1127 202.525 73.8209 202.422C73.5291 202.32 73.2091 202.332 72.9262 202.457C72.6433 202.582 72.4186 202.81 72.2978 203.095C72.177 203.38 72.1692 203.7 72.276 203.99C72.4186 204.265 72.6605 204.475 72.9523 204.577C73.2441 204.68 73.564 204.667 73.847 204.542C74.1299 204.417 74.3546 204.189 74.4754 203.904C74.5962 203.62 74.604 203.299 74.4972 203.009Z" fill="#FFB026"/>
<path d="M44.3496 157.634C44.3975 157.6 44.4473 157.568 44.4987 157.54C44.8441 157.281 45.0638 157.124 44.3496 157.634Z" fill="#FF6126"/>
<path d="M48.2812 159.149C48.2172 158.743 48.0501 158.36 47.7959 158.037C47.5416 157.714 47.2088 157.462 46.8292 157.305C46.4496 157.147 46.0359 157.09 45.6278 157.138C45.2196 157.186 44.8306 157.338 44.498 157.579C44.2773 157.74 44.0747 157.924 43.8937 158.129C43.6433 158.468 43.4936 158.87 43.462 159.291C43.46 159.603 43.4996 159.915 43.5797 160.217C43.5842 160.253 43.5842 160.29 43.5797 160.327C43.5797 160.397 43.6347 160.468 43.6739 160.539C43.7936 160.827 43.9709 161.088 44.1949 161.305C44.419 161.523 44.685 161.692 44.9768 161.803C45.3771 161.96 45.8119 162.009 46.2371 161.944C46.6623 161.88 47.0629 161.704 47.3983 161.434C47.7337 161.165 47.992 160.812 48.1471 160.411C48.3021 160.009 48.3484 159.574 48.2812 159.149Z" fill="#FFB026"/>
<path d="M156.934 90.961C156.776 90.6799 156.518 90.4681 156.212 90.367C155.905 90.2659 155.572 90.2828 155.278 90.4144C154.983 90.546 154.748 90.7828 154.619 91.0784C154.49 91.3741 154.476 91.7073 154.579 92.0129C154.738 92.294 154.995 92.5058 155.302 92.6069C155.608 92.708 155.941 92.6911 156.236 92.5595C156.53 92.4279 156.765 92.1911 156.894 91.8955C157.023 91.5998 157.038 91.2666 156.934 90.961Z" fill="#FF6126"/>
<path d="M151.109 102.391C150.977 102.141 150.756 101.95 150.488 101.857C150.221 101.764 149.929 101.776 149.67 101.891C149.412 102.006 149.206 102.215 149.096 102.475C148.986 102.736 148.979 103.028 149.076 103.294C149.208 103.544 149.43 103.735 149.697 103.828C149.964 103.921 150.256 103.909 150.515 103.794C150.774 103.679 150.979 103.471 151.089 103.21C151.199 102.949 151.206 102.657 151.109 102.391Z" fill="#FF6126"/>
<path d="M227.251 197.45C226.262 195.221 222.801 196.76 223.79 199.02C224.779 201.281 228.248 199.68 227.251 197.45Z" fill="#7CDE3E"/>
<path d="M233.859 204.735C233.724 204.478 233.495 204.281 233.22 204.186C232.944 204.091 232.643 204.104 232.377 204.223C232.111 204.342 231.901 204.558 231.788 204.826C231.676 205.095 231.67 205.397 231.771 205.67C231.907 205.927 232.136 206.124 232.411 206.219C232.686 206.314 232.988 206.301 233.253 206.182C233.519 206.063 233.73 205.847 233.842 205.579C233.955 205.31 233.961 205.008 233.859 204.735Z" fill="#FFB226"/>
<path d="M208.366 46.2152C208.252 45.9603 208.065 45.7449 207.828 45.5963C207.592 45.4478 207.317 45.3726 207.037 45.3804C206.758 45.3883 206.488 45.4787 206.26 45.6402C206.032 45.8018 205.857 46.0273 205.757 46.2883C205.657 46.5492 205.637 46.8339 205.699 47.1063C205.761 47.3787 205.902 47.6266 206.105 47.8187C206.308 48.0109 206.563 48.1386 206.838 48.1857C207.114 48.2329 207.397 48.1973 207.652 48.0836C207.992 47.9276 208.257 47.6446 208.39 47.2953C208.524 46.946 208.515 46.5582 208.366 46.2152Z" fill="#7CDE3E"/>
<path d="M213.955 34.4233C213.17 32.6256 210.36 33.8659 211.161 35.6715C211.961 37.477 214.755 36.2288 213.955 34.4233Z" fill="#7CDE3E"/>
<path d="M158.219 211.332C202.032 211.332 237.549 175.815 237.549 132.002C237.549 88.1899 202.032 52.6729 158.219 52.6729C114.407 52.6729 78.8896 88.1899 78.8896 132.002C78.8896 175.815 114.407 211.332 158.219 211.332Z" fill="#3DC640"/>
<path d="M158.219 201.59C196.651 201.59 227.806 170.434 227.806 132.002C227.806 93.5703 196.651 62.415 158.219 62.415C119.787 62.415 88.6318 93.5703 88.6318 132.002C88.6318 170.434 119.787 201.59 158.219 201.59Z" fill="#00AF00"/>
<path d="M203.359 133.762C203.356 132.279 202.939 130.826 202.154 129.567C201.37 128.308 200.25 127.293 198.919 126.636C200.524 125.835 201.811 124.517 202.573 122.893C203.334 121.27 203.526 119.437 203.117 117.692C202.708 115.946 201.721 114.389 200.317 113.274C198.914 112.158 197.174 111.549 195.381 111.545H194.09L174.694 111.964C174.694 111.964 178.789 94.7223 177.28 85.458C175.771 76.1937 163.271 72.0939 163.057 82.4398C162.843 92.7856 161.548 96.2315 153.575 105.286C148.36 111.201 145.543 115.829 144.214 118.328C143.559 119.573 143.221 120.961 143.229 122.369V161.535C143.229 162.563 143.637 163.549 144.364 164.276C145.092 165.004 146.078 165.412 147.106 165.412H195.381C199.787 165.412 203.732 162.188 203.38 157.799C203.09 154.219 198.701 152.87 198.701 152.87C198.701 152.87 204.088 152.262 204.088 147.051C204.088 142.201 201.07 141.019 198.932 140.872C200.257 140.215 201.373 139.202 202.155 137.946C202.937 136.69 203.354 135.242 203.359 133.762Z" fill="white"/>
<path d="M125.413 119.54H122.252C115.666 119.54 110.326 124.88 110.326 131.466V161.997C110.326 168.583 115.666 173.923 122.252 173.923H125.413C132 173.923 137.339 168.583 137.339 161.997V131.466C137.339 124.88 132 119.54 125.413 119.54Z" fill="white"/>
<path d="M128.377 167.755C127.997 167.755 127.621 167.681 127.27 167.535C126.92 167.39 126.601 167.177 126.333 166.908C126.065 166.639 125.852 166.32 125.707 165.969C125.562 165.619 125.488 165.243 125.488 164.863C125.488 164.097 125.793 163.362 126.334 162.821C126.876 162.279 127.611 161.975 128.377 161.975C129.143 161.975 129.877 162.279 130.419 162.821C130.961 163.362 131.265 164.097 131.265 164.863C131.265 165.243 131.191 165.619 131.046 165.969C130.901 166.32 130.689 166.639 130.42 166.908C130.152 167.177 129.834 167.39 129.483 167.535C129.132 167.681 128.756 167.755 128.377 167.755Z" fill="#00AF00"/>
<defs>
<linearGradient id="paint0_linear" x1="34.2726" y1="38.5017" x2="38.6019" y2="68.6514" gradientUnits="userSpaceOnUse">
<stop stop-color="#FFDB00"/>
<stop offset="0.06" stop-color="#FFE416"/>
<stop offset="0.16" stop-color="#FFEF35"/>
<stop offset="0.26" stop-color="#FFF84C"/>
<stop offset="0.35" stop-color="#FFFD59"/>
<stop offset="0.43" stop-color="#FFFF5E"/>
<stop offset="0.51" stop-color="#FEF248"/>
<stop offset="0.64" stop-color="#FDE029"/>
<stop offset="0.77" stop-color="#FCD312"/>
<stop offset="0.89" stop-color="#FBCC05"/>
<stop offset="1" stop-color="#FBC900"/>
</linearGradient>
<linearGradient id="paint1_linear" x1="15604.3" y1="16021.3" x2="16512.4" y2="16021.3" gradientUnits="userSpaceOnUse">
<stop stop-color="#FFDB00"/>
<stop offset="0.06" stop-color="#FFE416"/>
<stop offset="0.16" stop-color="#FFEF35"/>
<stop offset="0.26" stop-color="#FFF84C"/>
<stop offset="0.35" stop-color="#FFFD59"/>
<stop offset="0.43" stop-color="#FFFF5E"/>
<stop offset="0.51" stop-color="#FEF248"/>
<stop offset="0.64" stop-color="#FDE029"/>
<stop offset="0.77" stop-color="#FCD312"/>
<stop offset="0.89" stop-color="#FBCC05"/>
<stop offset="1" stop-color="#FBC900"/>
</linearGradient>
<linearGradient id="paint2_linear" x1="159.712" y1="42.8936" x2="163.59" y2="69.904" gradientUnits="userSpaceOnUse">
<stop stop-color="#FF5690"/>
<stop offset="0.23" stop-color="#FB4E80"/>
<stop offset="0.72" stop-color="#F33E61"/>
<stop offset="1" stop-color="#F03856"/>
</linearGradient>
<linearGradient id="paint3_linear" x1="133.114" y1="79.3879" x2="145.94" y2="168.71" gradientUnits="userSpaceOnUse">
<stop stop-color="#FFB226"/>
<stop offset="0.25" stop-color="#FF8B26"/>
<stop offset="0.49" stop-color="#FF6C26"/>
<stop offset="0.63" stop-color="#FF6126"/>
<stop offset="1" stop-color="#FFB226"/>
</linearGradient>
<linearGradient id="paint4_linear" x1="108.396" y1="202.833" x2="109.458" y2="210.231" gradientUnits="userSpaceOnUse">
<stop stop-color="#3DC540"/>
<stop offset="0.56" stop-color="#44B139"/>
<stop offset="1" stop-color="#47A736"/>
</linearGradient>
<linearGradient id="paint5_linear" x1="11451.8" y1="9374.79" x2="11738.7" y2="9374.79" gradientUnits="userSpaceOnUse">
<stop stop-color="#3DC540"/>
<stop offset="0.56" stop-color="#44B139"/>
<stop offset="1" stop-color="#47A736"/>
</linearGradient>
<linearGradient id="paint6_linear" x1="11960.8" y1="10588.9" x2="12302.5" y2="10588.9" gradientUnits="userSpaceOnUse">
<stop stop-color="#3DC540"/>
<stop offset="0.56" stop-color="#44B139"/>
<stop offset="1" stop-color="#47A736"/>
</linearGradient>
<linearGradient id="paint7_linear" x1="63.2273" y1="62.9492" x2="74.9633" y2="144.68" gradientUnits="userSpaceOnUse">
<stop stop-color="#00C4B8"/>
<stop offset="0.35" stop-color="#00FDD4"/>
<stop offset="0.53" stop-color="#00EACB"/>
<stop offset="0.83" stop-color="#00CEBD"/>
<stop offset="1" stop-color="#00C4B8"/>
</linearGradient>
<linearGradient id="paint8_linear" x1="21519.3" y1="20385.9" x2="22724.3" y2="22168.6" gradientUnits="userSpaceOnUse">
<stop stop-color="#00C4B8"/>
<stop offset="0.35" stop-color="#00FDD4"/>
<stop offset="0.53" stop-color="#00EACB"/>
<stop offset="0.83" stop-color="#00CEBD"/>
<stop offset="1" stop-color="#00C4B8"/>
</linearGradient>
<linearGradient id="paint9_linear" x1="6005.81" y1="35503" x2="6936.36" y2="35503" gradientUnits="userSpaceOnUse">
<stop stop-color="#FFDB00"/>
<stop offset="0.06" stop-color="#FFE416"/>
<stop offset="0.16" stop-color="#FFEF35"/>
<stop offset="0.26" stop-color="#FFF84C"/>
<stop offset="0.35" stop-color="#FFFD59"/>
<stop offset="0.43" stop-color="#FFFF5E"/>
<stop offset="0.51" stop-color="#FEF248"/>
<stop offset="0.64" stop-color="#FDE029"/>
<stop offset="0.77" stop-color="#FCD312"/>
<stop offset="0.89" stop-color="#FBCC05"/>
<stop offset="1" stop-color="#FBC900"/>
</linearGradient>
<linearGradient id="paint10_linear" x1="12610.4" y1="14150.3" x2="13306.1" y2="14150.3" gradientUnits="userSpaceOnUse">
<stop stop-color="#FF5690"/>
<stop offset="0.23" stop-color="#FB4E80"/>
<stop offset="0.72" stop-color="#F33E61"/>
<stop offset="1" stop-color="#F03856"/>
</linearGradient>
<linearGradient id="paint11_linear" x1="3977.02" y1="23745.4" x2="4534" y2="23745.4" gradientUnits="userSpaceOnUse">
<stop stop-color="#00C4B8"/>
<stop offset="0.35" stop-color="#00FDD4"/>
<stop offset="0.53" stop-color="#00EACB"/>
<stop offset="0.83" stop-color="#00CEBD"/>
<stop offset="1" stop-color="#00C4B8"/>
</linearGradient>
<linearGradient id="paint12_linear" x1="9488" y1="14729.8" x2="10127.6" y2="14729.8" gradientUnits="userSpaceOnUse">
<stop stop-color="#FFB226"/>
<stop offset="0.25" stop-color="#FF8B26"/>
<stop offset="0.49" stop-color="#FF6C26"/>
<stop offset="0.63" stop-color="#FF6126"/>
<stop offset="1" stop-color="#FFB226"/>
</linearGradient>
<linearGradient id="paint13_linear" x1="5426.84" y1="17523.6" x2="5911.96" y2="17523.6" gradientUnits="userSpaceOnUse">
<stop stop-color="#3DC540"/>
<stop offset="0.56" stop-color="#44B139"/>
<stop offset="1" stop-color="#47A736"/>
</linearGradient>
<linearGradient id="paint14_linear" x1="6048.74" y1="7262.99" x2="6187.18" y2="7262.99" gradientUnits="userSpaceOnUse">
<stop stop-color="#00C4B8"/>
<stop offset="0.35" stop-color="#00FDD4"/>
<stop offset="0.53" stop-color="#00EACB"/>
<stop offset="0.83" stop-color="#00CEBD"/>
<stop offset="1" stop-color="#00C4B8"/>
</linearGradient>
</defs>
</svg>
