<svg width="312" height="237" viewBox="0 0 312 237" fill="none" xmlns="http://www.w3.org/2000/svg">
<path d="M291.923 146.709C289.57 140.669 287.813 134.257 285.896 127.486C284.601 122.921 282.517 117.817 278.003 116.381C273.604 114.983 268.872 117.881 266.173 121.619C263.473 125.358 262.108 129.884 259.793 133.879C255.599 141.112 248.181 144.145 242.045 137.784C233.279 128.698 229.336 116.317 223.777 105.237C219.744 97.1962 216.365 87.777 211.28 80.3648C203.528 69.0605 192.897 59.4233 178.765 59.4233C169.807 60.7827 161.914 68.7143 156.567 78.6336C151.226 88.5529 148.109 100.344 145.455 112.11C140.627 133.507 137.087 153.769 133.554 175.634C133.554 175.634 311.877 175.185 311.884 175.185C311.172 175.191 306.799 169.35 305.965 168.542C299.117 161.912 295.007 154.628 291.923 146.709Z" fill="#D5D801"/>
<path d="M258.074 156.904C257.722 163.836 250.181 175.954 243.25 175.608C236.319 175.262 232.619 162.573 232.972 155.641C233.324 148.71 240.704 114.021 247.636 114.368C254.567 114.714 258.427 149.973 258.074 156.904Z" fill="#EFAF3F"/>
<path d="M247.302 118.876L243.808 175.051" stroke="#2A294F" stroke-width="0.7798" stroke-miterlimit="10" stroke-linecap="round" stroke-linejoin="round"/>
<path d="M242.211 155.462C240.634 158.931 239.428 162.567 238.704 166.362C238.338 168.286 238.101 170.37 238.973 172.12C239.922 174.038 242.032 175.153 244.141 175.499C249.296 176.346 254.445 173.191 257.465 168.927C260.485 164.67 261.793 159.463 262.992 154.378C263.935 150.377 264.865 146.319 266.647 142.587C267.41 140.99 271.886 134.816 269.77 133.219C266.878 130.943 258.497 133.418 253.131 139.278C248.713 144.1 244.911 149.531 242.211 155.462Z" fill="#FFC957"/>
<path d="M244.141 175.493C244.141 175.493 250.361 151.275 265.384 137.387" stroke="#2A294F" stroke-width="0.7798" stroke-miterlimit="10" stroke-linecap="round" stroke-linejoin="round"/>
<path d="M278.65 149.749C278.118 150.704 277.118 151.352 276.214 151.865C275.098 152.493 273.905 153.045 272.758 153.583C271.283 154.27 269.757 154.981 268.346 155.866C267.32 156.514 266.403 157.238 265.64 158.02C266.852 155.27 268.263 152.872 269.93 150.724C272.123 147.902 274.373 146.473 276.624 146.473C276.675 146.473 276.727 146.473 276.778 146.473C277.477 146.492 278.015 146.665 278.387 146.986C279.15 147.64 279.118 148.903 278.65 149.749Z" fill="#FFC957"/>
<path d="M281.157 165.407C280.266 166.042 279.086 166.202 278.048 166.279C276.772 166.369 275.457 166.362 274.188 166.35C272.559 166.337 270.873 166.324 269.225 166.523C268.019 166.664 266.884 166.933 265.858 167.311C268.128 165.343 270.437 163.778 272.86 162.554C276.053 160.938 278.695 160.611 280.728 161.573C280.773 161.592 280.824 161.618 280.869 161.643C281.491 161.957 281.908 162.349 282.106 162.797C282.517 163.721 281.946 164.849 281.157 165.407Z" fill="#FFC957"/>
<path d="M275.233 173.114C274.495 173.012 273.829 172.537 273.277 172.088C272.597 171.537 271.95 170.915 271.322 170.319C270.514 169.549 269.686 168.754 268.77 168.081C268.103 167.587 267.41 167.19 266.724 166.895C268.776 166.978 270.655 167.279 272.437 167.812C274.778 168.504 276.252 169.581 276.81 171.011C276.823 171.043 276.836 171.075 276.849 171.114C277.009 171.563 277.035 171.947 276.926 172.268C276.695 172.909 275.88 173.204 275.233 173.114Z" fill="#FFC957"/>
<path d="M258.363 175.628C258.363 175.628 258.433 160.81 276.528 148.23" stroke="#2A294F" stroke-width="0.7798" stroke-miterlimit="10" stroke-linecap="round" stroke-linejoin="round"/>
<path d="M258.363 175.628C258.363 175.628 263.922 163.721 278.984 163.721" stroke="#2A294F" stroke-width="0.7798" stroke-miterlimit="10" stroke-linecap="round" stroke-linejoin="round"/>
<path d="M266.564 167.036C266.564 167.036 269.481 166.824 275.573 171.415" stroke="#2A294F" stroke-width="0.7798" stroke-miterlimit="10" stroke-linecap="round" stroke-linejoin="round"/>
<path d="M144 175.987C138.115 160.188 132.193 144.383 125.269 129.083C121.361 120.453 117.055 111.862 111.07 104.962C105.086 98.0615 97.1601 92.9681 89.1985 93.0002C76.9402 94.6852 69.0237 103.277 63.8333 112.797C60.4302 119.037 58.7783 126.597 56.3772 133.196C53.0644 142.281 51.3222 152.167 44.9584 160.111C40.4991 165.679 33.6478 164.256 29.0261 159.259C26.4806 156.498 24.6752 153.218 21.8228 150.7C18.9703 148.182 14.466 146.542 10.8462 148.131C7.11817 149.764 6.00788 153.89 5.50238 157.516C4.76219 162.892 4.10324 167.972 2.88462 172.848C2.62285 173.911 2.32496 174.956 2 176H144V175.987Z" fill="#D5D801"/>
<path d="M65.4656 153.936C62.8495 150.922 59.541 148.319 58.5022 144.517C57.7392 141.74 58.3419 138.797 58.6369 135.931C58.9318 133.065 58.8292 129.897 56.9762 127.692C55.4501 125.871 53.0328 125.082 50.7117 124.582C48.3906 124.082 45.9669 123.768 43.9086 122.588C40.5616 120.671 41.2284 117.407 39.4331 114.547C37.4197 111.335 32.7262 107.237 28.7123 109.373C24.4547 111.63 25.128 118.49 27.9621 121.517C29.8408 123.524 32.2453 125.454 32.521 128.185C32.9378 132.302 28.2186 136.014 29.5138 139.945C30.4756 142.849 34.1304 143.843 35.9385 146.312C37.7275 148.755 37.3684 152.172 36.3104 155.007C35.2589 157.841 33.5982 160.463 32.9442 163.419C31.6041 169.459 36.3425 173.64 41.7478 174.986C46.7106 176.224 57.4186 175.64 57.4186 175.64C61.2401 174.307 65.4784 170.947 67.5751 167.279C69.1653 164.509 69.3833 160.995 68.1522 158.046C67.5239 156.52 66.5556 155.193 65.4656 153.936Z" fill="#FFC957"/>
<path d="M33.4636 115.881C33.4636 115.881 51.7441 144.119 53.7318 175.474" stroke="#2A294F" stroke-width="0.7798" stroke-miterlimit="10" stroke-linecap="round" stroke-linejoin="round"/>
<path d="M17.1834 153.968C17.4656 153.724 17.8759 153.596 18.4017 153.583C18.4402 153.583 18.4786 153.583 18.5171 153.583C20.2163 153.583 21.9219 154.667 23.5762 156.802C24.8393 158.424 25.9037 160.239 26.8206 162.316C26.2435 161.726 25.551 161.175 24.7752 160.688C23.7108 160.021 22.5567 159.482 21.441 158.963C20.5689 158.559 19.6713 158.142 18.8249 157.661C18.1388 157.277 17.3822 156.783 16.9847 156.065C16.6256 155.424 16.6064 154.468 17.1834 153.968Z" fill="#FFC957"/>
<path d="M14.3687 165.926C14.5226 165.586 14.8368 165.291 15.3049 165.054C15.3369 165.035 15.3754 165.016 15.4075 165.003C16.9463 164.272 18.9469 164.522 21.3578 165.747C23.1916 166.676 24.9356 167.856 26.6476 169.344C25.8718 169.055 25.0126 168.857 24.1021 168.748C22.8517 168.6 21.5758 168.606 20.3447 168.613C19.3829 168.619 18.3954 168.626 17.4272 168.555C16.645 168.497 15.7473 168.376 15.0804 167.901C14.4905 167.478 14.0609 166.625 14.3687 165.926Z" fill="#FFC957"/>
<path d="M18.2864 173.082C18.203 172.845 18.2223 172.55 18.3441 172.21C18.3505 172.184 18.3633 172.159 18.3697 172.133C18.7929 171.049 19.9022 170.235 21.6783 169.709C23.0248 169.312 24.4483 169.081 26 169.017C25.4806 169.241 24.9548 169.543 24.4547 169.914C23.7622 170.427 23.1338 171.03 22.5247 171.607C22.0502 172.062 21.5629 172.531 21.0499 172.947C20.6332 173.287 20.133 173.646 19.5752 173.723C19.0751 173.794 18.4595 173.569 18.2864 173.082Z" fill="#FFC957"/>
<path d="M32.3223 175.628C32.3223 175.628 32.271 164.419 18.5879 154.91" stroke="#2A294F" stroke-width="0.7798" stroke-miterlimit="10" stroke-linecap="round" stroke-linejoin="round"/>
<path d="M32.3222 175.628C32.3222 175.628 28.1223 166.625 16.7283 166.625" stroke="#2A294F" stroke-width="0.7798" stroke-miterlimit="10" stroke-linecap="round" stroke-linejoin="round"/>
<path d="M26.1218 169.132C26.1218 169.132 23.916 168.972 19.3123 172.447" stroke="#2A294F" stroke-width="0.7798" stroke-miterlimit="10" stroke-linecap="round" stroke-linejoin="round"/>
<path d="M208.702 138.338C210.861 139.942 212.99 141.694 213.857 141.561C214.829 141.41 215.059 138.789 215.119 136.309C218.401 135.106 222.312 133.794 222.237 133.013C222.166 132.247 218.043 131.223 214.569 130.183C214.026 127.479 212.96 124.718 211.781 124.57C210.759 124.445 209.037 126.368 207.044 128.295C202.635 127.373 199.236 127.21 198.939 127.839C198.596 128.568 200.08 130.627 202.688 133.172C200.31 136.221 199.643 138.8 200.401 139.392C201.158 139.972 204.282 139.54 208.702 138.338Z" fill="url(#paint0_linear)"/>
<path d="M180.222 72.421C180.222 72.421 173.771 52.6915 181.164 51.531C188.557 50.3704 185.411 60.0872 185.411 60.0872C185.411 60.0872 191.873 53.9583 194.703 58.4905C197.526 63.0228 180.222 72.421 180.222 72.421Z" fill="url(#paint1_linear)"/>
<path d="M205.883 74.5448C213.359 83.1845 214.286 99.5233 200.352 101.894C195.951 102.641 190.208 99.3261 191.542 106.308C192.578 111.74 196.128 118.009 191.764 122.947C188.109 127.081 182.822 125.909 178.229 124.384C173.489 122.81 171.544 122.363 171.804 128.45C172.309 140.139 166.099 139.134 157.214 137.124C158.966 137.469 155.918 136.559 154.637 139.168C153.427 141.622 153.065 144.406 151.848 146.86C148.329 153.941 138.102 148.953 132.721 147.125C138.652 149.143 143.479 149.898 145.951 143.052C146.663 141.08 147.281 135.796 149.595 135.011C152.304 134.094 156.151 135.774 158.665 136.642C169.404 140.359 157.949 117.857 172.66 121.248C176.13 122.048 179.917 125.302 183.173 122.757C185.257 121.13 186.055 118.35 186.27 115.813C186.56 112.407 182.178 102.554 185.008 100.388C188.041 98.067 191.677 102.246 194.406 100.437C197.303 98.5145 200.318 97.2288 202.337 94.2098C206.829 87.493 203.415 79.0164 199.266 73.0619C200.619 75.0075 204.342 72.7661 205.883 74.5448Z" fill="url(#paint2_linear)"/>
<path opacity="0.3" d="M208.182 97.7864C206.739 97.0923 205.344 96.2845 204.048 95.5677C203.434 95.2263 202.759 94.9002 202.07 94.5664C200.058 97.3275 197.183 98.6018 194.405 100.441C193.509 101.037 192.51 100.98 191.466 100.722C192.163 101.075 192.857 101.431 193.539 101.788C195.374 101.56 198.045 102.285 200.352 101.89C203.86 101.295 206.426 99.8117 208.182 97.7864Z" fill="#B14026"/>
<path opacity="0.3" d="M183.172 122.761C179.913 125.306 176.13 122.052 172.659 121.252C171.747 121.043 170.93 120.929 170.206 120.91C171.597 121.566 172.916 122.401 174.072 123.383C175.09 123.379 176.465 123.808 178.229 124.392C182.619 125.845 187.645 126.971 191.27 123.451C190.792 122.352 190.238 121.29 189.326 120.413C188.346 119.465 187.148 118.741 185.87 118.225C185.426 119.974 184.608 121.642 183.172 122.761Z" fill="#B14026"/>
<path opacity="0.3" d="M158.665 136.642C157.968 136.4 157.172 136.1 156.328 135.808C156.882 136.282 157.425 136.779 157.949 137.287C163.111 138.436 167.301 139.119 169.679 136.923C168.695 136.426 167.697 135.944 166.661 135.486C165.722 135.072 164.675 134.647 163.688 134.124C163.179 136.437 161.977 137.788 158.665 136.642Z" fill="#B14026"/>
<path opacity="0.3" d="M143.822 146.689C141.139 149.458 137.254 148.665 132.718 147.121C137.228 148.657 145.137 152.401 149.655 149.408C147.628 148.703 145.661 147.758 143.822 146.689Z" fill="#B14026"/>
<path d="M152.704 171.08C154.885 170.552 158.152 171.876 160.27 172.498C163.145 173.336 163.929 175.521 164.652 178.183C166.484 175.855 167.629 172.517 171.058 172.483C173.869 172.456 176.763 173.556 179.488 174.163C184.612 174.675 183.538 181.873 184.925 185.681C186.794 183.69 188.109 178.418 191.312 178.251C193.969 178.115 197.529 179.522 199.775 180.493C207.214 183.713 209.674 192.341 211.151 199.635C210.91 198.459 205.929 199.183 204.983 198.402C204.067 197.647 203.732 193.923 203.359 192.732C202.594 190.282 201.667 187.862 200.363 185.647C199.267 183.777 197.887 182.056 196.169 180.728C194.327 182.101 193.475 184.441 192.25 186.311C189.541 190.456 185.166 188.166 181.221 187.293C178.693 187.274 177.155 181.631 176.944 179.059C176.85 177.963 176.643 173.935 174.996 174.956C173.47 175.904 172.49 177.538 171.597 179.048C169.543 182.514 166.423 181.434 163.254 180.842C161.499 180.512 159.358 180.083 158.352 178.422C157.474 176.977 157.452 175.202 156.864 173.643C154.972 174.774 153.337 176.503 151.129 177.007C148.355 177.641 145.465 176.01 142.741 175.661C146.746 176.166 149.09 171.948 152.704 171.08Z" fill="#7CDE3E"/>
<path d="M154.256 170.985C153.706 170.951 153.175 170.966 152.707 171.08C149.094 171.948 146.75 176.166 142.741 175.657C145.461 176.006 148.351 177.637 151.129 177.004C153.269 176.515 155.047 174.77 156.864 173.64C156.781 173.336 155.164 171.262 154.256 170.985Z" fill="url(#paint3_linear)"/>
<path d="M171.593 179.044C172.486 177.531 173.379 175.881 174.996 175.104C175.482 174.869 175.862 174.99 175.945 174.963C174.152 173.219 171.574 172.771 169.901 172.642C167.576 173.26 166.468 175.638 165.082 177.599C164.162 178.828 163.439 179.655 162.218 180.061C161.879 180.171 161.498 180.269 161.099 180.334C161.815 180.561 162.561 180.709 163.25 180.842C166.419 181.43 169.54 182.511 171.593 179.044Z" fill="url(#paint4_linear)"/>
<path d="M192.25 186.307C193.46 184.46 194.307 182.158 196.109 180.774C195.065 179.799 193.735 178.976 192.563 178.293C192.129 178.252 191.707 178.229 191.312 178.248C188.294 178.403 186.952 183.087 185.245 185.291C184.529 186.512 183.127 187.13 181.703 187.221C181.496 187.233 181.285 187.248 181.074 187.263C181.123 187.267 181.168 187.282 181.221 187.286C185.17 188.162 189.541 190.453 192.25 186.307Z" fill="url(#paint5_linear)"/>
<path d="M118.967 70.7863C118.753 70.3236 118.459 69.8912 118.119 69.493C117.23 69.0113 116.454 68.579 116.213 68.3893C113.221 67.0392 110.553 67.8166 107.938 69.5916C108.677 69.091 111.518 71.9127 112.17 72.2578C113.334 72.8761 115.207 70.919 116.367 70.5587C117.664 70.1643 118.481 70.3198 118.967 70.7863Z" fill="#00A290"/>
<path opacity="0.3" d="M127.683 96.6826C124.695 93.3185 119.133 90.3337 118.361 87.4209C117.294 87.4285 116.19 87.2692 115.139 86.9507C117.803 89.5524 123.263 91.5739 124.397 95.1618C125.565 95.4159 126.681 96.0189 127.683 96.6826Z" fill="#008689"/>
<path opacity="0.3" d="M121.899 113.245C120.256 110.905 120.049 109.422 120.637 108.368C119.435 107.932 118.312 107.242 117.419 106.43C116.876 105.933 116.284 105.379 115.821 104.769C115.738 104.909 115.651 105.046 115.587 105.209C114.687 107.257 116.073 108.986 117.332 110.735C118.858 111.565 120.377 112.4 121.899 113.245Z" fill="#008689"/>
<path opacity="0.3" d="M119.446 121.707C119.148 121.536 118.85 121.369 118.568 121.21C117.211 120.451 115.881 119.738 114.653 118.82C112.72 119.723 111.024 120.709 111.759 123.595C112.878 128.014 116.352 126.569 118.146 129.527C115.7 125.496 115.975 123.425 119.446 121.707Z" fill="#008689"/>
<path d="M162.93 78.2427C164.728 83.799 164.946 92.3628 163.243 97.0316C161.031 104.92 158.552 114.77 150.484 118.669C142.07 122.738 136.486 126.436 135.265 136.24C135.834 131.666 136.241 127.013 138.584 122.947C142.609 115.957 149.734 115.824 155.413 111.231C161.107 106.631 163.07 98.4539 162.731 91.5057C162.497 86.8066 160.779 81.4362 162.93 78.2427ZM162.633 79.1037C162.689 78.9027 162.742 78.7054 162.798 78.5044C162.727 78.6751 162.674 78.8761 162.633 79.1037Z" fill="url(#paint6_linear)"/>
<path d="M141.52 66.1366C144.783 71.1353 150.186 74.0519 148.408 80.9773C146.637 87.8458 140.694 89.5904 146.769 96.44C144.267 93.6144 140.879 94.1189 139.281 89.8445C138.113 86.7156 140.431 83.8331 142.07 81.4058C147.307 73.6536 140.265 69.0228 136.553 63.3262C137.661 65.0329 140.404 64.4261 141.52 66.1366Z" fill="url(#paint7_linear)"/>
<path d="M187.28 150.796C193.151 154.032 198.788 157.623 201.746 163.938C197.967 161.807 197.198 161.344 194.926 157.684C192.865 154.365 189.895 151.627 185.848 151.305C182.05 151.001 178.44 153.03 174.989 154.301C171.292 155.662 170.599 151.456 167.961 152.158C174.559 150.402 180.66 147.148 187.28 150.796ZM197.465 161.518C197.379 161.469 197.292 161.423 197.205 161.374C197.285 161.423 197.375 161.477 197.465 161.518Z" fill="#FF6126"/>
<path d="M96.4264 100.107C104.102 106.164 105.233 116.636 102.229 125.458C102.335 125.147 98.0204 123.235 97.5908 122.966C97.474 122.89 99.0905 111.413 98.7514 109.669C98.0618 106.111 96.3172 102.319 93.8716 99.6372C92.1082 97.7067 86.3166 94.2365 83.7429 93.8231C88.4229 94.5702 92.7525 97.2023 96.4264 100.107Z" fill="#7CDE3E"/>
<path d="M167.328 57.8724C166.062 58.4754 164.351 57.4969 163.503 55.6916C162.659 53.8901 162.998 51.9407 164.264 51.3376C165.53 50.7346 167.241 51.7131 168.085 53.5146C168.933 55.3199 168.594 57.2694 167.328 57.8724Z" fill="#FF6126"/>
<path d="M170.323 46.3426C169.061 46.9419 167.347 45.9672 166.502 44.1656C165.655 42.3603 165.998 40.4147 167.26 39.8117C168.526 39.2086 170.24 40.1833 171.085 41.9887C171.932 43.7902 171.589 45.7396 170.323 46.3426Z" fill="#7CDE3E"/>
<path d="M221.581 107.769C220.017 110.241 217.474 111.432 215.899 110.424C214.324 109.418 214.32 106.589 215.884 104.116C217.451 101.644 219.991 100.453 221.566 101.461C223.137 102.47 223.141 105.296 221.581 107.769Z" fill="#7CDE3E"/>
<path d="M237.404 121.767C236.002 122.477 234.498 122.317 234.05 121.415C233.598 120.508 234.37 119.204 235.772 118.498C237.174 117.789 238.673 117.952 239.126 118.855C239.578 119.754 238.805 121.058 237.404 121.767Z" fill="#FF6126"/>
<path d="M244.397 133.092C244.397 133.092 256.553 121.68 260.973 126.63C265.39 131.571 256.309 132.364 256.309 132.364C256.309 132.364 266.256 137.154 261.207 141.319C256.158 145.479 250.781 132.523 244.397 133.092Z" fill="url(#paint8_linear)"/>
<path d="M208.984 44.6549L203.155 18.2921L212.033 18.3035C212.033 18.3035 213.008 42.2769 212.221 43.5892C211.437 44.9015 208.984 44.6549 208.984 44.6549Z" fill="url(#paint9_linear)"/>
<path d="M233.195 68.4008C233.195 68.4008 244.424 47.5524 247.374 50.8521C250.321 54.1517 251.138 59.8748 251.138 59.8748L233.195 68.4008Z" fill="url(#paint10_linear)"/>
<path d="M146.46 47.6132C146.46 47.6132 140.442 30.8117 138.264 32.7839C136.09 34.7523 133.776 37.0999 133.776 37.0999L144.045 49.0734L146.46 47.6132Z" fill="url(#paint11_linear)"/>
<path d="M126.805 58.5664C125.117 59.3667 122.822 58.0392 121.677 55.5967C120.531 53.1543 120.972 50.526 122.656 49.7257C124.341 48.9254 126.639 50.2491 127.785 52.6954C128.927 55.134 128.489 57.7662 126.805 58.5664Z" fill="#FFB026"/>
<path d="M228.304 151.544C227.252 152.044 225.79 151.157 225.044 149.568C224.298 147.978 224.547 146.283 225.602 145.779C226.657 145.278 228.115 146.162 228.861 147.755C229.607 149.348 229.359 151.043 228.304 151.544Z" fill="#7CDE3E"/>
<path d="M235.282 92.2074C234.016 92.8066 232.588 92.4349 232.09 91.373C231.593 90.3148 232.215 88.9646 233.477 88.3654C234.743 87.7623 236.171 88.1378 236.669 89.196C237.17 90.2579 236.548 91.6043 235.282 92.2074Z" fill="#FF6126"/>
<path d="M247.936 108.986C246.775 109.536 245.388 109.039 244.846 107.867C244.296 106.703 244.793 105.307 245.954 104.757C247.114 104.207 248.497 104.7 249.043 105.872C249.594 107.04 249.096 108.432 247.936 108.986Z" fill="#FFB026"/>
<path d="M223.108 172.441C221.864 173.841 219.445 173.7 217.712 172.134C215.974 170.568 215.579 168.163 216.822 166.764C218.07 165.364 220.485 165.505 222.218 167.071C223.959 168.641 224.355 171.042 223.108 172.441Z" fill="url(#paint12_linear)"/>
<path d="M233.424 184.358C232.58 184.756 231.533 184.305 231.084 183.353C230.636 182.397 230.956 181.297 231.804 180.895C232.644 180.493 233.692 180.944 234.14 181.9C234.589 182.856 234.265 183.956 233.424 184.358Z" fill="#FFB226"/>
<path d="M121.368 146.223C119.736 146.996 117.784 146.295 117.015 144.652C116.243 143.006 116.944 141.042 118.575 140.268C120.207 139.49 122.159 140.196 122.931 141.842C123.7 143.484 123.003 145.445 121.368 146.223Z" fill="#FF6126"/>
<path d="M139.93 165.004C137.303 165.542 135.039 165.307 134.873 164.48C134.703 163.654 136.7 162.55 139.327 162.008C141.953 161.469 144.222 161.704 144.387 162.527C144.557 163.362 142.564 164.465 139.93 165.004Z" fill="#FF6126"/>
<path d="M187.438 32.5715C186.745 31.0923 184.461 32.177 185.155 33.6562C185.852 35.1391 188.135 34.0544 187.438 32.5715Z" fill="#7CDE3E"/>
<path d="M167.26 22.426C166.57 20.9582 164.313 22.0315 165.003 23.4993C165.688 24.9633 167.945 23.8899 167.26 22.426Z" fill="#7CDE3E"/>
<path d="M259.259 79.8736C258.562 78.3945 256.282 79.4792 256.975 80.9583C257.669 82.4413 259.948 81.3566 259.259 79.8736Z" fill="#FF6126"/>
<path d="M69.1188 81.7433C68.384 80.1732 65.9686 81.3223 66.7034 82.8925C67.4382 84.4589 69.8536 83.3097 69.1188 81.7433Z" fill="#FFB026"/>
<path d="M70.6938 104.602C70.5958 104.15 70.3471 103.767 69.846 103.581C69.1489 103.327 68.3576 103.707 68.1051 104.408C67.8564 105.114 68.2332 105.906 68.9266 106.161C69.4277 106.343 69.8573 106.206 70.2228 105.914C70.9011 105.933 71.2289 105.027 70.6938 104.602Z" fill="#FFB026"/>
<path d="M153.973 214.824C153.227 213.228 150.763 214.396 151.513 215.992C152.263 217.589 154.723 216.421 153.973 214.824Z" fill="#FF6126"/>
<path d="M173.884 206.772C172.848 204.565 169.445 206.181 170.482 208.388C171.518 210.595 174.917 208.98 173.884 206.772Z" fill="#FF6126"/>
<path d="M175.026 192.133C174.185 190.347 171.439 191.655 172.275 193.441C173.112 195.228 175.862 193.919 175.026 192.133Z" fill="#FF6126"/>
<path d="M127.502 155.283C127.634 155.021 127.683 154.756 127.634 154.445C127.502 153.618 126.579 153.152 125.836 153.504C125.098 153.853 124.864 154.87 125.414 155.496C125.622 155.731 125.859 155.863 126.142 155.928C126.707 156.129 127.295 155.848 127.502 155.283Z" fill="#FF6126"/>
<path d="M127.397 135.838C126.854 134.674 125.061 135.523 125.607 136.688C126.153 137.852 127.943 137.003 127.397 135.838Z" fill="#FF6126"/>
<path d="M183.576 86.9432C183.044 85.813 181.3 86.6398 181.831 87.7738C182.358 88.904 184.107 88.0734 183.576 86.9432Z" fill="#FF6126"/>
<path d="M179.431 95.6057C178.975 94.6348 177.475 95.3478 177.931 96.3187C178.391 97.2934 179.89 96.5804 179.431 95.6057Z" fill="#FF6126"/>
<path d="M237.735 165.531C236.955 163.877 234.408 165.087 235.184 166.741C235.957 168.398 238.512 167.188 237.735 165.531Z" fill="#7CDE3E"/>
<path d="M242.781 170.886C242.31 169.885 240.769 170.617 241.24 171.618C241.707 172.623 243.248 171.887 242.781 170.886Z" fill="#FFB226"/>
<path d="M221.11 52.5436C220.865 52.0202 220.228 51.7927 219.712 52.0392C219.196 52.2857 218.966 52.9267 219.211 53.4463C219.456 53.9659 220.093 54.1972 220.609 53.9545C221.125 53.7042 221.355 53.0632 221.11 52.5436Z" fill="#7CDE3E"/>
<path d="M225.07 43.6119C224.445 42.2769 222.387 43.2554 223.013 44.5904C223.638 45.9254 225.696 44.9469 225.07 43.6119Z" fill="#7CDE3E"/>
<path d="M8.04348 227.623C8.13228 228.029 8.35427 228.439 8.70651 228.847C9.30145 229.531 10.1066 229.914 11.0952 229.988C14.8158 230.26 20.3124 225.961 23.2664 223.652L23.4173 223.532C27.8424 220.075 33.8955 215.567 33.9547 215.521L36 214L33.5433 215.09C33.4693 215.125 25.9658 218.443 19.3918 220.723L18.122 221.156C13.3595 222.772 7.43374 224.788 8.04348 227.623ZM31.5453 216.572C29.3846 218.192 25.806 220.893 22.9201 223.15L22.7691 223.269C20.1022 225.355 14.5553 229.695 11.1603 229.448C10.3759 229.391 9.76024 229.093 9.28073 228.54C8.98474 228.199 8.79826 227.863 8.72722 227.535C8.20924 225.116 13.8568 223.196 18.3943 221.652C18.8324 221.504 19.2586 221.359 19.6671 221.216C24.0271 219.706 28.7867 217.743 31.5453 216.572Z" fill="#770000"/>
<path d="M90.61 111.864L31.0645 217.492L148.788 192.392L90.61 111.864Z" fill="url(#paint13_linear)"/>
<path d="M82.9358 188.282C86.7073 188.955 89.7296 189.087 90.5694 188.241C91.5249 187.29 90.3783 184.136 88.3316 180.528C90.9516 176.321 92.6413 172.687 91.892 171.619C91.1578 170.567 87.2454 171.007 82.5033 172.141C79.5916 168.674 76.7001 166.219 75.2669 166.902C74.0248 167.489 73.1045 170.84 72.5363 175.107C66.8538 177.111 62.1871 179.333 62.3933 180.462C62.6297 181.768 66.7935 183.711 71.8574 185.397C71.8071 191.572 72.4257 196.962 73.7734 197.241C75.106 197.524 79.0536 193.353 82.9358 188.282Z" fill="#FFB226"/>
<path d="M91.4999 137.464C92.2241 136.341 90.5796 133.886 88.015 131.279C89.7097 126.795 90.64 123.09 89.7449 122.361C89.0559 121.799 86.7075 122.619 83.6902 124.138L73.7534 141.762C74.7994 146.611 76.1924 150.447 77.3892 150.316C78.6917 150.174 81.6335 145.335 84.3641 139.717C88.01 139.221 90.8562 138.457 91.4999 137.464Z" fill="#FFB226"/>
<path d="M138.78 194.234C138.484 193.131 134.697 192.25 129.88 191.678C128.466 187.892 126.701 184.956 125.112 185.058C123.744 185.149 121.653 187.614 119.535 190.944C113.521 190.792 108.372 191.137 108.14 192.134C107.879 193.283 111.012 196.208 115.08 199.205C115.015 199.341 114.954 199.478 114.894 199.61L138.775 194.523C138.796 194.422 138.801 194.32 138.78 194.234Z" fill="#FFB226"/>
<path d="M102.151 169.575C100.461 170.379 98.4498 169.651 97.6452 167.95C96.8507 166.254 97.5748 164.225 99.2645 163.425C100.949 162.625 102.966 163.354 103.765 165.05C104.56 166.745 103.836 168.77 102.151 169.575Z" fill="#FFB226"/>
<path d="M53.744 203.861C52.0544 204.666 50.0378 203.937 49.2433 202.236C48.4437 200.536 49.1679 198.511 50.8575 197.706C52.5421 196.907 54.5587 197.625 55.3532 199.331C56.1528 201.032 55.4337 203.056 53.744 203.861Z" fill="#FFB226"/>
<path d="M64.3394 161.198C64.1181 160.732 63.8114 160.353 63.4443 160.044L60.1655 165.86C60.9752 166.143 61.8904 166.128 62.7252 165.728C64.4148 164.923 65.139 162.893 64.3394 161.198Z" fill="#FFB226"/>
<path d="M94.4265 203.426C92.7419 204.231 90.7254 203.502 89.9258 201.801C89.1313 200.101 89.8504 198.076 91.5451 197.271C93.2347 196.466 95.2462 197.195 96.0408 198.896C96.8353 200.597 96.1162 202.621 94.4265 203.426Z" fill="#FFB226"/>
<path opacity="0.4" d="M53.4722 186.227L90.3229 120.924C96.1865 117.836 111.821 132.17 125.972 153.484C97.5493 150.802 72.2596 165.439 53.4722 186.227Z" fill="#E26340"/>
<path opacity="0.2" d="M141.149 188.439L50.1938 209.738L135.456 167.849C143.412 180.872 143.704 185.721 141.149 188.439Z" fill="#FFFFB1"/>
<path d="M149.472 191.891C145.413 194.857 129.105 179.242 113.038 157.002C96.9764 134.762 87.2357 114.339 91.2888 111.362C95.347 108.391 111.655 124.016 127.722 146.256C143.789 168.486 153.525 188.92 149.472 191.891Z" fill="url(#paint14_linear)"/>
<path d="M139.253 187.067C132.157 167.793 111.469 136.002 93.0688 123.51C96.7147 132.12 103.835 144.257 113.038 156.997C122.557 170.172 132.162 181.029 139.253 187.067Z" fill="#770000"/>
<path d="M122.04 150.042C120.969 147.754 117.449 149.425 118.515 151.717C119.591 154 123.116 152.33 122.04 150.042Z" fill="#FFB026"/>
<path d="M137.363 170.511C136.699 169.094 134.522 170.131 135.185 171.544C135.844 172.961 138.027 171.923 137.363 170.511Z" fill="#FFB026"/>
<path d="M106.386 125.833C106.431 125.793 106.486 125.772 106.532 125.742C106.863 125.464 107.08 125.297 106.386 125.833Z" fill="#FF6126"/>
<path d="M110.323 127.255C110.177 126.4 109.574 125.681 108.764 125.393C107.975 125.104 107.195 125.287 106.531 125.742C106.295 125.939 105.998 126.198 105.943 126.304C105.742 126.658 105.526 127.048 105.541 127.473C105.551 127.807 105.591 128.111 105.682 128.394C105.692 128.43 105.717 128.47 105.727 128.506C105.757 128.576 105.777 128.647 105.817 128.718C106.069 129.265 106.506 129.72 107.145 129.948C108.845 130.566 110.64 129.052 110.323 127.255Z" fill="#FFB026"/>
<path d="M98.5968 64.0506C101.329 63.1555 104.192 62.3818 104.452 61.5208C104.75 60.5575 102.06 58.6612 99.4371 57.0076C99.6858 53.2945 100.119 48.9519 99.2524 48.5158C98.397 48.0834 95.375 51.1062 92.6393 53.5411C89.4967 52.2857 86.0489 51.4513 85.3405 52.4109C84.73 53.2414 85.9735 56.0253 87.0964 59.048C84.048 62.3932 82.2845 65.3325 82.8158 66.0038C83.43 66.7775 86.3202 66.7775 90.2616 66.091C92.3982 70.1833 94.8437 72.4437 95.831 72.1479C96.8144 71.8559 97.8168 68.7838 98.5968 64.0506Z" fill="url(#paint15_linear)"/>
<path d="M116.217 68.3932C116.726 68.7915 119.582 70.2517 120.897 71.0026C128.444 74.7118 122.728 80.2491 118.892 85.1151C115.053 89.9849 130.313 94.8357 129.545 101.12C128.735 107.765 115.101 104.617 122.555 114.129C124.691 116.856 124.492 119.681 120.889 121.077C116.074 122.939 115.399 124.995 118.142 129.523C116.349 126.561 112.875 128.01 111.755 123.592C110.474 118.532 116.654 119.31 118.47 116.158C120.859 112.009 113.824 109.24 115.588 105.209C117.336 101.204 123.938 102.231 124.586 97.1113C125.596 89.1581 106.521 88.2175 116.646 79.4147C118.843 77.507 122.095 68.7953 116.375 70.5627C115.218 70.923 113.346 72.8762 112.177 72.2618C111.526 71.9166 108.681 69.0949 107.946 69.5955C110.553 67.8206 113.225 67.0431 116.217 68.3932Z" fill="url(#paint16_linear)"/>
<path d="M143.881 129.5C144.948 128.172 147.514 127.456 149.066 126.841C151.173 126.011 152.642 126.959 154.293 128.222C154.323 125.976 153.486 123.447 155.528 121.835C157.202 120.515 159.44 119.836 161.35 118.937C164.659 116.87 167.308 121.683 169.878 123.322C170.089 121.262 168.465 117.492 170.307 115.907C171.837 114.595 174.618 113.787 176.408 113.328C182.343 111.811 187.761 115.846 191.985 119.533C191.303 118.937 188.65 121.683 187.723 121.653C186.83 121.622 184.924 119.548 184.159 119.005C182.58 117.894 180.918 116.87 179.121 116.146C177.606 115.531 175.993 115.137 174.354 115.141C173.879 116.817 174.437 118.615 174.558 120.306C174.829 124.046 171.159 124.702 168.393 126.007C166.871 127.167 163.366 124.493 162.062 123.052C161.505 122.438 159.538 120.121 159.018 121.497C158.535 122.772 158.698 124.205 158.852 125.529C159.206 128.559 156.844 129.356 154.669 130.471C153.464 131.085 151.986 131.821 150.622 131.294C149.435 130.835 148.61 129.78 147.544 129.117C146.926 130.672 146.737 132.466 145.645 133.789C144.273 135.454 141.79 135.815 140 136.869C142.634 135.31 142.11 131.696 143.881 129.5Z" fill="#7CDE3E"/>
<defs>
<linearGradient id="paint0_linear" x1="209.353" y1="124.883" x2="212.191" y2="141.779" gradientUnits="userSpaceOnUse">
<stop stop-color="#FFDB00"/>
<stop offset="0.0598" stop-color="#FFE416"/>
<stop offset="0.1598" stop-color="#FFEF35"/>
<stop offset="0.257" stop-color="#FFF84C"/>
<stop offset="0.3495" stop-color="#FFFD59"/>
<stop offset="0.432" stop-color="#FFFF5E"/>
<stop offset="0.5107" stop-color="#FEF248"/>
<stop offset="0.6421" stop-color="#FDE029"/>
<stop offset="0.7699" stop-color="#FCD312"/>
<stop offset="0.8915" stop-color="#FBCC05"/>
<stop offset="1" stop-color="#FBC900"/>
</linearGradient>
<linearGradient id="paint1_linear" x1="184.795" y1="50.8635" x2="188.181" y2="71.0255" gradientUnits="userSpaceOnUse">
<stop offset="0.00485437" stop-color="#FF5690"/>
<stop offset="0.2296" stop-color="#FB4E80"/>
<stop offset="0.7226" stop-color="#F33E61"/>
<stop offset="1" stop-color="#F03856"/>
</linearGradient>
<linearGradient id="paint2_linear" x1="165.606" y1="78.6567" x2="176.807" y2="145.347" gradientUnits="userSpaceOnUse">
<stop stop-color="#FFB226"/>
<stop offset="0.2527" stop-color="#FF8B26"/>
<stop offset="0.492" stop-color="#FF6C26"/>
<stop offset="0.6262" stop-color="#FF6126"/>
<stop offset="1" stop-color="#FFB226"/>
</linearGradient>
<linearGradient id="paint3_linear" x1="149.295" y1="171.58" x2="150.222" y2="177.1" gradientUnits="userSpaceOnUse">
<stop stop-color="#3DC540"/>
<stop offset="0.5573" stop-color="#44B139"/>
<stop offset="1" stop-color="#47A736"/>
</linearGradient>
<linearGradient id="paint4_linear" x1="167.743" y1="172.937" x2="169.132" y2="181.212" gradientUnits="userSpaceOnUse">
<stop stop-color="#3DC540"/>
<stop offset="0.5573" stop-color="#44B139"/>
<stop offset="1" stop-color="#47A736"/>
</linearGradient>
<linearGradient id="paint5_linear" x1="187.724" y1="178.771" x2="189.356" y2="188.487" gradientUnits="userSpaceOnUse">
<stop stop-color="#3DC540"/>
<stop offset="0.5573" stop-color="#44B139"/>
<stop offset="1" stop-color="#47A736"/>
</linearGradient>
<linearGradient id="paint6_linear" x1="140.119" y1="94.5167" x2="158.205" y2="119.846" gradientUnits="userSpaceOnUse">
<stop stop-color="#00C4B8"/>
<stop offset="0.3544" stop-color="#00FDD4"/>
<stop offset="0.5253" stop-color="#00EACB"/>
<stop offset="0.8255" stop-color="#00CEBD"/>
<stop offset="1" stop-color="#00C4B8"/>
</linearGradient>
<linearGradient id="paint7_linear" x1="140.474" y1="62.6104" x2="146.164" y2="96.4837" gradientUnits="userSpaceOnUse">
<stop stop-color="#FFDB00"/>
<stop offset="0.0598" stop-color="#FFE416"/>
<stop offset="0.1598" stop-color="#FFEF35"/>
<stop offset="0.257" stop-color="#FFF84C"/>
<stop offset="0.3495" stop-color="#FFFD59"/>
<stop offset="0.432" stop-color="#FFFF5E"/>
<stop offset="0.5107" stop-color="#FEF248"/>
<stop offset="0.6421" stop-color="#FDE029"/>
<stop offset="0.7699" stop-color="#FCD312"/>
<stop offset="0.8915" stop-color="#FBCC05"/>
<stop offset="1" stop-color="#FBC900"/>
</linearGradient>
<linearGradient id="paint8_linear" x1="252.487" y1="126.158" x2="255.276" y2="142.763" gradientUnits="userSpaceOnUse">
<stop offset="0.00485437" stop-color="#FF5690"/>
<stop offset="0.2296" stop-color="#FB4E80"/>
<stop offset="0.7226" stop-color="#F33E61"/>
<stop offset="1" stop-color="#F03856"/>
</linearGradient>
<linearGradient id="paint9_linear" x1="207.468" y1="17.5102" x2="211.964" y2="44.28" gradientUnits="userSpaceOnUse">
<stop stop-color="#00C4B8"/>
<stop offset="0.3544" stop-color="#00FDD4"/>
<stop offset="0.5253" stop-color="#00EACB"/>
<stop offset="0.8255" stop-color="#00CEBD"/>
<stop offset="1" stop-color="#00C4B8"/>
</linearGradient>
<linearGradient id="paint10_linear" x1="240.077" y1="51.5177" x2="242.636" y2="66.7555" gradientUnits="userSpaceOnUse">
<stop stop-color="#FFB226"/>
<stop offset="0.2527" stop-color="#FF8B26"/>
<stop offset="0.492" stop-color="#FF6C26"/>
<stop offset="0.6262" stop-color="#FF6126"/>
<stop offset="1" stop-color="#FFB226"/>
</linearGradient>
<linearGradient id="paint11_linear" x1="138.504" y1="32.5845" x2="141.34" y2="49.4682" gradientUnits="userSpaceOnUse">
<stop stop-color="#3DC540"/>
<stop offset="0.5573" stop-color="#44B139"/>
<stop offset="1" stop-color="#47A736"/>
</linearGradient>
<linearGradient id="paint12_linear" x1="219.314" y1="165.655" x2="220.619" y2="173.427" gradientUnits="userSpaceOnUse">
<stop stop-color="#00C4B8"/>
<stop offset="0.3544" stop-color="#00FDD4"/>
<stop offset="0.5253" stop-color="#00EACB"/>
<stop offset="0.8255" stop-color="#00CEBD"/>
<stop offset="1" stop-color="#00C4B8"/>
</linearGradient>
<linearGradient id="paint13_linear" x1="46.2252" y1="144.389" x2="104.905" y2="224.554" gradientUnits="userSpaceOnUse">
<stop stop-color="#EC181B"/>
<stop offset="0.4963" stop-color="#EF311C"/>
<stop offset="1" stop-color="#F2461D"/>
</linearGradient>
<linearGradient id="paint14_linear" x1="91.3395" y1="111.365" x2="150.018" y2="191.528" gradientUnits="userSpaceOnUse">
<stop stop-color="#AB1C1D"/>
<stop offset="0.7797" stop-color="#9B0714"/>
<stop offset="1" stop-color="#960011"/>
</linearGradient>
<linearGradient id="paint15_linear" x1="91.3197" y1="49.7067" x2="95.1006" y2="72.2177" gradientUnits="userSpaceOnUse">
<stop stop-color="#FFDB00"/>
<stop offset="0.0598" stop-color="#FFE416"/>
<stop offset="0.1598" stop-color="#FFEF35"/>
<stop offset="0.257" stop-color="#FFF84C"/>
<stop offset="0.3495" stop-color="#FFFD59"/>
<stop offset="0.432" stop-color="#FFFF5E"/>
<stop offset="0.5107" stop-color="#FEF248"/>
<stop offset="0.6421" stop-color="#FDE029"/>
<stop offset="0.7699" stop-color="#FCD312"/>
<stop offset="0.8915" stop-color="#FBCC05"/>
<stop offset="1" stop-color="#FBC900"/>
</linearGradient>
<linearGradient id="paint16_linear" x1="113.293" y1="67.5334" x2="123.542" y2="128.553" gradientUnits="userSpaceOnUse">
<stop stop-color="#00C4B8"/>
<stop offset="0.3544" stop-color="#00FDD4"/>
<stop offset="0.5253" stop-color="#00EACB"/>
<stop offset="0.8255" stop-color="#00CEBD"/>
<stop offset="1" stop-color="#00C4B8"/>
</linearGradient>
</defs>
</svg>
