<svg width="310" height="286" viewBox="0 0 310 286" fill="none" xmlns="http://www.w3.org/2000/svg">
<path d="M289.923 222.709C287.57 216.669 285.813 210.257 283.896 203.486C282.601 198.921 280.517 193.817 276.003 192.381C271.604 190.983 266.872 193.881 264.173 197.619C261.473 201.358 260.108 205.884 257.793 209.879C253.599 217.112 246.181 220.145 240.045 213.784C231.279 204.698 227.336 192.317 221.777 181.237C217.744 173.196 214.365 163.777 209.28 156.365C201.528 145.061 190.897 135.423 176.765 135.423C167.807 136.783 159.914 144.714 154.567 154.634C149.226 164.553 146.109 176.344 143.455 188.11C138.627 209.507 135.087 229.769 131.554 251.634C131.554 251.634 309.877 251.185 309.884 251.185C309.172 251.191 304.799 245.35 303.965 244.542C297.117 237.912 293.007 230.628 289.923 222.709Z" fill="#FF006E"/>
<path d="M256.074 232.904C255.721 239.836 248.181 251.954 241.25 251.608C234.318 251.262 230.619 238.573 230.971 231.641C231.324 224.71 238.704 190.021 245.635 190.368C252.567 190.714 256.427 225.973 256.074 232.904Z" fill="#EFAF3F"/>
<path d="M245.302 194.875L241.808 251.051" stroke="#2A294F" stroke-width="0.7798" stroke-miterlimit="10" stroke-linecap="round" stroke-linejoin="round"/>
<path d="M240.211 231.462C238.634 234.931 237.428 238.567 236.704 242.362C236.338 244.286 236.101 246.37 236.973 248.12C237.922 250.038 240.031 251.153 242.141 251.499C247.296 252.346 252.445 249.191 255.465 244.927C258.485 240.67 259.793 235.463 260.992 230.379C261.935 226.377 262.864 222.319 264.647 218.587C265.41 216.99 269.885 210.816 267.769 209.219C264.878 206.943 256.497 209.418 251.13 215.278C246.713 220.1 242.91 225.531 240.211 231.462Z" fill="#FFC957"/>
<path d="M242.141 251.493C242.141 251.493 248.361 227.275 263.384 213.387" stroke="#2A294F" stroke-width="0.7798" stroke-miterlimit="10" stroke-linecap="round" stroke-linejoin="round"/>
<path d="M276.65 225.749C276.118 226.705 275.118 227.352 274.214 227.865C273.098 228.493 271.906 229.045 270.758 229.584C269.283 230.27 267.757 230.981 266.346 231.866C265.321 232.514 264.404 233.238 263.641 234.021C264.852 231.27 266.263 228.872 267.93 226.724C270.123 223.903 272.374 222.473 274.624 222.473C274.676 222.473 274.727 222.473 274.778 222.473C275.477 222.492 276.016 222.665 276.388 222.986C277.151 223.64 277.119 224.903 276.65 225.749Z" fill="#FFC957"/>
<path d="M279.157 241.407C278.266 242.042 277.086 242.202 276.048 242.279C274.772 242.369 273.457 242.362 272.188 242.35C270.559 242.337 268.873 242.324 267.225 242.523C266.019 242.664 264.884 242.933 263.858 243.311C266.128 241.343 268.437 239.778 270.86 238.554C274.053 236.938 276.695 236.611 278.728 237.573C278.773 237.592 278.824 237.618 278.869 237.643C279.491 237.957 279.908 238.349 280.106 238.797C280.517 239.721 279.946 240.849 279.157 241.407Z" fill="#FFC957"/>
<path d="M273.233 249.114C272.495 249.012 271.829 248.537 271.277 248.088C270.597 247.537 269.95 246.915 269.322 246.319C268.514 245.549 267.686 244.754 266.77 244.081C266.103 243.587 265.41 243.19 264.724 242.895C266.776 242.978 268.655 243.28 270.437 243.812C272.778 244.504 274.252 245.581 274.81 247.011C274.823 247.043 274.836 247.075 274.849 247.114C275.009 247.563 275.035 247.947 274.926 248.268C274.695 248.909 273.88 249.204 273.233 249.114Z" fill="#FFC957"/>
<path d="M256.363 251.628C256.363 251.628 256.433 236.81 274.528 224.23" stroke="#2A294F" stroke-width="0.7798" stroke-miterlimit="10" stroke-linecap="round" stroke-linejoin="round"/>
<path d="M256.363 251.628C256.363 251.628 261.922 239.721 276.984 239.721" stroke="#2A294F" stroke-width="0.7798" stroke-miterlimit="10" stroke-linecap="round" stroke-linejoin="round"/>
<path d="M264.563 243.036C264.563 243.036 267.481 242.824 273.572 247.415" stroke="#2A294F" stroke-width="0.7798" stroke-miterlimit="10" stroke-linecap="round" stroke-linejoin="round"/>
<path d="M142 251.987C136.115 236.188 130.193 220.383 123.269 205.083C119.361 196.453 115.055 187.862 109.07 180.962C103.086 174.061 95.1601 168.968 87.1985 169C74.9402 170.685 67.0237 179.277 61.8333 188.797C58.4302 195.037 56.7783 202.597 54.3772 209.196C51.0644 218.281 49.3222 228.167 42.9584 236.111C38.4991 241.679 31.6478 240.256 27.0261 235.259C24.4806 232.498 22.6752 229.217 19.8228 226.7C16.9703 224.182 12.466 222.542 8.84623 224.131C5.11817 225.764 4.00788 229.89 3.50238 233.516C2.76219 238.892 2.10324 243.972 0.884622 248.848C0.622846 249.911 0.324963 250.956 0 252H142V251.987Z" fill="#FF006E"/>
<path d="M63.4656 229.936C60.8495 226.922 57.541 224.319 56.5022 220.517C55.7392 217.74 56.3419 214.797 56.6369 211.931C56.9318 209.065 56.8292 205.897 54.9762 203.692C53.4501 201.871 51.0328 201.082 48.7117 200.582C46.3906 200.082 43.9669 199.768 41.9086 198.588C38.5616 196.671 39.2284 193.407 37.4331 190.547C35.4197 187.335 30.7262 183.238 26.7123 185.373C22.4547 187.63 23.128 194.491 25.9621 197.517C27.8408 199.524 30.2453 201.454 30.521 204.185C30.9378 208.302 26.2186 212.014 27.5138 215.945C28.4756 218.85 32.1304 219.843 33.9385 222.312C35.7275 224.755 35.3684 228.173 34.3104 231.007C33.2589 233.841 31.5982 236.463 30.9442 239.419C29.6041 245.459 34.3425 249.64 39.7478 250.986C44.7106 252.224 55.4186 251.64 55.4186 251.64C59.2401 250.307 63.4784 246.947 65.5751 243.279C67.1653 240.509 67.3833 236.995 66.1522 234.046C65.5239 232.52 64.5556 231.193 63.4656 229.936Z" fill="#FFC957"/>
<path d="M31.4634 191.881C31.4634 191.881 49.7439 220.119 51.7316 251.474" stroke="#2A294F" stroke-width="0.7798" stroke-miterlimit="10" stroke-linecap="round" stroke-linejoin="round"/>
<path d="M15.1832 229.968C15.4653 229.724 15.8757 229.596 16.4015 229.583C16.4399 229.583 16.4784 229.583 16.5169 229.583C18.216 229.583 19.9216 230.667 21.5759 232.802C22.8391 234.424 23.9035 236.239 24.8204 238.316C24.2433 237.726 23.5508 237.175 22.7749 236.688C21.7106 236.021 20.5564 235.482 19.4407 234.963C18.5687 234.559 17.671 234.142 16.8247 233.661C16.1386 233.277 15.382 232.783 14.9844 232.065C14.6253 231.423 14.6061 230.468 15.1832 229.968Z" fill="#FFC957"/>
<path d="M12.3685 241.926C12.5224 241.586 12.8366 241.291 13.3046 241.054C13.3367 241.035 13.3752 241.016 13.4072 241.003C14.9461 240.272 16.9466 240.522 19.3575 241.747C21.1913 242.676 22.9354 243.856 24.6474 245.344C23.8715 245.055 23.0123 244.856 22.1018 244.747C20.8515 244.6 19.5755 244.606 18.3444 244.613C17.3826 244.619 16.3952 244.626 15.427 244.555C14.6447 244.497 13.747 244.375 13.0802 243.901C12.4903 243.478 12.0607 242.625 12.3685 241.926Z" fill="#FFC957"/>
<path d="M16.2861 249.082C16.2028 248.845 16.222 248.55 16.3439 248.21C16.3503 248.184 16.3631 248.158 16.3695 248.133C16.7927 247.049 17.902 246.235 19.6781 245.709C21.0246 245.312 22.448 245.081 23.9997 245.017C23.4804 245.241 22.9546 245.542 22.4544 245.914C21.762 246.427 21.1336 247.03 20.5245 247.607C20.05 248.062 19.5627 248.53 19.0497 248.947C18.6329 249.287 18.1328 249.646 17.5749 249.723C17.0748 249.794 16.4593 249.569 16.2861 249.082Z" fill="#FFC957"/>
<path d="M30.3218 251.627C30.3218 251.627 30.2705 240.419 16.5874 230.91" stroke="#2A294F" stroke-width="0.7798" stroke-miterlimit="10" stroke-linecap="round" stroke-linejoin="round"/>
<path d="M30.3219 251.627C30.3219 251.627 26.1221 242.625 14.728 242.625" stroke="#2A294F" stroke-width="0.7798" stroke-miterlimit="10" stroke-linecap="round" stroke-linejoin="round"/>
<path d="M24.1215 245.132C24.1215 245.132 21.9158 244.972 17.312 248.447" stroke="#2A294F" stroke-width="0.7798" stroke-miterlimit="10" stroke-linecap="round" stroke-linejoin="round"/>
<path fill-rule="evenodd" clip-rule="evenodd" d="M163.232 48.7871H134.797V71.8949H163.232V48.7871Z" fill="#FF006E"/>
<path d="M163.232 74.6329H134.801C133.287 74.6329 132.06 73.4073 132.06 71.8947V48.787C132.06 47.2744 133.287 46.0488 134.801 46.0488H163.232C164.746 46.0488 165.973 47.2744 165.973 48.787V71.8947C165.973 73.4073 164.742 74.6329 163.232 74.6329ZM137.538 69.1566H160.492V51.5252H137.538V69.1566Z" fill="#FF006E"/>
<path d="M179.878 47.8871C179.878 51.6996 176.757 54.8178 172.945 54.8178H125.088C121.272 54.8178 118.155 51.6996 118.155 47.8871V42.7947C118.155 38.9822 121.276 35.8639 125.088 35.8639H172.941C176.757 35.8639 179.874 38.9822 179.874 42.7947V47.8871H179.878Z" fill="#D10064"/>
<path d="M134.855 57.556H125.088C119.754 57.556 115.414 53.2199 115.414 47.8871V42.7947C115.414 37.4618 119.754 33.1257 125.088 33.1257H172.945C178.279 33.1257 182.619 37.4618 182.619 42.7947V47.8871C182.619 49.3997 181.392 50.6252 179.878 50.6252C178.364 50.6252 177.137 49.3997 177.137 47.8871V42.7947C177.137 40.4831 175.255 38.6021 172.945 38.6021H125.088C122.774 38.6021 120.895 40.4831 120.895 42.7947V47.8871C120.895 50.1986 122.778 52.0797 125.088 52.0797H134.859C136.373 52.0797 137.6 53.3053 137.6 54.8178C137.6 56.3304 136.369 57.556 134.855 57.556Z" fill="#B5005F"/>
<path d="M213.05 93.0051L198.186 82.7117L206.567 70.6304L221.431 80.9237L213.05 93.0051Z" fill="#FF006E"/>
<path d="M213.05 95.7432C212.51 95.7432 211.967 95.5842 211.489 95.2545L196.621 84.9651C196.023 84.5501 195.616 83.9179 195.488 83.2042C195.356 82.4906 195.519 81.7537 195.93 81.1564L204.311 69.0751C204.727 68.4778 205.36 68.0706 206.074 67.9387C206.796 67.8107 207.53 67.9697 208.124 68.3809L222.992 78.6781C223.589 79.0931 223.997 79.7253 224.125 80.4389C224.257 81.1525 224.094 81.8894 223.683 82.4867L215.301 94.5642C214.769 95.3321 213.915 95.7432 213.05 95.7432ZM201.998 82.0213L212.363 89.1925L217.623 81.6141L207.258 74.439L201.998 82.0213Z" fill="#FF006E"/>
<path d="M230.465 86.4776C229.079 88.4672 226.319 88.9714 224.323 87.5907L199.304 70.2657C197.309 68.885 196.808 66.1235 198.19 64.13L200.038 61.4655C201.42 59.4759 204.184 58.9756 206.175 60.3524L231.194 77.6774C233.19 79.0581 233.691 81.8196 232.309 83.8131L230.465 86.4776Z" fill="#D10064"/>
<path d="M230.464 89.2157C229.925 89.2157 229.381 89.0567 228.904 88.727C227.662 87.866 227.351 86.1595 228.213 84.9184L230.057 82.2578C230.573 81.5131 230.379 80.4466 229.634 79.9307L204.614 62.6057C204.253 62.3536 203.811 62.2606 203.364 62.342C202.922 62.4234 202.541 62.6639 202.289 63.0285L200.437 65.693C200.185 66.0575 200.092 66.4997 200.173 66.9418C200.255 67.384 200.499 67.7679 200.86 68.0162L205.938 71.5339C207.18 72.3949 207.491 74.1014 206.629 75.3425C205.767 76.5875 204.059 76.8939 202.817 76.0329L197.739 72.519C196.175 71.4369 195.123 69.8041 194.781 67.9192C194.44 66.0382 194.847 64.1377 195.934 62.5747L197.782 59.9102C198.865 58.3472 200.499 57.2962 202.386 56.9548C204.265 56.6097 206.167 57.0247 207.732 58.1067L232.751 75.4317C235.992 77.6774 236.8 82.1376 234.56 85.3761L232.716 88.0367C232.188 88.8046 231.33 89.2157 230.464 89.2157Z" fill="#B5005F"/>
<path fill-rule="evenodd" clip-rule="evenodd" d="M150.426 66.9846C205.88 66.9846 250.899 111.967 250.899 167.366C250.899 222.77 205.876 267.748 150.426 267.748C94.9758 267.748 49.9526 222.77 49.9526 167.366C49.9526 111.963 94.9758 66.9846 150.426 66.9846Z" fill="#B5005F"/>
<path d="M150.426 255.469C101.804 255.469 62.2427 215.948 62.2427 167.366C62.2427 118.785 101.804 79.2676 150.426 79.2676C199.051 79.2676 238.609 118.789 238.609 167.366C238.609 215.944 199.051 255.469 150.426 255.469Z" fill="url(#paint0_linear)"/>
<path d="M150.212 79.2676C134.685 79.3064 120.092 83.3748 107.421 90.4763L150.212 168.119V79.2676Z" fill="#D67B0D"/>
<path d="M160.511 191.417C161.016 191.417 161.532 191.292 162.006 191.033C163.516 190.206 164.067 188.318 163.24 186.813L127.868 122.369C127.041 120.86 125.146 120.313 123.64 121.135C122.134 121.961 121.583 123.85 122.406 125.355L157.778 189.799C158.345 190.835 159.413 191.417 160.511 191.417Z" fill="white"/>
<path d="M150.426 183.966C141.264 183.966 133.811 176.519 133.811 167.366C133.811 158.213 141.264 150.767 150.426 150.767C159.587 150.767 167.041 158.213 167.041 167.366C167.041 176.519 159.587 183.966 150.426 183.966Z" fill="white"/>
<path d="M233.694 170.477H222.576C220.857 170.477 219.463 169.085 219.463 167.366C219.463 165.648 220.857 164.256 222.576 164.256H233.694C235.414 164.256 236.804 165.648 236.804 167.366C236.808 169.085 235.414 170.477 233.694 170.477Z" fill="white"/>
<path d="M78.7724 170.477H67.6544C65.9347 170.477 64.5449 169.085 64.5449 167.366C64.5449 165.648 65.9386 164.256 67.6544 164.256H78.7724C80.4921 164.256 81.8857 165.648 81.8857 167.366C81.8857 169.085 80.4921 170.477 78.7724 170.477Z" fill="white"/>
<path d="M150.674 98.6404C148.955 98.6404 147.561 97.2442 147.561 95.5299V84.422C147.561 82.7039 148.955 81.3115 150.674 81.3115C152.394 81.3115 153.788 82.7078 153.788 84.422V95.5299C153.788 97.248 152.394 98.6404 150.674 98.6404Z" fill="white"/>
<path d="M150.674 253.421C148.955 253.421 147.561 252.029 147.561 250.311V239.203C147.561 237.485 148.955 236.092 150.674 236.092C152.394 236.092 153.788 237.485 153.788 239.203V250.311C153.788 252.029 152.394 253.421 150.674 253.421Z" fill="white"/>
<path d="M150.426 270.486C148.912 270.486 147.685 269.261 147.685 267.748C147.685 266.236 148.912 265.01 150.426 265.01C204.316 265.01 248.159 221.207 248.159 167.366C248.159 158.485 246.963 149.685 244.607 141.21C244.203 139.756 245.053 138.243 246.513 137.84C247.964 137.433 249.482 138.29 249.886 139.744C252.374 148.696 253.636 157.988 253.636 167.366C253.644 224.228 207.34 270.486 150.426 270.486ZM81.6451 243.252C80.9696 243.252 80.298 243.008 79.7701 242.507C59.0791 223.076 47.2158 195.691 47.2158 167.366C47.2158 124.227 74.4712 85.2909 115.038 70.4791C116.463 69.9594 118.035 70.6885 118.551 72.1119C119.071 73.5314 118.338 75.1022 116.917 75.6219C78.5046 89.6464 52.6933 126.515 52.6933 167.366C52.6933 194.581 63.6405 219.849 83.5201 238.52C84.6226 239.556 84.6769 241.289 83.6404 242.391C83.1008 242.961 82.3749 243.252 81.6451 243.252Z" fill="#FF006E"/>
<defs>
<linearGradient id="paint0_linear" x1="145.469" y1="233.191" x2="173.072" y2="-133.993" gradientUnits="userSpaceOnUse">
<stop stop-color="#F98D0B"/>
<stop offset="0.1257" stop-color="#FE9D19"/>
<stop offset="1" stop-color="#FFA01B"/>
</linearGradient>
</defs>
</svg>
