<svg width="310" height="242" viewBox="0 0 310 242" fill="none" xmlns="http://www.w3.org/2000/svg">
<path d="M289.923 198.709C287.57 192.669 285.813 186.257 283.896 179.486C282.601 174.921 280.517 169.817 276.003 168.381C271.604 166.983 266.872 169.881 264.173 173.619C261.473 177.358 260.107 181.884 257.793 185.879C253.599 193.112 246.181 196.145 240.044 189.784C231.279 180.698 227.336 168.317 221.777 157.237C217.744 149.196 214.365 139.777 209.28 132.365C201.528 121.061 190.897 111.423 176.765 111.423C167.807 112.783 159.914 120.714 154.567 130.634C149.225 140.553 146.109 152.344 143.455 164.11C138.626 185.507 135.087 205.769 131.554 227.634C131.554 227.634 309.877 227.185 309.883 227.185C309.172 227.191 304.799 221.35 303.965 220.542C297.117 213.912 293.007 206.628 289.923 198.709Z" fill="#FF006E"/>
<path d="M256.074 208.904C255.721 215.836 248.181 227.954 241.25 227.608C234.318 227.262 230.619 214.573 230.971 207.641C231.324 200.71 238.704 166.021 245.635 166.368C252.567 166.714 256.427 201.973 256.074 208.904Z" fill="#EFAF3F"/>
<path d="M245.302 170.876L241.807 227.051" stroke="#2A294F" stroke-width="0.7798" stroke-miterlimit="10" stroke-linecap="round" stroke-linejoin="round"/>
<path d="M240.211 207.462C238.634 210.931 237.428 214.567 236.704 218.362C236.338 220.286 236.101 222.37 236.973 224.12C237.922 226.038 240.031 227.153 242.141 227.499C247.296 228.346 252.445 225.191 255.465 220.927C258.485 216.67 259.793 211.463 260.992 206.378C261.935 202.377 262.864 198.319 264.647 194.587C265.41 192.99 269.885 186.816 267.769 185.219C264.878 182.943 256.497 185.418 251.13 191.278C246.713 196.1 242.91 201.531 240.211 207.462Z" fill="#FFC957"/>
<path d="M242.141 227.493C242.141 227.493 248.36 203.275 263.384 189.387" stroke="#2A294F" stroke-width="0.7798" stroke-miterlimit="10" stroke-linecap="round" stroke-linejoin="round"/>
<path d="M276.65 201.749C276.118 202.704 275.118 203.352 274.214 203.865C273.098 204.493 271.905 205.045 270.758 205.583C269.283 206.27 267.757 206.981 266.346 207.866C265.32 208.514 264.403 209.238 263.64 210.02C264.852 207.27 266.263 204.872 267.93 202.724C270.123 199.902 272.373 198.473 274.624 198.473C274.675 198.473 274.727 198.473 274.778 198.473C275.477 198.492 276.015 198.665 276.387 198.986C277.15 199.64 277.118 200.903 276.65 201.749Z" fill="#FFC957"/>
<path d="M279.157 217.407C278.266 218.042 277.086 218.202 276.047 218.279C274.771 218.369 273.457 218.362 272.187 218.35C270.559 218.337 268.872 218.324 267.224 218.523C266.019 218.664 264.884 218.933 263.858 219.311C266.128 217.343 268.436 215.778 270.86 214.554C274.053 212.938 276.695 212.611 278.727 213.573C278.772 213.592 278.824 213.618 278.869 213.643C279.491 213.957 279.907 214.349 280.106 214.797C280.516 215.721 279.946 216.849 279.157 217.407Z" fill="#FFC957"/>
<path d="M273.233 225.114C272.495 225.012 271.828 224.537 271.277 224.088C270.597 223.537 269.95 222.915 269.321 222.319C268.513 221.549 267.686 220.754 266.769 220.081C266.102 219.587 265.41 219.19 264.724 218.895C266.776 218.978 268.654 219.279 270.437 219.812C272.777 220.504 274.252 221.581 274.81 223.011C274.823 223.043 274.836 223.075 274.848 223.114C275.009 223.563 275.034 223.947 274.925 224.268C274.694 224.909 273.88 225.204 273.233 225.114Z" fill="#FFC957"/>
<path d="M256.363 227.628C256.363 227.628 256.433 212.81 274.528 200.23" stroke="#2A294F" stroke-width="0.7798" stroke-miterlimit="10" stroke-linecap="round" stroke-linejoin="round"/>
<path d="M256.363 227.628C256.363 227.628 261.922 215.721 276.984 215.721" stroke="#2A294F" stroke-width="0.7798" stroke-miterlimit="10" stroke-linecap="round" stroke-linejoin="round"/>
<path d="M264.564 219.036C264.564 219.036 267.481 218.824 273.572 223.415" stroke="#2A294F" stroke-width="0.7798" stroke-miterlimit="10" stroke-linecap="round" stroke-linejoin="round"/>
<path d="M142 227.987C136.115 212.188 130.193 196.383 123.269 181.083C119.361 172.453 115.055 163.862 109.07 156.962C103.086 150.062 95.1601 144.968 87.1985 145C74.9402 146.685 67.0237 155.277 61.8333 164.797C58.4302 171.037 56.7783 178.597 54.3772 185.196C51.0644 194.281 49.3222 204.167 42.9584 212.111C38.4991 217.679 31.6478 216.256 27.0261 211.259C24.4806 208.498 22.6752 205.218 19.8228 202.7C16.9703 200.182 12.466 198.542 8.84623 200.131C5.11817 201.764 4.00788 205.89 3.50238 209.516C2.76219 214.892 2.10324 219.972 0.884622 224.848C0.622846 225.911 0.324963 226.956 0 228H142V227.987Z" fill="#FF006E"/>
<path d="M63.4656 205.936C60.8495 202.922 57.541 200.319 56.5022 196.517C55.7392 193.74 56.3419 190.797 56.6369 187.931C56.9318 185.065 56.8292 181.897 54.9762 179.692C53.4501 177.871 51.0328 177.082 48.7117 176.582C46.3906 176.082 43.9669 175.768 41.9086 174.588C38.5616 172.671 39.2284 169.407 37.4331 166.547C35.4197 163.335 30.7262 159.237 26.7123 161.373C22.4547 163.63 23.128 170.49 25.9621 173.517C27.8408 175.524 30.2453 177.454 30.521 180.185C30.9378 184.302 26.2186 188.014 27.5138 191.945C28.4756 194.849 32.1304 195.843 33.9385 198.312C35.7275 200.755 35.3684 204.172 34.3104 207.007C33.2589 209.841 31.5982 212.463 30.9442 215.419C29.6041 221.459 34.3425 225.64 39.7478 226.986C44.7106 228.224 55.4186 227.64 55.4186 227.64C59.2401 226.307 63.4784 222.947 65.5751 219.279C67.1653 216.509 67.3833 212.995 66.1522 210.046C65.5239 208.52 64.5556 207.193 63.4656 205.936Z" fill="#FFC957"/>
<path d="M31.4635 167.881C31.4635 167.881 49.744 196.119 51.7317 227.474" stroke="#2A294F" stroke-width="0.7798" stroke-miterlimit="10" stroke-linecap="round" stroke-linejoin="round"/>
<path d="M15.1836 205.968C15.4657 205.724 15.876 205.596 16.4018 205.583C16.4403 205.583 16.4788 205.583 16.5172 205.583C18.2164 205.583 19.922 206.667 21.5763 208.802C22.8394 210.424 23.9038 212.239 24.8207 214.316C24.2437 213.726 23.5512 213.175 22.7753 212.688C21.7109 212.021 20.5568 211.482 19.4411 210.963C18.5691 210.559 17.6714 210.142 16.825 209.661C16.1389 209.277 15.3823 208.783 14.9848 208.065C14.6257 207.424 14.6065 206.468 15.1836 205.968Z" fill="#FFC957"/>
<path d="M12.3687 217.926C12.5226 217.586 12.8368 217.291 13.3049 217.054C13.3369 217.035 13.3754 217.016 13.4075 217.003C14.9463 216.272 16.9469 216.522 19.3578 217.747C21.1916 218.676 22.9356 219.856 24.6476 221.344C23.8718 221.055 23.0126 220.857 22.1021 220.748C20.8517 220.6 19.5758 220.606 18.3447 220.613C17.3829 220.619 16.3954 220.626 15.4272 220.555C14.645 220.497 13.7473 220.376 13.0804 219.901C12.4905 219.478 12.0609 218.625 12.3687 217.926Z" fill="#FFC957"/>
<path d="M16.2864 225.082C16.203 224.845 16.2223 224.55 16.3441 224.21C16.3505 224.184 16.3633 224.159 16.3697 224.133C16.7929 223.049 17.9022 222.235 19.6783 221.709C21.0248 221.312 22.4483 221.081 24 221.017C23.4806 221.241 22.9548 221.543 22.4547 221.914C21.7622 222.427 21.1338 223.03 20.5247 223.607C20.0502 224.062 19.5629 224.531 19.0499 224.947C18.6332 225.287 18.133 225.646 17.5752 225.723C17.0751 225.794 16.4595 225.569 16.2864 225.082Z" fill="#FFC957"/>
<path d="M30.3222 227.628C30.3222 227.628 30.2709 216.419 16.5878 206.91" stroke="#2A294F" stroke-width="0.7798" stroke-miterlimit="10" stroke-linecap="round" stroke-linejoin="round"/>
<path d="M30.3222 227.628C30.3222 227.628 26.1223 218.625 14.7283 218.625" stroke="#2A294F" stroke-width="0.7798" stroke-miterlimit="10" stroke-linecap="round" stroke-linejoin="round"/>
<path d="M24.1218 221.132C24.1218 221.132 21.916 220.972 17.3123 224.447" stroke="#2A294F" stroke-width="0.7798" stroke-miterlimit="10" stroke-linecap="round" stroke-linejoin="round"/>
<path d="M267.4 99.3668C267.4 99.3668 222.319 88.5371 225.927 34.3977C225.927 34.3977 203.053 16.8149 155.603 16.3717V16.3497C155.297 16.3497 155.007 16.3585 154.7 16.3585C154.398 16.3585 154.104 16.3497 153.797 16.3497V16.3717C106.348 16.8149 83.4734 34.4021 83.4734 34.4021C87.0818 88.5415 42 99.3668 42 99.3668C68.373 231.328 154.113 241.942 154.7 241.92C155.288 241.942 241.032 231.328 267.4 99.3668Z" fill="#DD0160"/>
<path d="M239.453 106.752C239.453 106.752 205.552 98.6076 208.266 57.8956C208.266 57.8956 191.066 44.6745 155.38 44.341V44.3234C155.152 44.3234 154.928 44.3322 154.7 44.3322C154.472 44.3322 154.253 44.3234 154.021 44.3234V44.341C118.339 44.6745 101.134 57.8956 101.134 57.8956C103.848 98.6076 69.9471 106.752 69.9471 106.752C89.7784 205.987 154.257 213.969 154.696 213.951C155.143 213.969 219.622 205.987 239.453 106.752Z" fill="#B5005F"/>
<path d="M110.525 189.997H162.263C167.603 189.997 171.931 185.666 171.931 180.321V40.6726V14.147C171.931 8.8024 167.603 4.47142 162.263 4.47142H92.2813C86.9409 4.47142 82.6134 8.8024 82.6134 14.147V96.9227V149.496" fill="url(#paint0_linear)"/>
<path d="M78.8691 140.676V99.4327" stroke="black" stroke-miterlimit="10"/>
<path d="M164.486 0H90.7821C84.2052 0 78.8693 5.33584 78.8693 11.9223V99.4326V140.671C80.075 143.734 81.3246 146.678 82.6137 149.491V96.9227V14.147C82.6137 8.80238 86.9412 4.4714 92.2816 4.4714H162.263C167.604 4.4714 171.931 8.80238 171.931 14.147V40.6726V180.321C171.931 185.666 167.604 189.997 162.263 189.997H110.526C112.17 191.585 113.81 193.073 115.441 194.468H164.486C171.063 194.468 176.399 189.133 176.399 182.546V41.3001V11.9223C176.395 5.33584 171.063 0 164.486 0Z" fill="white"/>
<path d="M166.345 90.187V104.316L156.458 90.187H97.9464C92.549 90.187 88.1732 86.1632 88.1732 81.1959V63.5385C88.1732 59.1066 92.0798 55.5128 96.8985 55.5128H157.506C162.39 55.5128 166.345 59.1549 166.345 63.6482V90.187Z" fill="white"/>
<path d="M148.097 120.706H105.681C104.032 120.706 102.695 119.367 102.695 117.718V102.833C102.695 101.183 104.032 99.8451 105.681 99.8451H148.097C149.745 99.8451 151.082 101.183 151.082 102.833V117.718C151.082 119.367 149.745 120.706 148.097 120.706Z" fill="#FECC15"/>
<path d="M149.807 11.9223H111.416C111.122 11.9223 110.881 11.6853 110.881 11.3869V8.7278C110.881 8.4338 111.118 8.19246 111.416 8.19246H149.807C150.1 8.19246 150.342 8.42941 150.342 8.7278V11.3869C150.337 11.6809 150.1 11.9223 149.807 11.9223Z" fill="white"/>
<path d="M103.063 11.9223C104.092 11.9223 104.927 11.0873 104.927 10.0574C104.927 9.02741 104.092 8.19246 103.063 8.19246C102.034 8.19246 101.2 9.02741 101.2 10.0574C101.2 11.0873 102.034 11.9223 103.063 11.9223Z" fill="white"/>
<path d="M102.011 65.1226L101.52 69.5413L105.997 68.2907L106.391 71.3185L102.314 71.6081L104.988 75.1756L102.265 76.628L100.393 72.8719L98.7489 76.6061L95.9165 75.1756L98.5691 71.6081L94.5134 71.2965L94.9826 68.2951L99.3627 69.5457L98.8717 65.127H102.011V65.1226Z" fill="#001893"/>
<path d="M115.397 65.1226L114.906 69.5414L119.382 68.2908L119.777 71.3185L115.699 71.6081L118.374 75.1756L115.651 76.628L113.779 72.8719L112.135 76.6061L109.302 75.1756L111.955 71.6081L107.899 71.2966L108.368 68.2952L112.749 69.5458L112.258 65.127H115.397V65.1226Z" fill="#001893"/>
<path d="M128.787 65.1226L128.296 69.5414L132.773 68.2908L133.168 71.3185L129.09 71.6081L131.765 75.1756L129.042 76.628L127.17 72.8719L125.525 76.6061L122.693 75.1756L125.346 71.6081L121.29 71.2966L121.759 68.2952L126.139 69.5458L125.648 65.127H128.787V65.1226Z" fill="#001893"/>
<path d="M142.173 65.1226L141.682 69.5414L146.159 68.2908L146.554 71.3185L142.476 71.6081L145.15 75.1756L142.428 76.628L140.555 72.8719L138.911 76.6061L136.079 75.1756L138.731 71.6081L134.676 71.2966L135.145 68.2952L139.525 69.5458L139.034 65.127H142.173V65.1226Z" fill="#001893"/>
<path d="M155.564 65.1226L155.073 69.5414L159.55 68.2908L159.944 71.3185L155.866 71.6081L158.541 75.1756L155.818 76.628L153.946 72.8719L152.302 76.6061L149.469 75.1756L152.122 71.6081L148.066 71.2966L148.536 68.2952L152.916 69.5458L152.425 65.127H155.564V65.1226Z" fill="#001893"/>
<path d="M176.395 108.841V139.587C176.395 139.587 179.188 150.768 181.051 153.563C182.915 156.358 170.814 176.855 166.157 178.72C161.501 180.585 145.677 175.925 143.814 166.609C141.95 157.293 138.039 142.501 134.312 141.571C130.59 140.641 125.377 163.919 125.377 175.1C125.377 182.704 135.198 200.173 141.481 210.573C149.961 214.03 155.63 214.724 155.761 214.719C156.02 214.728 177.618 212.06 199.975 190.976C203.575 182.147 207.53 173.481 208.977 163.818C211.774 145.178 176.395 108.841 176.395 108.841Z" fill="#FFCBA7"/>
<path d="M223.983 108.084C236.553 102.974 242.605 88.6336 237.499 76.0531C232.394 63.4726 218.064 57.4162 205.494 62.5258C192.923 67.6354 186.872 81.9761 191.977 94.5566C197.083 107.137 211.412 113.193 223.983 108.084Z" fill="#F35B59"/>
<path d="M219.105 128.237C219.766 124.175 217.011 120.347 212.953 119.686C208.894 119.025 205.069 121.782 204.409 125.844C203.749 129.905 206.503 133.733 210.561 134.394C214.62 135.055 218.445 132.298 219.105 128.237Z" fill="#FECC15"/>
<defs>
<linearGradient id="paint0_linear" x1="71.8214" y1="-24.9482" x2="159.958" y2="142.593" gradientUnits="userSpaceOnUse">
<stop stop-color="#F98D0B"/>
<stop offset="0.1257" stop-color="#FE9D19"/>
<stop offset="1" stop-color="#FFA01B"/>
</linearGradient>
</defs>
</svg>
