<svg width="377" height="251" viewBox="0 0 377 251" fill="none" xmlns="http://www.w3.org/2000/svg">
<path d="M316.923 172.709C314.569 166.669 312.813 160.257 310.895 153.486C309.6 148.921 307.516 143.817 303.002 142.381C298.604 140.983 293.872 143.881 291.172 147.619C288.473 151.358 287.107 155.884 284.792 159.879C280.599 167.112 273.18 170.145 267.044 163.784C258.279 154.698 254.336 142.317 248.776 131.237C244.743 123.196 241.364 113.777 236.279 106.365C228.527 95.0605 217.896 85.4233 203.764 85.4233C194.807 86.7827 186.914 94.7143 181.566 104.634C176.225 114.553 173.109 126.344 170.454 138.11C165.626 159.507 162.087 179.769 158.554 201.634C158.554 201.634 336.877 201.185 336.883 201.185C336.171 201.191 331.798 195.35 330.965 194.542C324.117 187.912 320.007 180.628 316.923 172.709Z" fill="#1F1F20"/>
<path d="M283.074 182.904C282.721 189.836 275.181 201.954 268.25 201.608C261.318 201.262 257.619 188.572 257.971 181.641C258.324 174.71 265.704 140.021 272.635 140.367C279.567 140.714 283.427 175.973 283.074 182.904Z" fill="#EFAF3F"/>
<path d="M272.302 144.875L268.808 201.051" stroke="#2A294F" stroke-width="0.7798" stroke-miterlimit="10" stroke-linecap="round" stroke-linejoin="round"/>
<path d="M267.211 181.462C265.634 184.931 264.428 188.566 263.704 192.362C263.338 194.286 263.101 196.369 263.973 198.12C264.922 200.037 267.031 201.153 269.141 201.499C274.296 202.345 279.445 199.191 282.465 194.927C285.485 190.669 286.793 185.463 287.992 180.378C288.935 176.377 289.864 172.318 291.647 168.586C292.41 166.99 296.885 160.815 294.769 159.219C291.878 156.942 283.497 159.417 278.13 165.278C273.713 170.1 269.91 175.531 267.211 181.462Z" fill="#FFC957"/>
<path d="M269.141 201.492C269.141 201.492 275.36 177.275 290.383 163.386" stroke="#2A294F" stroke-width="0.7798" stroke-miterlimit="10" stroke-linecap="round" stroke-linejoin="round"/>
<path d="M303.65 175.749C303.117 176.705 302.117 177.352 301.213 177.865C300.097 178.493 298.905 179.045 297.757 179.584C296.282 180.27 294.756 180.981 293.345 181.866C292.32 182.514 291.403 183.238 290.64 184.021C291.852 181.27 293.262 178.872 294.929 176.724C297.122 173.903 299.373 172.473 301.623 172.473C301.675 172.473 301.726 172.473 301.777 172.473C302.476 172.492 303.015 172.665 303.387 172.986C304.15 173.64 304.118 174.903 303.65 175.749Z" fill="#FFC957"/>
<path d="M306.156 191.407C305.265 192.042 304.085 192.202 303.047 192.279C301.771 192.369 300.456 192.363 299.187 192.35C297.558 192.337 295.872 192.324 294.224 192.523C293.018 192.664 291.883 192.933 290.857 193.312C293.127 191.343 295.436 189.779 297.859 188.554C301.052 186.938 303.694 186.611 305.727 187.573C305.772 187.592 305.823 187.618 305.868 187.644C306.49 187.958 306.907 188.349 307.105 188.798C307.516 189.721 306.945 190.85 306.156 191.407Z" fill="#FFC957"/>
<path d="M300.232 199.115C299.495 199.012 298.828 198.538 298.277 198.089C297.597 197.537 296.949 196.915 296.321 196.319C295.513 195.55 294.686 194.754 293.769 194.081C293.102 193.588 292.41 193.19 291.724 192.895C293.775 192.978 295.654 193.28 297.437 193.812C299.777 194.504 301.252 195.582 301.81 197.012C301.822 197.044 301.835 197.076 301.848 197.114C302.008 197.563 302.034 197.948 301.925 198.268C301.694 198.909 300.88 199.204 300.232 199.115Z" fill="#FFC957"/>
<path d="M283.362 201.628C283.362 201.628 283.433 186.81 301.527 174.229" stroke="#2A294F" stroke-width="0.7798" stroke-miterlimit="10" stroke-linecap="round" stroke-linejoin="round"/>
<path d="M283.362 201.628C283.362 201.628 288.921 189.721 303.983 189.721" stroke="#2A294F" stroke-width="0.7798" stroke-miterlimit="10" stroke-linecap="round" stroke-linejoin="round"/>
<path d="M291.563 193.036C291.563 193.036 294.481 192.824 300.572 197.415" stroke="#2A294F" stroke-width="0.7798" stroke-miterlimit="10" stroke-linecap="round" stroke-linejoin="round"/>
<path d="M169 201.987C163.115 186.188 157.193 170.383 150.269 155.083C146.361 146.453 142.055 137.862 136.07 130.962C130.086 124.061 122.16 118.968 114.199 119C101.94 120.685 94.0237 129.277 88.8333 138.797C85.4302 145.037 83.7783 152.597 81.3772 159.196C78.0644 168.281 76.3222 178.167 69.9584 186.111C65.4991 191.679 58.6478 190.256 54.0261 185.259C51.4806 182.498 49.6752 179.217 46.8228 176.7C43.9703 174.182 39.466 172.542 35.8462 174.131C32.1182 175.764 31.0079 179.89 30.5024 183.516C29.7622 188.892 29.1032 193.972 27.8846 198.848C27.6228 199.911 27.325 200.956 27 202H169V201.987Z" fill="#1F1F20"/>
<path d="M90.4656 179.936C87.8495 176.922 84.541 174.319 83.5022 170.517C82.7392 167.74 83.3419 164.797 83.6369 161.931C83.9318 159.065 83.8292 155.897 81.9762 153.692C80.4501 151.871 78.0328 151.082 75.7117 150.582C73.3906 150.082 70.9669 149.768 68.9086 148.588C65.5616 146.671 66.2284 143.407 64.4331 140.547C62.4197 137.335 57.7262 133.238 53.7123 135.373C49.4547 137.63 50.128 144.491 52.9621 147.517C54.8408 149.524 57.2453 151.454 57.521 154.185C57.9378 158.302 53.2186 162.014 54.5138 165.945C55.4756 168.85 59.1304 169.843 60.9385 172.312C62.7275 174.755 62.3684 178.173 61.3104 181.007C60.2589 183.841 58.5982 186.463 57.9442 189.419C56.6041 195.459 61.3425 199.64 66.7478 200.986C71.7106 202.224 82.4186 201.64 82.4186 201.64C86.2401 200.307 90.4784 196.947 92.5751 193.279C94.1653 190.509 94.3833 186.995 93.1522 184.046C92.5239 182.52 91.5556 181.193 90.4656 179.936Z" fill="#FFC957"/>
<path d="M58.4639 141.881C58.4639 141.881 76.7444 170.119 78.7321 201.474" stroke="#2A294F" stroke-width="0.7798" stroke-miterlimit="10" stroke-linecap="round" stroke-linejoin="round"/>
<path d="M42.1842 179.968C42.4663 179.725 42.8767 179.596 43.4024 179.583C43.4409 179.583 43.4794 179.583 43.5179 179.583C45.217 179.583 46.9226 180.667 48.5769 182.802C49.84 184.425 50.9044 186.239 51.8213 188.317C51.2443 187.727 50.5518 187.175 49.7759 186.688C48.7115 186.021 47.5574 185.482 46.4417 184.963C45.5697 184.559 44.672 184.142 43.8256 183.661C43.1395 183.277 42.3829 182.783 41.9854 182.065C41.6263 181.424 41.6071 180.468 42.1842 179.968Z" fill="#FFC957"/>
<path d="M39.369 191.926C39.5229 191.587 39.837 191.292 40.3051 191.054C40.3372 191.035 40.3756 191.016 40.4077 191.003C41.9466 190.272 43.9471 190.522 46.358 191.747C48.1918 192.677 49.9359 193.856 51.6479 195.344C50.872 195.055 50.0128 194.857 49.1023 194.748C47.852 194.6 46.576 194.607 45.3449 194.613C44.3831 194.619 43.3957 194.626 42.4275 194.555C41.6452 194.498 40.7475 194.376 40.0807 193.901C39.4908 193.478 39.0612 192.625 39.369 191.926Z" fill="#FFC957"/>
<path d="M43.2861 199.082C43.2028 198.845 43.222 198.55 43.3439 198.21C43.3503 198.185 43.3631 198.159 43.3695 198.133C43.7927 197.05 44.902 196.235 46.6781 195.71C48.0246 195.312 49.448 195.081 50.9997 195.017C50.4804 195.242 49.9546 195.543 49.4544 195.915C48.762 196.428 48.1336 197.03 47.5245 197.608C47.05 198.063 46.5627 198.531 46.0497 198.948C45.6329 199.287 45.1328 199.647 44.5749 199.723C44.0748 199.794 43.4593 199.57 43.2861 199.082Z" fill="#FFC957"/>
<path d="M57.3223 201.628C57.3223 201.628 57.271 190.42 43.5879 180.911" stroke="#2A294F" stroke-width="0.7798" stroke-miterlimit="10" stroke-linecap="round" stroke-linejoin="round"/>
<path d="M57.3224 201.628C57.3224 201.628 53.1226 192.625 41.7285 192.625" stroke="#2A294F" stroke-width="0.7798" stroke-miterlimit="10" stroke-linecap="round" stroke-linejoin="round"/>
<path d="M51.122 195.132C51.122 195.132 48.9163 194.972 44.3125 198.447" stroke="#2A294F" stroke-width="0.7798" stroke-miterlimit="10" stroke-linecap="round" stroke-linejoin="round"/>
<g clip-path="url(#clip0)">
<path d="M291.471 127.207C290.645 135.848 289.606 144.477 288.378 153.068C286.563 165.674 283.582 177.404 284.672 190.085C285.223 194.837 285.886 200.002 286.112 205.142C286.149 206.092 286.174 207.03 286.187 207.968H71.4023C70.5884 207.055 69.8245 206.117 69.1107 205.142C60.5454 193.437 60.057 179.405 63.6885 165.924C67.8209 150.567 72.2163 134.898 87.8693 127.895C94.381 124.981 101.419 123.13 107.429 119.303C121.53 110.312 123.158 93.1041 128.58 78.7476C131.56 70.8441 135.73 63.1532 142.179 57.7007C174.149 30.6636 203.852 78.4975 236.548 76.3216C249.146 75.4837 262.87 64.979 275.205 71.4819C291.647 80.1483 293.7 98.7941 292.473 115.339C292.185 119.278 291.847 123.243 291.471 127.207Z" fill="#FF9C00"/>
<path d="M248.908 136.111C248.432 137.061 248.081 138.087 247.818 139.125C247.568 140.163 247.393 141.201 247.292 142.276C247.23 142.939 247.38 143.914 247.004 144.515C247.518 144.94 248.169 145.302 248.732 145.703C247.856 145.665 247.493 145.515 247.355 146.453C247.13 148.241 247.18 150.067 246.992 151.855C246.917 152.681 246.879 153.581 246.629 154.382C246.416 155.007 245.84 155.745 245.927 156.445C246.053 157.295 248.57 157.721 249.196 158.096C248.407 158.333 246.979 158.596 246.203 158.208C246.453 158.671 247.042 159.096 247.505 159.409C246.842 159.309 246.178 159.096 245.577 159.021C245.414 159.571 245.038 160.097 244.825 160.659C244.55 161.385 244.237 162.047 243.936 162.76C243.548 163.761 242.258 165.824 242.647 166.862C243.035 167.9 245.351 169.613 246.403 169.663C245.151 169.976 242.809 169.263 241.958 168.313C240.956 170.064 240.405 172.615 240.292 174.616C240.167 176.817 241.344 178.63 243.085 179.23C243.974 179.53 245.001 179.518 246.078 179.055C246.278 178.705 246.441 178.342 246.629 177.98C247.53 176.204 248.307 174.378 248.958 172.49C250.223 168.725 251.024 164.861 251.437 160.922C252.301 153.031 250.448 145.415 249.847 137.611C249.847 137.549 249.935 137.549 249.935 137.599C250.373 141.888 251.287 146.103 251.876 150.38C252.376 154.156 252.464 157.958 252.051 161.76C251.625 165.712 250.686 169.613 249.421 173.378C248.632 175.704 247.856 178.292 246.654 180.531C247.33 182.069 249.146 183.119 250.774 183.232C252.965 183.407 254.618 182.006 255.657 180.206C256.133 179.38 256.534 178.442 256.935 177.604C257.285 176.867 257.285 175.804 257.861 175.191C257.273 174.703 256.534 174.415 255.908 173.978C256.597 173.753 257.473 173.84 258.199 173.878C258.262 173.202 258.826 171.839 258.663 171.214C258.5 170.589 257.135 170.139 256.584 169.888C257.198 169.676 257.911 169.588 258.563 169.613C259.527 168.113 259.627 165.662 259.765 163.948C259.865 162.648 259.74 161.297 259.89 160.009C258.951 159.947 257.999 159.746 257.022 159.709C255.833 159.659 254.568 159.709 253.416 159.309C254.242 159.134 255.094 158.984 255.933 158.896C257.223 158.746 258.387 158.146 259.665 157.996C259.564 157.42 259.715 156.87 259.69 156.307C259.665 155.732 259.314 150.917 258.826 150.992C257.749 151.143 256.584 151.005 255.469 151.18C256.071 150.792 256.822 150.242 257.41 149.905C256.797 149.98 255.87 149.817 255.357 149.829C255.858 149.467 257.248 148.441 257.824 148.704C257.173 147.916 256.885 146.916 256.584 145.965C256.308 145.077 255.858 144.264 255.357 143.464C255.006 142.901 254.53 142.389 254.255 141.838C253.779 142.101 252.777 141.676 252.239 141.676C252.527 141.238 253.128 140.8 253.591 140.488C252.376 138.249 250.698 136.473 250.548 133.76C250.561 134.11 249.133 135.673 248.908 136.111Z" fill="#FF5AB1"/>
<path d="M249.872 137.611C250.473 145.427 252.326 153.031 251.462 160.922C251.049 164.861 250.247 168.725 248.983 172.489C248.332 174.378 247.543 176.204 246.654 177.979C246.466 178.342 246.303 178.692 246.103 179.055C246.203 179.017 246.303 178.98 246.403 178.93C246.353 179.518 246.453 180.055 246.691 180.543C247.881 178.292 248.67 175.716 249.459 173.39C250.723 169.626 251.662 165.724 252.088 161.772C252.501 157.97 252.414 154.169 251.913 150.392C251.324 146.115 250.41 141.901 249.972 137.611C249.959 137.536 249.872 137.549 249.872 137.611Z" fill="#2A519E"/>
<path d="M234.144 197.538C233.68 198.051 235.283 199.214 235.772 198.739C236.711 197.813 246.04 181.731 246.691 180.543C246.453 180.055 246.353 179.517 246.403 178.93C246.303 178.992 246.203 179.03 246.103 179.055C245.401 180.48 235.196 196.337 234.144 197.538Z" fill="#56548C"/>
<path d="M279.262 189.247C278.674 189.81 277.998 190.285 277.309 190.71C276.608 191.123 275.894 191.473 275.13 191.786C274.654 191.973 273.915 192.086 273.565 192.499C273.139 192.224 272.726 191.823 272.312 191.498C272.538 192.136 272.726 192.361 272.062 192.661C270.81 193.224 269.47 193.587 268.205 194.124C267.617 194.362 266.965 194.587 266.452 194.95C266.039 195.25 265.638 195.825 265.1 195.913C264.448 196.013 263.584 194.274 263.171 193.912C263.171 194.537 263.296 195.638 263.747 196.113C263.359 196.025 262.908 195.7 262.583 195.425C262.795 195.888 263.108 196.313 263.296 196.738C262.933 196.988 262.633 197.376 262.269 197.651C261.806 198.014 261.393 198.389 260.93 198.764C260.291 199.264 259.076 200.665 258.225 200.615C257.386 200.565 255.608 199.264 255.345 198.501C255.395 199.489 256.434 201.027 257.323 201.44C256.271 202.553 254.531 203.529 253.091 204.054C251.513 204.629 249.922 204.179 249.108 203.041C248.695 202.453 248.47 201.703 248.57 200.827C248.783 200.602 249.008 200.402 249.234 200.19C250.323 199.139 251.488 198.164 252.715 197.276C255.169 195.513 257.824 194.074 260.604 192.899C266.164 190.51 272.125 190.16 277.96 188.872C278.01 188.86 277.985 188.797 277.948 188.809C274.717 189.447 271.448 189.722 268.193 190.248C265.325 190.723 262.532 191.511 259.853 192.649C257.073 193.837 254.43 195.387 251.964 197.151C250.448 198.239 248.733 199.389 247.355 200.752C246.078 200.602 244.913 199.514 244.463 198.364C243.849 196.813 244.5 195.287 245.577 194.137C246.065 193.612 246.679 193.111 247.192 192.636C247.656 192.224 248.42 191.986 248.745 191.423C249.234 191.748 249.609 192.224 250.06 192.574C250.073 192.023 249.81 191.411 249.622 190.885C250.098 190.685 250.974 189.973 251.463 189.96C251.951 189.947 252.59 190.823 252.89 191.186C252.915 190.685 252.815 190.148 252.652 189.685C253.529 188.659 255.294 188.034 256.509 187.546C257.436 187.184 258.45 186.971 259.352 186.583C259.615 187.246 259.965 187.897 260.216 188.609C260.516 189.46 260.767 190.398 261.318 191.136C261.268 190.485 261.18 189.835 261.055 189.21C260.879 188.234 261.055 187.259 260.879 186.296C261.318 186.233 261.693 186.008 262.107 185.908C262.532 185.796 266.114 184.983 266.176 185.345C266.314 186.158 266.665 186.984 266.79 187.834C266.94 187.309 267.166 186.646 267.291 186.133C267.366 186.596 267.704 187.234 267.804 187.609C267.955 187.159 268.393 185.921 268.08 185.558C268.794 185.858 269.595 185.846 270.346 185.846C271.06 185.846 271.749 185.996 272.45 186.183C272.939 186.308 273.414 186.546 273.878 186.621C273.803 187.034 274.329 187.659 274.454 188.047C274.704 187.734 274.892 187.196 275.017 186.796C276.921 187.184 278.586 188.009 280.602 187.521C280.352 187.596 279.525 188.985 279.262 189.247Z" fill="#FF5AB1"/>
<path d="M277.948 188.884C272.112 190.185 266.151 190.535 260.591 192.911C257.812 194.087 255.169 195.537 252.702 197.288C251.463 198.176 250.311 199.164 249.221 200.202C248.996 200.415 248.77 200.615 248.557 200.84C248.557 200.752 248.57 200.677 248.582 200.59C248.169 200.752 247.743 200.802 247.343 200.74C248.72 199.377 250.423 198.226 251.951 197.138C254.405 195.375 257.048 193.824 259.84 192.636C262.52 191.498 265.312 190.71 268.18 190.235C271.436 189.71 274.704 189.435 277.935 188.797C277.985 188.809 277.998 188.872 277.948 188.884Z" fill="#FF9C00"/>
<path d="M237.913 213.608C237.65 214.058 236.323 213.058 236.561 212.607C237.024 211.72 246.641 201.49 247.367 200.752C247.768 200.815 248.194 200.765 248.607 200.602C248.582 200.69 248.582 200.765 248.582 200.852C247.681 201.678 238.539 212.582 237.913 213.608Z" fill="#2A519E"/>
<path d="M263.684 161.147C263.133 161.622 262.657 162.185 262.232 162.76C261.806 163.348 261.443 163.948 261.105 164.599C260.904 164.999 260.741 165.649 260.353 165.924C260.566 166.324 260.879 166.712 261.142 167.112C260.604 166.862 260.403 166.687 260.09 167.237C259.489 168.3 259.063 169.463 258.487 170.539C258.224 171.039 257.974 171.602 257.611 172.027C257.323 172.365 256.772 172.677 256.647 173.14C256.509 173.703 257.974 174.616 258.274 175.003C257.711 174.953 256.759 174.753 256.359 174.315C256.396 174.666 256.659 175.091 256.872 175.403C256.484 175.178 256.121 174.866 255.757 174.666C255.507 174.966 255.144 175.203 254.868 175.503C254.505 175.891 254.142 176.229 253.779 176.604C253.278 177.129 251.938 178.092 251.926 178.855C251.901 179.605 252.927 181.269 253.579 181.569C252.714 181.444 251.425 180.406 251.137 179.593C250.06 180.431 249.07 181.906 248.482 183.132C247.843 184.483 248.119 185.921 249.058 186.734C249.546 187.146 250.185 187.396 250.986 187.384C251.199 187.209 251.4 187.034 251.613 186.846C252.627 185.958 253.591 185.02 254.48 183.995C256.233 181.956 257.723 179.73 258.988 177.367C261.543 172.64 262.319 167.387 263.922 162.335C263.935 162.298 263.997 162.31 263.972 162.348C263.158 165.149 262.657 168.025 261.931 170.864C261.292 173.365 260.366 175.779 259.151 178.055C257.874 180.431 256.296 182.644 254.543 184.683C253.453 185.946 252.314 187.371 250.986 188.472C251.011 189.61 251.888 190.723 252.877 191.211C254.205 191.873 255.607 191.423 256.709 190.548C257.223 190.16 257.711 189.66 258.174 189.247C258.575 188.872 258.85 188.209 259.364 187.959C259.113 187.496 258.725 187.134 258.437 186.696C258.926 186.721 259.452 187.009 259.902 187.209C260.115 186.796 260.817 186.083 260.867 185.646C260.917 185.208 260.19 184.583 259.902 184.282C260.341 184.307 260.817 184.432 261.217 184.608C262.207 183.907 262.895 182.394 263.409 181.356C263.797 180.568 264.072 179.68 264.486 178.918C263.91 178.642 263.371 178.267 262.758 177.992C262.019 177.654 261.217 177.367 260.604 176.817C261.167 176.917 261.743 177.042 262.294 177.192C263.146 177.429 264.022 177.342 264.861 177.579C264.949 177.192 265.174 176.879 265.3 176.529C265.437 176.166 266.439 173.052 266.114 172.977C265.4 172.802 264.698 172.415 263.96 172.24C264.436 172.152 265.037 172.002 265.5 171.927C265.099 171.827 264.548 171.477 264.223 171.364C264.636 171.264 265.763 170.976 266.063 171.289C265.863 170.626 265.926 169.926 265.988 169.263C266.038 168.638 265.963 168.013 265.863 167.375C265.788 166.937 265.625 166.487 265.588 166.074C265.224 166.112 264.698 165.599 264.36 165.462C264.661 165.261 265.149 165.136 265.512 165.061C265.325 163.348 264.724 161.81 265.312 160.059C265.224 160.309 263.935 160.934 263.684 161.147Z" fill="#FF3B99"/>
<path d="M263.909 162.335C262.294 167.387 261.518 172.64 258.976 177.367C257.711 179.73 256.221 181.956 254.468 183.995C253.578 185.02 252.614 185.958 251.6 186.846C251.387 187.021 251.199 187.209 250.974 187.384C251.049 187.384 251.124 187.396 251.199 187.384C251.024 187.734 250.936 188.109 250.961 188.472C252.289 187.359 253.428 185.946 254.518 184.683C256.271 182.644 257.849 180.431 259.126 178.055C260.353 175.779 261.267 173.365 261.906 170.864C262.632 168.025 263.133 165.149 263.947 162.348C263.972 162.31 263.922 162.298 263.909 162.335Z" fill="#FF9C00"/>
<path d="M238.815 195.825C238.402 196.025 239.178 197.276 239.591 197.101C240.418 196.763 250.248 189.06 250.962 188.472C250.937 188.109 251.012 187.746 251.2 187.384C251.124 187.396 251.049 187.396 250.974 187.384C250.173 188.109 239.779 195.337 238.815 195.825Z" fill="#3458B2"/>
<path d="M249.835 176.867C249.835 176.867 257.223 178.605 262.132 176.104C262.132 176.104 254.994 174.478 249.835 176.867Z" fill="#FFD776"/>
<path d="M249.835 176.867C249.835 176.867 251.851 170.926 249.271 166.524C249.271 166.524 247.618 171.864 249.835 176.867Z" fill="#FFD776"/>
<path d="M252.364 174.14C252.364 174.14 258.488 174.841 263.171 172.54C263.184 172.54 257.536 171.264 252.364 174.14Z" fill="#FFD776"/>
<path d="M252.364 174.141C252.364 174.141 254.205 169.464 251.738 163.773C251.738 163.773 250.912 169.664 252.364 174.141Z" fill="#FFD776"/>
<path d="M254.794 171.227C254.794 171.227 260.88 172.039 264.824 169.351C264.824 169.351 260.191 168.463 254.794 171.227Z" fill="#FFD776"/>
<path d="M254.794 171.227C254.794 171.227 252.703 165.187 253.266 160.522C253.266 160.534 256.923 166.25 254.794 171.227Z" fill="#FFD776"/>
<path d="M256.998 168.288C256.998 168.288 263.647 167.65 267.98 165.099C267.98 165.099 261.869 164.811 256.998 168.288Z" fill="#FFD776"/>
<path d="M256.998 168.288C256.998 168.288 258.375 163.373 255.595 157.583C255.595 157.596 255.47 164.661 256.998 168.288Z" fill="#FFD776"/>
<path d="M258.988 165.299C258.988 165.299 264.536 165.224 267.904 162.297C267.892 162.297 262.92 162.247 258.988 165.299Z" fill="#FFD776"/>
<path d="M258.988 165.299C258.988 165.299 256.784 160.834 256.822 155.294C256.822 155.294 259.489 160.222 258.988 165.299Z" fill="#FFD776"/>
<path d="M260.842 162.122C260.842 162.122 267.529 161.535 270.609 158.158C270.609 158.158 264.912 159.009 260.842 162.122Z" fill="#FFD776"/>
<path d="M260.842 162.123C260.842 162.123 258.926 158.959 257.837 153.832C257.837 153.832 260.83 156.92 260.842 162.123Z" fill="#FFD776"/>
<path d="M262.257 159.346C262.257 159.346 267.166 158.996 270.434 155.882C270.447 155.882 266.051 155.757 262.257 159.346Z" fill="#FFD776"/>
<path d="M262.257 159.346C262.257 159.346 259.74 155.32 258.3 150.542C258.3 150.542 262.445 155.432 262.257 159.346Z" fill="#FFD776"/>
<path d="M263.296 156.995C263.296 156.995 268.806 155.707 270.396 152.681C270.396 152.681 266.164 153.819 263.296 156.995Z" fill="#FFD776"/>
<path d="M263.297 156.995C263.297 156.995 260.968 154.244 259.841 149.805C259.841 149.805 262.996 152.106 263.297 156.995Z" fill="#FFD776"/>
<path d="M263.773 155.745C263.773 155.745 266.991 153.344 266.177 148.091C266.177 148.091 263.76 150.855 263.773 155.745Z" fill="#FFD776"/>
<path d="M246.203 180.418C250.073 177.092 253.579 173.328 256.609 169.201C258.112 167.137 259.49 164.961 260.717 162.723L261.18 161.885C261.33 161.597 261.468 161.31 261.618 161.035L262.044 160.172L262.445 159.296C262.971 158.133 263.459 156.958 263.872 155.745C263.998 155.37 263.847 155.307 263.71 155.695C263.271 156.883 262.745 158.046 262.182 159.184L261.756 160.034L261.305 160.872C261.155 161.147 261.017 161.435 260.855 161.71L260.379 162.535C259.114 164.736 257.724 166.875 256.234 168.926C253.228 173.028 249.81 176.817 246.078 180.268C245.79 180.581 245.903 180.693 246.203 180.418Z" fill="#FFD776"/>
<path d="M248.068 188.797C248.068 188.797 251.625 191.273 254.755 190.986C254.743 190.986 251.299 188.61 248.068 188.797Z" fill="#FFD776"/>
<path d="M248.068 188.797C248.068 188.797 250.397 186.071 249.946 183.195C249.946 183.195 247.943 185.683 248.068 188.797Z" fill="#FFD776"/>
<path d="M249.984 187.884C249.984 187.884 253.09 189.548 256.058 189.31C256.045 189.31 253.328 187.447 249.984 187.884Z" fill="#FFD776"/>
<path d="M249.984 187.884C249.984 187.884 251.95 185.783 251.838 182.257C251.838 182.257 250.16 185.208 249.984 187.884Z" fill="#FFD776"/>
<path d="M251.888 186.859C251.888 186.859 254.943 188.572 257.598 187.972C257.598 187.972 255.319 186.521 251.888 186.859Z" fill="#FFD776"/>
<path d="M251.888 186.859C251.888 186.859 252.05 183.22 253.328 180.869C253.328 180.856 254.054 184.658 251.888 186.859Z" fill="#FFD776"/>
<path d="M253.666 185.758C253.666 185.758 257.323 186.821 260.165 186.371C260.165 186.371 256.984 184.933 253.666 185.758Z" fill="#FFD776"/>
<path d="M253.666 185.759C253.666 185.759 255.431 183.445 255.181 179.793C255.181 179.793 253.628 183.508 253.666 185.759Z" fill="#FFD776"/>
<path d="M255.356 184.595C255.356 184.595 258.312 185.721 260.716 184.883C260.716 184.87 258.086 183.795 255.356 184.595Z" fill="#FFD776"/>
<path d="M255.357 184.595C255.357 184.595 255.131 181.769 256.321 178.843C256.321 178.83 256.697 182.007 255.357 184.595Z" fill="#FFD776"/>
<path d="M257.01 183.295C257.01 183.295 260.679 184.395 263.021 183.245C263.033 183.245 259.827 182.507 257.01 183.295Z" fill="#FFD776"/>
<path d="M257.009 183.295C257.009 183.295 256.659 181.206 257.172 178.268C257.172 178.268 258.099 180.544 257.009 183.295Z" fill="#FFD776"/>
<path d="M258.35 182.132C258.35 182.132 261.029 182.982 263.421 182.019C263.409 182.007 261.117 181.019 258.35 182.132Z" fill="#FFD776"/>
<path d="M258.349 182.132C258.349 182.132 257.861 179.468 258.111 176.629C258.099 176.629 259.263 180.093 258.349 182.132Z" fill="#FFD776"/>
<path d="M259.401 181.094C259.401 181.094 262.595 181.569 264.072 180.293C264.072 180.293 261.58 180.018 259.401 181.094Z" fill="#FFD776"/>
<path d="M259.402 181.094C259.402 181.094 258.75 179.143 259.089 176.554C259.076 176.554 260.266 178.443 259.402 181.094Z" fill="#FFD776"/>
<path d="M259.915 180.531C259.915 180.531 262.131 179.931 262.808 176.979C262.795 176.979 260.929 177.942 259.915 180.531Z" fill="#FFD776"/>
<path d="M245.389 189.923C248.144 188.972 250.798 187.722 253.265 186.171C254.505 185.396 255.682 184.533 256.809 183.607L257.235 183.257C257.373 183.145 257.51 183.02 257.648 182.895L258.061 182.532L258.462 182.157C258.988 181.657 259.502 181.131 259.965 180.569C260.115 180.393 260.04 180.331 259.89 180.506C259.401 181.044 258.875 181.544 258.349 182.032L257.949 182.394L257.535 182.745C257.398 182.857 257.26 182.982 257.122 183.095L256.696 183.432C255.557 184.333 254.38 185.171 253.153 185.946C250.698 187.484 248.081 188.772 245.376 189.823C245.138 189.923 245.176 189.998 245.389 189.923Z" fill="#FFD776"/>
<path d="M109.07 176.017C109.07 176.017 102.107 177.655 97.4863 175.304C97.4863 175.304 104.211 173.766 109.07 176.017Z" fill="#FFD776"/>
<path d="M109.07 176.017C109.07 176.017 107.166 170.427 109.608 166.275C109.596 166.275 111.161 171.315 109.07 176.017Z" fill="#FFD776"/>
<path d="M106.678 173.453C106.678 173.453 100.905 174.103 96.4971 171.952C96.4971 171.952 101.819 170.739 106.678 173.453Z" fill="#FFD776"/>
<path d="M106.678 173.453C106.678 173.453 104.95 169.038 107.267 163.686C107.267 163.686 108.055 169.239 106.678 173.453Z" fill="#FFD776"/>
<path d="M104.386 170.714C104.386 170.714 98.651 171.477 94.9443 168.951C94.9569 168.951 99.3147 168.113 104.386 170.714Z" fill="#FFD776"/>
<path d="M104.386 170.714C104.386 170.714 106.352 165.024 105.827 160.635C105.839 160.635 102.395 166.025 104.386 170.714Z" fill="#FFD776"/>
<path d="M102.32 167.95C102.32 167.95 96.0589 167.35 91.9766 164.949C91.9891 164.936 97.7369 164.661 102.32 167.95Z" fill="#FFD776"/>
<path d="M102.32 167.95C102.32 167.95 101.018 163.323 103.635 157.883C103.635 157.871 103.76 164.524 102.32 167.95Z" fill="#FFD776"/>
<path d="M100.442 165.124C100.442 165.124 95.2199 165.049 92.0518 162.298C92.0643 162.31 96.7477 162.248 100.442 165.124Z" fill="#FFD776"/>
<path d="M100.442 165.124C100.442 165.124 102.508 160.922 102.47 155.708C102.483 155.708 99.9659 160.347 100.442 165.124Z" fill="#FFD776"/>
<path d="M98.7012 162.136C98.7012 162.136 92.4025 161.585 89.5098 158.396C89.4973 158.409 94.8694 159.209 98.7012 162.136Z" fill="#FFD776"/>
<path d="M98.7012 162.135C98.7012 162.135 100.504 159.159 101.531 154.319C101.531 154.332 98.7012 157.246 98.7012 162.135Z" fill="#FFD776"/>
<path d="M97.3614 159.534C97.3614 159.534 92.7407 159.209 89.6602 156.27C89.6602 156.27 93.7926 156.145 97.3614 159.534Z" fill="#FFD776"/>
<path d="M97.3614 159.534C97.3614 159.534 99.7281 155.733 101.093 151.243C101.093 151.243 97.1986 155.845 97.3614 159.534Z" fill="#FFD776"/>
<path d="M96.3844 157.308C96.3844 157.308 91.2001 156.095 89.71 153.244C89.71 153.244 93.6921 154.332 96.3844 157.308Z" fill="#FFD776"/>
<path d="M96.3848 157.308C96.3848 157.308 98.5762 154.72 99.6406 150.543C99.6406 150.543 96.6728 152.706 96.3848 157.308Z" fill="#FFD776"/>
<path d="M95.9467 156.133C95.9467 156.133 92.9162 153.869 93.6801 148.917C93.6801 148.929 95.9467 151.531 95.9467 156.133Z" fill="#FFD776"/>
<path d="M112.475 179.368C108.831 176.242 105.525 172.69 102.683 168.813C101.268 166.862 99.978 164.824 98.8134 162.723L98.3877 161.935C98.2499 161.673 98.1122 161.397 97.9744 161.135L97.5737 160.322L97.198 159.497C96.6971 158.396 96.2338 157.296 95.8581 156.145C95.7454 155.795 95.8832 155.732 96.0084 156.095C96.4216 157.221 96.9225 158.309 97.4485 159.384L97.8492 160.184L98.2625 160.972C98.4002 161.235 98.5379 161.497 98.6882 161.76L99.1265 162.535C100.316 164.611 101.618 166.625 103.033 168.551C105.864 172.402 109.082 175.979 112.588 179.23C112.876 179.518 112.763 179.618 112.475 179.368Z" fill="#FFD776"/>
<path d="M107.329 150.217C107.717 150.993 107.993 151.818 108.218 152.656C108.419 153.494 108.556 154.332 108.644 155.207C108.694 155.745 108.569 156.533 108.882 157.02C108.469 157.358 107.943 157.658 107.479 157.983C108.193 157.958 108.481 157.833 108.594 158.596C108.782 160.047 108.732 161.522 108.882 162.973C108.944 163.648 108.97 164.374 109.182 165.011C109.358 165.512 109.821 166.112 109.746 166.675C109.646 167.362 107.617 167.713 107.104 168.013C107.742 168.213 108.894 168.425 109.533 168.113C109.333 168.488 108.857 168.826 108.481 169.088C109.02 169.013 109.558 168.838 110.046 168.776C110.184 169.226 110.485 169.651 110.66 170.101C110.885 170.689 111.136 171.227 111.374 171.802C111.687 172.602 112.739 174.278 112.413 175.128C112.1 175.966 110.222 177.354 109.37 177.392C110.385 177.642 112.275 177.067 112.977 176.291C113.791 177.705 114.229 179.768 114.329 181.394C114.429 183.17 113.478 184.645 112.063 185.133C111.336 185.371 110.51 185.371 109.646 184.983C109.483 184.695 109.345 184.408 109.195 184.12C108.469 182.682 107.83 181.206 107.304 179.68C106.277 176.642 105.639 173.503 105.3 170.314C104.599 163.936 106.102 157.771 106.59 151.443C106.59 151.393 106.528 151.393 106.528 151.443C106.177 154.919 105.438 158.321 104.962 161.785C104.549 164.836 104.487 167.925 104.812 170.989C105.15 174.19 105.914 177.342 106.941 180.393C107.58 182.269 108.206 184.37 109.182 186.183C108.644 187.434 107.166 188.272 105.851 188.372C104.073 188.509 102.733 187.384 101.894 185.921C101.506 185.258 101.193 184.495 100.868 183.82C100.592 183.22 100.58 182.369 100.116 181.869C100.592 181.469 101.193 181.244 101.707 180.893C101.156 180.706 100.442 180.781 99.8532 180.806C99.8031 180.256 99.3523 179.155 99.4776 178.643C99.6153 178.142 100.705 177.767 101.168 177.567C100.667 177.392 100.091 177.317 99.5652 177.342C98.7888 176.129 98.7012 174.153 98.5885 172.765C98.5133 171.714 98.6135 170.614 98.4883 169.576C99.2521 169.526 100.016 169.363 100.805 169.326C101.769 169.288 102.796 169.326 103.723 169.001C103.046 168.863 102.358 168.738 101.681 168.663C100.63 168.538 99.6904 168.05 98.6636 167.938C98.7387 167.475 98.626 167.025 98.6511 166.575C98.6636 166.112 98.9516 162.21 99.3398 162.273C100.204 162.385 101.156 162.285 102.057 162.423C101.569 162.11 100.968 161.672 100.479 161.385C100.968 161.447 101.732 161.31 102.145 161.322C101.732 161.035 100.617 160.197 100.141 160.409C100.667 159.772 100.905 158.959 101.143 158.196C101.368 157.471 101.732 156.82 102.132 156.17C102.42 155.72 102.796 155.295 103.021 154.857C103.41 155.069 104.211 154.719 104.649 154.719C104.411 154.369 103.923 154.006 103.56 153.756C104.537 151.943 105.902 150.505 106.027 148.316C106.002 148.592 107.154 149.855 107.329 150.217Z" fill="#FF5AB1"/>
<path d="M106.553 151.43C106.065 157.758 104.562 163.911 105.263 170.301C105.601 173.49 106.24 176.617 107.267 179.668C107.793 181.194 108.431 182.669 109.158 184.107C109.308 184.395 109.446 184.683 109.609 184.97C109.521 184.945 109.446 184.908 109.358 184.87C109.396 185.346 109.321 185.783 109.133 186.183C108.168 184.37 107.53 182.269 106.891 180.393C105.864 177.354 105.113 174.19 104.762 170.989C104.437 167.913 104.499 164.836 104.913 161.785C105.388 158.321 106.127 154.907 106.478 151.443C106.49 151.368 106.553 151.38 106.553 151.43Z" fill="#FFC331"/>
<path d="M119.276 199.927C119.651 200.34 118.349 201.278 117.961 200.89C117.197 200.14 109.646 187.134 109.12 186.171C109.308 185.783 109.396 185.333 109.346 184.858C109.421 184.908 109.508 184.933 109.596 184.958C110.172 186.133 118.424 198.952 119.276 199.927Z" fill="#56548C"/>
<path d="M82.7729 193.212C83.2487 193.662 83.7872 194.049 84.3507 194.4C84.9142 194.737 85.5028 195.025 86.1164 195.275C86.492 195.425 87.0931 195.513 87.3811 195.85C87.7192 195.625 88.0573 195.312 88.3954 195.05C88.2201 195.563 88.0573 195.75 88.5958 196C89.6101 196.463 90.6996 196.751 91.7264 197.188C92.2023 197.388 92.7282 197.564 93.154 197.864C93.4795 198.101 93.8177 198.576 94.2434 198.639C94.7694 198.727 95.4706 197.313 95.8087 197.013C95.8087 197.526 95.7085 198.414 95.3329 198.802C95.6459 198.739 96.0091 198.464 96.272 198.251C96.0967 198.626 95.8463 198.977 95.696 199.314C95.9965 199.514 96.2345 199.827 96.535 200.052C96.9107 200.34 97.2488 200.652 97.6119 200.953C98.1254 201.365 99.1146 202.491 99.8034 202.453C100.492 202.416 101.92 201.353 102.133 200.74C102.095 201.54 101.256 202.778 100.53 203.116C101.381 204.016 102.796 204.804 103.948 205.229C105.226 205.705 106.503 205.329 107.179 204.417C107.517 203.941 107.693 203.341 107.617 202.628C107.442 202.441 107.267 202.291 107.091 202.116C106.202 201.265 105.276 200.477 104.274 199.752C102.283 198.326 100.141 197.163 97.8874 196.213C93.3919 194.287 88.5582 193.999 83.8373 192.949C83.7997 192.936 83.8122 192.886 83.8498 192.899C86.467 193.412 89.1092 193.637 91.7389 194.062C94.0556 194.45 96.3221 195.075 98.4885 196C100.743 196.963 102.884 198.214 104.875 199.639C106.102 200.515 107.492 201.453 108.594 202.553C109.621 202.441 110.573 201.553 110.936 200.615C111.437 199.352 110.911 198.126 110.034 197.188C109.633 196.763 109.145 196.35 108.732 195.975C108.356 195.638 107.73 195.45 107.467 195C107.066 195.262 106.766 195.65 106.403 195.938C106.39 195.488 106.603 194.987 106.753 194.575C106.365 194.412 105.664 193.837 105.263 193.824C104.862 193.812 104.349 194.525 104.099 194.812C104.086 194.412 104.161 193.974 104.286 193.599C103.573 192.761 102.145 192.261 101.168 191.873C100.417 191.586 99.5905 191.411 98.8642 191.098C98.6513 191.636 98.3633 192.161 98.1629 192.736C97.925 193.424 97.7121 194.187 97.2738 194.787C97.3239 194.262 97.3865 193.737 97.4867 193.224C97.637 192.436 97.4867 191.648 97.6245 190.873C97.2613 190.823 96.9733 190.635 96.6352 190.56C96.2971 190.473 93.3919 189.81 93.3418 190.11C93.2291 190.773 92.9411 191.436 92.8534 192.124C92.7407 191.698 92.5404 191.161 92.4527 190.748C92.3901 191.123 92.1271 191.636 92.0395 191.948C91.9142 191.586 91.5636 190.585 91.8141 190.298C91.238 190.535 90.5869 190.523 89.9733 190.535C89.3972 190.535 88.8337 190.66 88.2702 190.798C87.882 190.898 87.4813 191.086 87.1182 191.148C87.1808 191.473 86.755 191.986 86.6548 192.299C86.4545 192.049 86.2917 191.611 86.1915 191.286C84.6512 191.598 83.2988 192.261 81.6709 191.873C81.8838 191.886 82.5475 193.011 82.7729 193.212Z" fill="#FF5AB1"/>
<path d="M83.8244 192.924C88.5454 193.975 93.3665 194.262 97.8746 196.188C100.116 197.138 102.27 198.314 104.261 199.727C105.263 200.452 106.189 201.24 107.079 202.091C107.254 202.266 107.442 202.428 107.605 202.603C107.605 202.541 107.605 202.466 107.579 202.403C107.918 202.541 108.256 202.578 108.581 202.528C107.467 201.415 106.089 200.49 104.862 199.615C102.871 198.189 100.73 196.938 98.4757 195.975C96.3093 195.05 94.0427 194.412 91.7261 194.037C89.0964 193.612 86.4416 193.387 83.837 192.874C83.7994 192.862 83.7869 192.912 83.8244 192.924Z" fill="#FFC331"/>
<path d="M116.232 212.933C116.445 213.296 117.522 212.495 117.322 212.12C116.946 211.395 109.169 203.116 108.581 202.516C108.255 202.566 107.917 202.528 107.579 202.391C107.592 202.453 107.604 202.528 107.604 202.591C108.33 203.279 115.719 212.107 116.232 212.933Z" fill="#2A519E"/>
<path d="M95.3706 170.477C95.8089 170.864 96.1971 171.314 96.5477 171.777C96.8858 172.252 97.1863 172.74 97.4618 173.265C97.6246 173.59 97.7498 174.116 98.0629 174.341C97.8876 174.666 97.6371 174.979 97.4243 175.304C97.8625 175.104 98.0253 174.954 98.2758 175.404C98.7642 176.267 99.1023 177.205 99.5781 178.08C99.791 178.48 99.9913 178.93 100.292 179.293C100.53 179.568 100.981 179.818 101.068 180.193C101.181 180.656 99.9914 181.381 99.7534 181.707C100.204 181.669 100.981 181.506 101.294 181.156C101.256 181.444 101.043 181.782 100.88 182.032C101.194 181.844 101.494 181.607 101.782 181.431C101.982 181.682 102.283 181.869 102.508 182.107C102.796 182.419 103.097 182.695 103.385 182.995C103.786 183.42 104.875 184.208 104.888 184.82C104.913 185.433 104.086 186.771 103.56 187.021C104.261 186.921 105.301 186.084 105.539 185.421C106.403 186.109 107.217 187.284 107.68 188.285C108.194 189.373 107.968 190.536 107.204 191.198C106.816 191.536 106.29 191.736 105.651 191.724C105.476 191.586 105.313 191.436 105.151 191.298C104.324 190.586 103.548 189.823 102.834 188.985C101.419 187.334 100.217 185.533 99.1899 183.62C97.1237 179.793 96.4976 175.541 95.1953 171.452C95.1827 171.414 95.1452 171.439 95.1452 171.464C95.8089 173.741 96.2096 176.067 96.7981 178.355C97.3241 180.381 98.0629 182.332 99.0522 184.17C100.079 186.084 101.369 187.884 102.784 189.535C103.66 190.561 104.587 191.711 105.664 192.599C105.639 193.524 104.925 194.425 104.124 194.825C103.047 195.363 101.92 195 101.018 194.287C100.605 193.975 100.204 193.562 99.8411 193.224C99.5155 192.924 99.2901 192.386 98.8769 192.186C99.0772 191.811 99.3903 191.523 99.6282 191.173C99.2275 191.198 98.8017 191.423 98.4511 191.586C98.2758 191.261 97.7123 190.673 97.6622 190.323C97.6246 189.973 98.2132 189.46 98.4511 189.222C98.1005 189.235 97.7123 189.348 97.3867 189.485C96.5852 188.922 96.0343 187.697 95.6085 186.859C95.2954 186.221 95.07 185.508 94.7319 184.883C95.1953 184.658 95.6336 184.358 96.1219 184.145C96.7105 183.87 97.3742 183.632 97.8751 183.195C97.4117 183.27 96.9484 183.382 96.5101 183.507C95.8214 183.695 95.1076 183.632 94.4314 183.82C94.3563 183.507 94.1684 183.257 94.0683 182.97C93.9555 182.67 93.1416 180.156 93.4046 180.093C93.9806 179.943 94.5441 179.631 95.1452 179.493C94.757 179.418 94.2686 179.293 93.8929 179.243C94.2185 179.155 94.6568 178.88 94.9198 178.78C94.5817 178.705 93.6675 178.468 93.4296 178.718C93.5924 178.18 93.5423 177.617 93.4922 177.08C93.4547 176.567 93.5173 176.067 93.5924 175.554C93.655 175.204 93.7928 174.841 93.8178 174.503C94.1183 174.541 94.5316 174.116 94.8071 174.003C94.5691 173.841 94.1684 173.741 93.8804 173.678C94.0307 172.29 94.5191 171.039 94.0432 169.639C94.1309 169.801 95.1702 170.301 95.3706 170.477Z" fill="#FF3B99"/>
<path d="M95.1956 171.439C96.4979 175.529 97.124 179.781 99.1902 183.607C100.217 185.521 101.419 187.322 102.834 188.972C103.548 189.798 104.324 190.56 105.151 191.286C105.326 191.436 105.476 191.573 105.652 191.711C105.589 191.711 105.539 191.711 105.476 191.711C105.627 191.999 105.689 192.299 105.664 192.586C104.6 191.686 103.661 190.535 102.784 189.523C101.369 187.872 100.079 186.083 99.0525 184.158C98.0632 182.307 97.3244 180.356 96.7985 178.343C96.2099 176.041 95.8092 173.715 95.1455 171.452C95.1455 171.427 95.1831 171.414 95.1956 171.439Z" fill="#FFC331"/>
<path d="M115.495 198.539C115.833 198.702 115.206 199.715 114.868 199.564C114.192 199.289 106.24 193.062 105.664 192.586C105.677 192.286 105.627 191.999 105.477 191.711C105.539 191.723 105.602 191.723 105.652 191.711C106.316 192.299 114.718 198.151 115.495 198.539Z" fill="#3458B2"/>
<path d="M275.205 205.579C278.423 203.616 279.876 200.64 279.162 199.152C278.398 197.538 274.616 196.675 270.584 198.826C270.722 198.214 272.688 188.934 270.584 188.109C268.894 187.446 265.412 192.561 264.636 193.712C265.412 187.009 265.249 183.482 264.135 183.157C263.321 182.919 262.006 184.407 260.178 187.609C259.514 185.295 258.851 184.145 258.199 184.145C256.91 184.145 255.645 188.597 254.405 197.501C253.792 194.249 252.489 188.447 250.774 188.434C248.632 188.409 246.954 197.413 246.478 200.139C243.698 197.213 241.983 195.95 241.357 196.35C240.568 196.863 241.494 200.052 244.162 205.905C254.518 205.804 264.861 205.692 275.205 205.579Z" fill="#FF006D"/>
<path d="M290.478 170.525C293.256 167.751 293.256 163.254 290.478 160.48C287.7 157.706 283.197 157.706 280.419 160.48C277.641 163.254 277.641 167.751 280.419 170.525C283.197 173.299 287.7 173.299 290.478 170.525Z" fill="#FFD776"/>
<path d="M285.449 171.265C288.637 171.265 291.221 168.683 291.221 165.499C291.221 162.315 288.637 159.734 285.449 159.734C282.26 159.734 279.676 162.315 279.676 165.499C279.676 168.683 282.26 171.265 285.449 171.265Z" fill="#FFC331"/>
<path d="M287.653 166.8C287.653 167.238 287.49 167.6 287.152 167.888C286.826 168.176 286.363 168.351 285.762 168.426V169.551H285.136V168.463C284.773 168.463 284.422 168.438 284.084 168.376C283.746 168.313 283.471 168.238 283.245 168.138V167.375C283.508 167.5 283.821 167.588 284.172 167.675C284.522 167.75 284.848 167.788 285.136 167.788V165.649C284.472 165.437 284.009 165.199 283.733 164.912C283.471 164.636 283.333 164.274 283.333 163.836C283.333 163.411 283.496 163.061 283.821 162.786C284.147 162.51 284.585 162.348 285.123 162.285V161.397H285.75V162.273C286.351 162.285 286.927 162.41 287.478 162.636L287.227 163.273C286.739 163.086 286.25 162.973 285.75 162.936V165.074C286.263 165.237 286.639 165.399 286.889 165.549C287.14 165.699 287.327 165.874 287.453 166.075C287.59 166.275 287.653 166.512 287.653 166.8ZM284.172 163.849C284.172 164.099 284.247 164.286 284.385 164.436C284.535 164.586 284.785 164.724 285.149 164.862V162.986C284.823 163.036 284.585 163.136 284.422 163.286C284.247 163.436 284.172 163.623 284.172 163.849ZM286.827 166.862C286.827 166.625 286.751 166.437 286.614 166.3C286.463 166.15 286.188 166.012 285.775 165.874V167.763C286.476 167.663 286.827 167.363 286.827 166.862Z" fill="white"/>
<path d="M292.586 124.519V144.152H258.274V124.519H292.586ZM290.908 142.852V126.207V125.807H259.94V142.452V142.852H290.908Z" fill="#FFC331"/>
<path d="M290.907 126.207V142.852H259.939V142.464H260.29H261.843H289.004H290.557V141.026V127.645V126.207H290.907Z" fill="#FFC331"/>
<path d="M290.907 125.807V126.207H290.557H289.004H261.843H260.29V127.645V141.026V142.464H259.939V125.807H290.907Z" fill="#FFC331"/>
<path d="M290.557 141.026V142.464H289.004C289.004 141.664 289.693 141.026 290.557 141.026Z" fill="#FFC331"/>
<path d="M290.557 127.645V141.026C289.705 141.026 289.004 141.664 289.004 142.464H261.843C261.843 141.664 261.154 141.026 260.303 141.026V127.645C261.154 127.645 261.843 126.995 261.843 126.207H289.004C289.004 127.007 289.693 127.645 290.557 127.645ZM286.625 134.336C286.625 133.36 286.099 132.56 285.448 132.56C284.797 132.56 284.271 133.348 284.271 134.336C284.271 135.311 284.797 136.111 285.448 136.111C286.099 136.111 286.625 135.311 286.625 134.336ZM282.856 134.336C282.856 131.359 279.525 128.946 275.43 128.946C271.322 128.946 268.004 131.359 268.004 134.336C268.004 137.312 271.335 139.726 275.43 139.726C279.525 139.726 282.856 137.312 282.856 134.336ZM266.576 134.336C266.576 133.36 266.051 132.56 265.399 132.56C264.748 132.56 264.222 133.348 264.222 134.336C264.222 135.311 264.748 136.111 265.399 136.111C266.038 136.111 266.576 135.311 266.576 134.336Z" fill="#FFD776"/>
<path d="M290.557 126.207V127.645C289.705 127.645 289.004 126.995 289.004 126.207H290.557Z" fill="#FFC331"/>
<path d="M285.448 132.56C286.099 132.56 286.625 133.347 286.625 134.335C286.625 135.311 286.099 136.111 285.448 136.111C284.796 136.111 284.271 135.311 284.271 134.335C284.271 133.347 284.796 132.56 285.448 132.56Z" fill="#FFC331"/>
<path d="M275.417 128.945C279.524 128.945 282.843 131.359 282.843 134.335C282.843 137.312 279.512 139.725 275.417 139.725C271.31 139.725 267.991 137.312 267.991 134.335C267.991 131.359 271.322 128.945 275.417 128.945Z" fill="#FFC331"/>
<path d="M265.387 132.56C266.038 132.56 266.564 133.347 266.564 134.335C266.564 135.311 266.038 136.111 265.387 136.111C264.736 136.111 264.21 135.311 264.21 134.335C264.21 133.347 264.736 132.56 265.387 132.56Z" fill="#FFC331"/>
<path d="M260.29 126.207H261.83C261.83 127.007 261.142 127.645 260.29 127.645V126.207Z" fill="#FFC331"/>
<path d="M261.843 142.464H260.303V141.026C261.142 141.026 261.843 141.664 261.843 142.464Z" fill="#FFC331"/>
<path d="M276.47 131.659C277.209 131.922 277.559 132.509 277.559 133.335V133.46H276.645C276.645 132.997 276.52 132.66 276.269 132.459L275.869 133.985C277.021 134.148 277.622 134.573 277.622 135.461V135.523C277.622 136.536 276.833 137.149 275.468 137.149C275.318 137.149 275.192 137.137 275.055 137.137L274.817 138.087H274.065L274.353 136.974C273.602 136.686 273.214 136.099 273.214 135.323V135.273H274.128C274.128 135.673 274.266 135.986 274.541 136.174L274.955 134.56C273.765 134.373 273.276 133.923 273.276 133.135V133.072C273.276 132.084 274.128 131.497 275.405 131.497C275.518 131.497 275.643 131.509 275.743 131.509L275.981 130.559H276.733L276.47 131.659ZM275.142 133.885L275.568 132.234C275.518 132.222 275.468 132.222 275.43 132.222H275.393C274.742 132.222 274.228 132.509 274.228 133.022V133.06C274.216 133.497 274.454 133.76 275.142 133.885ZM276.683 135.573V135.536C276.683 135.061 276.382 134.811 275.693 134.685L275.243 136.436C275.318 136.449 275.38 136.449 275.455 136.449H275.493C276.194 136.436 276.683 136.124 276.683 135.573Z" fill="white"/>
<path d="M120.653 205.579C123.871 203.616 125.324 200.64 124.61 199.152C123.846 197.538 120.065 196.675 116.032 198.826C116.17 198.214 118.136 188.934 116.032 188.109C114.342 187.446 110.861 192.561 110.084 193.712C110.861 187.009 110.698 183.482 109.583 183.157C108.769 182.919 107.454 184.407 105.626 187.609C104.962 185.295 104.299 184.145 103.648 184.145C102.358 184.145 101.093 188.597 99.8533 197.501C99.2397 194.249 97.9374 188.447 96.2218 188.434C94.0805 188.409 92.4025 197.413 91.9267 200.139C89.1467 197.213 87.4311 195.95 86.805 196.35C86.0161 196.863 86.9427 200.052 89.61 205.905C99.966 205.804 110.31 205.692 120.653 205.579Z" fill="#FF006D"/>
<path d="M94.8577 109.573C95.7648 105.756 93.4016 101.928 89.5794 101.022C85.7572 100.116 81.9234 102.476 81.0164 106.293C80.1093 110.11 82.4725 113.939 86.2947 114.845C90.1169 115.751 93.9507 113.391 94.8577 109.573Z" fill="#FFD776"/>
<path d="M87.933 113.701C91.1212 113.701 93.7058 111.119 93.7058 107.935C93.7058 104.752 91.1212 102.17 87.933 102.17C84.7447 102.17 82.1602 104.752 82.1602 107.935C82.1602 111.119 84.7447 113.701 87.933 113.701Z" fill="#FFC331"/>
<path d="M90.1364 109.236C90.1364 109.674 89.9736 110.037 89.6355 110.324C89.3099 110.612 88.8466 110.787 88.2455 110.862V111.988H87.6194V110.9C87.2563 110.9 86.9056 110.875 86.5675 110.812C86.2294 110.75 85.9539 110.675 85.7285 110.575V109.812C85.9915 109.937 86.3045 110.024 86.6552 110.112C87.0058 110.187 87.3314 110.224 87.6194 110.224V108.086C86.9557 107.873 86.4924 107.636 86.2169 107.348C85.9539 107.073 85.8162 106.71 85.8162 106.273C85.8162 105.847 85.979 105.497 86.3045 105.222C86.6301 104.947 87.0684 104.784 87.6069 104.722V103.834H88.233V104.709C88.8341 104.722 89.4101 104.847 89.9611 105.072L89.7106 105.71C89.2223 105.522 88.7339 105.41 88.233 105.372V107.486C88.7464 107.648 89.1221 107.811 89.3725 107.961C89.623 108.111 89.8108 108.286 89.9361 108.486C90.0738 108.711 90.1364 108.949 90.1364 109.236ZM86.6427 106.285C86.6427 106.535 86.7178 106.723 86.8555 106.873C87.0058 107.023 87.2563 107.16 87.6194 107.298V105.422C87.2938 105.472 87.0559 105.572 86.8931 105.722C86.7303 105.872 86.6427 106.06 86.6427 106.285ZM89.3099 109.299C89.3099 109.061 89.2348 108.874 89.0971 108.736C88.9468 108.586 88.6713 108.449 88.2581 108.311V110.199C88.9593 110.099 89.3099 109.799 89.3099 109.299Z" fill="white"/>
<path d="M252.79 90.9033H107.217V205.154H252.79V90.9033Z" fill="#FFC331"/>
<path d="M254.443 198.089H105.552V205.142H254.443V198.089Z" fill="#F9F8F7"/>
<path d="M256.059 83.6499H103.949V90.9157H256.059V83.6499Z" fill="#FFC331"/>
<path opacity="0.5" d="M256.059 88.5396H103.949V90.9031H256.059V88.5396Z" fill="#FFC331"/>
<path d="M260.467 83.6501H99.541V81.6617C99.541 78.4353 102.158 75.8091 105.402 75.8091H254.619C257.849 75.8091 260.479 78.4228 260.479 81.6617V83.6501H260.467Z" fill="#FFC331"/>
<path opacity="0.5" d="M260.467 81.2739H99.541V83.6375H260.467V81.2739Z" fill="#FFC331"/>
<path d="M255.82 96.1805V114.439H101.419V99.0318L107.405 92.854H252.59L255.82 96.1805Z" fill="#E05A00"/>
<path opacity="0.5" d="M252.79 114.438V122.692C252.74 122.267 252.703 121.842 252.703 121.404C252.69 127.107 248.069 131.721 242.359 131.721H242.259C236.549 131.721 231.928 127.107 231.915 121.404C231.915 127.107 227.282 131.721 221.572 131.721H221.484C215.774 131.721 211.141 127.107 211.141 121.404C211.141 127.107 206.507 131.721 200.797 131.721H200.709C194.999 131.721 190.366 127.107 190.366 121.404C190.353 127.107 185.733 131.721 180.022 131.721H179.922C174.212 131.721 169.591 127.107 169.579 121.404C169.579 127.107 164.945 131.721 159.235 131.721H159.148C153.437 131.721 148.804 127.107 148.804 121.404C148.804 127.107 144.171 131.721 138.461 131.721H138.36C132.65 131.721 128.017 127.107 128.017 121.404C128.017 127.107 123.384 131.721 117.673 131.721H117.586C111.875 131.721 107.242 127.107 107.242 121.404C107.242 121.829 107.217 122.242 107.167 122.642V114.438H252.79Z" fill="#FFC331"/>
<path d="M139.675 90.8657L128.067 112.45H107.292L123.546 90.8657H139.675Z" fill="#F9F8F7"/>
<path d="M171.933 90.8657L169.617 112.45H148.842L155.804 90.8657H171.933Z" fill="#F9F8F7"/>
<path d="M204.203 90.8657L211.166 112.45H190.391L188.074 90.8657H204.203Z" fill="#F9F8F7"/>
<path d="M236.461 90.8657L252.715 112.45H231.94L220.332 90.8657H236.461Z" fill="#F9F8F7"/>
<path d="M123.546 90.8657L107.292 112.45H86.5176L107.405 90.8657H123.546Z" fill="#FF5AB1"/>
<path d="M155.805 90.8657L148.842 112.45H128.067L139.676 90.8657H155.805Z" fill="#FF5AB1"/>
<path d="M188.074 90.8657L190.391 112.45H169.616L171.933 90.8657H188.074Z" fill="#FF5AB1"/>
<path d="M220.332 90.8657L231.94 112.45H211.166L204.203 90.8657H220.332Z" fill="#FF5AB1"/>
<path d="M252.59 90.8657L273.49 112.45H252.715L236.461 90.8657H252.59Z" fill="#FF5AB1"/>
<path d="M263.146 129.745H263.058C257.348 129.745 252.715 125.118 252.715 119.416V112.45H273.49V119.416C273.49 125.118 268.856 129.745 263.146 129.745Z" fill="#FF006D"/>
<path d="M242.372 129.745H242.284C236.574 129.745 231.94 125.118 231.94 119.416V112.45H252.715V119.416C252.715 125.118 248.082 129.745 242.372 129.745Z" fill="#E9E5D9"/>
<path d="M221.597 129.745H221.51C215.799 129.745 211.166 125.118 211.166 119.416V112.45H231.941V119.416C231.941 125.118 227.307 129.745 221.597 129.745Z" fill="#FF006D"/>
<path d="M200.823 129.745H200.735C195.025 129.745 190.392 125.118 190.392 119.416V112.45H211.166V119.416C211.166 125.118 206.533 129.745 200.823 129.745Z" fill="#E9E5D9"/>
<path d="M180.047 129.745H179.96C174.25 129.745 169.616 125.118 169.616 119.416V112.45H190.391V119.416C190.391 125.118 185.758 129.745 180.047 129.745Z" fill="#FF006D"/>
<path d="M159.273 129.745H159.185C153.475 129.745 148.842 125.118 148.842 119.416V112.45H169.617V119.416C169.617 125.118 164.983 129.745 159.273 129.745Z" fill="#E9E5D9"/>
<path d="M138.499 129.745H138.411C132.701 129.745 128.067 125.118 128.067 119.416V112.45H148.842V119.416C148.842 125.118 144.209 129.745 138.499 129.745Z" fill="#FF006D"/>
<path d="M117.723 129.745H117.636C111.925 129.745 107.292 125.118 107.292 119.416V112.45H128.067V119.416C128.067 125.118 123.433 129.745 117.723 129.745Z" fill="#E9E5D9"/>
<path d="M96.9488 129.745H96.8611C91.1509 129.745 86.5176 125.118 86.5176 119.416V112.45H107.292V119.416C107.292 125.118 102.659 129.745 96.9488 129.745Z" fill="#FF006D"/>
<path d="M157.946 133.41H121.343V205.142H157.946V133.41Z" fill="#2D2D2D"/>
<path d="M155.491 136.261H123.797V205.142H155.491V136.261Z" fill="#FFC331"/>
<path d="M154.865 136.887H123.797V205.142H154.865V136.887Z" fill="#FFC331"/>
<path d="M154.865 136.887H124.423V205.142H154.865V136.887Z" fill="#FF9C00"/>
<path d="M131.949 172.19C131.949 173.54 130.847 174.641 129.494 174.641C128.142 174.641 127.04 173.54 127.04 172.19C127.04 170.839 128.142 169.739 129.494 169.739C130.859 169.751 131.949 170.839 131.949 172.19Z" fill="#FFC331"/>
<path d="M132.575 171.564C132.575 172.915 131.473 174.015 130.12 174.015C128.768 174.015 127.666 172.915 127.666 171.564C127.666 170.214 128.768 169.113 130.12 169.113C131.485 169.126 132.575 170.214 132.575 171.564Z" fill="#F9FBFC"/>
<path d="M130.133 173.74C131.336 173.74 132.312 172.766 132.312 171.564C132.312 170.362 131.336 169.388 130.133 169.388C128.93 169.388 127.954 170.362 127.954 171.564C127.954 172.766 128.93 173.74 130.133 173.74Z" fill="#DCE8EF"/>
<path d="M130.183 172.577C131.027 172.577 131.711 171.894 131.711 171.052C131.711 170.209 131.027 169.526 130.183 169.526C129.339 169.526 128.655 170.209 128.655 171.052C128.655 171.894 129.339 172.577 130.183 172.577Z" fill="#F9FBFC"/>
<path opacity="0.5" d="M241.57 186.059V134.335H169.027V186.059H166.986V190.786H243.861V186.059H241.57Z" fill="#FFC331"/>
<path d="M242.823 133.085H170.28V187.422H242.823V133.085Z" fill="#2D2D2D"/>
<path d="M240.781 134.961H172.321V185.884H240.781V134.961Z" fill="#FF9C00"/>
<path d="M240.155 135.586H172.321V185.883H240.155V135.586Z" fill="#FFC331"/>
<path d="M245.114 184.808H168.239V189.535H245.114V184.808Z" fill="#2D2D2D"/>
<path d="M152.886 138.962H126.401V167.45H152.886V138.962Z" fill="#82E3F9"/>
<path d="M140.552 138.662H138.724V167.775H140.552V138.662Z" fill="#FF9C00"/>
<path d="M154.226 152.293H125.074V154.119H154.226V152.293Z" fill="#FF9C00"/>
<path d="M153.187 203.366H126.101V175.441H153.199V203.366H153.187ZM126.702 202.753H152.573V176.054H126.702V202.753Z" fill="#FFC331"/>
<path d="M75.2091 135.811C80.6727 135.811 85.1018 131.387 85.1018 125.931C85.1018 120.475 80.6727 116.052 75.2091 116.052C69.7455 116.052 65.3164 120.475 65.3164 125.931C65.3164 131.387 69.7455 135.811 75.2091 135.811Z" fill="#FFD776"/>
<path d="M75.2095 133.947C79.6426 133.947 83.2364 130.358 83.2364 125.931C83.2364 121.504 79.6426 117.915 75.2095 117.915C70.7764 117.915 67.1826 121.504 67.1826 125.931C67.1826 130.358 70.7764 133.947 75.2095 133.947Z" fill="#FFC331"/>
<path d="M78.2768 127.744C78.2768 128.357 78.0514 128.857 77.5881 129.258C77.1247 129.658 76.4861 129.908 75.6596 130.008V131.571H74.783V130.07C74.2821 130.07 73.7938 130.033 73.3179 129.958C72.8421 129.883 72.4539 129.77 72.1533 129.633V128.582C72.529 128.745 72.9548 128.882 73.4431 128.995C73.9315 129.095 74.3823 129.158 74.783 129.158V126.181C73.8564 125.894 73.2052 125.543 72.8421 125.156C72.4664 124.768 72.2785 124.268 72.2785 123.655C72.2785 123.067 72.504 122.58 72.9673 122.204C73.4306 121.829 74.0317 121.592 74.783 121.517V120.291H75.6596V121.504C76.4861 121.529 77.2875 121.692 78.0639 122.004L77.7133 122.892C77.0371 122.63 76.3609 122.467 75.6596 122.417V125.343C76.3734 125.568 76.8993 125.793 77.2499 126.006C77.6006 126.219 77.8636 126.469 78.0263 126.744C78.1891 127.007 78.2768 127.344 78.2768 127.744ZM73.4181 123.63C73.4181 123.968 73.5183 124.243 73.7186 124.455C73.919 124.668 74.2696 124.856 74.7705 125.043V122.429C74.3197 122.505 73.9816 122.642 73.7562 122.855C73.5308 123.067 73.4181 123.317 73.4181 123.63ZM77.1247 127.832C77.1247 127.507 77.0245 127.244 76.8242 127.044C76.6238 126.844 76.2356 126.644 75.6596 126.444V129.07C76.6363 128.932 77.1247 128.52 77.1247 127.832Z" fill="white"/>
<path d="M310.493 205.142H42.3506V222.162H310.493V205.142Z" fill="#2D2D2D"/>
<path d="M289.743 205.142H42.3506V210.619H289.743V205.142Z" fill="#202021"/>
<path d="M192.557 154.744C192.557 154.744 203.201 138.8 205.442 138.8C207.959 138.8 219.58 150.893 219.58 150.893" stroke="white" stroke-width="0.5" stroke-miterlimit="10" stroke-linejoin="round"/>
<path d="M220.97 163.148L195.788 167.112C194.285 167.35 192.87 166.324 192.632 164.824L191.442 157.32C191.205 155.82 192.231 154.407 193.734 154.169L218.917 150.205C220.419 149.967 221.834 150.992 222.072 152.493L223.262 159.997C223.5 161.51 222.473 162.91 220.97 163.148Z" fill="#FF006D"/>
<path d="M201.718 162.054C201.286 162.122 200.871 162.084 200.474 161.941C200.081 161.793 199.749 161.556 199.479 161.229C199.212 160.896 199.042 160.503 198.971 160.049C198.899 159.594 198.939 159.17 199.092 158.777C199.248 158.382 199.491 158.056 199.821 157.799C200.154 157.537 200.536 157.372 200.968 157.304C201.405 157.235 201.819 157.275 202.213 157.423C202.609 157.566 202.941 157.801 203.207 158.129C203.474 158.457 203.643 158.848 203.714 159.302C203.786 159.756 203.746 160.183 203.594 160.581C203.442 160.974 203.199 161.302 202.866 161.565C202.537 161.822 202.154 161.985 201.718 162.054ZM201.613 161.392C201.921 161.344 202.184 161.232 202.403 161.056C202.621 160.875 202.776 160.646 202.869 160.366C202.965 160.082 202.987 159.768 202.933 159.425C202.878 159.082 202.762 158.792 202.583 158.556C202.409 158.318 202.19 158.15 201.928 158.049C201.666 157.949 201.381 157.923 201.073 157.972C200.766 158.02 200.503 158.132 200.284 158.308C200.066 158.484 199.908 158.712 199.81 158.992C199.717 159.272 199.698 159.583 199.752 159.926C199.806 160.269 199.921 160.561 200.096 160.803C200.275 161.039 200.496 161.21 200.759 161.315C201.021 161.415 201.306 161.441 201.613 161.392ZM207.564 157.744C207.602 157.98 207.581 158.212 207.503 158.439C207.424 158.665 207.273 158.865 207.049 159.037C206.825 159.205 206.521 159.319 206.138 159.379L205.296 159.512L205.593 161.396L204.832 161.516L204.099 156.872L205.702 156.62C206.059 156.564 206.369 156.579 206.634 156.665C206.902 156.746 207.113 156.882 207.267 157.072C207.424 157.262 207.524 157.486 207.564 157.744ZM206.04 158.758C206.329 158.712 206.535 158.614 206.657 158.462C206.779 158.306 206.821 158.108 206.783 157.867C206.702 157.36 206.375 157.151 205.8 157.241L204.959 157.374L205.198 158.89L206.04 158.758ZM208.931 156.742L209.146 158.105L210.75 157.852L210.848 158.474L209.244 158.726L209.469 160.149L211.273 159.865L211.371 160.486L208.805 160.89L208.071 156.24L210.637 155.836L210.735 156.458L208.931 156.742ZM216.124 159.738L215.362 159.858L212.523 156.751L213.071 160.219L212.309 160.339L211.575 155.689L212.337 155.569L215.175 158.669L214.629 155.208L215.39 155.088L216.124 159.738Z" fill="white"/>
<path d="M206.519 139.863C206.519 140.438 206.056 140.901 205.48 140.901C204.904 140.901 204.44 140.438 204.44 139.863C204.44 139.287 204.904 138.825 205.48 138.825C206.056 138.825 206.519 139.287 206.519 139.863Z" fill="#81A4FF"/>
<path d="M206.457 139.864C206.457 140.414 206.019 140.852 205.468 140.852C204.917 140.852 204.479 140.414 204.479 139.864C204.479 139.314 204.917 138.876 205.468 138.876C206.019 138.876 206.457 139.326 206.457 139.864Z" fill="#FF006D"/>
<path d="M206.156 139.562C206.156 139.938 205.856 140.238 205.48 140.238C205.104 140.238 204.804 139.938 204.804 139.562C204.804 139.187 205.104 138.887 205.48 138.887C205.856 138.875 206.156 139.187 206.156 139.562Z" fill="#FF5AB1"/>
<path d="M49.7643 205.092L48.1113 205.029L59.1185 167.45L60.6212 167.887L49.7643 205.092Z" fill="#D37D00"/>
<path d="M80.0312 205.092L78.4033 205.079L89.3855 167.45L90.8882 167.887L80.0312 205.092Z" fill="#D37D00"/>
<path d="M95.8715 205.242H94.3813L92.2901 189.085H62.9125L65.0037 205.242H63.5261L56.7139 152.681C56.6763 152.381 56.9142 152.105 57.2148 152.105H88.5459C88.7963 152.105 89.0092 152.293 89.0468 152.543L95.8715 205.242Z" fill="#FFC331"/>
<path d="M92.027 187.596H62.7997L58.4794 154.269L58.4043 153.681C58.4043 153.669 58.4043 153.656 58.4043 153.656H87.6191L92.027 187.596Z" fill="#E89F0F"/>
<path d="M91.3383 187.596H62.7997L58.4795 154.256H87.0056L91.3383 187.596Z" fill="#FFC331"/>
<g opacity="0.5">
<path opacity="0.5" d="M69.487 164.224C71.3027 164.224 72.8054 165.324 73.106 167.438C73.4065 169.551 72.2169 170.652 70.4011 170.652C68.5854 170.652 67.0576 169.551 66.7571 167.438C66.4691 165.324 67.6837 164.224 69.487 164.224ZM69.0111 167.438C69.1363 168.338 69.5371 168.726 70.1131 168.726C70.6891 168.726 70.9897 168.325 70.8644 167.438C70.7392 166.525 70.3135 166.124 69.7374 166.124C69.1739 166.124 68.8859 166.525 69.0111 167.438ZM76.1364 164.424H79.2795L73.8448 177.817H70.7016L76.1364 164.424ZM79.5926 171.602C81.4083 171.602 82.911 172.69 83.2115 174.816C83.5121 176.929 82.3225 178.03 80.5067 178.03C78.691 178.03 77.1883 176.929 76.8877 174.816C76.5872 172.69 77.7893 171.602 79.5926 171.602ZM79.1167 174.816C79.2419 175.716 79.6427 176.104 80.2187 176.104C80.7947 176.104 81.0953 175.704 80.97 174.816C80.8448 173.915 80.419 173.503 79.843 173.503C79.2795 173.503 78.9915 173.928 79.1167 174.816Z" fill="#FFC331"/>
</g>
<path d="M70.7389 163.598C72.5547 163.598 74.0574 164.699 74.3579 166.812C74.6584 168.926 73.4688 170.026 71.6531 170.026C69.8373 170.026 68.3096 168.926 68.009 166.812C67.721 164.699 68.9357 163.598 70.7389 163.598ZM70.2631 166.812C70.3883 167.712 70.789 168.1 71.3651 168.1C71.9411 168.1 72.2416 167.7 72.1164 166.812C71.9912 165.899 71.5654 165.499 70.9894 165.499C70.4259 165.499 70.1379 165.899 70.2631 166.812ZM77.3883 163.798H80.5315L75.0967 177.192H71.9536L77.3883 163.798ZM80.8445 170.976C82.6603 170.976 84.163 172.064 84.4635 174.19C84.764 176.304 83.5744 177.404 81.7587 177.404C79.9429 177.404 78.4402 176.304 78.1397 174.19C77.8391 172.064 79.0413 170.976 80.8445 170.976ZM80.3687 174.19C80.4939 175.091 80.8946 175.478 81.4706 175.478C82.0467 175.478 82.3472 175.078 82.222 174.19C82.0968 173.29 81.671 172.877 81.095 172.877C80.5315 172.877 80.2434 173.302 80.3687 174.19Z" fill="white"/>
<path d="M244.487 69.5488C246.529 67.3244 246.38 63.8674 244.152 61.8274C241.925 59.7874 238.463 59.9369 236.42 62.1613C234.378 64.3857 234.527 67.8427 236.755 69.8827C238.982 71.9227 242.444 71.7732 244.487 69.5488Z" fill="#F2EFE9"/>
<path d="M122.442 71.0679C125.236 69.9192 126.569 66.7255 125.419 63.9345C124.269 61.1436 121.071 59.8123 118.276 60.9611C115.481 62.1098 114.148 65.3035 115.299 68.0945C116.449 70.8854 119.647 72.2167 122.442 71.0679Z" fill="#F2EFE9"/>
<path d="M125.186 45.9579C125.186 47.3085 124.084 48.409 122.732 48.409C121.379 48.409 120.277 47.3085 120.277 45.9579C120.277 44.6073 121.379 43.5068 122.732 43.5068C124.084 43.5068 125.186 44.6073 125.186 45.9579Z" fill="#F2EFE9"/>
<path d="M56.8016 100.02C57.4724 100.02 58.0163 99.4767 58.0163 98.8068C58.0163 98.1369 57.4724 97.5938 56.8016 97.5938C56.1307 97.5938 55.5869 98.1369 55.5869 98.8068C55.5869 99.4767 56.1307 100.02 56.8016 100.02Z" fill="#F2EFE9"/>
<path d="M193.296 40.6554C193.296 41.3307 192.757 41.8685 192.081 41.8685C191.405 41.8685 190.866 41.3307 190.866 40.6554C190.866 39.9801 191.405 39.4424 192.081 39.4424C192.757 39.4424 193.296 39.9801 193.296 40.6554Z" fill="#F2EFE9"/>
<path d="M164.745 15.3694C164.745 16.0197 164.219 16.5449 163.568 16.5449C162.917 16.5449 162.391 16.0197 162.391 15.3694C162.391 14.7191 162.917 14.1938 163.568 14.1938C164.219 14.1938 164.745 14.7191 164.745 15.3694Z" fill="#F2EFE9"/>
<path d="M303.505 116.777C303.505 117.453 302.967 117.991 302.291 117.991C301.615 117.991 301.076 117.453 301.076 116.777C301.076 116.102 301.615 115.564 302.291 115.564C302.967 115.564 303.505 116.102 303.505 116.777Z" fill="#F2EFE9"/>
<path d="M295.667 188.572C295.667 189.247 295.128 189.785 294.452 189.785C293.776 189.785 293.237 189.247 293.237 188.572C293.237 187.897 293.776 187.359 294.452 187.359C295.116 187.359 295.667 187.897 295.667 188.572Z" fill="#F2EFE9"/>
<path d="M250.248 49.6974C250.248 50.3727 249.709 50.9105 249.033 50.9105C248.357 50.9105 247.818 50.3727 247.818 49.6974C247.818 49.0221 248.357 48.4844 249.033 48.4844C249.709 48.4844 250.248 49.0221 250.248 49.6974Z" fill="#F2EFE9"/>
<path d="M60.9586 147.266C60.9586 147.941 60.4202 148.479 59.744 148.479C59.0678 148.479 58.5293 147.941 58.5293 147.266C58.5293 146.59 59.0678 146.053 59.744 146.053C60.4077 146.053 60.9586 146.59 60.9586 147.266Z" fill="#F2EFE9"/>
<path d="M85.9788 82.4994C87.3343 82.4994 88.4332 81.402 88.4332 80.0483C88.4332 78.6946 87.3343 77.5972 85.9788 77.5972C84.6233 77.5972 83.5244 78.6946 83.5244 80.0483C83.5244 81.402 84.6233 82.4994 85.9788 82.4994Z" fill="#F2EFE9"/>
<path d="M50.3528 181.706C51.7084 181.706 52.8072 180.609 52.8072 179.255C52.8072 177.902 51.7084 176.804 50.3528 176.804C48.9973 176.804 47.8984 177.902 47.8984 179.255C47.8984 180.609 48.9973 181.706 50.3528 181.706Z" fill="#F2EFE9"/>
<path d="M299.924 142.789C299.924 144.002 298.935 144.99 297.721 144.99C296.506 144.99 295.517 144.002 295.517 142.789C295.517 141.576 296.506 140.588 297.721 140.588C298.935 140.588 299.924 141.576 299.924 142.789Z" fill="#F2EFE9"/>
<path d="M281.691 61.7775C281.691 73.1576 270.196 87.0513 270.196 87.0513C270.196 87.0513 258.7 73.1576 258.7 61.7775C258.7 55.4372 263.847 50.2974 270.196 50.2974C276.545 50.2974 281.691 55.4497 281.691 61.7775Z" fill="#EF8E00"/>
<path d="M276.234 62.2814C276.51 58.943 274.024 56.0133 270.681 55.7376C267.338 55.4619 264.405 57.9447 264.129 61.283C263.853 64.6214 266.339 67.5511 269.682 67.8268C273.024 68.1025 275.958 65.6197 276.234 62.2814Z" fill="#F9FBFC"/>
<path d="M201.598 71.3193H198.956V75.8089H201.598V71.3193Z" fill="#FFC331"/>
<path d="M201.598 71.3193H198.956V75.8089H201.598V71.3193Z" fill="#FFC331"/>
<path d="M161.05 71.3193H158.408V75.8089H161.05V71.3193Z" fill="#FFC331"/>
<path d="M161.05 71.3193H158.408V75.8089H161.05V71.3193Z" fill="#FFC331"/>
<path d="M207.296 71.332H152.711C151.321 71.332 150.206 70.2065 150.206 68.8309V50.1725C150.206 48.7844 151.333 47.6714 152.711 47.6714H207.296C208.686 47.6714 209.8 48.7969 209.8 50.1725V68.8184C209.8 70.2065 208.686 71.332 207.296 71.332Z" fill="#FFC331"/>
<path d="M207.296 49.4972C207.671 49.4972 207.984 49.8098 207.984 50.185V68.8309C207.984 69.206 207.671 69.5187 207.296 69.5187H152.711C152.335 69.5187 152.022 69.206 152.022 68.8309V50.1725C152.022 49.7973 152.335 49.4847 152.711 49.4847H207.296V49.4972ZM207.296 47.6714H152.711C151.321 47.6714 150.206 48.7969 150.206 50.1725V68.8184C150.206 70.2065 151.333 71.3195 152.711 71.3195H207.296C208.686 71.3195 209.8 70.194 209.8 68.8184V50.1725C209.8 48.7969 208.686 47.6714 207.296 47.6714Z" fill="#FFC331"/>
<path d="M207.296 72.2447H152.711C150.82 72.2447 149.292 70.7065 149.292 68.8307V50.1723C149.292 48.284 150.832 46.7583 152.711 46.7583H207.296C209.187 46.7583 210.714 48.2965 210.714 50.1723V68.8182C210.714 70.7065 209.187 72.2447 207.296 72.2447ZM152.711 48.5841C151.834 48.5841 151.108 49.2969 151.108 50.1848V68.8307C151.108 69.7061 151.822 70.4314 152.711 70.4314H207.296C208.172 70.4314 208.899 69.7186 208.899 68.8307V50.1723C208.899 49.2969 208.185 48.5716 207.296 48.5716H152.711V48.5841Z" fill="#FF9C00"/>
<path d="M165.034 62.858C164.466 62.858 163.953 62.7608 163.495 62.5665C163.044 62.3723 162.687 62.0925 162.422 61.7273C162.158 61.362 162.022 60.9307 162.014 60.4334H163.763C163.786 60.7675 163.903 61.0317 164.113 61.226C164.33 61.4203 164.626 61.5174 164.999 61.5174C165.379 61.5174 165.679 61.4281 165.896 61.2493C166.114 61.0628 166.223 60.8219 166.223 60.5266C166.223 60.2857 166.149 60.0875 166.001 59.9321C165.853 59.7767 165.667 59.6562 165.442 59.5707C165.224 59.4775 164.921 59.3765 164.532 59.2677C164.004 59.1122 163.573 58.9607 163.238 58.8131C162.912 58.6576 162.628 58.4284 162.387 58.1253C162.154 57.8145 162.038 57.4026 162.038 56.8897C162.038 56.4079 162.158 55.9882 162.399 55.6307C162.64 55.2733 162.978 55.0013 163.413 54.8148C163.848 54.6205 164.346 54.5234 164.905 54.5234C165.745 54.5234 166.425 54.7293 166.945 55.1412C167.474 55.5453 167.765 56.1126 167.82 56.8431H166.024C166.009 56.5633 165.888 56.334 165.663 56.1553C165.445 55.9688 165.154 55.8755 164.789 55.8755C164.47 55.8755 164.214 55.9571 164.019 56.1203C163.833 56.2835 163.74 56.5206 163.74 56.8314C163.74 57.049 163.81 57.2316 163.949 57.3793C164.097 57.5191 164.276 57.6357 164.486 57.729C164.703 57.8145 165.006 57.9155 165.395 58.032C165.923 58.1875 166.355 58.3429 166.689 58.4983C167.023 58.6537 167.31 58.8869 167.551 59.1977C167.792 59.5086 167.913 59.9166 167.913 60.4217C167.913 60.8569 167.8 61.261 167.575 61.634C167.349 62.007 167.019 62.3062 166.584 62.5316C166.149 62.7492 165.632 62.858 165.034 62.858ZM174.865 54.6399V55.9571H172.696V62.7764H171.064V55.9571H168.896V54.6399H174.865ZM179.832 62.858C179.071 62.858 178.371 62.6792 177.734 62.3218C177.097 61.9643 176.592 61.4708 176.219 60.8413C175.845 60.2041 175.659 59.4853 175.659 58.6848C175.659 57.8922 175.845 57.1811 176.219 56.5516C176.592 55.9144 177.097 55.417 177.734 55.0596C178.371 54.7021 179.071 54.5234 179.832 54.5234C180.601 54.5234 181.301 54.7021 181.93 55.0596C182.568 55.417 183.069 55.9144 183.434 56.5516C183.807 57.1811 183.994 57.8922 183.994 58.6848C183.994 59.4853 183.807 60.2041 183.434 60.8413C183.069 61.4708 182.568 61.9643 181.93 62.3218C181.293 62.6792 180.594 62.858 179.832 62.858ZM179.832 61.4009C180.322 61.4009 180.753 61.2921 181.126 61.0745C181.499 60.8491 181.79 60.5305 182 60.1186C182.21 59.7067 182.315 59.2288 182.315 58.6848C182.315 58.1408 182.21 57.6668 182 57.2627C181.79 56.8508 181.499 56.5361 181.126 56.3185C180.753 56.1009 180.322 55.9921 179.832 55.9921C179.343 55.9921 178.907 56.1009 178.527 56.3185C178.154 56.5361 177.862 56.8508 177.652 57.2627C177.442 57.6668 177.338 58.1408 177.338 58.6848C177.338 59.2288 177.442 59.7067 177.652 60.1186C177.862 60.5305 178.154 60.8491 178.527 61.0745C178.907 61.2921 179.343 61.4009 179.832 61.4009ZM189.404 62.7764L187.609 59.6057H186.84V62.7764H185.208V54.6399H188.262C188.891 54.6399 189.427 54.7526 189.87 54.978C190.313 55.1956 190.644 55.4948 190.861 55.8755C191.087 56.2486 191.199 56.6682 191.199 57.1345C191.199 57.6707 191.044 58.1564 190.733 58.5916C190.422 59.019 189.96 59.3143 189.346 59.4775L191.293 62.7764H189.404ZM186.84 58.3818H188.204C188.646 58.3818 188.977 58.2768 189.194 58.067C189.412 57.8494 189.521 57.5502 189.521 57.1694C189.521 56.7964 189.412 56.5089 189.194 56.3068C188.977 56.097 188.646 55.9921 188.204 55.9921H186.84V58.3818ZM194.307 55.9571V57.9971H197.047V59.291H194.307V61.4475H197.396V62.7764H192.675V54.6283H197.396V55.9571H194.307Z" fill="#F9F8F7"/>
<path d="M235.046 63.1781C233.693 63.1781 232.591 64.2786 232.591 65.6292C232.591 66.9798 233.693 68.0803 235.046 68.0803C236.398 68.0803 237.5 66.9798 237.5 65.6292C237.5 64.2661 236.398 63.1781 235.046 63.1781ZM229.323 59.6515L231.477 61.9025C232.403 61.0146 233.656 60.4644 235.046 60.4644C236.436 60.4644 237.688 61.0146 238.615 61.9025L240.768 59.6515C239.278 58.2259 237.262 57.3505 235.046 57.3505C232.829 57.3505 230.813 58.2259 229.323 59.6515ZM235.046 44.2446C229.298 44.2446 224.089 46.5081 220.244 50.1848L222.398 52.4358C225.691 49.2969 230.124 47.3585 235.033 47.3585C239.942 47.3585 244.387 49.2844 247.668 52.4358L249.822 50.1848C246.003 46.5081 240.793 44.2446 235.046 44.2446ZM224.852 54.9744L227.006 57.2254C229.097 55.2245 231.928 53.9865 235.058 53.9865C238.189 53.9865 241.006 55.2245 243.11 57.2254L245.264 54.9744C242.609 52.4358 239.028 50.8726 235.058 50.8726C231.089 50.8726 227.495 52.4358 224.852 54.9744Z" fill="#FFC331"/>
<path d="M80.8566 78.1603L80.2806 78.548C79.7296 78.9106 78.9908 78.7606 78.6276 78.2103L74.7081 72.3202L73.4434 70.4068L75.5596 69.0062L76.0105 68.7061L76.2859 69.1187L77.6008 71.0946L81.1947 76.497C81.5579 77.0598 81.4076 77.7976 80.8566 78.1603Z" fill="#FF9C00"/>
<path d="M100.317 57.4135C100.718 58.3765 100.605 59.427 100.091 60.2523C99.7659 60.7901 99.265 61.2403 98.6388 61.4904L98.5637 61.5154C98.451 61.5654 98.3383 61.6029 98.2131 61.6279C98.2131 61.6279 98.2006 61.6404 98.1755 61.6404C98.0753 61.678 97.9752 61.6905 97.8875 61.703C97.8374 61.7155 97.7748 61.7155 97.7247 61.728C97.6245 61.7405 97.5244 61.7405 97.4242 61.7405C97.3115 61.7405 97.1988 61.7405 97.0861 61.728C97.0735 61.728 97.0735 61.7155 97.061 61.728C96.9358 61.7155 96.8231 61.6905 96.6979 61.6655C96.6854 61.6655 96.6603 61.6529 96.6478 61.6529C96.5351 61.6279 96.4224 61.5904 96.3222 61.5404C96.0843 61.4654 95.8589 61.3403 95.6585 61.2027C95.1701 60.8776 94.7694 60.4149 94.5315 59.8396C93.8678 58.2514 94.6066 56.4131 96.197 55.7503C96.773 55.5127 97.3866 55.4502 97.9626 55.5502C98.0127 55.5627 98.0503 55.5627 98.1004 55.5752C98.3258 55.6252 98.5512 55.7003 98.7516 55.8003C98.8267 55.8378 98.9018 55.8754 98.9644 55.9129C99.0145 55.9379 99.0646 55.9629 99.1147 56.0004C99.1397 56.0129 99.1648 56.0254 99.1773 56.0379C99.3401 56.138 99.4778 56.2505 99.6031 56.3881C99.6532 56.4381 99.6907 56.4756 99.7283 56.5257C99.7659 56.5632 99.8034 56.6007 99.841 56.6507C99.8786 56.7007 99.9287 56.7507 99.9537 56.8008C100.004 56.8508 100.041 56.9008 100.066 56.9633C100.091 57.0009 100.116 57.0259 100.129 57.0634C100.217 57.1759 100.267 57.2885 100.317 57.4135Z" fill="#112B46"/>
<path d="M100.317 57.4138C100.717 58.3767 100.605 59.4272 100.091 60.2526C99.7656 60.7903 99.2647 61.2405 98.6385 61.4906L98.5634 61.5157C98.4507 61.5657 98.338 61.6032 98.2128 61.6282C98.2128 61.6282 98.2003 61.6407 98.1752 61.6407C98.075 61.6782 97.9748 61.6907 97.8872 61.7032C97.8371 61.7157 97.7745 61.7157 97.7244 61.7283C97.6242 61.7408 97.524 61.7408 97.4239 61.7408C97.3112 61.7408 97.1985 61.7408 97.0858 61.7283C97.0732 61.7283 97.0732 61.7157 97.0607 61.7283C96.9355 61.7157 96.8228 61.6907 96.6976 61.6657C96.685 61.6657 96.66 61.6532 96.6475 61.6532C96.5348 61.6282 96.4221 61.5907 96.3219 61.5407C96.084 61.4531 95.8586 61.3406 95.6582 61.203C96.2342 61.3156 96.8478 61.253 97.4113 61.0154C97.7119 60.8904 97.9749 60.7278 98.2128 60.5277C98.8264 60.0025 99.2271 59.2646 99.3147 58.4643C99.3648 57.9641 99.3022 57.4263 99.0893 56.9261C98.8765 56.4259 98.5509 56.0007 98.1502 55.688C98.1001 55.638 98.0375 55.6005 97.9748 55.563C98.0249 55.5755 98.0625 55.5755 98.1126 55.6005C98.338 55.6505 98.5634 55.7256 98.7638 55.8256C98.8389 55.8631 98.914 55.9006 98.9766 55.9382C99.0267 55.9632 99.0768 55.9882 99.1269 56.0257C99.152 56.0382 99.177 56.0507 99.1895 56.0632C99.3523 56.1633 99.4901 56.2758 99.6153 56.4134C99.6654 56.4634 99.7029 56.5009 99.7405 56.5509C99.7781 56.5884 99.8156 56.626 99.8532 56.676C99.8908 56.726 99.9409 56.776 99.9659 56.8261C100.016 56.8761 100.054 56.9261 100.079 56.9886C100.104 57.0261 100.129 57.0512 100.141 57.0887C100.216 57.1762 100.266 57.2888 100.317 57.4138Z" fill="#112B46"/>
<path d="M78.6776 70.6568L77.6006 71.107L74.708 72.32L74.2196 72.5201L71.928 67.0927L71.2393 65.4545L75.6972 63.5786L78.0515 69.1561L78.6776 70.6568Z" fill="#FF9C00"/>
<path d="M74.2198 72.5201L73.8441 72.6826C73.1429 72.9703 72.3289 72.6451 72.0409 71.9448L70.1375 67.4053C69.837 66.705 70.1751 65.9046 70.8638 65.6045L71.2395 65.4419L71.9282 67.0801L74.2198 72.5201Z" fill="#FFC331"/>
<path d="M101.23 67.6304H101.218L78.6776 70.6568L78.0515 69.1561L75.6973 63.5786L93.6419 49.6099L96.2215 55.7376L98.2376 60.5148L98.6509 61.4902L101.23 67.6304Z" fill="#FFC331"/>
<path opacity="0.5" d="M101.231 67.6304L78.6779 70.6568L78.0518 69.1686C81.3452 69.0061 85.2521 67.5804 89.1591 65.5295C96.7728 61.5527 93.6547 49.6099 93.6547 49.6099L96.2343 55.7376L98.2504 60.5148L98.6637 61.4902L101.231 67.6304Z" fill="#FFC331"/>
<path d="M103.222 67.6806C103.372 68.0433 103.197 68.4435 102.846 68.5936L102.458 68.7561C102.095 68.9062 101.694 68.7311 101.544 68.381L101.231 67.6306L98.6512 61.4904L98.238 60.5149L96.2219 55.7378L93.6423 49.5975L93.3292 48.8472C93.1789 48.4845 93.3417 48.0844 93.7049 47.9343L94.0931 47.7717C94.4437 47.6217 94.8569 47.7967 95.0072 48.1469L95.6709 49.7351L98.1253 55.5627L98.1754 55.6753L99.34 58.4515L100.091 60.2398L103.222 67.6806Z" fill="#FF9C00"/>
<path d="M111.374 63.1284L105.601 63.316L112.15 64.2664L123.821 65.9672C124.773 66.1047 125.637 65.4044 125.687 64.4415C125.737 63.4785 124.96 62.6907 123.996 62.7157L111.374 63.1284ZM123.783 47.784C123.408 46.8961 122.356 46.5209 121.504 46.9711L105.288 55.3999L103.848 56.1503L105.476 55.625L122.782 49.985C123.696 49.6849 124.159 48.6719 123.783 47.784ZM110.81 35.0408L99.9531 49.8975L113.264 37.1918C113.953 36.529 113.941 35.416 113.214 34.7782C112.476 34.1404 111.374 34.2655 110.81 35.0408Z" fill="#FFC331"/>
</g>
<defs>
<clipPath id="clip0">
<rect width="377" height="251" fill="white"/>
</clipPath>
</defs>
</svg>
