<svg width="310" height="191" viewBox="0 0 310 191" fill="none" xmlns="http://www.w3.org/2000/svg">
<path d="M289.923 160.709C287.57 154.669 285.813 148.257 283.896 141.486C282.601 136.921 280.517 131.817 276.003 130.381C271.604 128.983 266.872 131.881 264.173 135.619C261.473 139.358 260.107 143.884 257.793 147.879C253.599 155.112 246.181 158.145 240.044 151.784C231.279 142.698 227.336 130.317 221.777 119.237C217.744 111.196 214.365 101.777 209.28 94.3649C201.528 83.0606 190.897 73.4234 176.765 73.4234C167.807 74.7827 159.914 82.7143 154.567 92.6336C149.225 102.553 146.109 114.345 143.455 126.11C138.626 147.507 135.087 167.769 131.554 189.634C131.554 189.634 309.877 189.185 309.883 189.185C309.172 189.191 304.799 183.35 303.965 182.542C297.117 175.912 293.007 168.628 289.923 160.709Z" fill="#FF006E"/>
<path d="M256.074 170.905C255.721 177.836 248.181 189.954 241.25 189.608C234.318 189.262 230.619 176.573 230.971 169.641C231.324 162.71 238.704 128.021 245.635 128.368C252.567 128.714 256.427 163.973 256.074 170.905Z" fill="#EFAF3F"/>
<path d="M245.302 132.876L241.807 189.051" stroke="#2A294F" stroke-width="0.7798" stroke-miterlimit="10" stroke-linecap="round" stroke-linejoin="round"/>
<path d="M240.211 169.462C238.634 172.931 237.428 176.567 236.704 180.362C236.338 182.286 236.101 184.37 236.973 186.12C237.922 188.038 240.031 189.153 242.141 189.5C247.296 190.346 252.445 187.191 255.465 182.927C258.485 178.67 259.793 173.463 260.992 168.379C261.935 164.377 262.864 160.319 264.647 156.587C265.41 154.99 269.885 148.816 267.769 147.219C264.878 144.943 256.497 147.418 251.13 153.278C246.713 158.1 242.91 163.531 240.211 169.462Z" fill="#FFC957"/>
<path d="M242.141 189.493C242.141 189.493 248.36 165.275 263.384 151.387" stroke="#2A294F" stroke-width="0.7798" stroke-miterlimit="10" stroke-linecap="round" stroke-linejoin="round"/>
<path d="M276.65 163.749C276.118 164.705 275.118 165.352 274.214 165.865C273.098 166.493 271.905 167.045 270.758 167.583C269.283 168.27 267.757 168.981 266.346 169.866C265.32 170.514 264.403 171.238 263.64 172.021C264.852 169.27 266.263 166.872 267.93 164.724C270.123 161.902 272.373 160.473 274.624 160.473C274.675 160.473 274.727 160.473 274.778 160.473C275.477 160.492 276.015 160.665 276.387 160.986C277.15 161.64 277.118 162.903 276.65 163.749Z" fill="#FFC957"/>
<path d="M279.157 179.407C278.266 180.042 277.086 180.202 276.047 180.279C274.771 180.369 273.457 180.363 272.187 180.35C270.559 180.337 268.872 180.324 267.224 180.523C266.019 180.664 264.884 180.933 263.858 181.311C266.128 179.343 268.436 177.778 270.86 176.554C274.053 174.938 276.695 174.611 278.727 175.573C278.772 175.592 278.824 175.618 278.869 175.643C279.491 175.957 279.907 176.349 280.106 176.797C280.516 177.721 279.946 178.849 279.157 179.407Z" fill="#FFC957"/>
<path d="M273.233 187.114C272.495 187.012 271.828 186.537 271.277 186.088C270.597 185.537 269.95 184.915 269.321 184.319C268.513 183.549 267.686 182.754 266.769 182.081C266.102 181.587 265.41 181.19 264.724 180.895C266.776 180.978 268.654 181.28 270.437 181.812C272.777 182.504 274.252 183.581 274.81 185.011C274.823 185.043 274.836 185.075 274.848 185.114C275.009 185.563 275.034 185.947 274.925 186.268C274.694 186.909 273.88 187.204 273.233 187.114Z" fill="#FFC957"/>
<path d="M256.363 189.628C256.363 189.628 256.433 174.81 274.528 162.23" stroke="#2A294F" stroke-width="0.7798" stroke-miterlimit="10" stroke-linecap="round" stroke-linejoin="round"/>
<path d="M256.363 189.628C256.363 189.628 261.922 177.721 276.984 177.721" stroke="#2A294F" stroke-width="0.7798" stroke-miterlimit="10" stroke-linecap="round" stroke-linejoin="round"/>
<path d="M264.564 181.036C264.564 181.036 267.481 180.824 273.572 185.415" stroke="#2A294F" stroke-width="0.7798" stroke-miterlimit="10" stroke-linecap="round" stroke-linejoin="round"/>
<path d="M100.867 189.762C96.6859 173.95 92.4797 158.132 87.5617 142.82C84.7853 134.183 81.7268 125.585 77.4757 118.679C73.2246 111.774 67.5949 106.676 61.9395 106.708C53.2321 108.394 47.6088 116.993 43.9219 126.521C41.5046 132.766 40.3312 140.332 38.6256 146.937C36.2724 156.029 35.0349 165.923 30.5145 173.873C27.347 179.445 22.4803 178.022 19.1974 173.021C17.3892 170.257 16.1068 166.974 14.0807 164.454C12.0545 161.934 8.85491 160.293 6.28372 161.883C3.63558 163.518 2.84691 167.647 2.48784 171.277C1.96206 176.656 1.49399 181.741 0.628372 186.62C0.442425 187.685 0.230831 188.73 0 189.775H100.867V189.762Z" fill="#FF006E"/>
<path d="M63.4656 167.936C60.8495 164.922 57.541 162.319 56.5022 158.517C55.7392 155.74 56.3419 152.797 56.6369 149.931C56.9318 147.065 56.8292 143.897 54.9762 141.692C53.4501 139.871 51.0328 139.082 48.7117 138.582C46.3906 138.082 43.9669 137.768 41.9086 136.588C38.5616 134.671 39.2284 131.407 37.4331 128.547C35.4197 125.335 30.7262 121.238 26.7123 123.373C22.4547 125.63 23.128 132.491 25.9621 135.517C27.8408 137.524 30.2453 139.454 30.521 142.185C30.9378 146.302 26.2186 150.014 27.5138 153.945C28.4756 156.85 32.1304 157.843 33.9385 160.312C35.7275 162.755 35.3684 166.173 34.3104 169.007C33.2589 171.841 31.5982 174.463 30.9442 177.419C29.6041 183.459 34.3425 187.64 39.7478 188.986C44.7106 190.224 55.4186 189.64 55.4186 189.64C59.2401 188.307 63.4784 184.947 65.5751 181.279C67.1653 178.509 67.3833 174.995 66.1522 172.046C65.5239 170.52 64.5556 169.193 63.4656 167.936Z" fill="#FFC957"/>
<path d="M31.4635 129.881C31.4635 129.881 49.744 158.119 51.7317 189.474" stroke="#2A294F" stroke-width="0.7798" stroke-miterlimit="10" stroke-linecap="round" stroke-linejoin="round"/>
<path d="M15.1834 167.968C15.4656 167.724 15.8759 167.596 16.4017 167.583C16.4402 167.583 16.4786 167.583 16.5171 167.583C18.2163 167.583 19.9219 168.667 21.5762 170.802C22.8393 172.424 23.9037 174.239 24.8206 176.316C24.2435 175.727 23.551 175.175 22.7752 174.688C21.7108 174.021 20.5567 173.482 19.441 172.963C18.5689 172.559 17.6713 172.142 16.8249 171.661C16.1388 171.277 15.3822 170.783 14.9847 170.065C14.6256 169.424 14.6064 168.468 15.1834 167.968Z" fill="#FFC957"/>
<path d="M12.3686 179.926C12.5225 179.586 12.8367 179.292 13.3047 179.054C13.3368 179.035 13.3753 179.016 13.4073 179.003C14.9462 178.272 16.9467 178.522 19.3576 179.747C21.1915 180.677 22.9355 181.856 24.6475 183.344C23.8717 183.055 23.0125 182.857 22.102 182.748C20.8516 182.6 19.5756 182.607 18.3445 182.613C17.3828 182.619 16.3953 182.626 15.4271 182.555C14.6448 182.498 13.7472 182.376 13.0803 181.901C12.4904 181.478 12.0608 180.625 12.3686 179.926Z" fill="#FFC957"/>
<path d="M16.2863 187.082C16.203 186.845 16.2222 186.55 16.344 186.21C16.3504 186.184 16.3633 186.159 16.3697 186.133C16.7929 185.049 17.9021 184.235 19.6783 183.709C21.0248 183.312 22.4482 183.081 23.9999 183.017C23.4805 183.241 22.9548 183.543 22.4546 183.915C21.7621 184.427 21.1338 185.03 20.5246 185.607C20.0501 186.063 19.5628 186.531 19.0499 186.947C18.6331 187.287 18.133 187.646 17.5751 187.723C17.075 187.794 16.4595 187.569 16.2863 187.082Z" fill="#FFC957"/>
<path d="M30.3222 189.628C30.3222 189.628 30.2709 178.419 16.5878 168.911" stroke="#2A294F" stroke-width="0.7798" stroke-miterlimit="10" stroke-linecap="round" stroke-linejoin="round"/>
<path d="M30.3221 189.628C30.3221 189.628 26.1223 180.625 14.7282 180.625" stroke="#2A294F" stroke-width="0.7798" stroke-miterlimit="10" stroke-linecap="round" stroke-linejoin="round"/>
<path d="M24.1218 183.132C24.1218 183.132 21.916 182.972 17.3123 186.447" stroke="#2A294F" stroke-width="0.7798" stroke-miterlimit="10" stroke-linecap="round" stroke-linejoin="round"/>
<path d="M177.124 189.627H56.4764C53.1293 189.627 50.4171 186.915 50.4171 183.568V19.9734C50.4171 16.6263 53.1293 13.9141 56.4764 13.9141H177.124C180.471 13.9141 183.183 16.6263 183.183 19.9734V183.574C183.183 186.915 180.471 189.627 177.124 189.627Z" fill="#FFBC00"/>
<path d="M50.4171 56.7202V183.574C50.4171 186.921 53.1293 189.634 56.4764 189.634H177.124C180.471 189.634 183.183 186.921 183.183 183.574V158.536L50.4171 56.7202Z" fill="#E0A000"/>
<path d="M172.994 181.522H60.6121C59.2464 181.522 58.1371 180.413 58.1371 179.047V24.4936C58.1371 23.1278 59.2464 22.0186 60.6121 22.0186H172.994C174.36 22.0186 175.47 23.1278 175.47 24.4936V179.047C175.47 180.413 174.36 181.522 172.994 181.522Z" fill="#F3F4F6"/>
<path d="M126.867 10.5926C126.873 10.4258 126.893 10.2655 126.893 10.0924C126.893 4.52043 122.372 0 116.8 0C111.228 0 106.708 4.52043 106.708 10.0924C106.708 10.2591 106.727 10.4258 106.733 10.5926H91.9025V25.9748H141.698V10.5926H126.867Z" fill="#E0A000"/>
<path d="M91.9023 10.5923V25.9746H141.698L91.9023 10.5923Z" fill="#FFBC00"/>
<path d="M116.8 15.7669C119.93 15.7669 122.468 13.2292 122.468 10.0987C122.468 6.96827 119.93 4.43054 116.8 4.43054C113.669 4.43054 111.132 6.96827 111.132 10.0987C111.132 13.2292 113.669 15.7669 116.8 15.7669Z" fill="#C48700"/>
<path d="M112.799 6.09114C110.587 8.30327 110.587 11.894 112.799 14.1061C115.011 16.3182 118.602 16.3182 120.814 14.1061L112.799 6.09114Z" fill="#FFBC00"/>
<path d="M141.698 25.9745H91.9023V27.0324H141.698V25.9745Z" fill="#CDE1F9"/>
<path d="M90.9024 66.4794H71.378V46.955H90.9024V66.4794ZM72.0128 65.8382H90.2548V47.5962H72.0128V65.8382Z" fill="#263238"/>
<path d="M81.7974 62.6323L75.1482 57.413L76.7319 55.3932L81.6243 59.2404L92.5631 48.6991L94.3456 50.5457L81.7974 62.6323Z" fill="#263238"/>
<path d="M161.184 52.636H99.642C99.2381 52.636 98.9175 52.309 98.9175 51.9114C98.9175 51.5075 99.2445 51.1869 99.642 51.1869H161.184C161.588 51.1869 161.909 51.5139 161.909 51.9114C161.915 52.309 161.588 52.636 161.184 52.636Z" fill="#263238"/>
<path d="M161.184 55.8419H99.642C99.238 55.8419 98.9174 55.5149 98.9174 55.1174C98.9174 54.7134 99.2444 54.3928 99.642 54.3928H161.184C161.588 54.3928 161.908 54.7198 161.908 55.1174C161.915 55.5149 161.588 55.8419 161.184 55.8419Z" fill="#263238"/>
<path d="M161.184 59.0479H99.642C99.238 59.0479 98.9174 58.7209 98.9174 58.3234C98.9174 57.9194 99.2444 57.5988 99.642 57.5988H161.184C161.588 57.5988 161.908 57.9258 161.908 58.3234C161.915 58.7209 161.588 59.0479 161.184 59.0479Z" fill="#263238"/>
<path d="M161.184 62.2539H99.642C99.238 62.2539 98.9174 61.9269 98.9174 61.5293C98.9174 61.1254 99.2444 60.8048 99.642 60.8048H161.184C161.588 60.8048 161.908 61.1318 161.908 61.5293C161.915 61.9269 161.588 62.2539 161.184 62.2539Z" fill="#263238"/>
<path d="M90.9025 96.8849H71.3781V77.3541H90.9025V96.8849ZM72.0128 96.2437H90.2549V77.9953H72.0128V96.2437Z" fill="#263238"/>
<path d="M81.7975 93.038L75.1483 87.8186L76.732 85.7989L81.6243 89.6461L92.5631 79.1048L94.3456 80.9514L81.7975 93.038Z" fill="#263238"/>
<path d="M161.184 83.0417H99.6421C99.2381 83.0417 98.9175 82.7147 98.9175 82.3171C98.9175 81.9132 99.2446 81.5926 99.6421 81.5926H161.184C161.588 81.5926 161.909 81.9196 161.909 82.3171C161.915 82.7147 161.588 83.0417 161.184 83.0417Z" fill="#263238"/>
<path d="M161.184 86.2478H99.642C99.2381 86.2478 98.9175 85.9208 98.9175 85.5233C98.9175 85.1193 99.2445 84.7987 99.642 84.7987H161.184C161.588 84.7987 161.909 85.1257 161.909 85.5233C161.915 85.9208 161.588 86.2478 161.184 86.2478Z" fill="#263238"/>
<path d="M161.184 89.4538H99.642C99.2381 89.4538 98.9175 89.1268 98.9175 88.7292C98.9175 88.3253 99.2445 88.0047 99.642 88.0047H161.184C161.588 88.0047 161.909 88.3317 161.909 88.7292C161.915 89.1268 161.588 89.4538 161.184 89.4538Z" fill="#263238"/>
<path d="M161.184 92.6598H99.642C99.2381 92.6598 98.9175 92.3328 98.9175 91.9352C98.9175 91.5313 99.2445 91.2107 99.642 91.2107H161.184C161.588 91.2107 161.909 91.5377 161.909 91.9352C161.915 92.3328 161.588 92.6598 161.184 92.6598Z" fill="#263238"/>
<path d="M90.9025 127.29H71.3781V107.766H90.9025V127.29ZM72.0128 126.649H90.2549V108.407H72.0128V126.649Z" fill="#263238"/>
<path d="M81.7975 123.443L75.1483 118.217L76.732 116.204L81.6243 120.045L92.5631 109.51L94.3456 111.357L81.7975 123.443Z" fill="#263238"/>
<path d="M161.184 113.447H99.6421C99.2381 113.447 98.9175 113.12 98.9175 112.722C98.9175 112.318 99.2446 111.998 99.6421 111.998H161.184C161.588 111.998 161.909 112.325 161.909 112.722C161.915 113.12 161.588 113.447 161.184 113.447Z" fill="#263238"/>
<path d="M161.184 116.653H99.642C99.2381 116.653 98.9175 116.326 98.9175 115.928C98.9175 115.524 99.2445 115.203 99.642 115.203H161.184C161.588 115.203 161.909 115.53 161.909 115.928C161.915 116.326 161.588 116.653 161.184 116.653Z" fill="#263238"/>
<path d="M161.184 119.859H99.642C99.2381 119.859 98.9175 119.532 98.9175 119.134C98.9175 118.73 99.2445 118.409 99.642 118.409H161.184C161.588 118.409 161.909 118.736 161.909 119.134C161.915 119.532 161.588 119.859 161.184 119.859Z" fill="#263238"/>
<path d="M161.184 123.065H99.642C99.2381 123.065 98.9175 122.738 98.9175 122.34C98.9175 121.936 99.2445 121.615 99.642 121.615H161.184C161.588 121.615 161.909 121.942 161.909 122.34C161.915 122.738 161.588 123.065 161.184 123.065Z" fill="#263238"/>
<path d="M90.9025 157.696H71.3781V138.165H90.9025V157.696ZM72.0128 157.055H90.2549V138.806H72.0128V157.055Z" fill="#263238"/>
<path d="M81.7975 153.849L75.1483 148.623L76.732 146.61L81.6243 150.45L92.5631 139.916L94.3456 141.762L81.7975 153.849Z" fill="#263238"/>
<path d="M161.184 143.852H99.6421C99.2381 143.852 98.9175 143.525 98.9175 143.128C98.9175 142.724 99.2446 142.403 99.6421 142.403H161.184C161.588 142.403 161.909 142.73 161.909 143.128C161.915 143.525 161.588 143.852 161.184 143.852Z" fill="#263238"/>
<path d="M161.184 147.058H99.642C99.2381 147.058 98.9175 146.731 98.9175 146.334C98.9175 145.93 99.2445 145.609 99.642 145.609H161.184C161.588 145.609 161.909 145.936 161.909 146.334C161.915 146.731 161.588 147.058 161.184 147.058Z" fill="#263238"/>
<path d="M161.184 150.264H99.642C99.2381 150.264 98.9175 149.937 98.9175 149.54C98.9175 149.136 99.2445 148.815 99.642 148.815H161.184C161.588 148.815 161.909 149.142 161.909 149.54C161.915 149.937 161.588 150.264 161.184 150.264Z" fill="#263238"/>
<path d="M161.184 153.47H99.642C99.2381 153.47 98.9175 153.143 98.9175 152.746C98.9175 152.342 99.2445 152.021 99.642 152.021H161.184C161.588 152.021 161.909 152.348 161.909 152.746C161.915 153.143 161.588 153.47 161.184 153.47Z" fill="#263238"/>
<path d="M188.576 63.4722C188.185 63.7736 184.626 65.8767 184.626 65.8767L182.1 62.6451L182.85 58.9582L188.287 59.2981L189.236 62.0488C189.467 62.6964 189.063 63.1068 188.576 63.4722Z" fill="#FE9280"/>
<path d="M188.287 59.2918L189.108 61.7027L186.601 62.7094C186.127 62.9146 185.588 62.9531 185.088 62.8184C183.985 62.5235 183.26 61.4527 183.401 60.3177L183.562 58.9905L188.287 59.2918Z" fill="#E86767"/>
<path d="M187.056 62.5169L189.23 62.8311L190.423 60.7921C190.653 60.4266 190.544 59.9393 190.179 59.702C189.813 59.4712 189.326 59.5802 189.089 59.9457L187.056 62.5169Z" fill="#FF746F"/>
<path d="M185.415 71.2374L180.933 72.3723L179.33 85.3501L184.575 85.5617L185.415 71.2374Z" fill="#F3BD3C"/>
<path d="M244.341 81.7722L236.505 80.7847L238.301 66.5438L246.136 67.5312C250.067 68.0249 252.856 71.6156 252.362 75.5526C251.862 79.4831 248.271 82.2723 244.341 81.7722Z" fill="#FE9280"/>
<path opacity="0.2" d="M244.745 78.5276L236.909 77.5401L236.499 80.7846L244.334 81.772C248.265 82.2657 251.856 79.4829 252.356 75.546C252.426 74.9882 252.426 74.4367 252.375 73.8981C251.24 76.963 248.124 78.9572 244.745 78.5276Z" fill="#777470"/>
<path d="M235.55 80.6692L152.432 69.9484L154.221 55.7011L237.345 66.4219L235.55 80.6692Z" fill="#FFC957"/>
<path d="M137.621 60.8507L152.432 69.9493L154.221 55.7019L137.621 60.8507Z" fill="#FFF4DD"/>
<path opacity="0.2" d="M137.62 60.8497L152.432 69.9483L152.868 66.4602L137.62 60.8497Z" fill="#777470"/>
<path d="M142.564 59.3175L137.62 60.85L142.032 63.5558L142.564 59.3175Z" fill="#2A294F"/>
<path d="M244.233 67.2902L237.355 66.4245L235.562 80.6689L242.439 81.5346L244.233 67.2902Z" fill="#D3EAF5"/>
<path d="M244.313 66.6857L241.959 66.3894L240.012 81.8553L242.366 82.1516L244.313 66.6857Z" fill="#D3EAF5"/>
<path opacity="0.2" d="M240.077 81.2398L152.432 69.9483L152.868 66.4602L240.519 77.7516L240.077 81.2398Z" fill="#777470"/>
<path opacity="0.05" d="M241.43 70.4806L153.785 59.1828L154.221 55.7011L241.872 66.9925L241.43 70.4806Z" fill="#777470"/>
<path opacity="0.15" d="M242.957 77.4217L240.603 77.1254L240.008 81.8523L242.362 82.1486L242.957 77.4217Z" fill="#777470"/>
<path d="M208.28 109.51L209.46 106.477L213.416 106.17C214.147 106.093 214.788 106.535 214.858 107.157C214.923 107.779 214.39 108.35 213.659 108.427L208.28 109.51Z" fill="#E86767"/>
<path d="M206.241 106.49L208.28 109.51L212.159 108.728L207.837 102.258L206.997 102.81C205.773 103.618 205.433 105.266 206.241 106.49Z" fill="#FF746F"/>
<path d="M210.062 57.8427C206.029 51.9693 195.879 53.5338 196.142 62.9466C196.142 62.9722 196.142 63.0043 196.148 63.0299C196.123 64.2226 196.161 65.4408 195.853 66.5629C195.693 67.1336 195.424 67.6594 195.007 68.0377C194.597 68.4224 194.065 68.6468 193.507 68.7686C192.942 68.8969 192.327 68.9225 191.699 69.0508C191.064 69.179 190.448 69.4098 189.89 69.7432C188.768 70.3973 187.851 71.4681 187.435 72.7312C186.633 75.2447 187.274 78.1557 189.166 80.0473C189.64 80.5089 190.192 80.9065 190.801 81.1886C191.404 81.4835 192.09 81.5926 192.647 81.708C193.821 81.9644 195.007 82.3043 196.213 82.5415L196.245 82.4389C195.129 81.926 194.032 81.3874 192.853 80.977C192.237 80.759 191.711 80.6372 191.23 80.3422C190.756 80.0601 190.314 79.7139 189.942 79.2971C189.198 78.4699 188.653 77.4504 188.345 76.3604C188.037 75.2704 187.973 74.097 188.281 73.0134C188.582 71.9361 189.307 71 190.269 70.378C190.743 70.0639 191.282 69.8394 191.84 69.6984C192.404 69.5573 193.019 69.4996 193.641 69.3329C194.263 69.1726 194.879 68.8584 195.334 68.3711C195.796 67.8902 196.059 67.2682 196.187 66.6527C196.277 66.2167 196.322 65.7743 196.334 65.3382C196.443 67.0951 196.289 68.8776 194.488 69.5509C193.449 69.942 192.436 69.942 191.468 70.5832C190.519 71.218 189.769 72.1541 189.403 73.2314C188.275 76.5592 191.218 80.868 194.687 81.2399C196.123 81.3938 197.559 81.74 198.976 81.9965C199.374 82.067 204.952 83.2084 204.997 83.0801L211.454 63.9661L210.062 57.8427Z" fill="#263238"/>
<path d="M209.755 105.125L222.848 95.9875L221.02 90.9285L207.837 102.258L209.755 105.125Z" fill="#F3BD3C"/>
<path d="M219.347 94.7369C219.969 96.045 221.533 96.6092 222.841 95.9873C224.149 95.3653 224.714 93.8008 224.092 92.4927C223.47 91.1847 221.905 90.6204 220.597 91.2424C219.289 91.8579 218.731 93.4225 219.347 94.7369Z" fill="#F3BD3C"/>
<path d="M220.001 95.6797L223.733 91.9864L212.954 79.8614C211.73 78.2071 209.325 78.0276 207.863 79.4703C206.401 80.9194 206.561 84.9333 208.197 86.1772L220.001 95.6797Z" fill="#F3BD3C"/>
<path d="M201.768 78.9244L206.183 79.2983L206.966 70.0536L202.551 69.6797L201.768 78.9244Z" fill="#FFBF9D"/>
<path d="M181.67 83.3878C180.221 83.484 179.131 84.7343 179.227 86.1834C179.323 87.6325 180.574 88.7225 182.023 88.6264C183.472 88.5302 184.562 87.2799 184.466 85.8307C184.37 84.3816 183.119 83.2916 181.67 83.3878Z" fill="#F3BD3C"/>
<path d="M180.016 83.7726L182.677 88.4982L198.931 83.7726C200.925 83.2661 202.003 79.4959 201.22 77.5979C200.438 75.7 198.149 74.9305 196.379 75.9821L180.016 83.7726Z" fill="#F3BD3C"/>
<path d="M204.894 102.002L213.121 81.8169C213.538 80.1626 212.422 78.5211 210.736 78.2903L198.925 75.6101C197.238 75.3793 195.725 76.6681 195.687 78.3736L191.647 100.386L204.894 102.002Z" fill="#F3BD3C"/>
<path d="M203.567 58.92C202.201 60.6448 199.752 61.3694 199.175 62.9531L199.053 63.6841C199.053 63.7162 199.053 63.7482 199.053 63.7867L199.04 63.761L198.668 65.9732C198.194 68.7752 200.085 71.4297 202.887 71.9042C205.689 72.3787 208.344 70.4872 208.818 67.6852L209.242 65.1909C208.94 62.6646 204.304 62.4658 203.567 58.92Z" fill="#FFBF9D"/>
<path d="M208.274 66.5116C208.165 67.1592 208.601 67.7812 209.255 67.8902C209.902 67.9992 210.524 67.5632 210.633 66.9091C210.742 66.2615 210.306 65.6396 209.652 65.5306C208.998 65.4216 208.389 65.8576 208.274 66.5116Z" fill="#FF746F"/>
<path d="M197.456 101.098L203.381 115.711L197.719 183.979H193.378L188.262 115.287L191.641 100.386L197.456 101.098Z" fill="#263238"/>
<path d="M197.457 101.098V115.711L224.098 183.979H227.368L213.115 113.133L204.894 102.002L197.457 101.098Z" fill="#263238"/>
<path d="M195.815 187.544H193.994V183.979H196.347L195.815 187.544Z" fill="#FF746F"/>
<path d="M193.936 186.736L194.994 187.204L195.982 186.736L196.873 189.628H188.653L191.743 188.185L193.936 186.736Z" fill="#2A294F"/>
<path d="M226.253 187.544H228.067L226.99 183.979H224.637L226.253 187.544Z" fill="#FF746F"/>
<path d="M228.131 186.736L227.067 187.204L226.079 186.736L225.195 189.628H233.408L230.324 188.185L228.131 186.736Z" fill="#2A294F"/>
<path d="M195.918 90.3448C197.975 90.3448 199.643 88.6769 199.643 86.6195C199.643 84.562 197.975 82.8941 195.918 82.8941C193.86 82.8941 192.192 84.562 192.192 86.6195C192.192 88.6769 193.86 90.3448 195.918 90.3448Z" fill="#F3BD3C"/>
<path d="M199.265 75.7129L200.823 79.6306L206.651 76.6683L199.265 75.7129Z" fill="#FFBF9D"/>
<path d="M214.326 59.5417C213.736 58.7851 213.012 58.176 212.21 57.7592C210.909 57.0731 209.44 57.1501 208.248 56.1242L209.178 65.5177C210.89 65.0304 210.787 68.7173 208.812 67.6978C208.812 67.6978 204.894 69.3777 203.407 73.0453C202.387 75.5075 202.214 78.3865 202.483 80.028C202.964 82.971 205.459 84.4971 208.299 83.6315C209.992 83.1121 211.37 81.8361 212.351 80.355C215.782 75.1741 218.064 66.659 215.134 60.8113C214.897 60.3497 214.628 59.9265 214.326 59.5417Z" fill="#263238"/>
<path d="M182.805 58.4135L182.709 59.0098C182.51 60.2537 183.357 61.4271 184.601 61.6323L185.575 61.7861C186.819 61.9849 187.992 61.1385 188.198 59.8946L188.294 59.2983L182.805 58.4135Z" fill="#FF746F"/>
<path d="M203.721 66.4475C203.413 66.2552 201.387 65.8769 201.143 66.0115C200.88 66.159 200.771 66.5053 200.842 66.8002C200.913 67.0952 201.131 67.3324 201.374 67.5055C201.938 67.8902 202.708 67.9544 203.33 67.6658C203.567 67.5568 203.785 67.3901 203.888 67.1464C203.997 66.9028 203.939 66.5822 203.721 66.4475Z" fill="white"/>
</svg>
