<svg width="334" height="264" viewBox="0 0 334 264" fill="none" xmlns="http://www.w3.org/2000/svg">
<ellipse cx="122.5" cy="227.5" rx="116.5" ry="19.5" fill="#B70058"/>
<path d="M133.956 36.41C114.555 27.7329 87.5933 37.6372 70.8966 49.9861C63.7958 55.2368 57.2227 62.1012 55.4725 70.7168C53.7223 79.3325 58.5904 89.6631 67.2878 91.3083C71.5429 92.1143 75.8716 90.8207 80.1468 90.081C98.1293 86.9647 115.436 99.1445 133.301 94.6218C150.871 90.1755 158.316 66.3551 149.853 51.293C145.758 44.0041 140.255 39.226 133.956 36.41Z" fill="#FF006E"/>
<path d="M305.872 192.506C304.5 198.239 301.794 203.574 297.973 208.083C297.305 208.868 296.614 209.613 295.902 210.329H62.5246C59.9478 210.329 50.4255 190.635 48.9976 187.539C44.8627 178.599 41.4392 169.271 39.9445 159.511C38.0558 147.192 39.4135 134.08 45.6509 123.267C51.8884 112.453 63.4598 104.335 75.9965 103.985C94.7489 103.466 111.89 119.409 130.313 115.926C141.723 113.77 150.438 104.556 156.676 94.8274C162.913 85.0989 167.611 74.2857 175.367 65.7016C189.141 50.4554 212.32 44.3738 231.881 50.875C251.442 57.3761 266.265 76.0835 268.023 96.4975C268.658 103.876 267.729 111.306 268.063 118.706C268.83 135.698 279.266 139.486 289.264 151.026C297.049 160.011 305.945 169.435 306.725 183.122C306.895 186.274 306.608 189.435 305.872 192.506Z" fill="#DB0069"/>
<path d="M237.734 134.998C237.914 138.895 239.489 142.6 242.175 145.446C244.862 148.291 248.484 150.09 252.389 150.518C254.912 150.795 257.733 150.376 259.444 148.528C260.78 147.087 261.236 145.027 261.295 143.055C261.322 142.207 261.279 141.358 261.166 140.516C260.358 134.192 255.904 128.366 249.874 126.103C247.215 125.107 244.084 124.801 241.637 126.234C239.434 127.521 238.24 129.953 237.86 132.512C237.735 133.335 237.694 134.168 237.734 134.998V134.998Z" fill="#DB9C00"/>
<path d="M237.734 134.999C237.914 138.896 239.489 142.601 242.175 145.446C244.862 148.292 248.484 150.091 252.389 150.519C254.912 150.796 257.733 150.376 259.444 148.528C260.78 147.087 261.236 145.027 261.295 143.056C261.322 142.207 261.279 141.358 261.166 140.516C256.732 143.523 250.662 144.019 245.814 141.704C242.041 139.901 239.144 136.458 237.86 132.513C237.735 133.335 237.694 134.168 237.734 134.999V134.999Z" fill="#FF6D00"/>
<path d="M261.744 162.265C261.744 162.265 261.831 161.579 261.981 160.375C262.013 160.073 262.072 159.741 262.09 159.38C262.108 159.018 262.113 158.618 262.127 158.195C262.14 157.772 262.153 157.32 262.168 156.845C262.155 156.371 262.112 155.872 262.083 155.353C262.055 154.834 262.04 154.288 261.958 153.732C261.876 153.177 261.791 152.6 261.697 152.009C261.647 151.714 261.621 151.411 261.549 151.112C261.477 150.814 261.405 150.512 261.332 150.207C261.178 149.598 261.05 148.966 260.854 148.344C260.659 147.722 260.428 147.097 260.211 146.46L260.044 145.981C259.984 145.815 259.911 145.671 259.842 145.513L259.428 144.576L259.017 143.622C258.871 143.308 258.71 143.001 258.533 142.702C258.199 142.093 257.865 141.483 257.511 140.878C256.76 139.706 255.923 138.591 255.006 137.543C253.277 135.589 251.307 133.859 249.144 132.393C248.159 131.708 247.187 131.119 246.282 130.592C245.822 130.342 245.388 130.094 244.964 129.871L243.753 129.262C242.985 128.895 242.312 128.585 241.749 128.348C241.187 128.111 240.747 127.935 240.44 127.811L239.974 127.625L240.432 127.829C240.729 127.965 241.17 128.161 241.719 128.418C242.269 128.675 242.935 129.002 243.688 129.39C244.441 129.778 245.273 130.25 246.171 130.779C247.07 131.308 248.008 131.924 248.98 132.624C249.952 133.323 250.926 134.116 251.915 134.945C252.911 135.831 253.851 136.776 254.732 137.775C255.628 138.819 256.445 139.928 257.177 141.092C257.522 141.677 257.855 142.291 258.192 142.886C258.371 143.178 258.535 143.479 258.683 143.788L259.102 144.72C259.243 145.03 259.381 145.338 259.518 145.646C259.587 145.8 259.66 145.951 259.722 146.107L259.889 146.58C260.108 147.206 260.325 147.828 260.537 148.439C260.749 149.049 260.861 149.679 261.028 150.278C261.106 150.58 261.185 150.877 261.262 151.172C261.338 151.467 261.37 151.766 261.429 152.057C261.529 152.641 261.626 153.209 261.719 153.761C261.811 154.311 261.821 154.852 261.874 155.368C261.928 155.883 261.963 156.379 261.99 156.85C261.99 157.321 261.99 157.769 261.99 158.189V159.37C261.99 159.734 261.935 160.068 261.913 160.365C261.804 161.575 261.744 162.265 261.744 162.265Z" fill="#B24800"/>
<path d="M246.432 148.598C246.461 148.597 246.49 148.591 246.517 148.58C248.623 147.575 250.8 146.536 252.602 144.966C254.616 143.209 255.81 140.962 255.879 138.803L255.894 138.32L255.548 138.652C253.611 140.524 251.307 141.98 248.778 142.93C246.25 143.879 243.552 144.301 240.852 144.17C240.826 144.167 240.801 144.17 240.776 144.178C240.751 144.187 240.729 144.2 240.71 144.217C240.69 144.234 240.675 144.255 240.664 144.278C240.653 144.301 240.647 144.326 240.647 144.352C240.645 144.377 240.649 144.403 240.658 144.427C240.666 144.45 240.679 144.472 240.696 144.491C240.713 144.51 240.734 144.525 240.757 144.536C240.78 144.547 240.805 144.553 240.83 144.554C243.498 144.684 246.165 144.284 248.675 143.378C251.185 142.471 253.488 141.078 255.45 139.277C255.233 141.178 254.114 143.117 252.34 144.669C250.567 146.221 248.426 147.231 246.343 148.225C246.303 148.243 246.271 148.275 246.251 148.314C246.232 148.354 246.227 148.398 246.236 148.441C246.246 148.484 246.27 148.522 246.305 148.549C246.34 148.577 246.382 148.591 246.427 148.591L246.432 148.598Z" fill="#B24800"/>
<path d="M251.502 133.911C251.543 133.911 251.582 133.898 251.615 133.875C251.648 133.851 251.673 133.818 251.686 133.78C252.688 130.922 251.559 127.454 249.069 125.713C249.048 125.698 249.024 125.688 248.999 125.682C248.975 125.677 248.949 125.676 248.924 125.681C248.899 125.685 248.875 125.694 248.853 125.708C248.832 125.721 248.813 125.739 248.798 125.759C248.783 125.78 248.773 125.803 248.767 125.828C248.762 125.853 248.761 125.878 248.766 125.903C248.77 125.928 248.779 125.952 248.793 125.974C248.806 125.995 248.824 126.013 248.845 126.028C251.198 127.675 252.262 130.954 251.318 133.657C251.302 133.705 251.305 133.758 251.328 133.804C251.35 133.85 251.39 133.885 251.438 133.902C251.459 133.909 251.48 133.912 251.502 133.911V133.911Z" fill="#B24800"/>
<path d="M264.116 133.685C264.927 135.158 266.163 136.421 267.703 137.116C269.558 137.955 271.711 137.916 273.715 137.562C280.954 136.29 287.213 130.801 289.65 123.951C290.03 122.891 290.314 121.798 290.498 120.688C290.771 119.029 290.832 117.313 290.458 115.674C289.456 111.345 285.295 108.11 280.852 107.617C276.41 107.125 271.9 109.11 268.795 112.306C265.761 115.43 263.972 119.603 263.174 123.862L263.119 124.157C262.548 127.369 262.538 130.831 264.116 133.685Z" fill="#FFBC00"/>
<path d="M264.116 133.685C264.927 135.158 266.163 136.421 267.703 137.116C269.558 137.955 271.711 137.916 273.715 137.562C280.954 136.29 287.213 130.801 289.65 123.951C286.223 126.273 282.673 128.459 278.685 129.514C274.086 130.73 268.718 130.156 265.301 126.86C264.413 125.997 263.692 124.979 263.174 123.857L263.119 124.152C262.548 127.37 262.538 130.831 264.116 133.685Z" fill="#FF6D00"/>
<path d="M265.341 158.557C265.341 158.557 265.341 157.698 265.355 156.197C265.355 155.822 265.355 155.406 265.365 154.955C265.375 154.504 265.418 154.016 265.448 153.494C265.478 152.971 265.508 152.419 265.542 151.835C265.575 151.251 265.665 150.639 265.729 150.001C265.792 149.362 265.857 148.696 265.954 148.011C266.051 147.326 266.18 146.621 266.288 145.895C266.348 145.531 266.41 145.163 266.47 144.792C266.53 144.42 266.637 144.049 266.716 143.672C266.883 142.919 267.036 142.143 267.217 141.364C267.646 139.816 268.03 138.203 268.596 136.612C269.086 134.998 269.754 133.42 270.37 131.824C271.079 130.267 271.736 128.673 272.541 127.202C273.281 125.685 274.164 124.278 274.974 122.89C275.401 122.21 275.857 121.563 276.278 120.913L276.909 119.956C277.128 119.648 277.357 119.351 277.577 119.054C278.023 118.464 278.45 117.889 278.86 117.331C279.284 116.782 279.73 116.279 280.139 115.782C280.548 115.284 280.941 114.808 281.332 114.371L282.467 113.148L283.469 112.074C283.787 111.742 284.095 111.468 284.364 111.205L286.068 109.561L284.311 111.152C284.035 111.407 283.718 111.681 283.394 111.997L282.365 113.049L281.196 114.246C280.794 114.676 280.401 115.157 279.976 115.643C279.55 116.129 279.102 116.638 278.668 117.177L277.354 118.888C277.128 119.183 276.894 119.477 276.671 119.784L276.021 120.736C275.583 121.379 275.131 122.033 274.695 122.713C273.873 124.104 272.977 125.515 272.225 127.036C271.402 128.529 270.732 130.111 270.011 131.68C269.399 133.29 268.736 134.881 268.252 136.508C267.691 138.108 267.312 139.733 266.889 141.291C266.711 142.077 266.555 142.855 266.402 143.613C266.325 143.993 266.249 144.369 266.175 144.74C266.118 145.115 266.062 145.485 266.008 145.851C265.901 146.581 265.796 147.293 265.695 147.981C265.595 148.669 265.565 149.341 265.502 149.981C265.438 150.621 265.375 151.238 265.345 151.824C265.315 152.409 265.31 152.968 265.293 153.492C265.276 154.016 265.261 154.504 265.246 154.956C265.231 155.409 265.263 155.824 265.268 156.2C265.32 157.7 265.341 158.557 265.341 158.557Z" fill="#B24800"/>
<path d="M277.479 119.386C277.53 119.386 277.58 119.365 277.616 119.329C277.652 119.293 277.672 119.244 277.672 119.192C277.672 119.141 277.652 119.092 277.616 119.056C274.877 116.354 273.501 113.065 273.526 109.271C273.526 109.245 273.522 109.22 273.512 109.197C273.502 109.173 273.488 109.152 273.47 109.134C273.452 109.116 273.431 109.101 273.407 109.091C273.383 109.082 273.358 109.077 273.332 109.077C273.307 109.075 273.281 109.078 273.256 109.087C273.232 109.096 273.21 109.11 273.191 109.128C273.173 109.146 273.158 109.168 273.149 109.192C273.14 109.216 273.136 109.242 273.137 109.267C273.112 113.161 274.526 116.545 277.34 119.321C277.358 119.341 277.379 119.356 277.403 119.368C277.427 119.379 277.453 119.385 277.479 119.386Z" fill="#B24800"/>
<path d="M280.281 126.522C283.737 126.525 287.088 125.344 289.768 123.179C289.809 123.147 289.835 123.1 289.84 123.05C289.846 122.999 289.831 122.948 289.799 122.908C289.767 122.868 289.72 122.842 289.669 122.836C289.618 122.83 289.567 122.845 289.526 122.877C285.151 126.36 279.506 127.088 274.049 124.882C274.001 124.864 273.949 124.866 273.903 124.886C273.856 124.906 273.82 124.943 273.801 124.99C273.782 125.036 273.782 125.089 273.801 125.135C273.82 125.182 273.857 125.219 273.903 125.239C275.926 126.073 278.092 126.509 280.281 126.522V126.522Z" fill="#B24800"/>
<path d="M285.722 146.185C287.35 149.104 291.111 150.25 294.461 149.978C298.65 149.646 302.626 147.247 304.949 143.827C306.053 142.235 306.751 140.401 306.981 138.482C307.287 135.77 306.505 132.758 304.299 131.131C302.778 130.007 300.792 129.68 298.898 129.752C293.464 129.954 288.279 133.367 285.974 138.258C285.887 138.445 285.807 138.633 285.722 138.827C284.747 141.19 284.483 143.955 285.722 146.185Z" fill="#FFBC00"/>
<path d="M285.722 146.185C287.35 149.104 291.111 150.25 294.461 149.978C298.649 149.646 302.626 147.246 304.949 143.826C302.739 144.822 300.481 145.712 298.102 146.122C294.864 146.676 291.306 146.249 288.713 144.243C287.872 143.584 287.174 142.764 286.66 141.831C286.146 140.898 285.827 139.871 285.722 138.813C284.747 141.19 284.483 143.954 285.722 146.185Z" fill="#FF6D00"/>
<path d="M275.717 161.667L276.552 160.058C276.682 159.803 276.829 159.519 276.988 159.211L277.537 158.234C277.733 157.883 277.941 157.512 278.162 157.121C278.385 156.733 278.638 156.333 278.891 155.91C279.145 155.487 279.409 155.048 279.695 154.6C279.98 154.152 280.293 153.701 280.607 153.232L281.081 152.517L281.599 151.807L282.661 150.338C283.426 149.373 284.184 148.348 285.042 147.382C285.864 146.387 286.779 145.439 287.671 144.473C288.604 143.55 289.508 142.599 290.483 141.744C291.421 140.851 292.418 140.055 293.359 139.256L294.797 138.146L295.493 137.606L296.193 137.108L297.539 136.156C297.98 135.856 298.417 135.586 298.831 135.317C299.245 135.048 299.641 134.788 300.027 134.554L301.129 133.902L302.098 133.33C302.4 133.164 302.686 133.014 302.933 132.876L304.531 132.015C304.531 132.015 303.938 132.305 302.898 132.81C302.639 132.939 302.348 133.075 302.039 133.236L301.051 133.778L299.923 134.395C299.529 134.616 299.132 134.876 298.708 135.133C298.284 135.39 297.841 135.659 297.393 135.949L296.022 136.879L295.308 137.365L294.598 137.893C294.12 138.249 293.631 138.616 293.142 138.996C292.19 139.79 291.183 140.584 290.232 141.483C289.249 142.337 288.327 143.288 287.383 144.213C286.492 145.19 285.578 146.145 284.758 147.155C283.901 148.135 283.145 149.167 282.383 150.14L281.331 151.633L280.83 152.358L280.366 153.084L279.479 154.477C279.202 154.932 278.95 155.381 278.701 155.804C278.452 156.227 278.2 156.633 277.996 157.035C277.793 157.436 277.591 157.814 277.407 158.171L276.887 159.166C276.741 159.479 276.604 159.768 276.48 160.028L275.717 161.667Z" fill="#B24800"/>
<path d="M300.961 147.737C301.004 147.737 301.045 147.722 301.079 147.696C301.113 147.67 301.137 147.634 301.148 147.593C301.159 147.552 301.156 147.508 301.14 147.469C301.123 147.43 301.095 147.397 301.058 147.376C298.165 145.72 295.672 143.456 293.755 140.742C296.822 143.118 300.665 144.286 304.546 144.021C304.572 144.019 304.597 144.012 304.619 144C304.642 143.989 304.663 143.973 304.679 143.954C304.696 143.935 304.708 143.912 304.716 143.888C304.724 143.864 304.727 143.839 304.725 143.813C304.724 143.788 304.717 143.763 304.706 143.74C304.694 143.717 304.678 143.697 304.659 143.68C304.639 143.664 304.617 143.651 304.592 143.644C304.568 143.636 304.542 143.633 304.516 143.636C302.411 143.782 300.299 143.494 298.311 142.792C296.323 142.089 294.502 140.986 292.963 139.553C292.929 139.522 292.884 139.504 292.838 139.503C292.791 139.501 292.746 139.516 292.71 139.545C292.673 139.574 292.649 139.615 292.64 139.661C292.631 139.706 292.64 139.753 292.663 139.793C294.69 143.068 297.509 145.788 300.864 147.706C300.893 147.725 300.926 147.736 300.961 147.737V147.737Z" fill="#B24800"/>
<path d="M267.103 176.669C267.231 177.119 267.444 177.542 267.73 177.914C267.923 178.165 268.141 178.395 268.383 178.601C269.595 179.644 271.389 180.195 273.032 180.507C273.923 180.676 274.818 180.824 275.717 180.953C280.361 181.599 285.067 181.674 289.729 181.175C292.558 180.878 295.467 180.346 297.811 178.735C298.325 178.389 298.804 177.995 299.243 177.559C304.718 172.143 298.226 164.303 291.953 162.496C287.839 161.326 283.46 161.462 279.428 162.885C278.875 163.078 278.327 163.302 277.791 163.549C276.343 164.214 274.98 165.049 273.732 166.036C272.686 166.854 271.723 167.771 270.858 168.775C269.238 170.639 266.365 174.048 267.103 176.669Z" fill="#FFBC00"/>
<path d="M268.382 178.601C269.595 179.644 271.388 180.195 273.032 180.507C273.922 180.676 274.817 180.825 275.717 180.953C280.36 181.6 285.066 181.674 289.728 181.175C292.557 180.878 295.466 180.346 297.811 178.735C298.325 178.389 298.804 177.996 299.242 177.56C295.174 178.117 291.033 178.452 287.105 177.352C282.497 176.059 278.254 172.211 278.105 167.463C276.968 172.173 270.672 173.793 268.573 178.163C268.504 178.306 268.442 178.45 268.382 178.601Z" fill="#DB9C00"/>
<path d="M254.959 204.518H255.346C255.143 193.738 260.822 182.86 269.817 176.821C278.812 170.783 291.081 169.564 301.101 173.76L301.251 173.403C291.128 169.159 278.706 170.37 269.607 176.486C260.507 182.603 254.752 193.607 254.959 204.518Z" fill="#B24800"/>
<path d="M267.729 177.915C268.867 179.407 271.07 180.132 273.032 180.507C273.922 180.676 274.818 180.825 275.717 180.953C277.319 178.721 278.524 175.939 278.935 174.536C279.673 171.956 279.98 169.272 279.842 166.592C279.785 165.349 279.645 164.111 279.423 162.886C278.87 163.078 278.322 163.302 277.786 163.549C276.338 164.215 274.975 165.05 273.726 166.037C271.917 168.899 270.294 171.873 268.867 174.941C268.396 175.895 268.015 176.891 267.729 177.915V177.915Z" fill="#B77E00"/>
<path d="M285.278 171.8C285.324 171.8 285.369 171.783 285.405 171.752C285.44 171.722 285.463 171.68 285.47 171.634C285.817 169.658 286.556 167.77 287.643 166.079C288.73 164.389 290.144 162.929 291.802 161.785C291.823 161.77 291.841 161.752 291.855 161.731C291.869 161.709 291.878 161.686 291.883 161.661C291.887 161.636 291.887 161.61 291.882 161.586C291.876 161.561 291.866 161.537 291.852 161.517C291.837 161.496 291.819 161.478 291.797 161.464C291.776 161.451 291.752 161.441 291.727 161.437C291.702 161.432 291.676 161.433 291.651 161.438C291.626 161.443 291.603 161.453 291.582 161.468C289.88 162.641 288.43 164.138 287.315 165.872C286.2 167.605 285.442 169.541 285.086 171.568C285.081 171.593 285.082 171.62 285.088 171.645C285.095 171.67 285.106 171.694 285.121 171.715C285.137 171.736 285.157 171.753 285.179 171.766C285.202 171.78 285.227 171.788 285.253 171.792L285.278 171.8Z" fill="#B24800"/>
<path d="M293.73 180.744C293.775 180.744 293.818 180.729 293.853 180.7C293.893 180.668 293.917 180.62 293.922 180.57C293.927 180.519 293.911 180.468 293.878 180.428C292.855 179.191 292.115 177.748 291.707 176.199C291.3 174.649 291.236 173.031 291.519 171.455C291.523 171.43 291.523 171.404 291.518 171.379C291.513 171.354 291.503 171.331 291.488 171.31C291.474 171.289 291.455 171.271 291.434 171.257C291.412 171.243 291.388 171.234 291.363 171.229C291.313 171.22 291.261 171.231 291.218 171.26C291.176 171.289 291.146 171.333 291.136 171.383C290.844 173.015 290.911 174.69 291.333 176.293C291.754 177.896 292.521 179.39 293.579 180.671C293.597 180.693 293.62 180.712 293.646 180.724C293.672 180.737 293.701 180.743 293.73 180.744Z" fill="#B24800"/>
<path d="M238.82 176.974C236.911 177.818 235.792 179.979 235.862 182.054C235.933 184.128 237.045 186.072 238.561 187.502C240.078 188.931 241.975 189.898 243.905 190.688C245.836 191.477 248.189 192.043 249.832 190.789C250.702 190.125 251.18 189.056 251.373 187.983C251.763 185.838 251.131 183.579 249.894 181.778C248.656 179.977 246.856 178.607 244.884 177.632C243.008 176.703 240.744 176.128 238.82 176.974Z" fill="#CB91F9"/>
<path d="M254.142 204.912C254.168 204.913 254.193 204.908 254.216 204.898C254.24 204.889 254.261 204.875 254.279 204.857C254.297 204.839 254.312 204.818 254.321 204.795C254.331 204.772 254.336 204.747 254.336 204.722C254.431 194.605 249.192 182.095 237.469 178.53C237.421 178.52 237.371 178.528 237.329 178.552C237.287 178.577 237.256 178.616 237.241 178.663C237.227 178.709 237.231 178.759 237.252 178.803C237.273 178.847 237.31 178.881 237.355 178.899C248.89 182.405 254.042 194.741 253.95 204.717C253.95 204.742 253.955 204.767 253.964 204.791C253.973 204.815 253.987 204.836 254.005 204.854C254.023 204.873 254.044 204.887 254.068 204.897C254.091 204.907 254.117 204.912 254.142 204.912V204.912Z" fill="#7600FF"/>
<path d="M252.325 178.8C253.479 180.908 255.214 182.793 257.469 183.656C259.864 184.571 262.613 184.235 264.961 183.206C267.309 182.178 269.316 180.513 271.166 178.747C274.49 175.568 277.512 171.819 278.549 167.357C278.603 167.124 278.651 166.892 278.69 166.658C279.433 162.356 277.96 157.494 274.229 155.232C271.684 153.686 268.489 153.535 265.558 154.081C260.181 155.086 255.228 158.427 252.571 163.176C251.598 164.931 250.953 166.847 250.667 168.831C250.146 172.229 250.667 175.78 252.325 178.8Z" fill="#FFBC00"/>
<path d="M252.325 178.8C253.479 180.908 255.214 182.794 257.469 183.656C259.863 184.572 262.612 184.235 264.96 183.207C267.308 182.179 269.316 180.513 271.166 178.747C274.489 175.568 277.512 171.82 278.549 167.357C278.603 167.125 278.651 166.893 278.689 166.659C276.303 169.057 273.704 171.239 270.717 172.815C266.767 174.9 262.044 175.837 257.763 174.555C254.768 173.659 252.085 171.536 250.658 168.825C250.146 172.229 250.667 175.78 252.325 178.8Z" fill="#FF6D00"/>
<path d="M254.426 204.743L254.813 204.72C253.943 189.762 258.19 174.952 266.866 162.695C268.571 160.291 270.939 157.265 274.135 155.168L273.922 154.847C270.67 156.978 268.274 160.041 266.549 162.476C257.823 174.804 253.551 189.699 254.426 204.743V204.743Z" fill="#B24800"/>
<path d="M259.112 177.634C259.152 177.634 259.192 177.622 259.224 177.598C259.245 177.583 259.263 177.565 259.276 177.543C259.29 177.522 259.299 177.498 259.304 177.473C259.308 177.448 259.307 177.423 259.302 177.398C259.296 177.373 259.285 177.35 259.271 177.329C255.848 172.49 254.223 166.62 254.675 160.723C254.679 160.672 254.663 160.622 254.63 160.583C254.596 160.544 254.549 160.52 254.498 160.516C254.447 160.512 254.396 160.529 254.357 160.561C254.318 160.594 254.293 160.641 254.287 160.691C253.832 166.68 255.485 172.64 258.963 177.553C258.98 177.577 259.003 177.596 259.028 177.61C259.054 177.625 259.083 177.633 259.112 177.634V177.634Z" fill="#B24800"/>
<path d="M275.024 174.48C275.07 174.481 275.114 174.465 275.15 174.437C275.186 174.408 275.21 174.367 275.218 174.323C275.227 174.278 275.219 174.231 275.196 174.192C275.173 174.152 275.137 174.122 275.094 174.106C271.065 172.515 266.728 171.842 262.402 172.135C267.113 169.445 272.651 168.555 277.976 169.63C278.001 169.636 278.027 169.636 278.052 169.632C278.078 169.627 278.102 169.618 278.123 169.604C278.145 169.59 278.163 169.572 278.178 169.551C278.192 169.53 278.202 169.506 278.207 169.481C278.217 169.431 278.207 169.378 278.178 169.335C278.15 169.292 278.105 169.263 278.055 169.252C272.353 168.101 266.423 169.17 261.492 172.237L260.804 172.669L261.614 172.592C266.148 172.156 270.721 172.801 274.954 174.473C274.976 174.479 275 174.481 275.024 174.48V174.48Z" fill="#B24800"/>
<path d="M179.452 222.865C244.399 222.865 297.05 217.204 297.05 210.221C297.05 203.238 244.399 197.577 179.452 197.577C114.504 197.577 61.8535 203.238 61.8535 210.221C61.8535 217.204 114.504 222.865 179.452 222.865Z" fill="#B70058"/>
<path d="M29.2816 134.335C28.5434 131.781 29.5371 128.822 31.673 127.222C33.8089 125.622 36.9452 125.479 39.2164 126.882C37.082 127.248 35.0666 128.115 33.3383 129.411C31.6101 130.708 30.2192 132.396 29.2816 134.335V134.335Z" fill="#D39700"/>
<path d="M63.1845 136.181C62.9674 132.698 62.2727 129.186 60.5125 126.171C58.7523 123.156 55.8198 120.698 52.3645 120.094C49.5122 119.597 46.6698 120.401 44.0246 121.421C41.5079 122.384 39.7594 124.265 37.1375 124.922C35.723 125.275 34.2517 125.499 32.9625 126.167C31.8533 126.741 30.9299 127.614 30.2988 128.687C32.4297 126.786 36.5413 127.323 39.0212 128.746C41.5012 130.169 43.4267 132.378 45.7547 134.035C50.6244 137.486 57.6301 138.402 63.1845 136.181Z" fill="#FFBC00"/>
<path d="M74.5407 208.032L73.7508 207.972C74.7361 194.975 73.1429 181.57 69.0146 168.125L69.7745 167.894C73.9311 181.435 75.5343 194.937 74.5407 208.032Z" fill="#D39700"/>
<path d="M81.329 205.171L80.5391 205.1C82.0653 188.068 79.6107 170.916 73.3664 154.981C69.7876 145.885 65.5525 139.005 60.4173 133.954C55.8498 129.461 46.0786 122.454 38.4284 124.693L38.2046 123.938C46.2106 121.595 56.284 128.779 60.975 133.392C66.1905 138.525 70.4857 145.498 74.1046 154.693C80.3937 170.742 82.866 188.017 81.329 205.171V205.171Z" fill="#FFBC00"/>
<path d="M71.1903 150.306C75.2166 153.601 76.1268 159.484 75.1715 164.577C73.0607 160.431 68.3078 158.182 63.6669 157.558C59.026 156.935 54.3149 157.628 49.6389 157.777C44.9629 157.927 40.013 157.446 36.1587 154.792C40.2435 154.98 44.2315 153.608 48.0157 152.046C51.7999 150.483 55.5307 148.692 59.5487 147.963C63.5667 147.233 68.034 147.722 71.1903 150.306Z" fill="#FFBC00"/>
<path d="M115.574 136.364C104.968 137.372 94.517 133.735 84.5889 129.896C90.0731 126.872 96.9786 126.534 102.735 129.005C107.277 130.954 111.003 134.48 115.574 136.364Z" fill="#D39700"/>
<path d="M27.9038 179.881C31.4542 180.785 35.2518 180.244 38.6987 179.004C42.1456 177.763 45.3069 175.861 48.4381 173.972C53.9257 170.655 59.3833 167.36 64.7507 163.855C61.7164 161.304 57.8894 159.87 53.9146 159.794C49.9397 159.718 46.0598 161.004 42.9288 163.437C39.8092 165.861 37.6533 169.211 35.1733 172.227C34.6907 172.808 34.1997 173.363 33.687 173.899C34.2888 175.073 35.3303 175.967 36.5878 176.387C34.7531 177.008 32.7702 177.051 30.9098 176.511C29.8009 177.554 29.0578 178.821 27.9038 179.881Z" fill="#FFBC00"/>
<path d="M80.6392 130.446C76.4809 133.576 75.3286 139.417 76.0734 144.543C78.3529 140.48 83.1943 138.431 87.8586 137.997C92.5229 137.562 97.1939 138.448 101.87 138.786C106.546 139.125 111.501 138.843 115.462 136.36C111.372 136.38 107.446 134.848 103.735 133.133C100.025 131.418 96.3706 129.484 92.3793 128.587C88.388 127.69 83.899 127.993 80.6392 130.446Z" fill="#FFBC00"/>
<path d="M38.0859 178.795C42.0205 178.336 45.5859 176.346 48.9727 174.306C52.3594 172.266 55.7679 170.093 59.6256 169.199C63.4833 168.305 67.9756 168.944 70.6359 171.853C70.3587 169.138 69.7174 166.38 68.1309 164.154C66.5444 161.929 63.8474 160.34 61.1169 160.64C58.8624 160.892 56.9419 162.35 55.3187 163.925C52.5531 166.617 50.3087 169.791 47.6784 172.609C45.0482 175.427 41.8635 177.953 38.0859 178.795Z" fill="#D39700"/>
<path d="M83.3544 204.138C77.19 189.815 73.9761 174.412 73.9022 158.836C73.8906 154.391 73.8722 148.303 75.9563 143.893C77.8518 139.883 83.5281 138.034 87.8133 137.67C91.0231 137.397 94.2662 137.737 97.4042 138.065C98.807 138.211 100.257 138.362 101.679 138.456C107.436 138.836 111.602 138.042 114.786 135.952L115.223 136.616C111.883 138.806 107.568 139.644 101.628 139.249C100.19 139.155 98.7318 139.002 97.3223 138.854C94.2211 138.523 91.0147 138.191 87.8818 138.461C83.807 138.808 78.4279 140.528 76.6761 144.233C74.6721 148.483 74.6855 154.469 74.6988 158.839C74.7723 174.306 77.9629 189.602 84.0826 203.825L83.3544 204.138Z" fill="#FFBC00"/>
<path d="M95.5907 128.862C96.958 129.569 98.4673 129.963 100.008 130.015C99.5372 131.111 98.7738 132.059 97.8001 132.756C96.8284 133.446 95.753 133.979 94.6138 134.335C94.6135 132.468 94.9442 130.616 95.5907 128.862V128.862Z" fill="#D39700"/>
<path d="M54.6524 163.774C55.3488 163.608 56.0786 163.877 56.6982 164.237C57.5092 164.708 58.2236 165.327 58.804 166.061C57.5064 165.816 56.1571 165.957 54.8795 166.3C53.602 166.643 52.3912 167.181 51.1938 167.74C51.7453 166.796 52.3636 165.892 53.0442 165.035C53.4751 164.494 53.9761 163.942 54.6524 163.774Z" fill="#FFBC00"/>
<path d="M86.4058 163.378C83.5075 164.995 81.2939 167.596 80.1714 170.704C79.0489 173.811 79.0929 177.216 80.2953 180.294C83.201 178.685 85.4211 176.084 86.5445 172.974C87.668 169.864 87.6187 166.455 86.4058 163.378Z" fill="#FFBC00"/>
<path d="M66.723 205.166C68.6852 204.527 72.3659 204.481 73.904 206.262C72.1354 204.211 69.1361 202.423 68.9491 199.487C68.8739 198.31 69.3365 197.064 70.2984 196.371C71.6044 195.431 73.4414 195.708 74.9176 196.345C77.534 197.502 79.591 199.629 80.6491 202.272C79.4433 197.479 81.3171 192.52 86.1952 190.953C88.7227 190.173 91.4248 190.143 93.969 190.868C93.5265 188.192 94.0158 185.342 96.5726 183.793C98.4446 182.659 100.806 182.543 102.942 183.037C111.542 185.027 116.071 196.093 115.58 204.164C115.413 206.984 115.499 207.548 114.578 210.221L61.9351 209.961C62.3459 207.339 64.3783 205.929 66.723 205.166Z" fill="#FFBC00"/>
<path d="M151.366 191.786V202.813C151.366 207.456 175.347 211.221 204.929 211.221C234.512 211.221 258.491 207.456 258.491 202.813V191.786H151.366Z" fill="#FFBC00"/>
<path d="M204.929 200.193C234.511 200.193 258.491 196.429 258.491 191.786C258.491 187.143 234.511 183.379 204.929 183.379C175.348 183.379 151.367 187.143 151.367 191.786C151.367 196.429 175.348 200.193 204.929 200.193Z" fill="#FF6D00"/>
<path opacity="0.3" d="M237.497 162.811C237.497 171.637 234.992 178.48 232.32 183.265C229.282 188.711 226.029 191.487 226.029 191.487H225.969C225.969 192.587 216.385 193.477 204.555 193.477C192.724 193.477 183.147 192.587 183.147 191.487C183.147 191.487 180.283 189.043 177.417 184.246C174.552 179.45 171.676 172.262 171.676 162.811C171.676 143.919 189.692 132.597 198.119 124.573C198.84 123.885 199.498 123.223 199.521 120.925C199.498 118.633 198.84 117.973 198.119 117.285C197.34 116.547 196.482 115.775 195.562 114.978C187.937 108.344 176.19 99.5324 172.694 86.6511C172.022 84.174 171.681 81.6194 171.682 79.0537C171.682 60.1606 183.15 50.374 183.15 50.374H226.033C226.033 50.374 237.5 60.1589 237.5 79.0537C237.503 81.5857 237.171 84.107 236.513 86.5533C233.81 96.6699 225.992 104.282 219.065 110.301C216.973 112.125 214.957 113.784 213.187 115.346C212.429 116.009 211.712 116.658 211.061 117.28C210.336 117.968 209.678 118.628 209.658 120.92C209.678 123.214 210.336 123.875 211.061 124.568C211.808 125.282 212.634 126.021 213.514 126.787C222.537 134.667 237.497 145.599 237.497 162.811Z" fill="white"/>
<path d="M158.341 181.586V191.785C158.341 192.351 161.359 192.81 165.083 192.81C168.807 192.81 171.825 192.351 171.825 191.785V181.586H158.341Z" fill="#FFBC00"/>
<path d="M157.969 50.3755V60.575C157.969 61.1405 160.986 61.5983 164.711 61.5983C168.435 61.5983 171.452 61.1405 171.452 60.575V50.3755H157.969Z" fill="#FF6D00"/>
<path d="M171.825 181.586C171.825 182.152 168.806 182.611 165.083 182.611C161.361 182.611 158.341 182.152 158.341 181.586C158.341 181.021 161.359 180.563 165.083 180.563C168.807 180.563 171.825 181.021 171.825 181.586Z" fill="#FF6D00"/>
<path d="M165.082 181.94C167.585 181.94 169.613 181.631 169.613 181.251C169.613 180.871 167.585 180.563 165.082 180.563C162.58 180.563 160.552 180.871 160.552 181.251C160.552 181.631 162.58 181.94 165.082 181.94Z" fill="#FFBC00"/>
<path d="M169.612 61.0728H160.55V181.251H169.612V61.0728Z" fill="#FFBC00"/>
<path d="M237.307 181.586V191.785C237.307 192.351 240.326 192.81 244.049 192.81C247.771 192.81 250.791 192.351 250.791 191.785V181.586H237.307Z" fill="#FFBC00"/>
<path d="M236.926 50.3755V60.575C236.926 61.1405 239.946 61.5983 243.668 61.5983C247.39 61.5983 250.41 61.1405 250.41 60.575V50.3755H236.926Z" fill="#FF6D00"/>
<path d="M250.782 181.586C250.782 182.152 247.764 182.611 244.04 182.611C240.316 182.611 237.298 182.152 237.298 181.586C237.298 181.021 240.318 180.563 244.04 180.563C247.763 180.563 250.782 181.021 250.782 181.586Z" fill="#FF6D00"/>
<path d="M244.04 181.94C246.543 181.94 248.571 181.631 248.571 181.251C248.571 180.871 246.543 180.563 244.04 180.563C241.538 180.563 239.51 180.871 239.51 181.251C239.51 181.631 241.538 181.94 244.04 181.94Z" fill="#FFBC00"/>
<path d="M248.571 61.0728H239.51V181.251H248.571V61.0728Z" fill="#FFBC00"/>
<path d="M232.319 183.259C229.281 188.707 226.029 191.484 226.029 191.484H225.969C225.969 192.583 216.385 193.474 204.557 193.474C192.728 193.474 183.147 192.583 183.147 191.484C183.147 191.484 180.282 189.039 177.417 184.243C178.839 183.269 180.729 182.828 182.473 182.351C186.853 181.155 191.016 179.279 194.807 176.793C197.017 175.335 199.208 173.622 201.901 173.252C204.323 172.921 206.778 173.75 208.857 174.939C210.936 176.128 212.758 177.664 214.762 178.947C219.84 182.186 226.168 183.72 232.319 183.259Z" fill="white"/>
<path d="M236.512 86.5548C232.989 99.7329 220.814 108.65 213.186 115.347C212.414 115.694 211.664 116.085 210.938 116.518C209.47 117.395 208.118 118.45 206.913 119.659C206.364 120.216 205.905 120.855 205.552 121.552C205.101 122.416 203.792 122.49 203.214 121.698C201.167 118.954 198.565 116.667 195.574 114.982V114.982C187.949 108.349 176.202 99.5372 172.707 86.6577C193.476 89.0608 214.886 82.8814 235.537 86.3674C235.846 86.4188 236.18 86.4802 236.512 86.5548Z" fill="white"/>
<path d="M202.015 175.328C203.455 168.438 204.051 161.209 203.997 154.192L203.83 132.135C203.782 125.753 203.456 118.701 198.653 114.082C201.798 113.63 204.619 113.868 207.671 114.713C205.512 118.499 205.27 122.93 205.136 127.204C204.622 143.773 205.094 160.358 206.551 176.872C205.191 176.316 203.376 175.891 202.015 175.328Z" fill="white"/>
<path d="M236.472 85.9963C236.472 88.7924 224.875 89.3397 223.125 89.5105C218.705 89.9401 214.286 90.1225 209.901 90.6366C204.857 91.227 199.785 91.7494 194.694 91.6881C190.23 91.6333 185.737 91.1225 181.48 89.8522C179.495 89.2601 177.655 88.4358 175.674 87.862C174.839 87.6215 172.529 87.0975 172.529 85.9896C172.529 83.6014 186.845 81.666 204.501 81.666C222.158 81.666 236.472 83.6081 236.472 85.9963Z" fill="#E5E5E5"/>
<path opacity="0.42" d="M219.921 97.3894C220.91 94.2383 222.237 91.2531 222.863 87.9196C224.321 80.1231 223.978 72.1 221.862 64.454C221.588 63.4689 218.329 53.5281 217.52 53.7719C219.524 53.1682 224.622 53.0488 224.622 53.0488C224.622 53.0488 228.212 58.88 228.939 61.0724C230.701 66.3895 231.958 71.9652 231.663 77.5542C231.437 81.8181 230.804 85.8863 228.575 89.578C227.464 91.4194 226.173 93.1475 224.721 94.7375C223.991 95.5369 223.009 96.114 222.195 96.8205C221.997 96.9864 219.483 98.887 219.562 98.605C219.674 98.1959 219.794 97.7907 219.921 97.3894Z" fill="white"/>
<path d="M151.366 39.3901V48.2612C151.366 51.9994 175.347 55.0277 204.929 55.0277C234.512 55.0277 258.491 51.9994 258.491 48.2612V39.3901H151.366Z" fill="#FFBC00"/>
<path d="M204.929 46.1566C234.511 46.1566 258.491 43.1271 258.491 39.39C258.491 35.653 234.511 32.6235 204.929 32.6235C175.348 32.6235 151.367 35.653 151.367 39.39C151.367 43.1271 175.348 46.1566 204.929 46.1566Z" fill="#FF6D00"/>
<path opacity="0.42" d="M229.792 175.027C228.703 178.344 227.047 181.61 224.281 183.757C221.516 185.905 217.451 186.668 214.441 184.872C223.924 171.853 224.562 153.195 216.419 139.397C215.559 137.937 217.1 136.259 218.636 136.989C221.542 138.372 223.98 141.019 225.771 143.789C231.662 152.91 233.18 164.713 229.792 175.027Z" fill="white"/>
<path opacity="0.42" d="M211.053 124.573C211.799 125.286 212.626 126.026 213.506 126.792C211.788 125.943 210.111 124.99 208.83 123.577C207.282 121.862 206.465 119.284 207.457 117.208C208.012 116.047 209.047 115.18 210.104 114.433C212.81 112.527 215.844 111.127 219.056 110.302C216.963 112.127 214.947 113.785 213.177 115.347C212.419 116.011 211.703 116.659 211.051 117.281C210.327 117.969 209.669 118.629 209.649 120.921C209.67 123.223 210.328 123.887 211.053 124.573Z" fill="white"/>
<path opacity="0.42" d="M186.38 95.35C187.068 96.8385 188.242 98.0524 189.712 98.7947C190.238 99.0534 190.814 99.2375 191.35 99.0268C192.245 98.6786 192.756 97.3186 192.795 96.0416C192.833 94.7646 192.511 93.529 192.267 92.2968C191.74 89.6061 191.564 86.8593 191.743 84.1239C191.813 83.0509 191.936 81.9679 191.821 80.9015C191.706 79.8351 191.298 78.7588 190.585 78.3077C189.75 77.7737 188.71 78.2762 188.055 79.1767C187.401 80.0773 187.053 81.3012 186.719 82.4936C186.145 84.5783 185.602 86.7078 185.433 88.9252C185.265 91.1425 185.493 93.4843 186.38 95.35Z" fill="white"/>
<path d="M97.0037 82.8965C95.0839 88.5377 94.9754 94.6317 96.6931 100.337C97.7485 103.82 99.497 107.302 98.9643 110.886C98.5301 113.818 96.6096 116.386 96.2305 119.325C95.4623 125.295 101.184 130.964 99.6473 136.79C98.9392 139.471 96.7248 141.599 94.1614 142.691C91.5979 143.782 88.7205 143.956 85.9399 143.717C81.8351 143.362 77.3945 141.815 75.4974 138.183C73.9944 135.289 74.457 131.811 74.9814 128.594C77.2977 114.372 79.9747 100.052 85.783 86.8502" fill="#263238"/>
<path d="M98.8276 126.85C98.6724 126.915 98.5121 126.966 98.3483 127.003C97.8755 127.115 97.3885 127.155 96.9037 127.122C96.1338 127.067 95.3841 126.852 94.7027 126.492C93.7885 126.01 93.0488 125.256 92.5868 124.336C92.037 123.219 91.889 121.948 92.1676 120.736C92.3282 120.061 92.6248 119.425 93.0393 118.867C93.4866 118.289 94.012 117.776 94.6008 117.341C95.7698 116.429 97.1626 115.697 98.3032 114.601C99.4438 113.505 100.152 111.957 100.377 110.306C100.587 108.682 100.47 107.033 100.033 105.455C99.6064 103.984 99.0602 102.549 98.4 101.166C97.1676 98.5123 96.0069 96.0843 95.561 93.8785C95.0901 91.6877 95.227 89.8286 95.5844 88.6295C95.9418 87.4305 96.3526 86.855 96.3526 86.855C96.391 86.8732 95.9986 87.4587 95.6946 88.6594C95.3907 89.8601 95.2738 91.6778 95.7631 93.8354C96.2207 96.0063 97.3863 98.3929 98.6355 101.055C99.3072 102.448 99.8618 103.894 100.294 105.378C100.747 106.991 100.871 108.678 100.658 110.339C100.427 112.037 99.6859 113.656 98.4952 114.795C97.3045 115.934 95.9134 116.654 94.7561 117.543C93.5871 118.404 92.677 119.522 92.3947 120.782C92.1161 121.946 92.2463 123.17 92.7638 124.25C93.1984 125.137 93.8983 125.869 94.7678 126.346C95.4254 126.71 96.1513 126.936 96.9004 127.01C98.1579 127.106 98.8226 126.802 98.8276 126.85Z" fill="#263238"/>
<path d="M42.3093 218.409L39.9713 227.295L15.9033 227.076C15.9033 227.076 17.6735 222.892 30.8314 223.096L31.8017 218.417L42.3093 218.409Z" fill="#EAD5CE"/>
<path d="M155.165 217.755C155.165 217.755 180.477 224.721 181.492 225.067C183.017 225.6 182.761 231.149 180.388 231.063C179.266 231.021 160.946 231.739 158.632 231.595C156.317 231.451 149.333 228.719 149.333 228.719L155.165 217.755Z" fill="#E8505B"/>
<path d="M165.709 227.342C165.836 227.36 166.008 226.03 166.825 224.643C167.641 223.257 168.693 222.429 168.615 222.321C168.57 222.224 167.312 222.932 166.457 224.424C165.602 225.917 165.602 227.353 165.709 227.342Z" fill="#263238"/>
<path d="M163.071 226.154C163.194 226.176 163.451 224.993 164.124 223.666C164.797 222.34 165.594 221.434 165.504 221.344C165.414 221.255 164.445 222.084 163.747 223.474C163.049 224.864 162.962 226.147 163.071 226.154Z" fill="#263238"/>
<path d="M160.594 225.495C160.723 225.487 160.626 224.232 161.187 222.842C161.748 221.452 162.653 220.583 162.565 220.492C162.515 220.396 161.379 221.173 160.793 222.689C160.207 224.205 160.487 225.53 160.594 225.495Z" fill="#263238"/>
<path d="M161.043 222.248C161.09 222.26 161.313 221.557 161.315 220.378C161.31 219.687 161.225 218.999 161.059 218.328C160.961 217.933 160.835 217.545 160.682 217.167C160.605 216.929 160.465 216.716 160.276 216.55C160.15 216.453 159.993 216.404 159.834 216.412C159.675 216.42 159.524 216.484 159.408 216.593C159.213 216.781 159.095 217.034 159.074 217.303C159.047 217.523 159.036 217.745 159.04 217.966C159.046 218.381 159.099 218.794 159.197 219.197C159.365 219.87 159.627 220.516 159.976 221.117C160.565 222.137 161.076 222.66 161.113 222.632C161.15 222.603 160.747 222.006 160.241 220.973C159.944 220.38 159.719 219.753 159.573 219.106C159.492 218.728 159.451 218.343 159.45 217.956C159.461 217.57 159.45 217.087 159.683 216.902C159.725 216.856 159.783 216.828 159.845 216.823C159.907 216.817 159.968 216.835 160.017 216.873C160.145 216.995 160.24 217.146 160.295 217.313C160.446 217.674 160.574 218.045 160.677 218.422C160.853 219.064 160.965 219.722 161.011 220.386C161.09 221.527 160.974 222.233 161.043 222.248Z" fill="#263238"/>
<path d="M161.013 221.993C161.025 221.947 160.413 221.738 159.38 221.731C158.775 221.73 158.171 221.803 157.584 221.95C157.223 222.027 156.874 222.154 156.549 222.328C156.203 222.494 155.839 222.98 155.978 223.476C156.035 223.693 156.15 223.89 156.311 224.049C156.471 224.207 156.671 224.319 156.89 224.375C157.263 224.468 157.653 224.468 158.025 224.375C158.624 224.225 159.184 223.951 159.669 223.572C160.48 222.938 160.876 222.456 160.838 222.421C160.799 222.386 160.313 222.781 159.49 223.326C159.019 223.643 158.492 223.868 157.937 223.99C157.627 224.059 157.306 224.055 156.998 223.977C156.852 223.94 156.717 223.866 156.609 223.761C156.501 223.656 156.422 223.524 156.382 223.379C156.309 223.098 156.481 222.84 156.758 222.678C157.047 222.52 157.356 222.401 157.676 222.323C158.233 222.166 158.804 222.067 159.381 222.026C160.38 221.96 161.001 222.068 161.013 221.993Z" fill="#263238"/>
<path d="M169.599 227.612C169.724 227.597 169.599 226.522 170.1 225.343C170.601 224.164 171.419 223.472 171.339 223.376C171.297 223.273 170.238 223.874 169.707 225.185C169.176 226.497 169.505 227.655 169.599 227.612Z" fill="#263238"/>
<path d="M151.936 228.771C151.925 228.798 152.27 228.96 152.915 229.229C153.833 229.58 154.775 229.87 155.732 230.096C158.154 230.702 161.604 231.045 165.397 231.005C169.189 230.965 172.608 230.793 175.083 230.693L178.017 230.539C178.708 230.494 179.09 230.454 179.09 230.426C179.09 230.398 178.705 230.38 178.012 230.376L175.074 230.396L165.388 230.585C161.614 230.624 158.207 230.33 155.794 229.806C153.379 229.312 151.97 228.701 151.936 228.771Z" fill="#263238"/>
<path d="M151.188 229.345C151.222 229.403 151.915 229 153.084 228.491C154.253 227.982 155.973 227.408 157.875 227.7C159.777 227.992 161.133 229.264 162.015 230.146C162.902 231.061 163.421 231.668 163.473 231.625C163.525 231.582 163.079 230.927 162.234 229.944C161.736 229.362 161.173 228.84 160.555 228.386C159.785 227.817 158.888 227.439 157.94 227.285C155.901 226.975 154.099 227.652 152.958 228.222C151.818 228.793 151.162 229.303 151.188 229.345Z" fill="#263238"/>
<path d="M128.298 210.81C128.298 210.81 104.345 226.385 103.485 227.03C102.196 227.997 103.675 232.605 105.91 231.808C106.967 231.43 127.065 225.877 129.228 225.043C131.391 224.209 137.207 219.497 137.207 219.497L128.298 210.81Z" fill="#E8505B"/>
<path d="M121.184 223.129C121.289 223.108 120.863 221.734 119.581 220.583C118.298 219.433 116.895 219.124 116.883 219.229C116.838 219.35 118.109 219.802 119.295 220.887C120.481 221.972 121.075 223.184 121.184 223.129Z" fill="#263238"/>
<path d="M123.334 221.2C123.436 221.162 122.972 219.966 121.875 218.862C120.778 217.757 119.59 217.263 119.549 217.369C119.507 217.475 120.539 218.104 121.571 219.162C122.603 220.22 123.223 221.258 123.334 221.2Z" fill="#263238"/>
<path d="M125.492 219.827C125.601 219.827 125.48 218.466 124.445 217.21C123.41 215.955 122.107 215.552 122.084 215.651C122.027 215.766 123.174 216.301 124.116 217.475C125.058 218.65 125.368 219.859 125.492 219.827Z" fill="#263238"/>
<path d="M124.071 216.868C124.134 216.839 123.805 216.195 123.528 215.089C123.369 214.441 123.275 213.779 123.246 213.112C123.229 212.721 123.238 212.329 123.273 211.94C123.274 211.766 123.318 211.595 123.401 211.442C123.436 211.389 123.491 211.352 123.553 211.338C123.616 211.325 123.681 211.336 123.735 211.369C124.009 211.477 124.153 211.938 124.281 212.303C124.399 212.67 124.478 213.05 124.515 213.434C124.576 214.094 124.555 214.759 124.455 215.414C124.288 216.543 124.062 217.23 124.121 217.25C124.179 217.27 124.492 216.616 124.742 215.465C124.89 214.788 124.941 214.093 124.896 213.401C124.867 212.987 124.791 212.577 124.669 212.18C124.605 211.968 124.527 211.76 124.435 211.558C124.332 211.307 124.14 211.103 123.895 210.983C123.753 210.915 123.59 210.9 123.437 210.941C123.284 210.981 123.151 211.074 123.06 211.203C122.932 211.418 122.864 211.663 122.863 211.913C122.783 213.012 122.913 214.117 123.246 215.169C123.603 216.291 124.031 216.893 124.071 216.868Z" fill="#263238"/>
<path d="M124.022 216.615C124.054 216.676 124.615 216.394 125.579 216.16C126.142 216.025 126.717 215.948 127.296 215.928C127.625 215.906 127.955 215.927 128.279 215.99C128.592 216.063 128.835 216.255 128.852 216.545C128.857 216.695 128.822 216.844 128.751 216.976C128.68 217.109 128.575 217.22 128.446 217.3C128.178 217.467 127.872 217.569 127.556 217.595C126.989 217.646 126.418 217.59 125.873 217.429C124.921 217.157 124.336 216.908 124.311 216.971C124.286 217.034 124.812 217.356 125.784 217.713C126.362 217.929 126.98 218.022 127.596 217.983C127.979 217.962 128.351 217.848 128.68 217.651C128.871 217.532 129.027 217.365 129.132 217.166C129.236 216.967 129.285 216.744 129.273 216.52C129.253 216.006 128.76 215.661 128.378 215.6C128.014 215.532 127.643 215.516 127.276 215.55C126.672 215.588 126.075 215.699 125.499 215.882C124.515 216.192 123.997 216.575 124.022 216.615Z" fill="#263238"/>
<path d="M108.961 230.939C108.99 230.977 109.365 230.698 109.547 230.017C109.729 229.335 109.623 228.33 109.1 227.436C108.862 227.021 108.594 226.624 108.297 226.249C108.067 225.924 107.793 225.632 107.483 225.381C107.266 225.202 107 225.092 106.718 225.063C106.518 225.063 106.416 225.104 106.42 225.128C106.42 225.194 106.847 225.162 107.29 225.609C107.55 225.873 107.782 226.164 107.981 226.476C108.25 226.85 108.499 227.237 108.727 227.637C109.213 228.474 109.357 229.342 109.255 229.959C109.153 230.576 108.906 230.897 108.961 230.939Z" fill="#263238"/>
<path d="M117.568 224.555C117.68 224.567 117.647 223.358 116.725 222.276C115.803 221.195 114.626 220.933 114.617 221.044C114.572 221.16 115.586 221.555 116.401 222.545C117.216 223.535 117.436 224.583 117.568 224.555Z" fill="#263238"/>
<path d="M134.742 220.338C134.722 220.313 134.355 220.58 133.69 221.054C132.742 221.709 131.756 222.309 130.738 222.852C129.222 223.644 127.655 224.337 126.047 224.925C124.233 225.588 122.206 226.23 120.046 226.849C115.738 228.081 111.837 229.209 109.024 230.049L105.696 231.064C104.913 231.312 104.484 231.462 104.49 231.491C104.497 231.519 104.943 231.421 105.741 231.22L109.106 230.335C111.945 229.567 115.855 228.487 120.167 227.253C122.323 226.633 124.367 225.985 126.187 225.288C127.804 224.678 129.373 223.951 130.883 223.112C131.899 222.543 132.871 221.898 133.791 221.185C134.435 220.668 134.769 220.356 134.742 220.338Z" fill="#263238"/>
<path d="M135.631 220.658C135.644 220.61 134.889 220.326 133.602 220.121C132.314 219.915 130.417 219.821 128.568 220.731C127.715 221.164 126.978 221.793 126.419 222.565C125.969 223.184 125.593 223.852 125.297 224.555C124.796 225.746 124.585 226.512 124.629 226.531C124.672 226.549 125.001 225.821 125.567 224.681C126.135 223.574 127.035 221.955 128.764 221.103C130.492 220.25 132.317 220.29 133.568 220.411C134.819 220.532 135.616 220.723 135.631 220.658Z" fill="#263238"/>
<path d="M118.177 187.348L69.1896 214.439C69.1896 214.439 66.7748 205.06 67.5948 184.268V184.258C67.5948 184.172 67.6048 184.092 67.6048 183.989C67.6482 183.026 67.6916 182.041 67.7451 181.024C67.8419 179.109 66.2905 175.425 64.5119 171.614L63.4982 169.473C63.368 169.216 63.2494 168.959 63.1308 168.702C62.3977 167.193 61.698 165.716 61.1152 164.42L61.0834 164.343C60.6843 163.476 60.3503 162.685 60.0814 161.978V161.967C60.0714 161.924 60.0497 161.882 60.0397 161.839C59.9629 161.647 59.8994 161.464 59.8343 161.282V161.272C59.8343 161.25 59.8226 161.239 59.8126 161.217V161.207C59.702 160.864 59.6155 160.513 59.5537 160.157C59.2197 158.028 58.9391 155.757 58.7187 153.424L58.6853 153.134C57.9739 145.812 57.715 137.964 57.6399 132.332V132.055C57.6299 131.582 57.6299 131.144 57.6182 130.716V130.245C57.5965 126.928 57.6299 124.719 57.6299 124.421V124.388L70.868 118.018L90.5105 119.842L94.8224 121.063L94.9727 121.096L98.4881 122.091C100.179 122.568 101.805 123.247 103.331 124.114C101.596 125.773 98.0272 129.499 96.3171 133.524C96.2536 133.675 96.1885 133.824 96.135 133.974C96.0265 134.264 95.9196 134.542 95.8328 134.831C94.2162 139.972 103.024 149.563 105.417 152.046C105.654 152.293 105.826 152.464 105.918 152.56L106.015 152.656L105.465 177.089L118.177 187.348Z" fill="#F3BD3C"/>
<path d="M58.7839 123.945C58.7839 123.945 48.8458 127.593 46.4426 135.332C44.3117 142.186 37.2025 180.73 37.2025 180.73L30.1484 221.529L44.9229 222.084L61.9302 152.557L58.7839 123.945Z" fill="#F3BD3C"/>
<path d="M58.1243 168.997C58.1527 168.997 58.2579 168.708 58.4249 168.167C58.5919 167.627 58.8157 166.841 59.0812 165.864C59.619 163.913 60.287 161.202 60.9767 158.193C61.6664 155.185 62.2091 152.442 62.5715 150.453C62.7519 149.458 62.8888 148.651 62.9707 148.092C63.0525 147.533 63.0859 147.219 63.0575 147.214C63.0291 147.209 62.9423 147.51 62.8087 148.06C62.6634 148.7 62.4864 149.48 62.2776 150.394C61.8167 152.467 61.2205 155.142 60.5625 158.101C59.9045 161.059 59.2666 163.724 58.7907 165.794C58.5836 166.708 58.4099 167.487 58.2646 168.129C58.1477 168.683 58.0959 168.997 58.1243 168.997Z" fill="#263238"/>
<path d="M42.4933 217.837C42.3781 217.817 42.1226 218.732 41.9222 219.882C41.7218 221.031 41.655 221.98 41.7702 221.998C41.8854 222.016 42.141 221.102 42.3397 219.953C42.5384 218.804 42.6086 217.857 42.4933 217.837Z" fill="#263238"/>
<path d="M37.6353 217.833C37.52 217.813 37.2862 218.644 37.1109 219.688C36.9355 220.731 36.8888 221.591 37.004 221.61C37.1192 221.628 37.3547 220.799 37.5284 219.756C37.7021 218.712 37.7522 217.852 37.6353 217.833Z" fill="#263238"/>
<path d="M33.0275 217.369C32.9089 217.359 32.7403 218.305 32.5432 219.464C32.3461 220.623 32.1942 221.572 32.3094 221.602C32.4246 221.631 32.762 220.716 32.9607 219.533C33.1594 218.351 33.1427 217.378 33.0275 217.369Z" fill="#263238"/>
<path d="M50.813 128.696C50.813 128.774 51.8434 128.711 53.4449 129.044C55.5335 129.463 57.4763 130.415 59.0816 131.806C60.687 133.197 61.8996 134.98 62.5999 136.978C63.1476 138.509 63.2261 139.532 63.3029 139.523C63.3296 139.523 63.3363 139.264 63.2896 138.803C63.2171 138.152 63.0812 137.509 62.8838 136.884C62.2373 134.796 61.0162 132.928 59.3582 131.493C57.7002 130.057 55.6712 129.109 53.5 128.758C52.8499 128.647 52.1905 128.6 51.5311 128.617C51.0652 128.628 50.8113 128.67 50.813 128.696Z" fill="#263238"/>
<path d="M105.058 160.041C104.849 160.822 104.586 161.587 104.271 162.332C104.044 162.846 103.904 163.124 103.872 163.124C103.797 163.093 104.26 161.914 104.724 159.955C104.821 159.549 104.918 159.109 105.005 158.638V158.595C105.396 156.47 105.537 154.307 105.424 152.15C105.425 152.121 105.422 152.092 105.414 152.064C105.651 152.311 105.823 152.482 105.915 152.578C106.01 155.094 105.721 157.611 105.058 160.041V160.041Z" fill="#263238"/>
<path d="M105.132 176.586C105.132 176.619 104.829 176.637 104.282 176.642C103.734 176.647 102.946 176.619 101.967 176.543C96.8658 176.115 91.8978 174.703 87.3412 172.385C86.4728 171.937 85.7847 171.556 85.3255 171.252C84.8662 170.949 84.6174 170.786 84.6341 170.755C84.6725 170.687 85.7313 171.262 87.4931 172.082C92.0818 174.207 96.9795 175.599 102.005 176.208C103.931 176.442 105.135 176.508 105.132 176.586Z" fill="#263238"/>
<g opacity="0.2">
<path opacity="0.2" d="M83.4448 169.796C84.9796 171.165 87.366 171.364 89.4301 171.326C91.4942 171.287 93.54 170.883 95.6091 170.916C97.6782 170.949 99.8559 171.503 101.237 173.027C101.661 173.495 102.007 174.072 102.035 174.702C102.064 175.332 101.701 176.006 101.1 176.195C100.723 176.313 100.313 176.235 99.9311 176.155C94.1512 174.968 87.9271 173.621 83.4548 169.796H83.4448Z" fill="black"/>
</g>
<g opacity="0.2">
<path opacity="0.2" d="M64.5136 171.615C66.0417 171.178 66.2872 169.406 66.4358 167.834C67.0429 161.336 65.7683 154.802 62.7618 148.999C62.0404 153.265 60.8463 157.709 59.9946 162.049L64.5136 171.615Z" fill="black"/>
</g>
<path d="M61.8537 153.843C61.817 153.902 61.4747 153.467 60.6029 153.288C59.7679 153.094 58.3768 153.288 57.1493 154.283C55.8968 155.247 55.2038 157.102 54.8247 159.161C54.4122 161.197 54.2101 163.691 52.6253 165.761C51.8423 166.758 50.7146 167.431 49.4607 167.649C48.2766 167.871 47.1377 167.829 46.0839 167.894C44.2113 167.907 42.4163 168.639 41.0739 169.936C40.1653 170.804 39.4867 171.882 39.0983 173.073C38.8294 173.919 38.801 174.422 38.7543 174.417C38.7316 174.296 38.7316 174.172 38.7543 174.052C38.7738 173.703 38.8298 173.357 38.9213 173.02C39.2085 171.959 39.7257 170.972 40.4367 170.13C41.1478 169.287 42.0355 168.609 43.0378 168.143C43.9878 167.718 45.0125 167.482 46.0539 167.45C47.131 167.373 48.2583 167.4 49.3671 167.184C50.5069 166.983 51.531 166.369 52.2412 165.461C52.9743 164.532 53.4019 163.414 53.7041 162.323C54.0064 161.232 54.16 160.119 54.3838 159.073C54.793 156.996 55.5428 155.034 56.9339 154.014C58.2699 152.993 59.7596 152.853 60.6463 153.112C60.993 153.202 61.3168 153.364 61.5966 153.586C61.7786 153.739 61.8654 153.83 61.8537 153.843Z" fill="#FAFAFA"/>
<path d="M95.4203 133.42C95.72 133.443 96.0183 133.482 96.3137 133.538C96.2503 133.689 96.1851 133.838 96.1317 133.987C95.8855 133.943 95.6367 133.915 95.3869 133.902C94.4389 133.85 93.4894 133.97 92.5846 134.256C90.7192 134.801 89.0776 135.818 87.5496 136.846C86.0215 137.874 84.5102 138.913 82.9137 139.609C81.3993 140.275 79.762 140.622 78.1057 140.626C76.668 140.624 75.2402 140.389 73.879 139.929C71.9095 139.269 70.1323 138.14 68.702 136.642C68.3206 136.236 67.9779 135.795 67.6782 135.325C67.5608 135.17 67.4595 135.003 67.376 134.828C67.4511 134.828 67.8603 135.513 68.8422 136.52C70.2902 137.932 72.0496 138.99 73.9808 139.609C76.3856 140.379 79.6304 140.604 82.7233 139.201C84.2664 138.516 85.7293 137.488 87.274 136.45C88.8188 135.412 90.4971 134.362 92.4377 133.785C93.4033 133.494 94.4123 133.37 95.4203 133.42Z" fill="#FAFAFA"/>
<path d="M105.103 158.598C104.948 158.645 104.787 158.67 104.625 158.673C104.162 158.713 103.695 158.697 103.236 158.623C102.022 158.491 100.38 157.822 98.4531 156.912C97.417 156.403 96.3372 155.987 95.2267 155.668C93.9598 155.329 92.6311 155.284 91.3439 155.537C88.6068 156.064 85.9381 157.807 83.6035 160.015C81.2688 162.222 79.2197 164.617 76.9452 166.352C74.9581 167.944 72.5903 168.999 70.0715 169.415C68.385 169.696 66.6613 169.673 64.983 169.347C64.5304 169.262 64.084 169.148 63.647 169.004C63.4902 168.964 63.3392 168.904 63.1978 168.826C63.2111 168.781 63.8457 168.982 65.0214 169.158C66.6801 169.405 68.3687 169.376 70.018 169.073C72.4628 168.622 74.7528 167.564 76.6747 165.997C78.8874 164.28 80.8998 161.914 83.2745 159.66C85.6492 157.406 88.393 155.63 91.2654 155.101C92.6183 154.846 94.012 154.908 95.3369 155.28C96.465 155.623 97.5595 156.067 98.6068 156.607C100.519 157.56 102.097 158.255 103.273 158.443C104.448 158.63 105.101 158.549 105.103 158.598Z" fill="#FAFAFA"/>
<path d="M96.5262 174.952C96.5128 175.086 95.5459 175.028 94.6725 175.72C93.7757 176.383 93.587 177.327 93.4517 177.305C93.3916 177.305 93.3432 177.042 93.4517 176.642C93.618 176.125 93.9392 175.67 94.3724 175.338C94.8056 175.007 95.3303 174.814 95.8766 174.786C96.2924 174.781 96.5262 174.894 96.5262 174.952Z" fill="#FAFAFA"/>
<path d="M104.542 171.171C104.662 171.207 104.3 172.561 103.343 173.977C102.386 175.393 101.275 176.254 101.195 176.158C101.115 176.062 102.03 175.078 102.937 173.71C103.844 172.342 104.402 171.121 104.542 171.171Z" fill="#FAFAFA"/>
<path d="M71.8702 184.283C71.8218 184.417 70.8165 184.137 69.5573 184.135C68.2981 184.134 67.2878 184.382 67.2427 184.248C67.1976 184.114 68.1996 183.638 69.5606 183.653C70.9217 183.668 71.9254 184.17 71.8702 184.283Z" fill="#FAFAFA"/>
<path d="M45.0432 139.224C45.0682 139.189 45.262 139.335 45.6578 139.448C46.2249 139.575 46.8178 139.524 47.3545 139.302C48.0459 139.048 48.7155 138.473 49.3234 137.682C49.9313 136.891 50.5392 135.939 51.4026 135.103C52.8665 133.675 54.6999 132.677 56.6998 132.219C57.2996 132.086 57.9108 132.01 58.5251 131.992C58.961 131.992 59.1931 132.018 59.1931 132.05C59.1931 132.133 58.2379 132.146 56.7783 132.547C54.8819 133.081 53.1495 134.076 51.7382 135.443C50.9166 136.237 50.3221 137.158 49.6658 137.959C49.0094 138.76 48.2429 139.387 47.463 139.617C46.858 139.834 46.196 139.834 45.591 139.617C45.1818 139.445 45.0265 139.241 45.0432 139.224Z" fill="#FAFAFA"/>
<path d="M95.0548 120.925C95.0965 120.956 94.7592 121.485 93.9977 122.144C92.9847 122.988 91.7959 123.598 90.5169 123.93C89.2379 124.262 87.9005 124.309 86.6012 124.066C85.6109 123.862 85.0581 123.568 85.0782 123.515C85.1049 123.441 85.6911 123.618 86.6546 123.728C89.1804 124.013 91.7226 123.352 93.7839 121.875C94.5705 121.311 94.993 120.872 95.0548 120.925Z" fill="#FAFAFA"/>
<path d="M53.1058 190.121C53.1058 190.166 52.7116 190.159 52.0319 190.31C51.0772 190.539 50.1831 190.969 49.41 191.57C48.408 192.31 47.4328 193.433 46.6161 194.859C45.7995 196.285 45.0898 197.964 44.1997 199.678C43.3095 201.393 42.2257 202.961 40.8697 204.022C39.5337 205.113 37.9205 205.548 36.6262 205.456C35.3203 205.39 34.3233 204.894 33.7872 204.417C33.572 204.242 33.3835 204.038 33.2278 203.81C33.1225 203.654 33.0758 203.568 33.0891 203.558C33.1276 203.528 33.348 203.859 33.9041 204.269C34.7059 204.824 35.6607 205.119 36.6379 205.115C38.0871 205.129 39.4917 204.617 40.5874 203.675C41.8566 202.654 42.8971 201.141 43.7604 199.456C44.6238 197.771 45.3453 196.068 46.2254 194.628C47.1054 193.189 48.1408 192.02 49.2013 191.29C50.0254 190.687 50.9817 190.285 51.9919 190.119C52.264 190.075 52.5399 190.06 52.8152 190.073C53.0106 190.091 53.1058 190.104 53.1058 190.121Z" fill="#FAFAFA"/>
<path d="M158.042 217.46C158.042 217.46 99.3013 179.196 96.8965 178.4C94.4917 177.604 88.6785 173.821 82.8686 175.415C77.0586 177.009 71.8465 182.182 69.2397 189.746C66.6328 197.31 66.4341 214.23 66.4341 214.23C66.4341 214.23 71.0433 227.565 80.063 230.353C80.8349 230.589 81.6186 230.784 82.411 230.939C93.4213 233.108 104.622 228.079 110.779 218.764L112.09 216.782C112.09 216.782 150.517 230.801 151.118 230.602L158.042 217.46Z" fill="#263238"/>
<path d="M178.074 172.826C178.074 172.826 185.255 175.375 185.29 183.376C185.347 198.703 154.106 215.598 154.106 215.598L112.531 188.235V185.361C112.531 185.361 166.048 166.259 178.074 172.826Z" fill="#263238"/>
<path d="M85.3701 206.928C85.3701 206.928 85.477 206.982 85.6924 207.069L86.6543 207.449L90.3784 208.871L104.218 214.049C110.096 216.228 117.139 218.817 125.039 221.678C132.94 224.539 141.696 227.662 151.048 230.8L151.215 230.858L151.298 230.692L155.888 221.99L158.226 217.55L158.316 217.384L158.149 217.282L113.349 189.036L99.8908 180.606L96.2351 178.341L95.2799 177.76C95.0645 177.633 94.9459 177.575 94.9459 177.575C94.9459 177.575 95.0461 177.656 95.2548 177.795L96.1884 178.409L99.8023 180.731L113.191 189.272L157.923 217.631L157.851 217.358L155.513 221.796L150.926 230.501L151.18 230.4C141.828 227.264 133.074 224.148 125.165 221.318L104.313 213.782L90.4302 208.726L86.6811 207.371L85.7058 207.027C85.487 206.958 85.3701 206.928 85.3701 206.928Z" fill="#375A64"/>
<path d="M133.59 202.058C133.608 202.082 133.992 201.821 134.674 201.329C135.355 200.836 136.327 200.111 137.513 199.198C139.894 197.373 143.132 194.779 146.616 191.811C150.1 188.842 153.167 186.051 155.347 183.991C156.437 182.961 157.307 182.117 157.898 181.522C158.49 180.926 158.809 180.59 158.789 180.57C158.769 180.55 158.413 180.847 157.787 181.399C157.109 182.009 156.218 182.807 155.145 183.769C152.917 185.772 149.821 188.52 146.342 191.489C142.863 194.458 139.662 197.076 137.324 198.952L134.565 201.188C133.924 201.732 133.573 202.035 133.59 202.058Z" fill="#375A64"/>
<path d="M166.332 178.556C166.347 178.453 164.495 178.273 162.324 178.916C160.153 179.56 158.692 180.696 158.762 180.774C158.831 180.883 160.347 179.925 162.436 179.321C164.525 178.717 166.332 178.684 166.332 178.556Z" fill="#375A64"/>
<path d="M162.755 176.14C162.718 176.04 161.386 176.622 160.292 177.981C159.198 179.339 158.892 180.747 158.998 180.762C159.118 180.803 159.574 179.518 160.621 178.246C161.668 176.974 162.825 176.249 162.755 176.14Z" fill="#375A64"/>
<path d="M180.36 224.67C180.382 224.621 179.859 224.522 179.288 225.001C178.717 225.481 178.241 226.35 178.085 227.398C177.953 228.296 178.084 229.214 178.464 230.04C178.76 230.666 179.082 230.962 179.119 230.932C179.156 230.902 178.952 230.544 178.743 229.928C178.47 229.134 178.389 228.287 178.506 227.456C178.648 226.494 179.046 225.661 179.488 225.222C179.931 224.782 180.368 224.738 180.36 224.67Z" fill="#263238"/>
<path d="M59.9895 88.0773C59.4125 87.5175 58.7261 87.081 57.9726 86.7949C57.2191 86.5088 56.4146 86.379 55.6087 86.4137C54.8027 86.4483 54.0125 86.6467 53.2868 86.9964C52.561 87.3462 51.9152 87.8399 51.389 88.4472C50.1599 89.8652 49.6856 91.774 49.4084 93.6249C49.1312 95.4757 49.0076 97.378 48.3212 99.121C47.6349 100.864 46.2438 102.474 44.3917 102.824C42.9856 103.083 41.3289 102.65 40.2568 103.587C39.3416 104.383 39.3617 105.884 40.0096 106.904C40.6576 107.924 41.7715 108.563 42.8837 109.047C43.3263 109.241 43.849 109.52 43.8573 110.001C43.869 110.626 43.0591 110.85 42.4796 111.093C40.7378 111.825 40.2351 114.286 41.202 115.903C42.169 117.52 44.1629 118.296 46.045 118.308C47.9271 118.319 49.7624 117.686 51.5427 117.052C50.8546 117.754 50.8747 118.971 51.4876 119.742C52.1004 120.513 53.1576 120.847 54.1378 120.724C55.1181 120.601 56.0066 120.072 56.723 119.397C58.1208 118.079 58.894 116.221 59.2581 114.341C59.6221 112.46 59.5921 110.526 59.5921 108.617C59.6171 101.782 60.1064 94.9565 61.0567 88.1868" fill="#263238"/>
<path d="M79.8462 74.8977C83.4948 75.0668 86.9379 76.6241 89.4614 79.2466C91.985 81.8691 93.3953 85.3556 93.3999 88.983C93.4116 94.8207 93.318 101.171 92.9456 104.937C92.0756 113.699 85.4423 115.198 85.4423 115.198C85.4423 115.198 85.6544 120.641 85.9433 125.812C86.2222 130.735 82.1591 135.063 76.8635 135.486C71.6197 135.906 67.1241 132.335 66.7667 127.469L64.9898 89.6563C64.8968 87.6943 65.2173 85.7346 65.9307 83.9027C66.6441 82.0707 67.7347 80.4068 69.1328 79.0175C70.5308 77.6281 72.2056 76.5439 74.0498 75.8342C75.894 75.1245 77.8671 74.805 79.8428 74.896L79.8462 74.8977Z" fill="#EAD5CE"/>
<path d="M90.7365 93.0231C90.7217 93.3092 90.5952 93.5783 90.3837 93.7731C90.1723 93.9679 89.8926 94.0731 89.6042 94.0662C89.4629 94.0732 89.3217 94.0519 89.1889 94.0037C89.0561 93.9555 88.9343 93.8814 88.8308 93.7857C88.7273 93.69 88.6441 93.5747 88.5862 93.4466C88.5283 93.3184 88.4968 93.1801 88.4937 93.0397C88.5084 92.7537 88.6346 92.4847 88.8457 92.2897C89.0567 92.0946 89.336 91.9889 89.6242 91.9948C89.7656 91.9882 89.907 92.0096 90.0399 92.058C90.1729 92.1063 90.2947 92.1806 90.3984 92.2764C90.502 92.3722 90.5853 92.4876 90.6433 92.6158C90.7014 92.7441 90.7331 92.8825 90.7365 93.0231Z" fill="#263238"/>
<path d="M78.2462 94.3083C78.2463 94.61 78.1282 94.8999 77.9169 95.1166C77.7055 95.3333 77.4176 95.4597 77.1139 95.4692C76.9652 95.4686 76.818 95.4385 76.6811 95.3805C76.5442 95.3226 76.4204 95.2381 76.3169 95.1319C76.2135 95.0257 76.1324 94.9001 76.0786 94.7623C76.0247 94.6246 75.9991 94.4776 76.0034 94.3299C76.0032 94.0285 76.1211 93.7388 76.3321 93.5222C76.5431 93.3055 76.8306 93.1788 77.134 93.1689C77.283 93.1691 77.4304 93.1989 77.5676 93.2567C77.7048 93.3144 77.8289 93.3989 77.9326 93.5052C78.0363 93.6114 78.1175 93.7372 78.1713 93.8752C78.2252 94.0131 78.2507 94.1604 78.2462 94.3083V94.3083Z" fill="#263238"/>
<path d="M91.362 91.0858C91.2318 91.24 90.345 90.6645 89.1393 90.7392C87.9335 90.8138 87.0852 91.4656 86.9449 91.3263C86.8781 91.2649 87.0033 90.9946 87.3724 90.6927C87.8727 90.3028 88.4824 90.0763 89.1176 90.0443C89.7446 90.0055 90.3678 90.1652 90.8978 90.5004C91.2852 90.7624 91.4272 91.0178 91.362 91.0858Z" fill="#263238"/>
<path d="M78.8026 92.2617C78.6723 92.416 77.7856 91.8421 76.5798 91.9151C75.3741 91.9881 74.5257 92.6415 74.3854 92.5022C74.3186 92.4408 74.4422 92.1705 74.813 91.8687C75.3131 91.4776 75.9225 91.2494 76.5581 91.2152C77.1854 91.1762 77.8089 91.3365 78.3383 91.673C78.7241 91.9383 78.8677 92.1937 78.8026 92.2617Z" fill="#263238"/>
<path d="M83.7105 100.889C83.7004 100.821 84.4436 100.647 85.6493 100.421C85.955 100.372 86.2422 100.294 86.2823 100.09C86.3224 99.8856 86.1921 99.5423 86.0217 99.194C85.6877 98.4709 85.3382 97.7125 84.973 96.9186C83.5101 93.6763 82.4312 91.0046 82.5632 90.9482C82.6951 90.8918 83.9877 93.4723 85.4506 96.7146C85.8047 97.514 86.142 98.2774 86.4626 99.0049C86.6012 99.3466 86.825 99.7297 86.6948 100.197C86.6564 100.308 86.5933 100.408 86.5103 100.49C86.4273 100.573 86.3265 100.635 86.2155 100.673C86.0474 100.729 85.8729 100.764 85.6961 100.776C84.477 100.906 83.7188 100.955 83.7105 100.889Z" fill="#263238"/>
<path d="M85.4772 115.21C85.4772 115.21 79.532 115.737 73.5 112.603C73.5 112.603 76.7615 118.843 85.5474 117.711L85.4772 115.21Z" fill="#995037"/>
<path d="M74.816 88.9313C74.963 89.1419 75.838 88.7787 76.9352 88.5415C78.0324 88.3044 78.976 88.243 79.0161 87.9909C79.0561 87.7388 78.0241 87.374 76.7365 87.6592C75.4489 87.9445 74.674 88.7406 74.816 88.9313Z" fill="#263238"/>
<path d="M86.7665 86.7739C86.8267 87.0194 87.817 86.9845 89.0044 87.0044C90.1917 87.0243 91.1754 87.0741 91.2455 86.8286C91.3156 86.5832 90.3303 86.1205 89.0144 86.1072C87.6984 86.094 86.7031 86.5401 86.7665 86.7739Z" fill="#263238"/>
<path d="M67.2376 122.915C67.1524 121.119 69.1815 113.296 69.9897 108.503C70.798 103.71 67.635 102.926 67.134 100.097C66.633 97.2672 68.0609 94.5722 68.0609 94.5722C72.6784 96.2141 74.5004 92.9502 77.0254 91.0148C79.6974 88.9583 80.292 86.4341 81.3875 83.2516C82.483 80.069 83.7589 78.0871 87.1306 77.7786C87.1306 77.7786 90.4255 79.4371 91.6212 82.8917C92.65 85.8769 93.4716 97.4944 93.4716 97.4944C93.9409 91.9203 98.4916 89.5786 97.2575 81.3808C96.7248 77.84 93.7705 73.0039 89.2064 72.2958C87.8838 72.0901 85.3788 71.9309 85.3788 71.9309C82.665 69.4897 81.329 69.5626 78.7205 68.4133C73.0959 65.9339 66.3324 70.362 62.5966 75.213C59.7226 78.9479 58.3281 84.0028 57.5482 88.756C57.0072 92.0513 57.0138 95.3998 57.3295 98.7233C57.5165 100.713 57.2727 103.213 55.3138 104.73C52.5232 106.886 51.7784 111.016 53.7156 116.515C55.6528 122.015 48.5186 131.357 48.5186 131.357C48.5186 131.357 51.9771 128.537 54.8646 127.078C57.752 125.619 67.2376 122.915 67.2376 122.915Z" fill="#263238"/>
<path d="M82.259 103.751C82.0504 103.527 81.7875 103.359 81.4952 103.264C81.2029 103.168 80.8909 103.149 80.589 103.207C80.3698 103.243 80.1603 103.322 79.9729 103.441C79.7855 103.559 79.6241 103.714 79.4984 103.895C79.2613 104.267 79.2429 104.769 79.5085 105.086C79.8057 105.443 80.3769 105.488 80.8445 105.317C81.3121 105.146 81.6978 104.804 82.0652 104.464C82.1728 104.377 82.2629 104.271 82.3308 104.151C82.3637 104.093 82.3785 104.028 82.3735 103.962C82.3684 103.896 82.3437 103.833 82.3024 103.781" fill="#995037"/>
<path d="M79.6107 102.232C79.7777 102.211 79.8562 103.289 80.8432 103.985C81.8301 104.682 82.9758 104.483 82.9958 104.625C83.0158 104.693 82.7536 104.854 82.266 104.904C81.6311 104.96 80.9965 104.792 80.4741 104.43C79.9723 104.081 79.6267 103.552 79.5105 102.955C79.4354 102.508 79.5356 102.232 79.6107 102.232Z" fill="#263238"/>
<path d="M41.4826 99.7761C41.516 99.7761 41.4492 100.216 41.5778 100.985C41.6557 101.45 41.8121 101.899 42.0403 102.312C42.3329 102.858 42.7901 103.299 43.348 103.574C43.6766 103.745 44.0386 103.843 44.409 103.861C44.7795 103.88 45.1496 103.819 45.4939 103.682C46.2287 103.365 46.7364 102.594 46.9318 101.712C47.1272 100.829 47.1255 99.8558 47.0871 98.8458C47.0487 97.8358 46.9902 96.7893 46.9869 95.7113C46.9635 93.5553 47.2691 91.449 48.1659 89.769C49.0193 88.0774 50.4772 86.8999 51.8933 86.5748C52.9979 86.2574 54.1809 86.3481 55.2233 86.8302C55.9397 87.205 56.2036 87.5782 56.2036 87.5782C56.1802 87.6064 55.8846 87.2631 55.1749 86.933C54.1519 86.5055 53.0105 86.4468 51.9485 86.7672C50.5941 87.0989 49.223 88.2399 48.4064 89.8851C47.5497 91.5203 47.2557 93.5768 47.2791 95.7046C47.2791 96.7727 47.3409 97.8175 47.3727 98.8308C47.4044 99.8441 47.4278 100.843 47.1923 101.771C46.9852 102.693 46.4191 103.556 45.5908 103.897C45.214 104.044 44.8095 104.107 44.4057 104.082C44.0019 104.057 43.6084 103.945 43.2528 103.753C42.6654 103.451 42.1892 102.972 41.8917 102.385C41.67 101.951 41.5259 101.483 41.4659 101C41.4014 100.594 41.407 100.18 41.4826 99.7761V99.7761Z" fill="#263238"/>
<path d="M54.3772 118.602C54.2026 118.472 54.0479 118.318 53.9179 118.144C53.544 117.639 53.3087 117.046 53.2349 116.424C53.1156 115.438 53.2928 114.438 53.7443 113.552C54.2453 112.507 55.127 111.503 56.1691 110.512C57.2112 109.52 58.4286 108.498 59.3421 107.102C60.289 105.714 60.5612 103.879 60.4243 102.012C60.3224 100.136 59.8615 98.171 59.9684 96.0764C59.9993 95.0064 60.2481 93.9537 60.6998 92.9817C61.2059 91.9864 62.0012 91.1648 62.9827 90.6234C64.945 89.5188 67.1343 89.2253 68.9363 88.2302C70.7566 87.2716 71.9289 85.5667 72.7773 83.9099C73.6256 82.2531 74.2552 80.5316 75.0518 79.0307C75.8484 77.5298 76.8203 76.2279 77.9993 75.3589C79.1784 74.4899 80.4943 74.0438 81.6733 74.1118C82.6755 74.168 83.6314 74.5496 84.3938 75.198C84.8791 75.5982 85.2432 76.124 85.4459 76.7172C85.5009 76.8689 85.5384 77.0264 85.5578 77.1865C85.5698 77.241 85.5748 77.2967 85.5728 77.3524C85.5494 77.3524 85.5427 77.1301 85.3908 76.7387C85.1691 76.1697 84.7998 75.6691 84.3203 75.2876C83.5683 74.6747 82.6368 74.3199 81.665 74.2759C80.5411 74.2262 79.2535 74.6607 78.1296 75.5264C77.0057 76.3921 76.0321 77.6526 75.2739 79.1452C74.5157 80.6378 73.8895 82.3327 73.0244 84.036C72.1594 85.7392 70.9753 87.4773 69.0732 88.4806C67.2178 89.4989 65.0184 89.8074 63.1347 90.8771C62.2018 91.3895 61.4455 92.1684 60.9637 93.1127C60.5287 94.0505 60.289 95.0659 60.2589 96.0979C60.147 98.1395 60.5929 100.098 60.6948 102.004C60.8317 103.893 60.5395 105.808 59.5492 107.238C58.5939 108.671 57.3448 109.681 56.3111 110.666C55.2773 111.651 54.3956 112.61 53.8912 113.626C53.4405 114.483 53.2519 115.452 53.3485 116.414C53.5505 118.026 54.4423 118.58 54.3772 118.602Z" fill="#375A64"/>
<path d="M56.6882 92.2634C56.5796 92.3264 56.0068 91.0527 56.3542 89.444C56.7015 87.8352 57.7252 86.8916 57.8004 86.9927C57.9139 87.0823 57.1324 88.0724 56.8318 89.5435C56.5095 91.0046 56.8284 92.2269 56.6882 92.2634Z" fill="#FAFAFA"/>
<path d="M59.7543 119.039C59.1023 123.69 60.0622 128.423 62.4764 132.461C63.3348 133.887 64.3986 135.236 65.8164 136.123C67.2342 137.01 69.0462 137.378 70.6143 136.796C72.1824 136.214 73.3631 134.549 73.0959 132.909C72.7168 130.587 69.8344 129.129 69.8194 126.773C70.8648 127.4 72.2843 128.003 73.2011 127.204C73.8224 126.66 73.8591 125.678 73.5468 124.917C73.2345 124.156 72.645 123.544 72.1323 122.898C71.0742 121.552 70.3025 120.006 69.8639 118.354C69.4253 116.702 69.3289 114.979 69.5806 113.289C69.7275 112.349 69.9797 109.455 69.9931 108.503C70.0064 107.551 69.7392 108.503 69.0128 107.879C68.2863 107.256 67.2543 107.146 66.3408 107.394C65.4273 107.641 64.6491 108.223 63.9727 108.866C62.8768 109.935 62.0209 111.222 61.4611 112.643C60.9013 114.063 60.6503 115.585 60.7246 117.109" fill="#263238"/>
<path d="M129.916 85.0972C129.684 85.5532 123.57 116.737 123.57 116.737L137.974 117.401L143.55 90.5834L129.916 85.0972Z" fill="#375A64"/>
<path d="M123.575 116.737L121.925 116.044L128.158 85.3061L130.113 85.1768L123.575 116.737Z" fill="#263238"/>
<path d="M135.706 91.9138C135.688 92.0591 135.714 92.2066 135.78 92.3374C135.846 92.4682 135.95 92.5766 136.078 92.6489C136.207 92.7212 136.354 92.754 136.501 92.7434C136.648 92.7328 136.789 92.6791 136.905 92.5891C137.022 92.4992 137.109 92.377 137.155 92.238C137.202 92.099 137.206 91.9494 137.167 91.8081C137.128 91.6669 137.047 91.5402 136.936 91.4442C136.825 91.3482 136.687 91.2871 136.541 91.2686C136.443 91.2563 136.344 91.2632 136.249 91.289C136.155 91.3148 136.066 91.359 135.988 91.4189C135.911 91.4789 135.846 91.5534 135.797 91.6383C135.749 91.7233 135.718 91.8169 135.706 91.9138V91.9138Z" fill="#263238"/>
<path d="M138.678 113.803L138.892 109.72L132.74 107.203L135.14 101.544C135.416 100.92 135.819 100.36 136.325 99.8986C136.83 99.4374 137.427 99.0853 138.076 98.8646C138.725 98.6439 139.414 98.5594 140.098 98.6164C140.782 98.6734 141.447 98.8707 142.05 99.1958L144.518 100.523C145.39 100.989 146.152 101.633 146.757 102.412C147.361 103.191 147.793 104.088 148.025 105.043C148.827 108.377 149.528 115.326 149.453 115.016" fill="#EAD5CE"/>
<path d="M150.703 114.765L148.557 163.771C147.391 167.41 144.832 170.448 141.431 172.229C141.407 172.245 141.382 172.259 141.356 172.271C139.255 173.359 136.921 173.928 134.552 173.929C130.711 173.941 127.017 172.324 124.213 169.712L105.898 152.615L105.8 152.519C105.703 152.422 105.531 152.252 105.299 152.005C102.906 149.517 94.0982 139.928 95.7148 134.79C95.8016 134.499 95.9085 134.223 96.0171 133.932C96.0705 133.783 96.1356 133.634 96.2007 133.483C97.9041 129.458 101.471 125.731 103.215 124.073C104.759 124.94 106.186 125.999 107.462 127.224L116.959 136.271L117.024 136.334L132.71 151.291L132.957 151.527L133.098 151.655L133.175 151.729L133.206 151.462V151.452L137.852 113.654L141.085 113.936L141.269 113.958L148.719 114.6L148.806 114.61L150.703 114.765Z" fill="#F3BD3C"/>
<path d="M148.797 116.502C148.71 117.571 148.538 118.429 148.42 118.429C148.301 118.429 148.279 117.54 148.376 116.469C148.451 115.56 148.58 114.799 148.71 114.596C148.72 114.563 148.732 114.542 148.754 114.542C148.775 114.542 148.786 114.563 148.797 114.606C148.877 114.832 148.877 115.595 148.797 116.502Z" fill="#263238"/>
<path d="M144.666 118.542C144.783 118.542 144.925 117.631 144.983 116.493C145.041 115.356 144.995 114.43 144.878 114.425C144.761 114.42 144.619 115.336 144.561 116.472C144.502 117.608 144.55 118.535 144.666 118.542Z" fill="#263238"/>
<path d="M141.265 116.019C141.2 117.283 141.05 118.299 140.931 118.299C140.813 118.299 140.781 117.261 140.845 115.998C140.876 115.306 140.956 114.617 141.082 113.936C141.125 113.798 141.158 113.722 141.19 113.722C141.222 113.722 141.255 113.808 141.265 113.958C141.321 114.644 141.321 115.333 141.265 116.019V116.019Z" fill="#263238"/>
<path d="M133.709 157.582C133.634 157.582 133.515 157.015 133.375 156.136C133.376 156.134 133.377 156.132 133.378 156.131C133.379 156.129 133.379 156.127 133.379 156.125C133.379 156.123 133.379 156.121 133.378 156.119C133.377 156.117 133.376 156.115 133.375 156.114C133.3 155.58 133.223 154.953 133.148 154.252C133.029 153.139 132.954 152.142 132.944 151.522C132.944 151.356 132.944 151.2 132.954 151.094C132.964 150.955 132.976 150.88 133.007 150.88C133.039 150.88 133.116 151.094 133.191 151.447V151.457C133.31 152.057 133.45 153.062 133.568 154.208C133.767 156.051 133.827 157.57 133.709 157.582Z" fill="#263238"/>
<path d="M105.8 152.519C105.703 152.422 105.531 152.252 105.299 152.005C105.144 149.414 104.633 146.857 103.779 144.404C103.099 142.498 102.518 141.384 102.593 141.342C102.637 141.342 102.797 141.609 103.068 142.09C103.46 142.795 103.806 143.525 104.101 144.274C105.078 146.763 105.65 149.39 105.795 152.058C105.8 152.218 105.8 152.369 105.8 152.519Z" fill="#263238"/>
<path d="M117.249 135.828C117.181 135.999 117.102 136.165 117.012 136.326C116.731 136.819 116.399 137.282 116.02 137.707C114.606 139.239 112.709 140.248 110.641 140.566C109.209 140.812 107.737 140.698 106.361 140.235C104.884 139.72 103.522 138.742 102.199 137.654C100.876 136.566 99.5321 135.367 97.8988 134.564C97.3022 134.268 96.6671 134.055 96.0117 133.932C96.0652 133.783 96.1303 133.634 96.1954 133.483C96.8612 133.621 97.5062 133.844 98.1143 134.146C99.8277 134.992 101.165 136.246 102.48 137.316C103.794 138.385 105.1 139.361 106.501 139.865C107.811 140.321 109.215 140.45 110.587 140.239C112.599 139.95 114.46 139.019 115.891 137.586C116.278 137.176 116.631 136.735 116.947 136.269C117.035 136.114 117.136 135.966 117.249 135.828V135.828Z" fill="#FAFAFA"/>
<path d="M141.449 172.624C141.403 172.51 141.37 172.392 141.352 172.271C141.287 171.98 141.185 171.521 141.071 170.899C140.834 169.808 140.532 168.181 139.724 166.35C139.285 165.36 138.692 164.446 137.967 163.64C137.147 162.708 136.089 162.013 134.904 161.628C133.665 161.232 132.252 161.2 130.798 161.222C129.343 161.243 127.792 161.307 126.237 160.9C124.682 160.494 123.348 159.593 122.249 158.63C121.15 157.666 120.19 156.585 119.273 155.611C117.483 153.663 115.576 152.089 113.623 151.618C111.671 151.147 110.001 151.661 109.114 152.293C108.228 152.925 107.972 153.523 107.907 153.523C107.885 153.523 107.95 153.374 108.102 153.105C108.347 152.735 108.653 152.41 109.007 152.142C109.903 151.435 111.648 150.847 113.707 151.286C115.766 151.726 117.783 153.362 119.605 155.311C120.542 156.286 121.481 157.325 122.569 158.267C123.658 159.209 124.907 160.054 126.364 160.423C129.296 161.161 132.376 160.293 135.048 161.204C136.3 161.618 137.415 162.364 138.273 163.36C139.013 164.207 139.61 165.169 140.039 166.207C140.838 168.103 141.075 169.741 141.258 170.851C141.344 171.418 141.399 171.846 141.425 172.146V172.211C141.453 172.347 141.461 172.486 141.449 172.624Z" fill="#FAFAFA"/>
<g opacity="0.3">
<path opacity="0.3" d="M133.375 156.114C133.376 156.115 133.377 156.117 133.378 156.119C133.379 156.121 133.379 156.123 133.379 156.125C133.379 156.127 133.379 156.129 133.378 156.131C133.377 156.133 133.376 156.134 133.375 156.136C133.329 156.829 133.225 157.517 133.062 158.192C133.003 158.533 132.87 158.858 132.673 159.144C132.571 159.285 132.43 159.392 132.267 159.453C132.104 159.515 131.926 159.526 131.756 159.487C131.347 159.37 131.153 158.909 131.057 158.502C130.752 157.255 130.742 155.956 131.026 154.704C131.31 153.452 131.881 152.283 132.695 151.286C132.706 151.263 132.72 151.241 132.738 151.222L132.932 151.018C132.944 151.039 132.944 151.072 132.954 151.094C133.007 151.277 133.05 151.462 133.082 151.649C133.417 153.113 133.515 154.62 133.375 156.114V156.114Z" fill="black"/>
</g>
</svg>
