<svg width="89" height="89" viewBox="0 0 89 89" fill="none" xmlns="http://www.w3.org/2000/svg">
<circle cx="44.5" cy="44.5" r="44.5" fill="#FF006E"/>
<path d="M25.9383 34.7845C29.1737 44.5842 33.8886 53.8259 39.9181 62.1861C40.4932 63.0163 41.2561 63.6976 42.1441 64.174C43.0322 64.6503 44.02 64.9081 45.0265 64.9263C45.7502 64.9282 46.4671 64.7854 47.1353 64.5061L56.0067 60.9439C56.2292 60.9282 56.4459 60.866 56.643 60.7612L56.843 60.6151L59.9335 59.3729C60.5037 59.1462 61.021 58.8032 61.4527 58.3655C61.8844 57.9278 62.221 57.4048 62.4414 56.8298C62.6618 56.2547 62.7611 55.6399 62.7331 55.0243C62.705 54.4087 62.5503 53.8057 62.2786 53.2532C60.6338 49.8358 58.3144 46.7903 55.4614 44.302C55.1863 44.085 54.8547 43.9524 54.5065 43.92C54.1582 43.8876 53.8081 43.9568 53.498 44.1193L49.4986 46.1836C49.4084 46.1672 49.3161 46.1672 49.2259 46.1836C49.135 46.1836 49.0805 46.3115 49.0077 46.3663L45.1901 48.3209C45.0083 48.4305 44.6447 48.3209 44.372 47.9556C42.4723 45.3424 40.9938 42.445 39.9908 39.3697C39.9195 39.2225 39.8969 39.0562 39.9263 38.8952C39.9557 38.7341 40.0357 38.5868 40.1545 38.4746L44.2084 36.3921L48.4624 34.2C48.8251 34.0145 49.1154 33.7121 49.2868 33.3411C49.4582 32.9702 49.5008 32.5521 49.4077 32.154C48.7295 28.9349 47.7745 25.781 46.5535 22.7279C46.2643 22.0626 45.835 21.4683 45.2952 20.9858C44.7554 20.5033 44.1179 20.1441 43.4267 19.9329C42.7068 19.7069 41.9464 19.6421 41.1989 19.743C40.4514 19.844 39.735 20.1084 39.1001 20.5175L28.1925 27.5323C27.0585 28.3091 26.2189 29.4479 25.8097 30.7643C25.4006 32.0807 25.4459 33.4973 25.9383 34.7845ZM54.0252 47.8825C56.1134 49.8957 57.8306 52.2644 59.0972 54.879C59.1702 55.067 59.1702 55.2756 59.0972 55.4636C59.0552 55.5661 58.9934 55.6592 58.9154 55.7376C58.8374 55.8159 58.7447 55.878 58.6427 55.9203L56.7157 56.7058L52.6072 48.668L54.0252 47.8825ZM41.936 23.3672H42.3723C42.5579 23.4273 42.7293 23.5246 42.8762 23.6534C43.0231 23.7822 43.1424 23.9396 43.2267 24.1162C44.202 26.5252 44.9743 29.0123 45.5355 31.5512L44.1721 32.2636L40.0636 24.2258L41.1361 23.5499C41.3782 23.4091 41.6571 23.3454 41.936 23.3672ZM30.1922 30.6743L36.9913 26.3266L40.918 33.9808L38.482 35.2412C37.5969 35.742 36.9163 36.5408 36.5604 37.4968C36.2045 38.4527 36.1961 39.5043 36.5368 40.4658C37.6678 43.9049 39.3236 47.1465 41.4452 50.0746C42.0271 50.9368 42.899 51.5593 43.9008 51.8277C44.9025 52.0961 45.967 51.9926 46.899 51.536L49.335 50.2756L53.2799 58.0028L45.79 61.017C45.2578 61.1895 44.6832 61.1771 44.1588 60.9815C43.6345 60.786 43.1909 60.4189 42.8995 59.9392C37.0907 51.9034 32.5302 43.0275 29.3742 33.6154C29.158 33.096 29.1211 32.5188 29.2694 31.9758C29.4176 31.4328 29.7425 30.9554 30.1922 30.6195V30.6743Z" fill="white"/>
</svg>
