<svg width="39" height="39" viewBox="0 0 39 39" fill="none" xmlns="http://www.w3.org/2000/svg">
<circle cx="19.813" cy="19.0771" r="18.9792" fill="#FFD748"/>
<path d="M27.6939 15.0637H11.3721V28.7424H27.6939V15.0637Z" fill="#FC992D"/>
<path d="M27.6939 15.0637H11.3721L12.797 12.2543H26.2689L27.6939 15.0637Z" fill="#DD7B19"/>
<path d="M26.2599 10.0022V12.2543H12.797V10.0022H18.5328C18.5328 10.5371 18.9688 10.9686 19.5038 10.9686C20.0342 10.9686 20.4702 10.5371 20.4702 10.0022H26.2599Z" fill="#C16614"/>
<path d="M19.5038 24.2741C21.053 24.2741 22.3088 23.0183 22.3088 21.4691C22.3088 19.92 21.053 18.6642 19.5038 18.6642C17.9547 18.6642 16.6989 19.92 16.6989 21.4691C16.6989 23.0183 17.9547 24.2741 19.5038 24.2741Z" fill="#038939"/>
<path d="M17.7732 19.9409L19.306 22.0581L23.4999 17.6169L19.306 23.5999L17.7732 19.9409Z" fill="white"/>
</svg>
