<svg width="40" height="39" viewBox="0 0 40 39" fill="none" xmlns="http://www.w3.org/2000/svg">
<circle cx="19.8453" cy="19.4269" r="19.329" fill="#FF550C"/>
<path d="M20.0251 33.2719C27.5721 33.2719 33.6903 27.1538 33.6903 19.6067C33.6903 12.0596 27.5721 5.94153 20.0251 5.94153C12.478 5.94153 6.35992 12.0596 6.35992 19.6067C6.35992 27.1538 12.478 33.2719 20.0251 33.2719Z" fill="#EAF4FF"/>
<path d="M20.0252 28.3587C24.8588 28.3587 28.7772 24.4403 28.7772 19.6067C28.7772 14.7731 24.8588 10.8547 20.0252 10.8547C15.1916 10.8547 11.2732 14.7731 11.2732 19.6067C11.2732 24.4403 15.1916 28.3587 20.0252 28.3587Z" fill="#E3F0FC"/>
<path d="M26.2824 19.2336C26.0172 19.3865 25.6845 19.2966 25.4058 19.1752C24.9968 18.9954 24.6147 18.7617 24.2551 18.5009C24.0123 18.3256 23.7741 18.1413 23.5448 17.9525C23.0279 17.53 22.5244 17.094 22.0345 16.6445C21.549 16.1949 21.077 15.7319 20.614 15.2555C20.3353 14.9678 20.0566 14.6756 19.7914 14.3699C19.6386 14.1991 19.4947 14.0238 19.3599 13.8395C19.1531 13.5653 18.9958 13.2956 18.9553 12.954C18.8924 12.4235 18.9059 11.8751 18.9373 11.3447C18.9418 11.2683 18.9463 11.1964 18.9508 11.1245C18.9868 10.6659 19.0812 10.1535 19.4633 9.90178C19.724 9.73097 20.0836 9.72647 20.3488 9.89279C20.614 10.0591 20.7624 10.3873 20.7174 10.6974C20.6949 10.8368 20.641 10.9671 20.641 11.102C20.641 11.3987 20.8882 11.6324 21.1175 11.8257C21.1984 11.8931 21.2838 11.965 21.3872 11.983C21.4771 11.9965 21.5715 11.9695 21.6569 11.9381C22.4121 11.6504 22.983 11.0166 23.4325 10.3423C23.7067 9.92875 24.0258 9.44328 24.5203 9.40732C24.8259 9.38484 25.1136 9.55116 25.3609 9.73996C25.6755 9.98269 25.9767 10.3018 26.0396 10.6974C26.0981 11.057 25.9542 11.4211 25.7519 11.7223C25.5497 12.0235 25.2845 12.2752 25.0597 12.5629C24.8125 12.8731 24.6147 13.2192 24.4708 13.5878C24.4304 13.6867 24.3944 13.799 24.4259 13.9069C24.4574 14.0103 24.5428 14.0822 24.6282 14.1452C25.2934 14.6396 26.1655 14.8419 26.9791 14.6936C27.3792 14.6217 27.8557 14.4868 28.1434 14.779C28.2288 14.8644 28.2827 14.9768 28.3321 15.0847C28.4086 15.2555 28.485 15.4308 28.5614 15.6016C28.6828 15.8893 28.7951 16.2354 28.6243 16.4961C28.4535 16.7568 28.0804 16.8018 27.7747 16.7254C27.5095 16.6624 27.2668 16.5366 27.0151 16.4377C26.7633 16.3388 26.4846 16.2759 26.2194 16.3343C25.9542 16.3927 25.7115 16.6175 25.7025 16.8872C25.6935 17.103 25.8284 17.2963 25.9632 17.4626C26.1835 17.7323 26.4307 17.9885 26.5431 18.3121C26.642 18.6403 26.579 19.0628 26.2824 19.2336Z" fill="#038939"/>
<path d="M24.2596 18.4965C24.2596 18.4965 24.2551 18.4965 24.2551 18.501C24.0123 18.3256 23.7741 18.1413 23.5449 17.9525C23.0279 17.53 22.5245 17.094 22.0345 16.6445C21.549 16.195 21.077 15.732 20.614 15.2555C20.3353 14.9678 20.0566 14.6756 19.7914 14.3699C19.7824 14.1002 19.715 13.8395 19.6701 13.5788C19.6656 13.5473 19.6611 13.5204 19.6566 13.4889C19.6116 13.1158 19.6341 12.7337 19.733 12.3696C19.769 12.2392 19.8319 12.0909 19.9667 12.0639C20.151 12.0235 20.2814 12.2437 20.3263 12.428C20.3893 12.6708 20.4208 12.9225 20.5286 13.1518C20.632 13.381 20.8208 13.5878 21.068 13.6327C21.2703 13.6687 21.4681 13.5833 21.6524 13.4889C21.9491 13.3316 22.2188 13.1338 22.457 12.9C22.5964 12.7652 22.7223 12.6168 22.8796 12.5045C23.0369 12.3921 23.2347 12.3202 23.4235 12.3606C23.3246 12.6618 23.0953 12.8955 22.8931 13.1338C22.6908 13.372 22.4975 13.6552 22.4885 13.9699C22.4885 14.0508 22.502 14.1362 22.5514 14.1991C22.5829 14.2396 22.6278 14.2665 22.6728 14.2935C23.0414 14.5093 23.455 14.6441 23.8775 14.6891C24.1382 14.7206 24.4079 14.7116 24.6551 14.806C24.9024 14.8959 25.1271 15.1161 25.1181 15.3813C25.1137 15.5522 25.0148 15.705 24.8799 15.8084C24.7451 15.9118 24.5787 15.9612 24.4169 15.9972C24.309 16.0196 24.2011 16.0331 24.1067 16.0871C24.0123 16.141 23.9314 16.2354 23.9404 16.3478C23.9494 16.4332 24.0079 16.5051 24.0618 16.5636C24.1967 16.7074 24.345 16.8378 24.5068 16.9456C24.7046 17.0805 24.9473 17.2243 24.9833 17.4626C25.0103 17.6514 24.8889 17.8267 24.781 17.9795C24.6327 18.1728 24.4798 18.3796 24.2596 18.4965Z" fill="#006328"/>
<path d="M23.7201 19.6157C28.3546 23.5354 23.2931 21.7104 22.021 22.3847C20.1645 23.3646 19.5262 26.0662 17.2696 26.0662C15.3457 26.0662 13.2465 26.5382 12.0643 25.2031C11.0574 24.0658 10.8236 21.2519 10.8236 19.6157C10.8236 18.0604 12.9633 17.7997 13.8803 16.6894C15.0625 15.2509 15.2648 13.1697 17.2696 13.1697C19.4947 13.1697 21.4546 14.298 22.6143 16.0106C23.3156 17.0355 22.6997 18.7526 23.7201 19.6157Z" fill="white"/>
<path d="M18.3441 15.5252C18.6718 15.5252 18.9374 15.4688 18.9374 15.3993C18.9374 15.3298 18.6718 15.2734 18.3441 15.2734C18.0164 15.2734 17.7507 15.3298 17.7507 15.3993C17.7507 15.4688 18.0164 15.5252 18.3441 15.5252Z" fill="#EAEDEF"/>
<path d="M14.9457 18.901C15.2735 18.901 15.5391 18.8447 15.5391 18.7752C15.5391 18.7056 15.2735 18.6493 14.9457 18.6493C14.618 18.6493 14.3524 18.7056 14.3524 18.7752C14.3524 18.8447 14.618 18.901 14.9457 18.901Z" fill="#EAEDEF"/>
<path d="M18.5553 17.476C18.8831 17.476 19.1487 17.4196 19.1487 17.3501C19.1487 17.2806 18.8831 17.2242 18.5553 17.2242C18.2276 17.2242 17.962 17.2806 17.962 17.3501C17.962 17.4196 18.2276 17.476 18.5553 17.476Z" fill="#EAEDEF"/>
<path d="M17.9619 21.2475C18.2896 21.2475 18.5553 21.1911 18.5553 21.1216C18.5553 21.0521 18.2896 20.9957 17.9619 20.9957C17.6342 20.9957 17.3686 21.0521 17.3686 21.1216C17.3686 21.1911 17.6342 21.2475 17.9619 21.2475Z" fill="#EAEDEF"/>
<path d="M14.3479 21.9757C14.6756 21.9757 14.9412 21.9194 14.9412 21.8499C14.9412 21.7804 14.6756 21.724 14.3479 21.724C14.0202 21.724 13.7545 21.7804 13.7545 21.8499C13.7545 21.9194 14.0202 21.9757 14.3479 21.9757Z" fill="#EAEDEF"/>
<path d="M12.7296 19.7821C13.0573 19.7821 13.323 19.7258 13.323 19.6563C13.323 19.5867 13.0573 19.5304 12.7296 19.5304C12.4019 19.5304 12.1362 19.5867 12.1362 19.6563C12.1362 19.7258 12.4019 19.7821 12.7296 19.7821Z" fill="#EAEDEF"/>
<path d="M21.4187 21.2475C21.7464 21.2475 22.0121 21.1911 22.0121 21.1216C22.0121 21.0521 21.7464 20.9957 21.4187 20.9957C21.091 20.9957 20.8254 21.0521 20.8254 21.1216C20.8254 21.1911 21.091 21.2475 21.4187 21.2475Z" fill="#EAEDEF"/>
<path d="M16.5909 24.322C16.9186 24.322 17.1843 24.2657 17.1843 24.1962C17.1843 24.1267 16.9186 24.0703 16.5909 24.0703C16.2632 24.0703 15.9976 24.1267 15.9976 24.1962C15.9976 24.2657 16.2632 24.322 16.5909 24.322Z" fill="#EAEDEF"/>
<path d="M22.9156 28.741C22.6908 29.2264 22.1199 29.4377 21.6345 29.2129C21.4187 29.114 21.2569 28.9477 21.167 28.7454C20.9557 28.8039 20.7219 28.7904 20.5062 28.6915C20.0207 28.4668 19.8094 27.8959 20.0342 27.4104C20.2589 26.9249 21.1625 26.9744 21.567 26.6282C22.6279 25.7247 22.8257 23.8593 22.8257 23.8593L23.8101 24.3133C23.8101 24.3133 22.5155 25.6708 22.5155 27.0688C22.5155 27.5992 23.1403 28.2555 22.9156 28.741Z" fill="#FCC3E0"/>
<path d="M27.7569 21.3914C26.714 23.6434 24.2192 25.9539 22.7673 25.2796C21.3154 24.6099 21.4592 21.2115 22.5021 18.9595C23.5449 16.7074 25.5632 15.4263 27.0152 16.0961C28.4671 16.7659 28.7997 19.1393 27.7569 21.3914Z" fill="#C95600"/>
</svg>
