<svg width="40" height="39" viewBox="0 0 40 39" fill="none" xmlns="http://www.w3.org/2000/svg">
<circle cx="19.875" cy="19.3527" r="19.329" fill="#35A500"/>
<path d="M12.3007 15.9363L14.5437 20.4808L19.5603 21.2091L15.9327 24.7467L16.7868 29.7453L12.3007 27.3853L7.81453 29.7453L8.67309 24.7467L5.04104 21.2091L10.0576 20.4808L12.3007 15.9363Z" fill="#FCCC00"/>
<path d="M27.638 15.9363L29.8811 20.4808L34.9021 21.2091L31.2701 24.7467L32.1286 29.7453L27.638 27.3853L23.1519 29.7453L24.0105 24.7467L20.3784 21.2091L25.395 20.4808L27.638 15.9363Z" fill="#FCCC00"/>
<path d="M20.3784 4.96838L22.6215 9.51295L27.638 10.2457L24.0104 13.7833L24.8645 18.7774L20.3784 16.4175L15.8923 18.7774L16.7508 13.7833L13.1188 10.2457L18.1353 9.51295L20.3784 4.96838Z" fill="#FCCC00"/>
</svg>
