<svg width="20" height="10" viewBox="0 0 20 10" fill="none" xmlns="http://www.w3.org/2000/svg">
<path d="M4.06641 4.22461H6.18164V5.75391H4.06641V8.14453H2.45508V5.75391H0.333984V4.22461H2.45508V1.93359H4.06641V4.22461ZM11.7246 0.380859V1.77539H11.5605C10.7949 1.78711 10.1777 1.98633 9.70898 2.37305C9.24414 2.75977 8.96484 3.29688 8.87109 3.98438C9.32422 3.52344 9.89648 3.29297 10.5879 3.29297C11.3301 3.29297 11.9199 3.55859 12.3574 4.08984C12.7949 4.62109 13.0137 5.32031 13.0137 6.1875C13.0137 6.74219 12.8926 7.24414 12.6504 7.69336C12.4121 8.14258 12.0723 8.49219 11.6309 8.74219C11.1934 8.99219 10.6973 9.11719 10.1426 9.11719C9.24414 9.11719 8.51758 8.80469 7.96289 8.17969C7.41211 7.55469 7.13672 6.7207 7.13672 5.67773V5.06836C7.13672 4.14258 7.31055 3.32617 7.6582 2.61914C8.00977 1.9082 8.51172 1.35938 9.16406 0.972656C9.82031 0.582031 10.5801 0.384766 11.4434 0.380859H11.7246ZM10.0723 4.65234C9.79883 4.65234 9.55078 4.72461 9.32812 4.86914C9.10547 5.00977 8.94141 5.19727 8.83594 5.43164V5.94727C8.83594 6.51367 8.94727 6.95703 9.16992 7.27734C9.39258 7.59375 9.70508 7.75195 10.1074 7.75195C10.4707 7.75195 10.7637 7.60938 10.9863 7.32422C11.2129 7.03516 11.3262 6.66211 11.3262 6.20508C11.3262 5.74023 11.2129 5.36523 10.9863 5.08008C10.7598 4.79492 10.4551 4.65234 10.0723 4.65234ZM19.8691 9H14.0215V7.83984L16.7812 4.89844C17.1602 4.48438 17.4395 4.12305 17.6191 3.81445C17.8027 3.50586 17.8945 3.21289 17.8945 2.93555C17.8945 2.55664 17.7988 2.25977 17.6074 2.04492C17.416 1.82617 17.1426 1.7168 16.7871 1.7168C16.4043 1.7168 16.1016 1.84961 15.8789 2.11523C15.6602 2.37695 15.5508 2.72266 15.5508 3.15234H13.8516C13.8516 2.63281 13.9746 2.1582 14.2207 1.72852C14.4707 1.29883 14.8223 0.962891 15.2754 0.720703C15.7285 0.474609 16.2422 0.351562 16.8164 0.351562C17.6953 0.351562 18.377 0.5625 18.8613 0.984375C19.3496 1.40625 19.5938 2.00195 19.5938 2.77148C19.5938 3.19336 19.4844 3.62305 19.2656 4.06055C19.0469 4.49805 18.6719 5.00781 18.1406 5.58984L16.2012 7.63477H19.8691V9Z" fill="white"/>
</svg>
