<svg width="34" height="34" viewBox="0 0 34 34" fill="none" xmlns="http://www.w3.org/2000/svg">
<path d="M15.3334 15.3335V8.66683H18.6667V15.3335H25.3334V18.6668H18.6667V25.3335H15.3334V18.6668H8.66671V15.3335H15.3334ZM17 33.6668C7.79504 33.6668 0.333374 26.2052 0.333374 17.0002C0.333374 7.79516 7.79504 0.333496 17 0.333496C26.205 0.333496 33.6667 7.79516 33.6667 17.0002C33.6667 26.2052 26.205 33.6668 17 33.6668ZM17 30.3335C20.5363 30.3335 23.9276 28.9287 26.4281 26.4283C28.9286 23.9278 30.3334 20.5364 30.3334 17.0002C30.3334 13.4639 28.9286 10.0726 26.4281 7.57207C23.9276 5.07159 20.5363 3.66683 17 3.66683C13.4638 3.66683 10.0724 5.07159 7.57195 7.57207C5.07147 10.0726 3.66671 13.4639 3.66671 17.0002C3.66671 20.5364 5.07147 23.9278 7.57195 26.4283C10.0724 28.9287 13.4638 30.3335 17 30.3335Z" fill="#FF006E"/>
</svg>
