<svg width="40" height="40" viewBox="0 0 40 40" fill="none" xmlns="http://www.w3.org/2000/svg">
<path d="M18.3335 18.3333V11.6667H21.6668V18.3333H28.3335V21.6667H21.6668V28.3333H18.3335V21.6667H11.6668V18.3333H18.3335ZM20.0002 36.6667C10.7952 36.6667 3.3335 29.205 3.3335 20C3.3335 10.795 10.7952 3.33334 20.0002 3.33334C29.2052 3.33334 36.6668 10.795 36.6668 20C36.6668 29.205 29.2052 36.6667 20.0002 36.6667ZM20.0002 33.3333C23.5364 33.3333 26.9278 31.9286 29.4283 29.4281C31.9287 26.9276 33.3335 23.5362 33.3335 20C33.3335 16.4638 31.9287 13.0724 29.4283 10.5719C26.9278 8.07143 23.5364 6.66668 20.0002 6.66668C16.4639 6.66668 13.0726 8.07143 10.5721 10.5719C8.07159 13.0724 6.66683 16.4638 6.66683 20C6.66683 23.5362 8.07159 26.9276 10.5721 29.4281C13.0726 31.9286 16.4639 33.3333 20.0002 33.3333Z" fill="#FFB014"/>
</svg>
