<svg width="48" height="48" viewBox="0 0 48 48" fill="none" xmlns="http://www.w3.org/2000/svg">
<circle cx="24" cy="24" r="24" fill="white" fill-opacity="0.38"/>
<path d="M17.6 18.7427V16.457C17.6 14.9414 18.202 13.488 19.2737 12.4164C20.3453 11.3447 21.7988 10.7427 23.3143 10.7427C24.8298 10.7427 26.2833 11.3447 27.3549 12.4164C28.4265 13.488 29.0286 14.9414 29.0286 16.457V18.7427H32.4571C32.7602 18.7427 33.0509 18.8631 33.2653 19.0774C33.4796 19.2917 33.6 19.5824 33.6 19.8855V33.5998C33.6 33.9029 33.4796 34.1936 33.2653 34.4079C33.0509 34.6223 32.7602 34.7427 32.4571 34.7427H14.1714C13.8683 34.7427 13.5776 34.6223 13.3633 34.4079C13.149 34.1936 13.0286 33.9029 13.0286 33.5998V19.8855C13.0286 19.5824 13.149 19.2917 13.3633 19.0774C13.5776 18.8631 13.8683 18.7427 14.1714 18.7427H17.6ZM17.6 21.0284H15.3143V32.457H31.3143V21.0284H29.0286V23.3141H26.7428V21.0284H19.8857V23.3141H17.6V21.0284ZM19.8857 18.7427H26.7428V16.457C26.7428 15.5476 26.3816 14.6756 25.7386 14.0326C25.0957 13.3896 24.2236 13.0284 23.3143 13.0284C22.405 13.0284 21.5329 13.3896 20.8899 14.0326C20.2469 14.6756 19.8857 15.5476 19.8857 16.457V18.7427Z" fill="white"/>
</svg>
