<svg width="48" height="48" viewBox="0 0 48 48" fill="none" xmlns="http://www.w3.org/2000/svg">
<circle cx="24" cy="24" r="24" fill="black" fill-opacity="0.2"/>
<path d="M17.6007 18.743V16.4573C17.6007 14.9417 18.2028 13.4883 19.2744 12.4167C20.346 11.345 21.7995 10.743 23.315 10.743C24.8305 10.743 26.284 11.345 27.3556 12.4167C28.4273 13.4883 29.0293 14.9417 29.0293 16.4573V18.743H32.4579C32.761 18.743 33.0517 18.8634 33.266 19.0777C33.4803 19.292 33.6007 19.5827 33.6007 19.8858V33.6001C33.6007 33.9032 33.4803 34.1939 33.266 34.4082C33.0517 34.6226 32.761 34.743 32.4579 34.743H14.1722C13.869 34.743 13.5784 34.6226 13.364 34.4082C13.1497 34.1939 13.0293 33.9032 13.0293 33.6001V19.8858C13.0293 19.5827 13.1497 19.292 13.364 19.0777C13.5784 18.8634 13.869 18.743 14.1722 18.743H17.6007ZM17.6007 21.0287H15.315V32.4573H31.315V21.0287H29.0293V23.3144H26.7436V21.0287H19.8864V23.3144H17.6007V21.0287ZM19.8864 18.743H26.7436V16.4573C26.7436 15.548 26.3824 14.6759 25.7394 14.0329C25.0964 13.3899 24.2243 13.0287 23.315 13.0287C22.4057 13.0287 21.5336 13.3899 20.8906 14.0329C20.2477 14.6759 19.8864 15.548 19.8864 16.4573V18.743Z" fill="white"/>
</svg>
