<svg width="18" height="16" viewBox="0 0 18 16" fill="none" xmlns="http://www.w3.org/2000/svg">
<path d="M1.92817 0.0410156H16.1113L17.8842 3.58681V15.1106C17.8842 15.3457 17.7908 15.5712 17.6246 15.7374C17.4584 15.9037 17.2329 15.9971 16.9978 15.9971H1.04172C0.806621 15.9971 0.581149 15.9037 0.414908 15.7374C0.248667 15.5712 0.155273 15.3457 0.155273 15.1106V3.59035L1.92817 0.0410156ZM16.1113 5.3597H1.92817V14.2242H16.1113V5.3597ZM15.9021 3.58681L15.0157 1.81391H3.02471L2.13826 3.58681H15.9021ZM9.9062 9.79194H12.5655L9.01975 13.3377L5.47396 9.79194H8.13331V6.24615H9.9062V9.79194Z" fill="white"/>
</svg>
