<svg width="21" height="20" viewBox="0 0 21 20" fill="none" xmlns="http://www.w3.org/2000/svg">
<path fill-rule="evenodd" clip-rule="evenodd" d="M9.37227 1.39502V11.6192L7.73769 9.97908L7.65372 9.90629C7.36056 9.68783 6.94384 9.71118 6.67703 9.9769C6.38354 10.2692 6.38256 10.7441 6.67485 11.0376L9.59085 13.9656L9.59312 13.9675C9.61776 13.9921 9.64409 14.0149 9.67194 14.0358L9.67507 14.0385C9.96912 14.2575 10.3872 14.2331 10.6537 13.9656L13.5697 11.0376L13.6421 10.9533C13.8594 10.6592 13.8343 10.2426 13.5675 9.9769L13.4832 9.90446C13.1892 9.68721 12.7726 9.71227 12.5069 9.97908L10.8723 11.6197V1.39502L10.8654 1.29325C10.8158 0.927173 10.502 0.64502 10.1223 0.64502C9.70806 0.64502 9.37227 0.980806 9.37227 1.39502ZM15.9054 19.1171C18.2529 19.0084 20.1221 17.0713 20.1221 14.6969V9.81292L20.1172 9.60409C20.0083 7.25109 18.0675 5.37792 15.6881 5.37792H14.7551L14.6533 5.38477C14.2872 5.43443 14.0051 5.74822 14.0051 6.12792C14.0051 6.54213 14.3409 6.87792 14.7551 6.87792H15.6881L15.8605 6.8829C17.4011 6.97212 18.6221 8.24917 18.6221 9.81292V14.6969L18.6171 14.8688C18.5282 16.4046 17.2551 17.6219 15.6971 17.6219H4.55707L4.38463 17.6169C2.84409 17.5277 1.62207 16.2498 1.62207 14.6869V9.80192L1.62704 9.63015C1.71603 8.09552 2.98971 6.87792 4.54707 6.87792H5.48907L5.59084 6.87107C5.95692 6.82141 6.23907 6.50762 6.23907 6.12792C6.23907 5.71371 5.90328 5.37792 5.48907 5.37792H4.54707L4.33272 5.38302C1.98888 5.49484 0.12207 7.43069 0.12207 9.80192V14.6869L0.126898 14.8957C0.235922 17.248 2.17783 19.1219 4.55707 19.1219H15.6971L15.9054 19.1171Z" fill="white"/>
</svg>
