<svg width="17" height="8" viewBox="0 0 17 8" fill="none" xmlns="http://www.w3.org/2000/svg">
<path d="M16.4597 3.39733C16.4392 3.35726 16.4147 3.31937 16.3866 3.28424C16.3691 3.24956 16.3491 3.21621 16.3267 3.18446C13.5062 0.237549 9.00929 0.230896 8.68334 0.230896C8.36403 0.230896 3.86051 0.230896 1.03999 3.18446C1.01761 3.21621 0.997601 3.24956 0.98012 3.28424C0.951965 3.31937 0.927448 3.35726 0.906946 3.39733C0.903845 3.43718 0.903845 3.47722 0.906946 3.51707C0.903739 3.55914 0.903739 3.60139 0.906946 3.64346C0.903739 3.68553 0.903739 3.72778 0.906946 3.76985C0.903845 3.80971 0.903845 3.84974 0.906946 3.88959C0.927448 3.92967 0.951965 3.96756 0.98012 4.00268C0.997601 4.03736 1.01761 4.07071 1.03999 4.10246C3.78068 6.9629 8.12455 7.05603 8.65673 7.05603H8.73655C9.26873 7.05603 13.6126 6.9629 16.3533 4.10246C16.3757 4.07071 16.3957 4.03736 16.4132 4.00268C16.4413 3.96756 16.4658 3.92967 16.4863 3.88959C16.4894 3.84974 16.4894 3.80971 16.4863 3.76985C16.4895 3.72778 16.4895 3.68553 16.4863 3.64346C16.4895 3.60139 16.4895 3.55914 16.4863 3.51707C16.4807 3.47651 16.4718 3.43648 16.4597 3.39733ZM5.64995 5.29985C4.46417 4.98544 3.35951 4.42064 2.41034 3.64346C3.3579 2.86383 4.46312 2.29874 5.64995 1.98707C5.3625 2.49214 5.20907 3.06235 5.20425 3.64346C5.20544 4.22506 5.35912 4.79619 5.64995 5.29985ZM10.7189 4.03594C10.644 4.42215 10.4619 4.77948 10.1934 5.06703C9.99598 5.28022 9.75602 5.44959 9.48902 5.56418C9.22203 5.67877 8.93395 5.73603 8.64342 5.73224C8.3665 5.73224 8.09229 5.6777 7.83644 5.57173C7.5806 5.46575 7.34813 5.31042 7.15232 5.11461C6.95651 4.91879 6.80118 4.68633 6.6952 4.43049C6.58923 4.17464 6.53468 3.90043 6.53468 3.62351C6.53468 3.34658 6.58923 3.07237 6.6952 2.81653C6.80118 2.56068 6.95651 2.32822 7.15232 2.1324C7.34813 1.93659 7.5806 1.78126 7.83644 1.67528C8.09229 1.56931 8.3665 1.51477 8.64342 1.51477C9.20507 1.51828 9.74241 1.74432 10.1377 2.14334C10.533 2.54236 10.7539 3.08181 10.7522 3.64346C10.7513 3.77495 10.7402 3.90617 10.7189 4.03594ZM11.6436 5.29985C11.9355 4.79422 12.0892 4.22066 12.0892 3.63681C12.0892 3.05296 11.9355 2.47939 11.6436 1.97377C12.8284 2.29225 13.9309 2.86167 14.8765 3.64346C13.9297 4.42049 12.8273 4.98533 11.6436 5.29985Z" fill="#1C2645"/>
</svg>
