<svg width="22" height="22" viewBox="0 0 22 22" fill="none" xmlns="http://www.w3.org/2000/svg">
<path d="M10.6436 9.45941C10.4094 9.45941 10.1804 9.52886 9.98572 9.65897C9.79099 9.78908 9.63923 9.974 9.54961 10.1904C9.45999 10.4067 9.43654 10.6448 9.48223 10.8745C9.52791 11.1042 9.64069 11.3152 9.80628 11.4808C9.97188 11.6464 10.1829 11.7591 10.4126 11.8048C10.6422 11.8505 10.8803 11.8271 11.0967 11.7375C11.3131 11.6478 11.498 11.4961 11.6281 11.3013C11.7582 11.1066 11.8276 10.8777 11.8276 10.6435C11.8276 10.3295 11.7029 10.0283 11.4808 9.80622C11.2588 9.58416 10.9576 9.45941 10.6436 9.45941ZM10.4972 10.6435C10.4972 10.6047 10.5126 10.5675 10.5401 10.54C10.5675 10.5126 10.6047 10.4972 10.6436 10.4972C10.6824 10.4972 10.7196 10.5126 10.747 10.54C10.7745 10.5675 10.7899 10.6047 10.7899 10.6435C10.7899 10.8098 10.4972 10.8098 10.4972 10.6435Z" fill="#1C2645"/>
<path d="M18.4597 10.3973C18.4392 10.3573 18.4147 10.3194 18.3866 10.2842C18.3691 10.2496 18.3491 10.2162 18.3267 10.1845C15.5062 7.23755 11.0093 7.2309 10.6833 7.2309C10.364 7.2309 5.86051 7.2309 3.03999 10.1845C3.01761 10.2162 2.9976 10.2496 2.98012 10.2842C2.95197 10.3194 2.92745 10.3573 2.90695 10.3973C2.90384 10.4372 2.90384 10.4772 2.90695 10.5171C2.90374 10.5591 2.90374 10.6014 2.90695 10.6435C2.90374 10.6855 2.90374 10.7278 2.90695 10.7699C2.90384 10.8097 2.90384 10.8497 2.90695 10.8896C2.92745 10.9297 2.95197 10.9676 2.98012 11.0027C2.9976 11.0374 3.01761 11.0707 3.03999 11.1025C5.78068 13.9629 10.1246 14.056 10.6567 14.056H10.7366C11.2687 14.056 15.6126 13.9629 18.3533 11.1025C18.3757 11.0707 18.3957 11.0374 18.4132 11.0027C18.4413 10.9676 18.4658 10.9297 18.4863 10.8896C18.4894 10.8497 18.4894 10.8097 18.4863 10.7699C18.4895 10.7278 18.4895 10.6855 18.4863 10.6435C18.4895 10.6014 18.4895 10.5591 18.4863 10.5171C18.4807 10.4765 18.4718 10.4365 18.4597 10.3973ZM7.64995 12.2999C6.46417 11.9854 5.35951 11.4206 4.41034 10.6435C5.3579 9.86383 6.46312 9.29874 7.64995 8.98707C7.3625 9.49214 7.20907 10.0623 7.20425 10.6435C7.20544 11.2251 7.35912 11.7962 7.64995 12.2999ZM12.7189 11.0359C12.644 11.4222 12.4619 11.7795 12.1934 12.067C11.996 12.2802 11.756 12.4496 11.489 12.5642C11.222 12.6788 10.9339 12.736 10.6434 12.7322C10.3665 12.7322 10.0923 12.6777 9.83644 12.5717C9.5806 12.4658 9.34813 12.3104 9.15232 12.1146C8.95651 11.9188 8.80118 11.6863 8.6952 11.4305C8.58923 11.1746 8.53468 10.9004 8.53468 10.6235C8.53468 10.3466 8.58923 10.0724 8.6952 9.81653C8.80118 9.56068 8.95651 9.32822 9.15232 9.1324C9.34813 8.93659 9.5806 8.78126 9.83644 8.67528C10.0923 8.56931 10.3665 8.51477 10.6434 8.51477C11.2051 8.51828 11.7424 8.74432 12.1377 9.14334C12.533 9.54236 12.7539 10.0818 12.7522 10.6435C12.7513 10.775 12.7402 10.9062 12.7189 11.0359ZM13.6436 12.2999C13.9355 11.7942 14.0892 11.2207 14.0892 10.6368C14.0892 10.053 13.9355 9.47939 13.6436 8.97377C14.8284 9.29225 15.9309 9.86167 16.8765 10.6435C15.9297 11.4205 14.8273 11.9853 13.6436 12.2999Z" fill="#1C2645"/>
<path d="M1.5 18.5L19 1.5" stroke="#1C2645" stroke-linecap="round"/>
</svg>
