<svg width="26" height="26" viewBox="0 0 26 26" fill="none" xmlns="http://www.w3.org/2000/svg">
<path d="M5.7125 20.5001C5.97075 19.7682 6.44967 19.1344 7.08325 18.6861C7.71683 18.2378 8.47386 17.9971 9.25 17.9971C10.0261 17.9971 10.7832 18.2378 11.4167 18.6861C12.0503 19.1344 12.5292 19.7682 12.7875 20.5001H25.5V23.0001H12.7875C12.5292 23.732 12.0503 24.3658 11.4167 24.8141C10.7832 25.2625 10.0261 25.5032 9.25 25.5032C8.47386 25.5032 7.71683 25.2625 7.08325 24.8141C6.44967 24.3658 5.97075 23.732 5.7125 23.0001H0.5V20.5001H5.7125ZM13.2125 11.7501C13.4708 11.0182 13.9497 10.3844 14.5833 9.93612C15.2168 9.48781 15.9739 9.24707 16.75 9.24707C17.5261 9.24707 18.2832 9.48781 18.9167 9.93612C19.5503 10.3844 20.0292 11.0182 20.2875 11.7501H25.5V14.2501H20.2875C20.0292 14.982 19.5503 15.6158 18.9167 16.0641C18.2832 16.5125 17.5261 16.7532 16.75 16.7532C15.9739 16.7532 15.2168 16.5125 14.5833 16.0641C13.9497 15.6158 13.4708 14.982 13.2125 14.2501H0.5V11.7501H13.2125ZM5.7125 3.00013C5.97075 2.26822 6.44967 1.63443 7.08325 1.18612C7.71683 0.737815 8.47386 0.49707 9.25 0.49707C10.0261 0.49707 10.7832 0.737815 11.4167 1.18612C12.0503 1.63443 12.5292 2.26822 12.7875 3.00013H25.5V5.50013H12.7875C12.5292 6.23205 12.0503 6.86584 11.4167 7.31415C10.7832 7.76245 10.0261 8.0032 9.25 8.0032C8.47386 8.0032 7.71683 7.76245 7.08325 7.31415C6.44967 6.86584 5.97075 6.23205 5.7125 5.50013H0.5V3.00013H5.7125ZM9.25 5.50013C9.58152 5.50013 9.89946 5.36844 10.1339 5.13402C10.3683 4.8996 10.5 4.58165 10.5 4.25013C10.5 3.91861 10.3683 3.60067 10.1339 3.36625C9.89946 3.13183 9.58152 3.00013 9.25 3.00013C8.91848 3.00013 8.60054 3.13183 8.36612 3.36625C8.1317 3.60067 8 3.91861 8 4.25013C8 4.58165 8.1317 4.8996 8.36612 5.13402C8.60054 5.36844 8.91848 5.50013 9.25 5.50013ZM16.75 14.2501C17.0815 14.2501 17.3995 14.1184 17.6339 13.884C17.8683 13.6496 18 13.3317 18 13.0001C18 12.6686 17.8683 12.3507 17.6339 12.1163C17.3995 11.8818 17.0815 11.7501 16.75 11.7501C16.4185 11.7501 16.1005 11.8818 15.8661 12.1163C15.6317 12.3507 15.5 12.6686 15.5 13.0001C15.5 13.3317 15.6317 13.6496 15.8661 13.884C16.1005 14.1184 16.4185 14.2501 16.75 14.2501ZM9.25 23.0001C9.58152 23.0001 9.89946 22.8684 10.1339 22.634C10.3683 22.3996 10.5 22.0817 10.5 21.7501C10.5 21.4186 10.3683 21.1007 10.1339 20.8662C9.89946 20.6318 9.58152 20.5001 9.25 20.5001C8.91848 20.5001 8.60054 20.6318 8.36612 20.8662C8.1317 21.1007 8 21.4186 8 21.7501C8 22.0817 8.1317 22.3996 8.36612 22.634C8.60054 22.8684 8.91848 23.0001 9.25 23.0001Z" fill="white"/>
</svg>
