<svg width="20" height="20" viewBox="0 0 20 20" fill="none" xmlns="http://www.w3.org/2000/svg">
<path fill-rule="evenodd" clip-rule="evenodd" d="M5.4528 0H7.38459C8.30684 0 9.17526 0.434786 9.72808 1.17286L10.6098 2.34714C10.8906 2.72042 11.3298 2.94034 11.7951 2.94127H14.5296C18.3106 2.94127 20 4.92273 20 8.97058L19.9735 13.7715C19.9735 17.6347 17.6114 20 13.7533 20H6.22905C2.36352 20 0 17.6361 0 13.7715V6.22847C0 2.17544 1.72991 0 5.4528 0ZM7.38459 1.45147H5.4528C2.61233 1.45147 1.44955 2.91372 1.44955 6.22847V13.7715C1.44955 16.8341 3.1637 18.5485 6.22905 18.5485H13.7533C16.8109 18.5485 18.524 16.8331 18.524 13.7675L18.5505 8.96658C18.5505 5.67793 17.4547 4.39274 14.5296 4.39274L11.7936 4.39273C10.8727 4.3909 10.0059 3.95693 9.45158 3.21988L8.56896 2.04444C8.28937 1.67116 7.85058 1.45147 7.38459 1.45147Z" fill="white"/>
</svg>
