<svg width="21" height="21" viewBox="0 0 21 21" fill="none" xmlns="http://www.w3.org/2000/svg">
<path d="M6.59535 2.38867C6.00994 2.38867 5.44842 2.62077 5.03386 3.0341C4.6193 3.44743 4.38553 4.00827 4.38379 4.59367V16.4062C4.38379 16.9927 4.61679 17.5552 5.03154 17.97C5.44629 18.3847 6.00881 18.6177 6.59535 18.6177H14.4375C15.0184 18.6091 15.5725 18.3723 15.9802 17.9585C16.3879 17.5447 16.6164 16.9871 16.6163 16.4062V4.59367C16.6146 4.01391 16.3854 3.45798 15.9779 3.04557C15.5704 2.63317 15.0172 2.39727 14.4375 2.38867H6.59535ZM14.4375 17.2987H6.59535C6.35804 17.2987 6.13035 17.2049 5.96193 17.0377C5.79351 16.8705 5.69802 16.6435 5.69629 16.4062V14.9887H15.3038V16.4062C15.3023 16.6379 15.2113 16.8601 15.0499 17.0264C14.8885 17.1927 14.6691 17.2902 14.4375 17.2987ZM15.3038 4.59367V13.6762H5.69629V4.59367C5.69629 4.35523 5.79101 4.12655 5.95962 3.95794C6.12823 3.78933 6.35691 3.69461 6.59535 3.69461H14.4375C14.6703 3.70311 14.8906 3.80157 15.0522 3.96926C15.2137 4.13696 15.3039 4.3608 15.3038 4.59367Z" fill="white"/>
<path d="M10.5003 15.3826C10.3611 15.3813 10.2247 15.4214 10.1084 15.4977C9.99203 15.5741 9.90101 15.6833 9.84686 15.8115C9.7927 15.9397 9.77786 16.0811 9.80421 16.2177C9.83055 16.3543 9.89691 16.4801 9.99484 16.5789C10.0928 16.6778 10.2179 16.7453 10.3543 16.773C10.4907 16.8006 10.6322 16.7871 10.7609 16.7341C10.8896 16.6812 10.9996 16.5912 11.0771 16.4756C11.1545 16.36 11.1959 16.2239 11.1959 16.0848C11.1967 15.9929 11.1794 15.9017 11.1448 15.8166C11.1103 15.7314 11.0592 15.6539 10.9945 15.5887C10.9298 15.5234 10.8528 15.4715 10.768 15.4362C10.6832 15.4008 10.5922 15.3826 10.5003 15.3826Z" fill="white"/>
<path d="M11.6025 4.38379H9.39746C9.22341 4.38379 9.05649 4.45293 8.93342 4.576C8.81035 4.69907 8.74121 4.86599 8.74121 5.04004C8.74121 5.21409 8.81035 5.38101 8.93342 5.50408C9.05649 5.62715 9.22341 5.69629 9.39746 5.69629H11.6025C11.7765 5.69629 11.9434 5.62715 12.0665 5.50408C12.1896 5.38101 12.2587 5.21409 12.2587 5.04004C12.2587 4.86599 12.1896 4.69907 12.0665 4.576C11.9434 4.45293 11.7765 4.38379 11.6025 4.38379Z" fill="white"/>
</svg>
