<svg width="25" height="25" viewBox="0 0 25 25" fill="none" xmlns="http://www.w3.org/2000/svg">
<path d="M7.79968 2.82495C7.10737 2.82495 6.4433 3.09943 5.95304 3.58824C5.46278 4.07705 5.18632 4.7403 5.18427 5.4326V19.4022C5.18427 20.0958 5.45982 20.7611 5.9503 21.2515C6.44079 21.742 7.10603 22.0176 7.79968 22.0176H17.0739C17.7608 22.0074 18.4161 21.7273 18.8983 21.238C19.3804 20.7486 19.6506 20.0891 19.6505 19.4022V5.4326C19.6486 4.74697 19.3774 4.08952 18.8955 3.60181C18.4136 3.11409 17.7595 2.83512 17.0739 2.82495H7.79968ZM17.0739 20.4576H7.79968C7.51903 20.4577 7.24976 20.3467 7.05059 20.149C6.85141 19.9513 6.73849 19.6828 6.73644 19.4022V17.7258H18.0984V19.4022C18.0965 19.6762 17.989 19.939 17.7981 20.1356C17.6072 20.3323 17.3478 20.4477 17.0739 20.4576ZM18.0984 5.4326V16.1736H6.73644V5.4326C6.73644 5.15061 6.84846 4.88018 7.04785 4.68078C7.24725 4.48138 7.51769 4.36936 7.79968 4.36936H17.0739C17.3491 4.37941 17.6097 4.49586 17.8008 4.69417C17.9919 4.89249 18.0985 5.15721 18.0984 5.4326Z" fill="#1C2645"/>
<path d="M12.4174 18.1914C12.2528 18.1899 12.0915 18.2373 11.9539 18.3276C11.8164 18.4179 11.7087 18.5471 11.6447 18.6987C11.5806 18.8503 11.5631 19.0175 11.5942 19.1791C11.6254 19.3406 11.7039 19.4893 11.8197 19.6062C11.9355 19.7232 12.0835 19.803 12.2448 19.8357C12.406 19.8684 12.5734 19.8524 12.7256 19.7898C12.8778 19.7272 13.0079 19.6207 13.0995 19.484C13.1911 19.3473 13.24 19.1864 13.2401 19.0219C13.2411 18.9132 13.2206 18.8054 13.1797 18.7047C13.1388 18.6039 13.0784 18.5123 13.0019 18.4351C12.9254 18.3579 12.8343 18.2966 12.734 18.2548C12.6337 18.213 12.5261 18.1914 12.4174 18.1914Z" fill="#1C2645"/>
<path d="M13.7212 5.1842H11.1136C10.9077 5.1842 10.7103 5.26597 10.5648 5.41151C10.4192 5.55706 10.3375 5.75446 10.3375 5.96029C10.3375 6.16612 10.4192 6.36352 10.5648 6.50907C10.7103 6.65461 10.9077 6.73638 11.1136 6.73638H13.7212C13.927 6.73638 14.1244 6.65461 14.27 6.50907C14.4155 6.36352 14.4973 6.16612 14.4973 5.96029C14.4973 5.75446 14.4155 5.55706 14.27 5.41151C14.1244 5.26597 13.927 5.1842 13.7212 5.1842Z" fill="#1C2645"/>
</svg>
