<svg width="28" height="28" viewBox="0 0 28 28" fill="none" xmlns="http://www.w3.org/2000/svg">
<path d="M7.9999 9.14282V6.85711C7.9999 5.34158 8.60193 3.88813 9.67357 2.8165C10.7452 1.74486 12.1987 1.14282 13.7142 1.14282C15.2297 1.14282 16.6832 1.74486 17.7548 2.8165C18.8264 3.88813 19.4285 5.34158 19.4285 6.85711V9.14282H22.857C23.1601 9.14282 23.4508 9.26323 23.6652 9.47756C23.8795 9.69188 23.9999 9.98257 23.9999 10.2857V24C23.9999 24.3031 23.8795 24.5938 23.6652 24.8081C23.4508 25.0224 23.1601 25.1428 22.857 25.1428H4.57132C4.26822 25.1428 3.97753 25.0224 3.7632 24.8081C3.54887 24.5938 3.42847 24.3031 3.42847 24V10.2857C3.42847 9.98257 3.54887 9.69188 3.7632 9.47756C3.97753 9.26323 4.26822 9.14282 4.57132 9.14282H7.9999ZM7.9999 11.4285H5.71418V22.8571H21.7142V11.4285H19.4285V13.7143H17.1428V11.4285H10.2856V13.7143H7.9999V11.4285ZM10.2856 9.14282H17.1428V6.85711C17.1428 5.94779 16.7815 5.07572 16.1385 4.43274C15.4956 3.78976 14.6235 3.42854 13.7142 3.42854C12.8049 3.42854 11.9328 3.78976 11.2898 4.43274C10.6468 5.07572 10.2856 5.94779 10.2856 6.85711V9.14282Z" fill="#9D0208"/>
</svg>
