<svg width="115" height="115" viewBox="0 0 115 115" fill="none" xmlns="http://www.w3.org/2000/svg">
<circle cx="57.5" cy="57.5" r="57.5" fill="black" fill-opacity="0.25"/>
<path d="M59 34C62.9782 34 66.7936 35.5637 69.6066 38.3472C72.4196 41.1306 74 44.9057 74 48.8421V51.3158H84V56.2632H81.0825L79.19 78.7316C79.138 79.3498 78.8531 79.926 78.3919 80.3462C77.9308 80.7663 77.3269 80.9997 76.7 81H41.3C40.6731 80.9997 40.0692 80.7663 39.6081 80.3462C39.1469 79.926 38.862 79.3498 38.81 78.7316L36.915 56.2632H34V51.3158H44V48.8421C44 44.9057 45.5804 41.1306 48.3934 38.3472C51.2064 35.5637 55.0218 34 59 34V34ZM76.065 56.2632H41.9325L43.6 76.0526H74.3975L76.065 56.2632ZM61.5 61.2105V71.1053H56.5V61.2105H61.5ZM51.5 61.2105V71.1053H46.5V61.2105H51.5ZM71.5 61.2105V71.1053H66.5V61.2105H71.5ZM59 38.9474C56.4344 38.9474 53.9669 39.9231 52.108 41.6727C50.249 43.4223 49.1408 45.8119 49.0125 48.3474L49 48.8421V51.3158H69V48.8421C69 46.3035 68.0139 43.862 66.2457 42.0226C64.4775 40.1832 62.0624 39.0867 59.5 38.9597L59 38.9474Z" fill="white" fill-opacity="0.86"/>
</svg>
