<svg width="55" height="55" viewBox="0 0 55 55" fill="none" xmlns="http://www.w3.org/2000/svg">
<g filter="url(#filter0_d)">
<circle cx="26.5" cy="26.5" r="20.5" fill="#3D3D3D"/>
</g>
<path d="M37 35V37H17V35H18V28.242C17.3844 27.8311 16.8797 27.2745 16.5308 26.6218C16.1819 25.969 15.9996 25.2402 16 24.5C16 23.673 16.224 22.876 16.633 22.197L19.345 17.5C19.4328 17.348 19.559 17.2217 19.711 17.134C19.863 17.0462 20.0355 17 20.211 17H33.79C33.9655 17 34.138 17.0462 34.29 17.134C34.442 17.2217 34.5682 17.348 34.656 17.5L37.358 22.182C37.9546 23.1729 38.1463 24.3555 37.8934 25.4841C37.6405 26.6127 36.9624 27.6005 36 28.242V35H37ZM20.789 19L18.356 23.213C18.1196 23.7971 18.1125 24.449 18.3361 25.0382C18.5598 25.6273 18.9977 26.1103 19.5622 26.3904C20.1267 26.6705 20.7761 26.7271 21.3806 26.5488C21.985 26.3706 22.4998 25.9706 22.822 25.429C23.157 24.592 24.342 24.592 24.678 25.429C24.8633 25.8934 25.1836 26.2916 25.5975 26.5721C26.0115 26.8526 26.5 27.0025 27 27.0025C27.5 27.0025 27.9885 26.8526 28.4025 26.5721C28.8164 26.2916 29.1367 25.8934 29.322 25.429C29.657 24.592 30.842 24.592 31.178 25.429C31.3078 25.7484 31.5022 26.0376 31.7491 26.2783C31.996 26.519 32.2901 26.706 32.6127 26.8275C32.9354 26.9491 33.2797 27.0026 33.6241 26.9847C33.9684 26.9668 34.3053 26.8778 34.6136 26.7234C34.9219 26.569 35.1949 26.3525 35.4155 26.0875C35.6361 25.8225 35.7995 25.5148 35.8955 25.1836C35.9914 24.8524 36.0178 24.5049 35.973 24.1631C35.9281 23.8212 35.8131 23.4923 35.635 23.197L33.21 19H20.79H20.789Z" fill="white"/>
<defs>
<filter id="filter0_d" x="0" y="0" width="55" height="55" filterUnits="userSpaceOnUse" color-interpolation-filters="sRGB">
<feFlood flood-opacity="0" result="BackgroundImageFix"/>
<feColorMatrix in="SourceAlpha" type="matrix" values="0 0 0 0 0 0 0 0 0 0 0 0 0 0 0 0 0 0 127 0"/>
<feOffset dx="1" dy="1"/>
<feGaussianBlur stdDeviation="3.5"/>
<feColorMatrix type="matrix" values="0 0 0 0 0 0 0 0 0 0 0 0 0 0 0 0 0 0 0.25 0"/>
<feBlend mode="normal" in2="BackgroundImageFix" result="effect1_dropShadow"/>
<feBlend mode="normal" in="SourceGraphic" in2="effect1_dropShadow" result="shape"/>
</filter>
</defs>
</svg>
