<svg width="52" height="52" viewBox="0 0 52 52" fill="none" xmlns="http://www.w3.org/2000/svg">
<circle cx="26" cy="26" r="26" fill="url(#paint0_linear)"/>
<path d="M33.4247 32.2581L26 39.6827L18.5753 32.2581C17.1069 30.7896 16.1069 28.9187 15.7017 26.8819C15.2966 24.8451 15.5046 22.7339 16.2993 20.8153C17.094 18.8967 18.4398 17.2568 20.1665 16.1031C21.8932 14.9493 23.9233 14.3335 26 14.3335C28.0767 14.3335 30.1068 14.9493 31.8335 16.1031C33.5602 17.2568 34.906 18.8967 35.7007 20.8153C36.4955 22.7339 36.7034 24.8451 36.2983 26.8819C35.8931 28.9187 34.8931 30.7896 33.4247 32.2581V32.2581ZM26 27.1667C26.6188 27.1667 27.2123 26.9209 27.6499 26.4833C28.0875 26.0457 28.3333 25.4522 28.3333 24.8334C28.3333 24.2146 28.0875 23.6211 27.6499 23.1835C27.2123 22.7459 26.6188 22.5001 26 22.5001C25.3812 22.5001 24.7877 22.7459 24.3501 23.1835C23.9125 23.6211 23.6667 24.2146 23.6667 24.8334C23.6667 25.4522 23.9125 26.0457 24.3501 26.4833C24.7877 26.9209 25.3812 27.1667 26 27.1667Z" fill="white"/>
<defs>
<linearGradient id="paint0_linear" x1="26" y1="40.5" x2="52" y2="11.5" gradientUnits="userSpaceOnUse">
<stop stop-color="#EC7405"/>
<stop offset="1" stop-color="#FFAA00"/>
</linearGradient>
</defs>
</svg>
