<svg width="19" height="17" viewBox="0 0 19 17" fill="none" xmlns="http://www.w3.org/2000/svg">
<path d="M13.3054 0.0410156C15.9984 0.0410156 18.1809 2.25714 18.1809 5.3597C18.1809 11.5648 11.5325 15.1106 9.31638 16.4403C7.10026 15.1106 0.451904 11.5648 0.451904 5.3597C0.451904 2.25714 2.66802 0.0410156 5.32737 0.0410156C6.97616 0.0410156 8.42994 0.927464 9.31638 1.81391C10.2028 0.927464 11.6566 0.0410156 13.3054 0.0410156ZM10.1443 13.8731C10.9253 13.3803 11.63 12.8901 12.2895 12.3653C14.932 10.2644 16.408 7.96852 16.408 5.3597C16.408 3.26769 15.0455 1.81391 13.3054 1.81391C12.3516 1.81391 11.3198 2.31919 10.5698 3.06735L9.31638 4.32079L8.06295 3.06735C7.31301 2.31919 6.28119 1.81391 5.32737 1.81391C3.60766 1.81391 2.2248 3.28187 2.2248 5.3597C2.2248 7.96941 3.70162 10.2644 6.34235 12.3653C7.00276 12.8901 7.70748 13.3803 8.48844 13.8723C8.75349 14.0398 9.01588 14.2002 9.31638 14.3793C9.61689 14.2002 9.87928 14.0398 10.1443 13.8731Z" fill="white"/>
</svg>
