<svg width="22" height="26" viewBox="0 0 22 26" fill="none" xmlns="http://www.w3.org/2000/svg">
<path d="M18.4247 18.258L11 25.6827L3.57534 18.258C2.1069 16.7896 1.10688 14.9186 0.70175 12.8818C0.296615 10.845 0.504558 8.73385 1.29928 6.81523C2.09401 4.89661 3.43982 3.25674 5.16653 2.103C6.89324 0.949246 8.92331 0.333435 11 0.333435C13.0767 0.333435 15.1068 0.949246 16.8335 2.103C18.5602 3.25674 19.906 4.89661 20.7007 6.81523C21.4955 8.73385 21.7034 10.845 21.2983 12.8818C20.8931 14.9186 19.8931 16.7896 18.4247 18.258ZM11 13.1667C11.6188 13.1667 12.2123 12.9208 12.6499 12.4833C13.0875 12.0457 13.3333 11.4522 13.3333 10.8333C13.3333 10.2145 13.0875 9.62101 12.6499 9.18343C12.2123 8.74584 11.6188 8.50001 11 8.50001C10.3812 8.50001 9.78767 8.74584 9.35009 9.18343C8.9125 9.62101 8.66667 10.2145 8.66667 10.8333C8.66667 11.4522 8.9125 12.0457 9.35009 12.4833C9.78767 12.9208 10.3812 13.1667 11 13.1667Z" fill="white"/>
</svg>
