<svg width="19" height="19" viewBox="0 0 19 19" fill="none" xmlns="http://www.w3.org/2000/svg">
<path fill-rule="evenodd" clip-rule="evenodd" d="M14.2371 4.4189C13.779 2.18678 11.6897 0.664007 9.40608 0.892237C7.12131 1.12058 5.38031 3.02783 5.38261 5.30693V7.53943H4.27392C3.45749 7.53943 2.79565 8.20127 2.79565 9.01769V15.6699C2.79565 16.4863 3.45749 17.1481 4.27392 17.1481H15.3609C16.1773 17.1481 16.8391 16.4863 16.8391 15.6699V9.01769C16.8391 8.20127 16.1773 7.53943 15.3609 7.53943H6.86087V5.30618L6.86457 5.15535C6.93724 3.70583 8.07264 2.51113 9.55308 2.36317C11.0857 2.21 12.4838 3.22904 12.789 4.71609C12.8711 5.11597 13.2618 5.3736 13.6616 5.29153C14.0615 5.20947 14.3192 4.81877 14.2371 4.4189ZM9.81739 10.4784C10.1964 10.4784 10.5089 10.7637 10.5516 11.1313L10.5565 11.2175V13.4349C10.5565 13.8431 10.2256 14.174 9.81739 14.174C9.43834 14.174 9.12593 13.8887 9.08324 13.5211L9.07826 13.4349V11.2175C9.07826 10.8093 9.40918 10.4784 9.81739 10.4784Z" fill="#1C2645"/>
</svg>
