<svg width="25" height="25" viewBox="0 0 25 25" fill="none" xmlns="http://www.w3.org/2000/svg">
<path d="M1.37521 24.8749C1.54059 24.8742 1.7042 24.8407 1.85654 24.7763C2.00889 24.712 2.14694 24.618 2.26271 24.4999L8.72521 17.9999C10.5656 19.4184 12.8595 20.1184 15.1784 19.9688C17.4972 19.8193 19.6823 18.8306 21.3252 17.1874C22.6352 15.8855 23.5412 14.233 23.9345 12.4285C24.3277 10.624 24.1914 8.74438 23.5419 7.01551C22.8925 5.28663 21.7575 3.78213 20.2734 2.68287C18.7894 1.5836 17.0194 0.936362 15.1763 0.818957C13.3332 0.701552 11.4954 1.11898 9.88388 2.02105C8.27234 2.92313 6.95563 4.27146 6.09205 5.90395C5.22847 7.53645 4.85477 9.38362 5.01588 11.2234C5.17698 13.0632 5.86604 14.8173 7.00021 16.2749L0.50021 22.7374C0.267396 22.9716 0.136719 23.2884 0.136719 23.6186C0.136719 23.9489 0.267396 24.2657 0.50021 24.4999C0.730998 24.7354 1.0455 24.8702 1.37521 24.8749ZM9.50021 5.49989C10.4894 4.50964 11.75 3.83504 13.1226 3.56141C14.4952 3.28778 15.9182 3.42743 17.2114 3.96269C18.5047 4.49795 19.6101 5.40476 20.3879 6.56841C21.1656 7.73206 21.5808 9.10025 21.5808 10.4999C21.5808 11.8995 21.1656 13.2677 20.3879 14.4314C19.6101 15.595 18.5047 16.5018 17.2114 17.0371C15.9182 17.5723 14.4952 17.712 13.1226 17.4384C11.75 17.1647 10.4894 16.4901 9.50021 15.4999C8.84258 14.8439 8.32082 14.0645 7.96483 13.2065C7.60883 12.3486 7.42559 11.4288 7.42559 10.4999C7.42559 9.57098 7.60883 8.65121 7.96483 7.79323C8.32082 6.93525 8.84258 6.15592 9.50021 5.49989Z" fill="#B3B6BC"/>
</svg>
