<svg width="40" height="40" viewBox="0 0 40 40" fill="none" xmlns="http://www.w3.org/2000/svg">
<path d="M19.9997 36.6668C10.7947 36.6668 3.33301 29.2052 3.33301 20.0002C3.33301 10.7952 10.7947 3.3335 19.9997 3.3335C29.2047 3.3335 36.6663 10.7952 36.6663 20.0002C36.6663 29.2052 29.2047 36.6668 19.9997 36.6668ZM19.9997 33.3335C23.5359 33.3335 26.9273 31.9287 29.4278 29.4283C31.9283 26.9278 33.333 23.5364 33.333 20.0002C33.333 16.4639 31.9283 13.0726 29.4278 10.5721C26.9273 8.07159 23.5359 6.66683 19.9997 6.66683C16.4635 6.66683 13.0721 8.07159 10.5716 10.5721C8.0711 13.0726 6.66634 16.4639 6.66634 20.0002C6.66634 23.5364 8.0711 26.9278 10.5716 29.4283C13.0721 31.9287 16.4635 33.3335 19.9997 33.3335Z" fill="white"/>
<path d="M21.2634 15.1958L24.8042 18.7374L16.5407 27H13V23.4584L21.2634 15.195V15.1958ZM22.4437 14.0156L24.214 12.2444C24.3706 12.0879 24.5828 12 24.8042 12C25.0255 12 25.2378 12.0879 25.3943 12.2444L27.7556 14.6057C27.9121 14.7622 28 14.9745 28 15.1958C28 15.4172 27.9121 15.6294 27.7556 15.786L25.9844 17.5563L22.4437 14.0156Z" fill="white"/>
</svg>
