<svg width="19" height="18" viewBox="0 0 19 18" fill="none" xmlns="http://www.w3.org/2000/svg">
<path fill-rule="evenodd" clip-rule="evenodd" d="M4.30436 4.97831C4.30436 3.14136 5.7935 1.65222 7.63045 1.65222C9.4674 1.65222 10.9565 3.14136 10.9565 4.97831C10.9565 6.81526 9.4674 8.3044 7.63045 8.3044C5.7935 8.3044 4.30436 6.81526 4.30436 4.97831ZM7.63045 3.13048C6.60992 3.13048 5.78262 3.95778 5.78262 4.97831C5.78262 5.99884 6.60992 6.82613 7.63045 6.82613C8.65098 6.82613 9.47827 5.99884 9.47827 4.97831C9.47827 3.95778 8.65097 3.13048 7.63045 3.13048Z" fill="#1C2645"/>
<path fill-rule="evenodd" clip-rule="evenodd" d="M6.78577 9.78266H8.47513C9.27617 9.78265 9.9223 9.78264 10.4455 9.82539C10.9842 9.8694 11.4574 9.96239 11.8952 10.1854C12.5905 10.5398 13.1559 11.1051 13.5103 11.8005C13.7333 12.2383 13.8263 12.7115 13.8703 13.2502C13.9131 13.7734 13.9131 14.4194 13.9131 15.2204V15.6957C13.9131 16.1039 13.5821 16.4348 13.1739 16.4348H2.08697C1.67876 16.4348 1.34784 16.1039 1.34784 15.6957V15.2206C1.34783 14.4195 1.34783 13.7734 1.39058 13.2502C1.43459 12.7115 1.52758 12.2383 1.75064 11.8005C2.10495 11.1052 2.67031 10.5398 3.3657 10.1854C3.80348 9.9624 4.27668 9.8694 4.81539 9.82539C5.33859 9.78264 5.98473 9.78265 6.78577 9.78266ZM3.06778 12.4716C3.28037 12.0544 3.61959 11.7152 4.0368 11.5026C4.23146 11.4034 4.48848 11.3353 4.93576 11.2987C5.39169 11.2615 5.97731 11.2609 6.8174 11.2609H8.44349C9.28359 11.2609 9.86921 11.2615 10.3251 11.2987C10.7724 11.3353 11.0294 11.4034 11.2241 11.5026C11.6413 11.7152 11.9805 12.0544 12.1931 12.4716C12.2923 12.6663 12.3604 12.9233 12.397 13.3706C12.4297 13.771 12.4341 14.2715 12.4347 14.9566H2.82619C2.82678 14.2715 2.83121 13.771 2.86393 13.3706C2.90047 12.9233 2.9686 12.6663 3.06778 12.4716Z" fill="#1C2645"/>
<path d="M5.78262 4.97831C5.78262 3.95778 6.60992 3.13048 7.63045 3.13048C8.65097 3.13048 9.47827 3.95778 9.47827 4.97831C9.47827 5.99884 8.65098 6.82613 7.63045 6.82613C6.60992 6.82613 5.78262 5.99884 5.78262 4.97831Z" fill="#1C2645"/>
<path d="M4.0368 11.5026C3.61959 11.7152 3.28037 12.0544 3.06778 12.4716C2.9686 12.6663 2.90047 12.9233 2.86393 13.3706C2.83121 13.771 2.82678 14.2715 2.82619 14.9566H12.4347C12.4341 14.2715 12.4297 13.771 12.397 13.3706C12.3604 12.9233 12.2923 12.6663 12.1931 12.4716C11.9805 12.0544 11.6413 11.7152 11.2241 11.5026C11.0294 11.4034 10.7724 11.3353 10.3251 11.2987C9.86921 11.2615 9.28359 11.2609 8.44349 11.2609H6.8174C5.97731 11.2609 5.39169 11.2615 4.93576 11.2987C4.48848 11.3353 4.23146 11.4034 4.0368 11.5026Z" fill="#1C2645"/>
</svg>
