<svg width="18" height="18" viewBox="0 0 18 18" fill="none" xmlns="http://www.w3.org/2000/svg">
<path d="M13.125 15.75C12.4288 15.75 11.7611 15.4734 11.2688 14.9812C10.7766 14.4889 10.5 13.8212 10.5 13.125C10.5 12.4288 10.7766 11.7611 11.2688 11.2688C11.7611 10.7766 12.4288 10.5 13.125 10.5C13.8212 10.5 14.4889 10.7766 14.9812 11.2688C15.4734 11.7611 15.75 12.4288 15.75 13.125C15.75 13.8212 15.4734 14.4889 14.9812 14.9812C14.4889 15.4734 13.8212 15.75 13.125 15.75ZM13.125 14.25C13.4234 14.25 13.7095 14.1315 13.9205 13.9205C14.1315 13.7095 14.25 13.4234 14.25 13.125C14.25 12.8266 14.1315 12.5405 13.9205 12.3295C13.7095 12.1185 13.4234 12 13.125 12C12.8266 12 12.5405 12.1185 12.3295 12.3295C12.1185 12.5405 12 12.8266 12 13.125C12 13.4234 12.1185 13.7095 12.3295 13.9205C12.5405 14.1315 12.8266 14.25 13.125 14.25ZM4.875 7.5C4.53028 7.5 4.18894 7.4321 3.87046 7.30018C3.55198 7.16827 3.2626 6.97491 3.01884 6.73116C2.77509 6.4874 2.58173 6.19802 2.44982 5.87954C2.3179 5.56106 2.25 5.21972 2.25 4.875C2.25 4.53028 2.3179 4.18894 2.44982 3.87046C2.58173 3.55198 2.77509 3.2626 3.01884 3.01884C3.2626 2.77509 3.55198 2.58173 3.87046 2.44982C4.18894 2.3179 4.53028 2.25 4.875 2.25C5.57119 2.25 6.23887 2.52656 6.73116 3.01884C7.22344 3.51113 7.5 4.17881 7.5 4.875C7.5 5.57119 7.22344 6.23887 6.73116 6.73116C6.23887 7.22344 5.57119 7.5 4.875 7.5ZM4.875 6C5.17337 6 5.45952 5.88147 5.6705 5.6705C5.88147 5.45952 6 5.17337 6 4.875C6 4.57663 5.88147 4.29048 5.6705 4.0795C5.45952 3.86853 5.17337 3.75 4.875 3.75C4.57663 3.75 4.29048 3.86853 4.0795 4.0795C3.86853 4.29048 3.75 4.57663 3.75 4.875C3.75 5.17337 3.86853 5.45952 4.0795 5.6705C4.29048 5.88147 4.57663 6 4.875 6ZM14.3032 2.63625L15.3638 3.69675L3.6975 15.3638L2.637 14.3032L14.3025 2.63625H14.3032Z" fill="white"/>
</svg>
