<svg width="37" height="36" viewBox="0 0 37 36" fill="none" xmlns="http://www.w3.org/2000/svg">
<path d="M18.3333 35.7081C8.20783 35.7081 0 27.7148 0 17.854C0 7.99325 8.20783 0 18.3333 0C28.4588 0 36.6667 7.99325 36.6667 17.854C36.6667 27.7148 28.4588 35.7081 18.3333 35.7081ZM15.807 11.4534C15.6967 11.3817 15.5684 11.3405 15.4359 11.3341C15.3035 11.3278 15.1717 11.3566 15.0547 11.4174C14.9377 11.4782 14.8398 11.5688 14.7715 11.6795C14.7031 11.7903 14.6669 11.9169 14.6667 12.0461V23.662C14.6669 23.7911 14.7031 23.9178 14.7715 24.0285C14.8398 24.1392 14.9377 24.2298 15.0547 24.2907C15.1717 24.3515 15.3035 24.3803 15.4359 24.3739C15.5684 24.3676 15.6967 24.3264 15.807 24.2547L24.7518 18.4486C24.8524 18.3834 24.9349 18.295 24.992 18.1913C25.049 18.0876 25.0789 17.9717 25.0789 17.854C25.0789 17.7364 25.049 17.6205 24.992 17.5168C24.9349 17.4131 24.8524 17.3247 24.7518 17.2595L15.8052 11.4534H15.807Z" fill="white"/>
</svg>
