<svg width="23" height="23" viewBox="0 0 23 23" fill="none" xmlns="http://www.w3.org/2000/svg">
<circle cx="11.5" cy="11.5" r="11.5" fill="white" fill-opacity="0.85"/>
<path d="M10.9057 10.5124V7.46794H12.428V10.5124H15.4724V12.0347H12.428V15.0791H10.9057V12.0347H7.86125V10.5124H10.9057ZM11.6668 18.8847C7.46319 18.8847 4.05566 15.4772 4.05566 11.2735C4.05566 7.06988 7.46319 3.66235 11.6668 3.66235C15.8705 3.66235 19.278 7.06988 19.278 11.2735C19.278 15.4772 15.8705 18.8847 11.6668 18.8847ZM11.6668 17.3625C13.2817 17.3625 14.8305 16.721 15.9724 15.5791C17.1143 14.4372 17.7558 12.8884 17.7558 11.2735C17.7558 9.65865 17.1143 8.1099 15.9724 6.968C14.8305 5.8261 13.2817 5.18459 11.6668 5.18459C10.052 5.18459 8.50321 5.8261 7.36131 6.968C6.21941 8.1099 5.5779 9.65865 5.5779 11.2735C5.5779 12.8884 6.21941 14.4372 7.36131 15.5791C8.50321 16.721 10.052 17.3625 11.6668 17.3625Z" fill="#FF006E"/>
</svg>
