<svg width="40" height="40" viewBox="0 0 40 40" fill="none" xmlns="http://www.w3.org/2000/svg">
<path d="M18.3334 18.3335V11.6668H21.6667V18.3335H28.3334V21.6668H21.6667V28.3335H18.3334V21.6668H11.6667V18.3335H18.3334ZM20 36.6668C10.795 36.6668 3.33337 29.2052 3.33337 20.0002C3.33337 10.7952 10.795 3.3335 20 3.3335C29.205 3.3335 36.6667 10.7952 36.6667 20.0002C36.6667 29.2052 29.205 36.6668 20 36.6668ZM20 33.3335C23.5363 33.3335 26.9276 31.9287 29.4281 29.4283C31.9286 26.9278 33.3334 23.5364 33.3334 20.0002C33.3334 16.4639 31.9286 13.0726 29.4281 10.5721C26.9276 8.07159 23.5363 6.66683 20 6.66683C16.4638 6.66683 13.0724 8.07159 10.572 10.5721C8.07147 13.0726 6.66671 16.4639 6.66671 20.0002C6.66671 23.5364 8.07147 26.9278 10.572 29.4283C13.0724 31.9287 16.4638 33.3335 20 33.3335Z" fill="#0066FF"/>
</svg>
