<svg width="19" height="19" viewBox="0 0 19 19" fill="none" xmlns="http://www.w3.org/2000/svg">
<path d="M1.03129 18.9061C1.15532 18.9056 1.27803 18.8805 1.39228 18.8322C1.50654 18.7839 1.61008 18.7134 1.69691 18.6249L6.54379 13.7499C7.92407 14.8138 9.64453 15.3387 11.3837 15.2266C13.1228 15.1144 14.7616 14.3729 15.9938 13.1405C16.9762 12.1641 17.6558 10.9247 17.9507 9.57134C18.2457 8.21797 18.1434 6.80823 17.6563 5.51157C17.1692 4.21491 16.318 3.08654 15.205 2.26209C14.0919 1.43764 12.7644 0.952211 11.3821 0.864157C9.99979 0.776103 8.62144 1.08917 7.41279 1.76573C6.20413 2.44228 5.2166 3.45353 4.56891 4.6779C3.92123 5.90227 3.64095 7.28766 3.76178 8.6675C3.88262 10.0474 4.39941 11.3629 5.25004 12.4561L0.375035 17.303C0.200425 17.4786 0.102417 17.7162 0.102417 17.9639C0.102417 18.2116 0.200425 18.4492 0.375035 18.6249C0.548126 18.8015 0.784002 18.9026 1.03129 18.9061ZM7.12504 4.37485C7.86689 3.63217 8.81237 3.12622 9.84184 2.92099C10.8713 2.71577 11.9385 2.82051 12.9085 3.22195C13.8784 3.6234 14.7075 4.30351 15.2908 5.17625C15.8741 6.04898 16.1855 7.07513 16.1855 8.12485C16.1855 9.17458 15.8741 10.2007 15.2908 11.0735C14.7075 11.9462 13.8784 12.6263 12.9085 13.0278C11.9385 13.4292 10.8713 13.5339 9.84184 13.3287C8.81237 13.1235 7.86689 12.6175 7.12504 11.8749C6.63181 11.3828 6.2405 10.7983 5.9735 10.1549C5.7065 9.51137 5.56907 8.82153 5.56907 8.12485C5.56907 7.42818 5.7065 6.73834 5.9735 6.09486C6.2405 5.45137 6.63181 4.86688 7.12504 4.37485Z" fill="#B3B6BC"/>
</svg>
