<svg width="17" height="17" viewBox="0 0 17 17" fill="none" xmlns="http://www.w3.org/2000/svg">
<path d="M1.20159 16.0852C1.31099 16.0848 1.41921 16.0626 1.51999 16.0201C1.62076 15.9775 1.71209 15.9153 1.78867 15.8372L6.06361 11.5374C7.28103 12.4758 8.79847 12.9388 10.3324 12.8399C11.8663 12.741 13.3117 12.0869 14.3985 11C15.265 10.1388 15.8644 9.04565 16.1245 7.85199C16.3847 6.65832 16.2945 5.41492 15.8649 4.27127C15.4353 3.12762 14.6845 2.13239 13.7028 1.40523C12.7211 0.678066 11.5502 0.249918 10.331 0.172255C9.1118 0.0945909 7.89611 0.370718 6.83007 0.967441C5.76403 1.56416 4.89303 2.45608 4.32177 3.53598C3.75052 4.61587 3.50331 5.83778 3.60989 7.05481C3.71646 8.27183 4.17227 9.43218 4.92252 10.3964L0.622774 14.6713C0.468767 14.8262 0.382324 15.0358 0.382324 15.2542C0.382324 15.4727 0.468767 15.6823 0.622774 15.8372C0.77544 15.993 0.983482 16.0821 1.20159 16.0852ZM6.57627 3.26869C7.23059 2.61364 8.0645 2.16739 8.97249 1.98639C9.88049 1.80538 10.8218 1.89776 11.6773 2.25183C12.5327 2.60591 13.264 3.20576 13.7785 3.97552C14.2929 4.74527 14.5676 5.65033 14.5676 6.57619C14.5676 7.50205 14.2929 8.40711 13.7785 9.17686C13.264 9.94661 12.5327 10.5465 11.6773 10.9005C10.8218 11.2546 9.88049 11.347 8.97249 11.166C8.0645 10.985 7.23059 10.5387 6.57627 9.88369C6.14125 9.44972 5.79611 8.9342 5.56062 8.36664C5.32513 7.79909 5.20391 7.19066 5.20391 6.57619C5.20391 5.96172 5.32513 5.35329 5.56062 4.78573C5.79611 4.21818 6.14125 3.70266 6.57627 3.26869Z" fill="#B3B6BC"/>
</svg>
