<svg width="20" height="20" viewBox="0 0 20 20" fill="none" xmlns="http://www.w3.org/2000/svg">
<path d="M1.43386 19.3581C1.56561 19.3575 1.69594 19.3309 1.81729 19.2796C1.93865 19.2283 2.04863 19.1534 2.14085 19.0594L7.28894 13.8814C8.75501 15.0114 10.5824 15.569 12.4296 15.4499C14.2768 15.3308 16.0174 14.5431 17.3262 13.2342C18.3697 12.1971 19.0915 10.8807 19.4048 9.4432C19.7181 8.00573 19.6095 6.50837 19.0921 5.13113C18.5747 3.75389 17.6706 2.55539 16.4884 1.6797C15.3062 0.804018 13.8962 0.288421 12.428 0.194895C10.9597 0.101368 9.49572 0.433894 8.21195 1.1525C6.92818 1.8711 5.87928 2.94519 5.19134 4.24565C4.5034 5.54612 4.20571 7.01759 4.33405 8.4832C4.46239 9.9488 5.0113 11.3461 5.91479 12.5072L0.736826 17.6553C0.551365 17.8419 0.447266 18.0943 0.447266 18.3573C0.447266 18.6204 0.551365 18.8728 0.736826 19.0594C0.920674 19.247 1.17121 19.3543 1.43386 19.3581ZM7.90632 3.92377C8.69428 3.13493 9.69851 2.59753 10.792 2.37956C11.8854 2.16158 13.0189 2.27283 14.0492 2.69922C15.0794 3.12561 15.96 3.84799 16.5795 4.77497C17.1991 5.70194 17.5298 6.79186 17.5298 7.90682C17.5298 9.02179 17.1991 10.1117 16.5795 11.0387C15.96 11.9656 15.0794 12.688 14.0492 13.1144C13.0189 13.5408 11.8854 13.6521 10.792 13.4341C9.69851 13.2161 8.69428 12.6787 7.90632 11.8899C7.38244 11.3673 6.96681 10.7464 6.68322 10.063C6.39963 9.3795 6.25365 8.6468 6.25365 7.90682C6.25365 7.16685 6.39963 6.43414 6.68322 5.75067C6.96681 5.06719 7.38244 4.44638 7.90632 3.92377Z" fill="white"/>
</svg>
