<svg width="20" height="20" viewBox="0 0 20 20" fill="none" xmlns="http://www.w3.org/2000/svg">
<path d="M20 10C20 15.5228 15.5228 20 10 20C4.47715 20 0 15.5228 0 10C0 4.47715 4.47715 0 10 0C15.5228 0 20 4.47715 20 10Z" fill="#FFC331"/>
<path d="M20 10C20 15.5228 15.5228 20 10 20C4.47715 20 0 15.5228 0 10C0 4.47715 4.47715 0 10 0C15.5228 0 20 4.47715 20 10Z" fill="url(#paint0_linear)"/>
<path d="M9.30566 9.30518V6.5274H10.6946V9.30518H13.4723V10.6941H10.6946V13.4718H9.30566V10.6941H6.52789V9.30518H9.30566ZM10.0001 16.9441C6.16469 16.9441 3.05566 13.835 3.05566 9.99962C3.05566 6.1642 6.16469 3.05518 10.0001 3.05518C13.8355 3.05518 16.9446 6.1642 16.9446 9.99962C16.9446 13.835 13.8355 16.9441 10.0001 16.9441ZM10.0001 15.5552C11.4735 15.5552 12.8866 14.9699 13.9285 13.928C14.9703 12.8861 15.5557 11.473 15.5557 9.99962C15.5557 8.5262 14.9703 7.11312 13.9285 6.07125C12.8866 5.02938 11.4735 4.44406 10.0001 4.44406C8.52668 4.44406 7.11361 5.02938 6.07174 6.07125C5.02987 7.11312 4.44455 8.5262 4.44455 9.99962C4.44455 11.473 5.02987 12.8861 6.07174 13.928C7.11361 14.9699 8.52668 15.5552 10.0001 15.5552Z" fill="white"/>
<circle cx="10" cy="10" r="4" fill="white"/>
<defs>
<linearGradient id="paint0_linear" x1="10" y1="0" x2="10" y2="20" gradientUnits="userSpaceOnUse">
<stop offset="0.234375" stop-color="#A47E1B"/>
<stop offset="0.369792" stop-color="#76520E"/>
<stop offset="0.75" stop-color="#A47E1B"/>
<stop offset="0.9999" stop-color="#876213"/>
<stop offset="1" stop-color="#76520E"/>
</linearGradient>
</defs>
</svg>
