<svg width="48" height="48" viewBox="0 0 48 48" fill="none" xmlns="http://www.w3.org/2000/svg">
<circle cx="24" cy="24" r="24" fill="black" fill-opacity="0.2"/>
<path d="M12.487 25.9017C12.2778 24.6425 12.2778 23.3575 12.487 22.0983C13.7727 22.1287 14.9277 21.5127 15.3769 20.4288C15.826 19.3438 15.4445 18.0908 14.5135 17.2053C15.256 16.1662 16.165 15.2568 17.2039 14.5138C18.0905 15.4448 19.3435 15.8263 20.4285 15.3772C21.5135 14.928 22.1284 13.7718 22.0969 12.4873C23.3568 12.2778 24.6426 12.2778 25.9025 12.4873C25.871 13.773 26.487 14.928 27.5709 15.3772C28.6559 15.8263 29.9089 15.4448 30.7944 14.5138C31.8335 15.2563 32.7429 16.1653 33.4859 17.2042C32.5549 18.0908 32.1734 19.3438 32.6225 20.4288C33.0717 21.5138 34.2279 22.1287 35.5124 22.0972C35.7219 23.3571 35.7219 24.6429 35.5124 25.9028C34.2267 25.8713 33.0717 26.4873 32.6225 27.5712C32.1734 28.6562 32.5549 29.9092 33.4859 30.7947C32.7434 31.8338 31.8344 32.7432 30.7955 33.4862C29.9089 32.5552 28.6559 32.1737 27.5709 32.6228C26.4859 33.072 25.871 34.2282 25.9025 35.5127C24.6426 35.7222 23.3568 35.7222 22.0969 35.5127C22.1284 34.227 21.5124 33.072 20.4285 32.6228C19.3435 32.1737 18.0905 32.5552 17.205 33.4862C16.1659 32.7437 15.2565 31.8347 14.5135 30.7958C15.4445 29.9092 15.826 28.6562 15.3769 27.5712C14.9277 26.4862 13.7715 25.8713 12.487 25.9028V25.9017ZM23.9997 27.5C24.928 27.5 25.8182 27.1313 26.4746 26.4749C27.1309 25.8185 27.4997 24.9283 27.4997 24C27.4997 23.0718 27.1309 22.1815 26.4746 21.5251C25.8182 20.8688 24.928 20.5 23.9997 20.5C23.0714 20.5 22.1812 20.8688 21.5248 21.5251C20.8684 22.1815 20.4997 23.0718 20.4997 24C20.4997 24.9283 20.8684 25.8185 21.5248 26.4749C22.1812 27.1313 23.0714 27.5 23.9997 27.5V27.5Z" fill="white"/>
</svg>
