<svg width="27" height="27" viewBox="0 0 27 27" fill="none" xmlns="http://www.w3.org/2000/svg">
<g clip-path="url(#clip0)">
<path d="M1.00498 16.4522L4.60708 16.8362C4.62966 16.8813 4.65225 16.9265 4.66354 16.983L2.38258 19.8059C2.02124 20.2576 2.05512 20.9012 2.46163 21.319L5.30718 24.1646C5.71368 24.5711 6.36861 24.605 6.82029 24.2436L9.64325 21.9627C9.68842 21.9853 9.73359 22.0078 9.79005 22.0191L10.174 25.6212C10.2304 26.1971 10.716 26.6375 11.2919 26.6375H15.3231C15.8989 26.6375 16.3845 26.1971 16.441 25.6212L16.8249 22.0191C16.87 21.9966 16.9152 21.974 16.9717 21.9627L19.7946 24.2436C20.2463 24.605 20.89 24.5711 21.3078 24.1646L24.1533 21.319C24.5598 20.9125 24.5937 20.2576 24.2323 19.8059L21.9514 16.983C21.974 16.9378 21.9966 16.8926 22.0078 16.8362L25.61 16.4522C26.1858 16.3958 26.6262 15.9102 26.6262 15.3344V11.3032C26.6262 10.7273 26.1858 10.2417 25.61 10.1853L22.0191 9.79005C21.9966 9.74488 21.974 9.69971 21.9627 9.64325L24.2436 6.82029C24.605 6.36861 24.5711 5.72498 24.1646 5.30718L21.319 2.46163C20.9125 2.05512 20.2576 2.02124 19.8059 2.38258L16.983 4.66354C16.9378 4.64096 16.8926 4.61837 16.8362 4.60708L16.4522 1.00498C16.3958 0.440383 15.9102 0 15.3344 0H11.3032C10.7273 0 10.2417 0.440383 10.174 1.00498L9.79005 4.61837C9.74488 4.62967 9.69971 4.65225 9.65455 4.67483L6.83158 2.39388C6.3799 2.03254 5.73627 2.06641 5.32976 2.47292L2.47292 5.32976C2.06641 5.73627 2.03254 6.3799 2.39388 6.83158L4.67483 9.65455C4.65225 9.69971 4.62967 9.74488 4.61837 9.79005L1.00498 10.174C0.440383 10.2417 0 10.7273 0 11.3032V15.3344C0 15.9102 0.440383 16.3958 1.00498 16.4522ZM2.25837 12.3194L5.5556 11.9694C6.00727 11.9242 6.3799 11.6193 6.51541 11.1902C6.62833 10.795 6.7977 10.3998 7.00096 10.0159C7.2155 9.62067 7.15904 9.13512 6.87675 8.78507L4.78775 6.19923L6.19923 4.78775L8.78507 6.87675C9.13512 7.15904 9.62067 7.20421 10.0159 7.00096C10.3998 6.7977 10.795 6.62833 11.1789 6.51541C11.608 6.3799 11.9129 6.00727 11.9581 5.5556L12.3194 2.25837H14.3181L14.6681 5.5556C14.7133 6.00727 15.0295 6.3799 15.4473 6.51541C15.8312 6.63962 16.2264 6.7977 16.6103 7.00096C17.0056 7.2155 17.4911 7.15904 17.8411 6.87675L20.427 4.78775L21.8385 6.19923L19.7495 8.78507C19.4672 9.13512 19.422 9.62067 19.6253 10.0159C19.8285 10.3998 19.9866 10.795 20.1108 11.1789C20.2463 11.608 20.6189 11.9129 21.0706 11.9581L24.3678 12.3081V14.3068L21.0706 14.6568C20.6189 14.702 20.2463 15.0182 20.1108 15.436C19.9866 15.8199 19.8285 16.2151 19.6253 16.599C19.422 16.9943 19.4672 17.4798 19.7495 17.8299L21.8385 20.4157L20.427 21.8272L17.8411 19.7382C17.4911 19.4559 17.0056 19.4107 16.6103 19.614C16.2264 19.8172 15.8312 19.9753 15.4473 20.0995C15.0182 20.235 14.7133 20.6077 14.6681 21.0593L14.3181 24.3566H12.3194L11.9694 21.0593C11.9242 20.6077 11.6193 20.235 11.1902 20.0995C10.8063 19.9753 10.4111 19.8172 10.0272 19.614C9.63196 19.4107 9.14641 19.4559 8.79636 19.7382L6.21053 21.8272L4.79904 20.4157L6.88804 17.8299C7.17033 17.4798 7.2155 16.9943 7.01225 16.599C6.809 16.2151 6.65091 15.8199 6.5267 15.436C6.3912 15.0069 6.01856 14.702 5.56689 14.6568L2.25837 14.3181V12.3194Z" fill="white"/>
<path d="M13.3133 17.5929C15.6733 17.5929 17.5929 15.6733 17.5929 13.3133C17.5929 10.9533 15.6733 9.03369 13.3133 9.03369C10.9533 9.03369 9.03369 10.9533 9.03369 13.3133C9.03369 15.6733 10.9533 17.5929 13.3133 17.5929ZM13.3133 11.2921C14.4312 11.2921 15.3346 12.1954 15.3346 13.3133C15.3346 14.4312 14.4312 15.3346 13.3133 15.3346C12.1954 15.3346 11.2921 14.4312 11.2921 13.3133C11.2921 12.1954 12.2067 11.2921 13.3133 11.2921Z" fill="white"/>
</g>
<defs>
<clipPath id="clip0">
<rect width="26.6262" height="26.6262" fill="white"/>
</clipPath>
</defs>
</svg>
