<svg width="55" height="55" viewBox="0 0 55 55" fill="none" xmlns="http://www.w3.org/2000/svg">
<g filter="url(#filter0_d)">
<circle cx="26.5" cy="26.5" r="20.5" fill="#3D3D3D"/>
</g>
<g clip-path="url(#clip0)">
<path d="M15.005 29.4522L18.6071 29.8362C18.6297 29.8813 18.6522 29.9265 18.6635 29.983L16.3826 32.8059C16.0212 33.2576 16.0551 33.9012 16.4616 34.319L19.3072 37.1646C19.7137 37.5711 20.3686 37.605 20.8203 37.2436L23.6433 34.9627C23.6884 34.9853 23.7336 35.0078 23.79 35.0191L24.174 38.6212C24.2304 39.1971 24.716 39.6375 25.2919 39.6375H29.3231C29.8989 39.6375 30.3845 39.1971 30.441 38.6212L30.8249 35.0191C30.87 34.9966 30.9152 34.974 30.9717 34.9627L33.7946 37.2436C34.2463 37.605 34.89 37.5711 35.3078 37.1646L38.1533 34.319C38.5598 33.9125 38.5937 33.2576 38.2323 32.8059L35.9514 29.983C35.974 29.9378 35.9966 29.8926 36.0078 29.8362L39.61 29.4522C40.1858 29.3958 40.6262 28.9102 40.6262 28.3344V24.3032C40.6262 23.7273 40.1858 23.2417 39.61 23.1853L36.0191 22.79C35.9966 22.7449 35.974 22.6997 35.9627 22.6433L38.2436 19.8203C38.605 19.3686 38.5711 18.725 38.1646 18.3072L35.319 15.4616C34.9125 15.0551 34.2576 15.0212 33.8059 15.3826L30.983 17.6635C30.9378 17.641 30.8926 17.6184 30.8362 17.6071L30.4522 14.005C30.3958 13.4404 29.9102 13 29.3344 13H25.3032C24.7273 13 24.2417 13.4404 24.174 14.005L23.79 17.6184C23.7449 17.6297 23.6997 17.6522 23.6545 17.6748L20.8316 15.3939C20.3799 15.0325 19.7363 15.0664 19.3298 15.4729L16.4729 18.3298C16.0664 18.7363 16.0325 19.3799 16.3939 19.8316L18.6748 22.6545C18.6522 22.6997 18.6297 22.7449 18.6184 22.79L15.005 23.174C14.4404 23.2417 14 23.7273 14 24.3032V28.3344C14 28.9102 14.4404 29.3958 15.005 29.4522ZM16.2584 25.3194L19.5556 24.9694C20.0073 24.9242 20.3799 24.6193 20.5154 24.1902C20.6283 23.795 20.7977 23.3998 21.001 23.0159C21.2155 22.6207 21.159 22.1351 20.8767 21.7851L18.7878 19.1992L20.1992 17.7878L22.7851 19.8767C23.1351 20.159 23.6207 20.2042 24.0159 20.001C24.3998 19.7977 24.795 19.6283 25.1789 19.5154C25.608 19.3799 25.9129 19.0073 25.9581 18.5556L26.3194 15.2584H28.3181L28.6681 18.5556C28.7133 19.0073 29.0295 19.3799 29.4473 19.5154C29.8312 19.6396 30.2264 19.7977 30.6103 20.001C31.0056 20.2155 31.4911 20.159 31.8411 19.8767L34.427 17.7878L35.8385 19.1992L33.7495 21.7851C33.4672 22.1351 33.422 22.6207 33.6253 23.0159C33.8285 23.3998 33.9866 23.795 34.1108 24.1789C34.2463 24.608 34.6189 24.9129 35.0706 24.9581L38.3678 25.3081V27.3068L35.0706 27.6568C34.6189 27.702 34.2463 28.0182 34.1108 28.436C33.9866 28.8199 33.8285 29.2151 33.6253 29.599C33.422 29.9943 33.4672 30.4798 33.7495 30.8299L35.8385 33.4157L34.427 34.8272L31.8411 32.7382C31.4911 32.4559 31.0056 32.4107 30.6103 32.614C30.2264 32.8172 29.8312 32.9753 29.4473 33.0995C29.0182 33.235 28.7133 33.6077 28.6681 34.0593L28.3181 37.3566H26.3194L25.9694 34.0593C25.9242 33.6077 25.6193 33.235 25.1902 33.0995C24.8063 32.9753 24.4111 32.8172 24.0272 32.614C23.632 32.4107 23.1464 32.4559 22.7964 32.7382L20.2105 34.8272L18.799 33.4157L20.888 30.8299C21.1703 30.4798 21.2155 29.9943 21.0122 29.599C20.809 29.2151 20.6509 28.8199 20.5267 28.436C20.3912 28.0069 20.0186 27.702 19.5669 27.6568L16.2584 27.3181V25.3194Z" fill="white"/>
<path d="M27.3133 30.5929C29.6733 30.5929 31.5929 28.6733 31.5929 26.3133C31.5929 23.9533 29.6733 22.0337 27.3133 22.0337C24.9533 22.0337 23.0337 23.9533 23.0337 26.3133C23.0337 28.6733 24.9533 30.5929 27.3133 30.5929ZM27.3133 24.2921C28.4312 24.2921 29.3346 25.1954 29.3346 26.3133C29.3346 27.4312 28.4312 28.3346 27.3133 28.3346C26.1954 28.3346 25.2921 27.4312 25.2921 26.3133C25.2921 25.1954 26.2067 24.2921 27.3133 24.2921Z" fill="white"/>
</g>
<defs>
<filter id="filter0_d" x="0" y="0" width="55" height="55" filterUnits="userSpaceOnUse" color-interpolation-filters="sRGB">
<feFlood flood-opacity="0" result="BackgroundImageFix"/>
<feColorMatrix in="SourceAlpha" type="matrix" values="0 0 0 0 0 0 0 0 0 0 0 0 0 0 0 0 0 0 127 0"/>
<feOffset dx="1" dy="1"/>
<feGaussianBlur stdDeviation="3.5"/>
<feColorMatrix type="matrix" values="0 0 0 0 0 0 0 0 0 0 0 0 0 0 0 0 0 0 0.25 0"/>
<feBlend mode="normal" in2="BackgroundImageFix" result="effect1_dropShadow"/>
<feBlend mode="normal" in="SourceGraphic" in2="effect1_dropShadow" result="shape"/>
</filter>
<clipPath id="clip0">
<rect width="26.6262" height="26.6262" fill="white" transform="translate(14 13)"/>
</clipPath>
</defs>
</svg>
