<svg width="19" height="22" viewBox="0 0 19 22" fill="none" xmlns="http://www.w3.org/2000/svg">
<path d="M11.1202 16.0227L6.92121 13.7327C6.373 14.3188 5.66119 14.7264 4.87828 14.9026C4.09537 15.0788 3.27756 15.0154 2.53113 14.7208C1.7847 14.4261 1.14417 13.9137 0.692774 13.2502C0.241381 12.5867 0 11.8027 0 11.0002C0 10.1977 0.241381 9.41378 0.692774 8.75027C1.14417 8.08676 1.7847 7.57437 2.53113 7.27968C3.27756 6.98498 4.09537 6.92162 4.87828 7.09783C5.66119 7.27403 6.373 7.68165 6.92121 8.26771L11.1212 5.97772C10.8828 5.03379 10.9968 4.0353 11.4418 3.16942C11.8869 2.30353 12.6325 1.6297 13.5389 1.27422C14.4452 0.918737 15.4501 0.90602 16.3652 1.23845C17.2803 1.57088 18.0427 2.22563 18.5095 3.07998C18.9764 3.93432 19.1156 4.9296 18.9011 5.87926C18.6866 6.82892 18.1332 7.66775 17.3444 8.23852C16.5557 8.8093 15.5859 9.07283 14.6168 8.97971C13.6477 8.88659 12.7458 8.44323 12.0802 7.73272L7.88021 10.0227C8.04141 10.6641 8.04141 11.3354 7.88021 11.9767L12.0792 14.2667C12.7448 13.5562 13.6467 13.1128 14.6158 13.0197C15.5849 12.9266 16.5547 13.1901 17.3434 13.7609C18.1322 14.3317 18.6856 15.1705 18.9001 16.1202C19.1146 17.0698 18.9754 18.0651 18.5085 18.9195C18.0417 19.7738 17.2793 20.4286 16.3642 20.761C15.4491 21.0934 14.4442 21.0807 13.5379 20.7252C12.6315 20.3697 11.8859 19.6959 11.4408 18.83C10.9958 17.9641 10.8818 16.9656 11.1202 16.0217V16.0227ZM4.00021 12.9997C4.53064 12.9997 5.03935 12.789 5.41442 12.4139C5.78949 12.0389 6.00021 11.5301 6.00021 10.9997C6.00021 10.4693 5.78949 9.96057 5.41442 9.5855C5.03935 9.21043 4.53064 8.99971 4.00021 8.99971C3.46977 8.99971 2.96107 9.21043 2.58599 9.5855C2.21092 9.96057 2.00021 10.4693 2.00021 10.9997C2.00021 11.5301 2.21092 12.0389 2.58599 12.4139C2.96107 12.789 3.46977 12.9997 4.00021 12.9997ZM15.0002 6.99972C15.5306 6.99972 16.0393 6.789 16.4144 6.41393C16.7895 6.03886 17.0002 5.53015 17.0002 4.99972C17.0002 4.46928 16.7895 3.96057 16.4144 3.5855C16.0393 3.21043 15.5306 2.99972 15.0002 2.99972C14.4698 2.99972 13.9611 3.21043 13.586 3.5855C13.2109 3.96057 13.0002 4.46928 13.0002 4.99972C13.0002 5.53015 13.2109 6.03886 13.586 6.41393C13.9611 6.789 14.4698 6.99972 15.0002 6.99972ZM15.0002 18.9997C15.5306 18.9997 16.0393 18.789 16.4144 18.4139C16.7895 18.0389 17.0002 17.5301 17.0002 16.9997C17.0002 16.4693 16.7895 15.9606 16.4144 15.5855C16.0393 15.2104 15.5306 14.9997 15.0002 14.9997C14.4698 14.9997 13.9611 15.2104 13.586 15.5855C13.2109 15.9606 13.0002 16.4693 13.0002 16.9997C13.0002 17.5301 13.2109 18.0389 13.586 18.4139C13.9611 18.789 14.4698 18.9997 15.0002 18.9997Z" fill="white"/>
</svg>
