<svg width="17" height="20" viewBox="0 0 17 20" fill="none" xmlns="http://www.w3.org/2000/svg">
<path d="M16.7916 5.55623L11.7411 0.244639C11.5995 0.0956408 11.4051 0.0120809 11.2017 0.0120809H10.9974C10.9774 0.0100675 10.9605 0 10.9395 0C10.9196 0 10.9027 0.0100675 10.8817 0.0120809H4.57002C2.0926 0.0120809 0 2.07692 0 4.52129V8.81607C0 9.23286 0.334975 9.57113 0.747713 9.57113C1.16045 9.57113 1.49543 9.23286 1.49543 8.81607V4.52129C1.49543 2.8954 2.90312 1.5222 4.57002 1.5222H10.1918V3.68569C10.1918 5.52703 11.6763 7.02809 13.4997 7.03211H13.5007C13.9134 7.03211 14.2474 6.69486 14.2484 6.27907C14.2494 5.86127 13.9154 5.523 13.5027 5.522C12.5018 5.51998 11.6873 4.69647 11.6873 3.68569V2.36887L15.5046 6.38276V15.4435C15.5046 17.1227 14.1726 18.4899 12.5337 18.4899H4.57002C2.78847 18.4899 1.49543 17.2083 1.49543 15.4435V12.9206C1.49543 12.5038 1.16045 12.1655 0.747713 12.1655C0.334975 12.1655 0 12.5038 0 12.9206V15.4435C0 18.0409 1.96399 20 4.57002 20H12.5337C14.9971 20 17 17.9553 17 15.4435V6.07973C17 5.88443 16.9252 5.69717 16.7916 5.55623Z" fill="#EAF4FF"/>
</svg>
