<svg width="18" height="20" viewBox="0 0 18 20" fill="none" xmlns="http://www.w3.org/2000/svg">
<path d="M17.25 11.8333V18.2499C17.25 18.493 17.1534 18.7262 16.9815 18.8981C16.8096 19.07 16.5764 19.1666 16.3333 19.1666H1.66667C1.42355 19.1666 1.19039 19.07 1.01849 18.8981C0.846577 18.7262 0.75 18.493 0.75 18.2499V11.8333C1.23623 11.8333 1.70255 11.6401 2.04636 11.2963C2.39018 10.9525 2.58333 10.4861 2.58333 9.99992C2.58333 9.51369 2.39018 9.04737 2.04636 8.70356C1.70255 8.35974 1.23623 8.16659 0.75 8.16659V1.74992C0.75 1.5068 0.846577 1.27365 1.01849 1.10174C1.19039 0.929829 1.42355 0.833252 1.66667 0.833252H16.3333C16.5764 0.833252 16.8096 0.929829 16.9815 1.10174C17.1534 1.27365 17.25 1.5068 17.25 1.74992V8.16659C16.7638 8.16659 16.2975 8.35974 15.9536 8.70356C15.6098 9.04737 15.4167 9.51369 15.4167 9.99992C15.4167 10.4861 15.6098 10.9525 15.9536 11.2963C16.2975 11.6401 16.7638 11.8333 17.25 11.8333ZM6.25 4.49992V6.33325H11.75V4.49992H6.25ZM6.25 13.6666V15.4999H11.75V13.6666H6.25Z" fill="#03053D"/>
</svg>
