<svg width="21" height="19" viewBox="0 0 21 19" fill="none" xmlns="http://www.w3.org/2000/svg">
<path d="M14.7856 1.58333H17.3695C17.5979 1.58333 17.817 1.66674 17.9785 1.81521C18.1401 1.96367 18.2308 2.16504 18.2308 2.375V16.625C18.2308 16.835 18.1401 17.0363 17.9785 17.1848C17.817 17.3333 17.5979 17.4167 17.3695 17.4167H3.58883C3.3604 17.4167 3.14133 17.3333 2.97981 17.1848C2.81828 17.0363 2.72754 16.835 2.72754 16.625V2.375C2.72754 2.16504 2.81828 1.96367 2.97981 1.81521C3.14133 1.66674 3.3604 1.58333 3.58883 1.58333H6.17271V0H7.89529V1.58333H13.063V0H14.7856V1.58333ZM14.7856 3.16667V4.75H13.063V3.16667H7.89529V4.75H6.17271V3.16667H4.45012V15.8333H16.5082V3.16667H14.7856ZM6.17271 6.33333H14.7856V7.91667H6.17271V6.33333ZM6.17271 9.5H14.7856V11.0833H6.17271V9.5Z" fill="white"/>
</svg>
