<svg width="20" height="19" viewBox="0 0 20 19" fill="none" xmlns="http://www.w3.org/2000/svg">
<path d="M17.4997 10.7662V16.7709H18.333V18.548H1.66634V16.7709H2.49967V10.7662C1.98665 10.4011 1.5661 9.9066 1.27536 9.32658C0.984614 8.74657 0.832668 8.09899 0.833008 7.44133C0.833008 6.70651 1.01968 5.99835 1.36051 5.39504L3.62051 1.22161C3.69365 1.08654 3.79884 0.974375 3.92552 0.89639C4.0522 0.818405 4.1959 0.777348 4.34217 0.777344H15.658C15.8043 0.777348 15.948 0.818405 16.0747 0.89639C16.2013 0.974375 16.3065 1.08654 16.3797 1.22161L18.6313 5.38171C19.1285 6.26214 19.2883 7.31297 19.0775 8.31577C18.8668 9.31857 18.3016 10.1962 17.4997 10.7662ZM15.833 11.4148C15.26 11.4834 14.68 11.41 14.1379 11.2004C13.5959 10.9908 13.1066 10.6507 12.708 10.2064C12.3582 10.5966 11.9378 10.9071 11.4724 11.1192C11.0069 11.3313 10.5059 11.4406 9.99967 11.4406C9.49358 11.4409 8.99268 11.3318 8.5272 11.12C8.06172 10.9082 7.64131 10.598 7.29134 10.2082C6.8927 10.6523 6.40332 10.9923 5.8613 11.2017C5.31928 11.4111 4.73925 11.4844 4.16634 11.4157V16.7709H15.833V11.4157V11.4148ZM4.82384 2.55441L2.79634 6.29779C2.59932 6.81682 2.59341 7.39604 2.77978 7.91952C2.96616 8.443 3.33107 8.87212 3.80149 9.121C4.27191 9.36988 4.81313 9.42016 5.31683 9.26177C5.82052 9.10338 6.24954 8.748 6.51801 8.26678C6.79717 7.52307 7.78468 7.52307 8.06467 8.26678C8.21909 8.67942 8.48601 9.03322 8.83095 9.28246C9.17588 9.5317 9.58299 9.66492 9.99967 9.66492C10.4164 9.66492 10.8235 9.5317 11.1684 9.28246C11.5133 9.03322 11.7803 8.67942 11.9347 8.26678C12.2138 7.52307 13.2013 7.52307 13.4813 8.26678C13.5895 8.55062 13.7515 8.80754 13.9573 9.02138C14.163 9.23523 14.4081 9.40139 14.677 9.50941C14.9458 9.61742 15.2328 9.66497 15.5197 9.64905C15.8067 9.63313 16.0874 9.5541 16.3443 9.41691C16.6013 9.27973 16.8288 9.08736 17.0126 8.8519C17.1965 8.61644 17.3326 8.34298 17.4126 8.04871C17.4925 7.75443 17.5145 7.44571 17.4771 7.14194C17.4398 6.83817 17.3439 6.54593 17.1955 6.28357L15.1747 2.55441H4.82467H4.82384Z" fill="#1C2645"/>
</svg>
