<svg width="24" height="20" viewBox="0 0 24 20" fill="none" xmlns="http://www.w3.org/2000/svg">
<path d="M1.50016 0H22.5002C22.8096 0 23.1063 0.115837 23.3251 0.322029C23.5439 0.528221 23.6668 0.807877 23.6668 1.09948V18.6911C23.6668 18.9827 23.5439 19.2624 23.3251 19.4685C23.1063 19.6747 22.8096 19.7906 22.5002 19.7906H1.50016C1.19074 19.7906 0.893997 19.6747 0.675205 19.4685C0.456412 19.2624 0.333496 18.9827 0.333496 18.6911V1.09948C0.333496 0.807877 0.456412 0.528221 0.675205 0.322029C0.893997 0.115837 1.19074 0 1.50016 0V0ZM21.3335 8.79581H2.66683V17.5916H21.3335V8.79581ZM21.3335 6.59686V2.19895H2.66683V6.59686H21.3335ZM14.3335 13.1937H19.0002V15.3927H14.3335V13.1937Z" fill="#85878B"/>
</svg>
