<svg width="35" height="35" viewBox="0 0 35 35" fill="none" xmlns="http://www.w3.org/2000/svg">
<g filter="url(#filter0_d)">
<path d="M16.5 30C23.9558 30 30 23.9558 30 16.5C30 9.04416 23.9558 3 16.5 3C9.04416 3 3 9.04416 3 16.5C3 23.9558 9.04416 30 16.5 30Z" fill="url(#paint0_radial)"/>
</g>
<path d="M14.8537 10.9024H18.8049L20.1219 12.2195H22.7561C22.9307 12.2195 23.0982 12.2889 23.2217 12.4124C23.3452 12.5359 23.4146 12.7034 23.4146 12.878V22.0976C23.4146 22.2722 23.3452 22.4397 23.2217 22.5632C23.0982 22.6867 22.9307 22.7561 22.7561 22.7561H10.9024C10.7278 22.7561 10.5603 22.6867 10.4368 22.5632C10.3133 22.4397 10.2439 22.2722 10.2439 22.0976V12.878C10.2439 12.7034 10.3133 12.5359 10.4368 12.4124C10.5603 12.2889 10.7278 12.2195 10.9024 12.2195H13.5366L14.8537 10.9024ZM16.8293 21.439C17.8772 21.439 18.8822 21.0227 19.6232 20.2817C20.3642 19.5407 20.7805 18.5357 20.7805 17.4878C20.7805 16.4399 20.3642 15.4349 19.6232 14.6939C18.8822 13.9529 17.8772 13.5366 16.8293 13.5366C15.7813 13.5366 14.7763 13.9529 14.0353 14.6939C13.2943 15.4349 12.878 16.4399 12.878 17.4878C12.878 18.5357 13.2943 19.5407 14.0353 20.2817C14.7763 21.0227 15.7813 21.439 16.8293 21.439ZM16.8293 20.1219C16.1306 20.1219 15.4606 19.8444 14.9666 19.3504C14.4726 18.8564 14.1951 18.1864 14.1951 17.4878C14.1951 16.7892 14.4726 16.1192 14.9666 15.6252C15.4606 15.1312 16.1306 14.8537 16.8293 14.8537C17.5279 14.8537 18.1979 15.1312 18.6919 15.6252C19.1859 16.1192 19.4634 16.7892 19.4634 17.4878C19.4634 18.1864 19.1859 18.8564 18.6919 19.3504C18.1979 19.8444 17.5279 20.1219 16.8293 20.1219Z" fill="white"/>
<defs>
<filter id="filter0_d" x="0" y="0" width="35" height="35" filterUnits="userSpaceOnUse" color-interpolation-filters="sRGB">
<feFlood flood-opacity="0" result="BackgroundImageFix"/>
<feColorMatrix in="SourceAlpha" type="matrix" values="0 0 0 0 0 0 0 0 0 0 0 0 0 0 0 0 0 0 127 0"/>
<feOffset dx="1" dy="1"/>
<feGaussianBlur stdDeviation="2"/>
<feColorMatrix type="matrix" values="0 0 0 0 0.6875 0 0 0 0 0 0 0 0 0 0.296569 0 0 0 1 0"/>
<feBlend mode="normal" in2="BackgroundImageFix" result="effect1_dropShadow"/>
<feBlend mode="normal" in="SourceGraphic" in2="effect1_dropShadow" result="shape"/>
</filter>
<radialGradient id="paint0_radial" cx="0" cy="0" r="1" gradientUnits="userSpaceOnUse" gradientTransform="translate(16.4997 16.4996) scale(13.4996)">
<stop stop-color="#FFB36E"/>
<stop offset="1" stop-color="#FF006E"/>
</radialGradient>
</defs>
</svg>
