<svg width="96" height="96" viewBox="0 0 96 96" fill="none" xmlns="http://www.w3.org/2000/svg">
<g filter="url(#filter0_d)">
<rect x="4" width="87.427" height="87.427" rx="43.7135" fill="url(#paint0_linear)"/>
</g>
<path d="M24.6764 67.3333L27.831 55.7413C25.7523 52.178 24.6602 48.1253 24.667 44C24.667 31.113 35.1134 20.6666 48.0004 20.6666C60.8874 20.6666 71.3337 31.113 71.3337 44C71.3337 56.887 60.8874 67.3333 48.0004 67.3333C43.8768 67.3399 39.8259 66.2487 36.2637 64.1716L24.6764 67.3333ZM39.5794 33.052C39.278 33.0707 38.9836 33.15 38.7137 33.2853C38.4606 33.4286 38.2295 33.6078 38.0277 33.8173C37.7477 34.081 37.589 34.3096 37.4187 34.5313C36.5563 35.6536 36.0924 37.0313 36.1004 38.4466C36.105 39.59 36.4037 40.703 36.8704 41.7436C37.8247 43.8483 39.395 46.0766 41.4694 48.1416C41.9687 48.6386 42.4564 49.138 42.9814 49.6023C45.5559 51.869 48.6239 53.5037 51.9414 54.3763L53.269 54.5793C53.7007 54.6026 54.1324 54.57 54.5664 54.549C55.2459 54.5139 55.9095 54.3299 56.51 54.01C56.8974 53.8046 57.0794 53.702 57.4037 53.4966C57.4037 53.4966 57.504 53.4313 57.6954 53.2866C58.0104 53.0533 58.204 52.8876 58.4654 52.6146C58.659 52.414 58.827 52.1783 58.9554 51.91C59.1374 51.5296 59.3194 50.804 59.394 50.1996C59.45 49.7376 59.4337 49.4856 59.4267 49.3293C59.4174 49.0796 59.2097 48.8206 58.9834 48.711L57.6254 48.102C57.6254 48.102 55.5954 47.2176 54.3564 46.653C54.2257 46.596 54.0857 46.5636 53.9434 46.5573C53.7837 46.5409 53.6224 46.5589 53.4703 46.61C53.3181 46.6611 53.1787 46.7442 53.0614 46.8536V46.849C53.0497 46.849 52.8934 46.982 51.2064 49.026C51.1095 49.1561 50.9762 49.2544 50.8232 49.3084C50.6703 49.3624 50.5048 49.3697 50.3477 49.3293C50.1957 49.2886 50.0467 49.2372 49.902 49.1753C49.6127 49.054 49.5124 49.0073 49.314 48.921L49.3024 48.9163C47.9675 48.3335 46.7315 47.5463 45.639 46.583C45.345 46.3263 45.072 46.0463 44.792 45.7756C43.874 44.8965 43.074 43.902 42.412 42.817L42.2744 42.5953C42.1755 42.4463 42.0955 42.2857 42.0364 42.117C41.9477 41.774 42.1787 41.4986 42.1787 41.4986C42.1787 41.4986 42.7457 40.878 43.0094 40.542C43.2289 40.2627 43.4337 39.9722 43.623 39.6716C43.8984 39.2283 43.9847 38.7733 43.84 38.421C43.1867 36.825 42.51 35.236 41.8147 33.6586C41.677 33.346 41.2687 33.122 40.8977 33.0776C40.7717 33.0636 40.6457 33.0496 40.5197 33.0403C40.2063 33.0247 39.8923 33.0278 39.5794 33.0496V33.052Z" fill="white"/>
<defs>
<filter id="filter0_d" x="0" y="0" width="95.427" height="95.427" filterUnits="userSpaceOnUse" color-interpolation-filters="sRGB">
<feFlood flood-opacity="0" result="BackgroundImageFix"/>
<feColorMatrix in="SourceAlpha" type="matrix" values="0 0 0 0 0 0 0 0 0 0 0 0 0 0 0 0 0 0 127 0"/>
<feOffset dy="4"/>
<feGaussianBlur stdDeviation="2"/>
<feColorMatrix type="matrix" values="0 0 0 0 0 0 0 0 0 0 0 0 0 0 0 0 0 0 0.25 0"/>
<feBlend mode="normal" in2="BackgroundImageFix" result="effect1_dropShadow"/>
<feBlend mode="normal" in="SourceGraphic" in2="effect1_dropShadow" result="shape"/>
</filter>
<linearGradient id="paint0_linear" x1="47.7135" y1="68.0922" x2="91.427" y2="19.3348" gradientUnits="userSpaceOnUse">
<stop stop-color="#4AAE20"/>
<stop offset="1" stop-color="#5EE825"/>
</linearGradient>
</defs>
</svg>
