<svg width="48" height="48" viewBox="0 0 48 48" fill="none" xmlns="http://www.w3.org/2000/svg">
<circle cx="24" cy="24" r="24" fill="black" fill-opacity="0.2"/>
<path d="M12.0052 36L13.7628 29.5416C12.6047 27.5563 11.9962 25.2984 12 23C12 15.8201 17.8201 10 25 10C32.1799 10 38 15.8201 38 23C38 30.1799 32.1799 36 25 36C22.7026 36.0037 20.4457 35.3957 18.461 34.2385L12.0052 36ZM20.3083 16.9004C20.1404 16.9108 19.9764 16.955 19.826 17.0304C19.685 17.1103 19.5563 17.2101 19.4438 17.3268C19.2878 17.4737 19.1994 17.6011 19.1045 17.7246C18.624 18.3499 18.3656 19.1174 18.37 19.906C18.3726 20.543 18.539 21.1631 18.799 21.7429C19.3307 22.9155 20.2056 24.157 21.3613 25.3075C21.6395 25.5844 21.9112 25.8626 22.2037 26.1213C23.6381 27.3842 25.3474 28.2949 27.1957 28.7811L27.9354 28.8942C28.1759 28.9072 28.4164 28.889 28.6582 28.8773C29.0368 28.8577 29.4065 28.7552 29.7411 28.577C29.9569 28.4626 30.0583 28.4054 30.239 28.291C30.239 28.291 30.2949 28.2546 30.4015 28.174C30.577 28.044 30.6849 27.9517 30.8305 27.7996C30.9384 27.6878 31.032 27.5565 31.1035 27.407C31.2049 27.1951 31.3063 26.7908 31.3479 26.4541C31.3791 26.1967 31.37 26.0563 31.3661 25.9692C31.3609 25.8301 31.2452 25.6858 31.1191 25.6247L30.3625 25.2854C30.3625 25.2854 29.2315 24.7927 28.5412 24.4781C28.4684 24.4464 28.3904 24.4283 28.3111 24.4248C28.2222 24.4157 28.1323 24.4257 28.0475 24.4541C27.9628 24.4826 27.8851 24.5289 27.8197 24.5899V24.5873C27.8132 24.5873 27.7261 24.6614 26.7862 25.8002C26.7323 25.8727 26.658 25.9275 26.5728 25.9576C26.4876 25.9877 26.3953 25.9917 26.3078 25.9692C26.2231 25.9465 26.1401 25.9179 26.0595 25.8834C25.8983 25.8158 25.8424 25.7898 25.7319 25.7417L25.7254 25.7391C24.9817 25.4144 24.2931 24.9758 23.6844 24.4391C23.5206 24.2961 23.3685 24.1401 23.2125 23.9893C22.7011 23.4995 22.2553 22.9454 21.8865 22.3409L21.8098 22.2174C21.7547 22.1344 21.7102 22.0449 21.6772 21.9509C21.6278 21.7598 21.7565 21.6064 21.7565 21.6064C21.7565 21.6064 22.0724 21.2606 22.2193 21.0734C22.3416 20.9178 22.4557 20.756 22.5612 20.5885C22.7146 20.3415 22.7627 20.088 22.6821 19.8917C22.3181 19.0025 21.9411 18.1172 21.5537 17.2384C21.477 17.0642 21.2495 16.9394 21.0428 16.9147C20.9726 16.9069 20.9024 16.8991 20.8322 16.8939C20.6576 16.8852 20.4827 16.887 20.3083 16.8991V16.9004Z" fill="white"/>
</svg>
