<svg width="310" height="310" viewBox="0 0 310 310" fill="none" xmlns="http://www.w3.org/2000/svg">
<path d="M0.0622074 310L21.0182 232.996C7.20985 209.325 -0.0448048 182.404 0.0002082 155C0.0002082 69.3935 69.3937 0 155 0C240.607 0 310 69.3935 310 155C310 240.606 240.607 310 155 310C127.608 310.044 100.698 302.795 77.0352 288.997L0.0622074 310ZM99.0607 82.274C97.0591 82.3983 95.1032 82.9255 93.3102 83.824C91.6288 84.7762 90.0939 85.9665 88.7532 87.358C86.8932 89.1095 85.8392 90.6285 84.7077 92.101C78.9791 99.5564 75.8977 108.708 75.9502 118.11C75.9812 125.705 77.9652 133.098 81.0652 140.012C87.4047 153.992 97.8362 168.795 111.616 182.512C114.933 185.814 118.172 189.131 121.66 192.215C138.762 207.273 159.143 218.132 181.18 223.929L189.999 225.277C192.867 225.432 195.734 225.215 198.617 225.076C203.131 224.842 207.539 223.62 211.529 221.495C214.102 220.131 215.311 219.449 217.465 218.085C217.465 218.085 218.132 217.651 219.403 216.69C221.495 215.14 222.782 214.04 224.518 212.226C225.804 210.893 226.92 209.327 227.773 207.545C228.982 205.019 230.191 200.198 230.687 196.183C231.059 193.114 230.95 191.441 230.904 190.402C230.842 188.743 229.462 187.023 227.959 186.294L218.938 182.249C218.938 182.249 205.453 176.374 197.222 172.624C196.354 172.245 195.424 172.03 194.479 171.988C193.418 171.879 192.347 171.998 191.336 172.338C190.326 172.677 189.399 173.229 188.62 173.956V173.925C188.542 173.925 187.504 174.809 176.297 188.387C175.654 189.251 174.768 189.905 173.752 190.263C172.736 190.622 171.637 190.67 170.593 190.402C169.583 190.132 168.594 189.79 167.633 189.379C165.711 188.573 165.044 188.263 163.727 187.689L163.649 187.659C154.782 183.787 146.572 178.558 139.314 172.159C137.361 170.454 135.548 168.593 133.688 166.796C127.59 160.956 122.275 154.349 117.878 147.141L116.963 145.669C116.306 144.68 115.775 143.612 115.382 142.492C114.793 140.213 116.328 138.384 116.328 138.384C116.328 138.384 120.094 134.261 121.846 132.029C123.304 130.174 124.665 128.244 125.922 126.248C127.751 123.303 128.325 120.28 127.364 117.94C123.024 107.338 118.529 96.782 113.91 86.304C112.995 84.227 110.283 82.739 107.818 82.4445C106.981 82.3515 106.144 82.2585 105.307 82.1965C103.226 82.0931 101.14 82.1138 99.0607 82.2585V82.274Z" fill="white"/>
</svg>
