<svg width="56" height="56" viewBox="0 0 56 56" fill="none" xmlns="http://www.w3.org/2000/svg">
<g filter="url(#filter0_d)">
<circle cx="28" cy="24" r="24" fill="black" fill-opacity="0.2"/>
</g>
<path d="M13.8387 38.1666L15.754 31.1286C14.492 28.9652 13.8289 26.5046 13.833 24C13.833 16.1757 20.1754 9.83331 27.9997 9.83331C35.8239 9.83331 42.1664 16.1757 42.1664 24C42.1664 31.8242 35.8239 38.1666 27.9997 38.1666C25.4961 38.1707 23.0366 37.5081 20.8739 36.2471L13.8387 38.1666ZM22.8869 17.353C22.704 17.3643 22.5252 17.4125 22.3614 17.4946C22.2077 17.5817 22.0674 17.6905 21.9449 17.8176C21.7749 17.9777 21.6785 18.1166 21.5751 18.2511C21.0515 18.9326 20.7699 19.769 20.7747 20.6283C20.7775 21.3225 20.9589 21.9982 21.2422 22.6301C21.8216 23.9079 22.775 25.2608 24.0344 26.5146C24.3376 26.8163 24.6337 27.1195 24.9524 27.4014C26.5156 28.7776 28.3783 29.7701 30.3924 30.2999L31.1985 30.4231C31.4606 30.4373 31.7227 30.4175 31.9862 30.4047C32.3988 30.3834 32.8016 30.2717 33.1663 30.0775C33.4014 29.9528 33.5119 29.8905 33.7089 29.7658C33.7089 29.7658 33.7698 29.7261 33.8859 29.6383C34.0772 29.4966 34.1948 29.3961 34.3534 29.2303C34.471 29.1085 34.573 28.9654 34.6509 28.8025C34.7614 28.5716 34.8719 28.131 34.9173 27.7641C34.9513 27.4836 34.9414 27.3306 34.9371 27.2356C34.9314 27.0841 34.8054 26.9268 34.6679 26.8602L33.8434 26.4905C33.8434 26.4905 32.6109 25.9536 31.8587 25.6107C31.7794 25.5762 31.6944 25.5565 31.6079 25.5526C31.511 25.5427 31.4131 25.5536 31.3207 25.5846C31.2283 25.6157 31.1437 25.6661 31.0724 25.7326V25.7297C31.0654 25.7297 30.9704 25.8105 29.9462 27.0515C29.8874 27.1305 29.8064 27.1902 29.7136 27.223C29.6207 27.2558 29.5202 27.2602 29.4249 27.2356C29.3326 27.211 29.2421 27.1797 29.1543 27.1421C28.9786 27.0685 28.9177 27.0401 28.7973 26.9877L28.7902 26.9849C27.9797 26.631 27.2293 26.1531 26.566 25.5682C26.3875 25.4124 26.2218 25.2424 26.0518 25.0781C25.4944 24.5443 25.0087 23.9405 24.6068 23.2817L24.5232 23.1471C24.4632 23.0567 24.4146 22.9592 24.3787 22.8567C24.3249 22.6485 24.4651 22.4813 24.4651 22.4813C24.4651 22.4813 24.8094 22.1045 24.9694 21.9005C25.1027 21.7309 25.2271 21.5546 25.342 21.3721C25.5092 21.1029 25.5616 20.8266 25.4738 20.6127C25.0771 19.6437 24.6663 18.679 24.2441 17.7213C24.1605 17.5315 23.9126 17.3955 23.6874 17.3686C23.6109 17.3601 23.5344 17.3516 23.4579 17.3459C23.2676 17.3364 23.077 17.3383 22.8869 17.3516V17.353Z" fill="white"/>
<defs>
<filter id="filter0_d" x="0" y="0" width="56" height="56" filterUnits="userSpaceOnUse" color-interpolation-filters="sRGB">
<feFlood flood-opacity="0" result="BackgroundImageFix"/>
<feColorMatrix in="SourceAlpha" type="matrix" values="0 0 0 0 0 0 0 0 0 0 0 0 0 0 0 0 0 0 127 0"/>
<feOffset dy="4"/>
<feGaussianBlur stdDeviation="2"/>
<feColorMatrix type="matrix" values="0 0 0 0 0 0 0 0 0 0 0 0 0 0 0 0 0 0 0.25 0"/>
<feBlend mode="normal" in2="BackgroundImageFix" result="effect1_dropShadow"/>
<feBlend mode="normal" in="SourceGraphic" in2="effect1_dropShadow" result="shape"/>
</filter>
</defs>
</svg>
