<svg width="180" height="180" viewBox="0 0 180 180" fill="none" xmlns="http://www.w3.org/2000/svg">
<path d="M0.0361204 180L12.2041 135.288C4.18636 121.544 -0.0260157 105.912 0.00012089 90C0.00012089 40.293 40.2931 0 90.0001 0C139.707 0 180 40.293 180 90C180 139.707 139.707 180 90.0001 180C74.0951 180.026 58.47 175.817 44.7301 167.805L0.0361204 180ZM57.5191 47.772C56.3569 47.8442 55.2212 48.1503 54.1801 48.672C53.2038 49.2249 52.3126 49.916 51.5341 50.724C50.4541 51.741 49.8421 52.623 49.1851 53.478C45.8588 57.807 44.0696 63.1208 44.1001 68.58C44.1181 72.99 45.2701 77.283 47.0701 81.297C50.7511 89.415 56.8081 98.01 64.8091 105.975C66.7351 107.892 68.6161 109.818 70.6411 111.609C80.5716 120.352 92.4054 126.657 105.201 130.023L110.322 130.806C111.987 130.896 113.652 130.77 115.326 130.689C117.947 130.554 120.507 129.844 122.823 128.61C124.317 127.818 125.019 127.422 126.27 126.63C126.27 126.63 126.657 126.378 127.395 125.82C128.61 124.92 129.357 124.281 130.365 123.228C131.112 122.454 131.76 121.545 132.255 120.51C132.957 119.043 133.659 116.244 133.947 113.913C134.163 112.131 134.1 111.159 134.073 110.556C134.037 109.593 133.236 108.594 132.363 108.171L127.125 105.822C127.125 105.822 119.295 102.411 114.516 100.233C114.012 100.013 113.472 99.8883 112.923 99.864C112.307 99.8008 111.685 99.87 111.098 100.067C110.512 100.264 109.974 100.585 109.521 101.007V100.989C109.476 100.989 108.873 101.502 102.366 109.386C101.993 109.888 101.478 110.267 100.888 110.476C100.298 110.684 99.66 110.712 99.0541 110.556C98.4677 110.399 97.8932 110.201 97.3351 109.962C96.2191 109.494 95.8321 109.314 95.0671 108.981L95.0221 108.963C89.8733 106.715 85.1061 103.679 80.8921 99.963C79.7581 98.973 78.7051 97.893 77.6251 96.849C74.0843 93.4581 70.9986 89.6221 68.4451 85.437L67.9141 84.582C67.5327 84.0075 67.2244 83.3877 66.9961 82.737C66.6541 81.414 67.5451 80.352 67.5451 80.352C67.5451 80.352 69.7321 77.958 70.7491 76.662C71.5959 75.5849 72.386 74.4644 73.1161 73.305C74.1781 71.595 74.5111 69.84 73.9531 68.481C71.4331 62.325 68.8231 56.196 66.1411 50.112C65.6101 48.906 64.0351 48.042 62.6041 47.871C62.1181 47.817 61.6321 47.763 61.1461 47.727C59.9375 47.667 58.7263 47.679 57.5191 47.763V47.772Z" fill="#4AAE20"/>
</svg>
