<svg width="350" height="387" viewBox="0 0 350 387" fill="none" xmlns="http://www.w3.org/2000/svg">
<rect y="252" width="341" height="135" rx="19" fill="#FF006E"/>
<path d="M305.923 224.709C303.57 218.669 301.813 212.257 299.896 205.486C298.601 200.921 296.517 195.817 292.003 194.381C287.604 192.983 282.872 195.881 280.173 199.619C277.473 203.358 276.108 207.884 273.793 211.879C269.599 219.112 262.181 222.145 256.045 215.784C247.279 206.698 243.336 194.317 237.777 183.237C233.744 175.196 230.365 165.777 225.28 158.365C217.528 147.061 206.897 137.423 192.765 137.423C183.807 138.783 175.914 146.714 170.567 156.634C165.226 166.553 162.109 178.344 159.455 190.11C154.627 211.507 151.087 231.769 147.554 253.634C147.554 253.634 325.877 253.185 325.884 253.185C325.172 253.191 320.799 247.35 319.965 246.542C313.117 239.912 309.007 232.628 305.923 224.709Z" fill="#FF006E"/>
<path d="M272.074 234.904C271.722 241.836 264.181 253.954 257.25 253.608C250.319 253.262 246.619 240.573 246.972 233.641C247.324 226.71 254.704 192.021 261.636 192.368C268.567 192.714 272.427 227.973 272.074 234.904Z" fill="#EFAF3F"/>
<path d="M261.302 196.875L257.808 253.051" stroke="#2A294F" stroke-width="0.7798" stroke-miterlimit="10" stroke-linecap="round" stroke-linejoin="round"/>
<path d="M256.211 233.462C254.634 236.931 253.428 240.567 252.704 244.362C252.338 246.286 252.101 248.37 252.973 250.12C253.922 252.038 256.032 253.153 258.141 253.499C263.296 254.346 268.445 251.191 271.465 246.927C274.485 242.67 275.793 237.463 276.992 232.379C277.935 228.377 278.865 224.319 280.647 220.587C281.41 218.99 285.886 212.816 283.77 211.219C280.878 208.943 272.497 211.418 267.131 217.278C262.713 222.1 258.911 227.531 256.211 233.462Z" fill="#FFC957"/>
<path d="M258.141 253.493C258.141 253.493 264.361 229.275 279.384 215.387" stroke="#2A294F" stroke-width="0.7798" stroke-miterlimit="10" stroke-linecap="round" stroke-linejoin="round"/>
<path d="M292.65 227.749C292.118 228.705 291.118 229.352 290.214 229.865C289.098 230.493 287.905 231.045 286.758 231.584C285.283 232.27 283.757 232.981 282.346 233.866C281.32 234.514 280.403 235.238 279.64 236.021C280.852 233.27 282.263 230.872 283.93 228.724C286.123 225.903 288.373 224.473 290.624 224.473C290.675 224.473 290.727 224.473 290.778 224.473C291.477 224.492 292.015 224.665 292.387 224.986C293.15 225.64 293.118 226.903 292.65 227.749Z" fill="#FFC957"/>
<path d="M295.157 243.407C294.266 244.042 293.086 244.202 292.048 244.279C290.772 244.369 289.457 244.362 288.188 244.35C286.559 244.337 284.873 244.324 283.225 244.523C282.019 244.664 280.884 244.933 279.858 245.311C282.128 243.343 284.437 241.778 286.86 240.554C290.053 238.938 292.695 238.611 294.728 239.573C294.773 239.592 294.824 239.618 294.869 239.643C295.491 239.957 295.908 240.349 296.106 240.797C296.517 241.721 295.946 242.849 295.157 243.407Z" fill="#FFC957"/>
<path d="M289.233 251.114C288.495 251.012 287.829 250.537 287.277 250.088C286.597 249.537 285.95 248.915 285.322 248.319C284.514 247.549 283.686 246.754 282.77 246.081C282.103 245.587 281.41 245.19 280.724 244.895C282.776 244.978 284.655 245.28 286.437 245.812C288.778 246.504 290.252 247.581 290.81 249.011C290.823 249.043 290.836 249.075 290.849 249.114C291.009 249.563 291.035 249.947 290.926 250.268C290.695 250.909 289.88 251.204 289.233 251.114Z" fill="#FFC957"/>
<path d="M272.363 253.628C272.363 253.628 272.433 238.81 290.528 226.23" stroke="#2A294F" stroke-width="0.7798" stroke-miterlimit="10" stroke-linecap="round" stroke-linejoin="round"/>
<path d="M272.363 253.628C272.363 253.628 277.922 241.721 292.984 241.721" stroke="#2A294F" stroke-width="0.7798" stroke-miterlimit="10" stroke-linecap="round" stroke-linejoin="round"/>
<path d="M280.564 245.036C280.564 245.036 283.481 244.824 289.573 249.415" stroke="#2A294F" stroke-width="0.7798" stroke-miterlimit="10" stroke-linecap="round" stroke-linejoin="round"/>
<path d="M158 253.987C152.115 238.188 146.193 222.383 139.269 207.083C135.361 198.453 131.055 189.862 125.07 182.962C119.086 176.061 111.16 170.968 103.199 171C90.9402 172.685 83.0237 181.277 77.8333 190.797C74.4302 197.037 72.7783 204.597 70.3772 211.196C67.0644 220.281 65.3222 230.167 58.9584 238.111C54.4991 243.679 47.6478 242.256 43.0261 237.259C40.4806 234.498 38.6752 231.217 35.8228 228.7C32.9703 226.182 28.466 224.542 24.8462 226.131C21.1182 227.764 20.0079 231.89 19.5024 235.516C18.7622 240.892 18.1032 245.972 16.8846 250.848C16.6228 251.911 16.325 252.956 16 254H158V253.987Z" fill="#FF006E"/>
<path d="M79.4656 231.936C76.8495 228.922 73.541 226.319 72.5022 222.517C71.7392 219.74 72.3419 216.797 72.6369 213.931C72.9318 211.065 72.8292 207.897 70.9762 205.692C69.4501 203.871 67.0328 203.082 64.7117 202.582C62.3906 202.082 59.9669 201.768 57.9086 200.588C54.5616 198.671 55.2284 195.407 53.4331 192.547C51.4197 189.335 46.7262 185.238 42.7123 187.373C38.4547 189.63 39.128 196.491 41.9621 199.517C43.8408 201.524 46.2453 203.454 46.521 206.185C46.9378 210.302 42.2186 214.014 43.5138 217.945C44.4756 220.85 48.1304 221.843 49.9385 224.312C51.7275 226.755 51.3684 230.173 50.3104 233.007C49.2589 235.841 47.5982 238.463 46.9442 241.419C45.6041 247.459 50.3425 251.64 55.7478 252.986C60.7106 254.224 71.4186 253.64 71.4186 253.64C75.2401 252.307 79.4784 248.947 81.5751 245.279C83.1653 242.509 83.3833 238.995 82.1522 236.046C81.5239 234.52 80.5556 233.193 79.4656 231.936Z" fill="#FFC957"/>
<path d="M47.4636 193.881C47.4636 193.881 65.7441 222.119 67.7318 253.474" stroke="#2A294F" stroke-width="0.7798" stroke-miterlimit="10" stroke-linecap="round" stroke-linejoin="round"/>
<path d="M31.1834 231.968C31.4656 231.724 31.8759 231.596 32.4017 231.583C32.4402 231.583 32.4786 231.583 32.5171 231.583C34.2163 231.583 35.9219 232.667 37.5762 234.802C38.8393 236.424 39.9037 238.239 40.8206 240.316C40.2435 239.726 39.551 239.175 38.7752 238.688C37.7108 238.021 36.5567 237.482 35.441 236.963C34.5689 236.559 33.6713 236.142 32.8249 235.661C32.1388 235.277 31.3822 234.783 30.9847 234.065C30.6256 233.423 30.6064 232.468 31.1834 231.968Z" fill="#FFC957"/>
<path d="M28.3687 243.926C28.5226 243.586 28.8368 243.291 29.3049 243.054C29.3369 243.035 29.3754 243.016 29.4075 243.003C30.9463 242.272 32.9469 242.522 35.3578 243.747C37.1916 244.676 38.9356 245.856 40.6476 247.344C39.8718 247.055 39.0126 246.856 38.1021 246.747C36.8517 246.6 35.5758 246.606 34.3447 246.613C33.3829 246.619 32.3954 246.626 31.4272 246.555C30.645 246.497 29.7473 246.375 29.0804 245.901C28.4905 245.478 28.0609 244.625 28.3687 243.926Z" fill="#FFC957"/>
<path d="M32.2864 251.082C32.203 250.845 32.2223 250.55 32.3441 250.21C32.3505 250.184 32.3633 250.158 32.3697 250.133C32.7929 249.049 33.9022 248.235 35.6783 247.709C37.0248 247.312 38.4483 247.081 40 247.017C39.4806 247.241 38.9548 247.542 38.4547 247.914C37.7622 248.427 37.1338 249.03 36.5247 249.607C36.0502 250.062 35.5629 250.53 35.0499 250.947C34.6332 251.287 34.133 251.646 33.5752 251.723C33.0751 251.794 32.4595 251.569 32.2864 251.082Z" fill="#FFC957"/>
<path d="M46.3223 253.627C46.3223 253.627 46.271 242.419 32.5879 232.91" stroke="#2A294F" stroke-width="0.7798" stroke-miterlimit="10" stroke-linecap="round" stroke-linejoin="round"/>
<path d="M46.3222 253.627C46.3222 253.627 42.1223 244.625 30.7283 244.625" stroke="#2A294F" stroke-width="0.7798" stroke-miterlimit="10" stroke-linecap="round" stroke-linejoin="round"/>
<path d="M40.1218 247.132C40.1218 247.132 37.916 246.972 33.3123 250.447" stroke="#2A294F" stroke-width="0.7798" stroke-miterlimit="10" stroke-linecap="round" stroke-linejoin="round"/>
<g clip-path="url(#clip0)">
<path d="M81.7686 40.9293C81.571 40.2966 81.4507 39.6421 81.4103 38.9803C81.3067 37.598 81.5727 36.2131 82.1809 34.9685C82.7891 33.724 83.7174 32.665 84.8699 31.901C86.0223 31.137 87.3571 30.6958 88.7364 30.6228C90.1156 30.5498 91.4893 30.8477 92.7154 31.4858C93.3023 30.2036 94.2299 29.1084 95.3963 28.3205C96.5627 27.5325 97.9228 27.0824 99.3274 27.0193C100.23 27.0174 101.129 27.1424 101.998 27.3906C102.435 26.3806 103.145 25.5138 104.048 24.8884C104.951 24.263 106.011 23.904 107.107 23.8522C108.669 23.7681 110.207 24.2648 111.426 25.2472C112.646 26.2296 113.462 27.6288 113.719 29.1772L115.152 29.2584C116.314 29.4927 117.394 30.0287 118.285 30.813C119.584 31.9698 120.384 33.5881 120.516 35.3259V35.4651C121.247 35.1348 122.029 34.9308 122.828 34.8618L124.608 34.9546C126.045 35.2261 127.357 35.9529 128.351 37.0284C129.346 38.1038 129.971 39.4711 130.133 40.9293H81.7686Z" fill="white"/>
<path d="M228.482 64.4686V244.753C228.481 248.764 226.958 252.625 224.222 255.549C221.486 258.473 217.744 260.242 213.755 260.496C213.431 260.496 213.096 260.496 212.761 260.496H124.631C122.568 260.496 120.524 260.088 118.617 259.295C116.71 258.502 114.978 257.339 113.519 255.874C112.06 254.409 110.903 252.669 110.115 250.755C109.326 248.841 108.921 246.79 108.922 244.718V64.4686C108.915 62.0864 109.453 59.7343 110.495 57.594C111.537 55.4538 113.056 53.5825 114.933 52.1248V239.927C114.932 240.815 115.105 241.696 115.443 242.517C115.781 243.338 116.277 244.084 116.904 244.713C117.53 245.341 118.273 245.839 119.092 246.179C119.91 246.518 120.787 246.692 121.672 246.69H215.836C216.721 246.69 217.597 246.515 218.415 246.176C219.232 245.836 219.975 245.337 220.601 244.709C221.227 244.081 221.723 243.336 222.062 242.515C222.4 241.695 222.575 240.815 222.575 239.927V52.1248C223.685 52.9881 224.67 54.0034 225.499 55.1411C227.461 57.8506 228.506 61.1195 228.482 64.4686Z" fill="#292929"/>
<path d="M215.789 19.6875H121.614C120.342 19.686 119.081 19.9369 117.906 20.426C116.731 20.915 115.663 21.6325 114.765 22.5371C113.867 23.4417 113.156 24.5156 112.673 25.697C112.19 26.8784 111.944 28.144 111.95 29.421V239.927C111.953 242.498 112.972 244.963 114.784 246.781C116.596 248.6 119.052 249.622 121.614 249.626H215.789C217.884 249.615 219.918 248.921 221.586 247.649C223.254 246.377 224.465 244.595 225.036 242.572C225.284 241.712 225.408 240.822 225.406 239.927V29.421C225.416 26.8508 224.408 24.3819 222.605 22.5569C220.801 20.7318 218.35 19.6998 215.789 19.6875ZM222.528 239.927C222.533 240.816 222.361 241.698 222.024 242.521C221.687 243.343 221.191 244.091 220.564 244.72C219.938 245.349 219.193 245.847 218.373 246.185C217.554 246.523 216.675 246.695 215.789 246.69H121.614C119.836 246.678 118.135 245.96 116.883 244.692C115.631 243.425 114.93 241.712 114.933 239.927V52.1248C117.694 49.8825 121.137 48.6545 124.689 48.6444H212.818C216.374 48.6547 219.82 49.8825 222.586 52.1248L222.528 239.927Z" fill="#292929"/>
<g style="mix-blend-mode:multiply" opacity="0.2">
<g style="mix-blend-mode:multiply" opacity="0.2">
<path d="M184.763 172.175H133.555C133.006 172.175 132.48 172.394 132.092 172.783C131.704 173.173 131.486 173.701 131.486 174.252C131.486 174.802 131.704 175.331 132.092 175.72C132.48 176.11 133.006 176.328 133.555 176.328H184.763C185.312 176.328 185.838 176.11 186.226 175.72C186.615 175.331 186.833 174.802 186.833 174.252C186.833 173.701 186.615 173.173 186.226 172.783C185.838 172.394 185.312 172.175 184.763 172.175Z" fill="#191D3F"/>
</g>
<g style="mix-blend-mode:multiply" opacity="0.2">
<path d="M207.408 172.175H191.468C190.919 172.175 190.393 172.394 190.005 172.783C189.617 173.173 189.399 173.701 189.399 174.252C189.399 174.802 189.617 175.331 190.005 175.72C190.393 176.11 190.919 176.328 191.468 176.328H207.408C207.957 176.328 208.483 176.11 208.871 175.72C209.259 175.331 209.477 174.802 209.477 174.252C209.477 173.701 209.259 173.173 208.871 172.783C208.483 172.394 207.957 172.175 207.408 172.175Z" fill="#191D3F"/>
</g>
</g>
<g style="mix-blend-mode:multiply" opacity="0.2">
<path d="M207.408 184.113H133.555C133.006 184.113 132.48 184.332 132.092 184.721C131.704 185.111 131.486 185.639 131.486 186.19C131.486 186.74 131.704 187.269 132.092 187.658C132.48 188.048 133.006 188.266 133.555 188.266H207.408C207.957 188.266 208.483 188.048 208.871 187.658C209.259 187.269 209.477 186.74 209.477 186.19C209.477 185.639 209.259 185.111 208.871 184.721C208.483 184.332 207.957 184.113 207.408 184.113Z" fill="#191D3F"/>
</g>
<g style="mix-blend-mode:multiply" opacity="0.2">
<g style="mix-blend-mode:multiply" opacity="0.2">
<path d="M184.763 194.311H133.555C133.283 194.311 133.014 194.364 132.763 194.469C132.512 194.573 132.284 194.726 132.092 194.919C131.9 195.112 131.747 195.341 131.643 195.592C131.539 195.844 131.486 196.114 131.486 196.387C131.486 196.66 131.539 196.93 131.643 197.182C131.747 197.434 131.9 197.663 132.092 197.856C132.284 198.048 132.512 198.201 132.763 198.306C133.014 198.41 133.283 198.464 133.555 198.464H184.763C185.312 198.464 185.838 198.245 186.226 197.856C186.615 197.466 186.833 196.938 186.833 196.387C186.833 195.836 186.615 195.308 186.226 194.919C185.838 194.529 185.312 194.311 184.763 194.311Z" fill="#191D3F"/>
</g>
</g>
<g style="mix-blend-mode:multiply" opacity="0.2">
<g style="mix-blend-mode:multiply" opacity="0.2">
<path d="M184.763 138.763H133.555C133.006 138.763 132.48 138.982 132.092 139.372C131.704 139.761 131.486 140.289 131.486 140.84C131.486 141.391 131.704 141.919 132.092 142.308C132.48 142.698 133.006 142.917 133.555 142.917H184.763C185.312 142.917 185.838 142.698 186.226 142.308C186.615 141.919 186.833 141.391 186.833 140.84C186.833 140.289 186.615 139.761 186.226 139.372C185.838 138.982 185.312 138.763 184.763 138.763Z" fill="#191D3F"/>
</g>
<g style="mix-blend-mode:multiply" opacity="0.2">
<path d="M207.408 138.763H191.468C190.919 138.763 190.393 138.982 190.005 139.372C189.617 139.761 189.399 140.289 189.399 140.84C189.399 141.391 189.617 141.919 190.005 142.308C190.393 142.698 190.919 142.917 191.468 142.917H207.408C207.957 142.917 208.483 142.698 208.871 142.308C209.259 141.919 209.477 141.391 209.477 140.84C209.477 140.289 209.259 139.761 208.871 139.372C208.483 138.982 207.957 138.763 207.408 138.763Z" fill="#191D3F"/>
</g>
</g>
<g style="mix-blend-mode:multiply" opacity="0.2">
<path d="M207.408 150.701H133.555C133.006 150.701 132.48 150.92 132.092 151.309C131.704 151.699 131.486 152.227 131.486 152.778C131.486 153.328 131.704 153.857 132.092 154.246C132.48 154.635 133.006 154.854 133.555 154.854H207.408C207.957 154.854 208.483 154.635 208.871 154.246C209.259 153.857 209.477 153.328 209.477 152.778C209.477 152.227 209.259 151.699 208.871 151.309C208.483 150.92 207.957 150.701 207.408 150.701Z" fill="#191D3F"/>
</g>
<g style="mix-blend-mode:multiply" opacity="0.2">
<g style="mix-blend-mode:multiply" opacity="0.2">
<path d="M184.763 160.91H133.555C133.006 160.91 132.48 161.129 132.092 161.519C131.704 161.908 131.486 162.436 131.486 162.987C131.486 163.538 131.704 164.066 132.092 164.455C132.48 164.845 133.006 165.064 133.555 165.064H184.763C185.312 165.064 185.838 164.845 186.226 164.455C186.615 164.066 186.833 163.538 186.833 162.987C186.833 162.436 186.615 161.908 186.226 161.519C185.838 161.129 185.312 160.91 184.763 160.91Z" fill="#191D3F"/>
</g>
</g>
<path d="M222.528 52.1249V239.927C222.528 240.816 222.354 241.697 222.014 242.518C221.675 243.339 221.177 244.085 220.55 244.714C219.923 245.342 219.179 245.84 218.36 246.179C217.541 246.518 216.664 246.692 215.778 246.691H121.614C119.836 246.678 118.135 245.96 116.883 244.692C115.631 243.425 114.93 241.712 114.933 239.927V52.1249C117.694 49.881 121.136 48.6528 124.689 48.6445H212.818C216.354 48.668 219.778 49.895 222.528 52.1249Z" fill="#FF9C00"/>
<path opacity="0.25" d="M133.486 52.1249V239.927C133.486 241.551 133.416 243.025 133.301 244.196C133.15 245.716 132.931 246.691 132.688 246.691H121.521C121.082 246.691 120.724 243.663 120.724 239.927V52.1249C121.048 49.9787 121.441 48.6445 121.88 48.6445H132.283C132.757 48.7025 133.162 49.9787 133.486 52.1249Z" fill="white"/>
<path opacity="0.25" d="M216.771 52.1249V239.927C216.771 241.551 216.702 243.025 216.598 244.196C216.448 245.716 216.217 246.691 215.974 246.691H204.807C204.368 246.691 204.01 243.663 204.01 239.927V52.1249C204.333 49.9787 204.738 48.6445 205.166 48.6445H215.569C216.055 48.7025 216.448 49.9787 216.771 52.1249Z" fill="white"/>
<path d="M215.905 23.5273C218.437 23.5273 220.866 24.5369 222.656 26.334C224.447 28.1311 225.453 30.5685 225.453 33.11V35.5927C225.453 37.7465 224.6 39.8121 223.083 41.3351C221.565 42.858 219.507 43.7136 217.361 43.7136C215.215 43.7136 213.157 42.858 211.64 41.3351C210.122 39.8121 209.27 37.7465 209.27 35.5927V23.5273H215.905Z" fill="#FF0070"/>
<path d="M201.432 43.4238H200.993C198.908 43.4238 196.909 42.5926 195.435 41.1132C193.961 39.6337 193.133 37.6272 193.133 35.5349V23.5275L209.316 23.5275V35.5349C209.316 36.5728 209.112 37.6006 208.715 38.5592C208.319 39.5179 207.738 40.3886 207.005 41.1214C206.273 41.8543 205.404 42.4349 204.448 42.83C203.491 43.225 202.467 43.4268 201.432 43.4238Z" fill="#EFE6DC"/>
<path d="M176.972 23.5273V35.6043C176.972 37.7581 177.825 39.8237 179.342 41.3467C180.86 42.8696 182.918 43.7252 185.064 43.7252C187.21 43.7252 189.268 42.8696 190.786 41.3467C192.303 39.8237 193.156 37.7581 193.156 35.6043V23.5273H176.972Z" fill="#FF0070"/>
<path d="M169.112 43.4238H168.673C166.588 43.4238 164.589 42.5926 163.114 41.1132C161.64 39.6337 160.812 37.6272 160.812 35.5349V23.5275L176.995 23.5275V35.5349C176.995 36.5728 176.791 37.6006 176.395 38.5592C175.998 39.5179 175.417 40.3886 174.685 41.1214C173.953 41.8543 173.083 42.4349 172.127 42.83C171.171 43.225 170.146 43.4268 169.112 43.4238Z" fill="#EFE6DC"/>
<path d="M144.652 23.5273V35.6043C144.652 37.7581 145.505 39.8237 147.022 41.3467C148.54 42.8696 150.598 43.7252 152.744 43.7252C154.89 43.7252 156.948 42.8696 158.465 41.3467C159.983 39.8237 160.835 37.7581 160.835 35.6043V23.5273H144.652Z" fill="#FF0070"/>
<path d="M136.792 43.4238H136.353C134.268 43.4238 132.269 42.5926 130.795 41.1132C129.32 39.6337 128.492 37.6272 128.492 35.5349V23.5275L144.676 23.5275V35.5349C144.676 36.5728 144.471 37.6006 144.075 38.5592C143.679 39.5179 143.097 40.3886 142.365 41.1214C141.633 41.8543 140.763 42.4349 139.807 42.83C138.851 43.225 137.826 43.4268 136.792 43.4238Z" fill="#EFE6DC"/>
<path d="M128.492 23.5274V35.5927C128.492 37.7465 127.64 39.8121 126.122 41.3351C124.605 42.8581 122.547 43.7137 120.401 43.7137C118.255 43.7137 116.197 42.8581 114.679 41.3351C113.162 39.8121 112.309 37.7465 112.309 35.5927V33.1101C112.308 31.8502 112.554 30.6025 113.034 29.4384C113.514 28.2744 114.218 27.2168 115.106 26.3266C115.995 25.4363 117.049 24.7307 118.209 24.2504C119.37 23.77 120.613 23.5243 121.869 23.5274H128.492Z" fill="#FF0070"/>
<g style="mix-blend-mode:multiply" opacity="0.2">
<path d="M222.944 48.1453H109.153V69.6773C110.278 69.2044 111.311 68.5369 112.205 67.7051C113.022 66.9751 113.68 66.0825 114.136 65.084C114.591 64.0854 114.835 63.0026 114.852 61.9044V59.9786C114.852 62.8555 115.991 65.6145 118.017 67.6488C120.044 69.683 122.793 70.8258 125.66 70.8258C128.526 70.8258 131.276 69.683 133.302 67.6488C135.329 65.6145 136.468 62.8555 136.468 59.9786V61.9044C136.468 66.8002 141.311 70.7794 147.276 70.7794C153.241 70.7794 158.096 66.8002 158.096 61.9044V59.9786C158.096 62.8555 159.235 65.6145 161.261 67.6488C163.288 69.683 166.037 70.8258 168.904 70.8258C171.77 70.8258 174.519 69.683 176.546 67.6488C178.573 65.6145 179.712 62.8555 179.712 59.9786V61.9044C179.712 66.8002 184.555 70.7794 190.52 70.7794C196.485 70.7794 201.328 66.8002 201.328 61.9044V59.9786C201.353 62.1113 202.003 64.1895 203.196 65.9543C204.389 67.7192 206.073 69.0928 208.039 69.9041C210.004 70.7153 212.164 70.9284 214.249 70.5168C216.334 70.1051 218.253 69.087 219.765 67.5891C220.768 66.602 221.565 65.4252 222.11 64.1268C222.656 62.8284 222.939 61.4342 222.944 60.025V61.9044C222.958 63.9794 223.789 65.9647 225.256 67.4267C226.14 68.3279 227.177 69.0627 228.319 69.5961V48.1453H222.944Z" fill="#191D3F"/>
</g>
<path d="M209.292 34.6882L222.794 43.2152L222.944 43.54L223.152 44.0273C224.794 47.6469 231.244 50.7328 237.451 50.7328C240.827 50.7328 243.3 49.8511 244.56 48.4126V43.54L244.399 43.2268L225.649 34.6882H209.292Z" fill="#FF5AB4"/>
<path d="M211.616 50.7441H217.592C222.216 50.7441 225.025 46.5328 223.846 43.7833L209.292 34.6995H193.109L201.837 43.7253C202.576 46.4864 206.957 50.7441 211.616 50.7441Z" fill="white"/>
<path d="M176.972 34.6995L179.735 43.9805C180.047 47.6465 185.445 50.7905 191.745 50.7905C198.045 50.7905 202.634 47.3101 201.698 43.5861L193.133 34.7343L176.972 34.6995Z" fill="#FF5AB4"/>
<path d="M165.91 50.7444H171.886C176.51 50.7444 180.498 47.7977 180.267 45.0366L176.972 34.6882H160.789L157.703 44.5029C157.425 47.2292 161.24 50.7444 165.91 50.7444Z" fill="white"/>
<path d="M144.652 34.6998L135.196 44.5029C134.248 48.169 139.739 50.7444 146.039 50.7444C152.339 50.7444 157.425 47.8673 157.749 44.2013L160.812 34.6882L144.652 34.6998Z" fill="#FF5AB4"/>
<path d="M120.192 50.7444H126.168C130.792 50.7444 134.48 47.4149 135.196 44.6538L144.652 34.6882H128.469L112.713 44.6422C111.523 47.4149 115.534 50.7444 120.192 50.7444Z" fill="white"/>
<path d="M93.2244 43.5746V48.4587C94.4728 49.8509 96.9581 50.779 100.333 50.779C106.645 50.779 113.049 47.635 114.679 43.969L114.841 43.5978L114.979 43.2613L128.481 34.7344H111.546L93.4324 43.2265L93.2244 43.5746Z" fill="#FF5AB4"/>
<path d="M222.944 43.2266V56.9277C222.944 61.8235 227.788 65.8143 233.752 65.8143C239.717 65.8143 244.561 61.8235 244.561 56.9277V43.5398L244.399 43.2266H222.944Z" fill="#FF0070"/>
<path d="M179.666 43.2148V56.9276C179.666 61.8233 184.521 65.8026 190.474 65.8026C196.427 65.8026 201.294 61.8233 201.294 56.9276V43.2148H179.666Z" fill="#FF0070"/>
<path d="M136.468 43.2148V56.9276C136.468 61.8233 141.312 65.8026 147.276 65.8026C153.241 65.8026 158.084 61.8233 158.084 56.9276V43.2148H136.468Z" fill="#FF0070"/>
<path d="M201.328 43.2148V55.0482C201.334 56.4666 201.619 57.8699 202.165 59.178C202.711 60.486 203.509 61.6733 204.513 62.6719C205.516 63.6706 206.706 64.4611 208.014 64.9982C209.322 65.5354 210.723 65.8087 212.136 65.8026C213.549 65.8087 214.95 65.5354 216.258 64.9982C217.566 64.4611 218.756 63.6706 219.76 62.6719C220.763 61.6733 221.561 60.486 222.107 59.178C222.654 57.8699 222.938 56.4666 222.944 55.0482V43.2148H201.328Z" fill="#EFE6DC"/>
<path d="M158.084 55.0482C158.09 56.4666 158.375 57.8699 158.921 59.178C159.468 60.486 160.265 61.6733 161.269 62.6719C162.273 63.6706 163.462 64.4611 164.77 64.9982C166.078 65.5354 167.479 65.8087 168.892 65.8026C171.741 65.8057 174.474 64.6755 176.493 62.6596C178.513 60.6438 179.653 57.9067 179.666 55.0482V43.2148H158.05L158.084 55.0482Z" fill="#EFE6DC"/>
<path d="M114.852 55.0482C114.852 57.925 115.991 60.6841 118.018 62.7183C120.045 64.7526 122.794 65.8954 125.66 65.8954C128.527 65.8954 131.276 64.7526 133.303 62.7183C135.33 60.6841 136.468 57.925 136.468 55.0482V43.2148H114.852V55.0482Z" fill="#EFE6DC"/>
<path d="M93.2244 43.5746V56.9277C93.2244 61.8235 98.0678 65.8143 104.044 65.8143C110.02 65.8143 114.841 61.8235 114.841 56.9277V43.2266H93.4324L93.2244 43.5746Z" fill="#FF0070"/>
<path d="M262.732 17.8196C262.954 17.1627 263.093 16.4808 263.148 15.7894C263.248 14.3544 262.966 12.9186 262.332 11.6288C261.697 10.3389 260.733 9.24136 259.537 8.44835C258.341 7.65534 256.957 7.19534 255.526 7.11539C254.095 7.03544 252.668 7.33842 251.392 7.99333C250.782 6.66175 249.819 5.52435 248.608 4.7058C247.397 3.88725 245.985 3.41915 244.526 3.35281C243.588 3.35436 242.655 3.48314 241.752 3.73565C241.299 2.68584 240.561 1.78465 239.623 1.13453C238.685 0.484403 237.584 0.111439 236.446 0.0580342C234.811 -0.0442829 233.196 0.466326 231.914 1.49089C230.633 2.51545 229.776 3.981 229.51 5.60346L228.031 5.68467C226.818 5.90118 225.685 6.43775 224.748 7.23925C223.41 8.42929 222.582 10.0917 222.436 11.8798C222.436 11.8798 222.436 11.9842 222.436 12.0306C221.686 11.6809 220.879 11.4688 220.055 11.4041L218.205 11.5085C216.705 11.7829 215.333 12.5347 214.292 13.6525C213.251 14.7704 212.597 16.1949 212.425 17.7152L262.732 17.8196Z" fill="white"/>
<path d="M85.5253 144.332C85.1076 145.063 84.8846 145.89 84.878 146.733C84.878 149.053 85.8143 150.213 83.8492 152.476C81.8841 154.738 83.9532 158.125 81.8378 160.191C81.7474 160.278 81.6954 160.398 81.6932 160.525C81.691 160.651 81.7389 160.773 81.8263 160.863C81.9136 160.954 82.0334 161.006 82.1591 161.009C82.2848 161.011 82.4063 160.963 82.4967 160.875C84.8895 158.555 82.7973 155.156 85.0051 152.58C87.213 150.005 85.0051 147.603 86.3345 144.83C86.6003 144.285 85.7912 143.786 85.5253 144.332Z" fill="#351E59"/>
<path d="M91.2131 85.3626C82.8788 83.7152 75.1108 87.4972 72.8914 98.7041C70.776 109.401 75.2033 119.389 82.8672 121.71L81.2257 123.601L85.9189 124.529L85.1097 122.208C93.0742 122.997 100.969 115.456 103.085 104.806C105.293 93.5067 99.559 87.0216 91.2131 85.3626Z" fill="#D60066"/>
<path d="M89.7679 121.686C88.2722 122.146 86.7016 122.307 85.1442 122.162L85.9533 124.482L81.2602 123.554L82.9016 121.663C75.2377 119.343 70.8104 109.354 72.9258 98.6578C75.1452 87.4509 82.9132 83.6573 91.2475 85.3163C91.8486 85.4323 92.4035 85.5831 92.993 85.7455C99.8478 90.7689 100.183 97.7529 99.0271 105.723C98.1601 111.489 91.814 117.51 89.7679 121.686Z" fill="#FF0070"/>
<path d="M83.3523 123.786C82.8075 124.802 82.6592 125.985 82.9362 127.104C83.8725 129.61 84.2655 130.921 82.312 133.612C81.7732 134.273 81.3793 135.04 81.156 135.863C80.7977 138.879 81.156 141.664 80.0001 144.599C79.503 145.84 81.5028 158.52 82.2195 159.495C82.5316 159.924 83.2252 159.495 82.9015 159.031C81.5375 157.175 79.8036 142.395 82.3698 141.014C84.6816 139.75 81.7109 135.886 83.5951 133.288C85.8145 130.213 82.9246 127.417 84.1152 124.157C84.3002 123.659 83.5604 123.287 83.3754 123.786H83.3523Z" fill="#351E59"/>
<path d="M70.2439 79.0863C61.9442 80.8961 56.3147 87.4741 58.6844 98.6461C60.9963 109.308 69.0186 116.698 76.9715 115.758L76.2085 118.148L80.8323 117.127L79.2487 115.271C86.8664 112.811 91.1087 102.741 88.8083 92.0682C86.3924 80.9193 78.5551 77.2765 70.2439 79.0863Z" fill="#D60066"/>
<path d="M83.3293 112.95C82.1353 113.987 80.7484 114.775 79.2488 115.27L80.9249 117.127L76.3011 118.148L77.0641 115.758C69.1112 116.697 61.0773 109.296 58.777 98.6458C56.3611 87.4737 61.9905 80.8957 70.3365 79.0859C70.926 78.9583 71.4924 78.8539 72.1051 78.7727C80.3816 80.6405 83.468 86.8936 85.5718 94.6897C86.9936 100.27 83.5836 108.31 83.3293 112.95Z" fill="#FF0070"/>
<path d="M78.2778 117.463C78.1805 118.614 78.5144 119.76 79.2141 120.677C81.0752 122.603 81.9421 123.658 81.2254 126.907C80.9897 127.724 80.9306 128.582 81.052 129.424C81.919 132.336 83.3639 134.703 83.4448 137.905C83.4524 138.46 83.6232 139 83.9358 139.459C84.2484 139.917 84.6888 140.272 85.2019 140.48C85.6643 140.747 86.1035 140.051 85.6411 139.784C83.6529 138.624 84.3812 135.538 84.1962 133.682C83.9188 130.99 81.5491 129.227 82.2542 126.094C83.0749 122.394 79.3066 120.978 79.11 117.51C79.11 116.987 78.2431 116.929 78.2778 117.51V117.463Z" fill="#351E59"/>
<path d="M94.7268 113.53C88.0223 111.593 81.3987 114.157 78.821 123.171C76.3588 131.768 79.2949 140.248 85.3983 142.673L83.9187 144.1L87.6871 145.19L87.19 143.195C93.6518 144.355 100.634 138.786 103.096 130.178C105.685 121.164 101.431 115.468 94.7268 113.53Z" fill="url(#paint0_linear)"/>
<path opacity="0.32" d="M99.2118 129.83C98.227 134.527 96.1073 138.91 93.039 142.592C91.1916 143.366 89.1626 143.595 87.1899 143.253L87.687 145.248L83.9186 144.158L85.3867 142.743C84.9875 142.574 84.6012 142.376 84.2307 142.151C78.9596 139.135 76.5668 131.234 78.8671 123.229C79.6533 119.846 81.627 116.86 84.4272 114.818C85.961 113.85 87.6908 113.237 89.4906 113.024C91.2903 112.811 93.1147 113.004 94.8307 113.588C96.4619 114.039 98.0002 114.778 99.3736 115.769C100.464 120.399 100.408 125.227 99.2118 129.83Z" fill="white"/>
<path d="M82.9593 124.192C82.6869 124.906 82.4667 125.638 82.3004 126.384L79.9885 125.839C80.1081 125.082 80.278 124.334 80.4971 123.6L82.9593 124.192Z" fill="url(#paint1_linear)"/>
<path d="M91.8139 114.447C87.9066 116.187 84.8381 119.4 83.2715 123.391L80.74 122.8C81.6139 120.502 83.1172 118.498 85.0765 117.02C87.0358 115.542 89.3714 114.65 91.8139 114.447Z" fill="url(#paint2_linear)"/>
<path d="M78.6479 144.97C78.9571 145.73 79.0647 146.557 78.96 147.372C78.6363 149.622 77.6191 150.608 79.2143 153.068C80.8095 155.527 78.3936 158.532 80.1737 160.794C80.2504 160.891 80.2855 161.015 80.2714 161.138C80.2573 161.261 80.1952 161.373 80.0986 161.45C80.002 161.527 79.8789 161.562 79.7565 161.548C79.634 161.534 79.5221 161.471 79.4455 161.374C77.4341 158.81 79.8963 155.794 78.0815 153.021C76.2666 150.249 78.7288 148.207 77.7925 145.353C77.6075 144.784 78.4514 144.402 78.6479 144.97Z" fill="#351E59"/>
<path opacity="0.33" d="M84.1846 142.093C78.9135 139.077 76.5206 131.176 78.821 123.171C79.6071 119.788 81.5809 116.802 84.3811 114.76C87.5368 116.431 89.9065 119.772 90.681 125.016C91.8138 132.487 88.9933 139.367 84.1846 142.093Z" fill="#351E59"/>
<path d="M73.7002 113.948C80.4509 112.95 86.5311 116.268 87.8605 125.352C89.1436 133.995 85.2134 141.814 78.9828 143.381L80.2544 144.958L76.4629 145.515L77.2027 143.648C70.7872 143.972 64.7531 137.638 63.4816 128.983C62.1176 119.911 66.961 114.957 73.7002 113.948Z" fill="url(#paint3_linear)"/>
<path opacity="0.32" d="M71.6081 142.244C73.2911 143.242 75.2264 143.73 77.1798 143.647L76.44 145.515L80.2315 144.958L78.983 143.381C85.2136 141.814 89.1438 133.995 87.8607 125.352C86.5314 116.292 80.4511 112.95 73.7004 113.948C72.0824 114.186 70.5178 114.704 69.0766 115.479C67.4723 119.848 66.8719 124.525 67.3202 129.159C67.7686 133.793 69.2541 138.266 71.6659 142.244H71.6081Z" fill="white"/>
<path d="M83.7224 125.793C83.8939 126.522 84.0136 127.263 84.0808 128.009L86.3926 127.777C86.3741 127.035 86.3046 126.294 86.1846 125.561L83.7224 125.793Z" fill="url(#paint4_linear)"/>
<path d="M76.4512 115.271C79.9942 117.481 82.5338 120.996 83.5256 125.063L86.0571 124.819C85.5125 122.482 84.3224 120.346 82.6233 118.657C80.9241 116.969 78.7849 115.795 76.4512 115.271Z" fill="url(#paint5_linear)"/>
<path d="M84.0114 141.118C84.0504 141.056 84.071 140.983 84.071 140.91C84.071 140.836 84.0504 140.763 84.0114 140.701C82.4162 138.299 85.0865 135.527 83.6762 132.928C82.266 130.329 83.3641 129.447 83.8727 127.22C84.0348 126.417 83.987 125.586 83.734 124.807C83.5953 124.227 82.7284 124.54 82.8671 125.109C83.5722 128.032 80.9251 129.749 82.5434 132.777C84.1617 135.805 81.6071 138.346 83.1098 140.979C83.4797 143.961 80.6592 145.422 81.9539 148.566C83.2485 151.71 80.1968 154.123 81.688 157.024C81.7447 157.133 81.8423 157.215 81.9594 157.252C82.0765 157.289 82.2034 157.278 82.3122 157.221C82.421 157.164 82.5029 157.066 82.5397 156.949C82.5766 156.831 82.5654 156.704 82.5087 156.594C81.1909 154.031 84.1617 151.583 83.052 148.833C81.9423 146.084 83.1445 145.353 83.8959 143.195C84.0975 142.522 84.1372 141.81 84.0114 141.118Z" fill="#351E59"/>
<path opacity="0.33" d="M84.8782 124.772C79.6071 121.756 82.7628 110.978 85.0516 102.973C86.2076 98.9359 80.8324 95.0611 83.2599 93.4485C86.4272 95.1191 94.8193 92.8916 96.9232 104.818C99.3622 118.971 89.6407 122.046 84.8782 124.772Z" fill="#351E59"/>
<path d="M79.8959 93.7502C86.6351 92.7524 92.7154 96.0704 94.0563 105.154C95.3394 113.797 91.3976 121.617 85.1786 123.183L86.427 124.76L82.6355 125.317L83.3753 123.45C76.9598 123.774 70.9258 117.44 69.6543 108.785C68.3134 99.7248 73.1568 94.7595 79.8959 93.7502Z" fill="url(#paint6_linear)"/>
<path opacity="0.32" d="M77.8038 122.046C79.4863 123.046 81.4219 123.533 83.3754 123.45L82.6356 125.317L86.4271 124.761L85.1787 123.183C91.3977 121.617 95.3394 113.797 94.0563 105.143C92.7155 96.0821 86.6352 92.7526 79.896 93.7503C78.2772 93.9846 76.712 94.5029 75.2722 95.2816C73.5734 99.6222 72.9698 104.317 73.5152 108.948C73.8478 113.602 75.321 118.101 77.8038 122.046Z" fill="white"/>
<path d="M89.918 105.595C90.0899 106.324 90.2059 107.064 90.2648 107.811L92.5766 107.579C92.5576 106.832 92.488 106.088 92.3686 105.351L89.918 105.595Z" fill="url(#paint7_linear)"/>
<path d="M82.636 95.0146C86.1857 97.2306 88.7294 100.754 89.7219 104.829L92.2419 104.586C91.7012 102.244 90.5128 100.104 88.8134 98.4108C87.114 96.7175 84.9727 95.5403 82.636 95.0146Z" fill="url(#paint8_linear)"/>
<path d="M151.322 166.386C128.646 165.865 106.024 163.947 83.5833 160.643L82.9822 160.551L81.7107 169.565H82.3465C108.806 171.711 131.89 173.115 151.322 173.764V166.386Z" fill="url(#paint9_linear)"/>
<path d="M151.322 166.989C128.61 166.457 105.953 164.52 83.4794 161.188L82.3928 168.973C111.488 171.293 133.983 172.593 151.322 173.173V166.989Z" fill="#F6BB36"/>
<g style="mix-blend-mode:soft-light" opacity="0.21">
<path d="M86.0339 263.768C86.0386 263.791 86.0386 263.814 86.0339 263.837C85.9068 264.614 83.6411 265.218 80.8669 265.218C80.063 265.219 79.26 265.168 78.4625 265.067C76.8442 264.823 75.7345 264.348 75.6882 263.802V260.322H86.0339V263.71C86.0368 263.729 86.0368 263.748 86.0339 263.768Z" fill="white"/>
</g>
<g style="mix-blend-mode:soft-light" opacity="0.21">
<path d="M86.0341 263.767C86.0387 263.79 86.0387 263.814 86.0341 263.837C85.9069 264.614 83.6413 265.218 80.867 265.218C80.0632 265.218 79.2601 265.168 78.4626 265.067C79.1596 264.758 79.9452 264.717 80.6705 264.951C82.5662 265.403 84.751 263.93 83.5026 264.104C82.2541 264.278 81.8496 263.164 83.2598 263.095C84.6701 263.025 84.7741 261.934 83.6991 262.178C82.4088 262.2 81.1204 262.067 79.8613 261.784C79.8613 261.784 82.1732 260.937 84.0458 260.299H86.0341V263.686C86.0397 263.713 86.0397 263.741 86.0341 263.767Z" fill="white"/>
</g>
<path d="M80.8211 261.784C83.6875 261.784 86.0112 261.129 86.0112 260.322C86.0112 259.515 83.6875 258.86 80.8211 258.86C77.9546 258.86 75.6309 259.515 75.6309 260.322C75.6309 261.129 77.9546 261.784 80.8211 261.784Z" fill="#292929"/>
<path d="M151.322 166.989C128.61 166.457 105.953 164.52 83.4794 161.188L82.3928 168.973C111.488 171.293 133.983 172.593 151.322 173.173V166.989Z" fill="url(#paint10_linear)"/>
<path d="M84.5776 158.219H82.3928V173.01H84.5776V158.219Z" fill="#241442"/>
<path d="M83.098 153.81V260.38C82.9477 260.681 82.0461 260.913 80.9479 260.913C79.8498 260.913 78.9366 260.681 78.7979 260.38V153.81H83.098Z" fill="#292929"/>
<g style="mix-blend-mode:soft-light" opacity="0.21">
<path d="M83.098 153.81V260.38C82.9477 260.681 82.0461 260.913 80.9479 260.913C79.8498 260.913 78.9366 260.681 78.7979 260.38V257.433C79.5085 256.343 80.1606 255.216 80.7514 254.057C83.1789 248.941 83.1789 158.799 81.4796 158.323C79.7804 157.847 79.4221 154.309 79.4221 154.309L80.0809 153.81H83.098Z" fill="white"/>
</g>
<path d="M80.913 154.425C82.1196 154.425 83.0977 154.15 83.0977 153.81C83.0977 153.471 82.1196 153.196 80.913 153.196C79.7064 153.196 78.7283 153.471 78.7283 153.81C78.7283 154.15 79.7064 154.425 80.913 154.425Z" fill="#50468C"/>
<path d="M254.201 160.516L253.589 160.608C228.38 164.366 202.942 166.367 177.458 166.595C175.736 166.595 173.99 166.595 172.384 166.595V173.788C194.266 173.683 221.974 172.291 254.826 169.634H255.461L254.201 160.516Z" fill="url(#paint11_linear)"/>
<path d="M172.384 173.173C190.936 173.092 217.373 172.013 254.779 169.02L253.693 161.235C253.693 161.235 213.292 167.755 172.384 167.187V173.173Z" fill="#F6BB36"/>
<g style="mix-blend-mode:soft-light" opacity="0.21">
<path d="M251.172 263.768C251.168 263.791 251.168 263.814 251.172 263.837C251.311 264.615 253.565 265.218 256.351 265.218C257.151 265.218 257.95 265.168 258.744 265.067C260.362 264.823 261.472 264.348 261.518 263.802V260.322H251.172V263.71C251.169 263.729 251.169 263.748 251.172 263.768Z" fill="white"/>
</g>
<g style="mix-blend-mode:soft-light" opacity="0.21">
<path d="M251.172 263.767C251.168 263.79 251.168 263.814 251.172 263.837C251.311 264.614 253.565 265.218 256.351 265.218C257.151 265.218 257.95 265.168 258.744 265.067C258.051 264.759 257.269 264.717 256.547 264.951C254.64 265.403 252.467 263.93 253.704 264.104C254.941 264.278 255.357 263.164 253.958 263.095C252.559 263.025 252.432 261.934 253.507 262.178C254.798 262.2 256.086 262.067 257.345 261.784C257.345 261.784 255.033 260.937 253.172 260.299H251.172V263.686C251.167 263.713 251.167 263.741 251.172 263.767Z" fill="white"/>
</g>
<path d="M256.339 261.784C259.206 261.784 261.53 261.129 261.53 260.322C261.53 259.515 259.206 258.86 256.339 258.86C253.473 258.86 251.149 259.515 251.149 260.322C251.149 261.129 253.473 261.784 256.339 261.784Z" fill="#292929"/>
<path d="M172.384 173.173C190.936 173.092 217.373 172.013 254.779 169.02L253.693 161.235C253.693 161.235 213.292 167.755 172.384 167.187V173.173Z" fill="url(#paint12_linear)"/>
<path d="M252.594 173.01H254.779V158.219H252.594V173.01Z" fill="#241442"/>
<path d="M254.074 153.81V260.38C254.224 260.681 255.126 260.913 256.224 260.913C257.322 260.913 258.235 260.681 258.385 260.38V153.81H254.074Z" fill="#292929"/>
<g style="mix-blend-mode:soft-light" opacity="0.21">
<path d="M254.074 153.81V260.38C254.224 260.681 255.126 260.913 256.224 260.913C257.322 260.913 258.235 260.681 258.385 260.38V257.433C257.675 256.343 257.023 255.216 256.432 254.057C254.004 248.941 254.004 158.799 255.704 158.323C257.403 157.847 257.761 154.309 257.761 154.309L257.102 153.81H254.074Z" fill="white"/>
</g>
<path d="M256.247 154.425C257.454 154.425 258.432 154.15 258.432 153.81C258.432 153.471 257.454 153.196 256.247 153.196C255.041 153.196 254.063 153.471 254.063 153.81C254.063 154.15 255.041 154.425 256.247 154.425Z" fill="#50468C"/>
<path d="M176.579 177.918C174.672 175.447 168.372 168.637 168.372 168.637L169.528 165.156C172.145 167.505 174.885 169.712 177.735 171.769C179.481 173.022 180.637 173.823 181.4 174.333C181.407 174.352 181.407 174.372 181.4 174.391C183.077 177.8 183.944 181.553 183.931 185.354L183.816 185.818C181.237 183.343 178.82 180.704 176.579 177.918Z" fill="url(#paint13_linear)"/>
<path d="M168.569 168.126L169.343 165.945C172.087 168.37 174.958 170.648 177.943 172.767C179.908 174.112 181.099 174.959 181.897 175.528C183.255 178.547 183.964 181.821 183.977 185.134C181.521 182.812 179.226 180.324 177.111 177.686C175.354 175.389 170.418 170.145 168.569 168.126Z" fill="url(#paint14_linear)"/>
<path d="M152.616 161.351C152.848 161.351 158.292 162.279 161.24 162.778C162.821 163.081 164.369 163.535 165.864 164.135C166.593 164.493 167.27 164.95 167.875 165.493L167.806 166.467C167.806 166.467 167.586 166.641 166.65 166.537C164.06 166.224 164.095 166.537 162.812 166.224C160.469 165.842 158.152 165.311 155.876 164.634C154.936 164.296 154.064 163.793 153.298 163.149C152.917 162.621 152.681 162 152.616 161.351Z" fill="#BC6C0C"/>
<path d="M152.605 162.221C152.836 162.221 158.292 162.975 161.24 163.474C162.82 163.784 164.369 164.242 165.864 164.843C166.564 165.146 167.224 165.536 167.829 166.003V167.163C167.829 167.163 167.598 167.337 166.673 167.233C164.084 166.919 164.107 167.233 162.835 166.919C161.564 166.606 157.287 166.119 155.899 165.481C154.955 165.153 154.08 164.649 153.322 163.996C152.932 163.477 152.685 162.865 152.605 162.221Z" fill="url(#paint15_linear)"/>
<path d="M167.829 165.446C165.566 165.372 163.31 165.143 161.078 164.762C157.945 164.182 152.616 161.281 152.616 161.281C152.147 163.492 151.872 165.74 151.796 167.999C151.957 172.639 152.605 174.043 152.605 173.973C152.605 173.904 158.5 172.941 161.575 172.535C163.785 172.1 165.89 171.237 167.771 169.994L167.829 165.446Z" fill="url(#paint16_linear)"/>
<path d="M153.518 172.953C153.321 172.953 152.431 173.022 152.362 173.022C152.019 171.417 151.845 169.78 151.842 168.138C151.902 166.221 152.114 164.313 152.478 162.43C155.22 163.798 158.099 164.871 161.066 165.632C163.323 165.998 165.601 166.223 167.886 166.305V169.437C165.945 170.534 163.836 171.298 161.644 171.7C160.003 171.92 156.708 172.639 155.425 172.767C154.794 172.868 154.157 172.93 153.518 172.953Z" fill="url(#paint17_linear)"/>
<path d="M183.804 161.003C181.438 160.914 179.07 161.086 176.741 161.514C174.337 161.966 171.308 164.112 170.51 164.414C169.826 164.72 169.165 165.077 168.534 165.481V166.456C168.534 166.456 168.765 166.63 169.69 166.456C172.291 166.085 172.256 166.363 173.539 166.061C175.904 165.624 178.24 165.039 180.532 164.31C181.477 163.97 182.356 163.472 183.133 162.836C183.512 162.294 183.743 161.662 183.804 161.003Z" fill="#BC6C0C"/>
<path d="M183.804 161.862C181.435 161.779 179.063 161.95 176.73 162.372C174.596 162.964 172.527 163.772 170.557 164.785C169.854 165.122 169.194 165.543 168.592 166.038V167.198C168.592 167.198 168.823 167.372 169.748 167.198C172.337 166.827 172.314 167.105 173.597 166.804C174.88 166.502 179.157 165.864 180.59 165.203C181.538 164.848 182.415 164.325 183.18 163.66C183.539 163.125 183.754 162.505 183.804 161.862Z" fill="url(#paint18_linear)"/>
<path d="M168.557 165.446C171.294 164.506 174.085 163.731 176.915 163.126C179.284 162.635 181.605 161.932 183.85 161.026C184.303 163.23 184.558 165.471 184.613 167.72C184.405 172.361 183.746 173.788 183.746 173.718C181.243 173.712 178.743 173.522 176.267 173.15C173.558 172.579 170.968 171.539 168.615 170.075L168.557 165.446Z" fill="url(#paint19_linear)"/>
<path d="M181.076 172.662C181.631 172.662 182.232 172.662 182.787 172.662C182.983 172.662 183.873 172.662 184.012 172.662C184.435 171.381 184.62 170.032 184.555 168.683C184.667 166.463 184.477 164.238 183.989 162.07C181.752 163.05 179.403 163.747 176.996 164.147C173.909 164.785 169.667 166.224 168.546 166.293V169.426C170.939 170.783 173.541 171.732 176.244 172.233C177.836 172.482 179.442 172.626 181.053 172.662H181.076Z" fill="url(#paint20_linear)"/>
<path d="M160.754 177.454C162.095 175.006 166.823 168.323 166.823 168.323L164.823 164.971C162.751 167.305 160.527 169.499 158.165 171.537C156.708 172.778 155.749 173.579 155.113 174.089C155.107 174.108 155.107 174.129 155.113 174.147C154.229 177.665 154.229 181.349 155.113 184.867L155.333 185.308C157.347 182.84 159.16 180.214 160.754 177.454Z" fill="url(#paint21_linear)"/>
<path d="M166.5 167.79L165.217 165.69C163.04 168.104 160.704 170.368 158.223 172.465C156.57 173.811 155.576 174.658 154.917 175.215C154.264 178.314 154.307 181.52 155.044 184.6C156.962 182.301 158.68 179.84 160.177 177.245C161.402 174.971 165.089 169.797 166.5 167.79Z" fill="url(#paint22_linear)"/>
<path d="M170.129 167.581C170.071 170.539 170.407 170.945 170.407 170.945C169.61 171.544 168.683 171.941 167.702 172.105C166.821 172.148 165.943 171.985 165.135 171.63C164.358 170.186 163.982 168.559 164.049 166.92C164.049 164.019 165.078 163.033 165.078 163.033C165.885 162.567 166.828 162.395 167.748 162.546C168.886 162.716 169.917 163.318 170.626 164.228C170.626 164.228 170.175 164.623 170.129 167.581Z" fill="url(#paint23_linear)"/>
<path d="M167.702 172.117C166.943 172.153 166.186 172.022 165.482 171.734C164.849 170.321 164.537 168.783 164.569 167.233C164.554 165.739 164.895 164.264 165.563 162.929C166.08 162.637 166.671 162.504 167.263 162.546C167.531 162.568 167.797 162.607 168.06 162.662C168.884 162.773 169.637 163.187 170.176 163.822C169.846 165.18 169.653 166.568 169.598 167.964C169.588 169.102 169.67 170.238 169.84 171.363C169.184 171.76 168.458 172.028 167.702 172.152V172.117Z" fill="#BC6C0C"/>
<g opacity="0.75">
<path opacity="0.75" d="M144.074 101.349L143.635 101.001C144.271 100.189 159.309 81.0701 166.129 80.5016C172.95 79.9332 189.387 99.551 190.069 100.386L189.63 100.746C189.468 100.549 172.707 80.4784 166.164 81.0237C159.621 81.5689 144.224 101.106 144.074 101.349Z" fill="#594A42"/>
<path opacity="0.75" d="M191.514 96.3486H142.525C141.414 96.3486 140.514 97.2524 140.514 98.3673V115.062C140.514 116.176 141.414 117.08 142.525 117.08H191.514C192.625 117.08 193.526 116.176 193.526 115.062V98.3673C193.526 97.2524 192.625 96.3486 191.514 96.3486Z" fill="url(#paint24_linear)"/>
<g opacity="0.25">
<path opacity="0.25" d="M145.877 104.935C145.877 103.671 146.652 102.94 148.062 102.94C149.472 102.94 150.247 103.671 150.247 104.935V109.054C150.247 110.33 149.472 111.049 148.062 111.049C146.652 111.049 145.877 110.33 145.877 109.054V104.935ZM147.322 109.135C147.322 109.704 147.611 109.912 148.062 109.912C148.513 109.912 148.813 109.704 148.813 109.135V104.831C148.813 104.262 148.524 104.054 148.062 104.054C147.6 104.054 147.322 104.262 147.322 104.831V109.135Z" fill="#211533"/>
<path opacity="0.25" d="M155.391 104.992V105.99C155.391 107.254 154.686 107.95 153.252 107.95H152.57V110.92H151.125V103.031H153.252C154.732 103.031 155.391 103.67 155.391 104.992ZM152.57 104.168V106.848H153.252C153.703 106.848 153.957 106.663 153.957 106.094V104.934C153.957 104.366 153.703 104.192 153.252 104.192L152.57 104.168Z" fill="#211533"/>
<path opacity="0.25" d="M157.61 106.373H159.587V107.533H157.61V109.853H160.095V111.013H156.177V103.031H160.095V104.192H157.61V106.373Z" fill="#211533"/>
<path opacity="0.25" d="M162.326 105.213V111.013H161.032V103.031H162.835L164.315 107.776V103.031H165.598V110.955H164.06L162.326 105.213Z" fill="#211533"/>
<path opacity="0.25" d="M170.534 102.939C170.811 102.898 171.093 102.92 171.36 103.004C171.627 103.087 171.872 103.23 172.076 103.422C172.281 103.614 172.439 103.849 172.541 104.111C172.642 104.373 172.683 104.654 172.661 104.934V105.178H171.297V104.83C171.297 104.261 171.031 104.052 170.58 104.052C170.129 104.052 169.852 104.261 169.852 104.83C169.852 106.466 172.672 106.767 172.672 109.029C172.672 110.306 171.933 111.025 170.522 111.025C169.112 111.025 168.384 110.306 168.384 109.029V108.542H169.736V109.111C169.736 109.679 170.025 109.876 170.488 109.876C170.95 109.876 171.227 109.679 171.227 109.111C171.227 107.486 168.418 107.173 168.418 104.911C168.398 104.633 168.44 104.355 168.542 104.096C168.643 103.837 168.801 103.604 169.004 103.415C169.207 103.226 169.45 103.084 169.715 103.002C169.98 102.92 170.26 102.898 170.534 102.939Z" fill="#211533"/>
<path opacity="0.25" d="M173.377 104.934C173.377 103.67 174.152 102.939 175.562 102.939C176.972 102.939 177.747 103.67 177.747 104.934V109.053C177.747 110.329 176.972 111.048 175.562 111.048C174.152 111.048 173.377 110.329 173.377 109.053V104.934ZM174.811 109.134C174.811 109.702 175.1 109.911 175.562 109.911C176.025 109.911 176.302 109.702 176.302 109.134V104.83C176.302 104.261 176.013 104.052 175.562 104.052C175.111 104.052 174.811 104.261 174.811 104.83V109.134Z" fill="#211533"/>
<path opacity="0.25" d="M178.51 104.934C178.51 103.67 179.284 102.939 180.695 102.939C182.105 102.939 182.879 103.67 182.879 104.934V109.053C182.879 110.329 182.105 111.048 180.695 111.048C179.284 111.048 178.51 110.329 178.51 109.053V104.934ZM179.943 109.134C179.943 109.702 180.232 109.911 180.695 109.911C181.157 109.911 181.434 109.702 181.434 109.134V104.83C181.434 104.261 181.157 104.052 180.695 104.052C180.232 104.052 179.943 104.261 179.943 104.83V109.134Z" fill="#211533"/>
<path opacity="0.25" d="M185.133 105.213V111.013H183.838V103.031H185.642L187.121 107.776V103.031H188.404V110.955H186.925L185.133 105.213Z" fill="#211533"/>
</g>
<path opacity="0.75" d="M146.479 104.505C146.479 103.24 147.253 102.509 148.663 102.509C150.074 102.509 150.848 103.24 150.848 104.505V108.623C150.848 109.899 150.074 110.619 148.663 110.619C147.253 110.619 146.479 109.899 146.479 108.623V104.505ZM147.924 108.704C147.924 109.273 148.201 109.482 148.663 109.482C149.126 109.482 149.415 109.273 149.415 108.704V104.423C149.415 103.855 149.126 103.646 148.663 103.646C148.201 103.646 147.924 103.855 147.924 104.423V108.704Z" fill="white"/>
<path opacity="0.75" d="M156.039 104.563V105.595C156.039 106.86 155.333 107.556 153.9 107.556H153.218V110.526H151.773V102.602H153.9C155.391 102.602 156.039 103.298 156.039 104.563ZM153.218 103.739V106.419H153.9C154.351 106.419 154.605 106.233 154.605 105.676V104.516C154.605 103.948 154.351 103.774 153.9 103.774L153.218 103.739Z" fill="white"/>
<path opacity="0.75" d="M158.211 105.99H160.188V107.15H158.211V109.47H160.697V110.63H156.778V102.602H160.697V103.762H158.211V105.99Z" fill="white"/>
<path opacity="0.75" d="M162.87 104.829V110.63H161.575V102.602H163.378L164.858 107.347V102.602H166.141V110.526H164.638L162.87 104.829Z" fill="white"/>
<path opacity="0.75" d="M171.135 102.509C171.411 102.468 171.694 102.49 171.961 102.574C172.228 102.658 172.473 102.801 172.677 102.992C172.882 103.184 173.04 103.42 173.142 103.681C173.243 103.943 173.284 104.225 173.262 104.504V104.748H171.898V104.423C171.898 103.855 171.632 103.646 171.181 103.646C170.73 103.646 170.453 103.855 170.453 104.423C170.453 106.059 173.273 106.361 173.273 108.623C173.273 109.899 172.533 110.618 171.123 110.618C169.713 110.618 168.985 109.899 168.985 108.623V108.136H170.337V108.704C170.337 109.273 170.626 109.47 171.088 109.47C171.551 109.47 171.828 109.273 171.828 108.704C171.828 107.08 169.019 106.767 169.019 104.504C168.995 104.225 169.035 103.944 169.134 103.682C169.234 103.42 169.392 103.184 169.595 102.992C169.799 102.8 170.043 102.657 170.31 102.573C170.576 102.49 170.858 102.468 171.135 102.509Z" fill="white"/>
<path opacity="0.75" d="M173.979 104.505C173.979 103.24 174.753 102.509 176.163 102.509C177.574 102.509 178.348 103.24 178.348 104.505V108.623C178.348 109.899 177.574 110.619 176.163 110.619C174.753 110.619 173.979 109.899 173.979 108.623V104.505ZM175.412 108.704C175.412 109.273 175.701 109.482 176.163 109.482C176.626 109.482 176.903 109.273 176.903 108.704V104.423C176.903 103.855 176.614 103.646 176.163 103.646C175.712 103.646 175.412 103.855 175.412 104.423V108.704Z" fill="white"/>
<path opacity="0.75" d="M179.157 104.505C179.157 103.24 179.932 102.509 181.342 102.509C182.752 102.509 183.527 103.24 183.527 104.505V108.623C183.527 109.899 182.752 110.619 181.342 110.619C179.932 110.619 179.157 109.899 179.157 108.623V104.505ZM180.591 108.704C180.591 109.273 180.88 109.482 181.342 109.482C181.804 109.482 182.082 109.273 182.082 108.704V104.423C182.082 103.855 181.793 103.646 181.342 103.646C180.891 103.646 180.591 103.855 180.591 104.423V108.704Z" fill="white"/>
<path opacity="0.75" d="M185.734 104.829V110.63H184.44V102.602H186.243L187.723 107.347V102.602H189.006V110.526H187.526L185.734 104.829Z" fill="white"/>
<path opacity="0.75" d="M168.106 82.2418C168.106 82.4678 168.062 82.6914 167.975 82.8999C167.888 83.1083 167.761 83.2974 167.601 83.456C167.44 83.6147 167.25 83.7398 167.041 83.8241C166.833 83.9085 166.609 83.9503 166.384 83.9472C166.127 83.9503 165.873 83.8906 165.644 83.7732C165.308 83.6023 165.039 83.3243 164.877 82.9828C164.716 82.6414 164.672 82.2558 164.753 81.8868C164.834 81.5177 165.034 81.1859 165.323 80.9436C165.612 80.7013 165.973 80.5622 166.349 80.5481C166.577 80.5387 166.804 80.5755 167.017 80.6565C167.229 80.7374 167.424 80.8606 167.588 81.0189C167.752 81.1771 167.883 81.367 167.972 81.5772C168.061 81.7873 168.107 82.0134 168.106 82.2418Z" fill="#6838AD"/>
<path opacity="0.36" d="M168.106 82.2418C168.106 82.4678 168.062 82.6914 167.975 82.8999C167.888 83.1083 167.761 83.2974 167.6 83.456C167.44 83.6147 167.25 83.7398 167.041 83.8241C166.832 83.9085 166.609 83.9503 166.384 83.9472C166.127 83.9503 165.873 83.8906 165.644 83.7732C165.745 83.7196 165.855 83.6842 165.968 83.6688C167.54 83.3092 166.95 81.685 166.349 80.5481C166.577 80.5387 166.804 80.5755 167.016 80.6565C167.229 80.7374 167.424 80.8606 167.588 81.0189C167.752 81.1771 167.882 81.367 167.971 81.5772C168.061 81.7873 168.106 82.0134 168.106 82.2418Z" fill="#211533"/>
</g>
<path d="M125.961 216.132C125.961 216.132 114.124 215.042 115.083 211.41C116.043 207.779 119.349 210.25 119.349 210.25C119.349 210.25 116.54 214.903 125.961 216.132Z" fill="#CC384E"/>
<path d="M128.376 216.84C128.376 216.84 124.099 209.276 119.603 208.603C115.106 207.93 115.176 210.923 115.176 210.923C115.176 210.923 117.95 208.997 120.759 212.269C123.568 215.541 127.336 216.875 128.376 216.84Z" fill="#F65372"/>
<path d="M141.947 209.926C141.947 209.926 138.375 216.748 128.376 216.887C128.376 216.887 135.416 215.959 137.104 213.232C138.059 211.868 138.605 210.258 138.676 208.592L141.947 209.926Z" fill="#CC384E"/>
<path d="M127.81 216.887C127.81 216.887 132.966 208.696 136.376 207.896C137.4 207.698 138.46 207.782 139.441 208.14C140.421 208.497 141.288 209.114 141.947 209.926C141.947 209.926 137.809 208.012 135.486 211.086C133.162 214.161 132.388 216.62 127.81 216.887Z" fill="#F65372"/>
<path d="M111.974 223.569C111.974 223.569 137.312 220.402 145.057 223.001C145.057 223.001 145.704 242.108 141.832 250.612C135.774 252.932 120.608 253.199 114.806 251.586C111.917 242.549 110.952 233.004 111.974 223.569Z" fill="#D89F21"/>
<g style="mix-blend-mode:multiply" opacity="0.2">
<path d="M111.893 225.182C111.893 225.182 111.569 227.293 111.893 227.618C112.216 227.943 142.317 229.718 145.219 225.994C148.12 222.27 111.893 225.182 111.893 225.182Z" fill="#191D3F"/>
</g>
<path d="M125.128 225.344C125.128 226.156 123.348 252.387 124.966 252.874C126.585 253.361 130.295 253.523 131.255 252.711C132.214 251.899 134.33 225.506 131.417 225.344C128.504 225.181 125.128 225.344 125.128 225.344Z" fill="#BF304C"/>
<path d="M109.685 216.898C109.685 216.898 109.985 226.179 112.054 225.913C114.123 225.646 144.224 226.237 145.704 226.237C147.183 226.237 147.299 222.223 146.409 220.193C145.519 218.163 119.163 213.348 109.685 216.898Z" fill="#F6BB36"/>
<path d="M123.833 215.146C123.833 215.146 121.741 227.908 123.833 227.908C125.926 227.908 133.682 228.882 133.682 226.748C133.682 224.613 136.584 217.351 133.197 216.051C129.81 214.752 123.833 215.146 123.833 215.146Z" fill="#CC384E"/>
<path d="M136.422 234.196L136.664 236.191L136.919 238.268L136.953 238.523L137.196 240.495V240.565L137.439 242.549L137.462 242.815L137.705 244.776L137.728 244.869L137.971 246.841L137.994 247.108L138.236 249.08L138.248 249.173L138.479 251.145L138.525 251.4L138.745 253.373L138.768 253.465L139.011 255.426L139.034 255.704L139.277 257.677L139.288 257.769L139.531 259.73L139.566 259.985L139.809 261.969V262.05L140.051 264.034L140.074 264.278L140.202 265.241L142.444 265.136H142.641L147.056 264.939L147.634 264.916L152.05 264.719L152.247 264.695L156.651 264.51L157.206 264.487L161.818 264.278L165.482 264.115L165.794 262.201L166.187 259.788L166.257 259.51L166.626 257.201L166.65 257.097L167.02 254.8L167.077 254.486L167.459 252.201L167.47 252.096L167.852 249.799L167.91 249.509L168.291 247.201L168.303 247.096L168.684 244.811L168.742 244.509L169.123 242.2L169.135 242.096L169.516 239.811L169.574 239.497L169.956 237.189L169.967 237.096L170.337 234.81L170.406 234.497L170.765 232.293L170.58 232.316H170.383L165.875 232.571L165.297 232.606L160.789 232.838L160.592 232.861L156.096 233.105L155.495 233.151L150.975 233.383L150.79 233.407L146.293 233.65L145.692 233.674L140.999 233.929L136.422 234.196Z" fill="#853FD5"/>
<path d="M136.422 234.196L132.653 235.704L135.289 258.431L140.202 265.241L136.422 234.196Z" fill="#6838AD"/>
<path d="M156.651 264.51L157.206 264.487L161.818 264.278L165.794 262.202L166.187 259.788L166.257 259.51L156.651 264.51Z" fill="#853FD5"/>
<path d="M152.05 264.719L152.247 264.696L156.651 264.51L157.206 264.487L166.188 259.788L166.257 259.51L166.627 257.201L166.65 257.097L152.05 264.719Z" fill="#6838AD"/>
<path d="M147.057 264.939L147.635 264.916L152.05 264.719L152.247 264.696L166.627 257.201L166.65 257.097L167.02 254.8L167.078 254.487L147.057 264.939Z" fill="#853FD5"/>
<path d="M142.444 265.137H142.641L147.056 264.939L147.634 264.916L167.02 254.8L167.077 254.487L167.459 252.201L167.47 252.097L142.444 265.137Z" fill="#6838AD"/>
<path d="M140.052 264.034L140.075 264.278L140.202 265.241L142.444 265.136H142.641L167.459 252.201L167.471 252.096L167.852 249.799L167.91 249.509L140.052 264.034Z" fill="#853FD5"/>
<path d="M139.809 261.969V262.051L140.051 264.034L140.074 264.278L167.852 249.8L167.91 249.51L168.291 247.201L168.303 247.096L139.809 261.969Z" fill="#6838AD"/>
<path d="M139.531 259.73L139.566 259.985L139.809 261.969V262.05L168.291 247.201L168.303 247.096L168.684 244.811L168.742 244.509L139.531 259.73Z" fill="#853FD5"/>
<path d="M139.277 257.677L139.289 257.77L139.531 259.73L139.566 259.986L168.684 244.811L168.742 244.51L169.124 242.201L169.135 242.096L139.277 257.677Z" fill="#6838AD"/>
<path d="M139.011 255.426L139.035 255.705L139.277 257.677L139.289 257.77L169.124 242.201L169.135 242.096L169.517 239.811L169.575 239.498L139.011 255.426Z" fill="#853FD5"/>
<path d="M138.745 253.373L138.768 253.465L139.011 255.426L139.034 255.704L169.516 239.811L169.574 239.497L169.956 237.189L169.967 237.096L138.745 253.373Z" fill="#6838AD"/>
<path d="M138.479 251.145L138.525 251.4L138.745 253.372L138.768 253.465L169.956 237.189L169.967 237.096L170.337 234.81L170.406 234.497L138.479 251.145Z" fill="#853FD5"/>
<path d="M138.237 249.08L138.248 249.173L138.479 251.145L138.526 251.4L170.337 234.81L170.407 234.497L170.765 232.293L170.58 232.316H170.383L138.237 249.08Z" fill="#6838AD"/>
<path d="M137.971 246.841L137.994 247.108L138.237 249.08L138.248 249.173L170.58 232.316H170.383L165.875 232.572L165.297 232.606L137.971 246.841Z" fill="#853FD5"/>
<path d="M137.705 244.776L137.728 244.869L137.971 246.841L137.994 247.108L165.875 232.572L165.297 232.606L160.789 232.838L160.593 232.862L137.705 244.776Z" fill="#6838AD"/>
<path d="M137.439 242.549L137.462 242.815L137.705 244.776L137.728 244.869L160.789 232.838L160.593 232.862L156.096 233.105L155.495 233.152L137.439 242.549Z" fill="#853FD5"/>
<path d="M137.196 240.495V240.565L137.439 242.549L137.462 242.816L156.096 233.105L155.495 233.152L150.975 233.384L150.79 233.407L137.196 240.495Z" fill="#6838AD"/>
<path d="M136.919 238.268L136.954 238.523L137.196 240.495V240.565L150.975 233.384L150.79 233.407L146.294 233.65L145.693 233.674L136.919 238.268Z" fill="#853FD5"/>
<path d="M136.665 236.191L136.919 238.268L136.954 238.523L146.294 233.651L145.692 233.674L140.999 233.929L136.665 236.191Z" fill="#6838AD"/>
<path d="M154.536 229.729C154.536 229.729 166.604 228.569 165.633 224.903C164.662 221.237 161.275 223.743 161.275 223.743C161.275 223.743 164.142 228.465 154.536 229.729Z" fill="#DBA11D"/>
<path d="M152.073 230.449C152.073 230.449 156.431 222.734 161.02 222.049C165.609 221.365 165.54 224.369 165.54 224.369C165.54 224.369 162.696 222.409 159.83 225.738C156.963 229.068 153.137 230.483 152.073 230.449Z" fill="#FFC532"/>
<path d="M138.225 223.395C138.225 223.395 141.866 230.356 152.096 230.448C152.096 230.448 144.906 229.497 143.184 226.713C142.192 225.335 141.615 223.7 141.52 222.003L138.225 223.395Z" fill="#DBA11D"/>
<path d="M152.64 230.495C152.64 230.495 147.38 222.131 143.901 221.33C142.857 221.124 141.777 221.207 140.777 221.571C139.777 221.935 138.895 222.566 138.225 223.395C138.225 223.395 142.444 221.435 144.814 224.555C147.184 227.676 147.97 230.228 152.64 230.495Z" fill="#FFC532"/>
<path d="M155.495 233.152L155.922 264.614L148.756 264.87L150.385 233.43L155.495 233.152Z" fill="#DBA11D"/>
<g style="mix-blend-mode:multiply" opacity="0.2">
<path d="M170.58 232.316L169.956 237.189L137.185 237.85L132.653 235.704L138.56 233.187L170.58 232.316Z" fill="#191D3F"/>
</g>
<path d="M171.516 229.172L172.083 233.72L135.948 235.425L136.237 229.648L171.516 229.172Z" fill="#6838AD"/>
<path d="M136.237 229.648L131.232 231.156L130.573 236.458L136.422 235.333L136.237 229.648Z" fill="#512893"/>
<path d="M156.743 229.393V234.509L148.813 234.695V229.265L156.743 229.393Z" fill="#FFC532"/>
<path d="M127.625 238.279L127.417 240.031L127.186 241.864L127.163 242.085L126.955 243.813V243.883L126.735 245.623L126.712 245.855L126.504 247.584L126.481 247.665L126.273 249.393L126.249 249.637L126.03 251.366L126.018 251.447L125.822 253.175L125.787 253.407L125.579 255.136L125.567 255.217L125.359 256.946L125.336 257.189L125.117 258.918L125.105 258.999L124.897 260.728L124.874 260.948L124.654 262.7V262.758L124.446 264.51L124.423 264.719L124.307 265.566L122.331 265.473H122.157L118.285 265.31L117.776 265.276L113.892 265.102L113.731 265.09L109.847 264.916L109.361 264.904L105.315 264.719L102.09 264.568L101.813 262.897L101.466 260.774L101.42 260.519L101.084 258.5L101.073 258.408L100.738 256.389L100.68 256.122L100.356 254.104L100.345 254.011L100.009 251.992L99.9517 251.737L99.628 249.718L99.6165 249.625L99.2812 247.607L99.2234 247.34L98.8998 245.321L98.8766 245.229L98.553 243.221L98.4952 242.943L98.16 240.913L98.1484 240.832L97.8247 238.825L97.7669 238.546L97.4548 236.62L97.6051 236.632H97.7785L101.743 236.852L102.252 236.876L106.217 237.096L106.39 237.108L110.344 237.316L110.875 237.363L114.84 237.572L115.002 237.583L118.955 237.804L119.487 237.827L123.614 238.047L127.625 238.279Z" fill="#F65372"/>
<path d="M127.625 238.279L130.943 239.613L132.156 260.194L124.308 265.566L127.625 238.279Z" fill="#F94964"/>
<path d="M109.847 264.916L109.361 264.904L105.315 264.719L101.813 262.897L101.466 260.774L101.42 260.519L109.847 264.916Z" fill="#F65372"/>
<path d="M113.893 265.101L113.731 265.09L109.847 264.916L109.361 264.904L101.466 260.774L101.42 260.519L101.085 258.5L101.073 258.407L113.893 265.101Z" fill="#CC384E"/>
<path d="M118.285 265.311L117.776 265.276L113.892 265.102L113.731 265.09L101.085 258.501L101.073 258.408L100.738 256.389L100.68 256.123L118.285 265.311Z" fill="#F65372"/>
<path d="M122.331 265.473H122.157L118.285 265.31L117.776 265.276L100.738 256.389L100.68 256.122L100.356 254.104L100.345 254.011L122.331 265.473Z" fill="#CC384E"/>
<path d="M124.446 264.51L124.423 264.719L124.308 265.566L122.331 265.473H122.158L100.356 254.104L100.345 254.011L100.01 251.993L99.9519 251.737L124.446 264.51Z" fill="#F65372"/>
<path d="M124.654 262.7V262.758L124.446 264.51L124.423 264.719L100.009 251.992L99.9517 251.737L99.628 249.718L99.6165 249.625L124.654 262.7Z" fill="#CC384E"/>
<path d="M124.897 260.728L124.874 260.948L124.654 262.7V262.758L99.628 249.718L99.6164 249.626L99.2812 247.607L99.2234 247.34L124.897 260.728Z" fill="#F65372"/>
<path d="M125.117 258.918L125.105 258.999L124.897 260.728L124.874 260.948L99.2813 247.607L99.2235 247.34L98.8998 245.321L98.8767 245.229L125.117 258.918Z" fill="#CC384E"/>
<path d="M125.359 256.946L125.336 257.19L125.117 258.918L125.105 259L98.8997 245.322L98.8766 245.229L98.5529 243.222L98.4951 242.943L125.359 256.946Z" fill="#F65372"/>
<path d="M125.579 255.136L125.568 255.217L125.36 256.946L125.337 257.189L98.5533 243.221L98.4955 242.943L98.1602 240.913L98.1487 240.832L125.579 255.136Z" fill="#CC384E"/>
<path d="M125.822 253.175L125.787 253.407L125.579 255.136L125.567 255.217L98.1599 240.913L98.1483 240.832L97.8246 238.825L97.7668 238.546L125.822 253.175Z" fill="#F65372"/>
<path d="M126.03 251.366L126.018 251.447L125.822 253.175L125.787 253.407L97.8247 238.825L97.7669 238.546L97.4548 236.62L97.6051 236.632H97.7785L126.03 251.366Z" fill="#CC384E"/>
<path d="M126.273 249.394L126.25 249.637L126.03 251.366L126.018 251.447L97.6052 236.632H97.7786L101.744 236.853L102.252 236.876L126.273 249.394Z" fill="#F65372"/>
<path d="M126.504 247.584L126.48 247.665L126.272 249.394L126.249 249.637L101.743 236.853L102.252 236.876L106.217 237.096L106.39 237.108L126.504 247.584Z" fill="#CC384E"/>
<path d="M126.735 245.623L126.712 245.855L126.504 247.584L126.481 247.665L106.217 237.096L106.39 237.108L110.344 237.316L110.875 237.363L126.735 245.623Z" fill="#F65372"/>
<path d="M126.954 243.813V243.883L126.735 245.623L126.712 245.855L110.344 237.317L110.875 237.363L114.84 237.572L115.002 237.583L126.954 243.813Z" fill="#CC384E"/>
<path d="M127.186 241.864L127.163 242.085L126.955 243.813V243.883L114.84 237.572L115.002 237.583L118.956 237.804L119.487 237.827L127.186 241.864Z" fill="#F65372"/>
<path d="M127.417 240.031L127.186 241.864L127.163 242.085L118.956 237.804L119.487 237.827L123.614 238.048L127.417 240.031Z" fill="#CC384E"/>
<path d="M111.72 234.359C111.72 234.359 101.062 233.384 101.963 230.124C102.865 226.864 105.801 229.138 105.801 229.138C105.801 229.138 103.27 233.245 111.72 234.359Z" fill="#DBA11D"/>
<path d="M113.881 234.985C113.881 234.985 110.055 228.209 106.021 227.606C101.986 227.003 102.044 229.66 102.044 229.66C102.044 229.66 104.541 227.943 107.061 230.82C109.581 233.697 112.956 235.019 113.881 234.985Z" fill="#FFC532"/>
<path d="M126.053 228.789C126.053 228.789 122.851 234.903 113.881 234.984C113.881 234.984 120.192 234.149 121.707 231.713C122.564 230.488 123.053 229.043 123.117 227.548L126.053 228.789Z" fill="#DBA11D"/>
<path d="M113.384 235.031C113.384 235.031 118.007 227.687 121.059 226.968C121.978 226.788 122.928 226.862 123.808 227.183C124.687 227.504 125.463 228.059 126.053 228.789C126.053 228.789 122.342 227.072 120.273 229.81C118.204 232.548 117.487 234.764 113.384 235.031Z" fill="#FFC532"/>
<path d="M110.875 237.363L110.494 265.021L116.794 265.241L115.36 237.618L110.875 237.363Z" fill="#DBA11D"/>
<g style="mix-blend-mode:multiply" opacity="0.2">
<path d="M97.6052 236.632L98.1601 240.913L126.966 241.493L130.943 239.614L125.752 237.386L97.6052 236.632Z" fill="#191D3F"/>
</g>
<path d="M96.7842 233.871L96.2871 237.861L128.041 239.358L127.798 234.288L96.7842 233.871Z" fill="#CC384E"/>
<path d="M127.799 234.289L132.191 235.611L132.769 240.275L127.625 239.277L127.799 234.289Z" fill="#B72E48"/>
<path d="M109.777 234.057V238.558L116.736 238.72V233.952L109.777 234.057Z" fill="#FFC532"/>
<g style="mix-blend-mode:multiply" opacity="0.2">
<path d="M155.818 241.725C155.183 240.217 136.491 236.643 129.763 239.277C129.763 239.277 129.96 245.542 131.255 245.948C130.787 252.405 131.524 258.893 133.428 265.078C137.543 266.238 146.143 265.624 150.49 263.918C152.536 259.208 154.917 250.611 154.917 246.296H155.344C156.362 246.261 156.443 243.279 155.818 241.725Z" fill="#191D3F"/>
</g>
<path d="M138.699 240.623C138.699 240.623 130.607 239.88 131.243 237.386C131.879 234.892 134.179 236.632 134.179 236.632C134.179 236.632 132.272 239.776 138.699 240.623Z" fill="#CC384E"/>
<path d="M140.364 241.11C140.364 241.11 137.439 235.924 134.364 235.472C131.29 235.019 131.324 237.038 131.324 237.038C131.324 237.038 133.232 235.727 135.15 237.955C136.476 239.576 138.316 240.69 140.364 241.11Z" fill="#F65372"/>
<path d="M149.611 236.377C149.611 236.377 147.161 241.017 140.306 241.11C140.306 241.11 145.126 240.472 146.294 238.604C146.948 237.67 147.321 236.567 147.369 235.426L149.611 236.377Z" fill="#CC384E"/>
<path d="M139.97 241.145C139.97 241.145 143.438 235.53 145.831 234.985C146.535 234.847 147.262 234.903 147.936 235.149C148.61 235.394 149.205 235.818 149.657 236.377C149.657 236.377 146.814 235.066 145.23 237.154C143.646 239.242 143.103 240.959 139.97 241.145Z" fill="#F65372"/>
<path d="M129.128 245.716C129.128 245.716 146.467 243.546 151.784 245.333C151.784 245.333 152.223 258.419 149.576 264.243C145.426 265.856 135.034 266.018 131.081 264.905C129.096 258.717 128.43 252.179 129.128 245.716Z" fill="#D89F21"/>
<g style="mix-blend-mode:multiply" opacity="0.2">
<path d="M129.07 246.829C129.07 246.829 128.85 248.268 129.07 248.488C129.289 248.709 149.877 249.927 151.9 247.328C153.923 244.73 129.07 246.829 129.07 246.829Z" fill="#191D3F"/>
</g>
<path d="M138.133 246.934C138.133 247.491 136.977 265.496 138.017 265.798C139.057 266.1 141.67 266.239 142.329 265.682C142.988 265.125 144.432 247.05 142.444 246.934C140.456 246.818 138.133 246.934 138.133 246.934Z" fill="#BF304C"/>
<path d="M127.556 241.145C127.556 241.145 127.752 247.503 129.174 247.329C130.596 247.155 151.206 247.549 152.224 247.549C153.241 247.549 153.322 244.799 152.709 243.407C152.096 242.015 134.052 238.72 127.556 241.145Z" fill="#F6BB36"/>
<path d="M137.243 239.95C137.243 239.95 135.809 248.709 137.243 248.709C138.676 248.709 143.993 249.382 143.993 247.932C143.993 246.481 145.981 241.505 143.658 240.611C141.569 240.048 139.402 239.824 137.243 239.95Z" fill="#CC384E"/>
<g style="mix-blend-mode:multiply" opacity="0.35">
<path d="M223.233 94.7594C222.963 95.0597 222.723 95.3862 222.517 95.7339C222.196 96.2315 222.025 96.8117 222.025 97.4045C222.025 97.9973 222.196 98.5774 222.517 99.0751C223.041 99.8939 223.73 100.593 224.54 101.128C224.451 101.259 224.37 101.395 224.297 101.535C224.2 101.73 224.115 101.932 224.043 102.138C222.54 105.757 222.54 110.259 224.366 111.036C225.077 111.041 225.776 110.852 226.389 110.491L226.482 112.973C225.708 113.27 225.042 113.796 224.574 114.482C224.337 114.726 224.12 114.99 223.927 115.271C223.448 115.323 222.975 115.424 222.517 115.572C217.072 117.231 214.148 124.25 214.148 124.25C214.202 124.385 214.264 124.516 214.333 124.644L210.321 129.946L211.882 120.897L213.038 114.203L212.841 113.043C212.796 113.03 212.748 113.03 212.703 113.043L213.258 112.579H213.362H213.443C213.702 112.643 213.976 112.607 214.21 112.478C214.445 112.348 214.621 112.135 214.706 111.88C214.791 111.626 214.776 111.349 214.667 111.104C214.557 110.859 214.359 110.665 214.113 110.56L212.576 109.98L212.078 109.505L199.721 97.7177L195.444 93.6573C195.413 93.5881 195.361 93.5311 195.294 93.4948C194.462 93.1932 192.162 97.2653 190.139 102.613C188.116 107.962 187.133 112.544 187.954 112.857C188.013 112.873 188.075 112.875 188.135 112.863C188.195 112.851 188.252 112.825 188.301 112.788L210.807 111.964L210.61 112.521C210.446 112.508 210.281 112.528 210.125 112.58C209.969 112.631 209.824 112.713 209.7 112.821C209.575 112.929 209.473 113.061 209.399 113.208C209.325 113.356 209.281 113.516 209.27 113.681C209.27 113.681 209.27 113.681 209.27 113.762C209.269 114.192 209.43 114.607 209.72 114.922L209.374 115.851L210.472 116.257L210.657 115.735C211.015 115.967 211.292 116.117 211.292 116.117L210.067 118.368H209.952C209.952 118.368 203.455 129.54 205.455 135.712C207.374 141.64 212.102 138.821 215.338 135.932C215.72 140.654 217.338 141.582 216.009 145.005C214.679 148.427 216.009 152.836 217.8 153.126C214.159 168.207 200.577 195.726 205.571 206.642C206.927 209.254 209.152 211.306 211.859 212.443C212.489 217.15 214.062 221.681 216.483 225.761C216.795 226.318 217.13 226.922 217.488 227.478L219.465 245.588L220.852 258.28C223.532 256.653 225.669 254.262 226.99 251.412L228.447 243.546V92.0679C226.435 92.2795 224.575 93.2397 223.233 94.7594ZM212.24 113.426C212.158 113.532 212.085 113.644 212.021 113.762V113.623L212.24 113.426Z" fill="#6838AD"/>
</g>
<path d="M219.777 121.86L214.956 128.206L216.852 117.266L214.54 116.605C214.54 116.605 208.044 127.777 210.044 134.007C213.072 143.404 223.21 130.805 223.21 130.805L219.777 121.86Z" fill="#F3AFB1"/>
<path d="M224.586 130.039C224.586 130.039 225.464 129.1 223.927 129.68C222.39 130.26 218.783 122.522 218.783 122.522C218.783 122.522 222.251 114.285 228.574 113.531C230.377 113.322 225.904 126.536 224.586 130.039Z" fill="#D89F21"/>
<path d="M229.834 113.275C229.834 113.275 221.002 119.076 220.066 128.844C219.13 138.613 222.378 138.81 220.644 143.242C218.91 147.673 221.638 153.822 224.112 150.307C226.586 146.792 225.984 131.257 227.187 123.624C228.389 115.99 232.747 115.271 229.834 113.275Z" fill="#D89F21"/>
<path d="M235.925 206.573L232.943 218.731L250.525 254.394L248.837 256.714C248.837 256.714 228.631 237.258 221.095 223.94C213.558 210.622 217.107 203.185 217.107 203.185L235.925 206.573Z" fill="#E29CA1"/>
<path d="M220.158 207.199L226.123 262.027L229.371 262.016L239.694 206.097L220.158 207.199Z" fill="#F3AFB1"/>
<path d="M231.325 112.022C229.106 111.546 228.042 114.041 223.511 122.927C220.182 129.459 221.604 133.229 223.222 144.1C224.84 154.97 204.23 191.769 210.206 204.844C216.182 217.919 252.976 215.459 250.086 201.561C247.196 187.663 255.681 169.971 245.67 156.583C235.66 143.195 247.659 115.526 231.325 112.022Z" fill="white"/>
<path d="M238.064 113.948C238.064 113.948 231.441 129.157 231.383 135.445C231.325 141.733 228.481 149.97 235.024 152.847C241.567 155.724 253.265 157.952 252.213 154.773C251.161 151.594 239.671 137.441 242.341 126.315C243.497 121.524 243.589 113.902 238.064 113.948Z" fill="#F6BB36"/>
<path d="M231.175 123.902C234.851 121.071 236.157 114.354 236.157 114.354L236.608 105.943C241.474 103.217 236.781 102.289 236.781 102.289C236.781 102.289 232.365 97.7759 229.984 98.7157C229.75 98.8113 229.537 98.953 229.359 99.1323C229.18 99.3116 229.039 99.5249 228.944 99.7598C228.851 99.957 228.759 100.154 228.678 100.351C227.187 103.983 227.175 108.472 229.001 109.261C229.718 109.266 230.421 109.073 231.036 108.704L231.14 111.233C231.14 111.233 228.019 112.15 227.765 117.545C227.51 122.939 231.175 123.902 231.175 123.902Z" fill="#F3AFB1"/>
<path opacity="0.68" d="M228.678 100.352C230.26 100.796 231.806 101.362 233.302 102.045C235.717 103.356 235.244 103.751 235.983 103.136C236.723 102.521 232.203 99.5395 230.019 98.7158C229.785 98.8115 229.572 98.9531 229.393 99.1325C229.215 99.3118 229.074 99.5251 228.978 99.7599C228.851 99.9572 228.759 100.189 228.678 100.352Z" fill="#CC8F95"/>
<path d="M230.862 100.317C230.862 100.317 223.927 97.2657 227.88 92.9964C231.833 88.7271 236.839 90.3049 239.185 91.8362C241.532 93.3676 243.728 96.3492 244.167 101.825C245.323 116.512 241.855 124.54 236.238 130.469C230.62 136.397 231.07 112.579 234.538 108.426C238.006 104.273 237.59 102.741 230.862 100.317Z" fill="#241442"/>
<path d="M235.903 105.989C235.903 105.989 238.943 105.212 237.856 103.785C236.769 102.358 235.244 103.646 235.244 103.646L235.903 105.989Z" fill="#F3AFB1"/>
<path d="M233.914 109.772C232.319 112.949 231.215 116.353 230.643 119.865C231.219 117.931 232.214 116.148 233.556 114.644C234.164 113.997 234.532 113.159 234.597 112.272C234.662 111.385 234.421 110.502 233.914 109.772Z" fill="#241442"/>
<path d="M231.683 121.779C231.683 121.779 231.024 130.051 233.729 131.536C236.434 133.021 237.671 130.886 237.671 130.886C237.671 130.886 235.868 135.26 233.047 132.545C230.227 129.83 231.683 121.779 231.683 121.779Z" fill="#241442"/>
<path d="M229.903 257.839L229.198 261.9C229.198 261.9 223.916 267.921 219.858 266.749C215.801 265.577 217.627 264.986 217.627 264.986C220.519 264.272 223.367 263.393 226.158 262.352C228.077 261.412 226.297 260.809 226.297 260.809L226.147 256.981L229.903 257.839Z" fill="#F3AFB1"/>
<path d="M229.926 260.45C229.926 260.45 226.227 259.928 225.858 261.239C225.488 262.55 224.702 265.311 221.765 265.322C218.829 265.334 215.801 264.765 216.171 265.67C216.541 266.575 221.303 269.371 224.135 267.991C225.668 267.348 226.956 266.23 227.811 264.8L227.21 269.046L228.008 269.278C228.008 269.278 231.129 262.306 229.926 260.45Z" fill="#241442"/>
<path d="M250.803 255.321C250.803 255.321 250.583 263.349 246.711 265.043C242.838 266.737 243.867 265.124 243.867 265.124C245.64 262.719 247.272 260.213 248.757 257.618C249.635 255.669 247.878 256.354 247.878 256.354L250.803 255.321Z" fill="#E29CA1"/>
<path d="M250.444 253.744C250.444 253.744 247.265 255.716 247.809 256.958C248.352 258.199 249.496 260.844 247.277 262.758C245.057 264.673 242.329 266.158 243.185 266.61C244.04 267.062 249.496 266.158 250.791 263.28C251.565 261.807 251.845 260.123 251.589 258.477L253.831 262.12L254.582 261.784C254.582 261.784 252.49 254.394 250.444 253.744Z" fill="#241442"/>
<path d="M217.511 111.28L217.708 112.44L216.552 119.134L213.373 119.041L215.939 114.401C215.939 114.401 213.835 113.414 213.916 112.08C213.997 110.746 215.477 111.257 215.477 111.257L216.633 112.069C216.633 112.069 217.222 110.955 217.511 111.28Z" fill="#F3AFB1"/>
<path d="M217.974 110.723L215.858 112.509L215.095 114.528L214.009 114.11L214.829 111.929L215.558 109.899C215.558 109.899 218.378 110.038 217.974 110.723Z" fill="#FF0070"/>
<path d="M192.624 111.025L215.523 110.178L219.165 110.05H219.176V110.038L218.737 109.621L216.749 107.73L199.93 91.72L197.803 97.335L192.624 111.025Z" fill="white"/>
<path d="M192.601 111.083C193.422 111.396 195.733 107.312 197.756 101.964L197.999 101.326C199.698 96.6855 200.565 92.7294 200.091 91.8825C200.06 91.8097 200.002 91.7517 199.93 91.7201C199.109 91.4184 196.809 95.4905 194.786 100.839C192.763 106.187 191.78 110.769 192.601 111.083Z" fill="#CC0062"/>
<path d="M195.132 100.978C194.947 101.465 194.762 101.952 194.6 102.416C193.167 106.477 192.485 109.714 193.04 109.922C193.595 110.131 195.236 107.254 196.843 103.263C197.028 102.799 197.224 102.324 197.409 101.836C197.594 101.349 197.86 100.676 198.057 100.038C199.398 96.1516 200.033 93.0773 199.49 92.8916C198.947 92.706 197.398 95.3859 195.826 99.1912C195.595 99.7712 195.363 100.363 195.132 100.978Z" fill="#FF0070"/>
<path d="M216.448 110.189L218.043 110.793H218.124C218.384 110.857 218.658 110.821 218.892 110.691C219.126 110.562 219.303 110.348 219.388 110.094C219.472 109.839 219.458 109.562 219.348 109.317C219.238 109.073 219.041 108.879 218.795 108.774L217.257 108.194H217.199L216.91 108.971L216.448 110.189Z" fill="#FF0070"/>
<path opacity="0.3" d="M197.999 101.349L215.269 108.217L215.777 106.883H215.87L200.091 91.8826C200.565 92.7295 199.698 96.7087 197.999 101.349Z" fill="#C1C1C1"/>
<path opacity="0.25" d="M217.165 109.319L199.317 100.189C199.317 100.189 201.224 95.5484 200.646 93.0193L216.829 108.101C216.829 108.101 218.482 109.029 217.165 109.319Z" fill="#EFEFEF"/>
<path d="M216.494 111.361C216.494 111.361 217.13 112.962 216.124 113.136C215.118 113.31 214.02 112.811 213.916 111.976C213.812 111.141 215.107 110.004 216.494 111.361Z" fill="#F3AFB1"/>
<path opacity="0.25" d="M222.713 131.571C222.713 131.571 226.331 148.404 223.36 153.694C220.39 158.984 208.125 191.468 212.564 202.107C216.61 211.828 231.776 210.436 231.776 210.436C231.776 210.436 214.194 209.392 214.702 197.35C215.327 182.431 218.055 170.064 224.956 156.827C228.8 155.928 232.713 155.357 236.654 155.121C236.654 155.121 227.406 156.281 226.632 149.622C225.857 142.963 231.926 135.132 222.713 131.571Z" fill="#BC6C0C"/>
<path opacity="0.68" d="M231.036 108.704C231.232 108.704 233.926 107.034 233.775 107.741C233.029 108.997 232.145 110.164 231.14 111.222C231.209 111.141 231.036 108.704 231.036 108.704Z" fill="#CC8F95"/>
<path d="M241.601 128.902C241.601 128.902 249.381 140.666 252.513 138.589C255.646 136.513 246.918 123.183 246.918 123.183L241.601 128.902Z" fill="#E29CA1"/>
<path d="M267.032 127.638L267.136 130.155C267.136 130.155 252.941 142.569 249.138 137.893C246.965 135.248 247.67 132.615 249.254 131.571C250.042 131.064 250.898 130.673 251.797 130.41L253.82 130.039L267.032 127.638Z" fill="#E29CA1"/>
<path d="M267.032 127.638C267.032 127.638 270.384 122.869 271.656 123.125C272.928 123.38 271.009 125.851 271.009 125.851C272.104 126.267 273.02 127.055 273.598 128.078C274.442 129.703 268.003 131.976 266.604 130.201C265.206 128.426 267.032 127.638 267.032 127.638Z" fill="#E29CA1"/>
<path opacity="0.68" d="M267.032 127.638C267.032 127.638 257.068 132.278 253.38 132.545C251.969 132.396 250.583 132.068 249.253 131.571C250.041 131.064 250.898 130.673 251.796 130.41L253.819 130.039L267.032 127.638Z" fill="#CC8F95"/>
<path d="M240.018 127.522C240.018 127.522 239.636 131.617 244.584 132.591C246.456 128.856 250.363 128.38 250.121 126.942C249.878 125.503 246.653 121.361 242.896 119.308C242.896 122.637 240.018 127.522 240.018 127.522Z" fill="#F6BB36"/>
<path d="M276.028 106.405L272.723 106.001L269.146 135.541L272.45 135.945L276.028 106.405Z" fill="url(#paint25_linear)"/>
<g opacity="0.28">
<path style="mix-blend-mode:multiply" opacity="0.28" d="M272.692 105.995L272.14 110.556L275.445 110.959L275.997 106.399L272.692 105.995Z" fill="url(#paint26_linear)"/>
</g>
<path d="M260.761 87.0425L258.622 104.709C258.538 105.396 259.026 106.02 259.71 106.104L288.593 109.627C289.277 109.711 289.9 109.221 289.983 108.534L292.122 90.868C292.205 90.1811 291.718 89.5566 291.034 89.4731L262.151 85.9498C261.467 85.8663 260.844 86.3555 260.761 87.0425Z" fill="url(#paint27_linear)"/>
<path opacity="0.17" d="M284.371 89.5855C284.371 89.5855 290.035 89.4347 290.578 92.7527C291.122 96.0707 288.324 90.27 284.371 89.5855Z" fill="white"/>
<path d="M271.644 126.802C271.644 126.802 273.297 124.911 274.407 126.292C275.517 127.673 274.407 130.515 272.742 130.515C271.078 130.515 269.829 128.461 271.644 126.802Z" fill="#E29CA1"/>
<path d="M286.452 86.1278C286.452 86.1278 293.087 86.1279 294.197 88.3437C295.306 90.5596 293.757 95.4437 293.757 95.4437C293.757 95.4437 302.196 84.1208 286.452 86.1278Z" fill="white"/>
<path d="M249.358 140.921C249.358 140.921 253.982 142.081 256.155 140.747C255.257 141.64 254.054 142.155 252.791 142.187C251.528 142.22 250.3 141.767 249.358 140.921Z" fill="white"/>
<path d="M267.51 97.5374C267.531 97.348 267.481 97.1955 267.358 97.0799C267.236 96.9621 267.008 96.8276 266.673 96.6765C266.338 96.5231 266.075 96.3802 265.885 96.2478C265.366 95.886 265.136 95.4521 265.193 94.9462C265.223 94.6833 265.323 94.4577 265.493 94.2695C265.666 94.0793 265.897 93.9421 266.187 93.8578C266.479 93.7737 266.797 93.7515 267.143 93.791C267.49 93.8307 267.793 93.9297 268.05 94.0878C268.308 94.2437 268.498 94.4449 268.621 94.6915C268.747 94.9384 268.793 95.2078 268.76 95.4997L267.757 95.385C267.783 95.1622 267.732 94.9815 267.605 94.8428C267.479 94.702 267.289 94.617 267.035 94.588C266.79 94.56 266.594 94.5905 266.446 94.6797C266.298 94.7667 266.215 94.8949 266.196 95.0642C266.178 95.2225 266.242 95.3641 266.388 95.4892C266.536 95.6145 266.76 95.7417 267.059 95.8707C267.61 96.1075 268.001 96.3678 268.233 96.6517C268.465 96.9356 268.559 97.2669 268.516 97.6458C268.469 98.067 268.272 98.3797 267.926 98.5839C267.58 98.7859 267.137 98.8561 266.598 98.7945C266.224 98.7517 265.891 98.6447 265.599 98.4736C265.307 98.3003 265.093 98.0851 264.957 97.828C264.824 97.5712 264.775 97.2857 264.811 96.9715L265.817 97.0865C265.756 97.6236 266.046 97.9288 266.688 98.0022C266.927 98.0295 267.118 98.0028 267.263 97.9223C267.407 97.8395 267.49 97.7112 267.51 97.5374ZM270.646 99.2573C270.116 99.1967 269.702 98.9846 269.404 98.621C269.109 98.2576 268.993 97.8052 269.054 97.2637L269.065 97.1701C269.106 96.8068 269.213 96.4906 269.386 96.2214C269.559 95.95 269.782 95.752 270.056 95.6276C270.332 95.5011 270.635 95.4568 270.965 95.4945C271.459 95.551 271.831 95.7515 272.078 96.0959C272.328 96.4405 272.42 96.8991 272.355 97.4719L272.311 97.8663L270.008 97.603C270.012 97.8428 270.084 98.0429 270.224 98.2034C270.366 98.3641 270.557 98.4582 270.798 98.4857C271.17 98.5283 271.476 98.4267 271.716 98.181L272.13 98.7668C271.962 98.9552 271.748 99.0933 271.488 99.1809C271.227 99.2662 270.947 99.2917 270.646 99.2573ZM270.873 96.2763C270.681 96.2544 270.518 96.3012 270.383 96.4167C270.25 96.5324 270.153 96.7087 270.092 96.9456L271.436 97.0992L271.445 97.0224C271.465 96.8079 271.425 96.6364 271.327 96.5077C271.229 96.3769 271.078 96.2997 270.873 96.2763ZM272.76 97.5724C272.823 97.0175 273.006 96.5857 273.307 96.277C273.611 95.9686 273.986 95.84 274.434 95.8912C274.831 95.9366 275.124 96.1078 275.314 96.4049L275.393 96.0685L276.268 96.1687L275.871 99.6652C275.836 99.9817 275.732 100.249 275.56 100.466C275.391 100.684 275.169 100.839 274.895 100.932C274.62 101.024 274.308 101.051 273.958 101.011C273.693 100.981 273.44 100.897 273.201 100.762C272.961 100.628 272.786 100.47 272.676 100.289L273.17 99.7491C273.38 100.046 273.657 100.214 274 100.254C274.256 100.283 274.463 100.237 274.622 100.115C274.78 99.9953 274.873 99.8095 274.902 99.5577L274.924 99.3638C274.672 99.5902 274.365 99.6826 274.002 99.641C273.567 99.5914 273.234 99.3817 273.003 99.0122C272.775 98.6406 272.692 98.1741 272.756 97.6125L272.76 97.5724ZM273.718 97.753C273.681 98.0806 273.718 98.3455 273.828 98.5477C273.938 98.7478 274.108 98.8609 274.338 98.8871C274.632 98.9208 274.855 98.8345 275.007 98.6284L275.18 97.1075C275.076 96.872 274.88 96.7379 274.592 96.705C274.361 96.6785 274.167 96.7524 274.012 96.9265C273.859 97.1009 273.761 97.3764 273.718 97.753ZM278.26 100.128C277.73 100.067 277.316 99.8552 277.019 99.4916C276.724 99.1283 276.607 98.6759 276.668 98.1343L276.679 98.0407C276.72 97.6775 276.827 97.3613 277 97.0921C277.173 96.8206 277.396 96.6227 277.67 96.4982C277.946 96.3718 278.249 96.3274 278.579 96.3651C279.074 96.4217 279.445 96.6222 279.692 96.9665C279.942 97.3111 280.035 97.7698 279.97 98.3425L279.925 98.737L277.622 98.4736C277.626 98.7134 277.698 98.9136 277.838 99.074C277.98 99.2347 278.171 99.3289 278.412 99.3564C278.784 99.3989 279.09 99.2974 279.33 99.0517L279.745 99.6374C279.577 99.8259 279.362 99.9639 279.102 100.052C278.841 100.137 278.561 100.162 278.26 100.128ZM278.487 97.147C278.295 97.1251 278.132 97.1718 277.997 97.2873C277.864 97.4031 277.767 97.5794 277.707 97.8163L279.05 97.9699L279.059 97.893C279.079 97.6786 279.04 97.507 278.941 97.3784C278.843 97.2476 278.692 97.1704 278.487 97.147ZM282.647 97.8157C282.517 97.7828 282.402 97.7606 282.302 97.7492C281.937 97.7074 281.683 97.8037 281.541 98.038L281.273 100.405L280.307 100.294L280.717 96.6774L281.63 96.7817L281.608 97.216C281.839 96.9061 282.126 96.7708 282.47 96.81C282.577 96.8223 282.675 96.8482 282.765 96.8879L282.647 97.8157ZM284.802 100.808C284.768 100.716 284.748 100.605 284.742 100.473C284.479 100.707 284.16 100.803 283.785 100.76C283.431 100.719 283.148 100.583 282.938 100.351C282.729 100.12 282.643 99.848 282.678 99.5361C282.722 99.1527 282.897 98.8748 283.203 98.7021C283.511 98.5297 283.934 98.4731 284.471 98.5323L284.916 98.5831L284.94 98.3758C284.959 98.2087 284.93 98.07 284.855 97.9598C284.781 97.8498 284.652 97.7843 284.467 97.7631C284.305 97.7445 284.172 97.7689 284.07 97.8362C283.97 97.9037 283.912 98.0055 283.896 98.1414L282.93 98.0309C282.954 97.8215 283.041 97.635 283.19 97.4715C283.34 97.308 283.538 97.1896 283.786 97.1163C284.034 97.0408 284.305 97.0199 284.599 97.0535C285.044 97.1045 285.385 97.2574 285.62 97.5123C285.858 97.7652 285.953 98.0945 285.907 98.5L285.729 100.068C285.693 100.411 285.711 100.676 285.785 100.863L285.778 100.92L284.802 100.808ZM284.08 100.045C284.222 100.061 284.357 100.045 284.485 99.9966C284.612 99.9457 284.711 99.8701 284.781 99.7698L284.852 99.148L284.491 99.1067C284.007 99.0514 283.731 99.1892 283.662 99.5199L283.652 99.5763C283.638 99.6967 283.67 99.8007 283.745 99.8883C283.821 99.976 283.933 100.028 284.08 100.045Z" fill="white"/>
</g>
<defs>
<linearGradient id="paint0_linear" x1="78.0585" y1="126.268" x2="102.699" y2="131.994" gradientUnits="userSpaceOnUse">
<stop stop-color="white"/>
<stop offset="0.06" stop-color="#FBFBFB"/>
<stop offset="0.51" stop-color="#DFDFDF"/>
<stop offset="0.78" stop-color="#BCBEC0"/>
<stop offset="1" stop-color="#E6E7E8"/>
</linearGradient>
<linearGradient id="paint1_linear" x1="253.095" y1="498.594" x2="287.003" y2="651.77" gradientUnits="userSpaceOnUse">
<stop stop-color="white"/>
<stop offset="0.06" stop-color="#FBFBFB"/>
<stop offset="0.51" stop-color="#DFDFDF"/>
<stop offset="0.78" stop-color="#BCBEC0"/>
<stop offset="1" stop-color="#E6E7E8"/>
</linearGradient>
<linearGradient id="paint2_linear" x1="770.869" y1="1310.52" x2="865.885" y2="1808.58" gradientUnits="userSpaceOnUse">
<stop stop-color="white"/>
<stop offset="0.06" stop-color="#FBFBFB"/>
<stop offset="0.51" stop-color="#DFDFDF"/>
<stop offset="0.78" stop-color="#BCBEC0"/>
<stop offset="1" stop-color="#E6E7E8"/>
</linearGradient>
<linearGradient id="paint3_linear" x1="-7171.89" y1="5039.77" x2="-7703.02" y2="5092.69" gradientUnits="userSpaceOnUse">
<stop stop-color="white"/>
<stop offset="0.06" stop-color="#FBFBFB"/>
<stop offset="0.51" stop-color="#DFDFDF"/>
<stop offset="0.78" stop-color="#BCBEC0"/>
<stop offset="1" stop-color="#E6E7E8"/>
</linearGradient>
<linearGradient id="paint4_linear" x1="-439.722" y1="410.525" x2="-455.035" y2="545.204" gradientUnits="userSpaceOnUse">
<stop stop-color="white"/>
<stop offset="0.06" stop-color="#FBFBFB"/>
<stop offset="0.51" stop-color="#DFDFDF"/>
<stop offset="0.78" stop-color="#BCBEC0"/>
<stop offset="1" stop-color="#E6E7E8"/>
</linearGradient>
<linearGradient id="paint5_linear" x1="-2596.59" y1="1339.47" x2="-2669.86" y2="1873.72" gradientUnits="userSpaceOnUse">
<stop stop-color="white"/>
<stop offset="0.06" stop-color="#FBFBFB"/>
<stop offset="0.51" stop-color="#DFDFDF"/>
<stop offset="0.78" stop-color="#BCBEC0"/>
<stop offset="1" stop-color="#E6E7E8"/>
</linearGradient>
<linearGradient id="paint6_linear" x1="-7064.18" y1="4469.71" x2="-7595.65" y2="4522.66" gradientUnits="userSpaceOnUse">
<stop stop-color="white"/>
<stop offset="0.06" stop-color="#FBFBFB"/>
<stop offset="0.51" stop-color="#DFDFDF"/>
<stop offset="0.78" stop-color="#BCBEC0"/>
<stop offset="1" stop-color="#E6E7E8"/>
</linearGradient>
<linearGradient id="paint7_linear" x1="-429.639" y1="348.501" x2="-445.274" y2="483.733" gradientUnits="userSpaceOnUse">
<stop stop-color="white"/>
<stop offset="0.06" stop-color="#FBFBFB"/>
<stop offset="0.51" stop-color="#DFDFDF"/>
<stop offset="0.78" stop-color="#BCBEC0"/>
<stop offset="1" stop-color="#E6E7E8"/>
</linearGradient>
<linearGradient id="paint8_linear" x1="-2553.68" y1="1150.26" x2="-2627.39" y2="1685.76" gradientUnits="userSpaceOnUse">
<stop stop-color="white"/>
<stop offset="0.06" stop-color="#FBFBFB"/>
<stop offset="0.51" stop-color="#DFDFDF"/>
<stop offset="0.78" stop-color="#BCBEC0"/>
<stop offset="1" stop-color="#E6E7E8"/>
</linearGradient>
<linearGradient id="paint9_linear" x1="81.7107" y1="167.186" x2="207.42" y2="167.186" gradientUnits="userSpaceOnUse">
<stop stop-color="#D49B28"/>
<stop offset="0.5" stop-color="#FFF4D9"/>
<stop offset="1" stop-color="#BF9337"/>
</linearGradient>
<linearGradient id="paint10_linear" x1="82.3928" y1="167.233" x2="206.599" y2="167.233" gradientUnits="userSpaceOnUse">
<stop stop-color="#F6BB36"/>
<stop offset="1" stop-color="#BC6C0C"/>
</linearGradient>
<linearGradient id="paint11_linear" x1="8917.98" y1="2187.53" x2="17915.3" y2="2187.53" gradientUnits="userSpaceOnUse">
<stop stop-color="#D49B28"/>
<stop offset="0.5" stop-color="#FFF4D9"/>
<stop offset="1" stop-color="#BF9337"/>
</linearGradient>
<linearGradient id="paint12_linear" x1="131.059" y1="167.21" x2="254.779" y2="167.21" gradientUnits="userSpaceOnUse">
<stop stop-color="#BC6C0C"/>
<stop offset="1" stop-color="#F6BB36"/>
</linearGradient>
<linearGradient id="paint13_linear" x1="163.009" y1="139.424" x2="182.328" y2="157.53" gradientUnits="userSpaceOnUse">
<stop stop-color="#916200"/>
<stop offset="0.09" stop-color="#AE8838"/>
<stop offset="0.19" stop-color="#C6A969"/>
<stop offset="0.28" stop-color="#DBC491"/>
<stop offset="0.38" stop-color="#EAD9B1"/>
<stop offset="0.47" stop-color="#F6E8C7"/>
<stop offset="0.55" stop-color="#FDF1D4"/>
<stop offset="0.63" stop-color="#FFF4D9"/>
<stop offset="1" stop-color="#BF9337"/>
</linearGradient>
<linearGradient id="paint14_linear" x1="2301.14" y1="3235.16" x2="2506.7" y2="3235.16" gradientUnits="userSpaceOnUse">
<stop stop-color="#F6BB36"/>
<stop offset="1" stop-color="#BC6C0C"/>
</linearGradient>
<linearGradient id="paint15_linear" x1="2049.34" y1="922.266" x2="2249.38" y2="922.266" gradientUnits="userSpaceOnUse">
<stop stop-color="#F6BB36"/>
<stop offset="1" stop-color="#BC6C0C"/>
</linearGradient>
<linearGradient id="paint16_linear" x1="-5732.51" y1="26893.2" x2="-5509.97" y2="26893.2" gradientUnits="userSpaceOnUse">
<stop stop-color="#D49B28"/>
<stop offset="0.5" stop-color="#FFF4D9"/>
<stop offset="1" stop-color="#BF9337"/>
</linearGradient>
<linearGradient id="paint17_linear" x1="2139.44" y1="1785.23" x2="2362.13" y2="1785.23" gradientUnits="userSpaceOnUse">
<stop stop-color="#F6BB36"/>
<stop offset="1" stop-color="#BC6C0C"/>
</linearGradient>
<linearGradient id="paint18_linear" x1="2274.12" y1="979.548" x2="2474.46" y2="979.548" gradientUnits="userSpaceOnUse">
<stop stop-color="#F6BB36"/>
<stop offset="1" stop-color="#BC6C0C"/>
</linearGradient>
<linearGradient id="paint19_linear" x1="-5492.29" y1="26889.1" x2="-5269.75" y2="26889.1" gradientUnits="userSpaceOnUse">
<stop stop-color="#D49B28"/>
<stop offset="0.5" stop-color="#FFF4D9"/>
<stop offset="1" stop-color="#BF9337"/>
</linearGradient>
<linearGradient id="paint20_linear" x1="2682.95" y1="1813.26" x2="2397.46" y2="1657.23" gradientUnits="userSpaceOnUse">
<stop stop-color="#F6BB36"/>
<stop offset="1" stop-color="#BC6C0C"/>
</linearGradient>
<linearGradient id="paint21_linear" x1="-14168.8" y1="51210.8" x2="-14416" y2="51544.3" gradientUnits="userSpaceOnUse">
<stop stop-color="#D49B28"/>
<stop offset="0.5" stop-color="#FFF4D9"/>
<stop offset="1" stop-color="#BF9337"/>
</linearGradient>
<linearGradient id="paint22_linear" x1="1792.44" y1="3095.44" x2="1587.45" y2="3217.8" gradientUnits="userSpaceOnUse">
<stop stop-color="#F6BB36"/>
<stop offset="1" stop-color="#BC6C0C"/>
</linearGradient>
<linearGradient id="paint23_linear" x1="-1806" y1="19763.7" x2="-1803.91" y2="19849.4" gradientUnits="userSpaceOnUse">
<stop stop-color="#D49B28"/>
<stop offset="0.5" stop-color="#FFF4D9"/>
<stop offset="1" stop-color="#BF9337"/>
</linearGradient>
<linearGradient id="paint24_linear" x1="177.076" y1="123.589" x2="149.255" y2="77.2138" gradientUnits="userSpaceOnUse">
<stop stop-color="#FFF200"/>
<stop offset="1" stop-color="#F6BB36"/>
</linearGradient>
<linearGradient id="paint25_linear" x1="534.357" y1="3990.94" x2="653.216" y2="4016" gradientUnits="userSpaceOnUse">
<stop stop-color="#F6BB36"/>
<stop offset="1" stop-color="#BC6C0C"/>
</linearGradient>
<linearGradient id="paint26_linear" x1="1262.88" y1="620.745" x2="1280.44" y2="644.837" gradientUnits="userSpaceOnUse">
<stop stop-color="#F6BB36"/>
<stop offset="1" stop-color="#BC6C0C"/>
</linearGradient>
<linearGradient id="paint27_linear" x1="4103.43" y1="3778.99" x2="5066.5" y2="4414.69" gradientUnits="userSpaceOnUse">
<stop stop-color="#FF9C00"/>
<stop offset="1" stop-color="#F6BB36"/>
</linearGradient>
<clipPath id="clip0">
<rect width="269" height="279" fill="white" transform="translate(27)"/>
</clipPath>
</defs>
</svg>
