<svg width="349" height="339" viewBox="0 0 349 339" fill="none" xmlns="http://www.w3.org/2000/svg">
<g filter="url(#filter0_d)">
<rect x="4" y="174" width="341" height="157" rx="19" fill="url(#paint0_linear)"/>
<path d="M309.923 146.709C307.57 140.669 305.813 134.257 303.896 127.486C302.601 122.921 300.517 117.817 296.003 116.381C291.604 114.983 286.872 117.881 284.173 121.619C281.473 125.358 280.108 129.884 277.793 133.879C273.599 141.112 266.181 144.145 260.045 137.784C251.279 128.698 247.336 116.317 241.777 105.237C237.744 97.1962 234.365 87.777 229.28 80.3648C221.528 69.0605 210.897 59.4233 196.765 59.4233C187.807 60.7827 179.914 68.7143 174.567 78.6336C169.226 88.5529 166.109 100.344 163.455 112.11C158.627 133.507 155.087 153.769 151.554 175.634C151.554 175.634 329.877 175.185 329.884 175.185C329.172 175.191 324.799 169.35 323.965 168.542C317.117 161.912 313.007 154.628 309.923 146.709Z" fill="#D5D801"/>
<path d="M276.074 156.904C275.722 163.836 268.181 175.954 261.25 175.608C254.319 175.262 250.619 162.573 250.972 155.641C251.324 148.71 258.704 114.021 265.636 114.368C272.567 114.714 276.427 149.973 276.074 156.904Z" fill="#EFAF3F"/>
<path d="M265.302 118.876L261.808 175.051" stroke="#2A294F" stroke-width="0.7798" stroke-miterlimit="10" stroke-linecap="round" stroke-linejoin="round"/>
<path d="M260.211 155.462C258.634 158.931 257.428 162.567 256.704 166.362C256.338 168.286 256.101 170.37 256.973 172.12C257.922 174.038 260.032 175.153 262.141 175.499C267.296 176.346 272.445 173.191 275.465 168.927C278.485 164.67 279.793 159.463 280.992 154.378C281.935 150.377 282.865 146.319 284.647 142.587C285.41 140.99 289.886 134.816 287.77 133.219C284.878 130.943 276.497 133.418 271.131 139.278C266.713 144.1 262.911 149.531 260.211 155.462Z" fill="#FFC957"/>
<path d="M262.141 175.493C262.141 175.493 268.361 151.275 283.384 137.387" stroke="#2A294F" stroke-width="0.7798" stroke-miterlimit="10" stroke-linecap="round" stroke-linejoin="round"/>
<path d="M296.65 149.749C296.118 150.704 295.118 151.352 294.214 151.865C293.098 152.493 291.905 153.045 290.758 153.583C289.283 154.27 287.757 154.981 286.346 155.866C285.32 156.514 284.403 157.238 283.64 158.02C284.852 155.27 286.263 152.872 287.93 150.724C290.123 147.902 292.373 146.473 294.624 146.473C294.675 146.473 294.727 146.473 294.778 146.473C295.477 146.492 296.015 146.665 296.387 146.986C297.15 147.64 297.118 148.903 296.65 149.749Z" fill="#FFC957"/>
<path d="M299.157 165.407C298.266 166.042 297.086 166.202 296.048 166.279C294.772 166.369 293.457 166.362 292.188 166.35C290.559 166.337 288.873 166.324 287.225 166.523C286.019 166.664 284.884 166.933 283.858 167.311C286.128 165.343 288.437 163.778 290.86 162.554C294.053 160.938 296.695 160.611 298.728 161.573C298.773 161.592 298.824 161.618 298.869 161.643C299.491 161.957 299.908 162.349 300.106 162.797C300.517 163.721 299.946 164.849 299.157 165.407Z" fill="#FFC957"/>
<path d="M293.233 173.114C292.495 173.012 291.829 172.537 291.277 172.088C290.597 171.537 289.95 170.915 289.322 170.319C288.514 169.549 287.686 168.754 286.77 168.081C286.103 167.587 285.41 167.19 284.724 166.895C286.776 166.978 288.655 167.279 290.437 167.812C292.778 168.504 294.252 169.581 294.81 171.011C294.823 171.043 294.836 171.075 294.849 171.114C295.009 171.563 295.035 171.947 294.926 172.268C294.695 172.909 293.88 173.204 293.233 173.114Z" fill="#FFC957"/>
<path d="M276.363 175.628C276.363 175.628 276.433 160.81 294.528 148.23" stroke="#2A294F" stroke-width="0.7798" stroke-miterlimit="10" stroke-linecap="round" stroke-linejoin="round"/>
<path d="M276.363 175.628C276.363 175.628 281.922 163.721 296.984 163.721" stroke="#2A294F" stroke-width="0.7798" stroke-miterlimit="10" stroke-linecap="round" stroke-linejoin="round"/>
<path d="M284.564 167.036C284.564 167.036 287.481 166.824 293.573 171.415" stroke="#2A294F" stroke-width="0.7798" stroke-miterlimit="10" stroke-linecap="round" stroke-linejoin="round"/>
<path d="M162 175.987C156.115 160.188 150.193 144.383 143.269 129.083C139.361 120.453 135.055 111.862 129.07 104.962C123.086 98.0615 115.16 92.9681 107.199 93.0002C94.9402 94.6852 87.0237 103.277 81.8333 112.797C78.4302 119.037 76.7783 126.597 74.3772 133.196C71.0644 142.281 69.3222 152.167 62.9584 160.111C58.4991 165.679 51.6478 164.256 47.0261 159.259C44.4806 156.498 42.6752 153.218 39.8228 150.7C36.9703 148.182 32.466 146.542 28.8462 148.131C25.1182 149.764 24.0079 153.89 23.5024 157.516C22.7622 162.892 22.1032 167.972 20.8846 172.848C20.6228 173.911 20.325 174.956 20 176H162V175.987Z" fill="#D5D801"/>
<path d="M83.4656 153.936C80.8495 150.922 77.541 148.319 76.5022 144.517C75.7392 141.74 76.3419 138.797 76.6369 135.931C76.9318 133.065 76.8292 129.897 74.9762 127.692C73.4501 125.871 71.0328 125.082 68.7117 124.582C66.3906 124.082 63.9669 123.768 61.9086 122.588C58.5616 120.671 59.2284 117.407 57.4331 114.547C55.4197 111.335 50.7262 107.237 46.7123 109.373C42.4547 111.63 43.128 118.49 45.9621 121.517C47.8408 123.524 50.2453 125.454 50.521 128.185C50.9378 132.302 46.2186 136.014 47.5138 139.945C48.4756 142.849 52.1304 143.843 53.9385 146.312C55.7275 148.755 55.3684 152.172 54.3104 155.007C53.2589 157.841 51.5982 160.463 50.9442 163.419C49.6041 169.459 54.3425 173.64 59.7478 174.986C64.7106 176.224 75.4186 175.64 75.4186 175.64C79.2401 174.307 83.4784 170.947 85.5751 167.279C87.1653 164.509 87.3833 160.995 86.1522 158.046C85.5239 156.52 84.5556 155.193 83.4656 153.936Z" fill="#FFC957"/>
<path d="M51.4636 115.881C51.4636 115.881 69.7441 144.119 71.7318 175.474" stroke="#2A294F" stroke-width="0.7798" stroke-miterlimit="10" stroke-linecap="round" stroke-linejoin="round"/>
<path d="M35.1834 153.968C35.4656 153.724 35.8759 153.596 36.4017 153.583C36.4402 153.583 36.4786 153.583 36.5171 153.583C38.2163 153.583 39.9219 154.667 41.5762 156.802C42.8393 158.424 43.9037 160.239 44.8206 162.316C44.2435 161.726 43.551 161.175 42.7752 160.688C41.7108 160.021 40.5567 159.482 39.441 158.963C38.5689 158.559 37.6713 158.142 36.8249 157.661C36.1388 157.277 35.3822 156.783 34.9847 156.065C34.6256 155.424 34.6064 154.468 35.1834 153.968Z" fill="#FFC957"/>
<path d="M32.3687 165.926C32.5226 165.586 32.8368 165.291 33.3049 165.054C33.3369 165.035 33.3754 165.016 33.4075 165.003C34.9463 164.272 36.9469 164.522 39.3578 165.747C41.1916 166.676 42.9356 167.856 44.6476 169.344C43.8718 169.055 43.0126 168.857 42.1021 168.748C40.8517 168.6 39.5758 168.606 38.3447 168.613C37.3829 168.619 36.3954 168.626 35.4272 168.555C34.645 168.497 33.7473 168.376 33.0804 167.901C32.4905 167.478 32.0609 166.625 32.3687 165.926Z" fill="#FFC957"/>
<path d="M36.2864 173.082C36.203 172.845 36.2223 172.55 36.3441 172.21C36.3505 172.184 36.3633 172.159 36.3697 172.133C36.7929 171.049 37.9022 170.235 39.6783 169.709C41.0248 169.312 42.4483 169.081 44 169.017C43.4806 169.241 42.9548 169.543 42.4547 169.914C41.7622 170.427 41.1338 171.03 40.5247 171.607C40.0502 172.062 39.5629 172.531 39.0499 172.947C38.6332 173.287 38.133 173.646 37.5752 173.723C37.0751 173.794 36.4595 173.569 36.2864 173.082Z" fill="#FFC957"/>
<path d="M50.3223 175.628C50.3223 175.628 50.271 164.419 36.5879 154.91" stroke="#2A294F" stroke-width="0.7798" stroke-miterlimit="10" stroke-linecap="round" stroke-linejoin="round"/>
<path d="M50.3222 175.628C50.3222 175.628 46.1223 166.625 34.7283 166.625" stroke="#2A294F" stroke-width="0.7798" stroke-miterlimit="10" stroke-linecap="round" stroke-linejoin="round"/>
<path d="M44.1218 169.132C44.1218 169.132 41.916 168.972 37.3123 172.447" stroke="#2A294F" stroke-width="0.7798" stroke-miterlimit="10" stroke-linecap="round" stroke-linejoin="round"/>
<path d="M226.702 138.338C228.861 139.942 230.99 141.694 231.857 141.561C232.829 141.41 233.059 138.789 233.119 136.309C236.401 135.106 240.312 133.794 240.237 133.013C240.166 132.247 236.043 131.223 232.569 130.183C232.026 127.479 230.96 124.718 229.781 124.57C228.759 124.445 227.037 126.368 225.044 128.295C220.635 127.373 217.236 127.21 216.939 127.839C216.596 128.568 218.08 130.627 220.688 133.172C218.31 136.221 217.643 138.8 218.401 139.392C219.158 139.972 222.282 139.54 226.702 138.338Z" fill="url(#paint1_linear)"/>
<path d="M198.222 72.421C198.222 72.421 191.771 52.6915 199.164 51.531C206.557 50.3704 203.411 60.0872 203.411 60.0872C203.411 60.0872 209.873 53.9583 212.703 58.4905C215.526 63.0228 198.222 72.421 198.222 72.421Z" fill="url(#paint2_linear)"/>
<path d="M223.883 74.5448C231.359 83.1845 232.286 99.5233 218.352 101.894C213.951 102.641 208.208 99.3261 209.542 106.308C210.578 111.74 214.128 118.009 209.764 122.947C206.109 127.081 200.822 125.909 196.229 124.384C191.489 122.81 189.544 122.363 189.804 128.45C190.309 140.139 184.099 139.134 175.214 137.124C176.966 137.469 173.918 136.559 172.637 139.168C171.427 141.622 171.065 144.406 169.848 146.86C166.329 153.941 156.102 148.953 150.721 147.125C156.652 149.143 161.479 149.898 163.951 143.052C164.663 141.08 165.281 135.796 167.595 135.011C170.304 134.094 174.151 135.774 176.665 136.642C187.404 140.359 175.949 117.857 190.66 121.248C194.13 122.048 197.917 125.302 201.173 122.757C203.257 121.13 204.055 118.35 204.27 115.813C204.56 112.407 200.178 102.554 203.008 100.388C206.041 98.067 209.677 102.246 212.406 100.437C215.303 98.5145 218.318 97.2288 220.337 94.2098C224.829 87.493 221.415 79.0164 217.266 73.0619C218.619 75.0075 222.342 72.7661 223.883 74.5448Z" fill="url(#paint3_linear)"/>
<path opacity="0.3" d="M226.182 97.7864C224.739 97.0923 223.344 96.2845 222.048 95.5677C221.434 95.2263 220.759 94.9002 220.07 94.5664C218.058 97.3275 215.183 98.6018 212.405 100.441C211.509 101.037 210.51 100.98 209.466 100.722C210.163 101.075 210.857 101.431 211.539 101.788C213.374 101.56 216.045 102.285 218.352 101.89C221.86 101.295 224.426 99.8117 226.182 97.7864Z" fill="#B14026"/>
<path opacity="0.3" d="M201.172 122.761C197.913 125.306 194.13 122.052 190.659 121.252C189.747 121.043 188.93 120.929 188.206 120.91C189.597 121.566 190.916 122.401 192.072 123.383C193.09 123.379 194.465 123.808 196.229 124.392C200.619 125.845 205.645 126.971 209.27 123.451C208.792 122.352 208.238 121.29 207.326 120.413C206.346 119.465 205.148 118.741 203.87 118.225C203.426 119.974 202.608 121.642 201.172 122.761Z" fill="#B14026"/>
<path opacity="0.3" d="M176.665 136.642C175.968 136.4 175.172 136.1 174.328 135.808C174.882 136.282 175.425 136.779 175.949 137.287C181.111 138.436 185.301 139.119 187.679 136.923C186.695 136.426 185.697 135.944 184.661 135.486C183.722 135.072 182.675 134.647 181.688 134.124C181.179 136.437 179.977 137.788 176.665 136.642Z" fill="#B14026"/>
<path opacity="0.3" d="M161.822 146.689C159.139 149.458 155.254 148.665 150.718 147.121C155.228 148.657 163.137 152.401 167.655 149.408C165.628 148.703 163.661 147.758 161.822 146.689Z" fill="#B14026"/>
<path d="M170.704 171.08C172.885 170.552 176.152 171.876 178.27 172.498C181.145 173.336 181.929 175.521 182.652 178.183C184.484 175.855 185.629 172.517 189.058 172.483C191.869 172.456 194.763 173.556 197.488 174.163C202.612 174.675 201.538 181.873 202.925 185.681C204.794 183.69 206.109 178.418 209.312 178.251C211.969 178.115 215.529 179.522 217.775 180.493C225.214 183.713 227.674 192.341 229.151 199.635C228.91 198.459 223.929 199.183 222.983 198.402C222.067 197.647 221.732 193.923 221.359 192.732C220.594 190.282 219.667 187.862 218.363 185.647C217.267 183.777 215.887 182.056 214.169 180.728C212.327 182.101 211.475 184.441 210.25 186.311C207.541 190.456 203.166 188.166 199.221 187.293C196.693 187.274 195.155 181.631 194.944 179.059C194.85 177.963 194.643 173.935 192.996 174.956C191.47 175.904 190.49 177.538 189.597 179.048C187.543 182.514 184.423 181.434 181.254 180.842C179.499 180.512 177.358 180.083 176.352 178.422C175.474 176.977 175.452 175.202 174.864 173.643C172.972 174.774 171.337 176.503 169.129 177.007C166.355 177.641 163.465 176.01 160.741 175.661C164.746 176.166 167.09 171.948 170.704 171.08Z" fill="#7CDE3E"/>
<path d="M172.256 170.985C171.706 170.951 171.175 170.966 170.707 171.08C167.094 171.948 164.75 176.166 160.741 175.657C163.461 176.006 166.351 177.637 169.129 177.004C171.269 176.515 173.047 174.77 174.864 173.64C174.781 173.336 173.164 171.262 172.256 170.985Z" fill="url(#paint4_linear)"/>
<path d="M189.593 179.044C190.486 177.531 191.379 175.881 192.996 175.104C193.482 174.869 193.862 174.99 193.945 174.963C192.152 173.219 189.574 172.771 187.901 172.642C185.576 173.26 184.468 175.638 183.082 177.599C182.162 178.828 181.439 179.655 180.218 180.061C179.879 180.171 179.498 180.269 179.099 180.334C179.815 180.561 180.561 180.709 181.25 180.842C184.419 181.43 187.54 182.511 189.593 179.044Z" fill="url(#paint5_linear)"/>
<path d="M210.25 186.307C211.46 184.46 212.307 182.158 214.109 180.774C213.065 179.799 211.735 178.976 210.563 178.293C210.129 178.252 209.707 178.229 209.312 178.248C206.294 178.403 204.952 183.087 203.245 185.291C202.529 186.512 201.127 187.13 199.703 187.221C199.496 187.233 199.285 187.248 199.074 187.263C199.123 187.267 199.168 187.282 199.221 187.286C203.17 188.162 207.541 190.453 210.25 186.307Z" fill="url(#paint6_linear)"/>
<path d="M136.967 70.7863C136.753 70.3236 136.459 69.8912 136.119 69.493C135.23 69.0113 134.454 68.579 134.213 68.3893C131.221 67.0392 128.553 67.8166 125.938 69.5916C126.677 69.091 129.518 71.9127 130.17 72.2578C131.334 72.8761 133.207 70.919 134.367 70.5587C135.664 70.1643 136.481 70.3198 136.967 70.7863Z" fill="#00A290"/>
<path opacity="0.3" d="M145.683 96.6826C142.695 93.3185 137.133 90.3337 136.361 87.4209C135.294 87.4285 134.19 87.2692 133.139 86.9507C135.803 89.5524 141.263 91.5739 142.397 95.1618C143.565 95.4159 144.681 96.0189 145.683 96.6826Z" fill="#008689"/>
<path opacity="0.3" d="M139.899 113.245C138.256 110.905 138.049 109.422 138.637 108.368C137.435 107.932 136.312 107.242 135.419 106.43C134.876 105.933 134.284 105.379 133.821 104.769C133.738 104.909 133.651 105.046 133.587 105.209C132.687 107.257 134.073 108.986 135.332 110.735C136.858 111.565 138.377 112.4 139.899 113.245Z" fill="#008689"/>
<path opacity="0.3" d="M137.446 121.707C137.148 121.536 136.85 121.369 136.568 121.21C135.211 120.451 133.881 119.738 132.653 118.82C130.72 119.723 129.024 120.709 129.759 123.595C130.878 128.014 134.352 126.569 136.146 129.527C133.7 125.496 133.975 123.425 137.446 121.707Z" fill="#008689"/>
<path d="M180.93 78.2427C182.728 83.799 182.946 92.3628 181.243 97.0316C179.031 104.92 176.552 114.77 168.484 118.669C160.07 122.738 154.486 126.436 153.265 136.24C153.834 131.666 154.241 127.013 156.584 122.947C160.609 115.957 167.734 115.824 173.413 111.231C179.107 106.631 181.07 98.4539 180.731 91.5057C180.497 86.8066 178.779 81.4362 180.93 78.2427ZM180.633 79.1037C180.689 78.9027 180.742 78.7054 180.798 78.5044C180.727 78.6751 180.674 78.8761 180.633 79.1037Z" fill="url(#paint7_linear)"/>
<path d="M159.52 66.1366C162.783 71.1353 168.186 74.0519 166.408 80.9773C164.637 87.8458 158.694 89.5904 164.769 96.44C162.267 93.6144 158.879 94.1189 157.281 89.8445C156.113 86.7156 158.431 83.8331 160.07 81.4058C165.307 73.6536 158.265 69.0228 154.553 63.3262C155.661 65.0329 158.404 64.4261 159.52 66.1366Z" fill="url(#paint8_linear)"/>
<path d="M205.28 150.796C211.151 154.032 216.788 157.623 219.746 163.938C215.967 161.807 215.198 161.344 212.926 157.684C210.865 154.365 207.895 151.627 203.848 151.305C200.05 151.001 196.44 153.03 192.989 154.301C189.292 155.662 188.599 151.456 185.961 152.158C192.559 150.402 198.66 147.148 205.28 150.796ZM215.465 161.518C215.379 161.469 215.292 161.423 215.205 161.374C215.285 161.423 215.375 161.477 215.465 161.518Z" fill="#FF6126"/>
<path d="M114.426 100.107C122.102 106.164 123.233 116.636 120.229 125.458C120.335 125.147 116.02 123.235 115.591 122.966C115.474 122.89 117.091 111.413 116.751 109.669C116.062 106.111 114.317 102.319 111.872 99.6372C110.108 97.7067 104.317 94.2365 101.743 93.8231C106.423 94.5702 110.753 97.2023 114.426 100.107Z" fill="#7CDE3E"/>
<path d="M185.328 57.8724C184.062 58.4754 182.351 57.4969 181.503 55.6916C180.659 53.8901 180.998 51.9407 182.264 51.3376C183.53 50.7346 185.241 51.7131 186.085 53.5146C186.933 55.3199 186.594 57.2694 185.328 57.8724Z" fill="#FF6126"/>
<path d="M188.323 46.3426C187.061 46.9419 185.347 45.9672 184.502 44.1656C183.655 42.3603 183.998 40.4147 185.26 39.8117C186.526 39.2086 188.24 40.1833 189.085 41.9887C189.932 43.7902 189.589 45.7396 188.323 46.3426Z" fill="#7CDE3E"/>
<path d="M239.581 107.769C238.017 110.241 235.474 111.432 233.899 110.424C232.324 109.418 232.32 106.589 233.884 104.116C235.451 101.644 237.991 100.453 239.566 101.461C241.137 102.47 241.141 105.296 239.581 107.769Z" fill="#7CDE3E"/>
<path d="M255.404 121.767C254.002 122.477 252.498 122.317 252.05 121.415C251.598 120.508 252.37 119.204 253.772 118.498C255.174 117.789 256.673 117.952 257.126 118.855C257.578 119.754 256.805 121.058 255.404 121.767Z" fill="#FF6126"/>
<path d="M262.397 133.092C262.397 133.092 274.553 121.68 278.973 126.63C283.39 131.571 274.309 132.364 274.309 132.364C274.309 132.364 284.256 137.154 279.207 141.319C274.158 145.479 268.781 132.523 262.397 133.092Z" fill="url(#paint9_linear)"/>
<path d="M226.984 44.6549L221.155 18.2921L230.033 18.3035C230.033 18.3035 231.008 42.2769 230.221 43.5892C229.437 44.9015 226.984 44.6549 226.984 44.6549Z" fill="url(#paint10_linear)"/>
<path d="M251.195 68.4008C251.195 68.4008 262.424 47.5524 265.374 50.8521C268.321 54.1517 269.138 59.8748 269.138 59.8748L251.195 68.4008Z" fill="url(#paint11_linear)"/>
<path d="M164.46 47.6132C164.46 47.6132 158.442 30.8117 156.264 32.7839C154.09 34.7523 151.776 37.0999 151.776 37.0999L162.045 49.0734L164.46 47.6132Z" fill="url(#paint12_linear)"/>
<path d="M144.805 58.5664C143.117 59.3667 140.822 58.0392 139.677 55.5967C138.531 53.1543 138.972 50.526 140.656 49.7257C142.341 48.9254 144.639 50.2491 145.785 52.6954C146.927 55.134 146.489 57.7662 144.805 58.5664Z" fill="#FFB026"/>
<path d="M246.304 151.544C245.252 152.044 243.79 151.157 243.044 149.568C242.298 147.978 242.547 146.283 243.602 145.779C244.657 145.278 246.115 146.162 246.861 147.755C247.607 149.348 247.359 151.043 246.304 151.544Z" fill="#7CDE3E"/>
<path d="M253.282 92.2074C252.016 92.8066 250.588 92.4349 250.09 91.373C249.593 90.3148 250.215 88.9646 251.477 88.3654C252.743 87.7623 254.171 88.1378 254.669 89.196C255.17 90.2579 254.548 91.6043 253.282 92.2074Z" fill="#FF6126"/>
<path d="M265.936 108.986C264.775 109.536 263.388 109.039 262.846 107.867C262.296 106.703 262.793 105.307 263.954 104.757C265.114 104.207 266.497 104.7 267.043 105.872C267.594 107.04 267.096 108.432 265.936 108.986Z" fill="#FFB026"/>
<path d="M241.108 172.441C239.864 173.841 237.445 173.7 235.712 172.134C233.974 170.568 233.579 168.163 234.822 166.764C236.07 165.364 238.485 165.505 240.218 167.071C241.959 168.641 242.355 171.042 241.108 172.441Z" fill="url(#paint13_linear)"/>
<path d="M251.424 184.358C250.58 184.756 249.533 184.305 249.084 183.353C248.636 182.397 248.956 181.297 249.804 180.895C250.644 180.493 251.692 180.944 252.14 181.9C252.589 182.856 252.265 183.956 251.424 184.358Z" fill="#FFB226"/>
<path d="M139.368 146.223C137.736 146.996 135.784 146.295 135.015 144.652C134.243 143.006 134.944 141.042 136.575 140.268C138.207 139.49 140.159 140.196 140.931 141.842C141.7 143.484 141.003 145.445 139.368 146.223Z" fill="#FF6126"/>
<path d="M157.93 165.004C155.303 165.542 153.039 165.307 152.873 164.48C152.703 163.654 154.7 162.55 157.327 162.008C159.953 161.469 162.222 161.704 162.387 162.527C162.557 163.362 160.564 164.465 157.93 165.004Z" fill="#FF6126"/>
<path d="M205.438 32.5715C204.745 31.0923 202.461 32.177 203.155 33.6562C203.852 35.1391 206.135 34.0544 205.438 32.5715Z" fill="#7CDE3E"/>
<path d="M185.26 22.426C184.57 20.9582 182.313 22.0315 183.003 23.4993C183.688 24.9633 185.945 23.8899 185.26 22.426Z" fill="#7CDE3E"/>
<path d="M277.259 79.8736C276.562 78.3945 274.282 79.4792 274.975 80.9583C275.669 82.4413 277.948 81.3566 277.259 79.8736Z" fill="#FF6126"/>
<path d="M87.1188 81.7433C86.384 80.1732 83.9686 81.3223 84.7034 82.8925C85.4382 84.4589 87.8536 83.3097 87.1188 81.7433Z" fill="#FFB026"/>
<path d="M88.6938 104.602C88.5958 104.15 88.3471 103.767 87.846 103.581C87.1489 103.327 86.3576 103.707 86.1051 104.408C85.8564 105.114 86.2332 105.906 86.9266 106.161C87.4277 106.343 87.8573 106.206 88.2228 105.914C88.9011 105.933 89.2289 105.027 88.6938 104.602Z" fill="#FFB026"/>
<path d="M171.973 214.824C171.227 213.228 168.763 214.396 169.513 215.992C170.263 217.589 172.723 216.421 171.973 214.824Z" fill="#FF6126"/>
<path d="M191.884 206.772C190.848 204.565 187.445 206.181 188.482 208.388C189.518 210.595 192.917 208.98 191.884 206.772Z" fill="#FF6126"/>
<path d="M193.026 192.133C192.185 190.347 189.439 191.655 190.275 193.441C191.112 195.228 193.862 193.919 193.026 192.133Z" fill="#FF6126"/>
<path d="M145.502 155.283C145.634 155.021 145.683 154.756 145.634 154.445C145.502 153.618 144.579 153.152 143.836 153.504C143.098 153.853 142.864 154.87 143.414 155.496C143.622 155.731 143.859 155.863 144.142 155.928C144.707 156.129 145.295 155.848 145.502 155.283Z" fill="#FF6126"/>
<path d="M145.397 135.838C144.854 134.674 143.061 135.523 143.607 136.688C144.153 137.852 145.943 137.003 145.397 135.838Z" fill="#FF6126"/>
<path d="M201.576 86.9432C201.044 85.813 199.3 86.6398 199.831 87.7738C200.358 88.904 202.107 88.0734 201.576 86.9432Z" fill="#FF6126"/>
<path d="M197.431 95.6057C196.975 94.6348 195.475 95.3478 195.931 96.3187C196.391 97.2934 197.89 96.5804 197.431 95.6057Z" fill="#FF6126"/>
<path d="M255.735 165.531C254.955 163.877 252.408 165.087 253.184 166.741C253.957 168.398 256.512 167.188 255.735 165.531Z" fill="#7CDE3E"/>
<path d="M260.781 170.886C260.31 169.885 258.769 170.617 259.24 171.618C259.707 172.623 261.248 171.887 260.781 170.886Z" fill="#FFB226"/>
<path d="M239.11 52.5436C238.865 52.0202 238.228 51.7927 237.712 52.0392C237.196 52.2857 236.966 52.9267 237.211 53.4463C237.456 53.9659 238.093 54.1972 238.609 53.9545C239.125 53.7042 239.355 53.0632 239.11 52.5436Z" fill="#7CDE3E"/>
<path d="M243.07 43.6119C242.445 42.2769 240.387 43.2554 241.013 44.5904C241.638 45.9254 243.696 44.9469 243.07 43.6119Z" fill="#7CDE3E"/>
<path d="M26.0435 227.623C26.1323 228.029 26.3543 228.439 26.7065 228.847C27.3015 229.531 28.1066 229.914 29.0952 229.988C32.8158 230.26 38.3124 225.961 41.2664 223.652L41.4173 223.532C45.8424 220.075 51.8955 215.567 51.9547 215.521L54 214L51.5433 215.09C51.4693 215.125 43.9658 218.443 37.3918 220.723L36.122 221.156C31.3595 222.772 25.4337 224.788 26.0435 227.623ZM49.5453 216.572C47.3846 218.192 43.806 220.893 40.9201 223.15L40.7691 223.269C38.1022 225.355 32.5553 229.695 29.1603 229.448C28.3759 229.391 27.7602 229.093 27.2807 228.54C26.9847 228.199 26.7983 227.863 26.7272 227.535C26.2092 225.116 31.8568 223.196 36.3943 221.652C36.8324 221.504 37.2586 221.359 37.6671 221.216C42.0271 219.706 46.7867 217.743 49.5453 216.572Z" fill="#770000"/>
<path d="M108.61 111.864L49.0645 217.492L166.788 192.392L108.61 111.864Z" fill="url(#paint14_linear)"/>
<path d="M100.936 188.282C104.707 188.955 107.73 189.087 108.569 188.241C109.525 187.29 108.378 184.136 106.332 180.528C108.952 176.321 110.641 172.687 109.892 171.619C109.158 170.567 105.245 171.007 100.503 172.141C97.5916 168.674 94.7001 166.219 93.2669 166.902C92.0248 167.489 91.1045 170.84 90.5363 175.107C84.8538 177.111 80.1871 179.333 80.3933 180.462C80.6297 181.768 84.7935 183.711 89.8574 185.397C89.8071 191.572 90.4257 196.962 91.7734 197.241C93.106 197.524 97.0536 193.353 100.936 188.282Z" fill="#FFB226"/>
<path d="M109.5 137.464C110.224 136.341 108.58 133.886 106.015 131.279C107.71 126.795 108.64 123.09 107.745 122.361C107.056 121.799 104.707 122.619 101.69 124.138L91.7534 141.762C92.7994 146.611 94.1924 150.447 95.3892 150.316C96.6917 150.174 99.6335 145.335 102.364 139.717C106.01 139.221 108.856 138.457 109.5 137.464Z" fill="#FFB226"/>
<path d="M156.78 194.234C156.484 193.131 152.697 192.25 147.88 191.678C146.466 187.892 144.701 184.956 143.112 185.058C141.744 185.149 139.653 187.614 137.535 190.944C131.521 190.792 126.372 191.137 126.14 192.134C125.879 193.283 129.012 196.208 133.08 199.205C133.015 199.341 132.954 199.478 132.894 199.61L156.775 194.523C156.796 194.422 156.801 194.32 156.78 194.234Z" fill="#FFB226"/>
<path d="M120.151 169.575C118.461 170.379 116.45 169.651 115.645 167.95C114.851 166.254 115.575 164.225 117.264 163.425C118.949 162.625 120.966 163.354 121.765 165.05C122.56 166.745 121.836 168.77 120.151 169.575Z" fill="#FFB226"/>
<path d="M71.744 203.861C70.0544 204.666 68.0378 203.937 67.2433 202.236C66.4437 200.536 67.1679 198.511 68.8575 197.706C70.5421 196.907 72.5587 197.625 73.3532 199.331C74.1528 201.032 73.4337 203.056 71.744 203.861Z" fill="#FFB226"/>
<path d="M82.3394 161.198C82.1181 160.732 81.8114 160.353 81.4443 160.044L78.1655 165.86C78.9752 166.143 79.8904 166.128 80.7252 165.728C82.4148 164.923 83.139 162.893 82.3394 161.198Z" fill="#FFB226"/>
<path d="M112.427 203.426C110.742 204.231 108.725 203.502 107.926 201.801C107.131 200.101 107.85 198.076 109.545 197.271C111.235 196.466 113.246 197.195 114.041 198.896C114.835 200.597 114.116 202.621 112.427 203.426Z" fill="#FFB226"/>
<path opacity="0.4" d="M71.4722 186.227L108.323 120.924C114.186 117.836 129.821 132.17 143.972 153.484C115.549 150.802 90.2596 165.439 71.4722 186.227Z" fill="#E26340"/>
<path opacity="0.2" d="M159.149 188.439L68.1938 209.738L153.456 167.849C161.412 180.872 161.704 185.721 159.149 188.439Z" fill="#FFFFB1"/>
<path d="M167.472 191.891C163.413 194.857 147.105 179.242 131.038 157.002C114.976 134.762 105.236 114.339 109.289 111.362C113.347 108.391 129.655 124.016 145.722 146.256C161.789 168.486 171.525 188.92 167.472 191.891Z" fill="url(#paint15_linear)"/>
<path d="M157.253 187.067C150.157 167.793 129.469 136.002 111.069 123.51C114.715 132.12 121.835 144.257 131.038 156.997C140.557 170.172 150.162 181.029 157.253 187.067Z" fill="#770000"/>
<path d="M140.04 150.042C138.969 147.754 135.449 149.425 136.515 151.717C137.591 154 141.116 152.33 140.04 150.042Z" fill="#FFB026"/>
<path d="M155.363 170.511C154.699 169.094 152.522 170.131 153.185 171.544C153.844 172.961 156.027 171.923 155.363 170.511Z" fill="#FFB026"/>
<path d="M124.386 125.833C124.431 125.793 124.486 125.772 124.532 125.742C124.863 125.464 125.08 125.297 124.386 125.833Z" fill="#FF6126"/>
<path d="M128.323 127.255C128.177 126.4 127.574 125.681 126.764 125.393C125.975 125.104 125.195 125.287 124.531 125.742C124.295 125.939 123.998 126.198 123.943 126.304C123.742 126.658 123.526 127.048 123.541 127.473C123.551 127.807 123.591 128.111 123.682 128.394C123.692 128.43 123.717 128.47 123.727 128.506C123.757 128.576 123.777 128.647 123.817 128.718C124.069 129.265 124.506 129.72 125.145 129.948C126.845 130.566 128.64 129.052 128.323 127.255Z" fill="#FFB026"/>
<path d="M116.597 64.0506C119.329 63.1555 122.192 62.3818 122.452 61.5208C122.75 60.5575 120.06 58.6612 117.437 57.0076C117.686 53.2945 118.119 48.9519 117.252 48.5158C116.397 48.0834 113.375 51.1062 110.639 53.5411C107.497 52.2857 104.049 51.4513 103.34 52.4109C102.73 53.2414 103.974 56.0253 105.096 59.048C102.048 62.3932 100.285 65.3325 100.816 66.0038C101.43 66.7775 104.32 66.7775 108.262 66.091C110.398 70.1833 112.844 72.4437 113.831 72.1479C114.814 71.8559 115.817 68.7838 116.597 64.0506Z" fill="url(#paint16_linear)"/>
<path d="M134.217 68.3932C134.726 68.7915 137.582 70.2517 138.897 71.0026C146.444 74.7118 140.728 80.2491 136.892 85.1151C133.053 89.9849 148.313 94.8357 147.545 101.12C146.735 107.765 133.101 104.617 140.555 114.129C142.691 116.856 142.492 119.681 138.889 121.077C134.074 122.939 133.399 124.995 136.142 129.523C134.349 126.561 130.875 128.01 129.755 123.592C128.474 118.532 134.654 119.31 136.47 116.158C138.859 112.009 131.824 109.24 133.588 105.209C135.336 101.204 141.938 102.231 142.586 97.1113C143.596 89.1581 124.521 88.2175 134.646 79.4147C136.843 77.507 140.095 68.7953 134.375 70.5627C133.218 70.923 131.346 72.8762 130.177 72.2618C129.526 71.9166 126.681 69.0949 125.946 69.5955C128.553 67.8206 131.225 67.0431 134.217 68.3932Z" fill="url(#paint17_linear)"/>
<path d="M161.881 129.5C162.948 128.172 165.514 127.456 167.066 126.841C169.173 126.011 170.642 126.959 172.293 128.222C172.323 125.976 171.486 123.447 173.528 121.835C175.202 120.515 177.44 119.836 179.35 118.937C182.659 116.87 185.308 121.683 187.878 123.322C188.089 121.262 186.465 117.492 188.307 115.907C189.837 114.595 192.618 113.787 194.408 113.328C200.343 111.811 205.761 115.846 209.985 119.533C209.303 118.937 206.65 121.683 205.723 121.653C204.83 121.622 202.924 119.548 202.159 119.005C200.58 117.894 198.918 116.87 197.121 116.146C195.606 115.531 193.993 115.137 192.354 115.141C191.879 116.817 192.437 118.615 192.558 120.306C192.829 124.046 189.159 124.702 186.393 126.007C184.871 127.167 181.366 124.493 180.062 123.052C179.505 122.438 177.538 120.121 177.018 121.497C176.535 122.772 176.698 124.205 176.852 125.529C177.206 128.559 174.844 129.356 172.669 130.471C171.464 131.085 169.986 131.821 168.622 131.294C167.435 130.835 166.61 129.78 165.544 129.117C164.926 130.672 164.737 132.466 163.645 133.789C162.273 135.454 159.79 135.815 158 136.869C160.634 135.31 160.11 131.696 161.881 129.5Z" fill="#7CDE3E"/>
</g>
<defs>
<filter id="filter0_d" x="0" y="0" width="349" height="339" filterUnits="userSpaceOnUse" color-interpolation-filters="sRGB">
<feFlood flood-opacity="0" result="BackgroundImageFix"/>
<feColorMatrix in="SourceAlpha" type="matrix" values="0 0 0 0 0 0 0 0 0 0 0 0 0 0 0 0 0 0 127 0"/>
<feOffset dy="4"/>
<feGaussianBlur stdDeviation="2"/>
<feColorMatrix type="matrix" values="0 0 0 0 0 0 0 0 0 0 0 0 0 0 0 0 0 0 0.25 0"/>
<feBlend mode="normal" in2="BackgroundImageFix" result="effect1_dropShadow"/>
<feBlend mode="normal" in="SourceGraphic" in2="effect1_dropShadow" result="shape"/>
</filter>
<linearGradient id="paint0_linear" x1="174.5" y1="174" x2="174.5" y2="331" gradientUnits="userSpaceOnUse">
<stop offset="0.203125" stop-color="#D4D700"/>
<stop offset="1" stop-color="#80B918"/>
</linearGradient>
<linearGradient id="paint1_linear" x1="227.353" y1="124.883" x2="230.191" y2="141.779" gradientUnits="userSpaceOnUse">
<stop stop-color="#FFDB00"/>
<stop offset="0.0598" stop-color="#FFE416"/>
<stop offset="0.1598" stop-color="#FFEF35"/>
<stop offset="0.257" stop-color="#FFF84C"/>
<stop offset="0.3495" stop-color="#FFFD59"/>
<stop offset="0.432" stop-color="#FFFF5E"/>
<stop offset="0.5107" stop-color="#FEF248"/>
<stop offset="0.6421" stop-color="#FDE029"/>
<stop offset="0.7699" stop-color="#FCD312"/>
<stop offset="0.8915" stop-color="#FBCC05"/>
<stop offset="1" stop-color="#FBC900"/>
</linearGradient>
<linearGradient id="paint2_linear" x1="202.795" y1="50.8635" x2="206.181" y2="71.0255" gradientUnits="userSpaceOnUse">
<stop offset="0.00485437" stop-color="#FF5690"/>
<stop offset="0.2296" stop-color="#FB4E80"/>
<stop offset="0.7226" stop-color="#F33E61"/>
<stop offset="1" stop-color="#F03856"/>
</linearGradient>
<linearGradient id="paint3_linear" x1="183.606" y1="78.6567" x2="194.807" y2="145.347" gradientUnits="userSpaceOnUse">
<stop stop-color="#FFB226"/>
<stop offset="0.2527" stop-color="#FF8B26"/>
<stop offset="0.492" stop-color="#FF6C26"/>
<stop offset="0.6262" stop-color="#FF6126"/>
<stop offset="1" stop-color="#FFB226"/>
</linearGradient>
<linearGradient id="paint4_linear" x1="167.295" y1="171.58" x2="168.222" y2="177.1" gradientUnits="userSpaceOnUse">
<stop stop-color="#3DC540"/>
<stop offset="0.5573" stop-color="#44B139"/>
<stop offset="1" stop-color="#47A736"/>
</linearGradient>
<linearGradient id="paint5_linear" x1="185.743" y1="172.937" x2="187.132" y2="181.212" gradientUnits="userSpaceOnUse">
<stop stop-color="#3DC540"/>
<stop offset="0.5573" stop-color="#44B139"/>
<stop offset="1" stop-color="#47A736"/>
</linearGradient>
<linearGradient id="paint6_linear" x1="205.724" y1="178.771" x2="207.356" y2="188.487" gradientUnits="userSpaceOnUse">
<stop stop-color="#3DC540"/>
<stop offset="0.5573" stop-color="#44B139"/>
<stop offset="1" stop-color="#47A736"/>
</linearGradient>
<linearGradient id="paint7_linear" x1="158.119" y1="94.5167" x2="176.205" y2="119.846" gradientUnits="userSpaceOnUse">
<stop stop-color="#00C4B8"/>
<stop offset="0.3544" stop-color="#00FDD4"/>
<stop offset="0.5253" stop-color="#00EACB"/>
<stop offset="0.8255" stop-color="#00CEBD"/>
<stop offset="1" stop-color="#00C4B8"/>
</linearGradient>
<linearGradient id="paint8_linear" x1="158.474" y1="62.6104" x2="164.164" y2="96.4837" gradientUnits="userSpaceOnUse">
<stop stop-color="#FFDB00"/>
<stop offset="0.0598" stop-color="#FFE416"/>
<stop offset="0.1598" stop-color="#FFEF35"/>
<stop offset="0.257" stop-color="#FFF84C"/>
<stop offset="0.3495" stop-color="#FFFD59"/>
<stop offset="0.432" stop-color="#FFFF5E"/>
<stop offset="0.5107" stop-color="#FEF248"/>
<stop offset="0.6421" stop-color="#FDE029"/>
<stop offset="0.7699" stop-color="#FCD312"/>
<stop offset="0.8915" stop-color="#FBCC05"/>
<stop offset="1" stop-color="#FBC900"/>
</linearGradient>
<linearGradient id="paint9_linear" x1="270.487" y1="126.158" x2="273.276" y2="142.763" gradientUnits="userSpaceOnUse">
<stop offset="0.00485437" stop-color="#FF5690"/>
<stop offset="0.2296" stop-color="#FB4E80"/>
<stop offset="0.7226" stop-color="#F33E61"/>
<stop offset="1" stop-color="#F03856"/>
</linearGradient>
<linearGradient id="paint10_linear" x1="225.468" y1="17.5102" x2="229.964" y2="44.28" gradientUnits="userSpaceOnUse">
<stop stop-color="#00C4B8"/>
<stop offset="0.3544" stop-color="#00FDD4"/>
<stop offset="0.5253" stop-color="#00EACB"/>
<stop offset="0.8255" stop-color="#00CEBD"/>
<stop offset="1" stop-color="#00C4B8"/>
</linearGradient>
<linearGradient id="paint11_linear" x1="258.077" y1="51.5177" x2="260.636" y2="66.7555" gradientUnits="userSpaceOnUse">
<stop stop-color="#FFB226"/>
<stop offset="0.2527" stop-color="#FF8B26"/>
<stop offset="0.492" stop-color="#FF6C26"/>
<stop offset="0.6262" stop-color="#FF6126"/>
<stop offset="1" stop-color="#FFB226"/>
</linearGradient>
<linearGradient id="paint12_linear" x1="156.504" y1="32.5845" x2="159.34" y2="49.4682" gradientUnits="userSpaceOnUse">
<stop stop-color="#3DC540"/>
<stop offset="0.5573" stop-color="#44B139"/>
<stop offset="1" stop-color="#47A736"/>
</linearGradient>
<linearGradient id="paint13_linear" x1="237.314" y1="165.655" x2="238.619" y2="173.427" gradientUnits="userSpaceOnUse">
<stop stop-color="#00C4B8"/>
<stop offset="0.3544" stop-color="#00FDD4"/>
<stop offset="0.5253" stop-color="#00EACB"/>
<stop offset="0.8255" stop-color="#00CEBD"/>
<stop offset="1" stop-color="#00C4B8"/>
</linearGradient>
<linearGradient id="paint14_linear" x1="64.2252" y1="144.389" x2="122.905" y2="224.554" gradientUnits="userSpaceOnUse">
<stop stop-color="#EC181B"/>
<stop offset="0.4963" stop-color="#EF311C"/>
<stop offset="1" stop-color="#F2461D"/>
</linearGradient>
<linearGradient id="paint15_linear" x1="109.339" y1="111.365" x2="168.018" y2="191.528" gradientUnits="userSpaceOnUse">
<stop stop-color="#AB1C1D"/>
<stop offset="0.7797" stop-color="#9B0714"/>
<stop offset="1" stop-color="#960011"/>
</linearGradient>
<linearGradient id="paint16_linear" x1="109.32" y1="49.7067" x2="113.101" y2="72.2177" gradientUnits="userSpaceOnUse">
<stop stop-color="#FFDB00"/>
<stop offset="0.0598" stop-color="#FFE416"/>
<stop offset="0.1598" stop-color="#FFEF35"/>
<stop offset="0.257" stop-color="#FFF84C"/>
<stop offset="0.3495" stop-color="#FFFD59"/>
<stop offset="0.432" stop-color="#FFFF5E"/>
<stop offset="0.5107" stop-color="#FEF248"/>
<stop offset="0.6421" stop-color="#FDE029"/>
<stop offset="0.7699" stop-color="#FCD312"/>
<stop offset="0.8915" stop-color="#FBCC05"/>
<stop offset="1" stop-color="#FBC900"/>
</linearGradient>
<linearGradient id="paint17_linear" x1="131.293" y1="67.5334" x2="141.542" y2="128.553" gradientUnits="userSpaceOnUse">
<stop stop-color="#00C4B8"/>
<stop offset="0.3544" stop-color="#00FDD4"/>
<stop offset="0.5253" stop-color="#00EACB"/>
<stop offset="0.8255" stop-color="#00CEBD"/>
<stop offset="1" stop-color="#00C4B8"/>
</linearGradient>
</defs>
</svg>
