<svg width="341" height="330" viewBox="0 0 341 330" fill="none" xmlns="http://www.w3.org/2000/svg">
<rect y="178" width="341" height="152" rx="19" fill="url(#paint0_linear)"/>
<path d="M305.923 150.709C303.57 144.669 301.813 138.257 299.896 131.486C298.601 126.921 296.517 121.817 292.003 120.381C287.604 118.983 282.872 121.881 280.173 125.619C277.473 129.358 276.107 133.884 273.793 137.879C269.599 145.112 262.181 148.145 256.044 141.784C247.279 132.698 243.336 120.317 237.777 109.237C233.744 101.196 230.365 91.7771 225.28 84.3649C217.528 73.0606 206.897 63.4234 192.765 63.4234C183.807 64.7827 175.914 72.7143 170.567 82.6336C165.225 92.5529 162.109 104.345 159.455 116.11C154.626 137.507 151.087 157.769 147.554 179.634C147.554 179.634 325.877 179.185 325.883 179.185C325.172 179.191 320.799 173.35 319.965 172.542C313.117 165.912 309.007 158.628 305.923 150.709Z" fill="url(#paint1_linear)"/>
<path d="M272.074 160.905C271.721 167.836 264.181 179.954 257.25 179.608C250.318 179.262 246.619 166.573 246.971 159.641C247.324 152.71 254.704 118.021 261.635 118.368C268.567 118.714 272.427 153.973 272.074 160.905Z" fill="#EFAF3F"/>
<path d="M261.302 122.876L257.807 179.051" stroke="#2A294F" stroke-width="0.7798" stroke-miterlimit="10" stroke-linecap="round" stroke-linejoin="round"/>
<path d="M256.211 159.462C254.634 162.931 253.428 166.567 252.704 170.363C252.338 172.286 252.101 174.37 252.973 176.12C253.922 178.038 256.031 179.153 258.141 179.5C263.296 180.346 268.445 177.191 271.465 172.927C274.485 168.67 275.793 163.463 276.992 158.379C277.935 154.378 278.864 150.319 280.647 146.587C281.41 144.99 285.885 138.816 283.769 137.219C280.878 134.943 272.497 137.418 267.13 143.278C262.713 148.1 258.91 153.531 256.211 159.462Z" fill="#FFC957"/>
<path d="M258.141 179.493C258.141 179.493 264.36 155.275 279.384 141.387" stroke="#2A294F" stroke-width="0.7798" stroke-miterlimit="10" stroke-linecap="round" stroke-linejoin="round"/>
<path d="M292.65 153.749C292.118 154.705 291.118 155.352 290.214 155.865C289.098 156.493 287.905 157.045 286.758 157.584C285.283 158.27 283.757 158.981 282.346 159.866C281.32 160.514 280.403 161.238 279.64 162.021C280.852 159.27 282.263 156.872 283.93 154.724C286.123 151.903 288.373 150.473 290.624 150.473C290.675 150.473 290.727 150.473 290.778 150.473C291.477 150.492 292.015 150.665 292.387 150.986C293.15 151.64 293.118 152.903 292.65 153.749Z" fill="#FFC957"/>
<path d="M295.157 169.407C294.266 170.042 293.086 170.202 292.047 170.279C290.771 170.369 289.457 170.363 288.187 170.35C286.559 170.337 284.872 170.324 283.224 170.523C282.019 170.664 280.884 170.933 279.858 171.312C282.128 169.343 284.436 167.779 286.86 166.554C290.053 164.938 292.695 164.611 294.728 165.573C294.772 165.592 294.824 165.618 294.869 165.643C295.491 165.958 295.907 166.349 296.106 166.797C296.516 167.721 295.946 168.849 295.157 169.407Z" fill="#FFC957"/>
<path d="M289.233 177.114C288.495 177.012 287.828 176.537 287.277 176.089C286.597 175.537 285.95 174.915 285.321 174.319C284.513 173.549 283.686 172.754 282.769 172.081C282.102 171.587 281.41 171.19 280.724 170.895C282.776 170.978 284.654 171.28 286.437 171.812C288.777 172.504 290.252 173.581 290.81 175.011C290.823 175.043 290.836 175.075 290.848 175.114C291.009 175.563 291.034 175.947 290.925 176.268C290.694 176.909 289.88 177.204 289.233 177.114Z" fill="#FFC957"/>
<path d="M272.363 179.628C272.363 179.628 272.433 164.81 290.528 152.23" stroke="#2A294F" stroke-width="0.7798" stroke-miterlimit="10" stroke-linecap="round" stroke-linejoin="round"/>
<path d="M272.363 179.628C272.363 179.628 277.922 167.721 292.984 167.721" stroke="#2A294F" stroke-width="0.7798" stroke-miterlimit="10" stroke-linecap="round" stroke-linejoin="round"/>
<path d="M280.564 171.036C280.564 171.036 283.481 170.824 289.572 175.415" stroke="#2A294F" stroke-width="0.7798" stroke-miterlimit="10" stroke-linecap="round" stroke-linejoin="round"/>
<path d="M179 179.987C172.244 164.188 165.447 148.383 157.499 133.083C153.013 124.453 148.07 115.862 141.2 108.962C134.331 102.061 125.233 96.9681 116.094 97.0002C102.023 98.6851 92.9357 107.277 86.9777 116.797C83.0713 123.037 81.1751 130.597 78.4189 137.196C74.6162 146.281 72.6164 156.167 65.3113 164.111C60.1927 169.679 52.3281 168.256 47.0229 163.259C44.1009 160.498 42.0286 157.217 38.7543 154.7C35.48 152.182 30.3095 150.542 26.1545 152.131C21.8751 153.764 20.6006 157.89 20.0203 161.516C19.1707 166.892 18.4143 171.972 17.0154 176.848C16.715 177.911 16.373 178.956 16 180H179V179.987Z" fill="url(#paint2_linear)"/>
<path d="M79.4656 157.936C76.8496 154.922 73.541 152.319 72.5023 148.517C71.7392 145.74 72.342 142.797 72.6369 139.931C72.9319 137.065 72.8293 133.897 70.9762 131.692C69.4502 129.871 67.0329 129.082 64.7117 128.582C62.3906 128.082 59.9669 127.768 57.9086 126.588C54.5616 124.671 55.2284 121.407 53.4331 118.547C51.4197 115.335 46.7262 111.237 42.7123 113.373C38.4548 115.63 39.128 122.49 41.9621 125.517C43.8408 127.524 46.2453 129.454 46.521 132.185C46.9378 136.302 42.2186 140.014 43.5138 143.945C44.4756 146.849 48.1304 147.843 49.9386 150.312C51.7275 152.755 51.3684 156.172 50.3105 159.007C49.2589 161.841 47.5982 164.463 46.9442 167.419C45.6041 173.459 50.3425 177.64 55.7478 178.986C60.7107 180.224 71.4186 179.64 71.4186 179.64C75.2402 178.307 79.4785 174.947 81.5752 171.279C83.1653 168.509 83.3834 164.995 82.1523 162.046C81.5239 160.52 80.5557 159.193 79.4656 157.936Z" fill="#FFC957"/>
<path d="M47.4635 119.881C47.4635 119.881 65.744 148.119 67.7317 179.474" stroke="#2A294F" stroke-width="0.7798" stroke-miterlimit="10" stroke-linecap="round" stroke-linejoin="round"/>
<path d="M31.1835 157.968C31.4656 157.724 31.876 157.596 32.4018 157.583C32.4402 157.583 32.4787 157.583 32.5172 157.583C34.2164 157.583 35.9219 158.667 37.5762 160.802C38.8394 162.424 39.9038 164.239 40.8207 166.316C40.2436 165.726 39.5511 165.175 38.7753 164.688C37.7109 164.021 36.5567 163.482 35.441 162.963C34.569 162.559 33.6713 162.142 32.825 161.661C32.1389 161.277 31.3823 160.783 30.9847 160.065C30.6257 159.424 30.6064 158.468 31.1835 157.968Z" fill="#FFC957"/>
<path d="M28.3687 169.926C28.5225 169.586 28.8367 169.292 29.3048 169.054C29.3369 169.035 29.3753 169.016 29.4074 169.003C30.9463 168.272 32.9468 168.522 35.3577 169.747C37.1915 170.677 38.9356 171.856 40.6476 173.344C39.8717 173.055 39.0125 172.857 38.102 172.748C36.8517 172.6 35.5757 172.607 34.3446 172.613C33.3828 172.619 32.3954 172.626 31.4272 172.555C30.6449 172.498 29.7472 172.376 29.0804 171.901C28.4905 171.478 28.0609 170.625 28.3687 169.926Z" fill="#FFC957"/>
<path d="M32.2864 177.082C32.203 176.845 32.2222 176.55 32.3441 176.21C32.3505 176.184 32.3633 176.159 32.3697 176.133C32.7929 175.049 33.9022 174.235 35.6783 173.709C37.0248 173.312 38.4483 173.081 39.9999 173.017C39.4806 173.241 38.9548 173.543 38.4547 173.914C37.7622 174.427 37.1338 175.03 36.5247 175.607C36.0502 176.062 35.5629 176.531 35.0499 176.947C34.6331 177.287 34.133 177.646 33.5752 177.723C33.075 177.794 32.4595 177.569 32.2864 177.082Z" fill="#FFC957"/>
<path d="M46.3222 179.628C46.3222 179.628 46.2709 168.419 32.5878 158.91" stroke="#2A294F" stroke-width="0.7798" stroke-miterlimit="10" stroke-linecap="round" stroke-linejoin="round"/>
<path d="M46.3221 179.628C46.3221 179.628 42.1223 170.625 30.7282 170.625" stroke="#2A294F" stroke-width="0.7798" stroke-miterlimit="10" stroke-linecap="round" stroke-linejoin="round"/>
<path d="M40.1218 173.132C40.1218 173.132 37.916 172.972 33.3123 176.447" stroke="#2A294F" stroke-width="0.7798" stroke-miterlimit="10" stroke-linecap="round" stroke-linejoin="round"/>
<path d="M166.991 174.722C209.633 174.722 244.201 140.154 244.201 97.5123C244.201 54.8705 209.633 20.3024 166.991 20.3024C124.35 20.3024 89.7815 54.8705 89.7815 97.5123C89.7815 140.154 124.35 174.722 166.991 174.722Z" fill="#BB0909"/>
<path d="M166.991 165.24C204.396 165.24 234.719 134.917 234.719 97.512C234.719 60.1069 204.396 29.784 166.991 29.784C129.586 29.784 99.2632 60.1069 99.2632 97.512C99.2632 134.917 129.586 165.24 166.991 165.24Z" fill="#ED0D0D"/>
<path d="M137.946 132.31C137.576 132.31 137.21 132.237 136.869 132.096C136.528 131.954 136.218 131.747 135.956 131.485C135.695 131.224 135.488 130.914 135.347 130.572C135.206 130.231 135.134 129.865 135.135 129.495C135.135 128.75 135.431 128.035 135.958 127.507C136.485 126.98 137.2 126.684 137.946 126.684C138.691 126.684 139.406 126.98 139.933 127.507C140.461 128.035 140.757 128.75 140.757 129.495C140.757 129.865 140.685 130.231 140.544 130.572C140.403 130.914 140.196 131.224 139.935 131.485C139.674 131.747 139.364 131.954 139.022 132.096C138.681 132.237 138.315 132.31 137.946 132.31Z" fill="#00AF00"/>
<rect x="193.777" y="55.0981" width="22.0238" height="97.8836" rx="11.0119" transform="rotate(45 193.777 55.0981)" fill="white"/>
<rect x="209.35" y="126.042" width="22.0238" height="97.8836" rx="11.0119" transform="rotate(135 209.35 126.042)" fill="white"/>
<defs>
<linearGradient id="paint0_linear" x1="170.5" y1="178" x2="170.5" y2="330" gradientUnits="userSpaceOnUse">
<stop stop-color="#ED0D0D"/>
<stop offset="1" stop-color="#920A0A"/>
</linearGradient>
<linearGradient id="paint1_linear" x1="236.719" y1="63.4234" x2="236.719" y2="179.634" gradientUnits="userSpaceOnUse">
<stop stop-color="#E70D0D"/>
<stop offset="1" stop-color="#E00606"/>
</linearGradient>
<linearGradient id="paint2_linear" x1="97.5" y1="97" x2="97.5" y2="180" gradientUnits="userSpaceOnUse">
<stop stop-color="#E70D0D"/>
<stop offset="1" stop-color="#E00606"/>
</linearGradient>
</defs>
</svg>
