<svg width="341" height="420" viewBox="0 0 341 420" fill="none" xmlns="http://www.w3.org/2000/svg">
<rect y="250" width="341" height="170" rx="19" fill="#FF006E"/>
<path d="M305.923 222.709C303.57 216.669 301.813 210.257 299.896 203.486C298.601 198.921 296.517 193.817 292.003 192.381C287.604 190.983 282.872 193.881 280.173 197.619C277.473 201.358 276.108 205.884 273.793 209.879C269.599 217.112 262.181 220.145 256.045 213.784C247.279 204.698 243.336 192.317 237.777 181.237C233.744 173.196 230.365 163.777 225.28 156.365C217.528 145.061 206.897 135.423 192.765 135.423C183.807 136.783 175.914 144.714 170.567 154.634C165.226 164.553 162.109 176.344 159.455 188.11C154.627 209.507 151.087 229.769 147.554 251.634C147.554 251.634 325.877 251.185 325.884 251.185C325.172 251.191 320.799 245.35 319.965 244.542C313.117 237.912 309.007 230.628 305.923 222.709Z" fill="#FF006E"/>
<path d="M272.074 232.904C271.721 239.836 264.181 251.954 257.25 251.608C250.318 251.262 246.619 238.573 246.971 231.641C247.324 224.71 254.704 190.021 261.635 190.368C268.567 190.714 272.427 225.973 272.074 232.904Z" fill="#EFAF3F"/>
<path d="M261.302 194.875L257.808 251.051" stroke="#2A294F" stroke-width="0.7798" stroke-miterlimit="10" stroke-linecap="round" stroke-linejoin="round"/>
<path d="M256.211 231.462C254.634 234.931 253.428 238.567 252.704 242.362C252.338 244.286 252.101 246.37 252.973 248.12C253.922 250.038 256.031 251.153 258.141 251.499C263.296 252.346 268.445 249.191 271.465 244.927C274.485 240.67 275.793 235.463 276.992 230.379C277.935 226.377 278.864 222.319 280.647 218.587C281.41 216.99 285.885 210.816 283.769 209.219C280.878 206.943 272.497 209.418 267.13 215.278C262.713 220.1 258.91 225.531 256.211 231.462Z" fill="#FFC957"/>
<path d="M258.141 251.493C258.141 251.493 264.361 227.275 279.384 213.387" stroke="#2A294F" stroke-width="0.7798" stroke-miterlimit="10" stroke-linecap="round" stroke-linejoin="round"/>
<path d="M292.65 225.749C292.118 226.705 291.118 227.352 290.214 227.865C289.098 228.493 287.906 229.045 286.758 229.584C285.283 230.27 283.757 230.981 282.346 231.866C281.321 232.514 280.404 233.238 279.641 234.021C280.852 231.27 282.263 228.872 283.93 226.724C286.123 223.903 288.374 222.473 290.624 222.473C290.676 222.473 290.727 222.473 290.778 222.473C291.477 222.492 292.016 222.665 292.388 222.986C293.151 223.64 293.119 224.903 292.65 225.749Z" fill="#FFC957"/>
<path d="M295.157 241.407C294.266 242.042 293.086 242.202 292.048 242.279C290.772 242.369 289.457 242.362 288.188 242.35C286.559 242.337 284.873 242.324 283.225 242.523C282.019 242.664 280.884 242.933 279.858 243.311C282.128 241.343 284.437 239.778 286.86 238.554C290.053 236.938 292.695 236.611 294.728 237.573C294.773 237.592 294.824 237.618 294.869 237.643C295.491 237.957 295.908 238.349 296.106 238.797C296.517 239.721 295.946 240.849 295.157 241.407Z" fill="#FFC957"/>
<path d="M289.233 249.114C288.495 249.012 287.829 248.537 287.277 248.088C286.597 247.537 285.95 246.915 285.322 246.319C284.514 245.549 283.686 244.754 282.77 244.081C282.103 243.587 281.41 243.19 280.724 242.895C282.776 242.978 284.655 243.28 286.437 243.812C288.778 244.504 290.252 245.581 290.81 247.011C290.823 247.043 290.836 247.075 290.849 247.114C291.009 247.563 291.035 247.947 290.926 248.268C290.695 248.909 289.88 249.204 289.233 249.114Z" fill="#FFC957"/>
<path d="M272.363 251.628C272.363 251.628 272.433 236.81 290.528 224.23" stroke="#2A294F" stroke-width="0.7798" stroke-miterlimit="10" stroke-linecap="round" stroke-linejoin="round"/>
<path d="M272.363 251.628C272.363 251.628 277.922 239.721 292.984 239.721" stroke="#2A294F" stroke-width="0.7798" stroke-miterlimit="10" stroke-linecap="round" stroke-linejoin="round"/>
<path d="M280.563 243.036C280.563 243.036 283.481 242.824 289.572 247.415" stroke="#2A294F" stroke-width="0.7798" stroke-miterlimit="10" stroke-linecap="round" stroke-linejoin="round"/>
<path d="M158 251.987C152.115 236.188 146.193 220.383 139.269 205.083C135.361 196.453 131.055 187.862 125.07 180.962C119.086 174.061 111.16 168.968 103.199 169C90.9402 170.685 83.0237 179.277 77.8333 188.797C74.4302 195.037 72.7783 202.597 70.3772 209.196C67.0644 218.281 65.3222 228.167 58.9584 236.111C54.4991 241.679 47.6478 240.256 43.0261 235.259C40.4806 232.498 38.6752 229.217 35.8228 226.7C32.9703 224.182 28.466 222.542 24.8462 224.131C21.1182 225.764 20.0079 229.89 19.5024 233.516C18.7622 238.892 18.1032 243.972 16.8846 248.848C16.6228 249.911 16.325 250.956 16 252H158V251.987Z" fill="#FF006E"/>
<path d="M79.4656 229.936C76.8495 226.922 73.541 224.319 72.5022 220.517C71.7392 217.74 72.3419 214.797 72.6369 211.931C72.9318 209.065 72.8292 205.897 70.9762 203.692C69.4501 201.871 67.0328 201.082 64.7117 200.582C62.3906 200.082 59.9669 199.768 57.9086 198.588C54.5616 196.671 55.2284 193.407 53.4331 190.547C51.4197 187.335 46.7262 183.238 42.7123 185.373C38.4547 187.63 39.128 194.491 41.9621 197.517C43.8408 199.524 46.2453 201.454 46.521 204.185C46.9378 208.302 42.2186 212.014 43.5138 215.945C44.4756 218.85 48.1304 219.843 49.9385 222.312C51.7275 224.755 51.3684 228.173 50.3104 231.007C49.2589 233.841 47.5982 236.463 46.9442 239.419C45.6041 245.459 50.3425 249.64 55.7478 250.986C60.7106 252.224 71.4186 251.64 71.4186 251.64C75.2401 250.307 79.4784 246.947 81.5751 243.279C83.1653 240.509 83.3833 236.995 82.1522 234.046C81.5239 232.52 80.5556 231.193 79.4656 229.936Z" fill="#FFC957"/>
<path d="M47.4634 191.881C47.4634 191.881 65.7439 220.119 67.7316 251.474" stroke="#2A294F" stroke-width="0.7798" stroke-miterlimit="10" stroke-linecap="round" stroke-linejoin="round"/>
<path d="M31.1832 229.968C31.4653 229.724 31.8757 229.596 32.4015 229.583C32.4399 229.583 32.4784 229.583 32.5169 229.583C34.216 229.583 35.9216 230.667 37.5759 232.802C38.8391 234.424 39.9035 236.239 40.8204 238.316C40.2433 237.726 39.5508 237.175 38.7749 236.688C37.7106 236.021 36.5564 235.482 35.4407 234.963C34.5687 234.559 33.671 234.142 32.8247 233.661C32.1386 233.277 31.382 232.783 30.9844 232.065C30.6253 231.423 30.6061 230.468 31.1832 229.968Z" fill="#FFC957"/>
<path d="M28.3685 241.926C28.5224 241.586 28.8366 241.291 29.3046 241.054C29.3367 241.035 29.3752 241.016 29.4072 241.003C30.9461 240.272 32.9466 240.522 35.3575 241.747C37.1913 242.676 38.9354 243.856 40.6474 245.344C39.8715 245.055 39.0123 244.856 38.1018 244.747C36.8515 244.6 35.5755 244.606 34.3444 244.613C33.3826 244.619 32.3952 244.626 31.427 244.555C30.6447 244.497 29.747 244.375 29.0802 243.901C28.4903 243.478 28.0607 242.625 28.3685 241.926Z" fill="#FFC957"/>
<path d="M32.2861 249.082C32.2028 248.845 32.222 248.55 32.3439 248.21C32.3503 248.184 32.3631 248.158 32.3695 248.133C32.7927 247.049 33.902 246.235 35.6781 245.709C37.0246 245.312 38.448 245.081 39.9997 245.017C39.4804 245.241 38.9546 245.542 38.4544 245.914C37.762 246.427 37.1336 247.03 36.5245 247.607C36.05 248.062 35.5627 248.53 35.0497 248.947C34.6329 249.287 34.1328 249.646 33.5749 249.723C33.0748 249.794 32.4593 249.569 32.2861 249.082Z" fill="#FFC957"/>
<path d="M46.3218 251.627C46.3218 251.627 46.2705 240.419 32.5874 230.91" stroke="#2A294F" stroke-width="0.7798" stroke-miterlimit="10" stroke-linecap="round" stroke-linejoin="round"/>
<path d="M46.3219 251.627C46.3219 251.627 42.1221 242.625 30.728 242.625" stroke="#2A294F" stroke-width="0.7798" stroke-miterlimit="10" stroke-linecap="round" stroke-linejoin="round"/>
<path d="M40.1215 245.132C40.1215 245.132 37.9158 244.972 33.312 248.447" stroke="#2A294F" stroke-width="0.7798" stroke-miterlimit="10" stroke-linecap="round" stroke-linejoin="round"/>
<path fill-rule="evenodd" clip-rule="evenodd" d="M179.232 48.7871H150.797V71.8949H179.232V48.7871Z" fill="#FF006E"/>
<path d="M179.232 74.6329H150.801C149.287 74.6329 148.06 73.4073 148.06 71.8947V48.787C148.06 47.2744 149.287 46.0488 150.801 46.0488H179.232C180.746 46.0488 181.973 47.2744 181.973 48.787V71.8947C181.973 73.4073 180.742 74.6329 179.232 74.6329ZM153.538 69.1566H176.492V51.5252H153.538V69.1566Z" fill="#FF006E"/>
<path d="M195.878 47.8871C195.878 51.6996 192.757 54.8178 188.945 54.8178H141.088C137.272 54.8178 134.155 51.6996 134.155 47.8871V42.7947C134.155 38.9822 137.276 35.8639 141.088 35.8639H188.941C192.757 35.8639 195.874 38.9822 195.874 42.7947V47.8871H195.878Z" fill="#D10064"/>
<path d="M150.855 57.556H141.088C135.754 57.556 131.414 53.2199 131.414 47.8871V42.7947C131.414 37.4618 135.754 33.1257 141.088 33.1257H188.945C194.279 33.1257 198.619 37.4618 198.619 42.7947V47.8871C198.619 49.3997 197.392 50.6252 195.878 50.6252C194.364 50.6252 193.137 49.3997 193.137 47.8871V42.7947C193.137 40.4831 191.255 38.6021 188.945 38.6021H141.088C138.774 38.6021 136.895 40.4831 136.895 42.7947V47.8871C136.895 50.1986 138.778 52.0797 141.088 52.0797H150.859C152.373 52.0797 153.6 53.3053 153.6 54.8178C153.6 56.3304 152.369 57.556 150.855 57.556Z" fill="#B5005F"/>
<path d="M229.05 93.0051L214.186 82.7117L222.567 70.6304L237.431 80.9237L229.05 93.0051Z" fill="#FF006E"/>
<path d="M229.05 95.7432C228.51 95.7432 227.967 95.5842 227.489 95.2545L212.621 84.9651C212.023 84.5501 211.616 83.9179 211.488 83.2042C211.356 82.4906 211.519 81.7537 211.93 81.1564L220.311 69.0751C220.727 68.4778 221.36 68.0706 222.074 67.9387C222.796 67.8107 223.53 67.9697 224.124 68.3809L238.992 78.6781C239.589 79.0931 239.997 79.7253 240.125 80.4389C240.257 81.1525 240.094 81.8894 239.683 82.4867L231.301 94.5642C230.769 95.3321 229.915 95.7432 229.05 95.7432ZM217.998 82.0213L228.363 89.1925L233.623 81.6141L223.258 74.439L217.998 82.0213Z" fill="#FF006E"/>
<path d="M246.465 86.4776C245.079 88.4672 242.319 88.9714 240.323 87.5907L215.304 70.2657C213.309 68.885 212.808 66.1235 214.19 64.13L216.038 61.4655C217.42 59.4759 220.184 58.9756 222.175 60.3524L247.194 77.6774C249.19 79.0581 249.691 81.8196 248.309 83.8131L246.465 86.4776Z" fill="#D10064"/>
<path d="M246.464 89.2157C245.925 89.2157 245.381 89.0567 244.904 88.727C243.662 87.866 243.351 86.1595 244.213 84.9184L246.057 82.2578C246.573 81.5131 246.379 80.4466 245.634 79.9307L220.614 62.6057C220.253 62.3536 219.811 62.2606 219.364 62.342C218.922 62.4234 218.541 62.6639 218.289 63.0285L216.437 65.693C216.185 66.0575 216.092 66.4997 216.173 66.9418C216.255 67.384 216.499 67.7679 216.86 68.0162L221.938 71.5339C223.18 72.3949 223.491 74.1014 222.629 75.3425C221.767 76.5875 220.059 76.8939 218.817 76.0329L213.739 72.519C212.175 71.4369 211.123 69.8041 210.781 67.9192C210.44 66.0382 210.847 64.1377 211.934 62.5747L213.782 59.9102C214.865 58.3472 216.499 57.2962 218.386 56.9548C220.265 56.6097 222.167 57.0247 223.732 58.1067L248.751 75.4317C251.992 77.6774 252.8 82.1376 250.56 85.3761L248.716 88.0367C248.188 88.8046 247.33 89.2157 246.464 89.2157Z" fill="#B5005F"/>
<path fill-rule="evenodd" clip-rule="evenodd" d="M166.426 66.9846C221.88 66.9846 266.899 111.967 266.899 167.366C266.899 222.77 221.876 267.748 166.426 267.748C110.976 267.748 65.9526 222.77 65.9526 167.366C65.9526 111.963 110.976 66.9846 166.426 66.9846Z" fill="#B5005F"/>
<path d="M166.426 255.469C117.804 255.469 78.2427 215.948 78.2427 167.366C78.2427 118.785 117.804 79.2676 166.426 79.2676C215.051 79.2676 254.609 118.789 254.609 167.366C254.609 215.944 215.051 255.469 166.426 255.469Z" fill="url(#paint0_linear)"/>
<path d="M166.212 79.2676C150.685 79.3064 136.092 83.3748 123.421 90.4763L166.212 168.119V79.2676Z" fill="#D67B0D"/>
<path d="M176.511 191.417C177.016 191.417 177.532 191.292 178.006 191.033C179.516 190.206 180.067 188.318 179.24 186.813L143.868 122.369C143.041 120.86 141.146 120.313 139.64 121.135C138.134 121.961 137.583 123.85 138.406 125.355L173.778 189.799C174.345 190.835 175.413 191.417 176.511 191.417Z" fill="white"/>
<path d="M166.426 183.966C157.264 183.966 149.811 176.519 149.811 167.366C149.811 158.213 157.264 150.767 166.426 150.767C175.587 150.767 183.041 158.213 183.041 167.366C183.041 176.519 175.587 183.966 166.426 183.966Z" fill="white"/>
<path d="M249.694 170.477H238.576C236.857 170.477 235.463 169.085 235.463 167.366C235.463 165.648 236.857 164.256 238.576 164.256H249.694C251.414 164.256 252.804 165.648 252.804 167.366C252.808 169.085 251.414 170.477 249.694 170.477Z" fill="white"/>
<path d="M94.7724 170.477H83.6544C81.9347 170.477 80.5449 169.085 80.5449 167.366C80.5449 165.648 81.9386 164.256 83.6544 164.256H94.7724C96.4921 164.256 97.8857 165.648 97.8857 167.366C97.8857 169.085 96.4921 170.477 94.7724 170.477Z" fill="white"/>
<path d="M166.674 98.6404C164.955 98.6404 163.561 97.2442 163.561 95.5299V84.422C163.561 82.7039 164.955 81.3115 166.674 81.3115C168.394 81.3115 169.788 82.7078 169.788 84.422V95.5299C169.788 97.248 168.394 98.6404 166.674 98.6404Z" fill="white"/>
<path d="M166.674 253.421C164.955 253.421 163.561 252.029 163.561 250.311V239.203C163.561 237.485 164.955 236.092 166.674 236.092C168.394 236.092 169.788 237.485 169.788 239.203V250.311C169.788 252.029 168.394 253.421 166.674 253.421Z" fill="white"/>
<path d="M166.426 270.486C164.912 270.486 163.685 269.261 163.685 267.748C163.685 266.236 164.912 265.01 166.426 265.01C220.316 265.01 264.159 221.207 264.159 167.366C264.159 158.485 262.963 149.685 260.607 141.21C260.203 139.756 261.053 138.243 262.513 137.84C263.964 137.433 265.482 138.29 265.886 139.744C268.374 148.696 269.636 157.988 269.636 167.366C269.644 224.228 223.34 270.486 166.426 270.486ZM97.6451 243.252C96.9696 243.252 96.298 243.008 95.7701 242.507C75.0791 223.076 63.2158 195.691 63.2158 167.366C63.2158 124.227 90.4712 85.2909 131.038 70.4791C132.463 69.9594 134.035 70.6885 134.551 72.1119C135.071 73.5314 134.338 75.1022 132.917 75.6219C94.5046 89.6464 68.6933 126.515 68.6933 167.366C68.6933 194.581 79.6405 219.849 99.5201 238.52C100.623 239.556 100.677 241.289 99.6404 242.391C99.1008 242.961 98.3749 243.252 97.6451 243.252Z" fill="#FF006E"/>
<defs>
<linearGradient id="paint0_linear" x1="161.469" y1="233.191" x2="189.072" y2="-133.993" gradientUnits="userSpaceOnUse">
<stop stop-color="#F98D0B"/>
<stop offset="0.1257" stop-color="#FE9D19"/>
<stop offset="1" stop-color="#FFA01B"/>
</linearGradient>
</defs>
</svg>
