<svg width="351" height="430" viewBox="0 0 351 430" fill="none" xmlns="http://www.w3.org/2000/svg">
<g filter="url(#filter0_d)">
<rect x="5" y="251" width="341" height="170" rx="19" fill="#FF006E"/>
<path d="M310.923 223.709C308.57 217.669 306.813 211.257 304.896 204.486C303.601 199.921 301.517 194.817 297.003 193.381C292.604 191.983 287.872 194.881 285.173 198.619C282.473 202.358 281.108 206.884 278.793 210.879C274.599 218.112 267.181 221.145 261.045 214.784C252.279 205.698 248.336 193.317 242.777 182.237C238.744 174.196 235.365 164.777 230.28 157.365C222.528 146.061 211.897 136.423 197.765 136.423C188.807 137.783 180.914 145.714 175.567 155.634C170.226 165.553 167.109 177.344 164.455 189.11C159.627 210.507 156.087 230.769 152.554 252.634C152.554 252.634 330.877 252.185 330.884 252.185C330.172 252.191 325.799 246.35 324.965 245.542C318.117 238.912 314.007 231.628 310.923 223.709Z" fill="#FF006E"/>
<path d="M277.074 233.904C276.721 240.836 269.181 252.954 262.25 252.608C255.318 252.262 251.619 239.573 251.971 232.641C252.324 225.71 259.704 191.021 266.635 191.368C273.567 191.714 277.427 226.973 277.074 233.904Z" fill="#EFAF3F"/>
<path d="M266.302 195.875L262.808 252.051" stroke="#2A294F" stroke-width="0.7798" stroke-miterlimit="10" stroke-linecap="round" stroke-linejoin="round"/>
<path d="M261.211 232.462C259.634 235.931 258.428 239.567 257.704 243.362C257.338 245.286 257.101 247.37 257.973 249.12C258.922 251.038 261.031 252.153 263.141 252.499C268.296 253.346 273.445 250.191 276.465 245.927C279.485 241.67 280.793 236.463 281.992 231.379C282.935 227.377 283.864 223.319 285.647 219.587C286.41 217.99 290.885 211.816 288.769 210.219C285.878 207.943 277.497 210.418 272.13 216.278C267.713 221.1 263.91 226.531 261.211 232.462Z" fill="#FFC957"/>
<path d="M263.141 252.493C263.141 252.493 269.361 228.275 284.384 214.387" stroke="#2A294F" stroke-width="0.7798" stroke-miterlimit="10" stroke-linecap="round" stroke-linejoin="round"/>
<path d="M297.65 226.749C297.118 227.705 296.118 228.352 295.214 228.865C294.098 229.493 292.906 230.045 291.758 230.584C290.283 231.27 288.757 231.981 287.346 232.866C286.321 233.514 285.404 234.238 284.641 235.021C285.852 232.27 287.263 229.872 288.93 227.724C291.123 224.903 293.374 223.473 295.624 223.473C295.676 223.473 295.727 223.473 295.778 223.473C296.477 223.492 297.016 223.665 297.388 223.986C298.151 224.64 298.119 225.903 297.65 226.749Z" fill="#FFC957"/>
<path d="M300.157 242.407C299.266 243.042 298.086 243.202 297.048 243.279C295.772 243.369 294.457 243.362 293.188 243.35C291.559 243.337 289.873 243.324 288.225 243.523C287.019 243.664 285.884 243.933 284.858 244.311C287.128 242.343 289.437 240.778 291.86 239.554C295.053 237.938 297.695 237.611 299.728 238.573C299.773 238.592 299.824 238.618 299.869 238.643C300.491 238.957 300.908 239.349 301.106 239.797C301.517 240.721 300.946 241.849 300.157 242.407Z" fill="#FFC957"/>
<path d="M294.233 250.114C293.495 250.012 292.829 249.537 292.277 249.088C291.597 248.537 290.95 247.915 290.322 247.319C289.514 246.549 288.686 245.754 287.77 245.081C287.103 244.587 286.41 244.19 285.724 243.895C287.776 243.978 289.655 244.28 291.437 244.812C293.778 245.504 295.252 246.581 295.81 248.011C295.823 248.043 295.836 248.075 295.849 248.114C296.009 248.563 296.035 248.947 295.926 249.268C295.695 249.909 294.88 250.204 294.233 250.114Z" fill="#FFC957"/>
<path d="M277.363 252.628C277.363 252.628 277.433 237.81 295.528 225.23" stroke="#2A294F" stroke-width="0.7798" stroke-miterlimit="10" stroke-linecap="round" stroke-linejoin="round"/>
<path d="M277.363 252.628C277.363 252.628 282.922 240.721 297.984 240.721" stroke="#2A294F" stroke-width="0.7798" stroke-miterlimit="10" stroke-linecap="round" stroke-linejoin="round"/>
<path d="M285.563 244.036C285.563 244.036 288.481 243.824 294.572 248.415" stroke="#2A294F" stroke-width="0.7798" stroke-miterlimit="10" stroke-linecap="round" stroke-linejoin="round"/>
<path d="M163 252.987C157.115 237.188 151.193 221.383 144.269 206.083C140.361 197.453 136.055 188.862 130.07 181.962C124.086 175.061 116.16 169.968 108.199 170C95.9402 171.685 88.0237 180.277 82.8333 189.797C79.4302 196.037 77.7783 203.597 75.3772 210.196C72.0644 219.281 70.3222 229.167 63.9584 237.111C59.4991 242.679 52.6478 241.256 48.0261 236.259C45.4806 233.498 43.6752 230.217 40.8228 227.7C37.9703 225.182 33.466 223.542 29.8462 225.131C26.1182 226.764 25.0079 230.89 24.5024 234.516C23.7622 239.892 23.1032 244.972 21.8846 249.848C21.6228 250.911 21.325 251.956 21 253H163V252.987Z" fill="#FF006E"/>
<path d="M84.4656 230.936C81.8495 227.922 78.541 225.319 77.5022 221.517C76.7392 218.74 77.3419 215.797 77.6369 212.931C77.9318 210.065 77.8292 206.897 75.9762 204.692C74.4501 202.871 72.0328 202.082 69.7117 201.582C67.3906 201.082 64.9669 200.768 62.9086 199.588C59.5616 197.671 60.2284 194.407 58.4331 191.547C56.4197 188.335 51.7262 184.238 47.7123 186.373C43.4547 188.63 44.128 195.491 46.9621 198.517C48.8408 200.524 51.2453 202.454 51.521 205.185C51.9378 209.302 47.2186 213.014 48.5138 216.945C49.4756 219.85 53.1304 220.843 54.9385 223.312C56.7275 225.755 56.3684 229.173 55.3104 232.007C54.2589 234.841 52.5982 237.463 51.9442 240.419C50.6041 246.459 55.3425 250.64 60.7478 251.986C65.7106 253.224 76.4186 252.64 76.4186 252.64C80.2401 251.307 84.4784 247.947 86.5751 244.279C88.1653 241.509 88.3833 237.995 87.1522 235.046C86.5239 233.52 85.5556 232.193 84.4656 230.936Z" fill="#FFC957"/>
<path d="M52.4634 192.881C52.4634 192.881 70.7439 221.119 72.7316 252.474" stroke="#2A294F" stroke-width="0.7798" stroke-miterlimit="10" stroke-linecap="round" stroke-linejoin="round"/>
<path d="M36.1832 230.968C36.4653 230.724 36.8757 230.596 37.4015 230.583C37.4399 230.583 37.4784 230.583 37.5169 230.583C39.216 230.583 40.9216 231.667 42.5759 233.802C43.8391 235.424 44.9035 237.239 45.8204 239.316C45.2433 238.726 44.5508 238.175 43.7749 237.688C42.7106 237.021 41.5564 236.482 40.4407 235.963C39.5687 235.559 38.671 235.142 37.8247 234.661C37.1386 234.277 36.382 233.783 35.9844 233.065C35.6253 232.423 35.6061 231.468 36.1832 230.968Z" fill="#FFC957"/>
<path d="M33.3685 242.926C33.5224 242.586 33.8366 242.291 34.3046 242.054C34.3367 242.035 34.3752 242.016 34.4072 242.003C35.9461 241.272 37.9466 241.522 40.3575 242.747C42.1913 243.676 43.9354 244.856 45.6474 246.344C44.8715 246.055 44.0123 245.856 43.1018 245.747C41.8515 245.6 40.5755 245.606 39.3444 245.613C38.3826 245.619 37.3952 245.626 36.427 245.555C35.6447 245.497 34.747 245.375 34.0802 244.901C33.4903 244.478 33.0607 243.625 33.3685 242.926Z" fill="#FFC957"/>
<path d="M37.2861 250.082C37.2028 249.845 37.222 249.55 37.3439 249.21C37.3503 249.184 37.3631 249.158 37.3695 249.133C37.7927 248.049 38.902 247.235 40.6781 246.709C42.0246 246.312 43.448 246.081 44.9997 246.017C44.4804 246.241 43.9546 246.542 43.4544 246.914C42.762 247.427 42.1336 248.03 41.5245 248.607C41.05 249.062 40.5627 249.53 40.0497 249.947C39.6329 250.287 39.1328 250.646 38.5749 250.723C38.0748 250.794 37.4593 250.569 37.2861 250.082Z" fill="#FFC957"/>
<path d="M51.3218 252.627C51.3218 252.627 51.2705 241.419 37.5874 231.91" stroke="#2A294F" stroke-width="0.7798" stroke-miterlimit="10" stroke-linecap="round" stroke-linejoin="round"/>
<path d="M51.3219 252.627C51.3219 252.627 47.1221 243.625 35.728 243.625" stroke="#2A294F" stroke-width="0.7798" stroke-miterlimit="10" stroke-linecap="round" stroke-linejoin="round"/>
<path d="M45.1215 246.132C45.1215 246.132 42.9158 245.972 38.312 249.447" stroke="#2A294F" stroke-width="0.7798" stroke-miterlimit="10" stroke-linecap="round" stroke-linejoin="round"/>
<path fill-rule="evenodd" clip-rule="evenodd" d="M184.232 49.7871H155.797V72.8949H184.232V49.7871Z" fill="#FF006E"/>
<path d="M184.232 75.6329H155.801C154.287 75.6329 153.06 74.4073 153.06 72.8947V49.787C153.06 48.2744 154.287 47.0488 155.801 47.0488H184.232C185.746 47.0488 186.973 48.2744 186.973 49.787V72.8947C186.973 74.4073 185.742 75.6329 184.232 75.6329ZM158.538 70.1566H181.492V52.5252H158.538V70.1566Z" fill="#FF006E"/>
<path d="M200.878 48.8871C200.878 52.6996 197.757 55.8178 193.945 55.8178H146.088C142.272 55.8178 139.155 52.6996 139.155 48.8871V43.7947C139.155 39.9822 142.276 36.8639 146.088 36.8639H193.941C197.757 36.8639 200.874 39.9822 200.874 43.7947V48.8871H200.878Z" fill="#D10064"/>
<path d="M155.855 58.556H146.088C140.754 58.556 136.414 54.2199 136.414 48.8871V43.7947C136.414 38.4618 140.754 34.1257 146.088 34.1257H193.945C199.279 34.1257 203.619 38.4618 203.619 43.7947V48.8871C203.619 50.3997 202.392 51.6252 200.878 51.6252C199.364 51.6252 198.137 50.3997 198.137 48.8871V43.7947C198.137 41.4831 196.255 39.6021 193.945 39.6021H146.088C143.774 39.6021 141.895 41.4831 141.895 43.7947V48.8871C141.895 51.1986 143.778 53.0797 146.088 53.0797H155.859C157.373 53.0797 158.6 54.3053 158.6 55.8178C158.6 57.3304 157.369 58.556 155.855 58.556Z" fill="#B5005F"/>
<path d="M234.05 94.0051L219.186 83.7117L227.567 71.6304L242.431 81.9237L234.05 94.0051Z" fill="#FF006E"/>
<path d="M234.05 96.7432C233.51 96.7432 232.967 96.5842 232.489 96.2545L217.621 85.9651C217.023 85.5501 216.616 84.9179 216.488 84.2042C216.356 83.4906 216.519 82.7537 216.93 82.1564L225.311 70.0751C225.727 69.4778 226.36 69.0706 227.074 68.9387C227.796 68.8107 228.53 68.9697 229.124 69.3809L243.992 79.6781C244.589 80.0931 244.997 80.7253 245.125 81.4389C245.257 82.1525 245.094 82.8894 244.683 83.4867L236.301 95.5642C235.769 96.3321 234.915 96.7432 234.05 96.7432ZM222.998 83.0213L233.363 90.1925L238.623 82.6141L228.258 75.439L222.998 83.0213Z" fill="#FF006E"/>
<path d="M251.465 87.4776C250.079 89.4672 247.319 89.9714 245.323 88.5907L220.304 71.2657C218.309 69.885 217.808 67.1235 219.19 65.13L221.038 62.4655C222.42 60.4759 225.184 59.9756 227.175 61.3524L252.194 78.6774C254.19 80.0581 254.691 82.8196 253.309 84.8131L251.465 87.4776Z" fill="#D10064"/>
<path d="M251.464 90.2157C250.925 90.2157 250.381 90.0567 249.904 89.727C248.662 88.866 248.351 87.1595 249.213 85.9184L251.057 83.2578C251.573 82.5131 251.379 81.4466 250.634 80.9307L225.614 63.6057C225.253 63.3536 224.811 63.2606 224.364 63.342C223.922 63.4234 223.541 63.6639 223.289 64.0285L221.437 66.693C221.185 67.0575 221.092 67.4997 221.173 67.9418C221.255 68.384 221.499 68.7679 221.86 69.0162L226.938 72.5339C228.18 73.3949 228.491 75.1014 227.629 76.3425C226.767 77.5875 225.059 77.8939 223.817 77.0329L218.739 73.519C217.175 72.4369 216.123 70.8041 215.781 68.9192C215.44 67.0382 215.847 65.1377 216.934 63.5747L218.782 60.9102C219.865 59.3472 221.499 58.2962 223.386 57.9548C225.265 57.6097 227.167 58.0247 228.732 59.1067L253.751 76.4317C256.992 78.6774 257.8 83.1376 255.56 86.3761L253.716 89.0367C253.188 89.8046 252.33 90.2157 251.464 90.2157Z" fill="#B5005F"/>
<path fill-rule="evenodd" clip-rule="evenodd" d="M171.426 67.9846C226.88 67.9846 271.899 112.967 271.899 168.366C271.899 223.77 226.876 268.748 171.426 268.748C115.976 268.748 70.9526 223.77 70.9526 168.366C70.9526 112.963 115.976 67.9846 171.426 67.9846Z" fill="#B5005F"/>
<path d="M171.426 256.469C122.804 256.469 83.2427 216.948 83.2427 168.366C83.2427 119.785 122.804 80.2676 171.426 80.2676C220.051 80.2676 259.609 119.789 259.609 168.366C259.609 216.944 220.051 256.469 171.426 256.469Z" fill="url(#paint0_linear)"/>
<path d="M171.212 80.2676C155.685 80.3064 141.092 84.3748 128.421 91.4763L171.212 169.119V80.2676Z" fill="#D67B0D"/>
<path d="M181.511 192.417C182.016 192.417 182.532 192.292 183.006 192.033C184.516 191.206 185.067 189.318 184.24 187.813L148.868 123.369C148.041 121.86 146.146 121.313 144.64 122.135C143.134 122.961 142.583 124.85 143.406 126.355L178.778 190.799C179.345 191.835 180.413 192.417 181.511 192.417Z" fill="white"/>
<path d="M171.426 184.966C162.264 184.966 154.811 177.519 154.811 168.366C154.811 159.213 162.264 151.767 171.426 151.767C180.587 151.767 188.041 159.213 188.041 168.366C188.041 177.519 180.587 184.966 171.426 184.966Z" fill="white"/>
<path d="M254.694 171.477H243.576C241.857 171.477 240.463 170.085 240.463 168.366C240.463 166.648 241.857 165.256 243.576 165.256H254.694C256.414 165.256 257.804 166.648 257.804 168.366C257.808 170.085 256.414 171.477 254.694 171.477Z" fill="white"/>
<path d="M99.7724 171.477H88.6544C86.9347 171.477 85.5449 170.085 85.5449 168.366C85.5449 166.648 86.9386 165.256 88.6544 165.256H99.7724C101.492 165.256 102.886 166.648 102.886 168.366C102.886 170.085 101.492 171.477 99.7724 171.477Z" fill="white"/>
<path d="M171.674 99.6404C169.955 99.6404 168.561 98.2442 168.561 96.5299V85.422C168.561 83.7039 169.955 82.3115 171.674 82.3115C173.394 82.3115 174.788 83.7078 174.788 85.422V96.5299C174.788 98.248 173.394 99.6404 171.674 99.6404Z" fill="white"/>
<path d="M171.674 254.421C169.955 254.421 168.561 253.029 168.561 251.311V240.203C168.561 238.485 169.955 237.092 171.674 237.092C173.394 237.092 174.788 238.485 174.788 240.203V251.311C174.788 253.029 173.394 254.421 171.674 254.421Z" fill="white"/>
<path d="M171.426 271.486C169.912 271.486 168.685 270.261 168.685 268.748C168.685 267.236 169.912 266.01 171.426 266.01C225.316 266.01 269.159 222.207 269.159 168.366C269.159 159.485 267.963 150.685 265.607 142.21C265.203 140.756 266.053 139.243 267.513 138.84C268.964 138.433 270.482 139.29 270.886 140.744C273.374 149.696 274.636 158.988 274.636 168.366C274.644 225.228 228.34 271.486 171.426 271.486ZM102.645 244.252C101.97 244.252 101.298 244.008 100.77 243.507C80.0791 224.076 68.2158 196.691 68.2158 168.366C68.2158 125.227 95.4712 86.2909 136.038 71.4791C137.463 70.9594 139.035 71.6885 139.551 73.1119C140.071 74.5314 139.338 76.1022 137.917 76.6219C99.5046 90.6464 73.6933 127.515 73.6933 168.366C73.6933 195.581 84.6405 220.849 104.52 239.52C105.623 240.556 105.677 242.289 104.64 243.391C104.101 243.961 103.375 244.252 102.645 244.252Z" fill="#FF006E"/>
</g>
<defs>
<filter id="filter0_d" x="0" y="0" width="351" height="430" filterUnits="userSpaceOnUse" color-interpolation-filters="sRGB">
<feFlood flood-opacity="0" result="BackgroundImageFix"/>
<feColorMatrix in="SourceAlpha" type="matrix" values="0 0 0 0 0 0 0 0 0 0 0 0 0 0 0 0 0 0 127 0"/>
<feOffset dy="4"/>
<feGaussianBlur stdDeviation="2.5"/>
<feColorMatrix type="matrix" values="0 0 0 0 0 0 0 0 0 0 0 0 0 0 0 0 0 0 0.25 0"/>
<feBlend mode="normal" in2="BackgroundImageFix" result="effect1_dropShadow"/>
<feBlend mode="normal" in="SourceGraphic" in2="effect1_dropShadow" result="shape"/>
</filter>
<linearGradient id="paint0_linear" x1="166.469" y1="234.191" x2="194.072" y2="-132.993" gradientUnits="userSpaceOnUse">
<stop stop-color="#F98D0B"/>
<stop offset="0.1257" stop-color="#FE9D19"/>
<stop offset="1" stop-color="#FFA01B"/>
</linearGradient>
</defs>
</svg>
