<svg width="346" height="351" viewBox="0 0 346 351" fill="none" xmlns="http://www.w3.org/2000/svg">
<rect y="199" width="341" height="152" rx="19" fill="#ED0D0D"/>
<path d="M305.923 171.709C303.57 165.669 301.813 159.257 299.896 152.486C298.601 147.921 296.517 142.817 292.003 141.381C287.604 139.983 282.872 142.881 280.173 146.619C277.473 150.358 276.107 154.884 273.793 158.879C269.599 166.112 262.181 169.145 256.044 162.784C247.279 153.698 243.336 141.317 237.777 130.237C233.744 122.196 230.365 112.777 225.28 105.365C217.528 94.0606 206.897 84.4234 192.765 84.4234C183.807 85.7827 175.914 93.7143 170.567 103.634C165.225 113.553 162.109 125.345 159.455 137.11C154.626 158.507 151.087 178.769 147.554 200.634C147.554 200.634 325.877 200.185 325.883 200.185C325.172 200.191 320.799 194.35 319.965 193.542C313.117 186.912 309.007 179.628 305.923 171.709Z" fill="#ED0D0D"/>
<path d="M272.074 181.905C271.721 188.836 264.181 200.954 257.25 200.608C250.318 200.262 246.619 187.573 246.971 180.641C247.324 173.71 254.704 139.021 261.635 139.368C268.567 139.714 272.427 174.973 272.074 181.905Z" fill="#EFAF3F"/>
<path d="M261.302 143.876L257.807 200.051" stroke="#2A294F" stroke-width="0.7798" stroke-miterlimit="10" stroke-linecap="round" stroke-linejoin="round"/>
<path d="M256.211 180.462C254.634 183.931 253.428 187.567 252.704 191.363C252.338 193.286 252.101 195.37 252.973 197.12C253.922 199.038 256.031 200.153 258.141 200.5C263.296 201.346 268.445 198.191 271.465 193.927C274.485 189.67 275.793 184.463 276.992 179.379C277.935 175.378 278.864 171.319 280.647 167.587C281.41 165.99 285.885 159.816 283.769 158.219C280.878 155.943 272.497 158.418 267.13 164.278C262.713 169.1 258.91 174.531 256.211 180.462Z" fill="#FFC957"/>
<path d="M258.141 200.493C258.141 200.493 264.36 176.275 279.384 162.387" stroke="#2A294F" stroke-width="0.7798" stroke-miterlimit="10" stroke-linecap="round" stroke-linejoin="round"/>
<path d="M292.65 174.749C292.118 175.705 291.118 176.352 290.214 176.865C289.098 177.493 287.905 178.045 286.758 178.584C285.283 179.27 283.757 179.981 282.346 180.866C281.32 181.514 280.403 182.238 279.64 183.021C280.852 180.27 282.263 177.872 283.93 175.724C286.123 172.903 288.373 171.473 290.624 171.473C290.675 171.473 290.727 171.473 290.778 171.473C291.477 171.492 292.015 171.665 292.387 171.986C293.15 172.64 293.118 173.903 292.65 174.749Z" fill="#FFC957"/>
<path d="M295.157 190.407C294.266 191.042 293.086 191.202 292.047 191.279C290.771 191.369 289.457 191.363 288.187 191.35C286.559 191.337 284.872 191.324 283.224 191.523C282.019 191.664 280.884 191.933 279.858 192.312C282.128 190.343 284.436 188.779 286.86 187.554C290.053 185.938 292.695 185.611 294.728 186.573C294.772 186.592 294.824 186.618 294.869 186.643C295.491 186.958 295.907 187.349 296.106 187.797C296.516 188.721 295.946 189.849 295.157 190.407Z" fill="#FFC957"/>
<path d="M289.233 198.114C288.495 198.012 287.828 197.537 287.277 197.089C286.597 196.537 285.95 195.915 285.321 195.319C284.513 194.549 283.686 193.754 282.769 193.081C282.102 192.587 281.41 192.19 280.724 191.895C282.776 191.978 284.654 192.28 286.437 192.812C288.777 193.504 290.252 194.581 290.81 196.011C290.823 196.043 290.836 196.075 290.848 196.114C291.009 196.563 291.034 196.947 290.925 197.268C290.694 197.909 289.88 198.204 289.233 198.114Z" fill="#FFC957"/>
<path d="M272.363 200.628C272.363 200.628 272.433 185.81 290.528 173.23" stroke="#2A294F" stroke-width="0.7798" stroke-miterlimit="10" stroke-linecap="round" stroke-linejoin="round"/>
<path d="M272.363 200.628C272.363 200.628 277.922 188.721 292.984 188.721" stroke="#2A294F" stroke-width="0.7798" stroke-miterlimit="10" stroke-linecap="round" stroke-linejoin="round"/>
<path d="M280.564 192.036C280.564 192.036 283.481 191.824 289.572 196.415" stroke="#2A294F" stroke-width="0.7798" stroke-miterlimit="10" stroke-linecap="round" stroke-linejoin="round"/>
<path d="M179 200.987C172.244 185.188 165.447 169.383 157.499 154.083C153.013 145.453 148.07 136.862 141.2 129.962C134.331 123.061 125.233 117.968 116.094 118C102.023 119.685 92.9357 128.277 86.9777 137.797C83.0713 144.037 81.1751 151.597 78.4189 158.196C74.6162 167.281 72.6164 177.167 65.3113 185.111C60.1927 190.679 52.3281 189.256 47.0229 184.259C44.1009 181.498 42.0286 178.217 38.7543 175.7C35.48 173.182 30.3095 171.542 26.1545 173.131C21.8751 174.764 20.6006 178.89 20.0203 182.516C19.1707 187.892 18.4143 192.972 17.0154 197.848C16.715 198.911 16.373 199.956 16 201H179V200.987Z" fill="#ED0D0D"/>
<path d="M79.4656 178.936C76.8496 175.922 73.541 173.319 72.5023 169.517C71.7392 166.74 72.342 163.797 72.6369 160.931C72.9319 158.065 72.8293 154.897 70.9762 152.692C69.4502 150.871 67.0329 150.082 64.7117 149.582C62.3906 149.082 59.9669 148.768 57.9086 147.588C54.5616 145.671 55.2284 142.407 53.4331 139.547C51.4197 136.335 46.7262 132.237 42.7123 134.373C38.4548 136.63 39.128 143.49 41.9621 146.517C43.8408 148.524 46.2453 150.454 46.521 153.185C46.9378 157.302 42.2186 161.014 43.5138 164.945C44.4756 167.849 48.1304 168.843 49.9386 171.312C51.7275 173.755 51.3684 177.172 50.3105 180.007C49.2589 182.841 47.5982 185.463 46.9442 188.419C45.6041 194.459 50.3425 198.64 55.7478 199.986C60.7107 201.224 71.4186 200.64 71.4186 200.64C75.2402 199.307 79.4785 195.947 81.5752 192.279C83.1653 189.509 83.3834 185.995 82.1523 183.046C81.5239 181.52 80.5557 180.193 79.4656 178.936Z" fill="#FFC957"/>
<path d="M47.4635 140.881C47.4635 140.881 65.744 169.119 67.7317 200.474" stroke="#2A294F" stroke-width="0.7798" stroke-miterlimit="10" stroke-linecap="round" stroke-linejoin="round"/>
<path d="M31.1835 178.968C31.4656 178.724 31.876 178.596 32.4018 178.583C32.4402 178.583 32.4787 178.583 32.5172 178.583C34.2164 178.583 35.9219 179.667 37.5762 181.802C38.8394 183.424 39.9038 185.239 40.8207 187.316C40.2436 186.726 39.5511 186.175 38.7753 185.688C37.7109 185.021 36.5567 184.482 35.441 183.963C34.569 183.559 33.6713 183.142 32.825 182.661C32.1389 182.277 31.3823 181.783 30.9847 181.065C30.6257 180.424 30.6064 179.468 31.1835 178.968Z" fill="#FFC957"/>
<path d="M28.3687 190.926C28.5225 190.586 28.8367 190.292 29.3048 190.054C29.3369 190.035 29.3753 190.016 29.4074 190.003C30.9463 189.272 32.9468 189.522 35.3577 190.747C37.1915 191.677 38.9356 192.856 40.6476 194.344C39.8717 194.055 39.0125 193.857 38.102 193.748C36.8517 193.6 35.5757 193.607 34.3446 193.613C33.3828 193.619 32.3954 193.626 31.4272 193.555C30.6449 193.498 29.7472 193.376 29.0804 192.901C28.4905 192.478 28.0609 191.625 28.3687 190.926Z" fill="#FFC957"/>
<path d="M32.2864 198.082C32.203 197.845 32.2222 197.55 32.3441 197.21C32.3505 197.184 32.3633 197.159 32.3697 197.133C32.7929 196.049 33.9022 195.235 35.6783 194.709C37.0248 194.312 38.4483 194.081 39.9999 194.017C39.4806 194.241 38.9548 194.543 38.4547 194.914C37.7622 195.427 37.1338 196.03 36.5247 196.607C36.0502 197.062 35.5629 197.531 35.0499 197.947C34.6331 198.287 34.133 198.646 33.5752 198.723C33.075 198.794 32.4595 198.569 32.2864 198.082Z" fill="#FFC957"/>
<path d="M46.3222 200.628C46.3222 200.628 46.2709 189.419 32.5878 179.91" stroke="#2A294F" stroke-width="0.7798" stroke-miterlimit="10" stroke-linecap="round" stroke-linejoin="round"/>
<path d="M46.3221 200.628C46.3221 200.628 42.1223 191.625 30.7282 191.625" stroke="#2A294F" stroke-width="0.7798" stroke-miterlimit="10" stroke-linecap="round" stroke-linejoin="round"/>
<path d="M40.1218 194.132C40.1218 194.132 37.916 193.972 33.3123 197.447" stroke="#2A294F" stroke-width="0.7798" stroke-miterlimit="10" stroke-linecap="round" stroke-linejoin="round"/>
<path d="M166.991 195.722C209.633 195.722 244.201 161.154 244.201 118.512C244.201 75.8705 209.633 41.3024 166.991 41.3024C124.35 41.3024 89.7815 75.8705 89.7815 118.512C89.7815 161.154 124.35 195.722 166.991 195.722Z" fill="#BB0909"/>
<path d="M166.991 186.24C204.396 186.24 234.719 155.917 234.719 118.512C234.719 81.1069 204.396 50.784 166.991 50.784C129.586 50.784 99.2632 81.1069 99.2632 118.512C99.2632 155.917 129.586 186.24 166.991 186.24Z" fill="#ED0D0D"/>
<path d="M137.946 153.31C137.576 153.31 137.21 153.237 136.869 153.096C136.528 152.954 136.218 152.747 135.956 152.485C135.695 152.224 135.488 151.914 135.347 151.572C135.206 151.231 135.134 150.865 135.135 150.495C135.135 149.75 135.431 149.035 135.958 148.507C136.485 147.98 137.2 147.684 137.946 147.684C138.691 147.684 139.406 147.98 139.933 148.507C140.461 149.035 140.757 149.75 140.757 150.495C140.757 150.865 140.685 151.231 140.544 151.572C140.403 151.914 140.196 152.224 139.935 152.485C139.674 152.747 139.364 152.954 139.022 153.096C138.681 153.237 138.315 153.31 137.946 153.31Z" fill="#00AF00"/>
<rect x="193.777" y="76.0981" width="22.0238" height="97.8836" rx="11.0119" transform="rotate(45 193.777 76.0981)" fill="white"/>
<rect x="209.35" y="147.042" width="22.0238" height="97.8836" rx="11.0119" transform="rotate(135 209.35 147.042)" fill="white"/>
</svg>
