<svg width="349" height="392" viewBox="0 0 349 392" fill="none" xmlns="http://www.w3.org/2000/svg">
<g filter="url(#filter0_d)">
<rect x="4" y="198" width="341" height="186" rx="19" fill="url(#paint0_linear)"/>
<path d="M166.308 307.249C166.308 308.229 166.134 309.088 165.788 309.826C165.442 310.564 164.945 311.134 164.298 311.535C163.655 311.936 162.917 312.137 162.083 312.137C161.258 312.137 160.522 311.938 159.875 311.542C159.228 311.146 158.727 310.58 158.371 309.847C158.016 309.108 157.836 308.261 157.831 307.304V306.812C157.831 305.832 158.007 304.97 158.357 304.228C158.713 303.48 159.212 302.908 159.854 302.512C160.502 302.111 161.24 301.91 162.069 301.91C162.899 301.91 163.635 302.111 164.277 302.512C164.924 302.908 165.424 303.48 165.774 304.228C166.13 304.97 166.308 305.829 166.308 306.805V307.249ZM164.229 306.798C164.229 305.754 164.043 304.961 163.669 304.419C163.295 303.877 162.762 303.605 162.069 303.605C161.381 303.605 160.85 303.874 160.477 304.412C160.103 304.945 159.914 305.729 159.909 306.764V307.249C159.909 308.265 160.096 309.054 160.47 309.614C160.843 310.175 161.381 310.455 162.083 310.455C162.771 310.455 163.3 310.186 163.669 309.648C164.038 309.106 164.225 308.318 164.229 307.283V306.798ZM170.354 309.033L169.644 309.744V312H167.668V301.5H169.644V307.317L170.026 306.825L171.92 304.604H174.292L171.619 307.687L174.524 312H172.255L170.354 309.033ZM178.414 312.137C177.329 312.137 176.445 311.804 175.762 311.139C175.083 310.473 174.743 309.587 174.743 308.479V308.288C174.743 307.545 174.887 306.882 175.174 306.299C175.461 305.711 175.867 305.26 176.391 304.945C176.919 304.626 177.521 304.467 178.195 304.467C179.207 304.467 180.002 304.786 180.581 305.424C181.164 306.062 181.456 306.966 181.456 308.138V308.944H176.746C176.81 309.427 177.001 309.815 177.32 310.106C177.644 310.398 178.052 310.544 178.544 310.544C179.305 310.544 179.9 310.268 180.328 309.717L181.299 310.804C181.003 311.223 180.602 311.551 180.096 311.788C179.59 312.021 179.029 312.137 178.414 312.137ZM178.188 306.066C177.797 306.066 177.478 306.199 177.231 306.463C176.99 306.727 176.835 307.105 176.767 307.598H179.515V307.44C179.506 307.003 179.387 306.666 179.159 306.429C178.931 306.187 178.608 306.066 178.188 306.066ZM185.25 309.204L186.617 304.604H188.736L185.763 313.148L185.599 313.538C185.157 314.504 184.427 314.987 183.411 314.987C183.124 314.987 182.832 314.944 182.536 314.857V313.36L182.837 313.367C183.211 313.367 183.489 313.31 183.671 313.196C183.858 313.082 184.004 312.893 184.108 312.629L184.341 312.021L181.75 304.604H183.876L185.25 309.204Z" fill="#00AF00"/>
<path d="M309.923 170.709C307.57 164.669 305.813 158.257 303.896 151.486C302.601 146.921 300.517 141.817 296.003 140.381C291.604 138.983 286.872 141.881 284.173 145.619C281.473 149.358 280.107 153.884 277.793 157.879C273.599 165.112 266.181 168.145 260.044 161.784C251.279 152.698 247.336 140.317 241.777 129.237C237.744 121.196 234.365 111.777 229.28 104.365C221.528 93.0605 210.897 83.4233 196.765 83.4233C187.807 84.7827 179.914 92.7143 174.567 102.634C169.225 112.553 166.109 124.344 163.455 136.11C158.626 157.507 155.087 177.769 151.554 199.634C151.554 199.634 329.877 199.185 329.883 199.185C329.172 199.191 324.799 193.35 323.965 192.542C317.117 185.912 313.007 178.628 309.923 170.709Z" fill="url(#paint1_radial)"/>
<path d="M276.074 180.904C275.721 187.836 268.181 199.954 261.25 199.608C254.318 199.262 250.619 186.573 250.971 179.641C251.324 172.71 258.704 138.021 265.635 138.368C272.567 138.714 276.427 173.973 276.074 180.904Z" fill="#EFAF3F"/>
<path d="M265.302 142.875L261.807 199.051" stroke="#2A294F" stroke-width="0.7798" stroke-miterlimit="10" stroke-linecap="round" stroke-linejoin="round"/>
<path d="M260.211 179.462C258.634 182.931 257.428 186.567 256.704 190.362C256.338 192.286 256.101 194.37 256.973 196.12C257.922 198.038 260.031 199.153 262.141 199.499C267.296 200.346 272.445 197.191 275.465 192.927C278.485 188.67 279.793 183.463 280.992 178.379C281.935 174.377 282.864 170.319 284.647 166.587C285.41 164.99 289.885 158.816 287.769 157.219C284.878 154.943 276.497 157.418 271.13 163.278C266.713 168.1 262.91 173.531 260.211 179.462Z" fill="#FFC957"/>
<path d="M262.141 199.493C262.141 199.493 268.36 175.275 283.384 161.387" stroke="#2A294F" stroke-width="0.7798" stroke-miterlimit="10" stroke-linecap="round" stroke-linejoin="round"/>
<path d="M296.65 173.749C296.118 174.704 295.118 175.352 294.214 175.865C293.098 176.493 291.905 177.045 290.758 177.583C289.283 178.269 287.757 178.981 286.346 179.866C285.32 180.514 284.403 181.238 283.64 182.02C284.852 179.27 286.263 176.872 287.93 174.724C290.123 171.902 292.373 170.473 294.624 170.473C294.675 170.473 294.727 170.473 294.778 170.473C295.477 170.492 296.015 170.665 296.387 170.985C297.15 171.64 297.118 172.903 296.65 173.749Z" fill="#FFC957"/>
<path d="M299.157 189.407C298.266 190.042 297.086 190.202 296.047 190.279C294.771 190.369 293.457 190.362 292.187 190.35C290.559 190.337 288.872 190.324 287.224 190.523C286.019 190.664 284.884 190.933 283.858 191.311C286.128 189.343 288.436 187.778 290.86 186.554C294.053 184.938 296.695 184.611 298.728 185.573C298.772 185.592 298.824 185.618 298.869 185.643C299.491 185.957 299.907 186.349 300.106 186.797C300.516 187.721 299.946 188.849 299.157 189.407Z" fill="#FFC957"/>
<path d="M293.233 197.114C292.495 197.012 291.828 196.537 291.277 196.088C290.597 195.537 289.95 194.915 289.321 194.319C288.513 193.549 287.686 192.754 286.769 192.081C286.102 191.587 285.41 191.19 284.724 190.895C286.776 190.978 288.654 191.279 290.437 191.812C292.777 192.504 294.252 193.581 294.81 195.011C294.823 195.043 294.836 195.075 294.848 195.114C295.009 195.563 295.034 195.947 294.925 196.268C294.694 196.909 293.88 197.204 293.233 197.114Z" fill="#FFC957"/>
<path d="M276.363 199.628C276.363 199.628 276.433 184.81 294.528 172.23" stroke="#2A294F" stroke-width="0.7798" stroke-miterlimit="10" stroke-linecap="round" stroke-linejoin="round"/>
<path d="M276.363 199.628C276.363 199.628 281.922 187.721 296.984 187.721" stroke="#2A294F" stroke-width="0.7798" stroke-miterlimit="10" stroke-linecap="round" stroke-linejoin="round"/>
<path d="M284.564 191.036C284.564 191.036 287.481 190.824 293.572 195.415" stroke="#2A294F" stroke-width="0.7798" stroke-miterlimit="10" stroke-linecap="round" stroke-linejoin="round"/>
<path d="M183 199.987C176.244 184.188 169.447 168.383 161.499 153.083C157.013 144.453 152.07 135.862 145.2 128.962C138.331 122.061 129.233 116.968 120.094 117C106.023 118.685 96.9357 127.277 90.9777 136.797C87.0713 143.037 85.1751 150.597 82.4189 157.196C78.6162 166.281 76.6164 176.167 69.3113 184.111C64.1927 189.679 56.3281 188.256 51.0229 183.259C48.1009 180.498 46.0286 177.217 42.7543 174.7C39.48 172.182 34.3095 170.542 30.1545 172.131C25.8751 173.764 24.6006 177.89 24.0203 181.516C23.1707 186.892 22.4143 191.972 21.0154 196.848C20.715 197.911 20.373 198.956 20 200H183V199.987Z" fill="url(#paint2_radial)"/>
<path d="M83.4656 177.936C80.8496 174.922 77.541 172.319 76.5023 168.517C75.7392 165.74 76.342 162.797 76.6369 159.931C76.9319 157.065 76.8293 153.897 74.9762 151.692C73.4502 149.871 71.0329 149.082 68.7117 148.582C66.3906 148.082 63.9669 147.768 61.9086 146.588C58.5616 144.671 59.2284 141.407 57.4331 138.547C55.4197 135.335 50.7262 131.238 46.7123 133.373C42.4548 135.63 43.128 142.491 45.9621 145.517C47.8408 147.524 50.2453 149.454 50.521 152.185C50.9378 156.302 46.2186 160.014 47.5138 163.945C48.4756 166.85 52.1304 167.843 53.9386 170.312C55.7275 172.755 55.3684 176.173 54.3105 179.007C53.2589 181.841 51.5982 184.463 50.9442 187.419C49.6041 193.459 54.3425 197.64 59.7478 198.986C64.7107 200.224 75.4186 199.64 75.4186 199.64C79.2402 198.307 83.4785 194.947 85.5752 191.279C87.1653 188.509 87.3834 184.995 86.1523 182.046C85.5239 180.52 84.5557 179.193 83.4656 177.936Z" fill="#FFC957"/>
<path d="M51.4635 139.881C51.4635 139.881 69.744 168.119 71.7317 199.474" stroke="#2A294F" stroke-width="0.7798" stroke-miterlimit="10" stroke-linecap="round" stroke-linejoin="round"/>
<path d="M35.1835 177.968C35.4656 177.724 35.876 177.596 36.4018 177.583C36.4402 177.583 36.4787 177.583 36.5172 177.583C38.2164 177.583 39.9219 178.667 41.5762 180.802C42.8394 182.424 43.9038 184.239 44.8207 186.316C44.2436 185.727 43.5511 185.175 42.7753 184.688C41.7109 184.021 40.5567 183.482 39.441 182.963C38.569 182.559 37.6713 182.142 36.825 181.661C36.1389 181.277 35.3823 180.783 34.9847 180.065C34.6257 179.424 34.6064 178.468 35.1835 177.968Z" fill="#FFC957"/>
<path d="M32.3687 189.926C32.5225 189.586 32.8367 189.291 33.3048 189.054C33.3369 189.035 33.3753 189.016 33.4074 189.003C34.9463 188.272 36.9468 188.522 39.3577 189.747C41.1915 190.676 42.9356 191.856 44.6476 193.344C43.8717 193.055 43.0125 192.857 42.102 192.748C40.8517 192.6 39.5757 192.606 38.3446 192.613C37.3828 192.619 36.3954 192.626 35.4272 192.555C34.6449 192.497 33.7472 192.376 33.0804 191.901C32.4905 191.478 32.0609 190.625 32.3687 189.926Z" fill="#FFC957"/>
<path d="M36.2864 197.082C36.203 196.845 36.2222 196.55 36.3441 196.21C36.3505 196.184 36.3633 196.159 36.3697 196.133C36.7929 195.049 37.9022 194.235 39.6783 193.709C41.0248 193.312 42.4483 193.081 43.9999 193.017C43.4806 193.241 42.9548 193.543 42.4547 193.915C41.7622 194.427 41.1338 195.03 40.5247 195.607C40.0502 196.063 39.5629 196.531 39.0499 196.947C38.6331 197.287 38.133 197.646 37.5752 197.723C37.075 197.794 36.4595 197.569 36.2864 197.082Z" fill="#FFC957"/>
<path d="M50.3222 199.628C50.3222 199.628 50.2709 188.419 36.5878 178.911" stroke="#2A294F" stroke-width="0.7798" stroke-miterlimit="10" stroke-linecap="round" stroke-linejoin="round"/>
<path d="M50.3221 199.628C50.3221 199.628 46.1223 190.625 34.7282 190.625" stroke="#2A294F" stroke-width="0.7798" stroke-miterlimit="10" stroke-linecap="round" stroke-linejoin="round"/>
<path d="M44.1218 193.132C44.1218 193.132 41.916 192.972 37.3123 196.447" stroke="#2A294F" stroke-width="0.7798" stroke-miterlimit="10" stroke-linecap="round" stroke-linejoin="round"/>
<path d="M72.5665 52.5283C75.9247 51.5156 79.4326 50.6599 79.7748 49.6259C80.167 48.4635 76.9229 46.0603 73.7857 44.0137C74.1993 39.521 74.841 34.2725 73.7857 33.7234C72.7305 33.1743 68.9802 36.7541 65.5793 39.628C61.7791 38.0163 57.601 36.9182 56.7097 38.0591C55.9468 39.0504 57.4227 42.4591 58.6704 46.153C54.8631 50.1179 52.6314 53.6336 53.2589 54.4608C53.9719 55.4164 57.5368 55.4948 62.3423 54.7746C64.8306 59.7664 67.7468 62.6188 68.9588 62.2623C70.1709 61.9057 71.4828 58.2403 72.5665 52.5283Z" fill="url(#paint3_linear)"/>
<path d="M204.783 145.605C207.371 147.608 209.923 149.791 210.979 149.655C212.169 149.498 212.519 146.325 212.661 143.323C216.697 141.953 221.502 140.47 221.431 139.529C221.36 138.587 216.369 137.24 212.162 135.885C211.577 132.59 210.351 129.217 208.918 129.003C207.677 128.825 205.524 131.143 203.043 133.389C197.696 132.148 193.553 131.856 193.168 132.604C192.733 133.482 194.487 136.02 197.596 139.172C194.608 142.795 193.724 145.904 194.637 146.646C195.55 147.387 199.357 146.938 204.783 145.605Z" fill="url(#paint4_linear)"/>
<path d="M171.85 64.9364C171.85 64.9364 164.527 40.8474 173.575 39.6493C182.623 38.4513 178.516 50.1321 178.516 50.1321C178.516 50.1321 186.566 42.8869 189.888 48.4635C193.211 54.04 171.85 64.9364 171.85 64.9364Z" fill="url(#paint5_linear)"/>
<path d="M203.107 68.217C211.984 78.9138 212.661 98.717 195.607 101.206C190.216 101.99 183.308 97.8113 184.741 106.312C185.86 112.922 190.01 120.617 184.555 126.486C179.978 131.392 173.568 129.823 168.007 127.848C162.303 125.815 159.915 125.216 160.064 132.597C160.357 146.781 152.813 145.39 142.033 142.702C144.172 143.173 140.464 141.989 138.831 145.112C137.291 148.05 136.771 151.409 135.217 154.383C130.732 162.862 118.397 156.522 111.888 154.169C119.06 156.779 124.928 157.827 128.137 149.598C129.056 147.23 129.955 140.841 132.8 139.956C136.129 138.922 140.771 141.062 143.815 142.189C156.806 146.988 143.459 119.369 161.305 123.926C165.511 124.988 170.039 129.039 174.082 126.065C176.67 124.154 177.718 120.809 178.053 117.743C178.495 113.621 173.426 101.562 176.934 99.0094C180.698 96.2853 185.019 101.448 188.391 99.3303C191.956 97.084 195.692 95.6078 198.238 92.0066C203.899 83.9912 199.97 73.6225 195.079 66.2916C196.669 68.6378 201.275 66.0206 203.107 68.217Z" fill="url(#paint6_linear)"/>
<g style="mix-blend-mode:multiply" opacity="0.3">
<path d="M205.268 96.4487C203.528 95.5716 201.853 94.5518 200.277 93.6462C199.564 93.2112 198.723 92.7976 197.896 92.3768C195.365 95.6643 191.828 97.1262 188.384 99.2798C187.843 99.5752 187.245 99.7515 186.63 99.797C186.016 99.8425 185.398 99.7561 184.819 99.5436C185.654 99.9929 186.495 100.435 187.315 100.891C189.561 100.663 192.798 101.605 195.621 101.205C199.899 100.578 203.072 98.8519 205.268 96.4487Z" fill="#B14026"/>
</g>
<g style="mix-blend-mode:multiply" opacity="0.3">
<path d="M174.082 126.015C170.039 129.01 165.526 124.96 161.305 123.876C160.33 123.615 159.332 123.452 158.325 123.391C160.001 124.218 161.561 125.261 162.966 126.493C164.207 126.493 165.875 127.071 168.007 127.826C173.319 129.716 179.415 131.214 183.935 127.049C183.433 125.663 182.657 124.393 181.654 123.312C180.454 122.143 179.043 121.212 177.497 120.567C177.001 122.714 175.798 124.633 174.082 126.015V126.015Z" fill="#B14026"/>
</g>
<g style="mix-blend-mode:multiply" opacity="0.3">
<path d="M143.815 142.159C142.974 141.846 142.011 141.446 140.963 141.083C141.633 141.674 142.282 142.288 142.903 142.922C149.163 144.463 154.253 145.404 157.219 142.808C156.029 142.181 154.831 141.568 153.576 140.983C152.442 140.455 151.18 139.913 150.011 139.25C149.327 142.038 147.822 143.636 143.815 142.159Z" fill="#B14026"/>
</g>
<g style="mix-blend-mode:multiply" opacity="0.3">
<path d="M125.434 153.89C122.091 157.171 117.378 156.108 111.888 154.111C117.342 156.094 126.86 160.858 132.479 157.349C130.026 156.423 127.667 155.265 125.434 153.89V153.89Z" fill="#B14026"/>
</g>
<path d="M135.594 183.727C138.268 183.15 142.218 184.84 144.785 185.653C148.264 186.744 149.162 189.418 149.968 192.662C152.264 189.888 153.754 185.881 157.939 185.938C161.369 185.981 164.862 187.364 168.171 188.206C174.409 188.969 172.898 197.661 174.481 202.311C176.819 199.951 178.566 193.597 182.473 193.49C185.724 193.397 190.024 195.194 192.733 196.435C201.717 200.542 204.476 211.068 206.08 219.968C205.816 218.541 199.72 219.255 198.587 218.299C197.453 217.343 197.161 212.837 196.769 211.389C195.948 208.377 194.788 205.468 193.311 202.717C192.051 200.389 190.357 198.324 188.32 196.635C186.031 198.253 184.926 201.063 183.386 203.295C179.971 208.244 174.694 205.342 169.91 204.179C166.823 204.087 165.105 197.205 164.919 194.082C164.834 192.748 164.691 187.863 162.652 189.054C160.77 190.159 159.529 192.113 158.374 193.918C155.772 198.068 152 196.67 148.15 195.864C146.011 195.415 143.423 194.837 142.239 192.791C141.205 191.015 141.227 188.869 140.557 186.965C138.218 188.284 136.179 190.331 133.47 190.88C130.069 191.593 126.589 189.511 123.281 189.018C128.186 189.724 131.167 184.676 135.594 183.727Z" fill="#7CDE3E"/>
<path d="M137.491 183.655C136.859 183.585 136.22 183.609 135.595 183.726C131.167 184.675 128.187 189.724 123.317 188.996C126.626 189.488 130.105 191.549 133.506 190.858C136.13 190.323 138.347 188.262 140.593 186.943C140.479 186.572 138.589 184.012 137.491 183.655Z" fill="url(#paint7_linear)"/>
<path d="M158.411 193.896C159.544 192.092 160.671 190.116 162.689 189.218C163.058 189.074 163.457 189.022 163.851 189.068C161.712 186.929 158.582 186.294 156.543 186.087C153.691 186.8 152.265 189.653 150.525 191.963C149.377 193.425 148.472 194.409 146.96 194.866C146.512 195 146.054 195.1 145.591 195.165C146.446 195.445 147.318 195.671 148.201 195.843C152.037 196.677 155.808 198.046 158.411 193.896Z" fill="url(#paint8_linear)"/>
<path d="M183.401 203.274C184.926 201.07 186.024 198.282 188.256 196.678C186.948 195.49 185.514 194.45 183.978 193.575C183.472 193.509 182.962 193.48 182.452 193.49C178.773 193.597 177.005 199.231 174.866 201.855C174.373 202.555 173.716 203.125 172.954 203.515C172.191 203.905 171.345 204.104 170.488 204.094L169.726 204.13H169.904C174.702 205.321 179.985 208.223 183.401 203.274Z" fill="url(#paint9_linear)"/>
<path d="M93.9282 58.2754C94.5414 58.7746 97.9851 60.6215 99.5679 61.57C108.666 66.2694 101.543 72.823 96.716 78.6135C91.8891 84.404 110.377 90.7364 109.265 98.3097C108.095 106.339 91.554 102.146 100.381 113.877C102.919 117.243 102.591 120.659 98.1562 122.249C92.2384 124.388 91.3543 126.841 94.5913 132.404C92.488 128.767 88.2101 130.428 86.9695 125.044C85.5435 118.876 93.0584 119.988 95.3613 116.216C98.3915 111.26 89.8856 107.709 92.1458 102.874C94.4059 98.0387 102.413 99.4935 103.34 93.3108C104.766 83.698 81.5579 82.0364 94.1493 71.6463C96.88 69.4 101.087 58.9315 94.0566 60.9496C92.6306 61.3489 90.2991 63.6666 88.8945 62.8893C88.1102 62.4543 84.7236 58.9529 83.8109 59.5447C87.0408 57.4268 90.3205 56.5568 93.9282 58.2754Z" fill="url(#paint10_linear)"/>
<path d="M97.2222 61.2568C96.965 60.6829 96.629 60.1476 96.224 59.6665C95.435 59.2305 94.6688 58.7544 93.9282 58.2403C90.3205 56.5217 87.0408 57.3917 83.8109 59.474C84.7236 58.8821 88.0889 62.3835 88.8945 62.8185C90.3205 63.5958 92.6377 61.2782 94.0566 60.8788C95.6465 60.4724 96.6376 60.672 97.2222 61.2568Z" fill="#00A290"/>
<g style="mix-blend-mode:multiply" opacity="0.3">
<path d="M107.132 92.8765C103.567 88.7119 96.8861 84.9396 96.0234 81.3954C94.6927 81.3727 93.3731 81.1491 92.1091 80.7322C95.289 83.9555 101.884 86.5583 103.175 90.9369C104.599 91.3405 105.94 91.9975 107.132 92.8765Z" fill="#008689"/>
</g>
<g style="mix-blend-mode:multiply" opacity="0.3">
<path d="M99.6241 112.786C97.6847 109.934 97.4851 108.101 98.1981 106.839C96.7634 106.281 95.4492 105.453 94.3266 104.4C93.6309 103.775 92.9938 103.087 92.4229 102.346C92.3105 102.515 92.2104 102.691 92.1234 102.874C90.9684 105.334 92.6154 107.466 94.0984 109.613L99.6241 112.786Z" fill="#008689"/>
</g>
<g style="mix-blend-mode:multiply" opacity="0.3">
<path d="M96.4013 122.97L95.339 122.342C93.7058 121.446 92.1338 120.443 90.6333 119.34C88.2519 120.374 86.1557 121.522 86.9685 125.045C88.2091 130.429 92.487 128.767 94.5904 132.404C91.7241 127.462 92.1163 124.952 96.4013 122.97Z" fill="#008689"/>
</g>
<path d="M150.624 71.5112C152.663 78.293 152.699 88.6759 150.489 94.2881C147.573 103.787 144.279 115.682 134.332 120.153C123.959 124.852 117.05 129.174 115.289 141.026C116.109 135.499 116.715 129.873 119.702 125.002C124.8 116.644 133.491 116.687 140.543 111.275C147.594 105.862 150.232 96.0067 150.011 87.5777C149.861 81.8657 147.915 75.3193 150.624 71.5112ZM150.232 72.5452C150.31 72.3028 150.382 72.0675 150.453 71.8321C150.357 72.0623 150.283 72.3011 150.232 72.5452V72.5452Z" fill="url(#paint11_linear)"/>
<path d="M124.85 56.25C128.693 62.3971 135.203 66.0767 132.843 74.4273C130.483 82.7779 123.196 84.6463 130.412 93.1181C127.438 89.6238 123.282 90.1444 121.464 84.9172C120.13 81.0878 123.032 77.6649 125.1 74.7696C131.702 65.4991 123.239 59.7086 118.868 52.7058C120.173 54.8024 123.538 54.1463 124.85 56.25Z" fill="url(#paint12_linear)"/>
<path d="M178.317 160.109C185.382 164.188 192.163 168.666 195.592 176.432C191.043 173.743 190.117 173.166 187.45 168.666C185.033 164.58 181.489 161.186 176.563 160.686C171.935 160.209 167.479 162.569 163.237 164.009C158.688 165.557 157.961 160.444 154.724 161.221C162.816 159.274 170.345 155.502 178.317 160.109ZM190.437 173.38L190.124 173.194C190.226 173.264 190.333 173.326 190.445 173.38H190.437Z" fill="#FF6126"/>
<path d="M68.9234 96.1281C78.1138 103.687 79.2046 116.402 75.2975 127.013C75.4329 126.635 70.2281 124.203 69.7077 123.861C69.5722 123.761 71.8466 109.898 71.4901 107.78C70.7214 103.255 68.7654 99.0151 65.8219 95.4934C63.6829 93.0974 56.7527 88.7402 53.6298 88.1626C59.3195 89.2251 64.5242 92.5625 68.9234 96.1281Z" fill="#7CDE3E"/>
<path d="M156.549 46.9234C154.988 47.6366 152.935 46.3886 151.951 44.1779C150.967 41.9673 151.437 39.6211 152.999 38.9223C154.56 38.2234 156.614 39.4571 157.597 41.6678C158.581 43.8784 158.111 46.2531 156.549 46.9234Z" fill="#FF6126"/>
<path d="M160.521 33.0599C158.966 33.7731 156.906 32.5251 155.922 30.3145C154.938 28.1038 155.409 25.7505 156.963 25.0588C158.517 24.3671 160.585 25.5936 161.569 27.8043C162.553 30.0149 162.082 32.3611 160.521 33.0599Z" fill="#7CDE3E"/>
<path d="M221.331 108.921C219.356 111.873 216.219 113.243 214.322 111.98C212.426 110.718 212.504 107.288 214.479 104.336C216.454 101.384 219.591 100.007 221.481 101.277C223.37 102.546 223.306 105.962 221.331 108.921Z" fill="#7CDE3E"/>
<path d="M240.24 126.315C238.507 127.142 236.675 126.899 236.162 125.801C235.648 124.703 236.611 123.127 238.343 122.314C240.076 121.501 241.908 121.729 242.422 122.835C242.935 123.94 241.965 125.502 240.24 126.315Z" fill="#FF6126"/>
<path d="M248.454 140.234C248.454 140.234 263.59 126.742 268.845 132.861C274.1 138.979 263.006 139.685 263.006 139.685C263.006 139.685 275.005 145.768 268.71 150.667C262.414 155.566 256.254 139.728 248.454 140.234Z" fill="url(#paint13_linear)"/>
<path d="M207.713 32.0902L201.332 0L212.155 0.263852C212.155 0.263852 212.683 29.3376 211.692 30.9278C210.701 32.5181 207.713 32.0902 207.713 32.0902Z" fill="url(#paint14_linear)"/>
<path d="M236.575 61.5343C236.575 61.5343 250.835 36.5753 254.357 40.6614C257.879 44.7476 258.699 51.7004 258.699 51.7004L236.575 61.5343Z" fill="url(#paint15_linear)"/>
<path d="M131.381 33.9375C131.381 33.9375 124.508 13.4069 121.799 15.7388C119.089 18.0707 116.238 20.8447 116.238 20.8447L128.43 35.6419L131.381 33.9375Z" fill="url(#paint16_linear)"/>
<path d="M107.111 46.6586C105.036 47.5857 102.27 45.9455 100.944 42.9219C99.6178 39.8983 100.231 36.7606 102.299 35.8335C104.366 34.9065 107.14 36.5467 108.473 39.5774C109.806 42.6081 109.193 45.7387 107.111 46.6586Z" fill="#FFB026"/>
<path d="M228.325 162.148C227.028 162.726 225.266 161.613 224.404 159.666C223.541 157.72 223.883 155.666 225.181 155.088C226.479 154.511 228.24 155.623 229.102 157.577C229.965 159.531 229.601 161.57 228.325 162.148Z" fill="#7CDE3E"/>
<path d="M238.464 90.4234C236.91 91.1365 235.177 90.623 234.6 89.318C234.022 88.013 234.814 86.4085 236.375 85.7096C237.937 85.0108 239.662 85.51 240.24 86.8078C240.817 88.1057 240.026 89.7459 238.464 90.4234Z" fill="#FF6126"/>
<path d="M253.437 111.103C252.923 111.338 252.35 111.415 251.792 111.323C251.233 111.232 250.715 110.976 250.302 110.589C249.89 110.202 249.601 109.701 249.474 109.15C249.347 108.598 249.387 108.022 249.588 107.493C249.789 106.964 250.143 106.507 250.605 106.18C251.067 105.853 251.615 105.671 252.181 105.657C252.746 105.642 253.303 105.797 253.781 106.1C254.259 106.403 254.635 106.841 254.863 107.359C255.165 108.046 255.185 108.823 254.918 109.524C254.651 110.224 254.119 110.792 253.437 111.103Z" fill="#FFB026"/>
<path d="M221.41 187.329C219.855 188.99 216.911 188.755 214.836 186.808C212.761 184.861 212.347 181.938 213.916 180.276C215.485 178.614 218.422 178.85 220.49 180.797C222.557 182.743 222.971 185.667 221.41 187.329Z" fill="url(#paint17_linear)"/>
<path d="M233.659 202.054C233.252 202.295 232.782 202.406 232.311 202.374C231.84 202.341 231.389 202.166 231.02 201.872C230.65 201.578 230.379 201.178 230.241 200.726C230.104 200.274 230.107 199.791 230.25 199.341C230.393 198.89 230.67 198.494 231.043 198.205C231.416 197.915 231.869 197.746 232.34 197.719C232.812 197.693 233.281 197.81 233.684 198.056C234.088 198.301 234.407 198.664 234.6 199.095C234.865 199.613 234.915 200.214 234.739 200.769C234.563 201.323 234.174 201.785 233.659 202.054Z" fill="#FFB226"/>
<path d="M98.0698 152.728C97.3481 153.05 96.5472 153.151 95.7684 153.017C94.9895 152.883 94.2679 152.522 93.6947 151.978C93.1216 151.434 92.7227 150.732 92.5487 149.961C92.3746 149.19 92.4332 148.384 92.717 147.647C93.0008 146.909 93.4971 146.272 94.1429 145.817C94.7888 145.362 95.5552 145.108 96.3452 145.089C97.1352 145.069 97.9131 145.285 98.5806 145.708C99.248 146.131 99.775 146.743 100.095 147.465C100.307 147.944 100.424 148.46 100.437 148.983C100.45 149.507 100.36 150.028 100.172 150.516C99.9844 151.005 99.7019 151.452 99.3411 151.832C98.9804 152.211 98.5484 152.516 98.0698 152.728Z" fill="#FF6126"/>
<path d="M120.187 175.997C116.971 176.582 114.212 176.232 114.033 175.227C113.855 174.221 116.315 172.938 119.531 172.374C122.746 171.811 125.505 172.139 125.691 173.144C125.876 174.15 123.409 175.426 120.187 175.997Z" fill="#FF6126"/>
<path d="M181.775 16.8509C180.969 15.0396 178.153 16.2875 178.958 18.0988C179.764 19.9101 182.58 18.6622 181.775 16.8509Z" fill="#7CDE3E"/>
<path d="M157.441 3.99364C156.642 2.19659 153.876 3.43028 154.66 5.23446C155.444 7.03865 158.239 5.78356 157.441 3.99364Z" fill="#7CDE3E"/>
<path d="M268.046 76.1607C267.233 74.3494 264.424 75.6045 265.23 77.4158C266.036 79.2271 268.816 77.9791 268.046 76.1607Z" fill="#FF6126"/>
<path d="M36.133 73.1443C35.2774 71.226 32.2971 72.5524 33.1527 74.4707C34.0083 76.3889 36.9886 75.0625 36.133 73.1443Z" fill="#FFB026"/>
<path d="M37.4164 100.892C37.379 100.612 37.2665 100.347 37.0907 100.126C36.9149 99.905 36.6825 99.7358 36.4182 99.6364C36.0085 99.4856 35.5559 99.5022 35.1583 99.6825C34.7606 99.8629 34.45 100.193 34.2935 100.6C34.1371 101.008 34.1473 101.461 34.3221 101.861C34.4969 102.261 34.8221 102.576 35.2275 102.739C35.4907 102.841 35.7766 102.871 36.0552 102.824C36.3338 102.778 36.5947 102.657 36.8103 102.475C36.9945 102.476 37.1746 102.421 37.3266 102.317C37.4786 102.213 37.5953 102.065 37.6611 101.893C37.7269 101.721 37.7388 101.533 37.6951 101.354C37.6513 101.175 37.5541 101.014 37.4164 100.892V100.892Z" fill="#FFB026"/>
<path d="M162.232 209.856C161.255 207.667 157.868 209.143 158.838 211.36C159.808 213.578 163.201 212.045 162.232 209.856Z" fill="#FF6126"/>
<path d="M105.3 163.874C105.441 163.628 105.513 163.348 105.507 163.065C105.501 162.782 105.417 162.506 105.266 162.266C105.114 162.027 104.9 161.834 104.646 161.707C104.393 161.581 104.11 161.526 103.827 161.549C103.545 161.572 103.274 161.672 103.044 161.837C102.814 162.003 102.634 162.228 102.523 162.489C102.412 162.749 102.374 163.035 102.414 163.316C102.453 163.596 102.569 163.861 102.748 164.08C102.972 164.349 103.277 164.539 103.617 164.622C103.777 164.684 103.947 164.714 104.118 164.71C104.29 164.706 104.458 164.668 104.615 164.598C104.771 164.529 104.912 164.429 105.03 164.304C105.147 164.18 105.239 164.034 105.3 163.874V163.874Z" fill="#FF6126"/>
<path d="M105.706 140.341C105.577 140.049 105.336 139.82 105.038 139.705C104.74 139.59 104.408 139.598 104.116 139.728C103.824 139.857 103.595 140.098 103.48 140.396C103.365 140.694 103.374 141.026 103.503 141.318C103.633 141.61 103.873 141.839 104.171 141.954C104.469 142.069 104.801 142.061 105.093 141.931C105.385 141.802 105.614 141.561 105.729 141.263C105.844 140.965 105.836 140.633 105.706 140.341V140.341Z" fill="#FF6126"/>
<path d="M87.0973 165.5C86.1632 163.403 82.912 164.851 83.8389 166.926C84.7658 169.001 88.0313 167.603 87.0973 165.5Z" fill="#FFB026"/>
<path d="M100.673 184.412C100.543 184.162 100.323 183.972 100.058 183.879C99.7932 183.785 99.5026 183.797 99.2456 183.91C98.9886 184.024 98.7844 184.231 98.6747 184.49C98.565 184.749 98.5579 185.039 98.6549 185.303C98.7845 185.552 99.0042 185.743 99.2693 185.836C99.5344 185.929 99.825 185.918 100.082 185.804C100.339 185.691 100.543 185.484 100.653 185.225C100.763 184.966 100.77 184.675 100.673 184.412V184.412Z" fill="#FFB026"/>
<path d="M73.287 143.194C73.3305 143.163 73.3758 143.134 73.4225 143.108C73.7362 142.873 73.9358 142.73 73.287 143.194Z" fill="#FF6126"/>
<path d="M76.859 144.57C76.8008 144.201 76.649 143.853 76.4181 143.56C76.1872 143.266 75.8848 143.037 75.54 142.894C75.1952 142.751 74.8194 142.699 74.4486 142.742C74.0779 142.786 73.7245 142.924 73.4224 143.143C73.2219 143.289 73.0378 143.457 72.8734 143.643C72.6459 143.95 72.51 144.316 72.4812 144.698C72.4794 144.982 72.5154 145.265 72.5882 145.539C72.5922 145.573 72.5922 145.606 72.5882 145.639C72.5882 145.703 72.6381 145.768 72.6737 145.832C72.7825 146.094 72.9435 146.331 73.147 146.528C73.3506 146.726 73.5923 146.879 73.8573 146.98C74.2209 147.123 74.6159 147.167 75.0021 147.109C75.3884 147.05 75.7523 146.89 76.057 146.645C76.3617 146.401 76.5963 146.08 76.7371 145.715C76.878 145.351 76.92 144.956 76.859 144.57V144.57Z" fill="#FFB026"/>
<path d="M175.557 82.6286C175.413 82.3733 175.179 82.1809 174.901 82.089C174.623 81.9972 174.32 82.0125 174.053 82.1321C173.785 82.2516 173.572 82.4667 173.454 82.7353C173.337 83.0039 173.324 83.3066 173.418 83.5842C173.562 83.8395 173.796 84.0319 174.075 84.1238C174.353 84.2156 174.655 84.2003 174.923 84.0807C175.191 83.9612 175.404 83.7461 175.521 83.4775C175.639 83.2089 175.651 82.9062 175.557 82.6286V82.6286Z" fill="#FF6126"/>
<path d="M170.267 93.0117C170.148 92.7842 169.946 92.6106 169.703 92.5262C169.461 92.4418 169.195 92.4529 168.96 92.5572C168.725 92.6615 168.539 92.8512 168.439 93.0879C168.338 93.3246 168.332 93.5905 168.421 93.8318C168.54 94.0593 168.742 94.2329 168.984 94.3172C169.227 94.4016 169.493 94.3906 169.728 94.2863C169.963 94.182 170.149 93.9922 170.249 93.7556C170.349 93.5189 170.356 93.253 170.267 93.0117V93.0117Z" fill="#FF6126"/>
<path d="M239.434 179.363C238.536 177.338 235.391 178.735 236.29 180.789C237.188 182.843 240.34 181.388 239.434 179.363Z" fill="#7CDE3E"/>
<path d="M245.437 185.981C245.314 185.746 245.106 185.568 244.856 185.482C244.606 185.395 244.333 185.407 244.091 185.515C243.85 185.623 243.658 185.819 243.556 186.063C243.454 186.307 243.448 186.581 243.541 186.829C243.664 187.063 243.872 187.242 244.122 187.328C244.372 187.415 244.646 187.403 244.887 187.295C245.129 187.187 245.32 186.991 245.422 186.747C245.524 186.502 245.53 186.229 245.437 185.981V185.981Z" fill="#FFB226"/>
<path d="M222.279 41.9811C222.176 41.7495 222.006 41.5539 221.791 41.4189C221.576 41.2839 221.326 41.2157 221.072 41.2228C220.819 41.2299 220.573 41.312 220.366 41.4588C220.159 41.6056 220 41.8104 219.909 42.0475C219.819 42.2845 219.801 42.5431 219.857 42.7905C219.913 43.038 220.041 43.2632 220.226 43.4377C220.41 43.6123 220.642 43.7283 220.892 43.7711C221.142 43.8139 221.399 43.7816 221.631 43.6783C221.939 43.5367 222.18 43.2796 222.301 42.9622C222.423 42.6449 222.415 42.2927 222.279 41.9811V41.9811Z" fill="#7CDE3E"/>
<path d="M227.356 31.2701C226.643 29.6371 224.09 30.7638 224.817 32.404C225.545 34.0442 228.083 32.9103 227.356 31.2701Z" fill="#7CDE3E"/>
<path d="M176.725 191.974C216.524 191.974 248.788 159.711 248.788 119.911C248.788 80.1124 216.524 47.8489 176.725 47.8489C136.926 47.8489 104.663 80.1124 104.663 119.911C104.663 159.711 136.926 191.974 176.725 191.974Z" fill="#3DC640"/>
<path d="M176.725 183.124C211.637 183.124 239.938 154.823 239.938 119.911C239.938 84.9997 211.637 56.6984 176.725 56.6984C141.814 56.6984 113.512 84.9997 113.512 119.911C113.512 154.823 141.814 183.124 176.725 183.124Z" fill="#00AF00"/>
<path d="M217.73 121.511C217.727 120.163 217.349 118.843 216.636 117.699C215.924 116.556 214.906 115.634 213.697 115.037C215.155 114.31 216.324 113.112 217.016 111.637C217.708 110.163 217.882 108.498 217.511 106.912C217.139 105.326 216.243 103.912 214.967 102.899C213.692 101.886 212.112 101.332 210.484 101.328H209.311L191.691 101.709C191.691 101.709 195.411 86.0468 194.041 77.6311C192.67 69.2155 181.314 65.4912 181.12 74.8894C180.926 84.2875 179.749 87.4177 172.506 95.643C167.769 101.016 165.21 105.22 164.003 107.49C163.408 108.621 163.101 109.882 163.108 111.161V146.739C163.108 147.673 163.479 148.569 164.14 149.229C164.8 149.89 165.696 150.261 166.631 150.261H210.484C214.486 150.261 218.069 147.333 217.749 143.346C217.486 140.094 213.499 138.868 213.499 138.868C213.499 138.868 218.393 138.315 218.393 133.582C218.393 129.176 215.651 128.102 213.709 127.969C214.913 127.372 215.927 126.452 216.637 125.311C217.347 124.17 217.726 122.854 217.73 121.511Z" fill="white"/>
<path d="M146.924 108.591H144.053C138.07 108.591 133.219 113.441 133.219 119.424V147.158C133.219 153.141 138.07 157.992 144.053 157.992H146.924C152.908 157.992 157.758 153.141 157.758 147.158V119.424C157.758 113.441 152.908 108.591 146.924 108.591Z" fill="white"/>
<path d="M149.616 152.39C149.271 152.39 148.93 152.322 148.611 152.189C148.293 152.057 148.003 151.864 147.759 151.62C147.516 151.376 147.323 151.086 147.191 150.767C147.059 150.448 146.992 150.107 146.992 149.762V149.762C146.992 149.066 147.269 148.399 147.761 147.907C148.253 147.415 148.92 147.138 149.616 147.138C150.312 147.138 150.979 147.415 151.471 147.907C151.963 148.399 152.24 149.066 152.24 149.762C152.24 150.107 152.173 150.448 152.041 150.767C151.91 151.086 151.716 151.376 151.473 151.62C151.229 151.864 150.94 152.057 150.621 152.189C150.302 152.322 149.961 152.39 149.616 152.39V152.39Z" fill="#00AF00"/>
</g>
<defs>
<filter id="filter0_d" x="0" y="0" width="349" height="392" filterUnits="userSpaceOnUse" color-interpolation-filters="sRGB">
<feFlood flood-opacity="0" result="BackgroundImageFix"/>
<feColorMatrix in="SourceAlpha" type="matrix" values="0 0 0 0 0 0 0 0 0 0 0 0 0 0 0 0 0 0 127 0"/>
<feOffset dy="4"/>
<feGaussianBlur stdDeviation="2"/>
<feColorMatrix type="matrix" values="0 0 0 0 0 0 0 0 0 0 0 0 0 0 0 0 0 0 0.25 0"/>
<feBlend mode="normal" in2="BackgroundImageFix" result="effect1_dropShadow"/>
<feBlend mode="normal" in="SourceGraphic" in2="effect1_dropShadow" result="shape"/>
</filter>
<linearGradient id="paint0_linear" x1="174.5" y1="198" x2="174.5" y2="384" gradientUnits="userSpaceOnUse">
<stop stop-color="#027B32"/>
<stop offset="0.4375" stop-color="#00A441"/>
<stop offset="1" stop-color="#07AF49"/>
</linearGradient>
<radialGradient id="paint1_radial" cx="0" cy="0" r="1" gradientUnits="userSpaceOnUse" gradientTransform="translate(240.719 141.529) rotate(90) scale(58.1052 89.1647)">
<stop stop-color="#00A441"/>
<stop offset="1" stop-color="#028636"/>
</radialGradient>
<radialGradient id="paint2_radial" cx="0" cy="0" r="1" gradientUnits="userSpaceOnUse" gradientTransform="translate(101.5 158.5) rotate(90) scale(41.5 81.5)">
<stop stop-color="#00A441"/>
<stop offset="1" stop-color="#028636"/>
</radialGradient>
<linearGradient id="paint3_linear" x1="64.1337" y1="34.9744" x2="68.0664" y2="62.3623" gradientUnits="userSpaceOnUse">
<stop stop-color="#FFDB00"/>
<stop offset="0.06" stop-color="#FFE416"/>
<stop offset="0.16" stop-color="#FFEF35"/>
<stop offset="0.26" stop-color="#FFF84C"/>
<stop offset="0.35" stop-color="#FFFD59"/>
<stop offset="0.43" stop-color="#FFFF5E"/>
<stop offset="0.51" stop-color="#FEF248"/>
<stop offset="0.64" stop-color="#FDE029"/>
<stop offset="0.77" stop-color="#FCD312"/>
<stop offset="0.89" stop-color="#FBCC05"/>
<stop offset="1" stop-color="#FBC900"/>
</linearGradient>
<linearGradient id="paint4_linear" x1="14207.9" y1="14553.7" x2="15032.8" y2="14553.7" gradientUnits="userSpaceOnUse">
<stop stop-color="#FFDB00"/>
<stop offset="0.06" stop-color="#FFE416"/>
<stop offset="0.16" stop-color="#FFEF35"/>
<stop offset="0.26" stop-color="#FFF84C"/>
<stop offset="0.35" stop-color="#FFFD59"/>
<stop offset="0.43" stop-color="#FFFF5E"/>
<stop offset="0.51" stop-color="#FEF248"/>
<stop offset="0.64" stop-color="#FDE029"/>
<stop offset="0.77" stop-color="#FCD312"/>
<stop offset="0.89" stop-color="#FBCC05"/>
<stop offset="1" stop-color="#FBC900"/>
</linearGradient>
<linearGradient id="paint5_linear" x1="178.081" y1="38.9643" x2="181.604" y2="63.5005" gradientUnits="userSpaceOnUse">
<stop stop-color="#FF5690"/>
<stop offset="0.23" stop-color="#FB4E80"/>
<stop offset="0.72" stop-color="#F33E61"/>
<stop offset="1" stop-color="#F03856"/>
</linearGradient>
<linearGradient id="paint6_linear" x1="153.92" y1="72.1156" x2="165.571" y2="153.256" gradientUnits="userSpaceOnUse">
<stop stop-color="#FFB226"/>
<stop offset="0.25" stop-color="#FF8B26"/>
<stop offset="0.49" stop-color="#FF6C26"/>
<stop offset="0.63" stop-color="#FF6126"/>
<stop offset="1" stop-color="#FFB226"/>
</linearGradient>
<linearGradient id="paint7_linear" x1="131.466" y1="184.253" x2="132.431" y2="190.973" gradientUnits="userSpaceOnUse">
<stop stop-color="#3DC540"/>
<stop offset="0.56" stop-color="#44B139"/>
<stop offset="1" stop-color="#47A736"/>
</linearGradient>
<linearGradient id="paint8_linear" x1="10435.8" y1="8516.02" x2="10696.3" y2="8516.02" gradientUnits="userSpaceOnUse">
<stop stop-color="#3DC540"/>
<stop offset="0.56" stop-color="#44B139"/>
<stop offset="1" stop-color="#47A736"/>
</linearGradient>
<linearGradient id="paint9_linear" x1="10898.2" y1="9618.96" x2="11208.6" y2="9618.96" gradientUnits="userSpaceOnUse">
<stop stop-color="#3DC540"/>
<stop offset="0.56" stop-color="#44B139"/>
<stop offset="1" stop-color="#47A736"/>
</linearGradient>
<linearGradient id="paint10_linear" x1="90.4365" y1="57.1829" x2="101.097" y2="131.427" gradientUnits="userSpaceOnUse">
<stop stop-color="#00C4B8"/>
<stop offset="0.35" stop-color="#00FDD4"/>
<stop offset="0.53" stop-color="#00EACB"/>
<stop offset="0.83" stop-color="#00CEBD"/>
<stop offset="1" stop-color="#00C4B8"/>
</linearGradient>
<linearGradient id="paint11_linear" x1="19581.1" y1="18518.5" x2="20675.6" y2="20137.9" gradientUnits="userSpaceOnUse">
<stop stop-color="#00C4B8"/>
<stop offset="0.35" stop-color="#00FDD4"/>
<stop offset="0.53" stop-color="#00EACB"/>
<stop offset="0.83" stop-color="#00CEBD"/>
<stop offset="1" stop-color="#00C4B8"/>
</linearGradient>
<linearGradient id="paint12_linear" x1="5488.65" y1="32250.8" x2="6333.96" y2="32250.8" gradientUnits="userSpaceOnUse">
<stop stop-color="#FFDB00"/>
<stop offset="0.06" stop-color="#FFE416"/>
<stop offset="0.16" stop-color="#FFEF35"/>
<stop offset="0.26" stop-color="#FFF84C"/>
<stop offset="0.35" stop-color="#FFFD59"/>
<stop offset="0.43" stop-color="#FFFF5E"/>
<stop offset="0.51" stop-color="#FEF248"/>
<stop offset="0.64" stop-color="#FDE029"/>
<stop offset="0.77" stop-color="#FCD312"/>
<stop offset="0.89" stop-color="#FBCC05"/>
<stop offset="1" stop-color="#FBC900"/>
</linearGradient>
<linearGradient id="paint13_linear" x1="11488.2" y1="12854.1" x2="12120.2" y2="12854.1" gradientUnits="userSpaceOnUse">
<stop stop-color="#FF5690"/>
<stop offset="0.23" stop-color="#FB4E80"/>
<stop offset="0.72" stop-color="#F33E61"/>
<stop offset="1" stop-color="#F03856"/>
</linearGradient>
<linearGradient id="paint14_linear" x1="3645.71" y1="21570.2" x2="4151.67" y2="21570.2" gradientUnits="userSpaceOnUse">
<stop stop-color="#00C4B8"/>
<stop offset="0.35" stop-color="#00FDD4"/>
<stop offset="0.53" stop-color="#00EACB"/>
<stop offset="0.83" stop-color="#00CEBD"/>
<stop offset="1" stop-color="#00C4B8"/>
</linearGradient>
<linearGradient id="paint15_linear" x1="8651.87" y1="13380.5" x2="9232.84" y2="13380.5" gradientUnits="userSpaceOnUse">
<stop stop-color="#FFB226"/>
<stop offset="0.25" stop-color="#FF8B26"/>
<stop offset="0.49" stop-color="#FF6C26"/>
<stop offset="0.63" stop-color="#FF6126"/>
<stop offset="1" stop-color="#FFB226"/>
</linearGradient>
<linearGradient id="paint16_linear" x1="4962.72" y1="15918.4" x2="5403.41" y2="15918.4" gradientUnits="userSpaceOnUse">
<stop stop-color="#3DC540"/>
<stop offset="0.56" stop-color="#44B139"/>
<stop offset="1" stop-color="#47A736"/>
</linearGradient>
<linearGradient id="paint17_linear" x1="5527.65" y1="6597.67" x2="5653.41" y2="6597.67" gradientUnits="userSpaceOnUse">
<stop stop-color="#00C4B8"/>
<stop offset="0.35" stop-color="#00FDD4"/>
<stop offset="0.53" stop-color="#00EACB"/>
<stop offset="0.83" stop-color="#00CEBD"/>
<stop offset="1" stop-color="#00C4B8"/>
</linearGradient>
</defs>
</svg>
