<svg width="341" height="317" viewBox="0 0 341 317" fill="none" xmlns="http://www.w3.org/2000/svg">
<rect y="160" width="341" height="157" rx="19" fill="url(#paint0_radial)"/>
<path d="M279.55 152.61C277.515 147.481 275.996 142.036 274.339 136.286C273.219 132.409 271.417 128.075 267.515 126.855C263.712 125.668 259.621 128.129 257.287 131.304C254.953 134.478 253.772 138.322 251.771 141.715C248.146 147.857 241.732 150.432 236.427 145.031C228.849 137.315 225.44 126.801 220.633 117.392C217.146 110.564 214.225 102.565 209.829 96.2703C203.127 86.6707 193.936 78.4868 181.718 78.4868C173.974 79.6412 167.15 86.3767 162.526 94.8002C157.909 103.224 155.215 113.237 152.92 123.229C148.745 141.399 145.685 158.605 142.631 177.173C142.631 177.173 296.801 176.792 296.806 176.792C296.191 176.797 292.41 171.837 291.69 171.151C285.769 165.52 282.216 159.335 279.55 152.61Z" fill="#1F1F20"/>
<path d="M250.288 161.268C249.983 167.154 243.464 177.445 237.472 177.151C231.479 176.857 228.28 166.082 228.585 160.195C228.89 154.309 235.271 124.852 241.263 125.146C247.256 125.44 250.593 155.382 250.288 161.268Z" fill="#EFAF3F"/>
<path d="M240.973 128.974L237.952 176.678" stroke="#2A294F" stroke-width="0.692901" stroke-miterlimit="10" stroke-linecap="round" stroke-linejoin="round"/>
<path d="M236.573 160.043C235.209 162.988 234.167 166.076 233.541 169.299C233.225 170.933 233.02 172.702 233.774 174.189C234.594 175.817 236.418 176.764 238.242 177.058C242.699 177.777 247.15 175.098 249.761 171.477C252.372 167.862 253.503 163.44 254.539 159.122C255.354 155.725 256.158 152.278 257.699 149.109C258.359 147.753 262.228 142.51 260.399 141.154C257.899 139.221 250.653 141.323 246.014 146.299C242.194 150.394 238.907 155.006 236.573 160.043Z" fill="#FFC957"/>
<path d="M238.24 177.053C238.24 177.053 243.617 156.487 256.606 144.693" stroke="#2A294F" stroke-width="0.692901" stroke-miterlimit="10" stroke-linecap="round" stroke-linejoin="round"/>
<path d="M268.075 155.192C267.615 156.003 266.75 156.553 265.968 156.988C265.004 157.522 263.973 157.99 262.98 158.448C261.705 159.03 260.386 159.635 259.167 160.386C258.28 160.936 257.487 161.551 256.827 162.216C257.875 159.88 259.094 157.843 260.536 156.019C262.432 153.623 264.377 152.409 266.323 152.409C266.367 152.409 266.412 152.409 266.456 152.409C267.06 152.426 267.526 152.573 267.848 152.845C268.507 153.4 268.48 154.473 268.075 155.192Z" fill="#FFC957"/>
<path d="M270.243 168.488C269.473 169.027 268.453 169.163 267.555 169.229C266.452 169.305 265.315 169.299 264.218 169.289C262.81 169.278 261.352 169.267 259.927 169.436C258.885 169.555 257.904 169.784 257.017 170.105C258.979 168.434 260.975 167.105 263.07 166.065C265.831 164.693 268.115 164.415 269.872 165.232C269.911 165.248 269.955 165.27 269.994 165.292C270.532 165.559 270.892 165.891 271.064 166.272C271.419 167.056 270.925 168.014 270.243 168.488Z" fill="#FFC957"/>
<path d="M265.121 175.034C264.483 174.947 263.907 174.544 263.43 174.162C262.842 173.694 262.283 173.166 261.739 172.66C261.041 172.006 260.326 171.331 259.533 170.759C258.957 170.34 258.358 170.002 257.765 169.752C259.539 169.823 261.163 170.079 262.704 170.531C264.727 171.119 266.002 172.033 266.485 173.248C266.496 173.275 266.507 173.302 266.518 173.335C266.656 173.716 266.679 174.043 266.584 174.315C266.385 174.859 265.681 175.11 265.121 175.034Z" fill="#FFC957"/>
<path d="M250.536 177.168C250.536 177.168 250.597 164.585 266.241 153.901" stroke="#2A294F" stroke-width="0.692901" stroke-miterlimit="10" stroke-linecap="round" stroke-linejoin="round"/>
<path d="M250.536 177.168C250.536 177.168 255.342 167.056 268.364 167.056" stroke="#2A294F" stroke-width="0.692901" stroke-miterlimit="10" stroke-linecap="round" stroke-linejoin="round"/>
<path d="M257.627 169.871C257.627 169.871 260.149 169.692 265.416 173.59" stroke="#2A294F" stroke-width="0.692901" stroke-miterlimit="10" stroke-linecap="round" stroke-linejoin="round"/>
<path d="M151.663 177.473C146.575 164.056 141.455 150.634 135.47 137.642C132.091 130.313 128.368 123.017 123.194 117.158C118.02 111.298 111.168 106.973 104.284 107C93.6864 108.431 86.8422 115.727 82.3548 123.812C79.4126 129.111 77.9845 135.531 75.9086 141.135C73.0445 148.85 71.5383 157.245 66.0363 163.991C62.1811 168.719 56.2578 167.511 52.2621 163.267C50.0613 160.922 48.5005 158.137 46.0344 155.999C43.5683 153.86 39.674 152.468 36.5445 153.817C33.3214 155.204 32.3615 158.708 31.9245 161.787C31.2845 166.352 30.7148 170.667 29.6613 174.807C29.435 175.71 29.1774 176.597 28.8965 177.484H151.663V177.473Z" fill="#1F1F20"/>
<path d="M83.766 158.747C81.5043 156.188 78.6438 153.977 77.7458 150.748C77.0861 148.39 77.6072 145.891 77.8622 143.457C78.1172 141.023 78.0285 138.333 76.4264 136.46C75.1071 134.914 73.0172 134.244 71.0104 133.819C69.0037 133.395 66.9082 133.128 65.1288 132.126C62.2351 130.498 62.8116 127.726 61.2594 125.298C59.5188 122.57 55.4609 119.091 51.9907 120.904C48.3098 122.82 48.8919 128.647 51.3421 131.217C52.9664 132.921 55.0452 134.56 55.2835 136.879C55.6439 140.375 51.5639 143.528 52.6836 146.866C53.5152 149.332 56.675 150.176 58.2382 152.273C59.7849 154.347 59.4744 157.249 58.5597 159.656C57.6506 162.063 56.2149 164.29 55.6494 166.8C54.4908 171.929 58.5875 175.479 63.2606 176.623C67.5513 177.674 76.8089 177.178 76.8089 177.178C80.1128 176.046 83.7771 173.192 85.5898 170.078C86.9646 167.726 87.1531 164.742 86.0887 162.237C85.5455 160.941 84.7084 159.814 83.766 158.747Z" fill="#FFC957"/>
<path d="M56.1006 126.43C56.1006 126.43 71.9051 150.41 73.6236 177.036" stroke="#2A294F" stroke-width="0.692901" stroke-miterlimit="10" stroke-linecap="round" stroke-linejoin="round"/>
<path d="M42.026 158.774C42.2699 158.568 42.6247 158.459 43.0793 158.448C43.1126 158.448 43.1458 158.448 43.1791 158.448C44.6481 158.448 46.1227 159.368 47.5529 161.181C48.645 162.559 49.5652 164.1 50.3579 165.864C49.859 165.363 49.2603 164.895 48.5895 164.481C47.6693 163.915 46.6715 163.457 45.7069 163.016C44.953 162.673 44.1769 162.319 43.4452 161.911C42.852 161.584 42.1979 161.165 41.8542 160.555C41.5438 160.01 41.5271 159.199 42.026 158.774Z" fill="#FFC957"/>
<path d="M39.5914 168.93C39.7245 168.641 39.9961 168.391 40.4008 168.189C40.4285 168.173 40.4618 168.156 40.4895 168.146C41.8199 167.525 43.5495 167.737 45.6338 168.777C47.2193 169.567 48.7271 170.569 50.2072 171.832C49.5365 171.587 48.7936 171.418 48.0064 171.325C46.9255 171.2 45.8223 171.206 44.758 171.211C43.9264 171.217 43.0727 171.222 42.2357 171.162C41.5594 171.113 40.7833 171.01 40.2068 170.607C39.6968 170.247 39.3253 169.523 39.5914 168.93Z" fill="#FFC957"/>
<path d="M42.9775 175.006C42.9054 174.805 42.9221 174.554 43.0274 174.266C43.0329 174.244 43.044 174.222 43.0496 174.2C43.4154 173.28 44.3745 172.589 45.91 172.142C47.0741 171.805 48.3048 171.609 49.6463 171.554C49.1973 171.745 48.7427 172.001 48.3103 172.317C47.7116 172.752 47.1684 173.264 46.6418 173.754C46.2315 174.141 45.8102 174.538 45.3668 174.892C45.0064 175.181 44.574 175.486 44.0917 175.551C43.6594 175.611 43.1272 175.42 42.9775 175.006Z" fill="#FFC957"/>
<path d="M55.1124 177.168C55.1124 177.168 55.0681 167.65 43.2383 159.575" stroke="#2A294F" stroke-width="0.692901" stroke-miterlimit="10" stroke-linecap="round" stroke-linejoin="round"/>
<path d="M55.1126 177.167C55.1126 177.167 51.4816 169.522 41.6309 169.522" stroke="#2A294F" stroke-width="0.692901" stroke-miterlimit="10" stroke-linecap="round" stroke-linejoin="round"/>
<path d="M49.7524 171.652C49.7524 171.652 47.8455 171.516 43.8652 174.467" stroke="#2A294F" stroke-width="0.692901" stroke-miterlimit="10" stroke-linecap="round" stroke-linejoin="round"/>
<g clip-path="url(#clip0)">
<path d="M267.056 108.024C266.342 115.362 265.443 122.69 264.382 129.986C262.812 140.691 260.236 150.652 261.177 161.42C261.654 165.456 262.228 169.842 262.423 174.207C262.455 175.014 262.477 175.81 262.487 176.607H76.7944C76.0907 175.831 75.4303 175.035 74.8132 174.207C67.408 164.266 66.9858 152.351 70.1254 140.903C73.6981 127.862 77.4981 114.555 91.031 108.608C96.6607 106.134 102.745 104.562 107.942 101.312C120.132 93.6768 121.54 79.064 126.227 66.8725C128.804 60.1608 132.409 53.6296 137.985 48.9994C165.624 26.0394 191.304 66.6601 219.572 64.8122C230.463 64.1007 242.329 55.1801 252.993 60.7024C267.208 68.0619 268.983 83.896 267.922 97.9459C267.673 101.291 267.381 104.658 267.056 108.024Z" fill="#FF9C00"/>
<path d="M230.257 115.585C229.846 116.392 229.543 117.263 229.315 118.145C229.099 119.026 228.947 119.908 228.861 120.821C228.806 121.384 228.936 122.212 228.612 122.722C229.055 123.083 229.618 123.391 230.106 123.731C229.348 123.699 229.034 123.571 228.915 124.368C228.72 125.887 228.763 127.437 228.601 128.956C228.536 129.657 228.503 130.421 228.287 131.101C228.103 131.632 227.605 132.258 227.681 132.853C227.789 133.575 229.965 133.936 230.506 134.255C229.824 134.457 228.59 134.68 227.919 134.351C228.135 134.743 228.644 135.105 229.045 135.37C228.471 135.285 227.897 135.105 227.377 135.041C227.237 135.508 226.912 135.954 226.728 136.432C226.49 137.048 226.219 137.611 225.959 138.216C225.624 139.066 224.508 140.818 224.844 141.699C225.18 142.581 227.182 144.036 228.092 144.078C227.009 144.344 224.985 143.738 224.249 142.931C223.382 144.418 222.906 146.585 222.809 148.284C222.7 150.153 223.718 151.693 225.223 152.202C225.992 152.457 226.879 152.447 227.81 152.054C227.984 151.756 228.124 151.448 228.287 151.14C229.066 149.632 229.738 148.082 230.3 146.478C231.394 143.282 232.087 140 232.444 136.655C233.191 129.954 231.589 123.487 231.069 116.86C231.069 116.807 231.145 116.807 231.145 116.849C231.524 120.492 232.314 124.071 232.823 127.703C233.256 130.91 233.332 134.138 232.975 137.367C232.606 140.722 231.794 144.036 230.701 147.232C230.019 149.208 229.348 151.406 228.308 153.307C228.893 154.613 230.463 155.505 231.87 155.601C233.765 155.749 235.194 154.56 236.093 153.031C236.504 152.33 236.85 151.533 237.197 150.822C237.5 150.195 237.5 149.293 237.998 148.772C237.489 148.358 236.85 148.114 236.309 147.742C236.905 147.551 237.662 147.625 238.29 147.657C238.344 147.084 238.832 145.926 238.691 145.395C238.55 144.864 237.37 144.482 236.894 144.269C237.424 144.089 238.041 144.015 238.604 144.036C239.438 142.761 239.525 140.68 239.644 139.225C239.73 138.121 239.622 136.974 239.752 135.88C238.94 135.827 238.117 135.657 237.273 135.625C236.244 135.582 235.151 135.625 234.155 135.285C234.869 135.136 235.605 135.009 236.331 134.935C237.446 134.807 238.453 134.297 239.557 134.17C239.47 133.681 239.6 133.214 239.579 132.736C239.557 132.248 239.254 128.159 238.832 128.223C237.901 128.35 236.894 128.234 235.93 128.382C236.45 128.053 237.099 127.586 237.608 127.299C237.078 127.363 236.277 127.225 235.833 127.235C236.266 126.927 237.467 126.056 237.966 126.28C237.403 125.61 237.154 124.761 236.894 123.954C236.656 123.2 236.266 122.509 235.833 121.83C235.53 121.352 235.118 120.917 234.88 120.449C234.469 120.672 233.602 120.311 233.137 120.311C233.386 119.939 233.906 119.568 234.306 119.302C233.256 117.401 231.805 115.893 231.675 113.589C231.686 113.886 230.452 115.214 230.257 115.585Z" fill="#FF5AB1"/>
<path d="M231.09 116.86C231.609 123.497 233.212 129.954 232.465 136.655C232.107 140 231.415 143.282 230.321 146.478C229.758 148.082 229.076 149.632 228.307 151.14C228.145 151.448 228.004 151.746 227.831 152.054C227.918 152.022 228.004 151.99 228.091 151.948C228.048 152.447 228.134 152.903 228.34 153.318C229.368 151.406 230.05 149.218 230.733 147.243C231.826 144.046 232.638 140.733 233.006 137.377C233.363 134.149 233.288 130.92 232.854 127.713C232.346 124.081 231.555 120.502 231.176 116.86C231.166 116.796 231.09 116.807 231.09 116.86Z" fill="#2A519E"/>
<path d="M217.493 167.75C217.092 168.185 218.478 169.173 218.9 168.769C219.712 167.984 227.778 154.327 228.341 153.318C228.135 152.904 228.048 152.447 228.092 151.948C228.005 152.001 227.918 152.033 227.832 152.054C227.226 153.265 218.402 166.731 217.493 167.75Z" fill="#56548C"/>
<path d="M256.5 160.709C255.991 161.187 255.407 161.59 254.811 161.951C254.205 162.302 253.588 162.599 252.928 162.865C252.516 163.024 251.877 163.12 251.574 163.47C251.206 163.236 250.849 162.897 250.492 162.62C250.686 163.162 250.849 163.353 250.275 163.608C249.192 164.086 248.034 164.394 246.941 164.851C246.432 165.052 245.869 165.243 245.425 165.551C245.068 165.806 244.721 166.295 244.256 166.369C243.693 166.454 242.946 164.978 242.588 164.67C242.588 165.201 242.697 166.136 243.086 166.539C242.751 166.465 242.361 166.189 242.08 165.955C242.264 166.348 242.534 166.709 242.697 167.07C242.383 167.282 242.123 167.612 241.809 167.845C241.408 168.153 241.051 168.472 240.65 168.79C240.098 169.215 239.048 170.405 238.312 170.362C237.587 170.32 236.049 169.215 235.822 168.567C235.865 169.406 236.764 170.713 237.533 171.063C236.623 172.008 235.118 172.837 233.873 173.283C232.509 173.771 231.134 173.389 230.43 172.422C230.073 171.923 229.878 171.286 229.965 170.543C230.149 170.352 230.344 170.182 230.539 170.001C231.481 169.109 232.487 168.281 233.548 167.527C235.67 166.029 237.966 164.808 240.369 163.81C245.176 161.781 250.329 161.484 255.374 160.39C255.418 160.38 255.396 160.327 255.363 160.337C252.57 160.879 249.745 161.112 246.93 161.558C244.451 161.962 242.036 162.631 239.719 163.597C237.316 164.606 235.032 165.923 232.899 167.421C231.589 168.344 230.106 169.321 228.915 170.479C227.81 170.352 226.804 169.428 226.414 168.451C225.883 167.134 226.446 165.838 227.377 164.861C227.8 164.415 228.33 163.99 228.774 163.587C229.175 163.236 229.835 163.035 230.116 162.557C230.539 162.833 230.863 163.236 231.253 163.534C231.264 163.066 231.037 162.546 230.874 162.1C231.286 161.93 232.044 161.325 232.466 161.314C232.888 161.304 233.44 162.047 233.7 162.355C233.722 161.93 233.635 161.473 233.494 161.081C234.252 160.21 235.779 159.679 236.829 159.265C237.63 158.957 238.507 158.776 239.286 158.447C239.514 159.01 239.817 159.562 240.033 160.167C240.293 160.889 240.51 161.686 240.986 162.312C240.943 161.76 240.867 161.208 240.759 160.677C240.607 159.849 240.759 159.02 240.607 158.203C240.986 158.149 241.311 157.958 241.668 157.873C242.036 157.778 245.133 157.087 245.187 157.395C245.306 158.086 245.609 158.787 245.717 159.509C245.847 159.063 246.042 158.5 246.15 158.064C246.215 158.457 246.508 158.999 246.594 159.318C246.724 158.935 247.103 157.884 246.832 157.576C247.449 157.831 248.142 157.82 248.792 157.82C249.409 157.82 250.004 157.948 250.611 158.107C251.033 158.213 251.444 158.415 251.845 158.479C251.78 158.829 252.235 159.36 252.343 159.689C252.559 159.424 252.722 158.967 252.83 158.627C254.476 158.957 255.916 159.657 257.659 159.243C257.442 159.307 256.728 160.486 256.5 160.709Z" fill="#FF5AB1"/>
<path d="M255.365 160.401C250.32 161.505 245.166 161.803 240.36 163.821C237.956 164.819 235.672 166.051 233.539 167.537C232.467 168.291 231.471 169.13 230.529 170.012C230.334 170.192 230.139 170.362 229.955 170.554C229.955 170.479 229.966 170.415 229.977 170.341C229.62 170.479 229.252 170.522 228.905 170.469C230.096 169.311 231.569 168.334 232.889 167.41C235.011 165.913 237.296 164.596 239.71 163.587C242.027 162.621 244.441 161.951 246.92 161.548C249.735 161.102 252.561 160.868 255.354 160.327C255.397 160.337 255.408 160.39 255.365 160.401Z" fill="#FF9C00"/>
<path d="M220.752 181.396C220.525 181.778 219.377 180.929 219.583 180.547C219.984 179.793 228.298 171.106 228.926 170.479C229.273 170.532 229.641 170.49 229.998 170.352C229.976 170.426 229.976 170.49 229.976 170.564C229.197 171.265 221.294 180.525 220.752 181.396Z" fill="#2A519E"/>
<path d="M243.032 136.846C242.556 137.25 242.145 137.728 241.776 138.216C241.408 138.715 241.094 139.225 240.802 139.777C240.629 140.117 240.488 140.669 240.153 140.903C240.337 141.243 240.607 141.572 240.835 141.912C240.369 141.7 240.196 141.551 239.925 142.018C239.405 142.921 239.037 143.908 238.539 144.822C238.312 145.247 238.096 145.724 237.782 146.085C237.533 146.372 237.056 146.638 236.948 147.031C236.829 147.509 238.096 148.284 238.355 148.613C237.868 148.571 237.045 148.401 236.699 148.029C236.731 148.326 236.959 148.687 237.143 148.953C236.807 148.762 236.493 148.496 236.179 148.326C235.963 148.581 235.649 148.783 235.411 149.038C235.097 149.367 234.783 149.654 234.469 149.972C234.036 150.418 232.877 151.236 232.866 151.884C232.845 152.521 233.732 153.934 234.295 154.188C233.548 154.082 232.433 153.201 232.184 152.51C231.253 153.222 230.398 154.475 229.889 155.516C229.337 156.663 229.575 157.884 230.387 158.574C230.809 158.925 231.361 159.137 232.054 159.127C232.238 158.978 232.412 158.829 232.596 158.67C233.473 157.916 234.306 157.119 235.075 156.249C236.591 154.518 237.879 152.627 238.972 150.62C241.181 146.606 241.852 142.146 243.238 137.855C243.249 137.823 243.303 137.834 243.281 137.866C242.578 140.245 242.145 142.687 241.517 145.098C240.964 147.222 240.163 149.271 239.113 151.204C238.009 153.222 236.645 155.102 235.129 156.833C234.187 157.905 233.202 159.116 232.054 160.05C232.076 161.017 232.834 161.962 233.689 162.376C234.837 162.939 236.049 162.557 237.002 161.813C237.446 161.484 237.868 161.059 238.269 160.709C238.615 160.39 238.853 159.827 239.297 159.615C239.081 159.222 238.745 158.914 238.496 158.542C238.918 158.564 239.373 158.808 239.763 158.978C239.947 158.627 240.553 158.022 240.596 157.65C240.64 157.279 240.012 156.748 239.763 156.493C240.142 156.514 240.553 156.62 240.9 156.769C241.755 156.174 242.35 154.889 242.794 154.008C243.13 153.339 243.368 152.585 243.725 151.937C243.227 151.703 242.762 151.385 242.231 151.151C241.592 150.864 240.9 150.62 240.369 150.153C240.856 150.238 241.354 150.344 241.831 150.471C242.567 150.673 243.325 150.599 244.05 150.801C244.126 150.471 244.321 150.206 244.429 149.909C244.548 149.601 245.414 146.956 245.133 146.893C244.516 146.744 243.909 146.415 243.27 146.266C243.682 146.192 244.202 146.064 244.602 146.001C244.256 145.916 243.779 145.618 243.498 145.523C243.855 145.438 244.83 145.193 245.089 145.459C244.916 144.896 244.97 144.301 245.024 143.739C245.068 143.208 245.003 142.677 244.916 142.135C244.851 141.763 244.71 141.381 244.678 141.03C244.364 141.062 243.909 140.627 243.617 140.51C243.877 140.34 244.299 140.234 244.613 140.17C244.451 138.715 243.931 137.409 244.44 135.922C244.364 136.135 243.249 136.666 243.032 136.846Z" fill="#FF3B99"/>
<path d="M243.227 137.855C241.831 142.145 241.16 146.605 238.962 150.62C237.868 152.627 236.58 154.517 235.064 156.248C234.296 157.119 233.462 157.915 232.585 158.669C232.401 158.818 232.239 158.977 232.044 159.126C232.109 159.126 232.174 159.137 232.239 159.126C232.087 159.423 232.011 159.742 232.033 160.05C233.181 159.105 234.166 157.905 235.108 156.832C236.623 155.101 237.987 153.222 239.092 151.204C240.153 149.271 240.943 147.221 241.495 145.097C242.123 142.687 242.556 140.244 243.26 137.865C243.281 137.833 243.238 137.823 243.227 137.855Z" fill="#FF9C00"/>
<path d="M221.531 166.294C221.174 166.464 221.845 167.526 222.203 167.378C222.917 167.091 231.416 160.549 232.033 160.05C232.011 159.742 232.076 159.434 232.239 159.126C232.174 159.137 232.109 159.137 232.044 159.126C231.351 159.742 222.365 165.88 221.531 166.294Z" fill="#3458B2"/>
<path d="M231.058 150.196C231.058 150.196 237.445 151.672 241.689 149.548C241.689 149.548 235.518 148.168 231.058 150.196Z" fill="#FFD776"/>
<path d="M231.058 150.196C231.058 150.196 232.801 145.151 230.571 141.413C230.571 141.413 229.142 145.948 231.058 150.196Z" fill="#FFD776"/>
<path d="M233.245 147.881C233.245 147.881 238.539 148.476 242.588 146.522C242.599 146.522 237.716 145.438 233.245 147.881Z" fill="#FFD776"/>
<path d="M233.245 147.881C233.245 147.881 234.836 143.909 232.703 139.077C232.703 139.077 231.989 144.079 233.245 147.881Z" fill="#FFD776"/>
<path d="M235.345 145.406C235.345 145.406 240.606 146.096 244.017 143.813C244.017 143.813 240.011 143.059 235.345 145.406Z" fill="#FFD776"/>
<path d="M235.346 145.406C235.346 145.406 233.538 140.277 234.025 136.316C234.025 136.327 237.186 141.18 235.346 145.406Z" fill="#FFD776"/>
<path d="M237.251 142.911C237.251 142.911 243 142.369 246.746 140.203C246.746 140.203 241.462 139.958 237.251 142.911Z" fill="#FFD776"/>
<path d="M237.25 142.911C237.25 142.911 238.441 138.737 236.037 133.82C236.037 133.831 235.929 139.831 237.25 142.911Z" fill="#FFD776"/>
<path d="M238.973 140.373C238.973 140.373 243.769 140.309 246.681 137.824C246.67 137.824 242.372 137.781 238.973 140.373Z" fill="#FFD776"/>
<path d="M238.972 140.372C238.972 140.372 237.067 136.581 237.099 131.876C237.099 131.876 239.405 136.061 238.972 140.372Z" fill="#FFD776"/>
<path d="M240.574 137.675C240.574 137.675 246.355 137.176 249.019 134.309C249.019 134.309 244.093 135.031 240.574 137.675Z" fill="#FFD776"/>
<path d="M240.575 137.675C240.575 137.675 238.918 134.988 237.977 130.634C237.977 130.634 240.564 133.257 240.575 137.675Z" fill="#FFD776"/>
<path d="M241.798 135.317C241.798 135.317 246.042 135.02 248.867 132.375C248.878 132.375 245.078 132.269 241.798 135.317Z" fill="#FFD776"/>
<path d="M241.798 135.318C241.798 135.318 239.622 131.898 238.377 127.841C238.377 127.841 241.96 131.994 241.798 135.318Z" fill="#FFD776"/>
<path d="M242.697 133.321C242.697 133.321 247.461 132.227 248.836 129.657C248.836 129.657 245.176 130.623 242.697 133.321Z" fill="#FFD776"/>
<path d="M242.696 133.321C242.696 133.321 240.682 130.984 239.708 127.214C239.708 127.214 242.436 129.168 242.696 133.321Z" fill="#FFD776"/>
<path d="M243.107 132.259C243.107 132.259 245.89 130.22 245.186 125.76C245.186 125.76 243.097 128.107 243.107 132.259Z" fill="#FFD776"/>
<path d="M227.919 153.212C231.264 150.387 234.295 147.191 236.915 143.686C238.214 141.934 239.405 140.086 240.466 138.185L240.867 137.473C240.997 137.229 241.116 136.985 241.246 136.751L241.614 136.019L241.96 135.275C242.415 134.288 242.837 133.289 243.195 132.259C243.303 131.941 243.173 131.887 243.054 132.217C242.675 133.226 242.22 134.213 241.733 135.18L241.365 135.902L240.975 136.613C240.845 136.847 240.726 137.091 240.585 137.325L240.174 138.026C239.081 139.895 237.879 141.711 236.59 143.452C233.992 146.936 231.037 150.153 227.81 153.085C227.561 153.35 227.659 153.446 227.919 153.212Z" fill="#FFD776"/>
<path d="M229.532 160.327C229.532 160.327 232.607 162.43 235.313 162.185C235.303 162.185 232.325 160.168 229.532 160.327Z" fill="#FFD776"/>
<path d="M229.532 160.327C229.532 160.327 231.546 158.012 231.156 155.569C231.156 155.569 229.424 157.683 229.532 160.327Z" fill="#FFD776"/>
<path d="M231.188 159.552C231.188 159.552 233.873 160.964 236.439 160.762C236.428 160.762 234.079 159.18 231.188 159.552Z" fill="#FFD776"/>
<path d="M231.188 159.552C231.188 159.552 232.888 157.768 232.791 154.773C232.791 154.773 231.34 157.279 231.188 159.552Z" fill="#FFD776"/>
<path d="M232.834 158.681C232.834 158.681 235.476 160.136 237.771 159.626C237.771 159.626 235.8 158.394 232.834 158.681Z" fill="#FFD776"/>
<path d="M232.834 158.681C232.834 158.681 232.975 155.591 234.079 153.594C234.079 153.584 234.707 156.812 232.834 158.681Z" fill="#FFD776"/>
<path d="M234.372 157.746C234.372 157.746 237.533 158.649 239.991 158.267C239.991 158.267 237.241 157.045 234.372 157.746Z" fill="#FFD776"/>
<path d="M234.372 157.747C234.372 157.747 235.898 155.782 235.682 152.681C235.682 152.681 234.339 155.835 234.372 157.747Z" fill="#FFD776"/>
<path d="M235.832 156.759C235.832 156.759 238.387 157.714 240.466 157.003C240.466 156.992 238.192 156.079 235.832 156.759Z" fill="#FFD776"/>
<path d="M235.831 156.759C235.831 156.759 235.636 154.359 236.665 151.874C236.665 151.863 236.99 154.56 235.831 156.759Z" fill="#FFD776"/>
<path d="M237.261 155.654C237.261 155.654 240.433 156.589 242.457 155.612C242.468 155.612 239.697 154.985 237.261 155.654Z" fill="#FFD776"/>
<path d="M237.261 155.654C237.261 155.654 236.958 153.88 237.402 151.385C237.402 151.385 238.203 153.318 237.261 155.654Z" fill="#FFD776"/>
<path d="M238.42 154.666C238.42 154.666 240.737 155.388 242.805 154.571C242.794 154.56 240.813 153.721 238.42 154.666Z" fill="#FFD776"/>
<path d="M238.42 154.666C238.42 154.666 237.998 152.404 238.214 149.993C238.203 149.993 239.21 152.935 238.42 154.666Z" fill="#FFD776"/>
<path d="M239.33 153.785C239.33 153.785 242.091 154.189 243.368 153.105C243.368 153.105 241.214 152.872 239.33 153.785Z" fill="#FFD776"/>
<path d="M239.329 153.785C239.329 153.785 238.766 152.128 239.059 149.93C239.048 149.93 240.077 151.534 239.329 153.785Z" fill="#FFD776"/>
<path d="M239.773 153.308C239.773 153.308 241.69 152.798 242.274 150.292C242.263 150.292 240.65 151.109 239.773 153.308Z" fill="#FFD776"/>
<path d="M227.215 161.283C229.596 160.476 231.891 159.414 234.024 158.097C235.096 157.439 236.114 156.706 237.088 155.92L237.456 155.623C237.575 155.527 237.694 155.421 237.813 155.315L238.171 155.007L238.517 154.688C238.972 154.263 239.416 153.817 239.816 153.339C239.946 153.191 239.881 153.138 239.751 153.286C239.329 153.743 238.874 154.168 238.42 154.582L238.073 154.89L237.716 155.187C237.597 155.283 237.478 155.389 237.359 155.484L236.991 155.771C236.005 156.536 234.988 157.247 233.927 157.906C231.805 159.212 229.542 160.306 227.204 161.198C226.998 161.283 227.03 161.347 227.215 161.283Z" fill="#FFD776"/>
<path d="M109.36 149.473C109.36 149.473 103.341 150.864 99.3457 148.868C99.3457 148.868 105.159 147.561 109.36 149.473Z" fill="#FFD776"/>
<path d="M109.36 149.473C109.36 149.473 107.714 144.726 109.825 141.2C109.814 141.2 111.168 145.48 109.36 149.473Z" fill="#FFD776"/>
<path d="M107.292 147.296C107.292 147.296 102.301 147.848 98.4902 146.022C98.4902 146.022 103.091 144.991 107.292 147.296Z" fill="#FFD776"/>
<path d="M107.292 147.296C107.292 147.296 105.798 143.547 107.801 139.002C107.801 139.002 108.483 143.717 107.292 147.296Z" fill="#FFD776"/>
<path d="M105.311 144.97C105.311 144.97 100.353 145.618 97.1484 143.473C97.1593 143.473 100.927 142.761 105.311 144.97Z" fill="#FFD776"/>
<path d="M105.311 144.97C105.311 144.97 107.011 140.138 106.556 136.411C106.567 136.411 103.59 140.988 105.311 144.97Z" fill="#FFD776"/>
<path d="M103.525 142.624C103.525 142.624 98.1114 142.114 94.582 140.075C94.5929 140.064 99.5621 139.831 103.525 142.624Z" fill="#FFD776"/>
<path d="M103.524 142.623C103.524 142.623 102.398 138.694 104.661 134.074C104.661 134.064 104.769 139.713 103.524 142.623Z" fill="#FFD776"/>
<path d="M101.9 140.223C101.9 140.223 97.3855 140.16 94.6465 137.823C94.6573 137.834 98.7064 137.781 101.9 140.223Z" fill="#FFD776"/>
<path d="M101.9 140.223C101.9 140.223 103.687 136.655 103.654 132.227C103.665 132.227 101.489 136.166 101.9 140.223Z" fill="#FFD776"/>
<path d="M100.396 137.685C100.396 137.685 94.9501 137.218 92.4492 134.51C92.4384 134.52 97.0829 135.2 100.396 137.685Z" fill="#FFD776"/>
<path d="M100.396 137.685C100.396 137.685 101.955 135.158 102.842 131.048C102.842 131.058 100.396 133.533 100.396 137.685Z" fill="#FFD776"/>
<path d="M99.2373 135.476C99.2373 135.476 95.2424 135.2 92.5791 132.705C92.5791 132.705 96.1518 132.598 99.2373 135.476Z" fill="#FFD776"/>
<path d="M99.2377 135.476C99.2377 135.476 101.284 132.248 102.464 128.435C102.464 128.435 99.0969 132.343 99.2377 135.476Z" fill="#FFD776"/>
<path d="M98.3935 133.586C98.3935 133.586 93.9114 132.556 92.623 130.135C92.623 130.135 96.0658 131.059 98.3935 133.586Z" fill="#FFD776"/>
<path d="M98.3936 133.586C98.3936 133.586 100.288 131.387 101.208 127.84C101.208 127.84 98.6426 129.678 98.3936 133.586Z" fill="#FFD776"/>
<path d="M98.0136 132.588C98.0136 132.588 95.3936 130.665 96.054 126.46C96.054 126.471 98.0136 128.679 98.0136 132.588Z" fill="#FFD776"/>
<path d="M112.305 152.319C109.155 149.664 106.296 146.648 103.839 143.356C102.615 141.699 101.5 139.968 100.493 138.184L100.125 137.515C100.006 137.292 99.8872 137.059 99.7681 136.836L99.4216 136.145L99.0968 135.444C98.6638 134.51 98.2632 133.575 97.9384 132.598C97.841 132.301 97.9601 132.248 98.0683 132.556C98.4256 133.512 98.8587 134.435 99.3134 135.349L99.6598 136.028L100.017 136.698C100.136 136.921 100.255 137.144 100.385 137.367L100.764 138.025C101.793 139.788 102.919 141.498 104.142 143.133C106.589 146.404 109.371 149.441 112.402 152.202C112.651 152.447 112.554 152.532 112.305 152.319Z" fill="#FFD776"/>
<path d="M107.853 127.564C108.189 128.223 108.427 128.924 108.622 129.635C108.795 130.347 108.914 131.058 108.99 131.802C109.033 132.258 108.925 132.927 109.196 133.342C108.839 133.628 108.384 133.883 107.983 134.159C108.6 134.138 108.849 134.032 108.947 134.68C109.109 135.912 109.066 137.165 109.196 138.397C109.25 138.97 109.272 139.586 109.456 140.128C109.607 140.552 110.008 141.062 109.943 141.54C109.856 142.124 108.102 142.421 107.658 142.676C108.211 142.846 109.207 143.027 109.759 142.761C109.586 143.08 109.174 143.367 108.849 143.59C109.315 143.526 109.78 143.377 110.203 143.324C110.322 143.706 110.582 144.068 110.733 144.45C110.928 144.949 111.145 145.406 111.35 145.894C111.621 146.574 112.53 147.997 112.249 148.719C111.978 149.431 110.354 150.609 109.618 150.641C110.495 150.854 112.13 150.365 112.736 149.707C113.44 150.907 113.819 152.659 113.905 154.04C113.992 155.548 113.169 156.801 111.946 157.215C111.318 157.417 110.603 157.417 109.856 157.087C109.715 156.843 109.596 156.599 109.466 156.355C108.839 155.133 108.286 153.88 107.832 152.585C106.944 150.004 106.392 147.338 106.099 144.63C105.493 139.214 106.792 133.979 107.215 128.605C107.215 128.563 107.16 128.563 107.16 128.605C106.857 131.557 106.219 134.446 105.807 137.388C105.45 139.979 105.396 142.602 105.677 145.204C105.97 147.923 106.63 150.599 107.518 153.19C108.07 154.783 108.611 156.567 109.456 158.107C108.99 159.169 107.713 159.88 106.576 159.965C105.038 160.082 103.88 159.126 103.155 157.884C102.819 157.321 102.548 156.673 102.267 156.1C102.029 155.59 102.018 154.868 101.617 154.443C102.029 154.103 102.548 153.912 102.992 153.615C102.516 153.455 101.899 153.519 101.39 153.54C101.347 153.073 100.957 152.139 101.065 151.703C101.184 151.278 102.126 150.96 102.527 150.79C102.094 150.641 101.596 150.577 101.141 150.599C100.47 149.569 100.394 147.891 100.297 146.712C100.232 145.82 100.318 144.885 100.21 144.004C100.87 143.961 101.531 143.823 102.213 143.791C103.046 143.76 103.934 143.791 104.735 143.515C104.151 143.398 103.555 143.292 102.971 143.229C102.061 143.122 101.249 142.708 100.362 142.613C100.426 142.22 100.329 141.837 100.351 141.455C100.362 141.062 100.611 137.749 100.946 137.802C101.693 137.897 102.516 137.812 103.295 137.929C102.873 137.664 102.354 137.292 101.931 137.048C102.354 137.101 103.014 136.984 103.371 136.995C103.014 136.751 102.05 136.039 101.639 136.22C102.094 135.678 102.299 134.988 102.505 134.34C102.7 133.724 103.014 133.172 103.36 132.619C103.609 132.237 103.934 131.876 104.129 131.504C104.465 131.685 105.158 131.388 105.537 131.388C105.331 131.09 104.909 130.782 104.595 130.57C105.439 129.03 106.619 127.809 106.727 125.95C106.706 126.184 107.702 127.256 107.853 127.564Z" fill="#FF5AB1"/>
<path d="M107.182 128.595C106.76 133.968 105.46 139.193 106.067 144.62C106.359 147.328 106.911 149.983 107.799 152.574C108.254 153.87 108.806 155.123 109.434 156.344C109.564 156.588 109.683 156.833 109.823 157.077C109.748 157.056 109.683 157.024 109.607 156.992C109.639 157.395 109.574 157.767 109.412 158.107C108.578 156.567 108.026 154.783 107.474 153.19C106.586 150.609 105.937 147.923 105.634 145.204C105.352 142.591 105.406 139.979 105.764 137.388C106.175 134.446 106.814 131.547 107.117 128.605C107.128 128.541 107.182 128.552 107.182 128.595Z" fill="#FFC331"/>
<path d="M118.183 169.777C118.507 170.128 117.381 170.924 117.046 170.595C116.385 169.958 109.857 158.913 109.402 158.096C109.565 157.766 109.641 157.384 109.597 156.98C109.662 157.023 109.738 157.044 109.814 157.065C110.312 158.064 117.446 168.949 118.183 169.777Z" fill="#56548C"/>
<path d="M86.6226 164.075C87.034 164.457 87.4996 164.786 87.9868 165.084C88.4739 165.371 88.9828 165.615 89.5133 165.827C89.8381 165.955 90.3577 166.029 90.6067 166.316C90.899 166.125 91.1913 165.859 91.4837 165.636C91.3321 166.071 91.1913 166.231 91.6569 166.443C92.5338 166.836 93.4757 167.08 94.3635 167.452C94.7749 167.622 95.2296 167.771 95.5977 168.026C95.8791 168.227 96.1715 168.631 96.5396 168.684C96.9943 168.758 97.6005 167.558 97.8928 167.303C97.8928 167.739 97.8062 168.493 97.4814 168.822C97.7521 168.769 98.0661 168.535 98.2934 168.355C98.1418 168.673 97.9253 168.971 97.7954 169.257C98.0552 169.427 98.2609 169.693 98.5208 169.884C98.8456 170.128 99.1379 170.394 99.4518 170.649C99.8957 170.999 100.751 171.955 101.346 171.923C101.942 171.891 103.176 170.988 103.36 170.468C103.328 171.148 102.602 172.199 101.974 172.486C102.711 173.25 103.934 173.919 104.93 174.281C106.034 174.684 107.139 174.366 107.723 173.59C108.015 173.187 108.167 172.677 108.102 172.072C107.951 171.912 107.799 171.785 107.647 171.636C106.879 170.914 106.078 170.245 105.211 169.629C103.49 168.418 101.639 167.431 99.69 166.624C95.8034 164.988 91.6244 164.744 87.5429 163.852C87.5104 163.841 87.5212 163.799 87.5537 163.809C89.8164 164.245 92.1008 164.436 94.3743 164.797C96.3772 165.126 98.3367 165.657 100.21 166.443C102.158 167.261 104.01 168.323 105.731 169.534C106.792 170.277 107.994 171.073 108.947 172.008C109.834 171.912 110.657 171.158 110.971 170.362C111.404 169.289 110.949 168.249 110.192 167.452C109.845 167.091 109.423 166.741 109.066 166.422C108.741 166.135 108.2 165.976 107.972 165.594C107.626 165.817 107.366 166.146 107.052 166.39C107.041 166.008 107.225 165.583 107.355 165.233C107.019 165.094 106.413 164.606 106.067 164.595C105.72 164.585 105.276 165.19 105.06 165.434C105.049 165.094 105.114 164.723 105.222 164.404C104.605 163.693 103.371 163.268 102.527 162.939C101.877 162.694 101.162 162.546 100.534 162.28C100.35 162.737 100.101 163.183 99.9282 163.671C99.7225 164.255 99.5384 164.903 99.1595 165.413C99.2028 164.967 99.257 164.521 99.3436 164.086C99.4735 163.417 99.3436 162.747 99.4627 162.089C99.1487 162.047 98.8997 161.887 98.6074 161.824C98.3151 161.749 95.8034 161.186 95.7601 161.441C95.6626 162.004 95.4136 162.567 95.3378 163.151C95.2404 162.79 95.0672 162.333 94.9914 161.983C94.9373 162.301 94.7099 162.737 94.6341 163.002C94.5259 162.694 94.2227 161.845 94.4392 161.601C93.9412 161.802 93.3783 161.792 92.8478 161.802C92.3498 161.802 91.8626 161.909 91.3754 162.025C91.0398 162.11 90.6933 162.27 90.3794 162.323C90.4335 162.599 90.0654 163.034 89.9788 163.3C89.8056 163.087 89.6648 162.716 89.5782 162.44C88.2466 162.705 87.0773 163.268 85.6699 162.939C85.854 162.949 86.4278 163.905 86.6226 164.075Z" fill="#FF5AB1"/>
<path d="M87.5323 163.831C91.6138 164.723 95.782 164.967 99.6794 166.603C101.617 167.41 103.479 168.408 105.201 169.608C106.067 170.224 106.868 170.893 107.637 171.615C107.788 171.764 107.951 171.902 108.091 172.05C108.091 171.997 108.091 171.934 108.07 171.881C108.362 171.997 108.654 172.029 108.936 171.987C107.972 171.042 106.781 170.256 105.721 169.512C103.999 168.302 102.148 167.24 100.199 166.422C98.3261 165.636 96.3666 165.095 94.3637 164.776C92.0902 164.415 89.795 164.224 87.5431 163.788C87.5106 163.778 87.4998 163.82 87.5323 163.831Z" fill="#FFC331"/>
<path d="M115.55 180.823C115.734 181.131 116.665 180.451 116.492 180.132C116.167 179.516 109.444 172.486 108.935 171.976C108.654 172.019 108.362 171.987 108.069 171.87C108.08 171.923 108.091 171.987 108.091 172.04C108.719 172.624 115.106 180.122 115.55 180.823Z" fill="#2A519E"/>
<path d="M97.5142 144.768C97.8932 145.097 98.2288 145.48 98.5319 145.873C98.8242 146.276 99.0841 146.69 99.3222 147.136C99.463 147.412 99.5712 147.859 99.8419 148.05C99.6903 148.326 99.4738 148.591 99.2898 148.867C99.6687 148.697 99.8094 148.57 100.026 148.952C100.448 149.685 100.74 150.482 101.152 151.225C101.336 151.565 101.509 151.947 101.769 152.255C101.975 152.489 102.364 152.701 102.44 153.02C102.538 153.413 101.509 154.029 101.303 154.305C101.693 154.273 102.364 154.135 102.635 153.837C102.603 154.082 102.419 154.368 102.278 154.581C102.548 154.422 102.808 154.22 103.057 154.071C103.231 154.283 103.49 154.443 103.685 154.645C103.934 154.91 104.194 155.144 104.443 155.399C104.79 155.76 105.731 156.429 105.742 156.949C105.764 157.469 105.049 158.606 104.595 158.818C105.201 158.733 106.1 158.022 106.305 157.459C107.052 158.043 107.756 159.041 108.157 159.891C108.6 160.815 108.406 161.802 107.745 162.365C107.41 162.652 106.955 162.822 106.403 162.811C106.251 162.694 106.11 162.567 105.97 162.45C105.255 161.845 104.584 161.197 103.967 160.485C102.743 159.084 101.704 157.554 100.816 155.93C99.0299 152.68 98.4886 149.069 97.3627 145.597C97.3518 145.565 97.3194 145.586 97.3194 145.607C97.8932 147.54 98.2396 149.515 98.7484 151.459C99.2032 153.179 99.8419 154.836 100.697 156.397C101.585 158.022 102.7 159.551 103.923 160.953C104.681 161.824 105.482 162.801 106.413 163.555C106.392 164.34 105.775 165.105 105.082 165.445C104.151 165.902 103.176 165.594 102.397 164.988C102.04 164.723 101.693 164.372 101.379 164.086C101.098 163.831 100.903 163.374 100.546 163.204C100.719 162.885 100.989 162.641 101.195 162.344C100.849 162.365 100.481 162.556 100.178 162.694C100.026 162.418 99.5388 161.919 99.4955 161.622C99.463 161.324 99.9718 160.889 100.178 160.687C99.8744 160.698 99.5388 160.793 99.2573 160.91C98.5644 160.432 98.088 159.392 97.7199 158.68C97.4493 158.138 97.2544 157.533 96.9621 157.002C97.3627 156.811 97.7416 156.556 98.1638 156.376C98.6727 156.142 99.2465 155.94 99.6795 155.568C99.2789 155.632 98.8784 155.728 98.4994 155.834C97.904 155.993 97.2869 155.94 96.7023 156.099C96.6373 155.834 96.4749 155.622 96.3883 155.377C96.2909 155.122 95.5871 152.988 95.8145 152.935C96.3125 152.807 96.7997 152.542 97.3194 152.425C96.9838 152.361 96.5615 152.255 96.2367 152.213C96.5182 152.138 96.8971 151.905 97.1245 151.82C96.8322 151.756 96.0419 151.554 95.8362 151.767C95.9769 151.31 95.9336 150.832 95.8903 150.375C95.8578 149.94 95.9119 149.515 95.9769 149.08C96.031 148.782 96.1501 148.474 96.1718 148.188C96.4316 148.22 96.7889 147.859 97.0271 147.763C96.8214 147.625 96.4749 147.54 96.2259 147.487C96.3558 146.308 96.778 145.246 96.3666 144.057C96.4424 144.195 97.341 144.62 97.5142 144.768Z" fill="#FF3B99"/>
<path d="M97.3626 145.586C98.4886 149.059 99.0299 152.67 100.816 155.919C101.704 157.544 102.743 159.073 103.967 160.475C104.584 161.176 105.255 161.824 105.97 162.44C106.121 162.567 106.251 162.684 106.403 162.801C106.348 162.801 106.305 162.801 106.251 162.801C106.381 163.045 106.435 163.3 106.413 163.544C105.493 162.78 104.681 161.803 103.923 160.942C102.7 159.541 101.585 158.022 100.697 156.387C99.8419 154.815 99.2031 153.158 98.7484 151.448C98.2396 149.494 97.8931 147.519 97.3193 145.597C97.3193 145.576 97.3518 145.565 97.3626 145.586Z" fill="#FFC331"/>
<path d="M114.912 168.6C115.204 168.738 114.663 169.598 114.371 169.471C113.786 169.237 106.911 163.948 106.413 163.545C106.424 163.29 106.381 163.046 106.251 162.801C106.305 162.812 106.359 162.812 106.403 162.801C106.976 163.3 114.241 168.27 114.912 168.6Z" fill="#3458B2"/>
<path d="M252.993 174.578C255.775 172.91 257.031 170.383 256.414 169.119C255.753 167.749 252.484 167.016 248.998 168.843C249.117 168.323 250.817 160.443 248.998 159.742C247.536 159.179 244.526 163.523 243.855 164.5C244.526 158.807 244.386 155.813 243.422 155.536C242.718 155.335 241.582 156.598 240.001 159.317C239.427 157.352 238.853 156.375 238.291 156.375C237.175 156.375 236.082 160.156 235.01 167.717C234.48 164.956 233.354 160.029 231.87 160.018C230.019 159.997 228.568 167.643 228.157 169.958C225.754 167.473 224.27 166.4 223.729 166.74C223.047 167.176 223.848 169.884 226.154 174.854C235.108 174.769 244.05 174.673 252.993 174.578Z" fill="#FF006D"/>
<path d="M266.195 144.81C268.596 142.455 268.596 138.635 266.195 136.28C263.794 133.924 259.9 133.924 257.499 136.28C255.097 138.635 255.097 142.455 257.499 144.81C259.9 147.166 263.794 147.166 266.195 144.81Z" fill="#FFD776"/>
<path d="M261.846 145.438C264.603 145.438 266.837 143.246 266.837 140.542C266.837 137.838 264.603 135.646 261.846 135.646C259.09 135.646 256.855 137.838 256.855 140.542C256.855 143.246 259.09 145.438 261.846 145.438Z" fill="#FFC331"/>
<path d="M263.753 141.646C263.753 142.018 263.612 142.326 263.32 142.57C263.039 142.815 262.638 142.963 262.118 143.027V143.983H261.577V143.059C261.263 143.059 260.96 143.038 260.668 142.984C260.375 142.931 260.137 142.868 259.942 142.783V142.135C260.17 142.241 260.44 142.315 260.744 142.39C261.047 142.453 261.328 142.485 261.577 142.485V140.669C261.003 140.489 260.603 140.287 260.365 140.043C260.137 139.809 260.018 139.501 260.018 139.129C260.018 138.768 260.159 138.471 260.44 138.237C260.722 138.004 261.101 137.866 261.566 137.813V137.059H262.108V137.802C262.627 137.813 263.125 137.919 263.602 138.11L263.385 138.652C262.963 138.492 262.541 138.397 262.108 138.365V140.181C262.551 140.319 262.876 140.457 263.093 140.584C263.309 140.712 263.472 140.86 263.58 141.03C263.699 141.2 263.753 141.402 263.753 141.646ZM260.744 139.14C260.744 139.352 260.808 139.512 260.928 139.639C261.057 139.767 261.274 139.883 261.588 140V138.407C261.306 138.45 261.101 138.535 260.96 138.662C260.808 138.79 260.744 138.949 260.744 139.14ZM263.039 141.699C263.039 141.498 262.974 141.338 262.855 141.222C262.725 141.094 262.487 140.977 262.129 140.86V142.464C262.736 142.379 263.039 142.124 263.039 141.699Z" fill="white"/>
<path d="M268.02 105.741V122.414H238.355V105.741H268.02ZM266.569 121.31V107.175V106.835H239.795V120.97V121.31H266.569Z" fill="#FFC331"/>
<path d="M266.569 107.175V121.31H239.796V120.98H240.099H241.442H264.924H266.266V119.759V108.396V107.175H266.569Z" fill="#FFC331"/>
<path d="M266.569 106.835V107.175H266.266H264.924H241.442H240.099V108.396V119.759V120.98H239.796V106.835H266.569Z" fill="#FFC331"/>
<path d="M266.266 119.759V120.981H264.924C264.924 120.301 265.519 119.759 266.266 119.759Z" fill="#FFC331"/>
<path d="M266.267 108.396V119.759C265.531 119.759 264.924 120.301 264.924 120.98H241.442C241.442 120.301 240.847 119.759 240.11 119.759V108.396C240.847 108.396 241.442 107.844 241.442 107.175H264.924C264.924 107.854 265.52 108.396 266.267 108.396ZM262.867 114.078C262.867 113.249 262.413 112.57 261.85 112.57C261.287 112.57 260.832 113.239 260.832 114.078C260.832 114.906 261.287 115.586 261.85 115.586C262.413 115.586 262.867 114.906 262.867 114.078ZM259.609 114.078C259.609 111.55 256.729 109.501 253.189 109.501C249.638 109.501 246.769 111.55 246.769 114.078C246.769 116.605 249.648 118.655 253.189 118.655C256.729 118.655 259.609 116.605 259.609 114.078ZM245.534 114.078C245.534 113.249 245.08 112.57 244.517 112.57C243.954 112.57 243.499 113.239 243.499 114.078C243.499 114.906 243.954 115.586 244.517 115.586C245.069 115.586 245.534 114.906 245.534 114.078Z" fill="#FFD776"/>
<path d="M266.266 107.175V108.396C265.53 108.396 264.924 107.844 264.924 107.175H266.266Z" fill="#FFC331"/>
<path d="M261.849 112.57C262.412 112.57 262.866 113.239 262.866 114.078C262.866 114.906 262.412 115.586 261.849 115.586C261.286 115.586 260.831 114.906 260.831 114.078C260.831 113.239 261.286 112.57 261.849 112.57Z" fill="#FFC331"/>
<path d="M253.176 109.5C256.727 109.5 259.596 111.55 259.596 114.078C259.596 116.605 256.716 118.655 253.176 118.655C249.625 118.655 246.756 116.605 246.756 114.078C246.756 111.55 249.636 109.5 253.176 109.5Z" fill="#FFC331"/>
<path d="M244.505 112.57C245.068 112.57 245.523 113.239 245.523 114.078C245.523 114.906 245.068 115.586 244.505 115.586C243.942 115.586 243.487 114.906 243.487 114.078C243.487 113.239 243.942 112.57 244.505 112.57Z" fill="#FFC331"/>
<path d="M240.099 107.175H241.43C241.43 107.854 240.835 108.396 240.099 108.396V107.175Z" fill="#FFC331"/>
<path d="M241.442 120.981H240.11V119.759C240.836 119.759 241.442 120.301 241.442 120.981Z" fill="#FFC331"/>
<path d="M254.086 111.805C254.725 112.028 255.028 112.527 255.028 113.228V113.334H254.238C254.238 112.941 254.13 112.654 253.913 112.484L253.567 113.78C254.563 113.918 255.082 114.279 255.082 115.033V115.086C255.082 115.946 254.4 116.467 253.22 116.467C253.09 116.467 252.982 116.456 252.863 116.456L252.657 117.263H252.008L252.257 116.318C251.607 116.074 251.271 115.575 251.271 114.916V114.874H252.062C252.062 115.214 252.181 115.479 252.419 115.638L252.776 114.268C251.748 114.109 251.326 113.727 251.326 113.058V113.005C251.326 112.166 252.062 111.667 253.166 111.667C253.264 111.667 253.372 111.677 253.458 111.677L253.664 110.87H254.314L254.086 111.805ZM252.939 113.695L253.307 112.293C253.264 112.283 253.22 112.283 253.188 112.283H253.155C252.592 112.283 252.148 112.527 252.148 112.962V112.994C252.138 113.366 252.343 113.589 252.939 113.695ZM254.27 115.129V115.097C254.27 114.693 254.011 114.481 253.415 114.375L253.025 115.861C253.09 115.872 253.144 115.872 253.209 115.872H253.242C253.848 115.861 254.27 115.596 254.27 115.129Z" fill="white"/>
<path d="M119.374 174.578C122.156 172.91 123.412 170.383 122.795 169.119C122.134 167.749 118.865 167.016 115.379 168.843C115.498 168.323 117.197 160.443 115.379 159.742C113.917 159.179 110.907 163.523 110.236 164.5C110.907 158.807 110.767 155.813 109.803 155.536C109.099 155.335 107.963 156.598 106.382 159.317C105.808 157.352 105.234 156.375 104.671 156.375C103.556 156.375 102.463 160.156 101.391 167.717C100.861 164.956 99.7346 160.029 98.2514 160.018C96.4001 159.997 94.9493 167.643 94.5379 169.958C92.1345 167.473 90.6513 166.4 90.11 166.74C89.4279 167.176 90.2291 169.884 92.5351 174.854C101.488 174.769 110.431 174.673 119.374 174.578Z" fill="#FF006D"/>
<path d="M97.0721 93.0502C97.8563 89.8088 95.8131 86.5575 92.5086 85.7883C89.2041 85.019 85.8896 87.0232 85.1054 90.2646C84.3213 93.5061 86.3644 96.7574 89.6689 97.5266C92.9734 98.2958 96.2879 96.2917 97.0721 93.0502Z" fill="#FFD776"/>
<path d="M91.0857 96.5551C93.8421 96.5551 96.0766 94.3632 96.0766 91.6594C96.0766 88.9556 93.8421 86.7637 91.0857 86.7637C88.3292 86.7637 86.0947 88.9556 86.0947 91.6594C86.0947 94.3632 88.3292 96.5551 91.0857 96.5551Z" fill="#FFC331"/>
<path d="M92.9906 92.764C92.9906 93.1357 92.8498 93.4437 92.5575 93.6879C92.276 93.9322 91.8754 94.0809 91.3558 94.1446V95.1004H90.8145V94.1765C90.5005 94.1765 90.1974 94.1552 89.905 94.1021C89.6127 94.049 89.3746 93.9853 89.1797 93.9003V93.2525C89.407 93.3587 89.6777 93.4331 89.9808 93.5074C90.284 93.5711 90.5655 93.603 90.8145 93.603V91.787C90.2407 91.6065 89.8401 91.4047 89.6019 91.1604C89.3746 90.9268 89.2555 90.6188 89.2555 90.2471C89.2555 89.8861 89.3962 89.5887 89.6777 89.3551C89.9592 89.1214 90.3381 88.9834 90.8036 88.9303V88.1763H91.345V88.9197C91.8646 88.9303 92.3626 89.0365 92.839 89.2276L92.6225 89.7692C92.2002 89.6099 91.778 89.5144 91.345 89.4825V91.2772C91.7888 91.4153 92.1136 91.5534 92.3301 91.6808C92.5467 91.8082 92.7091 91.9569 92.8173 92.1268C92.9364 92.318 92.9906 92.5198 92.9906 92.764ZM89.97 90.2577C89.97 90.4701 90.035 90.6294 90.1541 90.7569C90.284 90.8843 90.5005 91.0011 90.8145 91.118V89.525C90.533 89.5675 90.3273 89.6524 90.1865 89.7799C90.0458 89.9073 89.97 90.0666 89.97 90.2577ZM92.276 92.8171C92.276 92.6153 92.2111 92.456 92.092 92.3392C91.9621 92.2118 91.7239 92.095 91.3666 91.9782V93.5817C91.9729 93.4968 92.276 93.2419 92.276 92.8171Z" fill="white"/>
<path d="M233.614 77.1953H107.758V174.218H233.614V77.1953Z" fill="#FFC331"/>
<path d="M235.044 168.217H106.319V174.207H235.044V168.217Z" fill="#F9F8F7"/>
<path d="M236.44 71.0356H104.933V77.2057H236.44V71.0356Z" fill="#FFC331"/>
<path opacity="0.5" d="M236.44 75.188H104.933V77.1951H236.44V75.188Z" fill="#FFC331"/>
<path d="M240.25 71.0355H101.121V69.347C101.121 66.6071 103.384 64.377 106.188 64.377H235.194C237.987 64.377 240.261 66.5965 240.261 69.347V71.0355H240.25Z" fill="#FFC331"/>
<path opacity="0.5" d="M240.25 69.0181H101.121V71.0252H240.25V69.0181Z" fill="#FFC331"/>
<path d="M236.235 81.6759V97.1808H102.746V84.0972L107.921 78.8511H233.441L236.235 81.6759Z" fill="#E05A00"/>
<path opacity="0.5" d="M233.615 97.1807V104.19C233.572 103.829 233.539 103.468 233.539 103.096C233.529 107.939 229.534 111.857 224.597 111.857H224.51C219.573 111.857 215.578 107.939 215.568 103.096C215.568 107.939 211.562 111.857 206.625 111.857H206.549C201.613 111.857 197.607 107.939 197.607 103.096C197.607 107.939 193.601 111.857 188.664 111.857H188.588C183.652 111.857 179.646 107.939 179.646 103.096C179.635 107.939 175.64 111.857 170.703 111.857H170.617C165.68 111.857 161.685 107.939 161.674 103.096C161.674 107.939 157.668 111.857 152.732 111.857H152.656C147.719 111.857 143.713 107.939 143.713 103.096C143.713 107.939 139.708 111.857 134.771 111.857H134.684C129.747 111.857 125.742 107.939 125.742 103.096C125.742 107.939 121.736 111.857 116.799 111.857H116.723C111.787 111.857 107.781 107.939 107.781 103.096C107.781 103.457 107.759 103.807 107.716 104.147V97.1807H233.615V97.1807Z" fill="#FFC331"/>
<path d="M135.821 77.1626L125.785 95.4923H107.824L121.877 77.1626H135.821Z" fill="#F9F8F7"/>
<path d="M163.709 77.1626L161.706 95.4923H143.745L149.765 77.1626H163.709Z" fill="#F9F8F7"/>
<path d="M191.608 77.1626L197.628 95.4923H179.667L177.664 77.1626H191.608Z" fill="#F9F8F7"/>
<path d="M219.496 77.1626L233.549 95.4923H215.588L205.552 77.1626H219.496Z" fill="#F9F8F7"/>
<path d="M121.876 77.1631L107.823 95.4928H89.8623L107.921 77.1631H121.876Z" fill="#FF5AB1"/>
<path d="M149.764 77.1626L143.745 95.4923H125.784L135.82 77.1626H149.764Z" fill="#FF5AB1"/>
<path d="M177.663 77.1626L179.666 95.4923H161.705L163.708 77.1626H177.663Z" fill="#FF5AB1"/>
<path d="M205.553 77.1626L215.589 95.4923H197.628L191.608 77.1626H205.553Z" fill="#FF5AB1"/>
<path d="M233.441 77.1626L251.51 95.4923H233.55L219.497 77.1626H233.441Z" fill="#FF5AB1"/>
<path d="M242.568 110.179H242.492C237.556 110.179 233.55 106.25 233.55 101.407V95.4917H251.511V101.407C251.511 106.25 247.505 110.179 242.568 110.179Z" fill="#FF006D"/>
<path d="M224.606 110.179H224.53C219.594 110.179 215.588 106.25 215.588 101.407V95.4917H233.549V101.407C233.549 106.25 229.543 110.179 224.606 110.179Z" fill="#E9E5D9"/>
<path d="M206.646 110.179H206.57C201.634 110.179 197.628 106.25 197.628 101.407V95.4917H215.589V101.407C215.589 106.25 211.583 110.179 206.646 110.179Z" fill="#FF006D"/>
<path d="M188.685 110.179H188.61C183.673 110.179 179.667 106.25 179.667 101.407V95.4917H197.628V101.407C197.628 106.25 193.622 110.179 188.685 110.179Z" fill="#E9E5D9"/>
<path d="M170.723 110.179H170.648C165.711 110.179 161.705 106.25 161.705 101.407V95.4917H179.666V101.407C179.666 106.25 175.66 110.179 170.723 110.179Z" fill="#FF006D"/>
<path d="M152.763 110.179H152.688C147.751 110.179 143.745 106.25 143.745 101.407V95.4917H161.706V101.407C161.706 106.25 157.7 110.179 152.763 110.179Z" fill="#E9E5D9"/>
<path d="M134.803 110.179H134.727C129.79 110.179 125.784 106.25 125.784 101.407V95.4917H143.745V101.407C143.745 106.25 139.739 110.179 134.803 110.179Z" fill="#FF006D"/>
<path d="M116.843 110.179H116.767C111.83 110.179 107.824 106.25 107.824 101.407V95.4917H125.785V101.407C125.785 106.25 121.779 110.179 116.843 110.179Z" fill="#E9E5D9"/>
<path d="M98.8806 110.18H98.8049C93.868 110.18 89.8623 106.25 89.8623 101.408V95.4927H107.823V101.408C107.823 106.25 103.817 110.18 98.8806 110.18Z" fill="#FF006D"/>
<path d="M151.615 113.292H119.97V174.207H151.615V113.292Z" fill="#2D2D2D"/>
<path d="M149.494 115.713H122.093V174.207H149.494V115.713Z" fill="#FFC331"/>
<path d="M148.953 116.245H122.093V174.207H148.953V116.245Z" fill="#FFC331"/>
<path d="M148.954 116.245H122.635V174.207H148.954V116.245Z" fill="#FF9C00"/>
<path d="M129.14 146.225C129.14 147.371 128.188 148.306 127.018 148.306C125.849 148.306 124.896 147.371 124.896 146.225C124.896 145.078 125.849 144.143 127.018 144.143C128.199 144.154 129.14 145.078 129.14 146.225Z" fill="#FFC331"/>
<path d="M129.681 145.693C129.681 146.84 128.729 147.775 127.559 147.775C126.39 147.775 125.438 146.84 125.438 145.693C125.438 144.546 126.39 143.612 127.559 143.612C128.74 143.622 129.681 144.546 129.681 145.693Z" fill="#F9FBFC"/>
<path d="M127.57 147.541C128.611 147.541 129.454 146.714 129.454 145.694C129.454 144.673 128.611 143.846 127.57 143.846C126.53 143.846 125.687 144.673 125.687 145.694C125.687 146.714 126.53 147.541 127.57 147.541Z" fill="#DCE8EF"/>
<path d="M127.613 146.554C128.342 146.554 128.934 145.974 128.934 145.258C128.934 144.542 128.342 143.962 127.613 143.962C126.883 143.962 126.292 144.542 126.292 145.258C126.292 145.974 126.883 146.554 127.613 146.554Z" fill="#F9FBFC"/>
<path opacity="0.5" d="M223.914 158.001V114.078H161.197V158.001H159.433V162.015H225.895V158.001H223.914Z" fill="#FFC331"/>
<path d="M224.997 113.016H162.28V159.159H224.997V113.016Z" fill="#2D2D2D"/>
<path d="M223.232 114.608H164.045V157.852H223.232V114.608Z" fill="#FF9C00"/>
<path d="M222.691 115.14H164.045V157.852H222.691V115.14Z" fill="#FFC331"/>
<path d="M226.978 156.939H160.516V160.953H226.978V156.939Z" fill="#2D2D2D"/>
<path d="M147.241 118.007H124.344V142.199H147.241V118.007Z" fill="#82E3F9"/>
<path d="M136.578 117.752H134.997V142.475H136.578V117.752Z" fill="#FF9C00"/>
<path d="M148.4 129.328H123.196V130.878H148.4V129.328Z" fill="#FF9C00"/>
<path d="M147.501 172.699H124.084V148.985H147.512V172.699H147.501ZM124.604 172.178H146.971V149.505H124.604V172.178Z" fill="#FFC331"/>
<path d="M80.085 115.331C84.8086 115.331 88.6378 111.574 88.6378 106.941C88.6378 102.307 84.8086 98.5513 80.085 98.5513C75.3614 98.5513 71.5322 102.307 71.5322 106.941C71.5322 111.574 75.3614 115.331 80.085 115.331Z" fill="#FFD776"/>
<path d="M80.0842 113.748C83.9169 113.748 87.0239 110.7 87.0239 106.941C87.0239 103.181 83.9169 100.133 80.0842 100.133C76.2515 100.133 73.1445 103.181 73.1445 106.941C73.1445 110.7 76.2515 113.748 80.0842 113.748Z" fill="#FFC331"/>
<path d="M82.7365 108.481C82.7365 109.001 82.5416 109.426 82.141 109.766C81.7404 110.106 81.1883 110.318 80.4738 110.403V111.73H79.7159V110.456C79.2829 110.456 78.8606 110.424 78.4492 110.36C78.0378 110.297 77.7022 110.201 77.4424 110.084V109.192C77.7672 109.33 78.1353 109.447 78.5575 109.543C78.9797 109.628 79.3695 109.681 79.7159 109.681V107.153C78.9148 106.909 78.3518 106.612 78.0378 106.282C77.713 105.953 77.5506 105.528 77.5506 105.008C77.5506 104.509 77.7455 104.095 78.1461 103.776C78.5467 103.458 79.0663 103.256 79.7159 103.192V102.151H80.4738V103.181C81.1883 103.203 81.8812 103.341 82.5524 103.606L82.2493 104.36C81.6647 104.137 81.08 103.999 80.4738 103.957V106.442C81.0909 106.633 81.5456 106.824 81.8487 107.005C82.1518 107.185 82.3792 107.398 82.5199 107.631C82.6607 107.854 82.7365 108.141 82.7365 108.481ZM78.5358 104.987C78.5358 105.274 78.6225 105.507 78.7957 105.688C78.9689 105.868 79.272 106.028 79.7051 106.187V103.967C79.3153 104.031 79.023 104.148 78.8282 104.328C78.6333 104.509 78.5358 104.721 78.5358 104.987ZM81.7404 108.555C81.7404 108.279 81.6538 108.056 81.4806 107.886C81.3074 107.716 80.9718 107.546 80.4738 107.376V109.606C81.3182 109.49 81.7404 109.139 81.7404 108.555Z" fill="white"/>
<path d="M283.501 174.207H51.6768V188.66H283.501V174.207Z" fill="#2D2D2D"/>
<path d="M265.562 174.207H51.6768V178.858H265.562V174.207Z" fill="#202021"/>
<path d="M181.538 131.408C181.538 131.408 190.74 117.868 192.678 117.868C194.854 117.868 204.901 128.137 204.901 128.137" stroke="white" stroke-width="0.444282" stroke-miterlimit="10" stroke-linejoin="round"/>
<path d="M206.103 138.545L184.331 141.911C183.032 142.113 181.809 141.242 181.603 139.968L180.575 133.596C180.369 132.322 181.257 131.122 182.556 130.92L204.327 127.553C205.627 127.352 206.85 128.223 207.056 129.497L208.084 135.869C208.29 137.154 207.402 138.343 206.103 138.545Z" fill="#FF006D"/>
<path d="M189.69 138.648C189.306 138.707 188.937 138.673 188.584 138.545C188.234 138.413 187.938 138.201 187.696 137.91C187.458 137.614 187.307 137.265 187.242 136.861C187.177 136.458 187.212 136.081 187.346 135.732C187.485 135.382 187.7 135.094 187.992 134.866C188.288 134.634 188.628 134.488 189.012 134.429C189.4 134.369 189.769 134.405 190.119 134.537C190.472 134.665 190.767 134.875 191.005 135.166C191.243 135.458 191.394 135.806 191.459 136.209C191.523 136.613 191.489 136.991 191.355 137.344C191.22 137.693 191.005 137.984 190.71 138.216C190.418 138.444 190.078 138.588 189.69 138.648ZM189.595 138.06C189.868 138.018 190.102 137.919 190.296 137.763C190.49 137.604 190.627 137.4 190.709 137.152C190.794 136.9 190.813 136.621 190.764 136.317C190.715 136.012 190.61 135.754 190.451 135.544C190.295 135.333 190.101 135.183 189.867 135.093C189.634 135.003 189.38 134.98 189.107 135.022C188.834 135.064 188.6 135.163 188.406 135.319C188.212 135.475 188.072 135.677 187.986 135.925C187.904 136.173 187.888 136.449 187.937 136.754C187.986 137.058 188.088 137.318 188.244 137.533C188.404 137.744 188.601 137.896 188.835 137.989C189.069 138.079 189.322 138.102 189.595 138.06ZM194.879 134.835C194.913 135.045 194.895 135.25 194.826 135.451C194.757 135.653 194.623 135.829 194.424 135.982C194.225 136.13 193.955 136.231 193.614 136.283L192.866 136.399L193.135 138.072L192.458 138.177L191.795 134.053L193.22 133.833C193.537 133.784 193.813 133.798 194.049 133.875C194.288 133.947 194.476 134.068 194.612 134.238C194.753 134.406 194.842 134.606 194.879 134.835ZM193.525 135.731C193.783 135.692 193.966 135.605 194.074 135.47C194.182 135.332 194.218 135.156 194.184 134.942C194.111 134.492 193.82 134.306 193.309 134.385L192.561 134.5L192.777 135.847L193.525 135.731ZM196.092 133.948L196.287 135.159L197.712 134.938L197.801 135.49L196.375 135.71L196.578 136.974L198.182 136.726L198.271 137.278L195.99 137.631L195.326 133.501L197.607 133.148L197.696 133.7L196.092 133.948ZM202.496 136.625L201.819 136.73L199.287 133.965L199.782 137.045L199.105 137.149L198.441 133.019L199.118 132.915L201.649 135.673L201.155 132.6L201.832 132.495L202.496 136.625Z" fill="white"/>
<path d="M193.61 118.771C193.61 119.26 193.209 119.652 192.711 119.652C192.213 119.652 191.812 119.26 191.812 118.771C191.812 118.283 192.213 117.89 192.711 117.89C193.209 117.89 193.61 118.283 193.61 118.771Z" fill="#81A4FF"/>
<path d="M193.555 118.772C193.555 119.239 193.176 119.611 192.7 119.611C192.224 119.611 191.845 119.239 191.845 118.772C191.845 118.305 192.224 117.933 192.7 117.933C193.176 117.933 193.555 118.315 193.555 118.772Z" fill="#FF006D"/>
<path d="M193.295 118.516C193.295 118.834 193.035 119.089 192.711 119.089C192.386 119.089 192.126 118.834 192.126 118.516C192.126 118.197 192.386 117.942 192.711 117.942C193.035 117.932 193.295 118.197 193.295 118.516Z" fill="#FF5AB1"/>
<path d="M58.0863 174.164L56.6572 174.111L66.1736 142.199L67.4727 142.57L58.0863 174.164Z" fill="#D37D00"/>
<path d="M84.2541 174.164L82.8467 174.154L92.3414 142.199L93.6405 142.57L84.2541 174.164Z" fill="#D37D00"/>
<path d="M97.9501 174.291H96.6617L94.8537 160.571H69.4552L71.2632 174.291H69.9857L64.0962 129.656C64.0637 129.402 64.2694 129.168 64.5292 129.168H91.6167C91.8332 129.168 92.0172 129.327 92.0497 129.54L97.9501 174.291Z" fill="#FFC331"/>
<path d="M94.6263 159.306H69.3577L65.6226 131.005L65.5576 130.506C65.5576 130.495 65.5576 130.484 65.5576 130.484H90.8154L94.6263 159.306Z" fill="#E89F0F"/>
<path d="M94.0313 159.306H69.3581L65.623 130.994H90.2854L94.0313 159.306Z" fill="#FFC331"/>
<g opacity="0.5">
<path opacity="0.5" d="M75.1379 139.459C76.7077 139.459 78.0068 140.394 78.2667 142.188C78.5265 143.983 77.498 144.918 75.9282 144.918C74.3584 144.918 73.0376 143.983 72.7777 142.188C72.5287 140.394 73.5789 139.459 75.1379 139.459ZM74.7265 142.188C74.8347 142.953 75.1812 143.282 75.6792 143.282C76.1772 143.282 76.437 142.942 76.3288 142.188C76.2205 141.413 75.8524 141.073 75.3544 141.073C74.8672 141.073 74.6182 141.413 74.7265 142.188ZM80.8866 139.629H83.604L78.9054 151.003H76.188L80.8866 139.629ZM83.8747 145.725C85.4445 145.725 86.7437 146.649 87.0035 148.454C87.2633 150.249 86.2348 151.183 84.665 151.183C83.0952 151.183 81.7961 150.249 81.5362 148.454C81.2764 146.649 82.3157 145.725 83.8747 145.725ZM83.4633 148.454C83.5716 149.219 83.918 149.548 84.416 149.548C84.914 149.548 85.1739 149.208 85.0656 148.454C84.9573 147.689 84.5892 147.339 84.0912 147.339C83.604 147.339 83.355 147.7 83.4633 148.454Z" fill="#FFC331"/>
</g>
<path d="M76.2209 138.928C77.7907 138.928 79.0899 139.862 79.3497 141.657C79.6095 143.452 78.581 144.386 77.0112 144.386C75.4414 144.386 74.1206 143.452 73.8607 141.657C73.6117 139.862 74.6619 138.928 76.2209 138.928ZM75.8095 141.657C75.9177 142.422 76.2642 142.751 76.7622 142.751C77.2602 142.751 77.52 142.411 77.4118 141.657C77.3035 140.882 76.9354 140.542 76.4374 140.542C75.9502 140.542 75.7012 140.882 75.8095 141.657ZM81.9697 139.098H84.6871L79.9884 150.471H77.271L81.9697 139.098ZM84.9577 145.193C86.5275 145.193 87.8267 146.117 88.0865 147.923C88.3464 149.717 87.3179 150.652 85.748 150.652C84.1782 150.652 82.8791 149.717 82.6192 147.923C82.3594 146.117 83.3987 145.193 84.9577 145.193ZM84.5463 147.923C84.6546 148.687 85.001 149.017 85.499 149.017C85.997 149.017 86.2569 148.677 86.1486 147.923C86.0404 147.158 85.6723 146.808 85.1743 146.808C84.6871 146.808 84.4381 147.169 84.5463 147.923Z" fill="white"/>
<path d="M226.435 59.0607C228.201 57.1717 228.072 54.236 226.146 52.5037C224.22 50.7713 221.227 50.8982 219.461 52.7872C217.695 54.6762 217.825 57.6119 219.75 59.3443C221.676 61.0766 224.669 60.9497 226.435 59.0607Z" fill="#F2EFE9"/>
<path d="M120.921 60.3506C123.337 59.3751 124.489 56.663 123.495 54.293C122.5 51.9229 119.735 50.7924 117.319 51.7679C114.903 52.7434 113.751 55.4555 114.745 57.8256C115.739 60.1956 118.504 61.3261 120.921 60.3506Z" fill="#F2EFE9"/>
<path d="M123.293 39.0273C123.293 40.1742 122.34 41.1088 121.171 41.1088C120.002 41.1088 119.049 40.1742 119.049 39.0273C119.049 37.8803 120.002 36.9458 121.171 36.9458C122.34 36.9458 123.293 37.8803 123.293 39.0273Z" fill="#F2EFE9"/>
<path d="M64.1712 84.9367C64.7512 84.9367 65.2214 84.4755 65.2214 83.9066C65.2214 83.3377 64.7512 82.8765 64.1712 82.8765C63.5913 82.8765 63.1211 83.3377 63.1211 83.9066C63.1211 84.4755 63.5913 84.9367 64.1712 84.9367Z" fill="#F2EFE9"/>
<path d="M182.177 34.5247C182.177 35.0982 181.712 35.5549 181.127 35.5549C180.543 35.5549 180.077 35.0982 180.077 34.5247C180.077 33.9513 180.543 33.4946 181.127 33.4946C181.712 33.4946 182.177 33.9513 182.177 34.5247Z" fill="#F2EFE9"/>
<path d="M157.493 13.0515C157.493 13.6037 157.039 14.0497 156.476 14.0497C155.913 14.0497 155.458 13.6037 155.458 13.0515C155.458 12.4993 155.913 12.0532 156.476 12.0532C157.039 12.0532 157.493 12.4993 157.493 13.0515Z" fill="#F2EFE9"/>
<path d="M277.46 99.1673C277.46 99.7408 276.994 100.197 276.41 100.197C275.825 100.197 275.359 99.7408 275.359 99.1673C275.359 98.5939 275.825 98.1372 276.41 98.1372C276.994 98.1372 277.46 98.5939 277.46 99.1673Z" fill="#F2EFE9"/>
<path d="M270.682 160.135C270.682 160.709 270.217 161.165 269.632 161.165C269.048 161.165 268.582 160.709 268.582 160.135C268.582 159.562 269.048 159.105 269.632 159.105C270.206 159.105 270.682 159.562 270.682 160.135Z" fill="#F2EFE9"/>
<path d="M231.416 42.203C231.416 42.7764 230.95 43.2331 230.366 43.2331C229.781 43.2331 229.315 42.7764 229.315 42.203C229.315 41.6295 229.781 41.1729 230.366 41.1729C230.95 41.1729 231.416 41.6295 231.416 42.203Z" fill="#F2EFE9"/>
<path d="M67.7644 125.058C67.7644 125.632 67.2988 126.089 66.7142 126.089C66.1296 126.089 65.6641 125.632 65.6641 125.058C65.6641 124.485 66.1296 124.028 66.7142 124.028C67.288 124.028 67.7644 124.485 67.7644 125.058Z" fill="#F2EFE9"/>
<path d="M89.3954 70.0585C90.5673 70.0585 91.5174 69.1266 91.5174 67.977C91.5174 66.8274 90.5673 65.8955 89.3954 65.8955C88.2235 65.8955 87.2734 66.8274 87.2734 67.977C87.2734 69.1266 88.2235 70.0585 89.3954 70.0585Z" fill="#F2EFE9"/>
<path d="M58.5946 154.306C59.7665 154.306 60.7166 153.374 60.7166 152.224C60.7166 151.074 59.7665 150.143 58.5946 150.143C57.4227 150.143 56.4727 151.074 56.4727 152.224C56.4727 153.374 57.4227 154.306 58.5946 154.306Z" fill="#F2EFE9"/>
<path d="M274.363 121.257C274.363 122.287 273.507 123.126 272.457 123.126C271.407 123.126 270.552 122.287 270.552 121.257C270.552 120.227 271.407 119.388 272.457 119.388C273.507 119.388 274.363 120.227 274.363 121.257Z" fill="#F2EFE9"/>
<path d="M258.6 52.4614C258.6 62.1254 248.661 73.9239 248.661 73.9239C248.661 73.9239 238.723 62.1254 238.723 52.4614C238.723 47.0771 243.172 42.7124 248.661 42.7124C254.15 42.7124 258.6 47.0878 258.6 52.4614Z" fill="#EF8E00"/>
<path d="M253.882 52.8895C254.121 50.0546 251.972 47.5666 249.082 47.3325C246.192 47.0984 243.655 49.2068 243.417 52.0417C243.178 54.8766 245.327 57.3646 248.217 57.5987C251.107 57.8328 253.644 55.7244 253.882 52.8895Z" fill="#F9FBFC"/>
<path d="M189.357 60.5654H187.072V64.3779H189.357V60.5654Z" fill="#FFC331"/>
<path d="M189.357 60.5654H187.072V64.3779H189.357V60.5654Z" fill="#FFC331"/>
<path d="M154.301 60.5654H152.017V64.3779H154.301V60.5654Z" fill="#FFC331"/>
<path d="M154.301 60.5654H152.017V64.3779H154.301V60.5654Z" fill="#FFC331"/>
<path d="M194.282 60.5755H147.09C145.888 60.5755 144.925 59.6198 144.925 58.4516V42.6069C144.925 41.4281 145.899 40.4829 147.09 40.4829H194.282C195.484 40.4829 196.447 41.4387 196.447 42.6069V58.441C196.447 59.6198 195.484 60.5755 194.282 60.5755Z" fill="#FFC331"/>
<path d="M194.282 42.0334C194.607 42.0334 194.877 42.2989 194.877 42.6175V58.4516C194.877 58.7702 194.607 59.0357 194.282 59.0357H147.09C146.765 59.0357 146.495 58.7702 146.495 58.4516V42.6069C146.495 42.2883 146.765 42.0228 147.09 42.0228H194.282V42.0334ZM194.282 40.4829H147.09C145.888 40.4829 144.925 41.4387 144.925 42.6069V58.441C144.925 59.6197 145.899 60.5649 147.09 60.5649H194.282C195.484 60.5649 196.447 59.6091 196.447 58.441V42.6069C196.447 41.4387 195.484 40.4829 194.282 40.4829Z" fill="#FFC331"/>
<path d="M194.281 61.3506H147.089C145.455 61.3506 144.134 60.0444 144.134 58.4514V42.6067C144.134 41.0031 145.465 39.7075 147.089 39.7075H194.281C195.916 39.7075 197.237 41.0138 197.237 42.6067V58.4408C197.237 60.0444 195.916 61.3506 194.281 61.3506ZM147.089 41.258C146.332 41.258 145.704 41.8633 145.704 42.6173V58.4514C145.704 59.1948 146.321 59.8108 147.089 59.8108H194.281C195.039 59.8108 195.667 59.2054 195.667 58.4514V42.6067C195.667 41.8633 195.05 41.2474 194.281 41.2474H147.089V41.258Z" fill="#FF9C00"/>
<path d="M157.83 54.3435C157.326 54.3435 156.87 54.2572 156.463 54.0846C156.062 53.9119 155.745 53.6633 155.51 53.3388C155.275 53.0142 155.154 52.631 155.147 52.1891H156.701C156.722 52.486 156.825 52.7208 157.012 52.8934C157.205 53.066 157.468 53.1524 157.799 53.1524C158.137 53.1524 158.403 53.0729 158.597 52.9141C158.79 52.7484 158.887 52.5343 158.887 52.2719C158.887 52.0579 158.821 51.8818 158.69 51.7437C158.559 51.6056 158.393 51.4986 158.193 51.4226C157.999 51.3397 157.73 51.25 157.385 51.1533C156.915 51.0152 156.532 50.8805 156.235 50.7493C155.945 50.6112 155.693 50.4075 155.479 50.1382C155.272 49.862 155.168 49.496 155.168 49.0403C155.168 48.6122 155.275 48.2393 155.489 47.9217C155.703 47.604 156.004 47.3623 156.39 47.1966C156.777 47.024 157.219 46.9377 157.716 46.9377C158.462 46.9377 159.066 47.1207 159.529 47.4866C159.998 47.8457 160.257 48.3498 160.306 48.9989H158.71C158.697 48.7503 158.59 48.5466 158.389 48.3878C158.196 48.222 157.937 48.1392 157.613 48.1392C157.329 48.1392 157.102 48.2117 156.929 48.3567C156.763 48.5017 156.68 48.7123 156.68 48.9885C156.68 49.1819 156.742 49.3441 156.867 49.4753C156.998 49.5996 157.157 49.7032 157.343 49.7861C157.537 49.862 157.806 49.9518 158.151 50.0554C158.621 50.1935 159.004 50.3316 159.301 50.4697C159.598 50.6078 159.853 50.8149 160.067 51.0912C160.281 51.3674 160.388 51.7299 160.388 52.1787C160.388 52.5654 160.288 52.9245 160.088 53.2559C159.888 53.5874 159.594 53.8532 159.208 54.0535C158.821 54.2468 158.362 54.3435 157.83 54.3435ZM166.566 47.0413V48.2117H164.639V54.271H163.189V48.2117H161.262V47.0413H166.566ZM170.98 54.3435C170.303 54.3435 169.681 54.1847 169.115 53.867C168.549 53.5494 168.1 53.1109 167.769 52.5516C167.437 51.9854 167.271 51.3466 167.271 50.6354C167.271 49.9311 167.437 49.2993 167.769 48.7399C168.1 48.1737 168.549 47.7318 169.115 47.4141C169.681 47.0965 170.303 46.9377 170.98 46.9377C171.663 46.9377 172.285 47.0965 172.844 47.4141C173.41 47.7318 173.856 48.1737 174.18 48.7399C174.512 49.2993 174.677 49.9311 174.677 50.6354C174.677 51.3466 174.512 51.9854 174.18 52.5516C173.856 53.1109 173.41 53.5494 172.844 53.867C172.278 54.1847 171.656 54.3435 170.98 54.3435ZM170.98 53.0488C171.415 53.0488 171.798 52.9521 172.129 52.7588C172.461 52.5585 172.72 52.2754 172.906 51.9094C173.093 51.5434 173.186 51.1188 173.186 50.6354C173.186 50.152 173.093 49.7308 172.906 49.3718C172.72 49.0058 172.461 48.7261 172.129 48.5328C171.798 48.3394 171.415 48.2428 170.98 48.2428C170.545 48.2428 170.158 48.3394 169.819 48.5328C169.488 48.7261 169.229 49.0058 169.043 49.3718C168.856 49.7308 168.763 50.152 168.763 50.6354C168.763 51.1188 168.856 51.5434 169.043 51.9094C169.229 52.2754 169.488 52.5585 169.819 52.7588C170.158 52.9521 170.545 53.0488 170.98 53.0488ZM179.485 54.271L177.89 51.4537H177.206V54.271H175.756V47.0413H178.47C179.029 47.0413 179.506 47.1414 179.899 47.3416C180.293 47.535 180.586 47.8008 180.78 48.1392C180.98 48.4706 181.08 48.8435 181.08 49.2578C181.08 49.7343 180.942 50.1659 180.666 50.5525C180.389 50.9323 179.979 51.1947 179.433 51.3397L181.163 54.271H179.485ZM177.206 50.3661H178.418C178.812 50.3661 179.105 50.2729 179.298 50.0864C179.492 49.8931 179.588 49.6272 179.588 49.2889C179.588 48.9574 179.492 48.702 179.298 48.5224C179.105 48.336 178.812 48.2428 178.418 48.2428H177.206V50.3661ZM183.842 48.2117V50.0243H186.276V51.174H183.842V53.0902H186.586V54.271H182.392V47.0309H186.586V48.2117H183.842Z" fill="#F9F8F7"/>
<path d="M218.272 53.6511C217.103 53.6511 216.15 54.5856 216.15 55.7326C216.15 56.8795 217.103 57.814 218.272 57.814C219.442 57.814 220.394 56.8795 220.394 55.7326C220.394 54.575 219.442 53.6511 218.272 53.6511ZM213.325 50.6563L215.187 52.5679C215.988 51.8139 217.071 51.3466 218.272 51.3466C219.474 51.3466 220.557 51.8139 221.358 52.5679L223.22 50.6563C221.932 49.4457 220.189 48.7023 218.272 48.7023C216.356 48.7023 214.613 49.4457 213.325 50.6563ZM218.272 37.5728C213.303 37.5728 208.799 39.4949 205.476 42.6171L207.338 44.5287C210.185 41.8631 214.018 40.2171 218.261 40.2171C222.505 40.2171 226.349 41.8525 229.185 44.5287L231.047 42.6171C227.745 39.4949 223.242 37.5728 218.272 37.5728ZM209.46 46.6845L211.322 48.5961C213.13 46.8969 215.577 45.8456 218.283 45.8456C220.99 45.8456 223.426 46.8969 225.244 48.5961L227.107 46.6845C224.811 44.5287 221.715 43.2012 218.283 43.2012C214.851 43.2012 211.744 44.5287 209.46 46.6845Z" fill="#FFC331"/>
<path d="M84.9678 66.3728L84.4698 66.702C83.9934 67.01 83.3547 66.8825 83.0407 66.4153L79.6521 61.4134L78.5586 59.7885L80.3882 58.5991L80.778 58.3442L81.0162 58.6947L82.1529 60.3726L85.2601 64.9604C85.574 65.4383 85.4441 66.0648 84.9678 66.3728Z" fill="#FF9C00"/>
<path d="M101.792 48.7546C102.139 49.5723 102.041 50.4643 101.597 51.1652C101.316 51.6219 100.883 52.0042 100.342 52.2166L100.277 52.2378C100.179 52.2803 100.082 52.3122 99.9735 52.3334C99.9735 52.3334 99.9626 52.344 99.941 52.344C99.8544 52.3759 99.7678 52.3865 99.692 52.3971C99.6487 52.4078 99.5945 52.4078 99.5512 52.4184C99.4646 52.429 99.378 52.429 99.2914 52.429C99.194 52.429 99.0965 52.429 98.9991 52.4184C98.9883 52.4184 98.9883 52.4078 98.9774 52.4184C98.8692 52.4078 98.7717 52.3865 98.6635 52.3653C98.6526 52.3653 98.631 52.3547 98.6202 52.3547C98.5227 52.3334 98.4253 52.3016 98.3387 52.2591C98.133 52.1954 97.9381 52.0892 97.7649 51.9723C97.3427 51.6962 96.9962 51.3033 96.7905 50.8148C96.2167 49.4661 96.8555 47.905 98.2304 47.3421C98.7284 47.1404 99.2589 47.0872 99.7569 47.1722C99.8002 47.1828 99.8327 47.1828 99.876 47.1934C100.071 47.2359 100.266 47.2996 100.439 47.3846C100.504 47.4165 100.569 47.4483 100.623 47.4802C100.666 47.5014 100.71 47.5227 100.753 47.5545C100.775 47.5651 100.796 47.5758 100.807 47.5864C100.948 47.6713 101.067 47.7669 101.175 47.8837C101.218 47.9262 101.251 47.9581 101.283 48.0006C101.316 48.0324 101.348 48.0643 101.381 48.1067C101.413 48.1492 101.457 48.1917 101.478 48.2342C101.522 48.2767 101.554 48.3191 101.576 48.3722C101.597 48.4041 101.619 48.4253 101.63 48.4572C101.706 48.5528 101.749 48.6484 101.792 48.7546Z" fill="#112B46"/>
<path d="M101.793 48.7543C102.139 49.5721 102.042 50.4641 101.598 51.165C101.317 51.6217 100.884 52.004 100.342 52.2164L100.277 52.2376C100.18 52.2801 100.082 52.312 99.9742 52.3332C99.9742 52.3332 99.9634 52.3438 99.9417 52.3438C99.8551 52.3757 99.7685 52.3863 99.6927 52.3969C99.6494 52.4076 99.5953 52.4076 99.552 52.4182C99.4654 52.4288 99.3788 52.4288 99.2921 52.4288C99.1947 52.4288 99.0973 52.4288 98.9998 52.4182C98.989 52.4182 98.989 52.4076 98.9782 52.4182C98.8699 52.4076 98.7725 52.3863 98.6642 52.3651C98.6534 52.3651 98.6317 52.3545 98.6209 52.3545C98.5235 52.3332 98.426 52.3014 98.3394 52.2589C98.1337 52.1845 97.9388 52.089 97.7656 51.9721C98.2636 52.0677 98.7941 52.0146 99.2813 51.8129C99.5411 51.7067 99.7685 51.5686 99.9742 51.3987C100.505 50.9526 100.851 50.3261 100.927 49.6464C100.97 49.2216 100.916 48.765 100.732 48.3402C100.548 47.9154 100.267 47.5543 99.9201 47.2888C99.8768 47.2463 99.8226 47.2145 99.7685 47.1826C99.8118 47.1932 99.8443 47.1932 99.8876 47.2145C100.082 47.257 100.277 47.3207 100.451 47.4056C100.516 47.4375 100.58 47.4694 100.635 47.5012C100.678 47.5225 100.721 47.5437 100.765 47.5755C100.786 47.5862 100.808 47.5968 100.819 47.6074C100.959 47.6924 101.078 47.7879 101.187 47.9048C101.23 47.9472 101.263 47.9791 101.295 48.0216C101.327 48.0534 101.36 48.0853 101.392 48.1278C101.425 48.1703 101.468 48.2127 101.49 48.2552C101.533 48.2977 101.566 48.3402 101.587 48.3933C101.609 48.4251 101.631 48.4464 101.641 48.4782C101.706 48.5526 101.75 48.6481 101.793 48.7543Z" fill="#112B46"/>
<path d="M83.0851 60.0015L82.1541 60.3838L79.6532 61.414L79.231 61.5839L77.2497 56.9749L76.6543 55.5837L80.5085 53.9907L82.5438 58.7271L83.0851 60.0015Z" fill="#FF9C00"/>
<path d="M79.2301 61.583L78.9053 61.7211C78.299 61.9653 77.5953 61.6892 77.3463 61.0945L75.7007 57.2396C75.4409 56.6449 75.7332 55.9652 76.3286 55.7103L76.6534 55.5723L77.2489 56.9634L79.2301 61.583Z" fill="#FFC331"/>
<path d="M102.583 57.431H102.572L83.0845 60.001L82.5432 58.7266L80.5078 53.9902L96.0219 42.1279L98.2522 47.3316L99.9952 51.3884L100.352 52.2167L102.583 57.431Z" fill="#FFC331"/>
<path opacity="0.5" d="M102.582 57.431L83.0843 60.001L82.543 58.7373C85.3903 58.5992 88.7681 57.3886 92.1459 55.6469C98.7283 52.2698 96.0326 42.1279 96.0326 42.1279L98.2628 47.3316L100.006 51.3884L100.363 52.2167L102.582 57.431Z" fill="#FFC331"/>
<path d="M104.304 57.4735C104.434 57.7815 104.282 58.1213 103.979 58.2487L103.644 58.3868C103.33 58.5142 102.983 58.3656 102.853 58.0682L102.583 57.431L100.353 52.2167L99.9953 51.3884L98.2522 47.3316L96.022 42.1173L95.7513 41.4801C95.6214 41.1721 95.7622 40.8323 96.0761 40.7049L96.4117 40.5668C96.7149 40.4394 97.0722 40.5881 97.2021 40.8854L97.7759 42.2341L99.8978 47.1829L99.9411 47.2785L100.948 49.6361L101.598 51.1547L104.304 57.4735Z" fill="#FF9C00"/>
<path d="M111.352 53.608L106.361 53.7673L112.023 54.5744L122.113 56.0187C122.936 56.1355 123.683 55.5408 123.727 54.7231C123.77 53.9054 123.099 53.2363 122.265 53.2576L111.352 53.608ZM122.081 40.5775C121.756 39.8235 120.847 39.505 120.111 39.8873L106.091 47.045L104.846 47.6822L106.253 47.2362L121.215 42.4466C122.005 42.1918 122.406 41.3316 122.081 40.5775ZM110.865 29.756L101.479 42.3723L112.987 31.5826C113.582 31.0197 113.572 30.0746 112.944 29.533C112.305 28.9914 111.352 29.0976 110.865 29.756Z" fill="#FFC331"/>
</g>
<defs>
<radialGradient id="paint0_radial" cx="0" cy="0" r="1" gradientUnits="userSpaceOnUse" gradientTransform="translate(341 337.317) rotate(-117.973) scale(221.721 3112.36)">
<stop stop-color="#232323"/>
<stop offset="0.427083" stop-color="#353535"/>
<stop offset="0.776042" stop-color="#1C1C1D"/>
<stop offset="1" stop-color="#252526"/>
</radialGradient>
<clipPath id="clip0">
<rect width="325.937" height="213.15" fill="white" transform="translate(15.0625)"/>
</clipPath>
</defs>
</svg>
