<svg width="341" height="445" viewBox="0 0 341 445" fill="none" xmlns="http://www.w3.org/2000/svg">
<rect y="126" width="335" height="319" rx="16" fill="url(#paint0_radial)"/>
<ellipse cx="129.5" cy="227.5" rx="116.5" ry="19.5" fill="#444444"/>
<path d="M140.955 36.41C121.555 27.7329 94.5928 37.6372 77.8961 49.9861C70.7953 55.2368 64.2222 62.1012 62.472 70.7168C60.7219 79.3325 65.5899 89.6631 74.2873 91.3083C78.5424 92.1143 82.8711 90.8207 87.1463 90.081C105.129 86.9647 122.435 99.1445 140.301 94.6218C157.871 90.1755 165.316 66.3551 156.852 51.293C152.757 44.0041 147.255 39.226 140.955 36.41Z" fill="#121617"/>
<path d="M312.872 192.506C311.5 198.239 308.795 203.574 304.973 208.083C304.305 208.868 303.614 209.613 302.903 210.329H69.5251C66.9483 210.329 57.426 190.635 55.9981 187.539C51.8632 178.599 48.4397 169.271 46.945 159.511C45.0563 147.192 46.414 134.08 52.6514 123.267C58.8889 112.453 70.4603 104.335 82.997 103.985C101.749 103.466 118.89 119.409 137.314 115.926C148.723 113.77 157.439 104.556 163.676 94.8274C169.914 85.0989 174.612 74.2857 182.367 65.7016C196.141 50.4554 219.321 44.3738 238.881 50.875C258.442 57.3761 273.265 76.0835 275.024 96.4975C275.658 103.876 274.73 111.306 275.064 118.706C275.83 135.698 286.266 139.486 296.264 151.026C304.05 160.011 312.946 169.435 313.726 183.122C313.896 186.274 313.608 189.435 312.872 192.506Z" fill="#121617"/>
<path d="M244.735 134.998C244.914 138.895 246.489 142.6 249.176 145.446C251.863 148.291 255.485 150.09 259.389 150.518C261.912 150.795 264.733 150.376 266.445 148.528C267.781 147.087 268.237 145.027 268.295 143.055C268.323 142.207 268.28 141.358 268.167 140.516C267.358 134.192 262.904 128.366 256.874 126.103C254.215 125.107 251.084 124.801 248.638 126.234C246.435 127.521 245.241 129.953 244.86 132.512C244.736 133.335 244.694 134.168 244.735 134.998Z" fill="#DB9C00"/>
<path d="M244.735 134.999C244.914 138.896 246.489 142.601 249.176 145.446C251.863 148.292 255.485 150.091 259.389 150.519C261.912 150.796 264.733 150.376 266.445 148.528C267.781 147.087 268.237 145.027 268.295 143.056C268.323 142.207 268.28 141.358 268.167 140.516C263.733 143.523 257.662 144.019 252.814 141.704C249.042 139.901 246.144 136.458 244.86 132.513C244.736 133.335 244.694 134.168 244.735 134.999Z" fill="#FF6D00"/>
<path d="M268.744 162.265C268.744 162.265 268.831 161.579 268.981 160.375C269.013 160.073 269.071 159.741 269.089 159.38C269.108 159.018 269.113 158.618 269.126 158.195C269.14 157.772 269.153 157.32 269.168 156.845C269.155 156.371 269.111 155.872 269.083 155.353C269.054 154.834 269.039 154.288 268.958 153.732C268.876 153.177 268.791 152.6 268.697 152.009C268.647 151.714 268.62 151.411 268.548 151.112C268.477 150.814 268.405 150.512 268.331 150.207C268.178 149.598 268.049 148.966 267.854 148.344C267.658 147.722 267.428 147.097 267.211 146.46L267.044 145.981C266.984 145.815 266.91 145.671 266.842 145.513L266.427 144.576L266.017 143.622C265.871 143.308 265.709 143.001 265.532 142.702C265.198 142.093 264.864 141.483 264.51 140.878C263.76 139.706 262.922 138.591 262.005 137.543C260.276 135.589 258.307 133.859 256.144 132.393C255.158 131.708 254.186 131.119 253.281 130.592C252.822 130.342 252.388 130.094 251.964 129.871L250.753 129.262C249.985 128.895 249.312 128.585 248.749 128.348C248.186 128.111 247.747 127.935 247.44 127.811L246.974 127.625L247.431 127.829C247.728 127.965 248.169 128.161 248.719 128.418C249.268 128.675 249.935 129.002 250.688 129.39C251.441 129.778 252.273 130.25 253.171 130.779C254.069 131.308 255.008 131.924 255.98 132.624C256.952 133.323 257.925 134.116 258.914 134.945C259.91 135.831 260.851 136.776 261.731 137.775C262.627 138.819 263.444 139.928 264.176 141.092C264.522 141.677 264.854 142.291 265.192 142.886C265.371 143.178 265.535 143.479 265.683 143.788L266.102 144.72C266.242 145.03 266.381 145.338 266.518 145.646C266.586 145.8 266.66 145.951 266.721 146.107L266.888 146.58C267.107 147.206 267.324 147.828 267.536 148.439C267.748 149.049 267.86 149.679 268.027 150.278C268.106 150.58 268.184 150.877 268.261 151.172C268.338 151.467 268.37 151.766 268.428 152.057C268.528 152.641 268.625 153.209 268.719 153.761C268.811 154.311 268.821 154.852 268.874 155.368C268.927 155.883 268.963 156.379 268.989 156.85C268.989 157.321 268.989 157.769 268.989 158.189V159.37C268.989 159.734 268.934 160.068 268.912 160.365C268.804 161.575 268.744 162.265 268.744 162.265Z" fill="#B24800"/>
<path d="M253.432 148.598C253.461 148.597 253.49 148.591 253.517 148.58C255.623 147.575 257.8 146.536 259.602 144.966C261.616 143.209 262.81 140.962 262.879 138.803L262.894 138.32L262.548 138.652C260.611 140.524 258.307 141.98 255.778 142.93C253.25 143.879 250.552 144.301 247.852 144.17C247.826 144.167 247.801 144.17 247.776 144.178C247.751 144.187 247.729 144.2 247.71 144.217C247.69 144.234 247.675 144.255 247.664 144.278C247.653 144.301 247.647 144.326 247.647 144.352C247.645 144.377 247.649 144.403 247.658 144.427C247.666 144.45 247.679 144.472 247.696 144.491C247.713 144.51 247.734 144.525 247.757 144.536C247.78 144.547 247.805 144.553 247.83 144.554C250.498 144.684 253.165 144.284 255.675 143.378C258.185 142.471 260.488 141.078 262.45 139.277C262.233 141.178 261.114 143.117 259.34 144.669C257.567 146.221 255.426 147.231 253.343 148.225C253.303 148.243 253.271 148.275 253.251 148.314C253.232 148.354 253.227 148.398 253.236 148.441C253.246 148.484 253.27 148.522 253.305 148.549C253.34 148.577 253.382 148.591 253.427 148.591L253.432 148.598Z" fill="#B24800"/>
<path d="M258.502 133.911C258.543 133.911 258.582 133.898 258.615 133.875C258.648 133.851 258.673 133.818 258.686 133.78C259.688 130.922 258.559 127.454 256.069 125.713C256.048 125.698 256.024 125.688 255.999 125.682C255.975 125.677 255.949 125.676 255.924 125.681C255.899 125.685 255.875 125.694 255.853 125.708C255.832 125.721 255.813 125.739 255.798 125.759C255.783 125.78 255.773 125.803 255.767 125.828C255.762 125.853 255.761 125.878 255.766 125.903C255.77 125.928 255.779 125.952 255.793 125.974C255.806 125.995 255.824 126.013 255.845 126.028C258.198 127.675 259.262 130.954 258.318 133.657C258.302 133.705 258.305 133.758 258.328 133.804C258.35 133.85 258.39 133.885 258.438 133.902C258.459 133.909 258.48 133.912 258.502 133.911Z" fill="#B24800"/>
<path d="M271.115 133.685C271.927 135.158 273.163 136.422 274.702 137.116C276.558 137.956 278.71 137.916 280.714 137.563C287.954 136.291 294.213 130.801 296.65 123.952C297.029 122.891 297.313 121.799 297.498 120.688C297.77 119.029 297.832 117.313 297.458 115.674C296.456 111.346 292.294 108.11 287.852 107.617C283.41 107.125 278.899 109.11 275.795 112.306C272.76 115.43 270.972 119.603 270.173 123.862L270.118 124.157C269.547 127.37 269.537 130.831 271.115 133.685Z" fill="#FFBC00"/>
<path d="M271.115 133.685C271.927 135.158 273.163 136.421 274.702 137.116C276.558 137.955 278.71 137.916 280.714 137.562C287.954 136.29 294.213 130.801 296.65 123.951C293.223 126.273 289.672 128.459 285.684 129.514C281.085 130.73 275.718 130.156 272.301 126.86C271.412 125.997 270.691 124.979 270.173 123.857L270.118 124.152C269.547 127.37 269.537 130.831 271.115 133.685Z" fill="#FF6D00"/>
<path d="M272.341 158.557C272.341 158.557 272.341 157.698 272.355 156.197C272.355 155.822 272.355 155.406 272.365 154.955C272.375 154.504 272.418 154.016 272.448 153.494C272.478 152.971 272.508 152.419 272.542 151.835C272.575 151.251 272.665 150.639 272.729 150.001C272.792 149.362 272.857 148.696 272.954 148.011C273.051 147.326 273.18 146.621 273.288 145.895C273.348 145.531 273.41 145.163 273.47 144.792C273.53 144.42 273.637 144.049 273.716 143.672C273.883 142.919 274.036 142.143 274.217 141.364C274.646 139.816 275.03 138.203 275.596 136.612C276.086 134.998 276.754 133.42 277.37 131.824C278.079 130.267 278.736 128.673 279.541 127.202C280.281 125.685 281.164 124.278 281.974 122.89C282.401 122.21 282.857 121.563 283.278 120.913L283.909 119.956C284.128 119.648 284.357 119.351 284.577 119.054C285.023 118.464 285.45 117.889 285.86 117.331C286.284 116.782 286.73 116.279 287.139 115.782C287.548 115.284 287.941 114.808 288.332 114.371L289.467 113.148L290.469 112.074C290.787 111.742 291.095 111.468 291.364 111.205L293.068 109.561L291.311 111.152C291.035 111.407 290.718 111.681 290.394 111.997L289.365 113.049L288.196 114.246C287.794 114.676 287.401 115.157 286.976 115.643C286.55 116.129 286.102 116.638 285.668 117.177L284.354 118.888C284.128 119.183 283.894 119.477 283.671 119.784L283.021 120.736C282.583 121.379 282.131 122.033 281.695 122.713C280.873 124.104 279.977 125.515 279.225 127.036C278.402 128.529 277.732 130.111 277.011 131.68C276.399 133.29 275.736 134.881 275.252 136.508C274.691 138.108 274.312 139.733 273.889 141.291C273.711 142.077 273.555 142.855 273.402 143.613C273.325 143.993 273.249 144.369 273.175 144.74C273.118 145.115 273.062 145.485 273.008 145.851C272.901 146.581 272.796 147.293 272.695 147.981C272.595 148.669 272.565 149.341 272.502 149.981C272.438 150.621 272.375 151.238 272.345 151.824C272.315 152.409 272.31 152.968 272.293 153.492C272.276 154.016 272.261 154.504 272.246 154.956C272.231 155.409 272.263 155.824 272.268 156.2C272.32 157.7 272.341 158.557 272.341 158.557Z" fill="#B24800"/>
<path d="M284.479 119.386C284.53 119.386 284.58 119.366 284.616 119.33C284.652 119.293 284.672 119.244 284.672 119.193C284.672 119.142 284.652 119.092 284.616 119.056C281.877 116.354 280.501 113.066 280.526 109.271C280.526 109.246 280.522 109.22 280.512 109.197C280.502 109.173 280.488 109.152 280.47 109.134C280.452 109.116 280.431 109.101 280.407 109.092C280.383 109.082 280.358 109.077 280.332 109.077C280.307 109.075 280.281 109.079 280.256 109.087C280.232 109.096 280.21 109.11 280.191 109.128C280.173 109.146 280.158 109.168 280.149 109.192C280.14 109.216 280.136 109.242 280.137 109.268C280.112 113.162 281.526 116.545 284.34 119.321C284.358 119.341 284.379 119.357 284.403 119.368C284.427 119.379 284.453 119.385 284.479 119.386Z" fill="#B24800"/>
<path d="M287.281 126.522C290.736 126.525 294.087 125.344 296.768 123.179C296.808 123.147 296.834 123.1 296.84 123.05C296.846 122.999 296.831 122.948 296.799 122.908C296.767 122.868 296.72 122.842 296.669 122.836C296.618 122.83 296.566 122.845 296.526 122.877C292.15 126.36 286.506 127.088 281.048 124.882C281.001 124.864 280.948 124.866 280.902 124.886C280.856 124.906 280.819 124.943 280.8 124.99C280.781 125.036 280.781 125.089 280.801 125.135C280.82 125.182 280.857 125.219 280.903 125.239C282.925 126.073 285.091 126.509 287.281 126.522Z" fill="#B24800"/>
<path d="M292.722 146.185C294.35 149.104 298.111 150.25 301.461 149.978C305.65 149.646 309.626 147.246 311.949 143.827C313.053 142.235 313.751 140.401 313.981 138.481C314.287 135.77 313.505 132.758 311.299 131.131C309.778 130.007 307.792 129.68 305.898 129.751C300.464 129.954 295.279 133.367 292.974 138.257C292.887 138.445 292.807 138.632 292.722 138.826C291.747 141.19 291.483 143.954 292.722 146.185Z" fill="#FFBC00"/>
<path d="M292.722 146.185C294.35 149.104 298.111 150.25 301.461 149.978C305.649 149.646 309.626 147.246 311.949 143.826C309.739 144.822 307.481 145.712 305.102 146.122C301.864 146.676 298.306 146.249 295.713 144.243C294.872 143.584 294.174 142.764 293.66 141.831C293.146 140.898 292.827 139.871 292.722 138.813C291.747 141.19 291.483 143.954 292.722 146.185Z" fill="#FF6D00"/>
<path d="M282.717 161.667L283.552 160.058C283.682 159.803 283.829 159.519 283.988 159.211L284.537 158.234C284.733 157.883 284.941 157.512 285.162 157.121C285.385 156.733 285.638 156.333 285.891 155.91C286.145 155.487 286.409 155.048 286.695 154.6C286.98 154.152 287.293 153.701 287.607 153.232L288.081 152.517L288.599 151.807L289.661 150.338C290.426 149.373 291.184 148.348 292.042 147.382C292.864 146.387 293.779 145.439 294.671 144.473C295.604 143.55 296.508 142.599 297.483 141.744C298.421 140.851 299.418 140.055 300.359 139.256L301.797 138.146L302.493 137.606L303.193 137.108L304.539 136.156C304.98 135.856 305.417 135.586 305.831 135.317C306.245 135.048 306.641 134.788 307.027 134.554L308.129 133.902L309.098 133.33C309.4 133.164 309.686 133.014 309.933 132.876L311.531 132.015C311.531 132.015 310.938 132.305 309.898 132.81C309.639 132.939 309.348 133.075 309.039 133.236L308.051 133.778L306.923 134.395C306.529 134.616 306.132 134.876 305.708 135.133C305.284 135.39 304.841 135.659 304.393 135.949L303.022 136.879L302.308 137.365L301.598 137.893C301.12 138.249 300.631 138.616 300.142 138.996C299.19 139.79 298.183 140.584 297.232 141.483C296.249 142.337 295.327 143.288 294.383 144.213C293.492 145.19 292.578 146.145 291.758 147.155C290.901 148.135 290.145 149.167 289.383 150.14L288.331 151.633L287.83 152.358L287.366 153.084L286.479 154.477C286.202 154.932 285.95 155.381 285.701 155.804C285.452 156.227 285.2 156.633 284.996 157.035C284.793 157.436 284.591 157.814 284.407 158.171L283.887 159.166C283.741 159.479 283.604 159.768 283.48 160.028L282.717 161.667Z" fill="#B24800"/>
<path d="M307.961 147.737C308.004 147.737 308.045 147.722 308.079 147.696C308.113 147.67 308.137 147.634 308.148 147.593C308.159 147.552 308.156 147.508 308.14 147.469C308.123 147.43 308.095 147.397 308.058 147.376C305.165 145.72 302.672 143.456 300.755 140.742C303.822 143.118 307.665 144.286 311.546 144.021C311.572 144.019 311.597 144.012 311.619 144C311.642 143.989 311.663 143.973 311.679 143.954C311.696 143.935 311.708 143.912 311.716 143.888C311.724 143.864 311.727 143.839 311.725 143.813C311.724 143.788 311.717 143.763 311.706 143.74C311.694 143.717 311.678 143.697 311.659 143.68C311.639 143.664 311.617 143.651 311.592 143.644C311.568 143.636 311.542 143.633 311.516 143.636C309.411 143.782 307.299 143.494 305.311 142.792C303.323 142.089 301.502 140.986 299.963 139.553C299.929 139.522 299.884 139.504 299.838 139.503C299.791 139.501 299.746 139.516 299.71 139.545C299.673 139.574 299.649 139.615 299.64 139.661C299.631 139.706 299.64 139.753 299.663 139.793C301.69 143.068 304.509 145.788 307.864 147.706C307.893 147.725 307.926 147.736 307.961 147.737Z" fill="#B24800"/>
<path d="M274.103 176.669C274.231 177.119 274.444 177.542 274.73 177.914C274.923 178.165 275.141 178.395 275.383 178.601C276.595 179.644 278.389 180.195 280.032 180.507C280.923 180.676 281.818 180.824 282.717 180.953C287.361 181.599 292.067 181.674 296.729 181.175C299.558 180.878 302.467 180.346 304.811 178.735C305.325 178.389 305.804 177.995 306.243 177.559C311.718 172.143 305.226 164.303 298.953 162.496C294.839 161.326 290.46 161.462 286.428 162.885C285.875 163.078 285.327 163.302 284.791 163.549C283.343 164.214 281.98 165.049 280.732 166.036C279.686 166.854 278.723 167.771 277.858 168.775C276.238 170.639 273.365 174.048 274.103 176.669Z" fill="#FFBC00"/>
<path d="M275.383 178.601C276.595 179.644 278.389 180.195 280.032 180.507C280.923 180.676 281.818 180.825 282.717 180.953C287.361 181.6 292.067 181.674 296.729 181.175C299.558 180.878 302.467 180.346 304.812 178.735C305.325 178.389 305.804 177.996 306.243 177.56C302.175 178.117 298.033 178.452 294.105 177.352C289.498 176.059 285.254 172.211 285.106 167.463C283.968 172.173 277.672 173.793 275.573 178.163C275.505 178.306 275.443 178.45 275.383 178.601Z" fill="#DB9C00"/>
<path d="M261.959 204.518H262.346C262.142 193.738 267.822 182.86 276.817 176.821C285.811 170.783 298.081 169.564 308.101 173.76L308.251 173.403C298.127 169.159 285.706 170.37 276.606 176.486C267.506 182.603 261.751 193.607 261.959 204.518Z" fill="#B24800"/>
<path d="M274.729 177.915C275.867 179.407 278.07 180.132 280.032 180.507C280.922 180.676 281.818 180.825 282.717 180.953C284.319 178.721 285.524 175.939 285.935 174.536C286.673 171.956 286.98 169.272 286.842 166.592C286.785 165.349 286.645 164.111 286.423 162.886C285.87 163.078 285.322 163.302 284.786 163.549C283.338 164.215 281.975 165.05 280.726 166.037C278.917 168.899 277.294 171.873 275.867 174.941C275.396 175.895 275.015 176.891 274.729 177.915Z" fill="#B77E00"/>
<path d="M292.278 171.8C292.324 171.799 292.369 171.782 292.405 171.752C292.44 171.722 292.463 171.68 292.47 171.634C292.817 169.658 293.556 167.77 294.643 166.079C295.73 164.388 297.144 162.929 298.802 161.784C298.823 161.77 298.841 161.752 298.855 161.73C298.869 161.709 298.878 161.685 298.883 161.66C298.887 161.636 298.887 161.61 298.882 161.585C298.876 161.561 298.866 161.537 298.852 161.516C298.837 161.496 298.819 161.478 298.797 161.464C298.776 161.45 298.752 161.441 298.727 161.436C298.702 161.432 298.676 161.432 298.651 161.438C298.626 161.443 298.603 161.453 298.582 161.467C296.88 162.641 295.43 164.138 294.315 165.871C293.2 167.605 292.442 169.541 292.086 171.567C292.081 171.593 292.082 171.619 292.088 171.645C292.095 171.67 292.106 171.694 292.121 171.714C292.137 171.735 292.157 171.753 292.179 171.766C292.202 171.779 292.227 171.788 292.253 171.791L292.278 171.8Z" fill="#B24800"/>
<path d="M300.729 180.744C300.774 180.744 300.818 180.729 300.853 180.701C300.892 180.668 300.917 180.621 300.922 180.57C300.926 180.519 300.911 180.468 300.878 180.429C299.855 179.191 299.114 177.748 298.707 176.199C298.299 174.65 298.235 173.031 298.518 171.455C298.523 171.43 298.523 171.404 298.518 171.379C298.512 171.354 298.502 171.331 298.488 171.31C298.473 171.289 298.455 171.271 298.433 171.257C298.412 171.243 298.388 171.234 298.363 171.229C298.312 171.22 298.26 171.232 298.218 171.26C298.175 171.289 298.146 171.333 298.136 171.383C297.843 173.015 297.91 174.69 298.332 176.293C298.754 177.896 299.52 179.39 300.579 180.671C300.597 180.693 300.62 180.712 300.646 180.724C300.672 180.737 300.7 180.744 300.729 180.744Z" fill="#B24800"/>
<path d="M245.82 176.974C243.911 177.818 242.792 179.979 242.862 182.054C242.933 184.129 244.045 186.072 245.561 187.502C247.078 188.932 248.975 189.898 250.905 190.688C252.836 191.477 255.189 192.043 256.832 190.789C257.702 190.126 258.18 189.056 258.373 187.983C258.763 185.839 258.131 183.58 256.894 181.779C255.656 179.978 253.856 178.608 251.884 177.632C250.008 176.704 247.744 176.128 245.82 176.974Z" fill="#CB91F9"/>
<path d="M261.142 204.913C261.167 204.913 261.192 204.908 261.216 204.899C261.239 204.889 261.261 204.875 261.279 204.857C261.297 204.84 261.311 204.819 261.321 204.795C261.331 204.772 261.336 204.747 261.336 204.722C261.431 194.605 256.192 182.096 244.469 178.53C244.421 178.52 244.371 178.528 244.329 178.552C244.286 178.577 244.255 178.617 244.241 178.663C244.227 178.71 244.23 178.76 244.252 178.803C244.273 178.847 244.31 178.882 244.355 178.9C255.89 182.406 261.042 194.741 260.95 204.717C260.949 204.742 260.954 204.768 260.963 204.791C260.973 204.815 260.987 204.836 261.005 204.855C261.023 204.873 261.044 204.887 261.067 204.897C261.091 204.907 261.116 204.912 261.142 204.913Z" fill="#7600FF"/>
<path d="M259.325 178.8C260.479 180.908 262.214 182.794 264.468 183.656C266.863 184.572 269.612 184.235 271.96 183.207C274.308 182.178 276.315 180.513 278.166 178.747C281.489 175.568 284.512 171.82 285.549 167.357C285.602 167.125 285.651 166.892 285.689 166.659C286.432 162.357 284.959 157.494 281.229 155.232C278.684 153.686 275.489 153.535 272.558 154.081C267.181 155.086 262.227 158.428 259.57 163.176C258.598 164.932 257.953 166.847 257.667 168.831C257.146 172.229 257.667 175.78 259.325 178.8Z" fill="#FFBC00"/>
<path d="M259.326 178.8C260.48 180.908 262.215 182.794 264.469 183.656C266.864 184.571 269.613 184.235 271.961 183.207C274.309 182.178 276.316 180.513 278.166 178.747C281.49 175.568 284.512 171.82 285.55 167.357C285.603 167.124 285.651 166.892 285.69 166.658C283.303 169.057 280.705 171.239 277.717 172.815C273.768 174.899 269.045 175.836 264.763 174.554C261.769 173.659 259.085 171.536 257.659 168.824C257.146 172.229 257.667 175.78 259.326 178.8Z" fill="#FF6D00"/>
<path d="M261.426 204.743L261.814 204.72C260.943 189.763 265.19 174.952 273.866 162.695C275.571 160.292 277.939 157.265 281.136 155.169L280.922 154.847C277.671 156.978 275.274 160.041 273.549 162.476C264.823 174.804 260.551 189.7 261.426 204.743Z" fill="#B24800"/>
<path d="M266.113 177.634C266.153 177.634 266.192 177.622 266.224 177.598C266.245 177.583 266.263 177.565 266.277 177.543C266.29 177.522 266.3 177.498 266.304 177.473C266.308 177.448 266.308 177.423 266.302 177.398C266.296 177.373 266.286 177.35 266.271 177.329C262.848 172.49 261.224 166.62 261.675 160.723C261.679 160.672 261.663 160.622 261.63 160.583C261.597 160.544 261.549 160.52 261.498 160.516C261.447 160.512 261.397 160.529 261.358 160.561C261.318 160.594 261.293 160.641 261.288 160.691C260.833 166.68 262.486 172.64 265.964 177.553C265.981 177.577 266.003 177.596 266.029 177.61C266.055 177.625 266.083 177.633 266.113 177.634Z" fill="#B24800"/>
<path d="M282.024 174.48C282.07 174.481 282.114 174.466 282.15 174.437C282.186 174.408 282.21 174.368 282.218 174.323C282.227 174.278 282.219 174.232 282.196 174.192C282.173 174.153 282.137 174.122 282.094 174.107C278.065 172.516 273.728 171.842 269.402 172.135C274.113 169.445 279.651 168.555 284.976 169.631C285.001 169.636 285.027 169.637 285.052 169.632C285.078 169.628 285.102 169.618 285.123 169.604C285.145 169.59 285.163 169.572 285.178 169.551C285.192 169.53 285.202 169.506 285.207 169.481C285.217 169.431 285.207 169.379 285.178 169.336C285.15 169.293 285.105 169.263 285.055 169.252C279.353 168.102 273.423 169.17 268.492 172.238L267.804 172.669L268.614 172.593C273.148 172.156 277.721 172.801 281.954 174.473C281.976 174.479 282 174.482 282.024 174.48Z" fill="#B24800"/>
<path d="M186.452 222.865C251.399 222.865 304.05 217.204 304.05 210.221C304.05 203.238 251.399 197.577 186.452 197.577C121.504 197.577 68.8535 203.238 68.8535 210.221C68.8535 217.204 121.504 222.865 186.452 222.865Z" fill="#444444"/>
<path d="M36.282 134.335C35.5439 131.781 36.5376 128.822 38.6735 127.222C40.8094 125.622 43.9457 125.479 46.2169 126.882C44.0825 127.248 42.0671 128.115 40.3388 129.411C38.6106 130.708 37.2196 132.396 36.282 134.335Z" fill="#D39700"/>
<path d="M70.1845 136.181C69.9674 132.698 69.2727 129.186 67.5125 126.171C65.7523 123.156 62.8198 120.698 59.3645 120.094C56.5122 119.597 53.6698 120.401 51.0246 121.421C48.5079 122.384 46.7594 124.265 44.1375 124.922C42.723 125.275 41.2517 125.499 39.9625 126.167C38.8533 126.741 37.9299 127.614 37.2988 128.687C39.4297 126.786 43.5413 127.323 46.0212 128.746C48.5012 130.169 50.4267 132.378 52.7547 134.035C57.6244 137.486 64.6301 138.402 70.1845 136.181Z" fill="#FFBC00"/>
<path d="M81.5407 208.032L80.7508 207.972C81.7361 194.975 80.1429 181.57 76.0146 168.125L76.7745 167.894C80.9311 181.435 82.5343 194.937 81.5407 208.032Z" fill="#D39700"/>
<path d="M88.3285 205.171L87.5386 205.1C89.0648 188.068 86.6102 170.916 80.366 154.981C76.7871 145.885 72.552 139.005 67.4168 133.954C62.8493 129.461 53.0782 122.454 45.4279 124.693L45.2041 123.938C53.2101 121.595 63.2835 128.779 67.9746 133.391C73.19 138.524 77.4852 145.498 81.1041 154.693C87.3932 170.742 89.8655 188.017 88.3285 205.171Z" fill="#FFBC00"/>
<path d="M78.1908 150.306C82.2171 153.601 83.1273 159.484 82.172 164.577C80.0612 160.431 75.3083 158.182 70.6674 157.558C66.0265 156.935 61.3154 157.628 56.6394 157.777C51.9634 157.927 47.0135 157.446 43.1592 154.792C47.244 154.98 51.232 153.608 55.0162 152.046C58.8004 150.483 62.5312 148.692 66.5492 147.963C70.5672 147.233 75.0345 147.722 78.1908 150.306Z" fill="#FFBC00"/>
<path d="M122.574 136.363C111.968 137.372 101.517 133.735 91.5889 129.895C97.0731 126.872 103.979 126.534 109.735 129.005C114.277 130.954 118.003 134.479 122.574 136.363Z" fill="#D39700"/>
<path d="M34.9043 179.881C38.4547 180.785 42.2523 180.244 45.6992 179.004C49.1461 177.763 52.3074 175.861 55.4386 173.972C60.9262 170.655 66.3838 167.36 71.7512 163.855C68.7169 161.304 64.8899 159.87 60.915 159.794C56.9402 159.718 53.0603 161.004 49.9293 163.437C46.8097 165.861 44.6538 169.211 42.1738 172.227C41.6912 172.808 41.2002 173.363 40.6875 173.899C41.2893 175.073 42.3308 175.967 43.5883 176.387C41.7536 177.008 39.7707 177.051 37.9103 176.511C36.8014 177.554 36.0583 178.821 34.9043 179.881Z" fill="#FFBC00"/>
<path d="M87.6397 130.446C83.4814 133.575 82.3291 139.416 83.0739 144.543C85.3534 140.479 90.1948 138.431 94.8591 137.997C99.5234 137.562 104.194 138.448 108.87 138.786C113.546 139.124 118.501 138.843 122.463 136.36C118.373 136.38 114.447 134.847 110.736 133.132C107.025 131.418 103.371 129.484 99.3798 128.587C95.3885 127.689 90.8995 127.993 87.6397 130.446Z" fill="#FFBC00"/>
<path d="M45.0859 178.795C49.0205 178.336 52.5859 176.346 55.9727 174.306C59.3594 172.266 62.7679 170.093 66.6256 169.199C70.4833 168.305 74.9756 168.944 77.6359 171.853C77.3587 169.138 76.7174 166.38 75.1309 164.154C73.5444 161.929 70.8474 160.34 68.1169 160.64C65.8624 160.892 63.9419 162.35 62.3187 163.925C59.5531 166.617 57.3087 169.791 54.6784 172.609C52.0482 175.427 48.8635 177.953 45.0859 178.795Z" fill="#D39700"/>
<path d="M90.3544 204.138C84.19 189.815 80.9761 174.412 80.9022 158.836C80.8906 154.391 80.8722 148.303 82.9563 143.893C84.8518 139.883 90.5281 138.034 94.8133 137.67C98.0231 137.397 101.266 137.737 104.404 138.065C105.807 138.211 107.257 138.362 108.679 138.456C114.436 138.836 118.602 138.042 121.786 135.952L122.223 136.616C118.883 138.806 114.568 139.644 108.628 139.249C107.19 139.155 105.732 139.002 104.322 138.854C101.221 138.523 98.0147 138.191 94.8818 138.461C90.807 138.808 85.4279 140.528 83.6761 144.233C81.6721 148.483 81.6855 154.469 81.6988 158.839C81.7723 174.306 84.9629 189.602 91.0826 203.825L90.3544 204.138Z" fill="#FFBC00"/>
<path d="M102.591 128.862C103.958 129.569 105.468 129.963 107.008 130.015C106.538 131.111 105.774 132.059 104.801 132.756C103.829 133.446 102.754 133.979 101.614 134.335C101.614 132.468 101.945 130.615 102.591 128.862Z" fill="#D39700"/>
<path d="M61.6519 163.774C62.3483 163.608 63.0781 163.877 63.6977 164.237C64.5087 164.708 65.2231 165.327 65.8035 166.061C64.506 165.816 63.1566 165.957 61.879 166.3C60.6015 166.643 59.3907 167.181 58.1934 167.74C58.7448 166.796 59.3631 165.892 60.0437 165.035C60.4746 164.494 60.9756 163.942 61.6519 163.774Z" fill="#FFBC00"/>
<path d="M93.4058 163.378C90.5075 164.995 88.2939 167.596 87.1714 170.704C86.0489 173.811 86.0929 177.216 87.2953 180.294C90.201 178.685 92.4211 176.084 93.5445 172.974C94.668 169.864 94.6187 166.455 93.4058 163.378Z" fill="#FFBC00"/>
<path d="M73.7234 205.166C75.6857 204.527 79.3664 204.481 80.9044 206.262C79.1359 204.211 76.1366 202.423 75.9496 199.487C75.8744 198.31 76.337 197.064 77.2989 196.371C78.6049 195.431 80.4419 195.708 81.9181 196.345C84.5345 197.502 86.5915 199.629 87.6496 202.272C86.4438 197.479 88.3176 192.52 93.1957 190.953C95.7232 190.173 98.4253 190.143 100.97 190.868C100.527 188.192 101.016 185.342 103.573 183.793C105.445 182.659 107.806 182.543 109.942 183.037C118.543 185.027 123.072 196.093 122.581 204.164C122.414 206.984 122.499 207.548 121.579 210.221L68.9355 209.961C69.3464 207.339 71.3788 205.929 73.7234 205.166Z" fill="#FFBC00"/>
<path d="M158.365 191.786V202.813C158.365 207.456 182.346 211.221 211.929 211.221C241.511 211.221 265.491 207.456 265.491 202.813V191.786H158.365Z" fill="#FFBC00"/>
<path d="M211.929 200.193C241.511 200.193 265.491 196.429 265.491 191.786C265.491 187.143 241.511 183.379 211.929 183.379C182.348 183.379 158.367 187.143 158.367 191.786C158.367 196.429 182.348 200.193 211.929 200.193Z" fill="#FF6D00"/>
<path opacity="0.3" d="M244.497 162.811C244.497 171.637 241.992 178.48 239.32 183.264C236.282 188.711 233.029 191.487 233.029 191.487H232.969C232.969 192.587 223.385 193.477 211.555 193.477C199.724 193.477 190.147 192.587 190.147 191.487C190.147 191.487 187.283 189.042 184.417 184.246C181.552 179.45 178.676 172.262 178.676 162.811C178.676 143.919 196.692 132.597 205.119 124.573C205.84 123.885 206.498 123.223 206.521 120.925C206.498 118.633 205.84 117.973 205.119 117.284C204.34 116.546 203.482 115.775 202.562 114.977C194.937 108.344 183.19 99.5321 179.694 86.6509C179.022 84.1737 178.681 81.6192 178.682 79.0535C178.682 60.1603 190.15 50.3738 190.15 50.3738H233.033C233.033 50.3738 244.5 60.1587 244.5 79.0535C244.503 81.5854 244.171 84.1067 243.513 86.5531C240.81 96.6696 232.992 104.282 226.065 110.301C223.973 112.125 221.957 113.783 220.187 115.346C219.429 116.009 218.712 116.657 218.061 117.279C217.336 117.968 216.678 118.628 216.658 120.92C216.678 123.213 217.336 123.875 218.061 124.568C218.808 125.281 219.634 126.021 220.514 126.787C229.537 134.667 244.497 145.599 244.497 162.811Z" fill="white"/>
<path d="M165.341 181.586V191.786C165.341 192.351 168.359 192.811 172.083 192.811C175.807 192.811 178.824 192.351 178.824 191.786V181.586H165.341Z" fill="#FFBC00"/>
<path d="M164.969 50.3757V60.5752C164.969 61.1408 167.986 61.5985 171.711 61.5985C175.435 61.5985 178.452 61.1408 178.452 60.5752V50.3757H164.969Z" fill="#FF6D00"/>
<path d="M178.824 181.586C178.824 182.152 175.805 182.611 172.083 182.611C168.36 182.611 165.341 182.152 165.341 181.586C165.341 181.02 168.359 180.563 172.083 180.563C175.807 180.563 178.824 181.02 178.824 181.586Z" fill="#FF6D00"/>
<path d="M172.082 181.939C174.585 181.939 176.613 181.631 176.613 181.251C176.613 180.871 174.585 180.563 172.082 180.563C169.58 180.563 167.552 180.871 167.552 181.251C167.552 181.631 169.58 181.939 172.082 181.939Z" fill="#FFBC00"/>
<path d="M176.612 61.0728H167.551V181.251H176.612V61.0728Z" fill="#FFBC00"/>
<path d="M244.307 181.586V191.786C244.307 192.351 247.326 192.811 251.048 192.811C254.771 192.811 257.79 192.351 257.79 191.786V181.586H244.307Z" fill="#FFBC00"/>
<path d="M243.927 50.3757V60.5752C243.927 61.1408 246.946 61.5985 250.669 61.5985C254.391 61.5985 257.41 61.1408 257.41 60.5752V50.3757H243.927Z" fill="#FF6D00"/>
<path d="M257.782 181.586C257.782 182.152 254.765 182.611 251.041 182.611C247.317 182.611 244.299 182.152 244.299 181.586C244.299 181.02 247.318 180.563 251.041 180.563C254.763 180.563 257.782 181.02 257.782 181.586Z" fill="#FF6D00"/>
<path d="M251.04 181.939C253.543 181.939 255.571 181.631 255.571 181.251C255.571 180.871 253.543 180.563 251.04 180.563C248.538 180.563 246.51 180.871 246.51 181.251C246.51 181.631 248.538 181.939 251.04 181.939Z" fill="#FFBC00"/>
<path d="M255.571 61.0728H246.51V181.251H255.571V61.0728Z" fill="#FFBC00"/>
<path d="M239.319 183.259C236.281 188.707 233.03 191.484 233.03 191.484H232.97C232.97 192.583 223.386 193.474 211.557 193.474C199.729 193.474 190.148 192.583 190.148 191.484C190.148 191.484 187.282 189.039 184.418 184.243C185.839 183.269 187.73 182.828 189.473 182.351C193.854 181.155 198.017 179.279 201.808 176.793C204.017 175.335 206.208 173.622 208.902 173.252C211.323 172.921 213.778 173.75 215.857 174.939C217.937 176.128 219.759 177.664 221.763 178.947C226.841 182.186 233.169 183.72 239.319 183.259Z" fill="white"/>
<path d="M243.512 86.5548C239.988 99.7329 227.814 108.65 220.185 115.347C219.414 115.694 218.663 116.085 217.937 116.518C216.469 117.395 215.117 118.45 213.913 119.659C213.363 120.216 212.904 120.855 212.552 121.552C212.101 122.416 210.791 122.49 210.214 121.698C208.167 118.954 205.564 116.667 202.573 114.982C194.948 108.349 183.201 99.5372 179.706 86.6577C200.476 89.0608 221.885 82.8814 242.536 86.3674C242.845 86.4188 243.179 86.4802 243.512 86.5548Z" fill="white"/>
<path d="M209.015 175.327C210.455 168.438 211.051 161.209 210.997 154.192L210.83 132.134C210.782 125.753 210.456 118.701 205.653 114.082C208.798 113.629 211.619 113.868 214.671 114.712C212.512 118.499 212.27 122.93 212.136 127.204C211.622 143.773 212.094 160.358 213.551 176.871C212.191 176.316 210.376 175.891 209.015 175.327Z" fill="white"/>
<path d="M243.472 85.996C243.472 88.7922 231.875 89.3394 230.125 89.5103C225.705 89.9398 221.286 90.1222 216.901 90.6364C211.857 91.2268 206.785 91.7492 201.694 91.6878C197.23 91.6331 192.737 91.1223 188.48 89.8519C186.495 89.2599 184.655 88.4356 182.674 87.8618C181.839 87.6213 179.529 87.0972 179.529 85.9894C179.529 83.6012 193.845 81.6658 211.501 81.6658C229.158 81.6658 243.472 83.6078 243.472 85.996Z" fill="#E5E5E5"/>
<path opacity="0.42" d="M226.921 97.3896C227.91 94.2385 229.237 91.2533 229.863 87.9198C231.321 80.1234 230.978 72.1002 228.862 64.4543C228.588 63.4692 225.329 53.5284 224.52 53.7722C226.524 53.1685 231.622 53.0491 231.622 53.0491C231.622 53.0491 235.212 58.8802 235.939 61.0727C237.701 66.3897 238.958 71.9654 238.663 77.5545C238.437 81.8183 237.804 85.8865 235.575 89.5783C234.464 91.4196 233.173 93.1478 231.721 94.7377C230.991 95.5371 230.009 96.1143 229.195 96.8208C228.997 96.9866 226.483 98.8872 226.562 98.6053C226.674 98.1962 226.794 97.791 226.921 97.3896Z" fill="white"/>
<path d="M158.365 39.3901V48.2612C158.365 51.9994 182.346 55.0277 211.929 55.0277C241.511 55.0277 265.491 51.9994 265.491 48.2612V39.3901H158.365Z" fill="#FFBC00"/>
<path d="M211.929 46.1566C241.511 46.1566 265.491 43.1271 265.491 39.39C265.491 35.653 241.511 32.6235 211.929 32.6235C182.348 32.6235 158.367 35.653 158.367 39.39C158.367 43.1271 182.348 46.1566 211.929 46.1566Z" fill="#FF6D00"/>
<path opacity="0.42" d="M236.792 175.027C235.703 178.344 234.047 181.61 231.281 183.757C228.516 185.905 224.451 186.668 221.441 184.872C230.924 171.853 231.562 153.195 223.419 139.397C222.559 137.937 224.1 136.259 225.636 136.989C228.542 138.372 230.98 141.019 232.771 143.789C238.662 152.91 240.18 164.713 236.792 175.027Z" fill="white"/>
<path opacity="0.42" d="M218.053 124.574C218.799 125.287 219.626 126.026 220.506 126.793C218.787 125.943 217.111 124.99 215.83 123.577C214.282 121.862 213.465 119.285 214.457 117.208C215.011 116.047 216.047 115.18 217.104 114.434C219.81 112.527 222.843 111.127 226.055 110.302C223.963 112.127 221.947 113.785 220.177 115.348C219.419 116.011 218.702 116.659 218.051 117.281C217.326 117.97 216.668 118.63 216.648 120.922C216.67 123.224 217.328 123.887 218.053 124.574Z" fill="white"/>
<path opacity="0.42" d="M193.38 95.3498C194.068 96.8383 195.242 98.0522 196.712 98.7944C197.238 99.0531 197.814 99.2372 198.35 99.0266C199.245 98.6783 199.756 97.3184 199.795 96.0414C199.833 94.7644 199.511 93.5288 199.267 92.2966C198.74 89.6059 198.564 86.859 198.743 84.1237C198.813 83.0506 198.936 81.9677 198.821 80.9013C198.706 79.8349 198.298 78.7585 197.585 78.3074C196.75 77.7734 195.71 78.2759 195.055 79.1765C194.401 80.077 194.053 81.301 193.719 82.4934C193.145 84.5781 192.602 86.7075 192.433 88.9249C192.265 91.1423 192.493 93.484 193.38 95.3498Z" fill="white"/>
<path d="M104.004 82.8965C102.084 88.5377 101.976 94.6317 103.694 100.337C104.749 103.82 106.497 107.302 105.965 110.886C105.531 113.818 103.61 116.386 103.231 119.325C102.463 125.295 108.184 130.964 106.648 136.79C105.94 139.471 103.725 141.599 101.162 142.691C98.5984 143.782 95.721 143.956 92.9404 143.717C88.8356 143.362 84.395 141.815 82.4979 138.183C80.9949 135.289 81.4575 131.811 81.9819 128.594C84.2982 114.372 86.9752 100.052 92.7834 86.8502" fill="#263238"/>
<path d="M105.828 126.851C105.672 126.915 105.512 126.966 105.348 127.003C104.876 127.115 104.389 127.155 103.904 127.123C103.134 127.067 102.384 126.853 101.703 126.492C100.788 126.01 100.049 125.256 99.5868 124.336C99.037 123.219 98.889 121.948 99.1676 120.736C99.3282 120.061 99.6248 119.425 100.039 118.867C100.487 118.289 101.012 117.776 101.601 117.341C102.77 116.429 104.163 115.697 105.303 114.601C106.444 113.505 107.152 111.958 107.377 110.306C107.587 108.682 107.47 107.033 107.033 105.455C106.606 103.984 106.06 102.55 105.4 101.166C104.168 98.5125 103.007 96.0845 102.561 93.8788C102.09 91.688 102.227 89.8288 102.584 88.6298C102.942 87.4307 103.353 86.8552 103.353 86.8552C103.391 86.8735 102.999 87.4589 102.695 88.6596C102.391 89.8604 102.274 91.678 102.763 93.8357C103.221 96.0066 104.386 98.3931 105.636 101.055C106.307 102.448 106.862 103.894 107.294 105.379C107.747 106.991 107.871 108.678 107.658 110.339C107.427 112.037 106.686 113.656 105.495 114.795C104.305 115.935 102.913 116.654 101.756 117.543C100.587 118.404 99.677 119.522 99.3947 120.782C99.1161 121.946 99.2463 123.17 99.7638 124.25C100.198 125.137 100.898 125.869 101.768 126.346C102.425 126.71 103.151 126.936 103.9 127.01C105.158 127.106 105.823 126.803 105.828 126.851Z" fill="#263238"/>
<path d="M49.3093 218.409L46.9713 227.295L22.9033 227.076C22.9033 227.076 24.6735 222.892 37.8314 223.096L38.8017 218.417L49.3093 218.409Z" fill="#EAD5CE"/>
<path d="M162.165 217.756C162.165 217.756 187.477 224.721 188.492 225.068C190.017 225.6 189.761 231.149 187.388 231.063C186.266 231.022 167.946 231.74 165.632 231.595C163.317 231.451 156.333 228.72 156.333 228.72L162.165 217.756Z" fill="#E8505B"/>
<path d="M172.709 227.341C172.836 227.36 173.008 226.029 173.824 224.643C174.641 223.257 175.693 222.429 175.614 222.321C175.569 222.223 174.312 222.931 173.457 224.424C172.602 225.917 172.602 227.353 172.709 227.341Z" fill="#263238"/>
<path d="M170.07 226.154C170.194 226.175 170.451 224.993 171.124 223.666C171.797 222.339 172.593 221.434 172.503 221.344C172.413 221.255 171.445 222.084 170.746 223.474C170.048 224.863 169.962 226.147 170.07 226.154Z" fill="#263238"/>
<path d="M167.594 225.495C167.723 225.487 167.626 224.232 168.187 222.842C168.748 221.452 169.653 220.583 169.565 220.492C169.515 220.396 168.379 221.173 167.793 222.689C167.207 224.205 167.487 225.53 167.594 225.495Z" fill="#263238"/>
<path d="M168.043 222.248C168.09 222.26 168.314 221.557 168.315 220.378C168.311 219.687 168.225 218.999 168.06 218.328C167.961 217.933 167.835 217.545 167.683 217.167C167.605 216.929 167.465 216.716 167.277 216.55C167.151 216.453 166.994 216.404 166.834 216.412C166.675 216.42 166.524 216.484 166.408 216.593C166.214 216.781 166.095 217.034 166.074 217.303C166.048 217.523 166.037 217.745 166.041 217.966C166.046 218.381 166.099 218.794 166.198 219.197C166.366 219.87 166.628 220.516 166.976 221.117C167.566 222.137 168.077 222.66 168.113 222.632C168.15 222.603 167.748 222.006 167.242 220.973C166.944 220.38 166.72 219.753 166.574 219.106C166.493 218.728 166.451 218.343 166.45 217.956C166.462 217.57 166.45 217.087 166.684 216.902C166.726 216.856 166.783 216.828 166.845 216.823C166.907 216.817 166.969 216.835 167.018 216.873C167.146 216.995 167.241 217.146 167.295 217.313C167.446 217.674 167.574 218.045 167.678 218.422C167.854 219.064 167.966 219.722 168.012 220.386C168.09 221.527 167.975 222.233 168.043 222.248Z" fill="#263238"/>
<path d="M168.013 221.993C168.024 221.947 167.413 221.738 166.379 221.731C165.774 221.73 165.171 221.803 164.584 221.95C164.223 222.027 163.874 222.154 163.549 222.328C163.203 222.494 162.839 222.98 162.977 223.476C163.035 223.693 163.15 223.89 163.31 224.049C163.47 224.207 163.67 224.319 163.889 224.375C164.262 224.468 164.652 224.468 165.025 224.375C165.623 224.225 166.183 223.951 166.668 223.572C167.48 222.938 167.876 222.456 167.837 222.421C167.799 222.386 167.313 222.781 166.489 223.326C166.019 223.643 165.492 223.868 164.936 223.99C164.627 224.059 164.305 224.055 163.998 223.977C163.851 223.94 163.717 223.866 163.608 223.761C163.5 223.656 163.422 223.524 163.382 223.379C163.308 223.098 163.48 222.84 163.757 222.678C164.046 222.52 164.355 222.401 164.676 222.323C165.232 222.166 165.804 222.067 166.381 222.026C167.38 221.96 168.001 222.068 168.013 221.993Z" fill="#263238"/>
<path d="M176.599 227.612C176.724 227.597 176.599 226.522 177.1 225.343C177.601 224.164 178.419 223.472 178.339 223.376C178.297 223.273 177.238 223.874 176.707 225.185C176.176 226.497 176.505 227.655 176.599 227.612Z" fill="#263238"/>
<path d="M158.937 228.771C158.925 228.798 159.271 228.96 159.915 229.229C160.834 229.58 161.775 229.87 162.733 230.096C165.154 230.702 168.604 231.045 172.397 231.005C176.19 230.965 179.608 230.793 182.083 230.693L185.017 230.539C185.709 230.494 186.091 230.454 186.091 230.426C186.091 230.398 185.705 230.38 185.012 230.376L182.075 230.396L172.389 230.585C168.614 230.624 165.208 230.33 162.795 229.806C160.38 229.312 158.97 228.701 158.937 228.771Z" fill="#263238"/>
<path d="M158.188 229.345C158.222 229.403 158.915 229 160.084 228.491C161.253 227.982 162.973 227.408 164.875 227.7C166.777 227.992 168.133 229.264 169.015 230.146C169.902 231.061 170.421 231.668 170.473 231.625C170.525 231.582 170.079 230.927 169.234 229.944C168.736 229.362 168.173 228.84 167.555 228.386C166.785 227.817 165.888 227.439 164.94 227.285C162.901 226.975 161.099 227.652 159.958 228.222C158.818 228.793 158.162 229.303 158.188 229.345Z" fill="#263238"/>
<path d="M135.297 210.81C135.297 210.81 111.344 226.384 110.484 227.03C109.195 227.996 110.675 232.605 112.909 231.808C113.966 231.429 134.065 225.877 136.227 225.043C138.39 224.208 144.207 219.497 144.207 219.497L135.297 210.81Z" fill="#E8505B"/>
<path d="M128.183 223.129C128.288 223.107 127.863 221.734 126.58 220.583C125.297 219.432 123.895 219.124 123.883 219.228C123.838 219.349 125.109 219.802 126.294 220.887C127.48 221.971 128.075 223.184 128.183 223.129Z" fill="#263238"/>
<path d="M130.335 221.2C130.437 221.162 129.973 219.966 128.875 218.862C127.778 217.757 126.591 217.263 126.549 217.369C126.507 217.475 127.539 218.104 128.571 219.162C129.603 220.22 130.223 221.258 130.335 221.2Z" fill="#263238"/>
<path d="M132.492 219.827C132.601 219.827 132.481 218.466 131.445 217.21C130.41 215.955 129.107 215.552 129.084 215.651C129.027 215.766 130.175 216.301 131.116 217.475C132.058 218.65 132.369 219.859 132.492 219.827Z" fill="#263238"/>
<path d="M131.071 216.868C131.135 216.838 130.806 216.195 130.529 215.089C130.37 214.44 130.275 213.778 130.246 213.112C130.23 212.721 130.239 212.329 130.273 211.939C130.274 211.765 130.318 211.595 130.402 211.442C130.437 211.389 130.491 211.352 130.554 211.338C130.616 211.324 130.681 211.335 130.736 211.369C131.009 211.477 131.153 211.938 131.282 212.302C131.4 212.67 131.478 213.049 131.516 213.434C131.576 214.094 131.556 214.759 131.455 215.414C131.288 216.543 131.063 217.23 131.121 217.25C131.18 217.27 131.492 216.616 131.743 215.465C131.89 214.787 131.942 214.092 131.896 213.4C131.867 212.986 131.791 212.577 131.669 212.18C131.605 211.967 131.527 211.76 131.435 211.558C131.332 211.307 131.14 211.102 130.896 210.982C130.753 210.915 130.591 210.9 130.438 210.941C130.285 210.981 130.151 211.074 130.061 211.203C129.933 211.418 129.865 211.663 129.864 211.913C129.784 213.012 129.913 214.117 130.246 215.168C130.604 216.291 131.031 216.893 131.071 216.868Z" fill="#263238"/>
<path d="M131.022 216.615C131.054 216.676 131.615 216.394 132.579 216.16C133.142 216.025 133.717 215.948 134.296 215.928C134.625 215.906 134.955 215.927 135.279 215.99C135.592 216.063 135.835 216.255 135.852 216.545C135.857 216.695 135.822 216.844 135.751 216.976C135.68 217.109 135.575 217.22 135.446 217.3C135.178 217.467 134.872 217.569 134.556 217.595C133.989 217.646 133.418 217.59 132.873 217.429C131.921 217.157 131.336 216.908 131.311 216.971C131.286 217.034 131.812 217.356 132.784 217.713C133.362 217.929 133.98 218.022 134.596 217.983C134.979 217.962 135.351 217.848 135.68 217.651C135.871 217.532 136.027 217.365 136.132 217.166C136.236 216.967 136.285 216.744 136.273 216.52C136.253 216.006 135.76 215.661 135.378 215.6C135.014 215.532 134.643 215.516 134.276 215.55C133.672 215.588 133.075 215.699 132.499 215.882C131.515 216.192 130.997 216.575 131.022 216.615Z" fill="#263238"/>
<path d="M115.961 230.939C115.989 230.977 116.365 230.698 116.547 230.017C116.729 229.335 116.622 228.33 116.099 227.436C115.862 227.021 115.593 226.624 115.296 226.249C115.066 225.924 114.793 225.632 114.483 225.381C114.265 225.202 113.999 225.091 113.718 225.063C113.518 225.063 113.416 225.104 113.419 225.127C113.419 225.194 113.847 225.162 114.289 225.608C114.549 225.873 114.781 226.163 114.98 226.476C115.249 226.85 115.498 227.237 115.727 227.637C116.213 228.474 116.357 229.342 116.255 229.959C116.153 230.575 115.906 230.897 115.961 230.939Z" fill="#263238"/>
<path d="M124.568 224.555C124.679 224.567 124.646 223.358 123.724 222.276C122.802 221.195 121.625 220.933 121.617 221.044C121.572 221.16 122.585 221.555 123.4 222.545C124.215 223.535 124.436 224.583 124.568 224.555Z" fill="#263238"/>
<path d="M141.742 220.338C141.722 220.313 141.355 220.58 140.69 221.054C139.742 221.709 138.756 222.309 137.738 222.852C136.222 223.644 134.655 224.337 133.047 224.925C131.233 225.588 129.206 226.23 127.046 226.849C122.738 228.081 118.837 229.209 116.024 230.049L112.696 231.064C111.913 231.312 111.484 231.462 111.49 231.491C111.497 231.519 111.943 231.421 112.741 231.22L116.106 230.335C118.945 229.567 122.855 228.487 127.167 227.253C129.323 226.633 131.367 225.985 133.187 225.288C134.804 224.678 136.373 223.951 137.883 223.112C138.899 222.543 139.871 221.898 140.791 221.185C141.435 220.668 141.769 220.356 141.742 220.338Z" fill="#263238"/>
<path d="M142.631 220.658C142.644 220.61 141.889 220.326 140.602 220.121C139.314 219.915 137.417 219.82 135.568 220.731C134.715 221.164 133.978 221.793 133.419 222.565C132.969 223.184 132.593 223.851 132.297 224.555C131.796 225.746 131.585 226.512 131.629 226.53C131.672 226.549 132.001 225.821 132.567 224.681C133.135 223.573 134.035 221.955 135.764 221.102C137.492 220.25 139.317 220.29 140.568 220.411C141.819 220.532 142.616 220.723 142.631 220.658Z" fill="#263238"/>
<path d="M125.178 187.348L76.1901 214.439C76.1901 214.439 73.7753 205.06 74.5952 184.268V184.258C74.5952 184.172 74.6053 184.092 74.6053 183.989C74.6487 183.026 74.6921 182.041 74.7455 181.024C74.8424 179.109 73.291 175.425 71.5124 171.614L70.4987 169.473C70.3685 169.216 70.2499 168.959 70.1313 168.702C69.3982 167.193 68.6985 165.716 68.1156 164.42L68.0839 164.343C67.6848 163.476 67.3508 162.685 67.0819 161.978V161.967C67.0719 161.924 67.0502 161.882 67.0402 161.839C66.9633 161.647 66.8999 161.464 66.8348 161.282V161.272C66.8348 161.25 66.8231 161.239 66.813 161.217V161.207C66.7025 160.864 66.616 160.513 66.5542 160.157C66.2202 158.028 65.9396 155.757 65.7192 153.424L65.6858 153.134C64.9744 145.812 64.7155 137.964 64.6404 132.332V132.055C64.6304 131.582 64.6304 131.144 64.6187 130.716V130.245C64.597 126.928 64.6304 124.719 64.6304 124.421V124.388L77.8684 118.018L97.511 119.842L101.823 121.063L101.973 121.096L105.489 122.091C107.18 122.568 108.806 123.247 110.332 124.114C108.596 125.773 105.028 129.499 103.318 133.524C103.254 133.675 103.189 133.824 103.136 133.974C103.027 134.264 102.92 134.542 102.833 134.831C101.217 139.972 110.024 149.563 112.417 152.046C112.655 152.293 112.827 152.464 112.918 152.56L113.015 152.656L112.466 177.089L125.178 187.348Z" fill="#F3BD3C"/>
<path d="M65.7839 123.945C65.7839 123.945 55.8458 127.593 53.4426 135.332C51.3117 142.186 44.2025 180.73 44.2025 180.73L37.1484 221.529L51.9229 222.084L68.9302 152.557L65.7839 123.945Z" fill="#F3BD3C"/>
<path d="M65.1238 168.997C65.1522 168.997 65.2574 168.708 65.4244 168.168C65.5914 167.627 65.8152 166.841 66.0807 165.864C66.6185 163.914 67.2865 161.202 67.9762 158.194C68.6659 155.185 69.2087 152.442 69.5711 150.454C69.7514 149.459 69.8884 148.651 69.9702 148.092C70.052 147.533 70.0854 147.22 70.057 147.215C70.0286 147.21 69.9418 147.51 69.8082 148.06C69.6629 148.701 69.4859 149.48 69.2771 150.394C68.8162 152.467 68.22 155.142 67.562 158.101C66.9041 161.059 66.2661 163.725 65.7902 165.794C65.5831 166.708 65.4094 167.488 65.2641 168.129C65.1472 168.683 65.0954 168.997 65.1238 168.997Z" fill="#263238"/>
<path d="M49.4933 217.837C49.3781 217.817 49.1226 218.732 48.9222 219.882C48.7218 221.031 48.655 221.98 48.7702 221.998C48.8854 222.016 49.141 221.102 49.3397 219.953C49.5384 218.804 49.6086 217.857 49.4933 217.837Z" fill="#263238"/>
<path d="M44.6348 217.834C44.5195 217.814 44.2857 218.645 44.1104 219.688C43.935 220.731 43.8883 221.592 44.0035 221.61C44.1187 221.628 44.3542 220.799 44.5279 219.756C44.7016 218.713 44.7517 217.852 44.6348 217.834Z" fill="#263238"/>
<path d="M40.0275 217.369C39.9089 217.359 39.7403 218.305 39.5432 219.464C39.3461 220.623 39.1942 221.572 39.3094 221.602C39.4246 221.631 39.762 220.716 39.9607 219.533C40.1594 218.351 40.1427 217.378 40.0275 217.369Z" fill="#263238"/>
<path d="M57.8135 128.696C57.8135 128.774 58.8439 128.711 60.4454 129.044C62.534 129.463 64.4768 130.415 66.0821 131.806C67.6875 133.197 68.9001 134.98 69.6003 136.978C70.1481 138.509 70.2266 139.532 70.3034 139.523C70.3301 139.523 70.3368 139.264 70.2901 138.803C70.2176 138.152 70.0817 137.509 69.8842 136.884C69.2378 134.796 68.0167 132.928 66.3587 131.493C64.7006 130.057 62.6717 129.109 60.5005 128.758C59.8504 128.647 59.191 128.6 58.5316 128.617C58.0657 128.628 57.8118 128.67 57.8135 128.696Z" fill="#263238"/>
<path d="M112.058 160.041C111.849 160.822 111.586 161.587 111.271 162.332C111.044 162.846 110.904 163.125 110.872 163.125C110.797 163.093 111.26 161.914 111.724 159.955C111.821 159.549 111.918 159.109 112.005 158.638V158.595C112.396 156.47 112.537 154.308 112.424 152.15C112.425 152.121 112.422 152.092 112.414 152.064C112.651 152.311 112.823 152.482 112.915 152.578C113.01 155.095 112.721 157.611 112.058 160.041Z" fill="#263238"/>
<path d="M112.131 176.586C112.131 176.619 111.829 176.637 111.281 176.642C110.733 176.647 109.945 176.619 108.967 176.543C103.865 176.115 98.8973 174.702 94.3407 172.385C93.4723 171.937 92.7842 171.556 92.325 171.252C91.8657 170.949 91.6169 170.786 91.6336 170.755C91.672 170.687 92.7308 171.262 94.4926 172.081C99.0813 174.207 103.979 175.599 109.005 176.208C110.93 176.442 112.134 176.508 112.131 176.586Z" fill="#263238"/>
<g opacity="0.2">
<path opacity="0.2" d="M90.4453 169.796C91.98 171.165 94.3665 171.364 96.4306 171.326C98.4947 171.287 100.54 170.883 102.61 170.916C104.679 170.949 106.856 171.503 108.237 173.027C108.662 173.495 109.007 174.072 109.036 174.702C109.064 175.332 108.702 176.006 108.101 176.195C107.723 176.313 107.314 176.235 106.932 176.155C101.152 174.968 94.9276 173.621 90.4553 169.796H90.4453Z" fill="black"/>
</g>
<g opacity="0.2">
<path opacity="0.2" d="M71.5141 171.616C73.0422 171.178 73.2877 169.407 73.4363 167.834C74.0434 161.337 72.7687 154.802 69.7623 148.999C69.0409 153.265 67.8468 157.709 66.9951 162.05L71.5141 171.616Z" fill="black"/>
</g>
<path d="M68.8537 153.843C68.817 153.902 68.4747 153.467 67.6029 153.288C66.7679 153.094 65.3768 153.288 64.1493 154.283C62.8968 155.247 62.2038 157.102 61.8247 159.161C61.4122 161.197 61.2101 163.691 59.6253 165.761C58.8423 166.758 57.7146 167.431 56.4607 167.649C55.2766 167.871 54.1377 167.829 53.0839 167.894C51.2113 167.907 49.4163 168.639 48.0739 169.936C47.1653 170.804 46.4867 171.882 46.0983 173.073C45.8294 173.919 45.801 174.422 45.7543 174.417C45.7316 174.296 45.7316 174.172 45.7543 174.052C45.7738 173.703 45.8298 173.357 45.9213 173.02C46.2085 171.959 46.7257 170.972 47.4367 170.13C48.1478 169.287 49.0355 168.609 50.0378 168.143C50.9878 167.718 52.0125 167.482 53.0539 167.45C54.131 167.373 55.2583 167.4 56.3671 167.184C57.5069 166.983 58.531 166.369 59.2412 165.461C59.9743 164.532 60.4019 163.414 60.7041 162.323C61.0064 161.232 61.16 160.119 61.3838 159.073C61.793 156.996 62.5428 155.034 63.9339 154.014C65.2699 152.993 66.7596 152.853 67.6463 153.112C67.993 153.202 68.3168 153.364 68.5966 153.586C68.7786 153.739 68.8654 153.83 68.8537 153.843Z" fill="#FAFAFA"/>
<path d="M102.42 133.42C102.72 133.443 103.018 133.482 103.314 133.537C103.25 133.688 103.185 133.838 103.132 133.987C102.885 133.943 102.637 133.915 102.387 133.902C101.439 133.85 100.489 133.97 99.5846 134.255C97.7192 134.801 96.0776 135.818 94.5496 136.846C93.0215 137.874 91.5102 138.912 89.9137 139.609C88.3993 140.275 86.762 140.621 85.1057 140.626C83.668 140.624 82.2402 140.388 80.879 139.929C78.9095 139.268 77.1323 138.14 75.702 136.642C75.3206 136.235 74.9779 135.795 74.6782 135.325C74.5608 135.17 74.4595 135.003 74.376 134.828C74.4511 134.828 74.8603 135.513 75.8422 136.519C77.2902 137.932 79.0496 138.989 80.9808 139.609C83.3856 140.379 86.6304 140.604 89.7233 139.201C91.2664 138.516 92.7293 137.488 94.274 136.45C95.8188 135.411 97.4971 134.362 99.4377 133.784C100.403 133.493 101.412 133.37 102.42 133.42Z" fill="#FAFAFA"/>
<path d="M112.104 158.598C111.948 158.645 111.788 158.67 111.626 158.673C111.162 158.713 110.696 158.697 110.236 158.623C109.022 158.491 107.381 157.822 105.454 156.912C104.417 156.403 103.338 155.987 102.227 155.668C100.96 155.329 99.6316 155.284 98.3444 155.537C95.6073 156.064 92.9386 157.807 90.604 160.015C88.2693 162.222 86.2202 164.617 83.9457 166.352C81.9586 167.944 79.5908 168.999 77.072 169.415C75.3855 169.696 73.6618 169.673 71.9835 169.347C71.5309 169.262 71.0845 169.148 70.6475 169.004C70.4907 168.964 70.3397 168.904 70.1982 168.826C70.2116 168.781 70.8462 168.982 72.0219 169.158C73.6806 169.405 75.3692 169.376 77.0185 169.073C79.4633 168.622 81.7533 167.564 83.6751 165.997C85.8879 164.28 87.9002 161.914 90.275 159.66C92.6497 157.406 95.3935 155.63 98.2659 155.101C99.6187 154.846 101.013 154.908 102.337 155.28C103.466 155.623 104.56 156.067 105.607 156.607C107.519 157.56 109.098 158.255 110.273 158.443C111.449 158.63 112.102 158.549 112.104 158.598Z" fill="#FAFAFA"/>
<path d="M103.526 174.952C103.512 175.087 102.545 175.029 101.672 175.72C100.775 176.384 100.586 177.327 100.451 177.306C100.391 177.306 100.343 177.042 100.451 176.642C100.618 176.125 100.939 175.67 101.372 175.339C101.805 175.007 102.33 174.814 102.876 174.787C103.292 174.782 103.526 174.894 103.526 174.952Z" fill="#FAFAFA"/>
<path d="M111.542 171.171C111.662 171.208 111.3 172.561 110.343 173.977C109.386 175.394 108.275 176.254 108.195 176.158C108.115 176.062 109.03 175.078 109.937 173.71C110.844 172.342 111.402 171.121 111.542 171.171Z" fill="#FAFAFA"/>
<path d="M78.8702 184.283C78.8218 184.417 77.8165 184.137 76.5573 184.135C75.2981 184.133 74.2878 184.382 74.2427 184.248C74.1976 184.114 75.1996 183.638 76.5606 183.652C77.9217 183.667 78.9254 184.17 78.8702 184.283Z" fill="#FAFAFA"/>
<path d="M52.0432 139.224C52.0682 139.189 52.262 139.335 52.6578 139.448C53.2249 139.575 53.8178 139.524 54.3545 139.302C55.0459 139.048 55.7155 138.473 56.3234 137.682C56.9313 136.891 57.5392 135.939 58.4026 135.103C59.8665 133.675 61.6999 132.677 63.6998 132.219C64.2996 132.086 64.9108 132.01 65.5251 131.992C65.961 131.992 66.1931 132.018 66.1931 132.05C66.1931 132.133 65.2379 132.146 63.7783 132.547C61.8819 133.081 60.1495 134.076 58.7382 135.443C57.9166 136.237 57.3221 137.158 56.6658 137.959C56.0094 138.76 55.2429 139.387 54.463 139.617C53.858 139.834 53.196 139.834 52.591 139.617C52.1818 139.445 52.0265 139.241 52.0432 139.224Z" fill="#FAFAFA"/>
<path d="M102.054 120.925C102.096 120.957 101.759 121.486 100.997 122.144C99.9843 122.988 98.7954 123.598 97.5164 123.93C96.2374 124.263 94.9 124.309 93.6007 124.066C92.6104 123.862 92.0576 123.569 92.0777 123.516C92.1044 123.441 92.6906 123.618 93.6542 123.728C96.1799 124.013 98.7221 123.353 100.783 121.875C101.57 121.311 101.993 120.872 102.054 120.925Z" fill="#FAFAFA"/>
<path d="M60.1058 190.121C60.1058 190.166 59.7116 190.159 59.0319 190.31C58.0772 190.539 57.1831 190.969 56.41 191.57C55.408 192.31 54.4328 193.433 53.6161 194.859C52.7995 196.285 52.0898 197.964 51.1997 199.678C50.3095 201.393 49.2257 202.961 47.8697 204.022C46.5337 205.113 44.9205 205.548 43.6262 205.456C42.3203 205.39 41.3233 204.894 40.7872 204.417C40.572 204.242 40.3835 204.038 40.2278 203.81C40.1225 203.654 40.0758 203.568 40.0891 203.558C40.1276 203.528 40.348 203.859 40.9041 204.269C41.7059 204.824 42.6607 205.119 43.6379 205.115C45.0871 205.129 46.4917 204.617 47.5874 203.675C48.8566 202.654 49.8971 201.141 50.7604 199.456C51.6238 197.771 52.3453 196.068 53.2254 194.628C54.1054 193.189 55.1408 192.02 56.2013 191.29C57.0254 190.687 57.9817 190.285 58.9919 190.119C59.264 190.075 59.5399 190.06 59.8152 190.073C60.0106 190.091 60.1058 190.104 60.1058 190.121Z" fill="#FAFAFA"/>
<path d="M165.042 217.46C165.042 217.46 106.302 179.196 103.897 178.4C101.492 177.604 95.679 173.821 89.869 175.415C84.0591 177.009 78.847 182.182 76.2402 189.746C73.6333 197.31 73.4346 214.23 73.4346 214.23C73.4346 214.23 78.0438 227.565 87.0634 230.353C87.8354 230.589 88.6191 230.784 89.4115 230.939C100.422 233.108 111.622 228.079 117.78 218.764L119.091 216.782C119.091 216.782 157.517 230.801 158.119 230.602L165.042 217.46Z" fill="#263238"/>
<path d="M185.074 172.826C185.074 172.826 192.255 175.375 192.29 183.376C192.347 198.703 161.106 215.598 161.106 215.598L119.531 188.235V185.361C119.531 185.361 173.048 166.259 185.074 172.826Z" fill="#263238"/>
<path d="M92.3701 206.928C92.3701 206.928 92.477 206.982 92.6924 207.069L93.6543 207.449L97.3784 208.871L111.218 214.049C117.096 216.228 124.139 218.817 132.039 221.678C139.94 224.539 148.696 227.662 158.048 230.8L158.215 230.858L158.298 230.692L162.888 221.99L165.226 217.55L165.316 217.384L165.149 217.282L120.349 189.036L106.891 180.606L103.235 178.341L102.28 177.76C102.064 177.633 101.946 177.575 101.946 177.575C101.946 177.575 102.046 177.656 102.255 177.795L103.188 178.409L106.802 180.731L120.191 189.272L164.923 217.631L164.851 217.358L162.513 221.796L157.926 230.501L158.18 230.4C148.828 227.264 140.074 224.148 132.165 221.318L111.313 213.782L97.4302 208.726L93.6811 207.371L92.7058 207.027C92.487 206.958 92.3701 206.928 92.3701 206.928Z" fill="#375A64"/>
<path d="M140.59 202.058C140.609 202.082 140.993 201.821 141.674 201.329C142.356 200.836 143.328 200.111 144.513 199.198C146.895 197.373 150.133 194.779 153.616 191.811C157.1 188.842 160.168 186.051 162.347 183.991C163.438 182.961 164.308 182.117 164.899 181.522C165.49 180.926 165.809 180.59 165.789 180.57C165.769 180.55 165.413 180.847 164.787 181.399C164.109 182.009 163.219 182.807 162.145 183.769C159.917 185.772 156.821 188.52 153.343 191.489C149.864 194.458 146.663 197.076 144.325 198.952L141.566 201.188C140.924 201.732 140.574 202.035 140.59 202.058Z" fill="#375A64"/>
<path d="M173.332 178.557C173.347 178.454 171.495 178.273 169.324 178.916C167.153 179.56 165.692 180.696 165.762 180.774C165.831 180.883 167.347 179.925 169.436 179.321C171.525 178.717 173.332 178.684 173.332 178.557Z" fill="#375A64"/>
<path d="M169.754 176.14C169.718 176.041 168.385 176.623 167.291 177.981C166.197 179.339 165.892 180.747 165.997 180.762C166.117 180.804 166.573 179.518 167.62 178.246C168.667 176.974 169.825 176.249 169.754 176.14Z" fill="#375A64"/>
<path d="M187.36 224.67C187.382 224.622 186.859 224.522 186.288 225.001C185.717 225.481 185.241 226.35 185.085 227.398C184.953 228.296 185.084 229.214 185.464 230.04C185.76 230.667 186.082 230.962 186.119 230.932C186.156 230.902 185.952 230.544 185.743 229.929C185.47 229.134 185.389 228.287 185.506 227.456C185.648 226.494 186.046 225.662 186.488 225.222C186.931 224.783 187.368 224.738 187.36 224.67Z" fill="#263238"/>
<path d="M66.9895 88.0773C66.4125 87.5175 65.7261 87.081 64.9726 86.7949C64.2191 86.5088 63.4146 86.379 62.6087 86.4137C61.8027 86.4483 61.0125 86.6467 60.2868 86.9964C59.561 87.3462 58.9152 87.8399 58.389 88.4472C57.1599 89.8652 56.6856 91.774 56.4084 93.6249C56.1312 95.4757 56.0076 97.378 55.3212 99.121C54.6349 100.864 53.2438 102.474 51.3917 102.824C49.9856 103.083 48.3289 102.65 47.2568 103.587C46.3416 104.383 46.3617 105.884 47.0096 106.904C47.6576 107.924 48.7715 108.563 49.8837 109.047C50.3263 109.241 50.849 109.52 50.8573 110.001C50.869 110.626 50.0591 110.85 49.4796 111.093C47.7378 111.825 47.2351 114.286 48.202 115.903C49.169 117.52 51.1629 118.296 53.045 118.308C54.9271 118.319 56.7624 117.686 58.5427 117.052C57.8546 117.754 57.8747 118.971 58.4876 119.742C59.1004 120.513 60.1576 120.847 61.1378 120.724C62.1181 120.601 63.0066 120.072 63.723 119.397C65.1208 118.079 65.894 116.221 66.2581 114.341C66.6221 112.46 66.5921 110.526 66.5921 108.617C66.6171 101.782 67.1064 94.9565 68.0567 88.1868" fill="#263238"/>
<path d="M86.8457 74.8974C90.4943 75.0666 93.9374 76.6239 96.461 79.2464C98.9845 81.8689 100.395 85.3553 100.399 88.9827C100.411 94.8205 100.318 101.171 99.9451 104.937C99.0751 113.699 92.4418 115.198 92.4418 115.198C92.4418 115.198 92.6539 120.641 92.9428 125.812C93.2217 130.734 89.1586 135.063 83.8631 135.486C78.6193 135.905 74.1236 132.335 73.7662 127.469L71.9894 89.656C71.8963 87.694 72.2168 85.7344 72.9302 83.9024C73.6436 82.0705 74.7342 80.4066 76.1323 79.0172C77.5303 77.6279 79.2051 76.5437 81.0493 75.834C82.8935 75.1243 84.8666 74.8047 86.8423 74.8958L86.8457 74.8974Z" fill="#EAD5CE"/>
<path d="M97.736 93.0228C97.7213 93.3089 97.5947 93.578 97.3832 93.7729C97.1718 93.9677 96.8921 94.0729 96.6037 94.066C96.4625 94.0729 96.3212 94.0516 96.1884 94.0034C96.0556 93.9553 95.9338 93.8811 95.8303 93.7855C95.7268 93.6898 95.6436 93.5744 95.5857 93.4463C95.5278 93.3182 95.4963 93.1798 95.4932 93.0394C95.5079 92.7535 95.6341 92.4845 95.8452 92.2894C96.0562 92.0944 96.3355 91.9886 96.6237 91.9946C96.7652 91.9879 96.9065 92.0094 97.0394 92.0578C97.1724 92.1061 97.2942 92.1804 97.3979 92.2762C97.5015 92.372 97.5848 92.4874 97.6428 92.6156C97.7009 92.7438 97.7326 92.8823 97.736 93.0228Z" fill="#263238"/>
<path d="M85.2462 94.3081C85.2463 94.6097 85.1282 94.8996 84.9169 95.1163C84.7055 95.333 84.4176 95.4595 84.1139 95.469C83.9652 95.4684 83.818 95.4382 83.6811 95.3803C83.5442 95.3224 83.4204 95.2378 83.3169 95.1317C83.2135 95.0255 83.1324 94.8998 83.0786 94.7621C83.0247 94.6244 82.9991 94.4773 83.0034 94.3296C83.0032 94.0282 83.1211 93.7386 83.3321 93.5219C83.5431 93.3053 83.8306 93.1786 84.134 93.1687C84.283 93.1689 84.4304 93.1987 84.5676 93.2564C84.7048 93.3142 84.8289 93.3987 84.9326 93.5049C85.0363 93.6112 85.1175 93.737 85.1713 93.8749C85.2252 94.0129 85.2507 94.1602 85.2462 94.3081Z" fill="#263238"/>
<path d="M98.362 91.0858C98.2318 91.24 97.345 90.6645 96.1393 90.7392C94.9335 90.8138 94.0852 91.4656 93.9449 91.3263C93.8781 91.2649 94.0033 90.9946 94.3724 90.6927C94.8727 90.3028 95.4824 90.0763 96.1176 90.0443C96.7446 90.0055 97.3678 90.1652 97.8978 90.5004C98.2852 90.7624 98.4272 91.0178 98.362 91.0858Z" fill="#263238"/>
<path d="M85.8026 92.2617C85.6723 92.416 84.7856 91.8421 83.5798 91.9151C82.3741 91.9881 81.5257 92.6415 81.3854 92.5022C81.3186 92.4408 81.4422 92.1705 81.813 91.8687C82.3131 91.4776 82.9225 91.2494 83.5581 91.2152C84.1854 91.1762 84.8089 91.3365 85.3383 91.673C85.7241 91.9383 85.8677 92.1937 85.8026 92.2617Z" fill="#263238"/>
<path d="M90.71 100.889C90.7 100.821 91.4431 100.647 92.6489 100.421C92.9545 100.371 93.2417 100.293 93.2818 100.089C93.3219 99.8853 93.1916 99.542 93.0213 99.1938C92.6873 98.4707 92.3377 97.7122 91.9725 96.9184C90.5096 93.6761 89.4307 91.0043 89.5627 90.9479C89.6946 90.8915 90.9872 93.4721 92.4501 96.7144C92.8042 97.5137 93.1415 98.2772 93.4621 99.0047C93.6008 99.3463 93.8245 99.7294 93.6943 100.197C93.6559 100.307 93.5928 100.407 93.5098 100.49C93.4268 100.572 93.326 100.635 93.215 100.673C93.0469 100.729 92.8724 100.763 92.6956 100.776C91.4765 100.905 90.7183 100.955 90.71 100.889Z" fill="#263238"/>
<path d="M92.4772 115.21C92.4772 115.21 86.532 115.737 80.5 112.603C80.5 112.603 83.7615 118.844 92.5474 117.711L92.4772 115.21Z" fill="#995037"/>
<path d="M81.8155 88.9315C81.9625 89.1422 82.8375 88.779 83.9347 88.5418C85.0319 88.3046 85.9755 88.2433 86.0156 87.9912C86.0556 87.7391 85.0236 87.3742 83.736 87.6595C82.4484 87.9447 81.6736 88.7408 81.8155 88.9315Z" fill="#263238"/>
<path d="M93.7665 86.7737C93.8267 87.0191 94.817 86.9843 96.0044 87.0042C97.1917 87.0241 98.1754 87.0738 98.2455 86.8284C98.3156 86.5829 97.3303 86.1202 96.0144 86.107C94.6984 86.0937 93.7031 86.5398 93.7665 86.7737Z" fill="#263238"/>
<path d="M74.2376 122.915C74.1524 121.119 76.1815 113.296 76.9897 108.503C77.798 103.71 74.635 102.926 74.134 100.096C73.633 97.2669 75.0609 94.5719 75.0609 94.5719C79.6784 96.2138 81.5004 92.95 84.0254 91.0145C86.6974 88.9581 87.292 86.4339 88.3875 83.2513C89.483 80.0687 90.7589 78.0869 94.1306 77.7784C94.1306 77.7784 97.4255 79.4369 98.6212 82.8914C99.65 85.8766 100.472 97.4941 100.472 97.4941C100.941 91.9201 105.492 89.5783 104.257 81.3806C103.725 77.8398 100.771 73.0037 96.2064 72.2955C94.8838 72.0899 92.3788 71.9307 92.3788 71.9307C89.665 69.4894 88.329 69.5624 85.7205 68.4131C80.0959 65.9337 73.3324 70.3618 69.5966 75.2128C66.7226 78.9476 65.3281 84.0026 64.5482 88.7557C64.0072 92.0511 64.0138 95.3995 64.3295 98.7231C64.5165 100.713 64.2727 103.213 62.3138 104.73C59.5232 106.886 58.7784 111.016 60.7156 116.515C62.6528 122.014 55.5186 131.357 55.5186 131.357C55.5186 131.357 58.9771 128.537 61.8646 127.078C64.752 125.618 74.2376 122.915 74.2376 122.915Z" fill="#263238"/>
<path d="M89.2594 103.751C89.0509 103.527 88.788 103.359 88.4957 103.264C88.2034 103.169 87.8914 103.149 87.5894 103.207C87.3703 103.243 87.1608 103.323 86.9734 103.441C86.786 103.559 86.6246 103.714 86.4989 103.896C86.2618 104.267 86.2434 104.77 86.509 105.086C86.8062 105.443 87.3774 105.488 87.845 105.317C88.3126 105.146 88.6983 104.805 89.0657 104.465C89.1733 104.378 89.2634 104.271 89.3312 104.151C89.3642 104.094 89.379 104.028 89.374 103.962C89.3689 103.896 89.3441 103.833 89.3029 103.781" fill="#995037"/>
<path d="M86.6102 102.232C86.7772 102.211 86.8557 103.289 87.8427 103.985C88.8296 104.682 89.9753 104.483 89.9953 104.625C90.0154 104.693 89.7532 104.854 89.2655 104.904C88.6306 104.96 87.9961 104.792 87.4736 104.43C86.9718 104.081 86.6263 103.552 86.51 102.955C86.4349 102.508 86.5351 102.232 86.6102 102.232Z" fill="#263238"/>
<path d="M48.483 99.7761C48.5164 99.7761 48.4496 100.216 48.5782 100.985C48.6562 101.45 48.8126 101.899 49.0408 102.312C49.3333 102.858 49.7906 103.299 50.3484 103.574C50.6771 103.745 51.0391 103.843 51.4095 103.861C51.78 103.88 52.15 103.819 52.4944 103.682C53.2292 103.365 53.7369 102.594 53.9323 101.712C54.1276 100.829 54.126 99.8558 54.0876 98.8458C54.0492 97.8358 53.9907 96.7893 53.9874 95.7113C53.964 93.5553 54.2696 91.449 55.1664 89.769C56.0198 88.0774 57.4777 86.8999 58.8938 86.5748C59.9984 86.2574 61.1814 86.3481 62.2238 86.8302C62.9402 87.205 63.2041 87.5782 63.2041 87.5782C63.1807 87.6064 62.8851 87.2631 62.1754 86.933C61.1524 86.5055 60.0109 86.4468 58.9489 86.7672C57.5946 87.0989 56.2235 88.2399 55.4069 89.8851C54.5502 91.5203 54.2562 93.5768 54.2796 95.7046C54.2796 96.7727 54.3414 97.8175 54.3731 98.8308C54.4049 99.8441 54.4282 100.843 54.1928 101.771C53.9857 102.693 53.4196 103.556 52.5912 103.897C52.2144 104.044 51.81 104.107 51.4062 104.082C51.0024 104.057 50.6089 103.945 50.2532 103.753C49.6659 103.451 49.1896 102.972 48.8922 102.385C48.6705 101.951 48.5264 101.483 48.4663 101C48.4019 100.594 48.4075 100.18 48.483 99.7761Z" fill="#263238"/>
<path d="M61.3767 118.601C61.2021 118.472 61.0474 118.317 60.9175 118.144C60.5435 117.639 60.3082 117.046 60.2344 116.424C60.1151 115.437 60.2923 114.438 60.7438 113.551C61.2448 112.506 62.1265 111.503 63.1686 110.511C64.2107 109.52 65.4281 108.498 66.3416 107.102C67.2885 105.713 67.5607 103.879 67.4238 102.012C67.3219 100.136 66.861 98.1708 66.9679 96.0761C66.9988 95.0061 67.2477 93.9534 67.6993 92.9815C68.2054 91.9861 69.0007 91.1645 69.9822 90.6231C71.9445 89.5186 74.1338 89.225 75.9358 88.23C77.7561 87.2714 78.9284 85.5665 79.7768 83.9097C80.6251 82.2529 81.2547 80.5314 82.0513 79.0305C82.8479 77.5296 83.8198 76.2277 84.9989 75.3587C86.1779 74.4896 87.4938 74.0435 88.6729 74.1115C89.675 74.1677 90.6309 74.5494 91.3933 75.1978C91.8786 75.5979 92.2427 76.1238 92.4454 76.7169C92.5004 76.8687 92.5379 77.0262 92.5573 77.1863C92.5693 77.2407 92.5743 77.2964 92.5723 77.3521C92.5489 77.3521 92.5422 77.1299 92.3903 76.7385C92.1686 76.1695 91.7993 75.6688 91.3198 75.2874C90.5678 74.6745 89.6363 74.3196 88.6645 74.2757C87.5406 74.2259 86.253 74.6605 85.1291 75.5262C84.0052 76.3919 83.0316 77.6523 82.2734 79.1449C81.5152 80.6375 80.889 82.3325 80.0239 84.0357C79.1589 85.739 77.9748 87.477 76.0727 88.4804C74.2173 89.4987 72.0179 89.8072 70.1342 90.8769C69.2013 91.3893 68.445 92.1681 67.9632 93.1125C67.5282 94.0503 67.2885 95.0656 67.2584 96.0977C67.1466 98.1393 67.5924 100.098 67.6943 102.003C67.8313 103.892 67.539 105.808 66.5487 107.238C65.5935 108.67 64.3443 109.68 63.3106 110.666C62.2768 111.651 61.3951 112.609 60.8907 113.626C60.44 114.483 60.2514 115.452 60.348 116.414C60.5501 118.026 61.4418 118.58 61.3767 118.601Z" fill="#375A64"/>
<path d="M63.6886 92.2631C63.5801 92.3261 63.0073 91.0524 63.3546 89.4437C63.702 87.835 64.7257 86.8913 64.8009 86.9925C64.9144 87.0821 64.1329 88.0722 63.8323 89.5432C63.51 91.0043 63.8289 92.2266 63.6886 92.2631Z" fill="#FAFAFA"/>
<path d="M66.7548 119.039C66.1028 123.69 67.0627 128.423 69.4769 132.461C70.3353 133.887 71.399 135.236 72.8169 136.123C74.2347 137.01 76.0467 137.378 77.6148 136.796C79.1829 136.214 80.3636 134.549 80.0964 132.909C79.7173 130.587 76.8349 129.129 76.8199 126.773C77.8653 127.4 79.2848 128.003 80.2016 127.204C80.8229 126.66 80.8596 125.678 80.5473 124.917C80.235 124.156 79.6455 123.544 79.1328 122.898C78.0747 121.552 77.303 120.006 76.8644 118.354C76.4257 116.702 76.3294 114.979 76.5811 113.289C76.728 112.349 76.9802 109.455 76.9935 108.503C77.0069 107.551 76.7397 108.503 76.0133 107.879C75.2868 107.256 74.2547 107.146 73.3413 107.394C72.4278 107.641 71.6495 108.223 70.9732 108.866C69.8773 109.935 69.0214 111.222 68.4616 112.643C67.9018 114.063 67.6508 115.585 67.725 117.109" fill="#263238"/>
<path d="M136.916 85.0972C136.684 85.5532 130.57 116.737 130.57 116.737L144.974 117.401L150.55 90.5834L136.916 85.0972Z" fill="#375A64"/>
<path d="M130.575 116.737L128.925 116.044L135.157 85.3064L137.113 85.177L130.575 116.737Z" fill="#263238"/>
<path d="M142.706 91.9135C142.688 92.0589 142.714 92.2063 142.78 92.3372C142.846 92.468 142.95 92.5764 143.078 92.6487C143.207 92.7209 143.354 92.7538 143.501 92.7432C143.648 92.7325 143.789 92.6789 143.905 92.5889C144.022 92.499 144.109 92.3768 144.155 92.2378C144.202 92.0988 144.206 91.9492 144.167 91.8079C144.128 91.6666 144.047 91.54 143.936 91.4439C143.825 91.3479 143.687 91.2868 143.541 91.2684C143.443 91.2561 143.344 91.263 143.249 91.2888C143.155 91.3146 143.066 91.3587 142.988 91.4187C142.911 91.4786 142.846 91.5532 142.797 91.6381C142.749 91.723 142.718 91.8166 142.706 91.9135Z" fill="#263238"/>
<path d="M145.679 113.803L145.893 109.72L139.74 107.203L142.14 101.544C142.416 100.92 142.82 100.36 143.325 99.8986C143.831 99.4374 144.427 99.0853 145.077 98.8646C145.726 98.6439 146.414 98.5594 147.098 98.6164C147.782 98.6734 148.447 98.8707 149.05 99.1958L151.519 100.523C152.39 100.989 153.153 101.633 153.757 102.412C154.361 103.191 154.794 104.088 155.026 105.043C155.827 108.377 156.529 115.326 156.454 115.016" fill="#EAD5CE"/>
<path d="M157.702 114.765L155.556 163.771C154.391 167.41 151.831 170.448 148.431 172.229C148.407 172.245 148.382 172.259 148.355 172.271C146.255 173.359 143.921 173.928 141.552 173.929C137.711 173.941 134.017 172.324 131.213 169.712L112.898 152.615L112.799 152.519C112.703 152.422 112.531 152.252 112.298 152.005C109.905 149.517 101.098 139.928 102.714 134.79C102.801 134.499 102.908 134.223 103.017 133.932C103.07 133.783 103.135 133.634 103.2 133.483C104.904 129.458 108.471 125.731 110.214 124.073C111.759 124.94 113.186 125.999 114.461 127.224L123.958 136.271L124.023 136.334L139.71 151.291L139.957 151.527L140.097 151.655L140.174 151.729L140.206 151.462V151.452L144.852 113.654L148.085 113.936L148.269 113.958L155.718 114.6L155.805 114.61L157.702 114.765Z" fill="#F3BD3C"/>
<path d="M155.797 116.502C155.71 117.571 155.538 118.429 155.42 118.429C155.301 118.429 155.279 117.54 155.376 116.469C155.451 115.56 155.58 114.799 155.71 114.596C155.72 114.563 155.732 114.542 155.754 114.542C155.775 114.542 155.786 114.563 155.797 114.606C155.877 114.832 155.877 115.595 155.797 116.502Z" fill="#263238"/>
<path d="M151.665 118.542C151.782 118.542 151.924 117.631 151.983 116.494C152.041 115.356 151.994 114.431 151.877 114.426C151.76 114.421 151.618 115.336 151.56 116.472C151.502 117.608 151.55 118.535 151.665 118.542Z" fill="#263238"/>
<path d="M148.265 116.019C148.2 117.283 148.05 118.299 147.931 118.299C147.813 118.299 147.781 117.261 147.845 115.998C147.876 115.306 147.956 114.617 148.082 113.936C148.125 113.798 148.158 113.722 148.19 113.722C148.222 113.722 148.255 113.808 148.265 113.958C148.321 114.644 148.321 115.333 148.265 116.019Z" fill="#263238"/>
<path d="M140.708 157.582C140.633 157.582 140.515 157.015 140.374 156.136C140.376 156.134 140.377 156.133 140.378 156.131C140.378 156.129 140.379 156.127 140.379 156.125C140.379 156.123 140.378 156.121 140.378 156.119C140.377 156.117 140.376 156.116 140.374 156.114C140.299 155.58 140.222 154.953 140.147 154.252C140.029 153.139 139.953 152.142 139.943 151.522C139.943 151.356 139.943 151.2 139.953 151.094C139.963 150.955 139.975 150.88 140.007 150.88C140.039 150.88 140.115 151.094 140.191 151.447V151.457C140.309 152.058 140.449 153.063 140.568 154.209C140.767 156.051 140.827 157.57 140.708 157.582Z" fill="#263238"/>
<path d="M112.8 152.518C112.703 152.422 112.531 152.251 112.299 152.004C112.144 149.414 111.633 146.856 110.779 144.404C110.099 142.498 109.518 141.384 109.593 141.342C109.637 141.342 109.797 141.609 110.068 142.09C110.46 142.795 110.806 143.524 111.101 144.274C112.078 146.763 112.65 149.39 112.795 152.057C112.8 152.218 112.8 152.369 112.8 152.518Z" fill="#263238"/>
<path d="M124.249 135.828C124.181 135.999 124.102 136.165 124.012 136.325C123.731 136.819 123.399 137.282 123.02 137.707C121.606 139.239 119.709 140.248 117.641 140.566C116.209 140.812 114.737 140.698 113.361 140.234C111.884 139.72 110.522 138.742 109.199 137.654C107.876 136.566 106.532 135.367 104.899 134.564C104.302 134.268 103.667 134.055 103.012 133.932C103.065 133.783 103.13 133.634 103.195 133.483C103.861 133.621 104.506 133.844 105.114 134.146C106.828 134.992 108.165 136.246 109.48 137.315C110.794 138.385 112.1 139.36 113.501 139.864C114.811 140.321 116.215 140.449 117.587 140.239C119.599 139.95 121.46 139.018 122.891 137.586C123.278 137.175 123.631 136.735 123.947 136.269C124.035 136.113 124.136 135.966 124.249 135.828Z" fill="#FAFAFA"/>
<path d="M148.449 172.624C148.403 172.511 148.371 172.392 148.352 172.271C148.287 171.981 148.185 171.521 148.072 170.899C147.835 169.808 147.532 168.181 146.724 166.35C146.286 165.361 145.693 164.446 144.967 163.64C144.147 162.708 143.089 162.013 141.905 161.629C140.665 161.232 139.253 161.201 137.798 161.222C136.343 161.244 134.792 161.307 133.237 160.9C131.683 160.494 130.348 159.594 129.249 158.63C128.15 157.666 127.19 156.585 126.273 155.612C124.483 153.663 122.576 152.089 120.624 151.618C118.672 151.147 117.002 151.661 116.115 152.293C115.228 152.925 114.973 153.524 114.907 153.524C114.886 153.524 114.951 153.374 115.103 153.106C115.347 152.736 115.653 152.41 116.008 152.142C116.903 151.436 118.648 150.847 120.707 151.286C122.766 151.726 124.784 153.363 126.606 155.311C127.543 156.287 128.481 157.325 129.57 158.267C130.659 159.209 131.908 160.055 133.364 160.423C136.297 161.161 139.376 160.293 142.048 161.204C143.3 161.619 144.415 162.364 145.273 163.36C146.014 164.208 146.61 165.169 147.04 166.208C147.838 168.103 148.075 169.742 148.259 170.851C148.344 171.418 148.399 171.846 148.426 172.146V172.211C148.453 172.347 148.461 172.486 148.449 172.624Z" fill="#FAFAFA"/>
<g opacity="0.3">
<path opacity="0.3" d="M140.375 156.114C140.376 156.116 140.377 156.117 140.378 156.119C140.379 156.121 140.379 156.123 140.379 156.125C140.379 156.127 140.379 156.129 140.378 156.131C140.377 156.133 140.376 156.134 140.375 156.136C140.329 156.829 140.225 157.517 140.062 158.192C140.003 158.534 139.87 158.858 139.673 159.144C139.571 159.285 139.43 159.393 139.267 159.454C139.104 159.515 138.926 159.527 138.756 159.488C138.347 159.37 138.153 158.909 138.057 158.502C137.752 157.256 137.742 155.956 138.026 154.704C138.31 153.453 138.881 152.283 139.695 151.286C139.706 151.263 139.72 151.241 139.738 151.222L139.932 151.018C139.944 151.039 139.944 151.073 139.954 151.094C140.007 151.277 140.05 151.462 140.082 151.65C140.417 153.113 140.515 154.62 140.375 156.114Z" fill="black"/>
</g>
<defs>
<radialGradient id="paint0_radial" cx="0" cy="0" r="1" gradientUnits="userSpaceOnUse" gradientTransform="translate(167.5 285.5) rotate(90) scale(159.5 167.5)">
<stop stop-color="#3A4446"/>
<stop offset="1" stop-color="#121617"/>
</radialGradient>
</defs>
</svg>
