<svg width="103.86" height="98.999" viewBox="0 0 103.86 98.999" xmlns="http://www.w3.org/2000/svg"><path d="M65.373 77.432c2.095 0 3.793 1.703 3.793 3.804s-1.698 3.805-3.793 3.805-3.793-1.704-3.793-3.805 1.698-3.804 3.793-3.804zm10.479-40.683c2.587 0 4.684 2.103 4.684 4.697s-2.097 4.698-4.684 4.698-4.684-2.104-4.684-4.698 2.097-4.697 4.684-4.697zM55.031 79.624c2.587 0 4.684 2.103 4.684 4.697s-2.097 4.698-4.684 4.698c-2.586 0-4.684-2.104-4.684-4.698s2.098-4.697 4.684-4.697zm3.766-19.039c-4.667 0-8.45 3.794-8.45 8.475 0 4.68 3.783 8.475 8.45 8.475s8.451-3.795 8.451-8.475c0-4.681-3.784-8.475-8.45-8.475zM87.015 6.477c-8.752 0-15.848 7.115-15.848 15.893s7.096 15.895 15.848 15.895c8.753 0 15.848-7.117 15.848-15.895S95.768 6.477 87.015 6.477zM44.093 1a9.028 9.028 0 0 0-4.527 1.217L5.527 21.927A9.087 9.087 0 0 0 1 29.79V69.21a9.086 9.086 0 0 0 4.527 7.866l34.039 19.709a9.031 9.031 0 0 0 9.055 0l.74-.43a5.643 5.643 0 0 1-.922-2.492 5.594 5.594 0 0 1-4.11-1.29 5.621 5.621 0 0 1-1.714-6.077 5.595 5.595 0 0 1-3.178-2.903 5.62 5.62 0 0 1 1.016-6.232 5.603 5.603 0 0 1-1.655-3.977 5.62 5.62 0 0 1 3.555-5.219 5.597 5.597 0 0 1 .182-4.3 5.619 5.619 0 0 1 5.426-3.229 5.592 5.592 0 0 1 1.982-3.822c.145-.122.296-.23.45-.334a5.648 5.648 0 0 1 1.364-2.477 5.603 5.603 0 0 1-1.654-3.976 5.62 5.62 0 0 1 3.555-5.22 5.602 5.602 0 0 1 .181-4.302 5.62 5.62 0 0 1 5.426-3.228 5.596 5.596 0 0 1 1.983-3.82 5.622 5.622 0 0 1 6.27-.641c.045-.239.106-.475.183-.707a5.598 5.598 0 0 1-3.178-2.905 5.62 5.62 0 0 1 1.016-6.232 5.598 5.598 0 0 1-1.655-3.975 5.621 5.621 0 0 1 3.555-5.22 5.685 5.685 0 0 1-.219-.787L48.62 2.218A9.028 9.028 0 0 0 44.093 1z" fill="#bc881e"/><path d="M56.692 63.663c2.587 0 4.684 2.103 4.684 4.697s-2.097 4.698-4.684 4.698-4.684-2.104-4.684-4.698 2.097-4.697 4.684-4.697zM45.305 13.326c2.587 0 4.684 2.101 4.684 4.695s-2.097 4.698-4.684 4.698-4.684-2.104-4.684-4.698 2.097-4.695 4.684-4.695zM18.184 31.543c2.587 0 4.682 2.103 4.682 4.697s-2.096 4.698-4.682 4.698c-2.587 0-4.684-2.104-4.684-4.698s2.098-4.697 4.684-4.697zm34.436-3.529c2.587 0 4.682 2.103 4.682 4.697s-2.096 4.696-4.682 4.696a4.689 4.689 0 0 1-4.684-4.696 4.69 4.69 0 0 1 4.684-4.697zm-18.684 6.27a4.69 4.69 0 0 1 4.684 4.696 4.69 4.69 0 0 1-4.684 4.698c-2.586 0-4.684-2.103-4.684-4.698s2.098-4.697 4.684-4.697zm2.877 14.931c2.587 0 4.684 2.103 4.684 4.697s-2.097 4.696-4.684 4.696c-2.586 0-4.684-2.101-4.684-4.695s2.098-4.698 4.684-4.698zm-15.615 10c2.587 0 4.682 2.101 4.682 4.695s-2.096 4.698-4.682 4.698c-2.586 0-4.684-2.103-4.684-4.698s2.098-4.695 4.684-4.695zm11.317 12.188c2.587 0 4.682 2.103 4.682 4.697s-2.096 4.698-4.682 4.698c-2.586 0-4.684-2.103-4.684-4.698s2.098-4.697 4.684-4.697zm56.352-50.408c2.587 0 4.684 2.103 4.684 4.697s-2.097 4.698-4.684 4.698-4.684-2.103-4.684-4.698 2.097-4.697 4.684-4.697zm-43.561-7.67c2.587 0 4.684 2.102 4.684 4.696s-2.097 4.697-4.684 4.697c-2.586 0-4.684-2.103-4.684-4.697s2.098-4.695 4.684-4.695zM18.185 31.544c2.587 0 4.682 2.103 4.682 4.697s-2.096 4.697-4.682 4.697c-2.586 0-4.684-2.103-4.684-4.697s2.098-4.697 4.684-4.697zm34.436-3.529c2.587 0 4.682 2.103 4.682 4.697s-2.096 4.696-4.682 4.696a4.689 4.689 0 0 1-4.684-4.696 4.69 4.69 0 0 1 4.684-4.697zm-18.684 6.27a4.69 4.69 0 0 1 4.684 4.696 4.69 4.69 0 0 1-4.684 4.698c-2.586 0-4.684-2.104-4.684-4.698s2.098-4.697 4.684-4.697zm2.877 14.931c2.587 0 4.684 2.103 4.684 4.697s-2.097 4.696-4.684 4.696c-2.586 0-4.684-2.102-4.684-4.696s2.098-4.697 4.684-4.697zm-15.615 10c2.587 0 4.682 2.101 4.682 4.695s-2.096 4.698-4.682 4.698c-2.586 0-4.684-2.104-4.684-4.698s2.098-4.695 4.684-4.695zm11.317 12.188c2.587 0 4.682 2.103 4.682 4.697s-2.096 4.698-4.682 4.698c-2.586 0-4.684-2.104-4.684-4.698s2.098-4.697 4.684-4.697z" fill="#705112"/></svg>