<svg width="300" height="250" viewBox="0 0 300 250" fill="none" xmlns="http://www.w3.org/2000/svg">
<rect x="1.5" y="1.5" width="297" height="247" rx="10.5" fill="#252525" stroke="white" stroke-width="3" stroke-linecap="round" stroke-dasharray="30 30"/>
<path d="M148.333 123.333V116.667H151.666V123.333H158.333V126.667H151.666V133.333H148.333V126.667H141.666V123.333H148.333ZM150 141.667C140.795 141.667 133.333 134.205 133.333 125C133.333 115.795 140.795 108.333 150 108.333C159.205 108.333 166.666 115.795 166.666 125C166.666 134.205 159.205 141.667 150 141.667ZM150 138.333C153.536 138.333 156.927 136.929 159.428 134.428C161.928 131.928 163.333 128.536 163.333 125C163.333 121.464 161.928 118.072 159.428 115.572C156.927 113.071 153.536 111.667 150 111.667C146.463 111.667 143.072 113.071 140.572 115.572C138.071 118.072 136.666 121.464 136.666 125C136.666 128.536 138.071 131.928 140.572 134.428C143.072 136.929 146.463 138.333 150 138.333Z" fill="white"/>
</svg>
