<svg width="89" height="89" viewBox="0 0 89 89" fill="none" xmlns="http://www.w3.org/2000/svg">
<circle cx="44.8649" cy="44.9728" r="44.027" fill="#FF006E"/>
<path d="M26.0013 27.89L29.1438 28.7277L32.3536 49.3341C32.3704 49.4559 32.4208 49.5473 32.4712 49.6539C32.5048 49.7148 32.5048 49.791 32.5384 49.8519C32.6057 49.9585 32.6897 50.0347 32.7905 50.126C32.8409 50.1717 32.8577 50.2326 32.9081 50.2631C33.009 50.3545 33.1434 50.4002 33.2779 50.4611C33.3283 50.4763 33.3619 50.522 33.4291 50.5373C33.6139 50.5982 33.8156 50.6286 34.0173 50.6286C34.0845 50.6286 34.1685 50.6286 34.2357 50.6134H34.2525L52.0995 48.466L56.015 50.7505C56.62 51.1008 56.8889 51.7861 56.6704 52.4106C56.4519 53.0198 55.847 53.431 55.1412 53.431H34.0173C33.093 53.431 32.3368 54.1163 32.3368 54.954C32.3368 55.7916 33.093 56.477 34.0173 56.477H55.158C57.3426 56.477 59.2416 55.2129 59.897 53.3244C60.5692 51.3901 59.7289 49.2884 57.8468 48.1918L57.2586 47.8567L59.4768 47.5826C60.149 47.5065 60.7036 47.0648 60.8717 46.4708L64.2327 35.0177C64.3671 34.5608 64.2663 34.0735 63.947 33.6927C63.6277 33.312 63.1403 33.0987 62.6194 33.0987H33.2274L32.32 27.3113C32.2359 26.7325 31.7654 26.2452 31.1268 26.0776L26.9424 24.9658C26.0517 24.7222 25.1274 25.1943 24.8585 26.0015C24.6065 26.8087 25.1106 27.6616 26.0013 27.89ZM60.4179 36.16L57.914 44.7041L35.4457 47.4151L33.698 36.16H60.4179Z" fill="#EAF4FF"/>
<path d="M42.2182 60.757C42.2182 58.7467 40.4201 57.1018 38.2018 57.1018C35.9836 57.1018 34.1686 58.7314 34.1686 60.757C34.1686 62.7674 35.9668 64.397 38.2018 64.397C40.4201 64.397 42.2182 62.7674 42.2182 60.757ZM37.5296 60.757C37.5296 60.422 37.8321 60.1478 38.2018 60.1478C38.5716 60.1478 38.8572 60.422 38.8572 60.757C38.8572 61.0921 38.5547 61.351 38.2018 61.351C37.8321 61.351 37.5296 61.0921 37.5296 60.757Z" fill="#EAF4FF"/>
<path d="M56.3849 60.757C56.3849 58.7467 54.5867 57.1018 52.3685 57.1018C50.1502 57.1018 48.3353 58.7314 48.3353 60.757C48.3353 62.7674 50.1334 64.397 52.3685 64.397C54.5867 64.397 56.3849 62.7674 56.3849 60.757ZM51.6963 60.757C51.6963 60.422 51.9988 60.1478 52.3685 60.1478C52.7382 60.1478 53.0239 60.422 53.0239 60.757C53.0239 61.0921 52.7214 61.351 52.3685 61.351C52.0156 61.351 51.6963 61.0921 51.6963 60.757Z" fill="#EAF4FF"/>
</svg>
