<svg width="26" height="26" viewBox="0 0 26 26" fill="none" xmlns="http://www.w3.org/2000/svg">
<path fill-rule="evenodd" clip-rule="evenodd" d="M12.1654 10.8626C11.4286 12.0727 10.233 12.8849 9.1389 12.8667C8.04478 12.8849 6.8492 12.0727 6.11241 10.8626C5.63675 10.0814 5.41514 9.24335 5.45593 8.5112C5.49653 7.78253 5.80381 7.11631 6.43593 6.77026C7.26255 6.31775 8.29633 6.58848 9.1389 7.21754C9.98148 6.58848 11.0153 6.31775 11.8419 6.77026C12.474 7.11631 12.7813 7.78253 12.8219 8.5112C12.8627 9.24335 12.6411 10.0814 12.1654 10.8626Z" fill="#FF006E"/>
<path fill-rule="evenodd" clip-rule="evenodd" d="M20.5945 10.8626C19.8577 12.0727 18.6621 12.8849 17.568 12.8667C16.4739 12.8849 15.2783 12.0727 14.5415 10.8626C14.0658 10.0814 13.8442 9.24335 13.885 8.5112C13.9256 7.78253 14.2329 7.11631 14.865 6.77026C15.6916 6.31775 16.7254 6.58848 17.568 7.21754C18.4106 6.58848 19.4444 6.31775 20.271 6.77026C20.9031 7.11631 21.2104 7.78253 21.251 8.5112C21.2917 9.24335 21.0701 10.0814 20.5945 10.8626Z" fill="#FF006E"/>
<circle cx="13.3534" cy="12.8671" r="11.4179" stroke="#FF006E" stroke-width="2"/>
<path d="M17.869 16.2537C17.869 18.1241 15.8473 19.6404 13.3534 19.6404C10.8595 19.6404 8.83783 18.1241 8.83783 16.2537" stroke="#FF006E" stroke-width="2" stroke-linecap="round"/>
</svg>
