<svg width="44" height="36" viewBox="0 0 44 36" fill="none" xmlns="http://www.w3.org/2000/svg">
<path d="M26.1526 0.158203C18.889 0.158203 9.59996 6.61523 3.08516 12.038C2.23689 12.7438 1.55432 13.6276 1.08589 14.6267C0.61745 15.6259 0.374619 16.7158 0.374619 17.8193C0.374619 18.9228 0.61745 20.0128 1.08589 21.0119C1.55432 22.011 2.23689 22.8948 3.08516 23.6006C9.59996 29.02 18.889 35.4804 26.1526 35.4804C35.8948 35.4804 43.8132 27.5575 43.8132 17.8188C43.8132 8.07996 35.8903 0.158203 26.1526 0.158203ZM25.1727 31.0398C22.5579 31.0398 20.0017 30.2644 17.8275 28.8117C15.6533 27.3589 13.9587 25.2941 12.9581 22.8782C11.9574 20.4624 11.6956 17.8041 12.2057 15.2395C12.7159 12.6748 13.975 10.3191 15.824 8.47005C17.673 6.62106 20.0288 5.36187 22.5934 4.85174C25.1581 4.3416 27.8164 4.60342 30.2322 5.60409C32.6481 6.60476 34.7129 8.29934 36.1656 10.4735C37.6184 12.6477 38.3938 15.2039 38.3938 17.8188C38.3899 21.324 36.9957 24.6846 34.5171 27.1631C32.0385 29.6417 28.678 31.0359 25.1727 31.0398Z" fill="white"/>
<path d="M30.6408 13.9593C30.5237 13.9996 30.3998 14.0164 30.2761 14.0086C30.1525 14.0008 30.0316 13.9686 29.9205 13.9138C29.8094 13.8591 29.7102 13.7828 29.6287 13.6895C29.5472 13.5962 29.485 13.4877 29.4457 13.3702C29.1504 12.4691 28.578 11.6843 27.8101 11.1279C27.0422 10.5715 26.1182 10.2719 25.1699 10.2719C24.2216 10.2719 23.2976 10.5715 22.5297 11.1279C21.7619 11.6843 21.1894 12.4691 20.8941 13.3702C20.8534 13.4886 20.7896 13.5978 20.7066 13.6915C20.6236 13.7852 20.5229 13.8616 20.4103 13.9163C20.2977 13.971 20.1754 14.003 20.0504 14.0104C19.9255 14.0177 19.8003 14.0004 19.682 13.9593C19.5642 13.9205 19.4553 13.8586 19.3616 13.7772C19.268 13.6958 19.1915 13.5966 19.1367 13.4853C19.0818 13.3741 19.0497 13.253 19.0422 13.1291C19.0347 13.0053 19.0519 12.8812 19.0929 12.7642C19.5148 11.4856 20.3293 10.3726 21.4203 9.5837C22.5114 8.79479 23.8235 8.37012 25.1699 8.37012C26.5163 8.37012 27.8284 8.79479 28.9195 9.5837C30.0106 10.3726 30.825 11.4856 31.2469 12.7642C31.3227 13.003 31.3016 13.2621 31.1883 13.4856C31.0749 13.7092 30.8783 13.8792 30.6408 13.9593Z" fill="white"/>
<path d="M33.5703 19.0603L30.1356 26.197C29.7958 26.854 29.2294 27.2585 28.621 27.2585H21.7188C21.0969 27.2585 20.5237 26.854 20.2042 26.197L17.2419 20.0696L16.7695 19.0603C16.606 18.7125 16.5198 18.3333 16.5169 17.949V17.932C16.5169 16.7709 17.2408 15.7276 18.2841 15.7276H32.0387C33.4219 15.7276 34.2772 17.5956 33.5703 19.0603Z" fill="white"/>
</svg>
