<svg width="38" height="30" viewBox="0 0 38 30" fill="none" xmlns="http://www.w3.org/2000/svg">
<path d="M22.7399 0.32373C16.5598 0.32373 8.65595 5.66548 3.10647 10.1509C1.63502 11.3334 0.794189 13.0868 0.794189 14.9218C0.794189 16.7567 1.63502 18.5101 3.10647 19.6927C8.65595 24.1781 16.5598 29.5198 22.7399 29.5198C31.022 29.5198 37.7907 22.9548 37.7907 14.9218C37.7907 6.88878 31.022 0.32373 22.7399 0.32373ZM21.899 27.5626C14.7099 27.5626 8.86616 21.8946 8.86616 14.9218C8.86616 7.94897 14.7099 2.28101 21.899 2.28101C29.0881 2.28101 34.9319 7.94897 34.9319 14.9218C34.9319 21.8946 29.0881 27.5626 21.899 27.5626Z" fill="#E18F00"/>
<path d="M26.5655 11.7411C26.4814 11.7818 26.3974 11.7818 26.3133 11.7818C25.9349 11.7818 25.6406 11.578 25.5565 11.2517C25.052 9.70223 23.5806 8.68282 21.8989 8.68282C20.2593 8.68282 18.7878 9.70223 18.2413 11.2517C18.1152 11.6595 17.6527 11.8634 17.1903 11.7411C16.7698 11.6187 16.5596 11.1702 16.6858 10.7624C17.4425 8.60126 19.5025 7.1333 21.8569 7.1333C24.2112 7.1333 26.3133 8.60126 27.028 10.7624C27.1961 11.1702 26.9859 11.6187 26.5655 11.7411Z" fill="#E18F00"/>
<path d="M29.0462 15.941L26.1033 21.8537C25.809 22.3837 25.3465 22.71 24.8 22.71H18.9142C18.3676 22.71 17.9052 22.3837 17.6109 21.8537L15.0884 16.7973L14.668 15.941C14.5418 15.6556 14.4578 15.3294 14.4578 15.0439C14.4578 14.0653 15.0884 13.209 15.9713 13.209H27.7008C28.9201 13.209 29.6768 14.7585 29.0462 15.941Z" fill="#E18F00"/>
</svg>
