<svg width="38" height="30" viewBox="0 0 38 30" fill="none" xmlns="http://www.w3.org/2000/svg">
<path d="M22.7396 0.32373C16.5595 0.32373 8.65571 5.66548 3.10623 10.1509C1.63478 11.3334 0.793945 13.0868 0.793945 14.9218C0.793945 16.7567 1.63478 18.5101 3.10623 19.6927C8.65571 24.1781 16.5595 29.5198 22.7396 29.5198C31.0218 29.5198 37.7905 22.9548 37.7905 14.9218C37.7905 6.88878 31.0218 0.32373 22.7396 0.32373ZM21.8988 27.5626C14.7097 27.5626 8.86592 21.8946 8.86592 14.9218C8.86592 7.94897 14.7097 2.28101 21.8988 2.28101C29.0879 2.28101 34.9317 7.94897 34.9317 14.9218C34.9317 21.8946 29.0879 27.5626 21.8988 27.5626Z" fill="#1C2645"/>
<path d="M26.5655 11.7411C26.4814 11.7818 26.3974 11.7818 26.3133 11.7818C25.9349 11.7818 25.6406 11.578 25.5565 11.2517C25.052 9.70223 23.5806 8.68282 21.8989 8.68282C20.2593 8.68282 18.7878 9.70223 18.2413 11.2517C18.1152 11.6595 17.6527 11.8634 17.1903 11.7411C16.7698 11.6187 16.5596 11.1702 16.6858 10.7624C17.4425 8.60126 19.5025 7.1333 21.8569 7.1333C24.2112 7.1333 26.3133 8.60126 27.028 10.7624C27.1961 11.1702 26.9859 11.6187 26.5655 11.7411Z" fill="#1C2645"/>
<path d="M29.0459 15.941L26.103 21.8537C25.8087 22.3837 25.3463 22.71 24.7997 22.71H18.9139C18.3674 22.71 17.9049 22.3837 17.6106 21.8537L15.0881 16.7973L14.6677 15.941C14.5416 15.6556 14.4575 15.3294 14.4575 15.0439C14.4575 14.0653 15.0881 13.209 15.971 13.209H27.7006C28.9198 13.209 29.6766 14.7585 29.0459 15.941Z" fill="#1C2645"/>
</svg>
