<svg width="99" height="54" viewBox="0 0 99 54" fill="none" xmlns="http://www.w3.org/2000/svg">
<path d="M6.64453 15.2783L5.27344 16.6494V21H1.46338V0.75H5.27344V11.9692L6.01172 11.02L9.66357 6.73535H14.2383L9.0835 12.6812L14.6865 21H10.3096L6.64453 15.2783ZM19.9072 21H16.084V6.73535H19.9072V21ZM15.8599 3.04395C15.8599 2.47266 16.0488 2.00244 16.4268 1.6333C16.8135 1.26416 17.3364 1.07959 17.9956 1.07959C18.646 1.07959 19.1646 1.26416 19.5513 1.6333C19.938 2.00244 20.1313 2.47266 20.1313 3.04395C20.1313 3.62402 19.9336 4.09863 19.5381 4.46777C19.1514 4.83691 18.6372 5.02148 17.9956 5.02148C17.354 5.02148 16.8354 4.83691 16.4399 4.46777C16.0532 4.09863 15.8599 3.62402 15.8599 3.04395ZM27.6196 3.22852V6.73535H30.0586V9.53027H27.6196V16.6494C27.6196 17.1768 27.7207 17.5547 27.9229 17.7832C28.125 18.0117 28.5117 18.126 29.083 18.126C29.5049 18.126 29.8784 18.0952 30.2036 18.0337V20.9209C29.4565 21.1494 28.6875 21.2637 27.8965 21.2637C25.2246 21.2637 23.8623 19.9146 23.8096 17.2163V9.53027H21.7266V6.73535H23.8096V3.22852H27.6196ZM40.4473 21C40.2715 20.6572 40.144 20.231 40.0649 19.7212C39.1421 20.7495 37.9424 21.2637 36.4658 21.2637C35.0684 21.2637 33.9082 20.8594 32.9854 20.0508C32.0713 19.2422 31.6143 18.2227 31.6143 16.9922C31.6143 15.4805 32.1724 14.3203 33.2886 13.5117C34.4136 12.7031 36.0352 12.2944 38.1533 12.2856H39.9067V11.4683C39.9067 10.8091 39.7354 10.2817 39.3926 9.88623C39.0586 9.49072 38.5269 9.29297 37.7974 9.29297C37.1558 9.29297 36.6504 9.44678 36.2812 9.75439C35.9209 10.062 35.7407 10.4839 35.7407 11.02H31.9307C31.9307 10.1938 32.1855 9.4292 32.6953 8.72607C33.2051 8.02295 33.9258 7.47363 34.8574 7.07812C35.7891 6.67383 36.835 6.47168 37.9951 6.47168C39.7529 6.47168 41.146 6.91553 42.1743 7.80322C43.2114 8.68213 43.73 9.92139 43.73 11.521V17.7041C43.7388 19.0576 43.9277 20.0815 44.2969 20.7759V21H40.4473ZM37.2964 18.3501C37.8589 18.3501 38.3774 18.2271 38.8521 17.981C39.3267 17.7261 39.6782 17.3877 39.9067 16.9658V14.5137H38.4829C36.5757 14.5137 35.5605 15.1729 35.4375 16.4912L35.4243 16.7153C35.4243 17.1899 35.5913 17.5811 35.9253 17.8887C36.2593 18.1963 36.7163 18.3501 37.2964 18.3501ZM59.4976 13.9995C59.4976 16.1968 58.9966 17.959 57.9946 19.2861C57.0015 20.6045 55.6567 21.2637 53.9604 21.2637C52.519 21.2637 51.3545 20.7627 50.4668 19.7607V26.4844H46.6567V6.73535H50.1899L50.3218 8.13281C51.2446 7.02539 52.4487 6.47168 53.9341 6.47168C55.6919 6.47168 57.0586 7.12207 58.0342 8.42285C59.0098 9.72363 59.4976 11.5166 59.4976 13.8018V13.9995ZM55.6875 13.7227C55.6875 12.3955 55.4502 11.3716 54.9756 10.6509C54.5098 9.93018 53.8286 9.56982 52.9321 9.56982C51.7368 9.56982 50.915 10.0269 50.4668 10.9409V16.7812C50.9326 17.7217 51.7632 18.1919 52.9585 18.1919C54.7778 18.1919 55.6875 16.7021 55.6875 13.7227ZM70.4136 19.5498C69.4731 20.6924 68.1724 21.2637 66.5112 21.2637C64.9819 21.2637 63.813 20.8242 63.0044 19.9453C62.2046 19.0664 61.7959 17.7788 61.7783 16.0825V6.73535H65.5884V15.9507C65.5884 17.436 66.2651 18.1787 67.6187 18.1787C68.9106 18.1787 69.7983 17.7305 70.2817 16.834V6.73535H74.105V21H70.519L70.4136 19.5498ZM84.9946 10.3081C84.4761 10.2378 84.019 10.2026 83.6235 10.2026C82.1821 10.2026 81.2373 10.6904 80.7891 11.666V21H76.979V6.73535H80.5781L80.6836 8.43604C81.4482 7.12646 82.5073 6.47168 83.8608 6.47168C84.2827 6.47168 84.6782 6.52881 85.0474 6.64307L84.9946 10.3081ZM94.7109 21C94.5352 20.6572 94.4077 20.231 94.3286 19.7212C93.4058 20.7495 92.2061 21.2637 90.7295 21.2637C89.332 21.2637 88.1719 20.8594 87.249 20.0508C86.335 19.2422 85.8779 18.2227 85.8779 16.9922C85.8779 15.4805 86.436 14.3203 87.5522 13.5117C88.6772 12.7031 90.2988 12.2944 92.417 12.2856H94.1704V11.4683C94.1704 10.8091 93.999 10.2817 93.6562 9.88623C93.3223 9.49072 92.7905 9.29297 92.061 9.29297C91.4194 9.29297 90.9141 9.44678 90.5449 9.75439C90.1846 10.062 90.0044 10.4839 90.0044 11.02H86.1943C86.1943 10.1938 86.4492 9.4292 86.959 8.72607C87.4688 8.02295 88.1895 7.47363 89.1211 7.07812C90.0527 6.67383 91.0986 6.47168 92.2588 6.47168C94.0166 6.47168 95.4097 6.91553 96.438 7.80322C97.4751 8.68213 97.9937 9.92139 97.9937 11.521V17.7041C98.0024 19.0576 98.1914 20.0815 98.5605 20.7759V21H94.7109ZM91.5601 18.3501C92.1226 18.3501 92.6411 18.2271 93.1157 17.981C93.5903 17.7261 93.9419 17.3877 94.1704 16.9658V14.5137H92.7466C90.8394 14.5137 89.8242 15.1729 89.7012 16.4912L89.688 16.7153C89.688 17.1899 89.855 17.5811 90.189 17.8887C90.5229 18.1963 90.98 18.3501 91.5601 18.3501ZM6.38086 33.8047L10.2964 50.7061L20.105 33.8047H22.2803L18.9448 53H17.3364L18.7998 44.5757L20.3687 36.27L10.5996 53H9.36035L5.37891 36.1382L4.021 44.6548L2.5708 53H0.962402L4.29785 33.8047H6.38086ZM32.2866 53C32.2427 52.666 32.2295 52.332 32.2471 51.998L32.3657 51.0093C31.7065 51.7212 30.9507 52.2793 30.0981 52.6836C29.2544 53.0879 28.3403 53.2812 27.356 53.2637C26.1519 53.2461 25.1719 52.8682 24.416 52.1299C23.6689 51.3828 23.335 50.4468 23.4141 49.3218C23.4844 48.3813 23.8052 47.5684 24.3765 46.8828C24.9565 46.1885 25.7783 45.6523 26.8418 45.2744C27.9053 44.8877 29.0962 44.6943 30.4146 44.6943L33.3281 44.7075L33.5654 43.0728C33.6709 42.0972 33.46 41.3149 32.9326 40.7261C32.4053 40.1372 31.6274 39.8252 30.5991 39.79C29.562 39.7725 28.6567 40.0317 27.8833 40.5679C27.1187 41.0952 26.6396 41.7939 26.4463 42.6641H24.9038C25.0796 41.416 25.7212 40.4009 26.8286 39.6187C27.936 38.8276 29.2456 38.4409 30.7573 38.4585C32.2251 38.4937 33.3545 38.9375 34.1455 39.79C34.9453 40.6426 35.2705 41.75 35.1211 43.1123L33.9346 50.2842L33.8291 51.4312C33.8027 51.9058 33.8379 52.376 33.9346 52.8418L33.9082 53H32.2866ZM27.6196 51.8794C28.5864 51.9146 29.5093 51.686 30.3882 51.1938C31.2759 50.6929 32.0098 49.9854 32.5898 49.0713L33.1304 45.9204L30.6123 45.9072C29.0127 45.9072 27.7075 46.1929 26.6968 46.7642C25.686 47.3267 25.1279 48.1353 25.0225 49.1899C24.9434 49.9634 25.1455 50.6006 25.6289 51.1016C26.1211 51.6025 26.7847 51.8618 27.6196 51.8794ZM39.3267 53H37.7446L41.2646 32.75H42.8467L39.3267 53ZM45.3384 53H43.7563L47.2764 32.75H48.8584L45.3384 53Z" fill="#EAF4FF"/>
</svg>
