<svg width="109" height="19" viewBox="0 0 109 19" fill="none" xmlns="http://www.w3.org/2000/svg">
<path d="M3.67578 10.9736L2.71094 11.9385V15H0.0297852V0.75H2.71094V8.64502L3.23047 7.97705L5.80029 4.96191H9.01953L5.39209 9.146L9.33496 15H6.25488L3.67578 10.9736ZM13.0088 15H10.3184V4.96191H13.0088V15ZM10.1606 2.36426C10.1606 1.96224 10.2936 1.63135 10.5596 1.37158C10.8317 1.11182 11.1997 0.981934 11.6636 0.981934C12.1213 0.981934 12.4862 1.11182 12.7583 1.37158C13.0304 1.63135 13.1665 1.96224 13.1665 2.36426C13.1665 2.77246 13.0273 3.10645 12.749 3.36621C12.4769 3.62598 12.1151 3.75586 11.6636 3.75586C11.2121 3.75586 10.8472 3.62598 10.5688 3.36621C10.2967 3.10645 10.1606 2.77246 10.1606 2.36426ZM18.436 2.49414V4.96191H20.1523V6.92871H18.436V11.9385C18.436 12.3096 18.5072 12.5755 18.6494 12.7363C18.7917 12.8971 19.0638 12.9775 19.4658 12.9775C19.7627 12.9775 20.0256 12.9559 20.2544 12.9126V14.9443C19.7287 15.1051 19.1875 15.1855 18.6309 15.1855C16.7507 15.1855 15.792 14.2362 15.7549 12.3374V6.92871H14.2891V4.96191H15.7549V2.49414H18.436ZM27.4629 15C27.3392 14.7588 27.2495 14.4588 27.1938 14.1001C26.5444 14.8237 25.7002 15.1855 24.6611 15.1855C23.6777 15.1855 22.8613 14.901 22.2119 14.332C21.5687 13.763 21.2471 13.0456 21.2471 12.1797C21.2471 11.1159 21.6398 10.2995 22.4253 9.73047C23.217 9.16146 24.3581 8.87386 25.8486 8.86768H27.0825V8.29248C27.0825 7.82861 26.9619 7.45752 26.7207 7.1792C26.4857 6.90088 26.1115 6.76172 25.5981 6.76172C25.1466 6.76172 24.791 6.86995 24.5312 7.08643C24.2777 7.3029 24.1509 7.59977 24.1509 7.97705H21.4697C21.4697 7.39567 21.6491 6.85758 22.0078 6.36279C22.3665 5.868 22.8737 5.48145 23.5293 5.20312C24.1849 4.91862 24.9209 4.77637 25.7373 4.77637C26.9743 4.77637 27.9546 5.0887 28.6782 5.71338C29.408 6.33187 29.7729 7.20394 29.7729 8.32959V12.6807C29.7791 13.6331 29.9121 14.3537 30.1719 14.8423V15H27.4629ZM25.2456 13.1353C25.6414 13.1353 26.0063 13.0487 26.3403 12.8755C26.6743 12.6961 26.9217 12.458 27.0825 12.1611V10.4355H26.0806C24.7384 10.4355 24.0241 10.8994 23.9375 11.8271L23.9282 11.9849C23.9282 12.3188 24.0457 12.5941 24.2808 12.8105C24.5158 13.027 24.8374 13.1353 25.2456 13.1353ZM40.8687 10.0737C40.8687 11.62 40.5161 12.86 39.811 13.7939C39.1121 14.7217 38.1659 15.1855 36.9722 15.1855C35.9578 15.1855 35.1383 14.833 34.5137 14.1279V18.8594H31.8325V4.96191H34.3188L34.4116 5.94531C35.061 5.16602 35.9084 4.77637 36.9536 4.77637C38.1906 4.77637 39.1523 5.23405 39.8389 6.14941C40.5254 7.06478 40.8687 8.3265 40.8687 9.93457V10.0737ZM38.1875 9.87891C38.1875 8.94499 38.0205 8.22445 37.6865 7.71729C37.3587 7.21012 36.8794 6.95654 36.2485 6.95654C35.4074 6.95654 34.8291 7.27816 34.5137 7.92139V12.0312C34.8415 12.693 35.4259 13.0239 36.2671 13.0239C37.5474 13.0239 38.1875 11.9756 38.1875 9.87891ZM48.5503 13.9795C47.8885 14.7835 46.9731 15.1855 45.8042 15.1855C44.728 15.1855 43.9054 14.8763 43.3364 14.2578C42.7736 13.6393 42.486 12.7332 42.4736 11.5396V4.96191H45.1548V11.4468C45.1548 12.492 45.631 13.0146 46.5835 13.0146C47.4927 13.0146 48.1174 12.6992 48.4575 12.0684V4.96191H51.1479V15H48.6245L48.5503 13.9795ZM58.811 7.47607C58.4461 7.4266 58.1245 7.40186 57.8462 7.40186C56.8319 7.40186 56.167 7.74512 55.8516 8.43164V15H53.1704V4.96191H55.7031L55.7773 6.15869C56.3154 5.23714 57.0607 4.77637 58.0132 4.77637C58.3101 4.77637 58.5884 4.81657 58.8481 4.89697L58.811 7.47607ZM65.6484 15C65.5247 14.7588 65.4351 14.4588 65.3794 14.1001C64.73 14.8237 63.8857 15.1855 62.8467 15.1855C61.8633 15.1855 61.0469 14.901 60.3975 14.332C59.7542 13.763 59.4326 13.0456 59.4326 12.1797C59.4326 11.1159 59.8254 10.2995 60.6108 9.73047C61.4025 9.16146 62.5436 8.87386 64.0342 8.86768H65.2681V8.29248C65.2681 7.82861 65.1475 7.45752 64.9062 7.1792C64.6712 6.90088 64.297 6.76172 63.7837 6.76172C63.3322 6.76172 62.9766 6.86995 62.7168 7.08643C62.4632 7.3029 62.3364 7.59977 62.3364 7.97705H59.6553C59.6553 7.39567 59.8346 6.85758 60.1934 6.36279C60.5521 5.868 61.0592 5.48145 61.7148 5.20312C62.3704 4.91862 63.1064 4.77637 63.9229 4.77637C65.1598 4.77637 66.1401 5.0887 66.8638 5.71338C67.5936 6.33187 67.9585 7.20394 67.9585 8.32959V12.6807C67.9647 13.6331 68.0977 14.3537 68.3574 14.8423V15H65.6484ZM63.4312 13.1353C63.827 13.1353 64.1919 13.0487 64.5259 12.8755C64.8599 12.6961 65.1073 12.458 65.2681 12.1611V10.4355H64.2661C62.924 10.4355 62.2096 10.8994 62.123 11.8271L62.1138 11.9849C62.1138 12.3188 62.2313 12.5941 62.4663 12.8105C62.7013 13.027 63.0229 13.1353 63.4312 13.1353ZM78.21 1.49219L80.9653 13.3857L87.8677 1.49219H89.3984L87.0513 15H85.9194L86.9492 9.07178L88.0532 3.22705L81.1787 15H80.3066L77.5049 3.13428L76.5493 9.12744L75.5288 15H74.397L76.7441 1.49219H78.21ZM96.4399 15C96.409 14.765 96.3997 14.5299 96.4121 14.2949L96.4956 13.5991C96.0317 14.1001 95.4998 14.4928 94.8999 14.7773C94.3062 15.0618 93.6629 15.1979 92.9702 15.1855C92.1229 15.1732 91.4333 14.9072 90.9014 14.3877C90.3757 13.862 90.1406 13.2033 90.1963 12.4116C90.2458 11.7498 90.4715 11.1777 90.8735 10.6953C91.2817 10.2067 91.86 9.82943 92.6084 9.56348C93.3568 9.29134 94.1948 9.15527 95.1226 9.15527L97.1729 9.16455L97.3398 8.01416C97.4141 7.32764 97.2656 6.77718 96.8945 6.36279C96.5234 5.9484 95.9761 5.72884 95.2524 5.7041C94.5226 5.69173 93.8856 5.87419 93.3413 6.25146C92.8032 6.62256 92.4661 7.11426 92.3301 7.72656H91.2446C91.3683 6.84831 91.8198 6.13395 92.5991 5.5835C93.3784 5.02686 94.3 4.75472 95.3638 4.76709C96.3966 4.79183 97.1914 5.10417 97.748 5.7041C98.3109 6.30404 98.5397 7.08333 98.4346 8.04199L97.5996 13.0889L97.5254 13.896C97.5068 14.23 97.5316 14.5609 97.5996 14.8887L97.5811 15H96.4399ZM93.1558 14.2114C93.8361 14.2362 94.4855 14.0754 95.104 13.729C95.7287 13.3765 96.2451 12.8786 96.6533 12.2354L97.0337 10.0181L95.2617 10.0088C94.1361 10.0088 93.2176 10.2098 92.5063 10.6118C91.7951 11.0076 91.4023 11.5767 91.3281 12.3188C91.2725 12.8631 91.4147 13.3115 91.7549 13.6641C92.1012 14.0166 92.5682 14.1991 93.1558 14.2114ZM101.394 15H100.281L102.758 0.75H103.871L101.394 15ZM105.625 15H104.511L106.988 0.75H108.102L105.625 15Z" fill="#1C2645"/>
</svg>
