<svg width="15" height="13" viewBox="0 0 15 13" fill="none" xmlns="http://www.w3.org/2000/svg">
<path d="M5.96134 1.54167L4.54467 2.95833H1.83317V11.4583H13.1665V2.95833H10.455L9.03834 1.54167H5.96134ZM5.37484 0.125H9.62484L11.0415 1.54167H13.8748C14.0627 1.54167 14.2429 1.61629 14.3757 1.74913C14.5085 1.88197 14.5832 2.06214 14.5832 2.25V12.1667C14.5832 12.3545 14.5085 12.5347 14.3757 12.6675C14.2429 12.8004 14.0627 12.875 13.8748 12.875H1.12484C0.936976 12.875 0.756808 12.8004 0.62397 12.6675C0.491132 12.5347 0.416504 12.3545 0.416504 12.1667V2.25C0.416504 2.06214 0.491132 1.88197 0.62397 1.74913C0.756808 1.61629 0.936976 1.54167 1.12484 1.54167H3.95817L5.37484 0.125ZM7.49984 10.75C6.4666 10.75 5.47568 10.3395 4.74507 9.60894C4.01446 8.87833 3.604 7.88741 3.604 6.85417C3.604 5.82093 4.01446 4.83001 4.74507 4.0994C5.47568 3.36879 6.4666 2.95833 7.49984 2.95833C8.53308 2.95833 9.524 3.36879 10.2546 4.0994C10.9852 4.83001 11.3957 5.82093 11.3957 6.85417C11.3957 7.88741 10.9852 8.87833 10.2546 9.60894C9.524 10.3395 8.53308 10.75 7.49984 10.75ZM7.49984 9.33333C8.15735 9.33333 8.78794 9.07214 9.25287 8.6072C9.71781 8.14227 9.979 7.51168 9.979 6.85417C9.979 6.19665 9.71781 5.56606 9.25287 5.10113C8.78794 4.6362 8.15735 4.375 7.49984 4.375C6.84232 4.375 6.21174 4.6362 5.7468 5.10113C5.28187 5.56606 5.02067 6.19665 5.02067 6.85417C5.02067 7.51168 5.28187 8.14227 5.7468 8.6072C6.21174 9.07214 6.84232 9.33333 7.49984 9.33333Z" fill="white"/>
</svg>
