<svg width="54" height="54" viewBox="0 0 54 54" fill="none" xmlns="http://www.w3.org/2000/svg">
<circle cx="27" cy="27" r="27" fill="#A5A5A5"/>
<path d="M23.5135 16.875L20.7635 19.625H15.5V36.125H37.5V19.625H32.2365L29.4865 16.875H23.5135ZM22.375 14.125H30.625L33.375 16.875H38.875C39.2397 16.875 39.5894 17.0199 39.8473 17.2777C40.1051 17.5356 40.25 17.8853 40.25 18.25V37.5C40.25 37.8647 40.1051 38.2144 39.8473 38.4723C39.5894 38.7301 39.2397 38.875 38.875 38.875H14.125C13.7603 38.875 13.4106 38.7301 13.1527 38.4723C12.8949 38.2144 12.75 37.8647 12.75 37.5V18.25C12.75 17.8853 12.8949 17.5356 13.1527 17.2777C13.4106 17.0199 13.7603 16.875 14.125 16.875H19.625L22.375 14.125ZM26.5 34.75C24.4943 34.75 22.5707 33.9532 21.1525 32.535C19.7343 31.1168 18.9375 29.1932 18.9375 27.1875C18.9375 25.1818 19.7343 23.2582 21.1525 21.84C22.5707 20.4218 24.4943 19.625 26.5 19.625C28.5057 19.625 30.4293 20.4218 31.8475 21.84C33.2657 23.2582 34.0625 25.1818 34.0625 27.1875C34.0625 29.1932 33.2657 31.1168 31.8475 32.535C30.4293 33.9532 28.5057 34.75 26.5 34.75ZM26.5 32C27.7764 32 29.0004 31.493 29.9029 30.5905C30.8055 29.6879 31.3125 28.4639 31.3125 27.1875C31.3125 25.9111 30.8055 24.6871 29.9029 23.7845C29.0004 22.882 27.7764 22.375 26.5 22.375C25.2236 22.375 23.9996 22.882 23.097 23.7845C22.1945 24.6871 21.6875 25.9111 21.6875 27.1875C21.6875 28.4639 22.1945 29.6879 23.097 30.5905C23.9996 31.493 25.2236 32 26.5 32V32Z" fill="white"/>
</svg>
