<svg width="19" height="19" viewBox="0 0 19 19" fill="none" xmlns="http://www.w3.org/2000/svg">
<g clip-path="url(#clip0)">
<path d="M0.717133 11.74L3.28753 12.014C3.30365 12.0462 3.31976 12.0785 3.32782 12.1187L1.70017 14.1332C1.44232 14.4555 1.4665 14.9148 1.75657 15.2129L3.78711 17.2434C4.07718 17.5335 4.54453 17.5577 4.86684 17.2998L6.88126 15.6722C6.91349 15.6883 6.94572 15.7044 6.98601 15.7125L7.25997 18.2829C7.30025 18.6938 7.64673 19.0081 8.05768 19.0081H10.9343C11.3452 19.0081 11.6917 18.6938 11.732 18.2829L12.0059 15.7125C12.0382 15.6964 12.0704 15.6802 12.1107 15.6722L14.1251 17.2998C14.4474 17.5577 14.9067 17.5335 15.2048 17.2434L17.2354 15.2129C17.5254 14.9228 17.5496 14.4555 17.2918 14.1332L15.6641 12.1187C15.6802 12.0865 15.6964 12.0543 15.7044 12.014L18.2748 11.74C18.6858 11.6997 19 11.3533 19 10.9423V8.06573C19 7.65479 18.6858 7.30831 18.2748 7.26802L15.7125 6.98601C15.6964 6.95377 15.6802 6.92154 15.6722 6.88126L17.2998 4.86684C17.5577 4.54453 17.5335 4.08524 17.2434 3.78711L15.2129 1.75657C14.9228 1.4665 14.4555 1.44232 14.1332 1.70017L12.1187 3.32782C12.0865 3.31171 12.0543 3.29559 12.014 3.28753L11.74 0.717133C11.6997 0.314249 11.3533 0 10.9423 0H8.06573C7.65479 0 7.30831 0.314249 7.25997 0.717133L6.98601 3.29559C6.95377 3.30365 6.92154 3.31976 6.88931 3.33588L4.87489 1.70823C4.55259 1.45038 4.0933 1.47455 3.80322 1.76463L1.76463 3.80322C1.47455 4.0933 1.45038 4.55259 1.70823 4.87489L3.33588 6.88931C3.31976 6.92154 3.30365 6.95377 3.29559 6.98601L0.717133 7.25997C0.314249 7.30831 0 7.65479 0 8.06573V10.9423C0 11.3533 0.314249 11.6997 0.717133 11.74ZM1.61154 8.79093L3.96438 8.54114C4.28668 8.50891 4.55259 8.29135 4.64928 7.98516C4.72986 7.70314 4.85072 7.42112 4.99576 7.14716C5.14885 6.86514 5.10857 6.51866 4.90712 6.26887L3.41645 4.42366L4.42366 3.41645L6.26887 4.90712C6.51866 5.10857 6.86514 5.1408 7.14716 4.99576C7.42112 4.85072 7.70314 4.72986 7.9771 4.64928C8.28329 4.55259 8.50085 4.28668 8.53308 3.96438L8.79092 1.61154H10.2171L10.4669 3.96438C10.4992 4.28668 10.7248 4.55259 11.0229 4.64928C11.2969 4.73791 11.5789 4.85072 11.8528 4.99576C12.1349 5.14886 12.4813 5.10857 12.7311 4.90712L14.5763 3.41645L15.5835 4.42366L14.0929 6.26887C13.8914 6.51866 13.8592 6.86514 14.0042 7.14716C14.1493 7.42112 14.2621 7.70314 14.3507 7.9771C14.4474 8.28329 14.7133 8.50085 15.0356 8.53308L17.3885 8.78287V10.2091L15.0356 10.4589C14.7133 10.4911 14.4474 10.7167 14.3507 11.0148C14.2621 11.2888 14.1493 11.5708 14.0042 11.8448C13.8592 12.1268 13.8914 12.4733 14.0929 12.7231L15.5835 14.5683L14.5763 15.5755L12.7311 14.0848C12.4813 13.8834 12.1349 13.8511 11.8528 13.9962C11.5789 14.1412 11.2969 14.254 11.0229 14.3427C10.7167 14.4394 10.4992 14.7053 10.4669 15.0276L10.2171 17.3804H8.79092L8.54114 15.0276C8.50891 14.7053 8.29135 14.4394 7.98516 14.3427C7.7112 14.254 7.42918 14.1412 7.15522 13.9962C6.8732 13.8511 6.52672 13.8834 6.27693 14.0848L4.43172 15.5755L3.42451 14.5683L4.91518 12.7231C5.11662 12.4733 5.14886 12.1268 5.00382 11.8448C4.85878 11.5708 4.74597 11.2888 4.65734 11.0148C4.56064 10.7087 4.29474 10.4911 3.97243 10.4589L1.61154 10.2171V8.79093Z" fill="white"/>
<path d="M9.50015 12.554C11.1842 12.554 12.554 11.1842 12.554 9.50015C12.554 7.81609 11.1842 6.44629 9.50015 6.44629C7.81609 6.44629 6.44629 7.81609 6.44629 9.50015C6.44629 11.1842 7.81609 12.554 9.50015 12.554ZM9.50015 8.05782C10.2979 8.05782 10.9425 8.70244 10.9425 9.50015C10.9425 10.2979 10.2979 10.9425 9.50015 10.9425C8.70244 10.9425 8.05782 10.2979 8.05782 9.50015C8.05782 8.70244 8.7105 8.05782 9.50015 8.05782Z" fill="white"/>
</g>
<defs>
<clipPath id="clip0">
<rect width="19" height="19" fill="white"/>
</clipPath>
</defs>
</svg>
