<svg width="26" height="26" viewBox="0 0 26 26" fill="none" xmlns="http://www.w3.org/2000/svg">
<path d="M2.51843 13.9507V24.9666C2.51843 25.2407 2.62585 25.5035 2.81707 25.6973C3.00828 25.8911 3.26762 26 3.53804 26H22.462C22.7324 26 22.9917 25.8911 23.1829 25.6973C23.3741 25.5035 23.4816 25.2407 23.4816 24.9666V13.9507C24.222 13.6565 24.858 13.1434 25.3071 12.4782C25.7562 11.813 25.9976 11.0262 26 10.2202V9.64149C25.9969 9.52436 25.9727 9.40879 25.9286 9.30048L23.8894 4.13354V1.03339C23.8894 0.759315 23.782 0.496469 23.5908 0.302672C23.3996 0.108874 23.1402 0 22.8698 0H3.1302C2.85978 0 2.60044 0.108874 2.40922 0.302672C2.21801 0.496469 2.11059 0.759315 2.11059 1.03339V4.13354L0.0713725 9.30048C0.0272689 9.40879 0.00308028 9.52436 0 9.64149V10.2202C0.0023649 11.0262 0.243766 11.813 0.692862 12.4782C1.14196 13.1434 1.77801 13.6565 2.51843 13.9507ZM3.82353 5.32194H22.1765L23.4714 8.63911H2.52863L3.82353 5.32194ZM17.9043 10.7059C17.7989 11.1222 17.5609 11.4916 17.2272 11.7569C16.8936 12.0223 16.4829 12.1686 16.0588 12.1733H15.9671C15.5395 12.1731 15.1241 12.0289 14.7863 11.7632C14.4485 11.4976 14.2075 11.1256 14.1012 10.7059H17.9043ZM11.9192 10.7059C11.8129 11.1256 11.5719 11.4976 11.2341 11.7632C10.8963 12.0289 10.4809 12.1731 10.0533 12.1733H9.94118C9.51361 12.1731 9.09824 12.0289 8.76045 11.7632C8.42265 11.4976 8.18162 11.1256 8.07529 10.7059H11.9192ZM5.93412 10.7059C5.82467 11.1239 5.5828 11.4939 5.2457 11.759C4.90859 12.0241 4.49491 12.1696 4.06824 12.1733H3.97647C3.54891 12.1731 3.13354 12.0289 2.79574 11.7632C2.45795 11.4976 2.21691 11.1256 2.11059 10.7059H5.93412ZM12.4698 23.9332V19.19H17.262V23.9642L12.4698 23.9332ZM19.3012 23.9332V18.1566C19.3012 17.8825 19.1938 17.6197 19.0025 17.4259C18.8113 17.2321 18.552 17.1232 18.2816 17.1232H11.4502C11.1798 17.1232 10.9204 17.2321 10.7292 17.4259C10.538 17.6197 10.4306 17.8825 10.4306 18.1566V23.9642H4.55765V14.1884C5.50462 14.0681 6.37706 13.6058 7.0149 12.8863C7.38109 13.3081 7.83107 13.6467 8.33535 13.88C8.83964 14.1133 9.38686 14.236 9.94118 14.2401H10.0329C10.5941 14.2419 11.1492 14.122 11.661 13.8885C12.1727 13.655 12.6293 13.3133 13 12.8863C13.3685 13.3107 13.8217 13.6509 14.3297 13.8843C14.8378 14.1176 15.3889 14.2389 15.9467 14.2401H16.0588C16.6166 14.2389 17.1677 14.1176 17.6758 13.8843C18.1838 13.6509 18.637 13.3107 19.0055 12.8863C19.6433 13.6058 20.5158 14.0681 21.4627 14.1884V23.9332H19.3012ZM22.0235 12.1733H21.9318C21.5051 12.1696 21.0914 12.0241 20.7543 11.759C20.4172 11.4939 20.1753 11.1239 20.0659 10.7059H23.8894C23.7831 11.1256 23.5421 11.4976 23.2043 11.7632C22.8665 12.0289 22.4511 12.1731 22.0235 12.1733ZM4.1498 2.0461H21.8604V3.25517H4.1498V2.0461Z" fill="white"/>
</svg>
