<svg width="40" height="40" viewBox="0 0 40 40" fill="none" xmlns="http://www.w3.org/2000/svg">
<path d="M19.9997 36.6668C10.7947 36.6668 3.33301 29.2052 3.33301 20.0002C3.33301 10.7952 10.7947 3.3335 19.9997 3.3335C29.2047 3.3335 36.6663 10.7952 36.6663 20.0002C36.6663 29.2052 29.2047 36.6668 19.9997 36.6668ZM19.9997 33.3335C23.5359 33.3335 26.9273 31.9287 29.4278 29.4283C31.9283 26.9278 33.333 23.5364 33.333 20.0002C33.333 16.4639 31.9283 13.0726 29.4278 10.5721C26.9273 8.07159 23.5359 6.66683 19.9997 6.66683C16.4635 6.66683 13.0721 8.07159 10.5716 10.5721C8.0711 13.0726 6.66634 16.4639 6.66634 20.0002C6.66634 23.5364 8.0711 26.9278 10.5716 29.4283C13.0721 31.9287 16.4635 33.3335 19.9997 33.3335Z" fill="white"/>
<path d="M24.5119 15.1222H28.7802V16.8295H27.0729V27.927C27.0729 28.1534 26.9829 28.3706 26.8229 28.5307C26.6628 28.6908 26.4456 28.7807 26.2192 28.7807H14.268C14.0416 28.7807 13.8245 28.6908 13.6644 28.5307C13.5043 28.3706 13.4143 28.1534 13.4143 27.927V16.8295H11.707V15.1222H15.9753V12.5612C15.9753 12.3348 16.0653 12.1176 16.2254 11.9576C16.3854 11.7975 16.6026 11.7075 16.829 11.7075H23.6582C23.8847 11.7075 24.1018 11.7975 24.2619 11.9576C24.422 12.1176 24.5119 12.3348 24.5119 12.5612V15.1222ZM25.3656 16.8295H15.1217V27.0734H25.3656V16.8295ZM17.6826 19.3904H19.39V24.5124H17.6826V19.3904ZM21.0973 19.3904H22.8046V24.5124H21.0973V19.3904ZM17.6826 13.4148V15.1222H22.8046V13.4148H17.6826Z" fill="white"/>
</svg>
