<svg width="399" height="98" viewBox="0 0 399 98" fill="none" xmlns="http://www.w3.org/2000/svg">
<g filter="url(#filter0_d)">
<rect x="11" y="11" width="369" height="68" rx="6" fill="url(#paint0_radial)"/>
</g>
<path d="M132.277 49.4844H126.113L124.941 53H121.203L127.555 35.9375H130.812L137.199 53H133.461L132.277 49.4844ZM127.062 46.6367H131.328L129.184 40.25L127.062 46.6367ZM145.695 43.4961C145.234 43.4336 144.828 43.4023 144.477 43.4023C143.195 43.4023 142.355 43.8359 141.957 44.7031V53H138.57V40.3203H141.77L141.863 41.832C142.543 40.668 143.484 40.0859 144.688 40.0859C145.062 40.0859 145.414 40.1367 145.742 40.2383L145.695 43.4961ZM154.203 49.4961C154.203 49.082 153.996 48.7578 153.582 48.5234C153.176 48.2812 152.52 48.0664 151.613 47.8789C148.598 47.2461 147.09 45.9648 147.09 44.0352C147.09 42.9102 147.555 41.9727 148.484 41.2227C149.422 40.4648 150.645 40.0859 152.152 40.0859C153.762 40.0859 155.047 40.4648 156.008 41.2227C156.977 41.9805 157.461 42.9648 157.461 44.1758H154.074C154.074 43.6914 153.918 43.293 153.605 42.9805C153.293 42.6602 152.805 42.5 152.141 42.5C151.57 42.5 151.129 42.6289 150.816 42.8867C150.504 43.1445 150.348 43.4727 150.348 43.8711C150.348 44.2461 150.523 44.5508 150.875 44.7852C151.234 45.0117 151.836 45.2109 152.68 45.3828C153.523 45.5469 154.234 45.7344 154.812 45.9453C156.602 46.6016 157.496 47.7383 157.496 49.3555C157.496 50.5117 157 51.4492 156.008 52.168C155.016 52.8789 153.734 53.2344 152.164 53.2344C151.102 53.2344 150.156 53.0469 149.328 52.6719C148.508 52.2891 147.863 51.7695 147.395 51.1133C146.926 50.4492 146.691 49.7344 146.691 48.9688H149.902C149.934 49.5703 150.156 50.0312 150.57 50.3516C150.984 50.6719 151.539 50.832 152.234 50.832C152.883 50.832 153.371 50.7109 153.699 50.4688C154.035 50.2188 154.203 49.8945 154.203 49.4961ZM163.262 53H159.863V40.3203H163.262V53ZM159.664 37.0391C159.664 36.5312 159.832 36.1133 160.168 35.7852C160.512 35.457 160.977 35.293 161.562 35.293C162.141 35.293 162.602 35.457 162.945 35.7852C163.289 36.1133 163.461 36.5312 163.461 37.0391C163.461 37.5547 163.285 37.9766 162.934 38.3047C162.59 38.6328 162.133 38.7969 161.562 38.7969C160.992 38.7969 160.531 38.6328 160.18 38.3047C159.836 37.9766 159.664 37.5547 159.664 37.0391ZM177.477 46.7773C177.477 48.7305 177.031 50.2969 176.141 51.4766C175.258 52.6484 174.062 53.2344 172.555 53.2344C171.273 53.2344 170.238 52.7891 169.449 51.8984V57.875H166.062V40.3203H169.203L169.32 41.5625C170.141 40.5781 171.211 40.0859 172.531 40.0859C174.094 40.0859 175.309 40.6641 176.176 41.8203C177.043 42.9766 177.477 44.5703 177.477 46.6016V46.7773ZM174.09 46.5312C174.09 45.3516 173.879 44.4414 173.457 43.8008C173.043 43.1602 172.438 42.8398 171.641 42.8398C170.578 42.8398 169.848 43.2461 169.449 44.0586V49.25C169.863 50.0859 170.602 50.5039 171.664 50.5039C173.281 50.5039 174.09 49.1797 174.09 46.5312ZM185.785 53V35.9375H191.035C192.535 35.9375 193.875 36.2773 195.055 36.957C196.242 37.6289 197.168 38.5898 197.832 39.8398C198.496 41.082 198.828 42.4961 198.828 44.082V44.8672C198.828 46.4531 198.5 47.8633 197.844 49.0977C197.195 50.332 196.277 51.2891 195.09 51.9688C193.902 52.6484 192.562 52.9922 191.07 53H185.785ZM189.301 38.7852V50.1758H191C192.375 50.1758 193.426 49.7266 194.152 48.8281C194.879 47.9297 195.25 46.6445 195.266 44.9727V44.0703C195.266 42.3359 194.906 41.0234 194.188 40.1328C193.469 39.2344 192.418 38.7852 191.035 38.7852H189.301ZM200.645 46.543C200.645 45.2852 200.887 44.1641 201.371 43.1797C201.855 42.1953 202.551 41.4336 203.457 40.8945C204.371 40.3555 205.43 40.0859 206.633 40.0859C208.344 40.0859 209.738 40.6094 210.816 41.6562C211.902 42.7031 212.508 44.125 212.633 45.9219L212.656 46.7891C212.656 48.7344 212.113 50.2969 211.027 51.4766C209.941 52.6484 208.484 53.2344 206.656 53.2344C204.828 53.2344 203.367 52.6484 202.273 51.4766C201.188 50.3047 200.645 48.7109 200.645 46.6953V46.543ZM204.031 46.7891C204.031 47.9922 204.258 48.9141 204.711 49.5547C205.164 50.1875 205.812 50.5039 206.656 50.5039C207.477 50.5039 208.117 50.1914 208.578 49.5664C209.039 48.9336 209.27 47.9258 209.27 46.543C209.27 45.3633 209.039 44.4492 208.578 43.8008C208.117 43.1523 207.469 42.8281 206.633 42.8281C205.805 42.8281 205.164 43.1523 204.711 43.8008C204.258 44.4414 204.031 45.4375 204.031 46.7891ZM225.77 48.3945L227.434 40.3203H230.703L227.469 53H224.633L222.23 45.0195L219.828 53H217.004L213.77 40.3203H217.039L218.691 48.3828L221.012 40.3203H223.461L225.77 48.3945ZM235.508 40.3203L235.613 41.7852C236.52 40.6523 237.734 40.0859 239.258 40.0859C240.602 40.0859 241.602 40.4805 242.258 41.2695C242.914 42.0586 243.25 43.2383 243.266 44.8086V53H239.879V44.8906C239.879 44.1719 239.723 43.6523 239.41 43.332C239.098 43.0039 238.578 42.8398 237.852 42.8398C236.898 42.8398 236.184 43.2461 235.707 44.0586V53H232.32V40.3203H235.508ZM249.418 53H246.02V35H249.418V53ZM251.691 46.543C251.691 45.2852 251.934 44.1641 252.418 43.1797C252.902 42.1953 253.598 41.4336 254.504 40.8945C255.418 40.3555 256.477 40.0859 257.68 40.0859C259.391 40.0859 260.785 40.6094 261.863 41.6562C262.949 42.7031 263.555 44.125 263.68 45.9219L263.703 46.7891C263.703 48.7344 263.16 50.2969 262.074 51.4766C260.988 52.6484 259.531 53.2344 257.703 53.2344C255.875 53.2344 254.414 52.6484 253.32 51.4766C252.234 50.3047 251.691 48.7109 251.691 46.6953V46.543ZM255.078 46.7891C255.078 47.9922 255.305 48.9141 255.758 49.5547C256.211 50.1875 256.859 50.5039 257.703 50.5039C258.523 50.5039 259.164 50.1914 259.625 49.5664C260.086 48.9336 260.316 47.9258 260.316 46.543C260.316 45.3633 260.086 44.4492 259.625 43.8008C259.164 43.1523 258.516 42.8281 257.68 42.8281C256.852 42.8281 256.211 43.1523 255.758 43.8008C255.305 44.4414 255.078 45.4375 255.078 46.7891ZM273.137 53C272.98 52.6953 272.867 52.3164 272.797 51.8633C271.977 52.7773 270.91 53.2344 269.598 53.2344C268.355 53.2344 267.324 52.875 266.504 52.1562C265.691 51.4375 265.285 50.5312 265.285 49.4375C265.285 48.0938 265.781 47.0625 266.773 46.3438C267.773 45.625 269.215 45.2617 271.098 45.2539H272.656V44.5273C272.656 43.9414 272.504 43.4727 272.199 43.1211C271.902 42.7695 271.43 42.5938 270.781 42.5938C270.211 42.5938 269.762 42.7305 269.434 43.0039C269.113 43.2773 268.953 43.6523 268.953 44.1289H265.566C265.566 43.3945 265.793 42.7148 266.246 42.0898C266.699 41.4648 267.34 40.9766 268.168 40.625C268.996 40.2656 269.926 40.0859 270.957 40.0859C272.52 40.0859 273.758 40.4805 274.672 41.2695C275.594 42.0508 276.055 43.1523 276.055 44.5742V50.0703C276.062 51.2734 276.23 52.1836 276.559 52.8008V53H273.137ZM270.336 50.6445C270.836 50.6445 271.297 50.5352 271.719 50.3164C272.141 50.0898 272.453 49.7891 272.656 49.4141V47.2344H271.391C269.695 47.2344 268.793 47.8203 268.684 48.9922L268.672 49.1914C268.672 49.6133 268.82 49.9609 269.117 50.2344C269.414 50.5078 269.82 50.6445 270.336 50.6445ZM278.129 46.5664C278.129 44.5898 278.57 43.0156 279.453 41.8438C280.344 40.6719 281.559 40.0859 283.098 40.0859C284.332 40.0859 285.352 40.5469 286.156 41.4688V35H289.555V53H286.496L286.332 51.6523C285.488 52.707 284.402 53.2344 283.074 53.2344C281.582 53.2344 280.383 52.6484 279.477 51.4766C278.578 50.2969 278.129 48.6602 278.129 46.5664ZM281.516 46.8125C281.516 48 281.723 48.9102 282.137 49.543C282.551 50.1758 283.152 50.4922 283.941 50.4922C284.988 50.4922 285.727 50.0508 286.156 49.168V44.1641C285.734 43.2812 285.004 42.8398 283.965 42.8398C282.332 42.8398 281.516 44.1641 281.516 46.8125Z" fill="white"/>
<path d="M58 36H74L76 40V53C76 53.2652 75.8946 53.5196 75.7071 53.7071C75.5196 53.8946 75.2652 54 75 54H57C56.7348 54 56.4804 53.8946 56.2929 53.7071C56.1054 53.5196 56 53.2652 56 53V40.004L58 36ZM67 47V43H65V47H62L66 51L70 47H67ZM73.764 40L72.764 38H59.237L58.237 40H73.764Z" fill="white"/>
<defs>
<filter id="filter0_d" x="0" y="0" width="399" height="98" filterUnits="userSpaceOnUse" color-interpolation-filters="sRGB">
<feFlood flood-opacity="0" result="BackgroundImageFix"/>
<feColorMatrix in="SourceAlpha" type="matrix" values="0 0 0 0 0 0 0 0 0 0 0 0 0 0 0 0 0 0 127 0"/>
<feOffset dx="4" dy="4"/>
<feGaussianBlur stdDeviation="7.5"/>
<feColorMatrix type="matrix" values="0 0 0 0 0 0 0 0 0 0 0 0 0 0 0 0 0 0 0.78 0"/>
<feBlend mode="normal" in2="BackgroundImageFix" result="effect1_dropShadow"/>
<feBlend mode="normal" in="SourceGraphic" in2="effect1_dropShadow" result="shape"/>
</filter>
<radialGradient id="paint0_radial" cx="0" cy="0" r="1" gradientUnits="userSpaceOnUse" gradientTransform="translate(-16.3832 105.297) rotate(-13.0906) scale(394.054 819.976)">
<stop stop-color="#232323"/>
<stop offset="0.427083" stop-color="#353535"/>
<stop offset="0.776042" stop-color="#1C1C1D"/>
<stop offset="1" stop-color="#252526"/>
</radialGradient>
</defs>
</svg>
