<svg width="399" height="98" viewBox="0 0 399 98" fill="none" xmlns="http://www.w3.org/2000/svg">
<g filter="url(#filter0_d)">
<rect x="11" y="11" width="369" height="68" rx="6" fill="url(#paint0_radial)"/>
</g>
<path d="M158.461 51.4844H152.297L151.125 55H147.387L153.738 37.9375H156.996L163.383 55H159.645L158.461 51.4844ZM153.246 48.6367H157.512L155.367 42.25L153.246 48.6367ZM168.598 39.2031V42.3203H170.766V44.8047H168.598V51.1328C168.598 51.6016 168.688 51.9375 168.867 52.1406C169.047 52.3438 169.391 52.4453 169.898 52.4453C170.273 52.4453 170.605 52.418 170.895 52.3633V54.9297C170.23 55.1328 169.547 55.2344 168.844 55.2344C166.469 55.2344 165.258 54.0352 165.211 51.6367V44.8047H163.359V42.3203H165.211V39.2031H168.598ZM180.246 53.7109C179.41 54.7266 178.254 55.2344 176.777 55.2344C175.418 55.2344 174.379 54.8438 173.66 54.0625C172.949 53.2812 172.586 52.1367 172.57 50.6289V42.3203H175.957V50.5117C175.957 51.832 176.559 52.4922 177.762 52.4922C178.91 52.4922 179.699 52.0938 180.129 51.2969V42.3203H183.527V55H180.34L180.246 53.7109ZM193.207 45.4961C192.746 45.4336 192.34 45.4023 191.988 45.4023C190.707 45.4023 189.867 45.8359 189.469 46.7031V55H186.082V42.3203H189.281L189.375 43.832C190.055 42.668 190.996 42.0859 192.199 42.0859C192.574 42.0859 192.926 42.1367 193.254 42.2383L193.207 45.4961ZM201.047 55V37.9375H207.023C209.094 37.9375 210.664 38.3359 211.734 39.1328C212.805 39.9219 213.34 41.082 213.34 42.6133C213.34 43.4492 213.125 44.1875 212.695 44.8281C212.266 45.4609 211.668 45.9258 210.902 46.2227C211.777 46.4414 212.465 46.8828 212.965 47.5469C213.473 48.2109 213.727 49.0234 213.727 49.9844C213.727 51.625 213.203 52.8672 212.156 53.7109C211.109 54.5547 209.617 54.9844 207.68 55H201.047ZM204.562 47.5703V52.1758H207.574C208.402 52.1758 209.047 51.9805 209.508 51.5898C209.977 51.1914 210.211 50.6445 210.211 49.9492C210.211 48.3867 209.402 47.5938 207.785 47.5703H204.562ZM204.562 45.0859H207.164C208.938 45.0547 209.824 44.3477 209.824 42.9648C209.824 42.1914 209.598 41.6367 209.145 41.3008C208.699 40.957 207.992 40.7852 207.023 40.7852H204.562V45.0859ZM223.5 55C223.344 54.6953 223.23 54.3164 223.16 53.8633C222.34 54.7773 221.273 55.2344 219.961 55.2344C218.719 55.2344 217.688 54.875 216.867 54.1562C216.055 53.4375 215.648 52.5312 215.648 51.4375C215.648 50.0938 216.145 49.0625 217.137 48.3438C218.137 47.625 219.578 47.2617 221.461 47.2539H223.02V46.5273C223.02 45.9414 222.867 45.4727 222.562 45.1211C222.266 44.7695 221.793 44.5938 221.145 44.5938C220.574 44.5938 220.125 44.7305 219.797 45.0039C219.477 45.2773 219.316 45.6523 219.316 46.1289H215.93C215.93 45.3945 216.156 44.7148 216.609 44.0898C217.062 43.4648 217.703 42.9766 218.531 42.625C219.359 42.2656 220.289 42.0859 221.32 42.0859C222.883 42.0859 224.121 42.4805 225.035 43.2695C225.957 44.0508 226.418 45.1523 226.418 46.5742V52.0703C226.426 53.2734 226.594 54.1836 226.922 54.8008V55H223.5ZM220.699 52.6445C221.199 52.6445 221.66 52.5352 222.082 52.3164C222.504 52.0898 222.816 51.7891 223.02 51.4141V49.2344H221.754C220.059 49.2344 219.156 49.8203 219.047 50.9922L219.035 51.1914C219.035 51.6133 219.184 51.9609 219.48 52.2344C219.777 52.5078 220.184 52.6445 220.699 52.6445ZM232.137 42.3203L232.242 43.7852C233.148 42.6523 234.363 42.0859 235.887 42.0859C237.23 42.0859 238.23 42.4805 238.887 43.2695C239.543 44.0586 239.879 45.2383 239.895 46.8086V55H236.508V46.8906C236.508 46.1719 236.352 45.6523 236.039 45.332C235.727 45.0039 235.207 44.8398 234.48 44.8398C233.527 44.8398 232.812 45.2461 232.336 46.0586V55H228.949V42.3203H232.137ZM241.945 48.5664C241.945 46.5898 242.387 45.0156 243.27 43.8438C244.16 42.6719 245.375 42.0859 246.914 42.0859C248.148 42.0859 249.168 42.5469 249.973 43.4688V37H253.371V55H250.312L250.148 53.6523C249.305 54.707 248.219 55.2344 246.891 55.2344C245.398 55.2344 244.199 54.6484 243.293 53.4766C242.395 52.2969 241.945 50.6602 241.945 48.5664ZM245.332 48.8125C245.332 50 245.539 50.9102 245.953 51.543C246.367 52.1758 246.969 52.4922 247.758 52.4922C248.805 52.4922 249.543 52.0508 249.973 51.168V46.1641C249.551 45.2812 248.82 44.8398 247.781 44.8398C246.148 44.8398 245.332 46.1641 245.332 48.8125Z" fill="white"/>
<path d="M51.0207 49.3088C50.7665 47.7798 50.7665 46.2194 51.0207 44.6904C52.5818 44.7273 53.9843 43.9793 54.5297 42.6632C55.0752 41.3457 54.6119 39.8242 53.4814 38.7489C54.383 37.4871 55.4868 36.3828 56.7482 35.4807C57.8249 36.6112 59.3464 37.0744 60.6639 36.529C61.9814 35.9836 62.728 34.5797 62.6897 33.0199C64.2196 32.7655 65.781 32.7655 67.3109 33.0199C67.2727 34.5811 68.0207 35.9836 69.3367 36.529C70.6542 37.0744 72.1757 36.6112 73.251 35.4807C74.5128 36.3823 75.6171 37.4861 76.5192 38.7475C75.3887 39.8242 74.9255 41.3457 75.4709 42.6632C76.0163 43.9807 77.4202 44.7273 78.98 44.689C79.2344 46.2189 79.2344 47.7803 78.98 49.3102C77.4188 49.2719 76.0163 50.0199 75.4709 51.336C74.9255 52.6535 75.3887 54.175 76.5192 55.2503C75.6177 56.5121 74.5139 57.6164 73.2524 58.5185C72.1757 57.388 70.6542 56.9248 69.3367 57.4702C68.0192 58.0156 67.2727 59.4195 67.3109 60.9793C65.781 61.2337 64.2196 61.2337 62.6897 60.9793C62.728 59.4181 61.98 58.0156 60.6639 57.4702C59.3464 56.9248 57.8249 57.388 56.7497 58.5185C55.4878 57.6169 54.3835 56.5131 53.4814 55.2517C54.6119 54.175 55.0752 52.6535 54.5297 51.336C53.9843 50.0185 52.5804 49.2719 51.0207 49.3102V49.3088ZM65.0003 51.2496C66.1275 51.2496 67.2085 50.8018 68.0055 50.0048C68.8026 49.2078 69.2503 48.1268 69.2503 46.9996C69.2503 45.8724 68.8026 44.7914 68.0055 43.9944C67.2085 43.1974 66.1275 42.7496 65.0003 42.7496C63.8732 42.7496 62.7922 43.1974 61.9951 43.9944C61.1981 44.7914 60.7503 45.8724 60.7503 46.9996C60.7503 48.1268 61.1981 49.2078 61.9951 50.0048C62.7922 50.8018 63.8732 51.2496 65.0003 51.2496Z" fill="white"/>
<defs>
<filter id="filter0_d" x="0" y="0" width="399" height="98" filterUnits="userSpaceOnUse" color-interpolation-filters="sRGB">
<feFlood flood-opacity="0" result="BackgroundImageFix"/>
<feColorMatrix in="SourceAlpha" type="matrix" values="0 0 0 0 0 0 0 0 0 0 0 0 0 0 0 0 0 0 127 0"/>
<feOffset dx="4" dy="4"/>
<feGaussianBlur stdDeviation="7.5"/>
<feColorMatrix type="matrix" values="0 0 0 0 0 0 0 0 0 0 0 0 0 0 0 0 0 0 0.78 0"/>
<feBlend mode="normal" in2="BackgroundImageFix" result="effect1_dropShadow"/>
<feBlend mode="normal" in="SourceGraphic" in2="effect1_dropShadow" result="shape"/>
</filter>
<radialGradient id="paint0_radial" cx="0" cy="0" r="1" gradientUnits="userSpaceOnUse" gradientTransform="translate(-16.3832 105.297) rotate(-13.0906) scale(394.054 819.976)">
<stop stop-color="#232323"/>
<stop offset="0.427083" stop-color="#353535"/>
<stop offset="0.776042" stop-color="#1C1C1D"/>
<stop offset="1" stop-color="#252526"/>
</radialGradient>
</defs>
</svg>
