<svg width="399" height="98" viewBox="0 0 399 98" fill="none" xmlns="http://www.w3.org/2000/svg">
<g filter="url(#filter0_d)">
<rect x="11" y="11" width="369" height="68" rx="6" fill="url(#paint0_radial)"/>
</g>
<path d="M129.078 46.1562L127.25 48.125V53H123.734V35.9375H127.25V43.6719L128.797 41.5508L133.145 35.9375H137.469L131.41 43.5195L137.645 53H133.461L129.078 46.1562ZM137.891 46.543C137.891 45.2852 138.133 44.1641 138.617 43.1797C139.102 42.1953 139.797 41.4336 140.703 40.8945C141.617 40.3555 142.676 40.0859 143.879 40.0859C145.59 40.0859 146.984 40.6094 148.062 41.6562C149.148 42.7031 149.754 44.125 149.879 45.9219L149.902 46.7891C149.902 48.7344 149.359 50.2969 148.273 51.4766C147.188 52.6484 145.73 53.2344 143.902 53.2344C142.074 53.2344 140.613 52.6484 139.52 51.4766C138.434 50.3047 137.891 48.7109 137.891 46.6953V46.543ZM141.277 46.7891C141.277 47.9922 141.504 48.9141 141.957 49.5547C142.41 50.1875 143.059 50.5039 143.902 50.5039C144.723 50.5039 145.363 50.1914 145.824 49.5664C146.285 48.9336 146.516 47.9258 146.516 46.543C146.516 45.3633 146.285 44.4492 145.824 43.8008C145.363 43.1523 144.715 42.8281 143.879 42.8281C143.051 42.8281 142.41 43.1523 141.957 43.8008C141.504 44.4414 141.277 45.4375 141.277 46.7891ZM151.461 46.5664C151.461 44.5898 151.902 43.0156 152.785 41.8438C153.676 40.6719 154.891 40.0859 156.43 40.0859C157.664 40.0859 158.684 40.5469 159.488 41.4688V35H162.887V53H159.828L159.664 51.6523C158.82 52.707 157.734 53.2344 156.406 53.2344C154.914 53.2344 153.715 52.6484 152.809 51.4766C151.91 50.2969 151.461 48.6602 151.461 46.5664ZM154.848 46.8125C154.848 48 155.055 48.9102 155.469 49.543C155.883 50.1758 156.484 50.4922 157.273 50.4922C158.32 50.4922 159.059 50.0508 159.488 49.168V44.1641C159.066 43.2812 158.336 42.8398 157.297 42.8398C155.664 42.8398 154.848 44.1641 154.848 46.8125ZM171.348 53.2344C169.488 53.2344 167.973 52.6641 166.801 51.5234C165.637 50.3828 165.055 48.8633 165.055 46.9648V46.6367C165.055 45.3633 165.301 44.2266 165.793 43.2266C166.285 42.2188 166.98 41.4453 167.879 40.9062C168.785 40.3594 169.816 40.0859 170.973 40.0859C172.707 40.0859 174.07 40.6328 175.062 41.7266C176.062 42.8203 176.562 44.3711 176.562 46.3789V47.7617H168.488C168.598 48.5898 168.926 49.2539 169.473 49.7539C170.027 50.2539 170.727 50.5039 171.57 50.5039C172.875 50.5039 173.895 50.0312 174.629 49.0859L176.293 50.9492C175.785 51.668 175.098 52.2305 174.23 52.6367C173.363 53.0352 172.402 53.2344 171.348 53.2344ZM170.961 42.8281C170.289 42.8281 169.742 43.0547 169.32 43.5078C168.906 43.9609 168.641 44.6094 168.523 45.4531H173.234V45.1836C173.219 44.4336 173.016 43.8555 172.625 43.4492C172.234 43.0352 171.68 42.8281 170.961 42.8281ZM184.695 53V35.9375H189.945C191.445 35.9375 192.785 36.2773 193.965 36.957C195.152 37.6289 196.078 38.5898 196.742 39.8398C197.406 41.082 197.738 42.4961 197.738 44.082V44.8672C197.738 46.4531 197.41 47.8633 196.754 49.0977C196.105 50.332 195.188 51.2891 194 51.9688C192.812 52.6484 191.473 52.9922 189.98 53H184.695ZM188.211 38.7852V50.1758H189.91C191.285 50.1758 192.336 49.7266 193.062 48.8281C193.789 47.9297 194.16 46.6445 194.176 44.9727V44.0703C194.176 42.3359 193.816 41.0234 193.098 40.1328C192.379 39.2344 191.328 38.7852 189.945 38.7852H188.211ZM199.555 46.543C199.555 45.2852 199.797 44.1641 200.281 43.1797C200.766 42.1953 201.461 41.4336 202.367 40.8945C203.281 40.3555 204.34 40.0859 205.543 40.0859C207.254 40.0859 208.648 40.6094 209.727 41.6562C210.812 42.7031 211.418 44.125 211.543 45.9219L211.566 46.7891C211.566 48.7344 211.023 50.2969 209.938 51.4766C208.852 52.6484 207.395 53.2344 205.566 53.2344C203.738 53.2344 202.277 52.6484 201.184 51.4766C200.098 50.3047 199.555 48.7109 199.555 46.6953V46.543ZM202.941 46.7891C202.941 47.9922 203.168 48.9141 203.621 49.5547C204.074 50.1875 204.723 50.5039 205.566 50.5039C206.387 50.5039 207.027 50.1914 207.488 49.5664C207.949 48.9336 208.18 47.9258 208.18 46.543C208.18 45.3633 207.949 44.4492 207.488 43.8008C207.027 43.1523 206.379 42.8281 205.543 42.8281C204.715 42.8281 204.074 43.1523 203.621 43.8008C203.168 44.4414 202.941 45.4375 202.941 46.7891ZM224.68 48.3945L226.344 40.3203H229.613L226.379 53H223.543L221.141 45.0195L218.738 53H215.914L212.68 40.3203H215.949L217.602 48.3828L219.922 40.3203H222.371L224.68 48.3945ZM234.418 40.3203L234.523 41.7852C235.43 40.6523 236.645 40.0859 238.168 40.0859C239.512 40.0859 240.512 40.4805 241.168 41.2695C241.824 42.0586 242.16 43.2383 242.176 44.8086V53H238.789V44.8906C238.789 44.1719 238.633 43.6523 238.32 43.332C238.008 43.0039 237.488 42.8398 236.762 42.8398C235.809 42.8398 235.094 43.2461 234.617 44.0586V53H231.23V40.3203H234.418ZM248.328 53H244.93V35H248.328V53ZM250.602 46.543C250.602 45.2852 250.844 44.1641 251.328 43.1797C251.812 42.1953 252.508 41.4336 253.414 40.8945C254.328 40.3555 255.387 40.0859 256.59 40.0859C258.301 40.0859 259.695 40.6094 260.773 41.6562C261.859 42.7031 262.465 44.125 262.59 45.9219L262.613 46.7891C262.613 48.7344 262.07 50.2969 260.984 51.4766C259.898 52.6484 258.441 53.2344 256.613 53.2344C254.785 53.2344 253.324 52.6484 252.23 51.4766C251.145 50.3047 250.602 48.7109 250.602 46.6953V46.543ZM253.988 46.7891C253.988 47.9922 254.215 48.9141 254.668 49.5547C255.121 50.1875 255.77 50.5039 256.613 50.5039C257.434 50.5039 258.074 50.1914 258.535 49.5664C258.996 48.9336 259.227 47.9258 259.227 46.543C259.227 45.3633 258.996 44.4492 258.535 43.8008C258.074 43.1523 257.426 42.8281 256.59 42.8281C255.762 42.8281 255.121 43.1523 254.668 43.8008C254.215 44.4414 253.988 45.4375 253.988 46.7891ZM272.047 53C271.891 52.6953 271.777 52.3164 271.707 51.8633C270.887 52.7773 269.82 53.2344 268.508 53.2344C267.266 53.2344 266.234 52.875 265.414 52.1562C264.602 51.4375 264.195 50.5312 264.195 49.4375C264.195 48.0938 264.691 47.0625 265.684 46.3438C266.684 45.625 268.125 45.2617 270.008 45.2539H271.566V44.5273C271.566 43.9414 271.414 43.4727 271.109 43.1211C270.812 42.7695 270.34 42.5938 269.691 42.5938C269.121 42.5938 268.672 42.7305 268.344 43.0039C268.023 43.2773 267.863 43.6523 267.863 44.1289H264.477C264.477 43.3945 264.703 42.7148 265.156 42.0898C265.609 41.4648 266.25 40.9766 267.078 40.625C267.906 40.2656 268.836 40.0859 269.867 40.0859C271.43 40.0859 272.668 40.4805 273.582 41.2695C274.504 42.0508 274.965 43.1523 274.965 44.5742V50.0703C274.973 51.2734 275.141 52.1836 275.469 52.8008V53H272.047ZM269.246 50.6445C269.746 50.6445 270.207 50.5352 270.629 50.3164C271.051 50.0898 271.363 49.7891 271.566 49.4141V47.2344H270.301C268.605 47.2344 267.703 47.8203 267.594 48.9922L267.582 49.1914C267.582 49.6133 267.73 49.9609 268.027 50.2344C268.324 50.5078 268.73 50.6445 269.246 50.6445ZM277.039 46.5664C277.039 44.5898 277.48 43.0156 278.363 41.8438C279.254 40.6719 280.469 40.0859 282.008 40.0859C283.242 40.0859 284.262 40.5469 285.066 41.4688V35H288.465V53H285.406L285.242 51.6523C284.398 52.707 283.312 53.2344 281.984 53.2344C280.492 53.2344 279.293 52.6484 278.387 51.4766C277.488 50.2969 277.039 48.6602 277.039 46.5664ZM280.426 46.8125C280.426 48 280.633 48.9102 281.047 49.543C281.461 50.1758 282.062 50.4922 282.852 50.4922C283.898 50.4922 284.637 50.0508 285.066 49.168V44.1641C284.645 43.2812 283.914 42.8398 282.875 42.8398C281.242 42.8398 280.426 44.1641 280.426 46.8125Z" fill="white"/>
<path d="M71 43H73C73.2652 43 73.5196 43.1054 73.7071 43.2929C73.8946 43.4804 74 43.7348 74 44V56C74 56.2652 73.8946 56.5196 73.7071 56.7071C73.5196 56.8946 73.2652 57 73 57H57C56.7348 57 56.4804 56.8946 56.2929 56.7071C56.1054 56.5196 56 56.2652 56 56V44C56 43.7348 56.1054 43.4804 56.2929 43.2929C56.4804 43.1054 56.7348 43 57 43H59V42C59 40.4087 59.6321 38.8826 60.7574 37.7574C61.8826 36.6321 63.4087 36 65 36C66.5913 36 68.1174 36.6321 69.2426 37.7574C70.3679 38.8826 71 40.4087 71 42V43ZM64 50.732V53H66V50.732C66.3813 50.5119 66.6793 50.1721 66.8478 49.7653C67.0162 49.3586 67.0458 48.9076 66.9319 48.4823C66.8179 48.057 66.5668 47.6813 66.2175 47.4132C65.8682 47.1452 65.4403 46.9999 65 46.9999C64.5597 46.9999 64.1318 47.1452 63.7825 47.4132C63.4332 47.6813 63.1821 48.057 63.0681 48.4823C62.9542 48.9076 62.9838 49.3586 63.1522 49.7653C63.3207 50.1721 63.6187 50.5119 64 50.732ZM69 43V42C69 40.9391 68.5786 39.9217 67.8284 39.1716C67.0783 38.4214 66.0609 38 65 38C63.9391 38 62.9217 38.4214 62.1716 39.1716C61.4214 39.9217 61 40.9391 61 42V43H69Z" fill="white"/>
<defs>
<filter id="filter0_d" x="0" y="0" width="399" height="98" filterUnits="userSpaceOnUse" color-interpolation-filters="sRGB">
<feFlood flood-opacity="0" result="BackgroundImageFix"/>
<feColorMatrix in="SourceAlpha" type="matrix" values="0 0 0 0 0 0 0 0 0 0 0 0 0 0 0 0 0 0 127 0"/>
<feOffset dx="4" dy="4"/>
<feGaussianBlur stdDeviation="7.5"/>
<feColorMatrix type="matrix" values="0 0 0 0 0 0 0 0 0 0 0 0 0 0 0 0 0 0 0.78 0"/>
<feBlend mode="normal" in2="BackgroundImageFix" result="effect1_dropShadow"/>
<feBlend mode="normal" in="SourceGraphic" in2="effect1_dropShadow" result="shape"/>
</filter>
<radialGradient id="paint0_radial" cx="0" cy="0" r="1" gradientUnits="userSpaceOnUse" gradientTransform="translate(-16.3832 105.297) rotate(-13.0906) scale(394.054 819.976)">
<stop stop-color="#232323"/>
<stop offset="0.427083" stop-color="#353535"/>
<stop offset="0.776042" stop-color="#1C1C1D"/>
<stop offset="1" stop-color="#252526"/>
</radialGradient>
</defs>
</svg>
