<svg width="97" height="96" viewBox="0 0 97 96" fill="none" xmlns="http://www.w3.org/2000/svg">
<g filter="url(#filter0_d)">
<rect x="4" width="87.427" height="87.427" rx="43.7135" fill="url(#paint0_linear)"/>
</g>
<path d="M48.6435 17.981C52.5903 17.981 56.3754 19.5488 59.1661 22.3396C61.9569 25.1303 63.5247 28.9154 63.5247 32.8622V35.3424H73.4455V40.3028H70.5511L68.6736 62.8304C68.622 63.4502 68.3394 64.0279 67.8819 64.4492C67.4244 64.8704 66.8253 65.1044 66.2034 65.1047H31.0837C30.4618 65.1044 29.8627 64.8704 29.4052 64.4492C28.9477 64.0279 28.6651 63.4502 28.6135 62.8304L26.7335 40.3028H23.8416V35.3424H33.7623V32.8622C33.7623 28.9154 35.3302 25.1303 38.121 22.3396C40.9117 19.5488 44.6968 17.981 48.6435 17.981ZM65.5734 40.3028H31.7112L33.3655 60.1443H63.9191L65.5734 40.3028ZM51.1237 45.2631V55.1839H46.1633V45.2631H51.1237ZM41.2029 45.2631V55.1839H36.2425V45.2631H41.2029ZM61.0445 45.2631V55.1839H56.0841V45.2631H61.0445ZM48.6435 22.9414C46.0983 22.9414 43.6503 23.9196 41.8061 25.6739C39.9619 27.4281 38.8624 29.824 38.7351 32.3661L38.7227 32.8622V35.3424H58.5643V32.8622C58.5643 30.3169 57.5861 27.8689 55.8318 26.0247C54.0776 24.1805 51.6817 23.081 49.1396 22.9538L48.6435 22.9414Z" fill="white"/>
<circle cx="80.8036" cy="72.0524" r="15.8448" fill="url(#paint1_linear)"/>
<path d="M79.7234 70.9727V64.4907H81.8841V70.9727H88.3661V73.1334H81.8841V79.6153H79.7234V73.1334H73.2415V70.9727H79.7234Z" fill="white"/>
<defs>
<filter id="filter0_d" x="0" y="0" width="95.427" height="95.427" filterUnits="userSpaceOnUse" color-interpolation-filters="sRGB">
<feFlood flood-opacity="0" result="BackgroundImageFix"/>
<feColorMatrix in="SourceAlpha" type="matrix" values="0 0 0 0 0 0 0 0 0 0 0 0 0 0 0 0 0 0 127 0"/>
<feOffset dy="4"/>
<feGaussianBlur stdDeviation="2"/>
<feColorMatrix type="matrix" values="0 0 0 0 0 0 0 0 0 0 0 0 0 0 0 0 0 0 0.25 0"/>
<feBlend mode="normal" in2="BackgroundImageFix" result="effect1_dropShadow"/>
<feBlend mode="normal" in="SourceGraphic" in2="effect1_dropShadow" result="shape"/>
</filter>
<linearGradient id="paint0_linear" x1="47.7135" y1="68.0922" x2="91.427" y2="19.3348" gradientUnits="userSpaceOnUse">
<stop stop-color="#EC7405"/>
<stop offset="1" stop-color="#FFAA00"/>
</linearGradient>
<linearGradient id="paint1_linear" x1="80.8036" y1="80.8889" x2="96.6484" y2="63.2158" gradientUnits="userSpaceOnUse">
<stop stop-color="#EC7405"/>
<stop offset="1" stop-color="#FFAA00"/>
</linearGradient>
</defs>
</svg>
