<svg width="57" height="18" viewBox="0 0 57 18" fill="none" xmlns="http://www.w3.org/2000/svg">
<path d="M5.25586 8.2959C3.80859 7.87988 2.75391 7.37012 2.0918 6.7666C1.43555 6.15723 1.10742 5.40723 1.10742 4.5166C1.10742 3.50879 1.50879 2.67676 2.31152 2.02051C3.12012 1.3584 4.16895 1.02734 5.45801 1.02734C6.33691 1.02734 7.11914 1.19727 7.80469 1.53711C8.49609 1.87695 9.0293 2.3457 9.4043 2.94336C9.78516 3.54102 9.97559 4.19434 9.97559 4.90332H8.2793C8.2793 4.12988 8.0332 3.52344 7.54102 3.08398C7.04883 2.63867 6.35449 2.41602 5.45801 2.41602C4.62598 2.41602 3.97559 2.60059 3.50684 2.96973C3.04395 3.33301 2.8125 3.83984 2.8125 4.49023C2.8125 5.01172 3.03223 5.4541 3.47168 5.81738C3.91699 6.1748 4.66992 6.50293 5.73047 6.80176C6.79688 7.10059 7.62891 7.43164 8.22656 7.79492C8.83008 8.15234 9.27539 8.57129 9.5625 9.05176C9.85547 9.53223 10.002 10.0977 10.002 10.748C10.002 11.7852 9.59766 12.6172 8.78906 13.2441C7.98047 13.8652 6.89941 14.1758 5.5459 14.1758C4.66699 14.1758 3.84668 14.0088 3.08496 13.6748C2.32324 13.335 1.73438 12.8721 1.31836 12.2861C0.908203 11.7002 0.703125 11.0352 0.703125 10.291H2.39941C2.39941 11.0645 2.68359 11.6768 3.25195 12.1279C3.82617 12.5732 4.59082 12.7959 5.5459 12.7959C6.43652 12.7959 7.11914 12.6143 7.59375 12.251C8.06836 11.8877 8.30566 11.3926 8.30566 10.7656C8.30566 10.1387 8.08594 9.65527 7.64648 9.31543C7.20703 8.96973 6.41016 8.62988 5.25586 8.2959ZM19.9512 9.35059C19.9512 10.7979 19.6201 11.9639 18.958 12.8486C18.2959 13.7334 17.3994 14.1758 16.2686 14.1758C15.1143 14.1758 14.2061 13.8096 13.5439 13.0771V17.6562H11.918V4.49023H13.4033L13.4824 5.54492C14.1445 4.72461 15.0645 4.31445 16.2422 4.31445C17.3848 4.31445 18.2871 4.74512 18.9492 5.60645C19.6172 6.46777 19.9512 7.66602 19.9512 9.20117V9.35059ZM18.3252 9.16602C18.3252 8.09375 18.0967 7.24707 17.6396 6.62598C17.1826 6.00488 16.5557 5.69434 15.7588 5.69434C14.7744 5.69434 14.0361 6.13086 13.5439 7.00391V11.5479C14.0303 12.415 14.7744 12.8486 15.7764 12.8486C16.5557 12.8486 17.1738 12.541 17.6309 11.9258C18.0938 11.3047 18.3252 10.3848 18.3252 9.16602ZM25.9717 14.1758C24.6826 14.1758 23.6338 13.7539 22.8252 12.9102C22.0166 12.0605 21.6123 10.9268 21.6123 9.50879V9.20996C21.6123 8.2666 21.791 7.42578 22.1484 6.6875C22.5117 5.94336 23.0156 5.36328 23.6602 4.94727C24.3105 4.52539 25.0137 4.31445 25.7695 4.31445C27.0059 4.31445 27.9668 4.72168 28.6523 5.53613C29.3379 6.35059 29.6807 7.5166 29.6807 9.03418V9.71094H23.2383C23.2617 10.6484 23.5342 11.4072 24.0557 11.9873C24.583 12.5615 25.251 12.8486 26.0596 12.8486C26.6338 12.8486 27.1201 12.7314 27.5186 12.4971C27.917 12.2627 28.2656 11.9521 28.5645 11.5654L29.5576 12.3389C28.7607 13.5635 27.5654 14.1758 25.9717 14.1758ZM25.7695 5.65039C25.1133 5.65039 24.5625 5.89062 24.1172 6.37109C23.6719 6.8457 23.3965 7.51367 23.291 8.375H28.0547V8.25195C28.0078 7.42578 27.7852 6.78711 27.3867 6.33594C26.9883 5.87891 26.4492 5.65039 25.7695 5.65039ZM37.1074 11.4775C37.1074 11.0381 36.9404 10.6982 36.6064 10.458C36.2783 10.2119 35.7012 10.001 34.875 9.8252C34.0547 9.64941 33.4014 9.43848 32.915 9.19238C32.4346 8.94629 32.0771 8.65332 31.8428 8.31348C31.6143 7.97363 31.5 7.56934 31.5 7.10059C31.5 6.32129 31.8281 5.66211 32.4844 5.12305C33.1465 4.58398 33.9902 4.31445 35.0156 4.31445C36.0938 4.31445 36.9668 4.59277 37.6348 5.14941C38.3086 5.70605 38.6455 6.41797 38.6455 7.28516H37.0107C37.0107 6.83984 36.8203 6.45605 36.4395 6.13379C36.0645 5.81152 35.5898 5.65039 35.0156 5.65039C34.4238 5.65039 33.9609 5.7793 33.627 6.03711C33.293 6.29492 33.126 6.63184 33.126 7.04785C33.126 7.44043 33.2812 7.73633 33.5918 7.93555C33.9023 8.13477 34.4619 8.3252 35.2705 8.50684C36.085 8.68848 36.7441 8.90527 37.248 9.15723C37.752 9.40918 38.124 9.71387 38.3643 10.0713C38.6104 10.4229 38.7334 10.8535 38.7334 11.3633C38.7334 12.2129 38.3936 12.8955 37.7139 13.4111C37.0342 13.9209 36.1523 14.1758 35.0684 14.1758C34.3066 14.1758 33.6328 14.041 33.0469 13.7715C32.4609 13.502 32.001 13.127 31.667 12.6465C31.3389 12.1602 31.1748 11.6357 31.1748 11.0732H32.8008C32.8301 11.6182 33.0469 12.0518 33.4512 12.374C33.8613 12.6904 34.4004 12.8486 35.0684 12.8486C35.6836 12.8486 36.1758 12.7256 36.5449 12.4795C36.9199 12.2275 37.1074 11.8936 37.1074 11.4775ZM42.6182 14H40.9922V4.49023H42.6182V14ZM40.8604 1.96777C40.8604 1.7041 40.9395 1.48145 41.0977 1.2998C41.2617 1.11816 41.502 1.02734 41.8184 1.02734C42.1348 1.02734 42.375 1.11816 42.5391 1.2998C42.7031 1.48145 42.7852 1.7041 42.7852 1.96777C42.7852 2.23145 42.7031 2.45117 42.5391 2.62695C42.375 2.80273 42.1348 2.89062 41.8184 2.89062C41.502 2.89062 41.2617 2.80273 41.0977 2.62695C40.9395 2.45117 40.8604 2.23145 40.8604 1.96777ZM51.0996 14C51.0059 13.8125 50.9297 13.4785 50.8711 12.998C50.1152 13.7832 49.2129 14.1758 48.1641 14.1758C47.2266 14.1758 46.4561 13.9121 45.8525 13.3848C45.2549 12.8516 44.9561 12.1777 44.9561 11.3633C44.9561 10.373 45.3311 9.60547 46.0811 9.06055C46.8369 8.50977 47.8975 8.23438 49.2627 8.23438H50.8447V7.4873C50.8447 6.91895 50.6748 6.46777 50.335 6.13379C49.9951 5.79395 49.4941 5.62402 48.832 5.62402C48.252 5.62402 47.7656 5.77051 47.373 6.06348C46.9805 6.35645 46.7842 6.71094 46.7842 7.12695H45.1494C45.1494 6.65234 45.3164 6.19531 45.6504 5.75586C45.9902 5.31055 46.4473 4.95898 47.0215 4.70117C47.6016 4.44336 48.2373 4.31445 48.9287 4.31445C50.0244 4.31445 50.8828 4.58984 51.5039 5.14062C52.125 5.68555 52.4473 6.43848 52.4707 7.39941V11.7764C52.4707 12.6494 52.582 13.3438 52.8047 13.8594V14H51.0996ZM48.4014 12.7607C48.9111 12.7607 49.3945 12.6289 49.8516 12.3652C50.3086 12.1016 50.6396 11.7588 50.8447 11.3369V9.38574H49.5703C47.5781 9.38574 46.582 9.96875 46.582 11.1348C46.582 11.6445 46.752 12.043 47.0918 12.3301C47.4316 12.6172 47.8682 12.7607 48.4014 12.7607ZM56.7861 14H55.1602V0.5H56.7861V14Z" fill="white"/>
</svg>
