<svg width="129" height="26" viewBox="0 0 129 26" fill="none" xmlns="http://www.w3.org/2000/svg">
<path d="M6.65332 16.7988V25H0.826172V0.828125H10.4717C12.32 0.828125 13.9525 1.17122 15.3691 1.85742C16.7969 2.53255 17.8981 3.50098 18.6729 4.7627C19.4587 6.01335 19.8516 7.43555 19.8516 9.0293C19.8516 11.3867 19.0049 13.2738 17.3115 14.6904C15.6292 16.096 13.3161 16.7988 10.3721 16.7988H6.65332ZM6.65332 12.2998H10.4717C11.6006 12.2998 12.4583 12.0176 13.0449 11.4531C13.6426 10.8887 13.9414 10.0918 13.9414 9.0625C13.9414 7.93359 13.637 7.03158 13.0283 6.35645C12.4196 5.68132 11.5895 5.33822 10.5381 5.32715H6.65332V12.2998ZM31.9541 16.4668H28.7998V25H22.9727V0.828125H32.4854C35.3519 0.828125 37.5931 1.46452 39.209 2.7373C40.8249 4.01009 41.6328 5.80859 41.6328 8.13281C41.6328 9.8151 41.2897 11.2096 40.6035 12.3164C39.9284 13.4232 38.8659 14.3197 37.416 15.0059L42.4629 24.751V25H36.2207L31.9541 16.4668ZM28.7998 11.9678H32.4854C33.5921 11.9678 34.4222 11.68 34.9756 11.1045C35.54 10.5179 35.8223 9.70443 35.8223 8.66406C35.8223 7.6237 35.54 6.81022 34.9756 6.22363C34.4111 5.62598 33.5811 5.32715 32.4854 5.32715H28.7998V11.9678ZM65.6221 13.4121C65.6221 15.7695 65.1849 17.8558 64.3105 19.6709C63.4362 21.486 62.1911 22.8861 60.5752 23.8711C58.9704 24.8451 57.1387 25.332 55.0801 25.332C53.0215 25.332 51.1953 24.8617 49.6016 23.9209C48.0078 22.9691 46.7627 21.6133 45.8662 19.8535C44.9808 18.0938 44.516 16.0739 44.4717 13.7939V12.4326C44.4717 10.0641 44.9033 7.97786 45.7666 6.17383C46.641 4.35872 47.8861 2.95866 49.502 1.97363C51.1289 0.988607 52.9772 0.496094 55.0469 0.496094C57.0944 0.496094 58.9206 0.983073 60.5254 1.95703C62.1302 2.93099 63.3753 4.31999 64.2607 6.12402C65.1572 7.91699 65.611 9.97559 65.6221 12.2998V13.4121ZM59.6953 12.3994C59.6953 9.99772 59.2913 8.17708 58.4834 6.9375C57.6865 5.68685 56.541 5.06152 55.0469 5.06152C52.125 5.06152 50.5811 7.25293 50.415 11.6357L50.3984 13.4121C50.3984 15.7806 50.7913 17.6012 51.5771 18.874C52.363 20.1468 53.5306 20.7832 55.0801 20.7832C56.5521 20.7832 57.6865 20.1579 58.4834 18.9072C59.2803 17.6566 59.6842 15.8581 59.6953 13.5117V12.3994ZM76.2803 0.828125L81.6758 17.6455L87.0547 0.828125H94.7246V25H88.8809V19.3555L89.4453 7.80078L83.6016 25H79.75L73.8896 7.78418L74.4541 19.3555V25H68.627V0.828125H76.2803ZM118.913 13.4121C118.913 15.7695 118.476 17.8558 117.602 19.6709C116.727 21.486 115.482 22.8861 113.866 23.8711C112.261 24.8451 110.43 25.332 108.371 25.332C106.312 25.332 104.486 24.8617 102.893 23.9209C101.299 22.9691 100.054 21.6133 99.1572 19.8535C98.2718 18.0938 97.807 16.0739 97.7627 13.7939V12.4326C97.7627 10.0641 98.1943 7.97786 99.0576 6.17383C99.932 4.35872 101.177 2.95866 102.793 1.97363C104.42 0.988607 106.268 0.496094 108.338 0.496094C110.385 0.496094 112.212 0.983073 113.816 1.95703C115.421 2.93099 116.666 4.31999 117.552 6.12402C118.448 7.91699 118.902 9.97559 118.913 12.2998V13.4121ZM112.986 12.3994C112.986 9.99772 112.582 8.17708 111.774 6.9375C110.978 5.68685 109.832 5.06152 108.338 5.06152C105.416 5.06152 103.872 7.25293 103.706 11.6357L103.689 13.4121C103.689 15.7806 104.082 17.6012 104.868 18.874C105.654 20.1468 106.822 20.7832 108.371 20.7832C109.843 20.7832 110.978 20.1579 111.774 18.9072C112.571 17.6566 112.975 15.8581 112.986 13.5117V12.3994ZM127.214 17.3467H122.682L121.968 0.828125H127.928L127.214 17.3467ZM121.802 22.4932C121.802 21.6742 122.095 21.0046 122.682 20.4844C123.279 19.9531 124.021 19.6875 124.906 19.6875C125.792 19.6875 126.528 19.9531 127.114 20.4844C127.712 21.0046 128.011 21.6742 128.011 22.4932C128.011 23.3122 127.712 23.9873 127.114 24.5186C126.528 25.0387 125.792 25.2988 124.906 25.2988C124.021 25.2988 123.279 25.0387 122.682 24.5186C122.095 23.9873 121.802 23.3122 121.802 22.4932Z" fill="white"/>
</svg>
