<svg width="160" height="84" viewBox="0 0 160 84" fill="none" xmlns="http://www.w3.org/2000/svg">
<rect x="13" y="17" width="147" height="48" rx="24" fill="#FF006E"/>
<g filter="url(#filter0_d)">
<circle cx="41" cy="41" r="15" fill="#FF006E"/>
<path d="M34.7432 37.7252C35.8338 41.0284 37.4231 44.1436 39.4556 46.9617C39.6494 47.2415 39.9065 47.4712 40.2059 47.6317C40.5052 47.7923 40.8382 47.8792 41.1775 47.8853C41.4214 47.886 41.6631 47.8378 41.8883 47.7437L44.8787 46.5429C44.9537 46.5376 45.0267 46.5167 45.0932 46.4814L45.1606 46.4321L46.2023 46.0134C46.3945 45.937 46.5689 45.8213 46.7144 45.6738C46.8599 45.5263 46.9734 45.35 47.0477 45.1561C47.122 44.9623 47.1554 44.7551 47.146 44.5476C47.1365 44.3401 47.0844 44.1368 46.9928 43.9506C46.4384 42.7986 45.6565 41.772 44.6949 40.9333C44.6021 40.8602 44.4904 40.8154 44.373 40.8045C44.2556 40.7936 44.1376 40.8169 44.033 40.8717L42.6849 41.5675C42.6545 41.562 42.6234 41.562 42.593 41.5675C42.5624 41.5675 42.544 41.6106 42.5195 41.6291L41.2326 42.288C41.1713 42.3249 41.0488 42.288 40.9569 42.1648C40.3165 41.284 39.8182 40.3073 39.4801 39.2707C39.456 39.2211 39.4484 39.1651 39.4583 39.1108C39.4682 39.0565 39.4952 39.0068 39.5352 38.969L40.9017 38.267L42.3356 37.5281C42.4579 37.4656 42.5558 37.3637 42.6135 37.2386C42.6713 37.1136 42.6857 36.9727 42.6543 36.8385C42.4257 35.7534 42.1038 34.6903 41.6922 33.6611C41.5947 33.4369 41.45 33.2365 41.268 33.0739C41.0861 32.9113 40.8712 32.7902 40.6382 32.719C40.3956 32.6428 40.1392 32.621 39.8873 32.655C39.6353 32.689 39.3938 32.7781 39.1798 32.916L35.5031 35.2806C35.1209 35.5424 34.8378 35.9263 34.6999 36.37C34.562 36.8137 34.5773 37.2913 34.7432 37.7252ZM44.2108 42.1402C44.9147 42.8188 45.4935 43.6173 45.9204 44.4986C45.945 44.5619 45.945 44.6323 45.9204 44.6956C45.9062 44.7302 45.8854 44.7616 45.8591 44.788C45.8328 44.8144 45.8016 44.8353 45.7672 44.8496L45.1177 45.1144L43.7328 42.405L44.2108 42.1402ZM40.1357 33.8766H40.2828C40.3454 33.8969 40.4031 33.9297 40.4527 33.9731C40.5022 34.0165 40.5424 34.0696 40.5708 34.1291C40.8996 34.9411 41.1599 35.7795 41.3491 36.6353L40.8895 36.8754L39.5046 34.166L39.8661 33.9382C39.9477 33.8907 40.0417 33.8693 40.1357 33.8766ZM36.1772 36.3397L38.469 34.8742L39.7926 37.4542L38.9715 37.8791C38.6731 38.0479 38.4437 38.3172 38.3237 38.6394C38.2038 38.9616 38.201 39.3161 38.3158 39.6402C38.697 40.7994 39.2552 41.8921 39.9703 42.8791C40.1665 43.1698 40.4603 43.3796 40.798 43.4701C41.1357 43.5605 41.4945 43.5256 41.8086 43.3717L42.6298 42.9469L43.9595 45.5515L41.4348 46.5676C41.2554 46.6257 41.0618 46.6215 40.885 46.5556C40.7083 46.4897 40.5587 46.366 40.4605 46.2043C38.5025 43.4956 36.9652 40.5037 35.9014 37.3311C35.8285 37.156 35.8161 36.9614 35.8661 36.7784C35.9161 36.5954 36.0256 36.4344 36.1772 36.3212V36.3397Z" fill="white"/>
</g>
<path d="M84.5568 36.5234H81.0724V46H78.7286V36.5234H75.2911V34.625H84.5568V36.5234ZM88.9396 46.1562C87.7 46.1562 86.6896 45.776 85.9083 45.0156C85.1323 44.2552 84.7443 43.2422 84.7443 41.9766V41.7578C84.7443 40.9089 84.9083 40.151 85.2365 39.4844C85.5646 38.8125 86.0281 38.2969 86.6271 37.9375C87.2313 37.5729 87.9188 37.3906 88.6896 37.3906C89.8458 37.3906 90.7547 37.7552 91.4161 38.4844C92.0828 39.2135 92.4161 40.2474 92.4161 41.5859V42.5078H87.0333C87.1063 43.0599 87.325 43.5026 87.6896 43.8359C88.0594 44.1693 88.5255 44.3359 89.088 44.3359C89.9578 44.3359 90.6375 44.0208 91.1271 43.3906L92.2365 44.6328C91.8979 45.112 91.4396 45.487 90.8615 45.7578C90.2833 46.0234 89.6427 46.1562 88.9396 46.1562ZM88.6818 39.2188C88.2339 39.2188 87.8693 39.3698 87.588 39.6719C87.312 39.974 87.1349 40.4062 87.0568 40.9688H90.1974V40.7891C90.187 40.2891 90.0516 39.9036 89.7911 39.6328C89.5307 39.3568 89.1609 39.2188 88.6818 39.2188ZM96.088 46H93.8224V34H96.088V46ZM105.565 41.8516C105.565 43.1536 105.268 44.1979 104.674 44.9844C104.085 45.7656 103.289 46.1562 102.283 46.1562C101.429 46.1562 100.739 45.8594 100.213 45.2656V49.25H97.9552V37.5469H100.049L100.127 38.375C100.674 37.7188 101.388 37.3906 102.268 37.3906C103.309 37.3906 104.119 37.776 104.697 38.5469C105.276 39.3177 105.565 40.3802 105.565 41.7344V41.8516ZM103.307 41.6875C103.307 40.901 103.166 40.2943 102.885 39.8672C102.609 39.4401 102.205 39.2266 101.674 39.2266C100.966 39.2266 100.479 39.4974 100.213 40.0391V43.5C100.489 44.0573 100.981 44.3359 101.69 44.3359C102.768 44.3359 103.307 43.4531 103.307 41.6875ZM106.619 41.6953C106.619 40.8568 106.781 40.1094 107.104 39.4531C107.427 38.7969 107.89 38.2891 108.494 37.9297C109.104 37.5703 109.809 37.3906 110.611 37.3906C111.752 37.3906 112.682 37.7396 113.401 38.4375C114.124 39.1354 114.528 40.0833 114.611 41.2812L114.627 41.8594C114.627 43.1562 114.265 44.1979 113.541 44.9844C112.817 45.7656 111.846 46.1562 110.627 46.1562C109.408 46.1562 108.434 45.7656 107.705 44.9844C106.981 44.2031 106.619 43.1406 106.619 41.7969V41.6953ZM108.877 41.8594C108.877 42.6615 109.028 43.276 109.33 43.7031C109.632 44.125 110.065 44.3359 110.627 44.3359C111.174 44.3359 111.601 44.1276 111.908 43.7109C112.216 43.2891 112.369 42.6172 112.369 41.6953C112.369 40.9089 112.216 40.2995 111.908 39.8672C111.601 39.4349 111.169 39.2188 110.611 39.2188C110.059 39.2188 109.632 39.4349 109.33 39.8672C109.028 40.2943 108.877 40.9583 108.877 41.8594ZM118.096 37.5469L118.166 38.5234C118.77 37.7682 119.58 37.3906 120.596 37.3906C121.492 37.3906 122.158 37.6536 122.596 38.1797C123.033 38.7057 123.257 39.4922 123.268 40.5391V46H121.01V40.5938C121.01 40.1146 120.906 39.7682 120.697 39.5547C120.489 39.3359 120.143 39.2266 119.658 39.2266C119.023 39.2266 118.546 39.4974 118.229 40.0391V46H115.971V37.5469H118.096Z" fill="white"/>
<defs>
<filter id="filter0_d" x="0" y="0" width="84" height="84" filterUnits="userSpaceOnUse" color-interpolation-filters="sRGB">
<feFlood flood-opacity="0" result="BackgroundImageFix"/>
<feColorMatrix in="SourceAlpha" type="matrix" values="0 0 0 0 0 0 0 0 0 0 0 0 0 0 0 0 0 0 127 0"/>
<feOffset dx="1" dy="1"/>
<feGaussianBlur stdDeviation="13.5"/>
<feColorMatrix type="matrix" values="0 0 0 0 0.591667 0 0 0 0 0 0 0 0 0 0.255229 0 0 0 1 0"/>
<feBlend mode="normal" in2="BackgroundImageFix" result="effect1_dropShadow"/>
<feBlend mode="normal" in="SourceGraphic" in2="effect1_dropShadow" result="shape"/>
</filter>
</defs>
</svg>
