<svg width="14" height="16" viewBox="0 0 14 16" fill="none" xmlns="http://www.w3.org/2000/svg">
<path d="M0.743248 5.72517C1.83382 9.02841 3.42314 12.1436 5.45555 14.9617C5.64939 15.2415 5.90655 15.4712 6.20589 15.6317C6.50523 15.7923 6.83821 15.8792 7.17747 15.8853C7.42142 15.886 7.66306 15.8378 7.8883 15.7437L10.8787 14.5429C10.9537 14.5376 11.0267 14.5167 11.0932 14.4814L11.1606 14.4321L12.2023 14.0134C12.3945 13.937 12.5689 13.8213 12.7144 13.6738C12.8599 13.5263 12.9734 13.35 13.0477 13.1561C13.122 12.9623 13.1554 12.7551 13.146 12.5476C13.1365 12.3401 13.0844 12.1368 12.9928 11.9506C12.4384 10.7986 11.6565 9.77204 10.6949 8.93331C10.6021 8.86016 10.4904 8.81545 10.373 8.80453C10.2556 8.7936 10.1376 8.81694 10.033 8.87173L8.68492 9.56755C8.65453 9.562 8.62339 9.562 8.593 9.56755C8.56236 9.56755 8.54398 9.61065 8.51947 9.62912L7.23263 10.288C7.17135 10.3249 7.04879 10.288 6.95687 10.1648C6.31652 9.28399 5.81815 8.30733 5.48006 7.27074C5.45601 7.22112 5.44839 7.16506 5.45831 7.11077C5.46824 7.05649 5.49518 7.00681 5.53521 6.96902L6.90172 6.26704L8.33563 5.52812C8.45791 5.46561 8.55577 5.36366 8.61355 5.23862C8.67132 5.11358 8.68566 4.97267 8.65428 4.83847C8.42567 3.75338 8.10378 2.69027 7.69221 1.66112C7.59471 1.43688 7.45 1.23654 7.26804 1.0739C7.08609 0.911262 6.87122 0.790181 6.63822 0.718998C6.39556 0.642802 6.13923 0.620958 5.88727 0.655C5.6353 0.689043 5.39382 0.778146 5.1798 0.916042L1.5031 3.28058C1.12086 3.54242 0.837837 3.92632 0.699917 4.37003C0.561997 4.81375 0.577266 5.29127 0.743248 5.72517ZM10.2108 10.1402C10.9147 10.8188 11.4935 11.6173 11.9204 12.4986C11.945 12.5619 11.945 12.6323 11.9204 12.6956C11.9062 12.7302 11.8854 12.7616 11.8591 12.788C11.8328 12.8144 11.8016 12.8353 11.7672 12.8496L11.1177 13.1144L9.73278 10.405L10.2108 10.1402ZM6.13574 1.87664H6.28281C6.34535 1.89687 6.40314 1.9297 6.45266 1.9731C6.50217 2.0165 6.54238 2.06958 6.57082 2.1291C6.89956 2.94114 7.15989 3.77947 7.34905 4.63527L6.88947 4.87541L5.50458 2.16605L5.86612 1.93821C5.94772 1.89073 6.04174 1.86926 6.13574 1.87664ZM2.17716 4.3397L4.46897 2.87418L5.79258 5.45423L4.97145 5.87911C4.67312 6.0479 4.44371 6.31718 4.32375 6.6394C4.20378 6.96163 4.20095 7.31609 4.31578 7.6402C4.697 8.79944 5.25517 9.89211 5.97029 10.8791C6.16646 11.1698 6.46034 11.3796 6.79801 11.4701C7.13569 11.5605 7.49451 11.5256 7.80864 11.3717L8.62977 10.9469L9.95951 13.5515L7.43484 14.5676C7.25543 14.6257 7.06176 14.6215 6.88501 14.5556C6.70827 14.4897 6.55874 14.366 6.46052 14.2043C4.50248 11.4956 2.96525 8.50371 1.90141 5.33108C1.82854 5.15599 1.81611 4.96142 1.86609 4.7784C1.91606 4.59538 2.02557 4.43443 2.17716 4.32122V4.3397Z" fill="white"/>
</svg>
