<svg width="160" height="84" viewBox="0 0 160 84" fill="none" xmlns="http://www.w3.org/2000/svg">
<rect x="13" y="17" width="147" height="48" rx="24" fill="#35A500"/>
<g filter="url(#filter0_d)">
<circle cx="41" cy="41" r="15" fill="#35A500"/>
</g>
<path d="M34.0517 47.9513L35.041 44.3162C34.3891 43.1987 34.0466 41.9279 34.0488 40.6342C34.0488 36.593 37.3246 33.3171 41.3658 33.3171C45.4071 33.3171 48.6829 36.593 48.6829 40.6342C48.6829 44.6754 45.4071 47.9513 41.3658 47.9513C40.0728 47.9534 38.8024 47.6112 37.6854 46.9598L34.0517 47.9513ZM38.7251 37.201C38.6306 37.2069 38.5383 37.2318 38.4536 37.2742C38.3743 37.3192 38.3018 37.3754 38.2385 37.441C38.1507 37.5237 38.101 37.5954 38.0475 37.6649C37.7771 38.0169 37.6317 38.4489 37.6341 38.8927C37.6356 39.2513 37.7293 39.6003 37.8756 39.9267C38.1749 40.5867 38.6673 41.2854 39.3178 41.933C39.4744 42.0888 39.6273 42.2454 39.7919 42.391C40.5993 43.1019 41.5614 43.6145 42.6017 43.8881L43.018 43.9518C43.1534 43.9591 43.2888 43.9488 43.4249 43.9423C43.638 43.9313 43.846 43.8736 44.0344 43.7732C44.1558 43.7088 44.2129 43.6767 44.3146 43.6123C44.3146 43.6123 44.3461 43.5918 44.4061 43.5464C44.5049 43.4732 44.5656 43.4213 44.6476 43.3357C44.7083 43.2727 44.761 43.1988 44.8012 43.1147C44.8583 42.9954 44.9154 42.7679 44.9388 42.5784C44.9563 42.4335 44.9512 42.3545 44.949 42.3054C44.9461 42.2271 44.881 42.1459 44.81 42.1115L44.3841 41.9206C44.3841 41.9206 43.7476 41.6432 43.359 41.4662C43.318 41.4483 43.2741 41.4381 43.2295 41.4362C43.1794 41.431 43.1289 41.4367 43.0811 41.4527C43.0334 41.4687 42.9897 41.4948 42.9529 41.5291V41.5276C42.9493 41.5276 42.9002 41.5693 42.3712 42.2103C42.3408 42.2511 42.299 42.2819 42.2511 42.2989C42.2031 42.3158 42.1512 42.3181 42.1019 42.3054C42.0543 42.2927 42.0076 42.2765 41.9622 42.2571C41.8715 42.2191 41.84 42.2045 41.7778 42.1774L41.7741 42.1759C41.3555 41.9932 40.968 41.7463 40.6254 41.4442C40.5332 41.3637 40.4475 41.2759 40.3597 41.191C40.0719 40.9154 39.821 40.6035 39.6134 40.2632L39.5702 40.1937C39.5392 40.147 39.5142 40.0966 39.4956 40.0437C39.4678 39.9362 39.5402 39.8498 39.5402 39.8498C39.5402 39.8498 39.718 39.6552 39.8007 39.5498C39.8696 39.4623 39.9338 39.3712 39.9932 39.2769C40.0795 39.1379 40.1066 38.9952 40.0612 38.8847C39.8563 38.3842 39.6441 37.8859 39.4261 37.3913C39.3829 37.2932 39.2549 37.223 39.1385 37.2091C39.099 37.2047 39.0595 37.2003 39.02 37.1974C38.9217 37.1925 38.8233 37.1935 38.7251 37.2003V37.201Z" fill="white"/>
<path d="M76.4844 42.7188L78.0156 34.625H80.3516L77.8281 46H75.4688L73.6172 38.3906L71.7656 46H69.4062L66.8828 34.625H69.2188L70.7578 42.7031L72.6328 34.625H74.6172L76.4844 42.7188ZM83.6797 38.4688C84.2786 37.75 85.0312 37.3906 85.9375 37.3906C87.7708 37.3906 88.7005 38.4557 88.7266 40.5859V46H86.4688V40.6484C86.4688 40.1641 86.3646 39.8073 86.1562 39.5781C85.9479 39.3438 85.6016 39.2266 85.1172 39.2266C84.4557 39.2266 83.9766 39.4818 83.6797 39.9922V46H81.4219V34H83.6797V38.4688ZM95.3281 46C95.224 45.7969 95.1484 45.5443 95.1016 45.2422C94.5547 45.8516 93.8438 46.1562 92.9688 46.1562C92.1406 46.1562 91.4531 45.9167 90.9062 45.4375C90.3646 44.9583 90.0938 44.3542 90.0938 43.625C90.0938 42.7292 90.4245 42.0417 91.0859 41.5625C91.7526 41.0833 92.7135 40.8411 93.9688 40.8359H95.0078V40.3516C95.0078 39.9609 94.9062 39.6484 94.7031 39.4141C94.5052 39.1797 94.1901 39.0625 93.7578 39.0625C93.3776 39.0625 93.0781 39.1536 92.8594 39.3359C92.6458 39.5182 92.5391 39.7682 92.5391 40.0859H90.2812C90.2812 39.5964 90.4323 39.1432 90.7344 38.7266C91.0365 38.3099 91.4635 37.9844 92.0156 37.75C92.5677 37.5104 93.1875 37.3906 93.875 37.3906C94.9167 37.3906 95.7422 37.6536 96.3516 38.1797C96.9661 38.7005 97.2734 39.4349 97.2734 40.3828V44.0469C97.2786 44.849 97.3906 45.4557 97.6094 45.8672V46H95.3281ZM93.4609 44.4297C93.7943 44.4297 94.1016 44.3568 94.3828 44.2109C94.6641 44.0599 94.8724 43.8594 95.0078 43.6094V42.1562H94.1641C93.0339 42.1562 92.4323 42.5469 92.3594 43.3281L92.3516 43.4609C92.3516 43.7422 92.4505 43.974 92.6484 44.1562C92.8464 44.3385 93.1172 44.4297 93.4609 44.4297ZM101.711 35.4688V37.5469H103.156V39.2031H101.711V43.4219C101.711 43.7344 101.771 43.9583 101.891 44.0938C102.01 44.2292 102.24 44.2969 102.578 44.2969C102.828 44.2969 103.049 44.2786 103.242 44.2422V45.9531C102.799 46.0885 102.344 46.1562 101.875 46.1562C100.292 46.1562 99.4844 45.3568 99.4531 43.7578V39.2031H98.2188V37.5469H99.4531V35.4688H101.711ZM108.992 43.6641C108.992 43.388 108.854 43.1719 108.578 43.0156C108.307 42.8542 107.87 42.7109 107.266 42.5859C105.255 42.1641 104.25 41.3099 104.25 40.0234C104.25 39.2734 104.56 38.6484 105.18 38.1484C105.805 37.6432 106.62 37.3906 107.625 37.3906C108.698 37.3906 109.555 37.6432 110.195 38.1484C110.841 38.6536 111.164 39.3099 111.164 40.1172H108.906C108.906 39.7943 108.802 39.5286 108.594 39.3203C108.385 39.1068 108.06 39 107.617 39C107.237 39 106.943 39.0859 106.734 39.2578C106.526 39.4297 106.422 39.6484 106.422 39.9141C106.422 40.1641 106.539 40.3672 106.773 40.5234C107.013 40.6745 107.414 40.8073 107.977 40.9219C108.539 41.0312 109.013 41.1562 109.398 41.2969C110.591 41.7344 111.188 42.4922 111.188 43.5703C111.188 44.3411 110.857 44.9661 110.195 45.4453C109.534 45.9193 108.68 46.1562 107.633 46.1562C106.924 46.1562 106.294 46.0312 105.742 45.7812C105.195 45.526 104.766 45.1797 104.453 44.7422C104.141 44.2995 103.984 43.8229 103.984 43.3125H106.125C106.146 43.7135 106.294 44.0208 106.57 44.2344C106.846 44.4479 107.216 44.5547 107.68 44.5547C108.112 44.5547 108.438 44.474 108.656 44.3125C108.88 44.1458 108.992 43.9297 108.992 43.6641ZM117.547 46C117.443 45.7969 117.367 45.5443 117.32 45.2422C116.773 45.8516 116.062 46.1562 115.188 46.1562C114.359 46.1562 113.672 45.9167 113.125 45.4375C112.583 44.9583 112.312 44.3542 112.312 43.625C112.312 42.7292 112.643 42.0417 113.305 41.5625C113.971 41.0833 114.932 40.8411 116.188 40.8359H117.227V40.3516C117.227 39.9609 117.125 39.6484 116.922 39.4141C116.724 39.1797 116.409 39.0625 115.977 39.0625C115.596 39.0625 115.297 39.1536 115.078 39.3359C114.865 39.5182 114.758 39.7682 114.758 40.0859H112.5C112.5 39.5964 112.651 39.1432 112.953 38.7266C113.255 38.3099 113.682 37.9844 114.234 37.75C114.786 37.5104 115.406 37.3906 116.094 37.3906C117.135 37.3906 117.961 37.6536 118.57 38.1797C119.185 38.7005 119.492 39.4349 119.492 40.3828V44.0469C119.497 44.849 119.609 45.4557 119.828 45.8672V46H117.547ZM115.68 44.4297C116.013 44.4297 116.32 44.3568 116.602 44.2109C116.883 44.0599 117.091 43.8594 117.227 43.6094V42.1562H116.383C115.253 42.1562 114.651 42.5469 114.578 43.3281L114.57 43.4609C114.57 43.7422 114.669 43.974 114.867 44.1562C115.065 44.3385 115.336 44.4297 115.68 44.4297ZM128.836 41.8516C128.836 43.1536 128.539 44.1979 127.945 44.9844C127.357 45.7656 126.56 46.1562 125.555 46.1562C124.701 46.1562 124.01 45.8594 123.484 45.2656V49.25H121.227V37.5469H123.32L123.398 38.375C123.945 37.7188 124.659 37.3906 125.539 37.3906C126.581 37.3906 127.391 37.776 127.969 38.5469C128.547 39.3177 128.836 40.3802 128.836 41.7344V41.8516ZM126.578 41.6875C126.578 40.901 126.438 40.2943 126.156 39.8672C125.88 39.4401 125.477 39.2266 124.945 39.2266C124.237 39.2266 123.75 39.4974 123.484 40.0391V43.5C123.76 44.0573 124.253 44.3359 124.961 44.3359C126.039 44.3359 126.578 43.4531 126.578 41.6875ZM137.852 41.8516C137.852 43.1536 137.555 44.1979 136.961 44.9844C136.372 45.7656 135.576 46.1562 134.57 46.1562C133.716 46.1562 133.026 45.8594 132.5 45.2656V49.25H130.242V37.5469H132.336L132.414 38.375C132.961 37.7188 133.674 37.3906 134.555 37.3906C135.596 37.3906 136.406 37.776 136.984 38.5469C137.562 39.3177 137.852 40.3802 137.852 41.7344V41.8516ZM135.594 41.6875C135.594 40.901 135.453 40.2943 135.172 39.8672C134.896 39.4401 134.492 39.2266 133.961 39.2266C133.253 39.2266 132.766 39.4974 132.5 40.0391V43.5C132.776 44.0573 133.268 44.3359 133.977 44.3359C135.055 44.3359 135.594 43.4531 135.594 41.6875Z" fill="white"/>
<defs>
<filter id="filter0_d" x="0" y="0" width="84" height="84" filterUnits="userSpaceOnUse" color-interpolation-filters="sRGB">
<feFlood flood-opacity="0" result="BackgroundImageFix"/>
<feColorMatrix in="SourceAlpha" type="matrix" values="0 0 0 0 0 0 0 0 0 0 0 0 0 0 0 0 0 0 127 0"/>
<feOffset dx="1" dy="1"/>
<feGaussianBlur stdDeviation="13.5"/>
<feColorMatrix type="matrix" values="0 0 0 0 0.118496 0 0 0 0 0.366667 0 0 0 0 0 0 0 0 1 0"/>
<feBlend mode="normal" in2="BackgroundImageFix" result="effect1_dropShadow"/>
<feBlend mode="normal" in="SourceGraphic" in2="effect1_dropShadow" result="shape"/>
</filter>
</defs>
</svg>
