<svg width="15" height="15" viewBox="0 0 15 15" fill="none" xmlns="http://www.w3.org/2000/svg">
<path d="M0.0516961 14.9513L1.04096 11.3162C0.389114 10.1987 0.0466444 8.92787 0.0487693 7.63421C0.0487693 3.59299 3.32462 0.317139 7.36584 0.317139C11.4071 0.317139 14.6829 3.59299 14.6829 7.63421C14.6829 11.6754 11.4071 14.9513 7.36584 14.9513C6.07275 14.9534 4.80242 14.6112 3.68535 13.9598L0.0516961 14.9513ZM4.72511 4.20104C4.63062 4.20691 4.53829 4.2318 4.45365 4.27421C4.37427 4.31916 4.30182 4.37535 4.23853 4.44104C4.15072 4.52372 4.10096 4.59543 4.04755 4.66494C3.77712 5.01689 3.63165 5.44891 3.63414 5.89275C3.6356 6.25129 3.72926 6.60031 3.8756 6.92665C4.17487 7.58665 4.66731 8.28543 5.31779 8.93299C5.47438 9.08885 5.62731 9.24543 5.79194 9.39104C6.5993 10.1019 7.56139 10.6145 8.6017 10.8881L9.01804 10.9518C9.1534 10.9591 9.28877 10.9488 9.42487 10.9423C9.63797 10.9313 9.84605 10.8736 10.0344 10.7732C10.1558 10.7088 10.2129 10.6767 10.3146 10.6123C10.3146 10.6123 10.3461 10.5918 10.4061 10.5464C10.5049 10.4732 10.5656 10.4213 10.6476 10.3357C10.7083 10.2727 10.761 10.1988 10.8012 10.1147C10.8583 9.99543 10.9154 9.76787 10.9388 9.57836C10.9563 9.43348 10.9512 9.35446 10.949 9.30543C10.9461 9.22714 10.881 9.14592 10.81 9.11153L10.3841 8.92055C10.3841 8.92055 9.74755 8.64324 9.35901 8.46616C9.31805 8.44831 9.27415 8.43814 9.2295 8.43616C9.17944 8.43102 9.12885 8.43666 9.08115 8.45268C9.03344 8.46871 8.98972 8.49476 8.95292 8.52909V8.52763C8.94926 8.52763 8.90023 8.56933 8.37121 9.21031C8.34084 9.25111 8.29902 9.28195 8.25106 9.29889C8.20311 9.31583 8.15119 9.31811 8.10194 9.30543C8.05426 9.29268 8.00756 9.27654 7.96218 9.25714C7.87145 9.21909 7.83999 9.20446 7.77779 9.17738L7.77414 9.17592C7.35553 8.99316 6.96796 8.74629 6.62535 8.44421C6.53316 8.36372 6.44755 8.27592 6.35975 8.19104C6.07188 7.91536 5.821 7.60349 5.6134 7.26324L5.57023 7.19372C5.53923 7.14702 5.51415 7.09663 5.4956 7.04372C5.46779 6.93616 5.54023 6.84982 5.54023 6.84982C5.54023 6.84982 5.71804 6.65519 5.80072 6.54982C5.86957 6.46225 5.9338 6.37115 5.99316 6.2769C6.0795 6.13787 6.10657 5.99519 6.06121 5.8847C5.85633 5.38421 5.64413 4.88592 5.42609 4.39128C5.38292 4.29324 5.25487 4.22299 5.13853 4.20909C5.09901 4.2047 5.0595 4.20031 5.01999 4.19738C4.92173 4.1925 4.82326 4.19348 4.72511 4.20031V4.20104Z" fill="white"/>
</svg>
