<svg width="21" height="23" viewBox="0 0 21 23" fill="none" xmlns="http://www.w3.org/2000/svg">
<path d="M20.6165 21.0081C20.6165 18.325 19.5507 15.7518 17.6535 13.8546C15.7563 11.9574 13.1831 10.8915 10.5 10.8915C7.81691 10.8915 5.24372 11.9574 3.34649 13.8546C1.44927 15.7518 0.383423 18.325 0.383423 21.0081C0.383423 21.2816 0.492072 21.5439 0.685469 21.7373C0.878866 21.9307 1.14117 22.0394 1.41467 22.0394H19.5853C19.8588 22.0394 20.1211 21.9307 20.3145 21.7373C20.5079 21.5439 20.6165 21.2816 20.6165 21.0081ZM2.5078 19.9769C2.75072 18.0284 3.69703 16.2359 5.16882 14.9362C6.64061 13.6365 8.53648 12.9192 10.5 12.9192C12.4635 12.9192 14.3594 13.6365 15.8312 14.9362C17.3029 16.2359 18.2493 18.0284 18.4922 19.9769H2.5078Z" fill="#FF006E"/>
<path d="M10.5 0.960632C9.6368 0.960635 8.793 1.21673 8.07542 1.69652C7.35784 2.1763 6.79874 2.85819 6.46888 3.65587C6.13902 4.45356 6.05324 5.33118 6.2224 6.17764C6.39155 7.0241 6.80803 7.80135 7.41913 8.411C8.03022 9.02065 8.80845 9.43529 9.65531 9.60244C10.5022 9.76959 11.3796 9.68173 12.1765 9.34999C12.9734 9.01824 13.654 8.45753 14.132 7.73881C14.6101 7.0201 14.8642 6.1757 14.8622 5.31251C14.8595 4.15737 14.3987 3.05048 13.5809 2.23464C12.7631 1.4188 11.6551 0.960629 10.5 0.960632ZM10.5 7.62251C10.0456 7.6225 9.60139 7.48788 9.22344 7.23564C8.84548 6.9834 8.55072 6.62485 8.37636 6.20524C8.20201 5.78562 8.15587 5.32376 8.24377 4.87795C8.33167 4.43214 8.54967 4.02236 8.87026 3.70034C9.19085 3.37831 9.59965 3.15848 10.0451 3.06858C10.4905 2.97869 10.9525 3.02276 11.3729 3.19524C11.7933 3.36772 12.1532 3.66087 12.4071 4.03769C12.661 4.41451 12.7976 4.85812 12.7997 5.31251C12.801 5.61537 12.7426 5.91552 12.6276 6.19573C12.5126 6.47593 12.3435 6.73066 12.1298 6.9453C11.9161 7.15994 11.6621 7.33026 11.3824 7.44647C11.1028 7.56269 10.8029 7.62251 10.5 7.62251Z" fill="#FF006E"/>
</svg>
