<svg width="25" height="23" viewBox="0 0 25 23" fill="none" xmlns="http://www.w3.org/2000/svg">
<path d="M24.2076 12.375L13.2701 0.890625C13.0513 0.671875 12.7232 0.5625 12.5044 0.5625C12.1763 0.5625 11.9576 0.671875 11.7388 0.890625L0.801307 12.375C0.473182 12.7031 0.363807 13.1406 0.582557 13.5781C0.801307 14.0156 1.12943 14.2344 1.56693 14.2344H2.66068V21.0156C2.66068 21.5625 3.09818 22.1094 3.75443 22.1094H21.2544C21.8013 22.1094 22.3482 21.5625 22.3482 21.0156V14.2344H23.4419C23.8794 14.2344 24.3169 14.0156 24.4263 13.5781C24.6451 13.25 24.5357 12.7031 24.2076 12.375ZM20.1607 13.1406V19.9219H15.2388V15.6562C15.2388 14.4531 14.2544 13.5781 13.1607 13.5781H12.1763C10.9732 13.5781 10.0982 14.5625 10.0982 15.6562V19.9219H4.73881V13.1406C4.73881 12.5938 4.41068 12.2656 3.97318 12.0469L12.3951 3.1875L20.8169 12.0469C20.4888 12.2656 20.1607 12.7031 20.1607 13.1406Z" fill="#FF006E"/>
</svg>
