<svg width="19" height="17" viewBox="0 0 19 17" fill="none" xmlns="http://www.w3.org/2000/svg">
<path d="M2.54585 0.65918H16.729L18.5019 4.20497V15.7288C18.5019 15.9639 18.4085 16.1894 18.2423 16.3556C18.076 16.5219 17.8506 16.6152 17.6155 16.6152H1.6594C1.4243 16.6152 1.19883 16.5219 1.03258 16.3556C0.866343 16.1894 0.772949 15.9639 0.772949 15.7288V4.20852L2.54585 0.65918ZM16.729 5.97787H2.54585V14.8423H16.729V5.97787ZM16.5198 4.20497L15.6334 2.43208H3.64238L2.75593 4.20497H16.5198ZM10.5239 10.4101H13.1832L9.63743 13.9559L6.09164 10.4101H8.75098V6.86432H10.5239V10.4101Z" fill="#FF006E"/>
</svg>
