<svg width="22" height="22" viewBox="0 0 22 22" fill="none" xmlns="http://www.w3.org/2000/svg">
<path d="M1.96875 21.0937C2.10932 21.0931 2.24839 21.0647 2.37788 21.01C2.50737 20.9552 2.62472 20.8754 2.72312 20.775L8.21625 15.25C9.78058 16.4558 11.7304 17.0507 13.7014 16.9236C15.6724 16.7965 17.5297 15.9561 18.9262 14.5594C20.0397 13.4528 20.8099 12.0481 21.1441 10.5143C21.4784 8.98051 21.3625 7.3828 20.8105 5.91326C20.2584 4.44371 19.2937 3.16488 18.0322 2.23051C16.7708 1.29613 15.2663 0.745981 13.6997 0.646187C12.133 0.546392 10.5709 0.901204 9.20112 1.66797C7.83131 2.43473 6.7121 3.58081 5.97806 4.96843C5.24402 6.35605 4.92637 7.92615 5.06331 9.48998C5.20026 11.0538 5.78595 12.5448 6.75 13.7837L1.225 19.2769C1.02711 19.4759 0.916031 19.7452 0.916031 20.0259C0.916031 20.3066 1.02711 20.5759 1.225 20.775C1.42117 20.9752 1.68849 21.0897 1.96875 21.0937ZM8.875 4.62498C9.71577 3.78327 10.7873 3.20985 11.954 2.97727C13.1208 2.74469 14.3303 2.86339 15.4295 3.31836C16.5288 3.77333 17.4684 4.54412 18.1295 5.53322C18.7906 6.52232 19.1435 7.68529 19.1435 8.87498C19.1435 10.0647 18.7906 11.2276 18.1295 12.2167C17.4684 13.2058 16.5288 13.9766 15.4295 14.4316C14.3303 14.8866 13.1208 15.0053 11.954 14.7727C10.7873 14.5401 9.71577 13.9667 8.875 13.125C8.31601 12.5673 7.87252 11.9049 7.56992 11.1756C7.26733 10.4464 7.11157 9.66455 7.11157 8.87498C7.11157 8.08541 7.26733 7.3036 7.56992 6.57432C7.87252 5.84503 8.31601 5.18261 8.875 4.62498Z" fill="white"/>
</svg>
