<svg width="22" height="22" viewBox="0 0 22 22" fill="none" xmlns="http://www.w3.org/2000/svg">
<path d="M1.96876 21.0938C2.10934 21.0932 2.2484 21.0647 2.3779 21.01C2.50739 20.9553 2.62474 20.8754 2.72314 20.775L8.21626 15.25C9.78059 16.4558 11.7304 17.0507 13.7015 16.9236C15.6725 16.7965 17.5298 15.9561 18.9263 14.5594C20.0397 13.4528 20.8099 12.0482 21.1441 10.5143C21.4784 8.98054 21.3625 7.38282 20.8105 5.91328C20.2584 4.44373 19.2937 3.16491 18.0323 2.23053C16.7708 1.29616 15.2663 0.746004 13.6997 0.646209C12.1331 0.546415 10.5709 0.901227 9.20113 1.66799C7.83132 2.43475 6.71212 3.58084 5.97808 4.96846C5.24403 6.35608 4.92639 7.92618 5.06333 9.49001C5.20027 11.0538 5.78597 12.5448 6.75001 13.7838L1.22501 19.2769C1.02712 19.4759 0.916046 19.7452 0.916046 20.0259C0.916046 20.3066 1.02712 20.5759 1.22501 20.775C1.42118 20.9752 1.68851 21.0898 1.96876 21.0938ZM8.87501 4.625C9.71579 3.78329 10.7873 3.20988 11.9541 2.97729C13.1208 2.74471 14.3303 2.86341 15.4296 3.31838C16.5288 3.77335 17.4684 4.54415 18.1295 5.53325C18.7906 6.52235 19.1435 7.68531 19.1435 8.875C19.1435 10.0647 18.7906 11.2277 18.1295 12.2168C17.4684 13.2059 16.5288 13.9767 15.4296 14.4316C14.3303 14.8866 13.1208 15.0053 11.9541 14.7727C10.7873 14.5401 9.71579 13.9667 8.87501 13.125C8.31603 12.5674 7.87254 11.9049 7.56994 11.1757C7.26734 10.4464 7.11158 9.66457 7.11158 8.875C7.11158 8.08543 7.26734 7.30362 7.56994 6.57434C7.87254 5.84506 8.31603 5.18263 8.87501 4.625Z" fill="#FF006E"/>
</svg>
