<svg width="18" height="17" viewBox="0 0 18 17" fill="none" xmlns="http://www.w3.org/2000/svg">
<path d="M17.2854 8.46016V16.0951C17.2854 16.3201 17.1961 16.5359 17.037 16.695C16.8779 16.8541 16.6621 16.9434 16.4371 16.9434H15.5888C15.3638 16.9434 15.148 16.8541 14.9889 16.695C14.8298 16.5359 14.7404 16.3201 14.7404 16.0951V15.2468H2.86383V16.0951C2.86383 16.3201 2.77446 16.5359 2.61536 16.695C2.45627 16.8541 2.2405 16.9434 2.01551 16.9434H1.16718C0.942186 16.9434 0.72641 16.8541 0.567317 16.695C0.408225 16.5359 0.318848 16.3201 0.318848 16.0951V8.46016L2.4227 3.55003C2.55362 3.24463 2.77133 2.98439 3.04882 2.80162C3.3263 2.61884 3.65135 2.52156 3.98363 2.52185H6.25715V0.825195H11.3471V2.52185H13.6215C13.9535 2.52189 14.2782 2.61932 14.5553 2.80208C14.8325 2.98484 15.0499 3.2449 15.1807 3.55003L17.2854 8.46016ZM2.16481 8.46016H15.4395L13.6215 4.21851H3.98363L2.16566 8.46016H2.16481ZM4.13633 12.7018C4.47381 12.7018 4.79748 12.5677 5.03612 12.3291C5.27476 12.0905 5.40882 11.7668 5.40882 11.4293C5.40882 11.0918 5.27476 10.7682 5.03612 10.5295C4.79748 10.2909 4.47381 10.1568 4.13633 10.1568C3.79884 10.1568 3.47518 10.2909 3.23654 10.5295C2.9979 10.7682 2.86383 11.0918 2.86383 11.4293C2.86383 11.7668 2.9979 12.0905 3.23654 12.3291C3.47518 12.5677 3.79884 12.7018 4.13633 12.7018ZM13.4679 12.7018C13.8054 12.7018 14.1291 12.5677 14.3677 12.3291C14.6064 12.0905 14.7404 11.7668 14.7404 11.4293C14.7404 11.0918 14.6064 10.7682 14.3677 10.5295C14.1291 10.2909 13.8054 10.1568 13.4679 10.1568C13.1305 10.1568 12.8068 10.2909 12.5682 10.5295C12.3295 10.7682 12.1955 11.0918 12.1955 11.4293C12.1955 11.7668 12.3295 12.0905 12.5682 12.3291C12.8068 12.5677 13.1305 12.7018 13.4679 12.7018Z" fill="#FF006E"/>
</svg>
