<svg width="26" height="26" viewBox="0 0 26 26" fill="none" xmlns="http://www.w3.org/2000/svg">
<path d="M2.72 13.93V24.59C2.72 24.8552 2.82536 25.1096 3.01289 25.2971C3.20043 25.4846 3.45478 25.59 3.72 25.59H22.28C22.5452 25.59 22.7996 25.4846 22.9871 25.2971C23.1746 25.1096 23.28 24.8552 23.28 24.59V13.93C24.0062 13.6453 24.63 13.1488 25.0705 12.505C25.5109 11.8613 25.7477 11.1 25.75 10.32V9.75999C25.747 9.64665 25.7233 9.53481 25.68 9.42999L23.68 4.42999V1.42999C23.68 1.16478 23.5746 0.910422 23.3871 0.722886C23.1996 0.535349 22.9452 0.429993 22.68 0.429993H3.32C3.05478 0.429993 2.80043 0.535349 2.61289 0.722886C2.42536 0.910422 2.32 1.16478 2.32 1.42999V4.42999L0.32 9.42999C0.276745 9.53481 0.253021 9.64665 0.25 9.75999V10.32C0.252319 11.1 0.489078 11.8613 0.929538 12.505C1.37 13.1488 1.99381 13.6453 2.72 13.93ZM4 5.57999H22L23.27 8.78999H2.73L4 5.57999ZM17.81 10.79C17.7066 11.1929 17.4732 11.5504 17.1459 11.8071C16.8187 12.0638 16.4159 12.2054 16 12.21H15.91C15.4907 12.2099 15.0833 12.0703 14.752 11.8132C14.4207 11.5561 14.1843 11.1962 14.08 10.79H17.81ZM11.94 10.79C11.8357 11.1962 11.5993 11.5561 11.268 11.8132C10.9367 12.0703 10.5293 12.2099 10.11 12.21H10C9.58066 12.2099 9.17327 12.0703 8.84198 11.8132C8.51068 11.5561 8.27428 11.1962 8.17 10.79H11.94ZM6.07 10.79C5.96266 11.1945 5.72544 11.5525 5.39482 11.8091C5.0642 12.0656 4.65847 12.2065 4.24 12.21H4.15C3.73066 12.2099 3.32327 12.0703 2.99198 11.8132C2.66068 11.5561 2.42428 11.1962 2.32 10.79H6.07ZM12.48 23.59V19H17.18V23.62L12.48 23.59ZM19.18 23.59V18C19.18 17.7348 19.0746 17.4804 18.8871 17.2929C18.6996 17.1054 18.4452 17 18.18 17H11.48C11.2148 17 10.9604 17.1054 10.7729 17.2929C10.5854 17.4804 10.48 17.7348 10.48 18V23.62H4.72V14.16C5.64876 14.0436 6.50442 13.5963 7.13 12.9C7.48915 13.3082 7.93047 13.6358 8.42506 13.8616C8.91964 14.0873 9.45634 14.2061 10 14.21H10.09C10.6404 14.2117 11.1848 14.0957 11.6867 13.8698C12.1886 13.6439 12.6364 13.3132 13 12.9C13.3614 13.3107 13.8059 13.6398 14.3042 13.8657C14.8024 14.0915 15.343 14.2089 15.89 14.21H16C16.547 14.2089 17.0876 14.0915 17.5858 13.8657C18.0841 13.6398 18.5286 13.3107 18.89 12.9C19.5156 13.5963 20.3712 14.0436 21.3 14.16V23.59H19.18ZM21.85 12.21H21.76C21.3415 12.2065 20.9358 12.0656 20.6052 11.8091C20.2746 11.5525 20.0373 11.1945 19.93 10.79H23.68C23.5757 11.1962 23.3393 11.5561 23.008 11.8132C22.6767 12.0703 22.2693 12.2099 21.85 12.21ZM4.32 2.40999H21.69V3.57999H4.32V2.40999Z" fill="white"/>
</svg>
