<svg width="26" height="29" viewBox="0 0 26 29" fill="none" xmlns="http://www.w3.org/2000/svg">
<path d="M13.2891 2.4187C14.9416 2.4187 16.5263 3.16776 17.6948 4.5011C18.8632 5.83444 19.5196 7.64283 19.5196 9.52846V10.7134H23.6733V13.0833H22.4614L21.6754 23.8463C21.6537 24.1424 21.5354 24.4185 21.3439 24.6197C21.1523 24.821 20.9015 24.9328 20.6411 24.9329H5.93719C5.67681 24.9328 5.42598 24.821 5.23442 24.6197C5.04286 24.4185 4.92454 24.1424 4.90293 23.8463L4.11582 13.0833H2.90503V10.7134H7.05867V9.52846C7.05867 7.64283 7.7151 5.83444 8.88354 4.5011C10.052 3.16776 11.6367 2.4187 13.2891 2.4187V2.4187ZM20.3773 13.0833H6.19991L6.89253 22.563H19.6847L20.3773 13.0833ZM14.3276 15.4533V20.1931H12.2507V15.4533H14.3276ZM10.1739 15.4533V20.1931H8.09709V15.4533H10.1739ZM18.4812 15.4533V20.1931H16.4044V15.4533H18.4812ZM13.2891 4.78862C12.2235 4.78862 11.1986 5.25601 10.4264 6.09412C9.65429 6.93223 9.19397 8.07693 9.14069 9.29147L9.1355 9.52846V10.7134H17.4428V9.52846C17.4428 8.3124 17.0332 7.14286 16.2987 6.26175C15.5643 5.38063 14.5612 4.85535 13.4968 4.79454L13.2891 4.78862Z" fill="white"/>
</svg>
