<svg width="50" height="65" viewBox="0 0 50 65" fill="none" xmlns="http://www.w3.org/2000/svg">
<path d="M25 64.0954C36.1459 64.0954 45.1815 62.3595 45.1815 60.2181C45.1815 58.0767 36.1459 56.3408 25 56.3408C13.8541 56.3408 4.81851 58.0767 4.81851 60.2181C4.81851 62.3595 13.8541 64.0954 25 64.0954Z" fill="#98A4AF"/>
<path d="M28.2286 58.0359L38.0118 41.0905C39.4442 38.6081 37.6518 35.5033 34.787 35.5033H15.2167C12.3481 35.5033 10.5557 38.6081 11.9919 41.0905L21.7751 58.0359C23.2076 60.5183 26.7924 60.5183 28.2286 58.0359Z" fill="#EAF4FF"/>
<path d="M25 50C38.8071 50 50 38.8071 50 25C50 11.1929 38.8071 0 25 0C11.1929 0 0 11.1929 0 25C0 38.8071 11.1929 50 25 50Z" fill="#EAF4FF"/>
<path d="M25 45.1815C36.1459 45.1815 45.1815 36.1459 45.1815 25C45.1815 13.854 36.1459 4.81848 25 4.81848C13.8541 4.81848 4.81851 13.854 4.81851 25C4.81851 36.1459 13.8541 45.1815 25 45.1815Z" fill="#FF7300"/>
<path d="M31.8509 22.9002C32.7734 22.9002 33.6471 22.5027 34.2508 21.809C34.8545 21.1153 35.1282 20.1928 35.0083 19.3229L34.6895 15.9968C34.4083 13.9419 32.6309 12.397 30.5572 12.397C28.4836 12.397 26.7062 13.9456 26.4174 16.0418L26.1099 19.2816C25.9825 20.1928 26.2599 21.1153 26.8637 21.809C27.4674 22.5027 28.3448 22.9002 29.2635 22.9002H29.5298V24.6664C28.4198 25.0338 27.6136 26.0688 27.6136 27.3025V34.8171C27.6136 36.3545 28.8623 37.6032 30.3997 37.6032H30.7072C32.2446 37.6032 33.4971 36.3545 33.4971 34.8171V27.3025C33.4971 26.0725 32.6871 25.0338 31.5809 24.6664V22.9002H31.8509ZM30.7147 26.5638C31.1234 26.5638 31.4534 26.8937 31.4534 27.3025V28.8624H29.6685V27.3025C29.6685 26.8937 29.9985 26.5638 30.4072 26.5638H30.7147ZM29.6685 30.9135H31.4534V31.9185H29.6685V30.9135ZM30.7147 35.5521H30.4072C30.0023 35.5521 29.6685 35.2221 29.6685 34.8133V33.9659H31.4534V34.8133C31.4534 35.2221 31.1234 35.5521 30.7147 35.5521ZM28.4161 20.4628C28.1986 20.2116 28.1011 19.8928 28.1536 19.5216L28.4611 16.2818C28.6073 15.2393 29.511 14.4481 30.5647 14.4481C31.6184 14.4481 32.5221 15.2356 32.6609 16.2368L32.9796 19.5629C33.0246 19.8928 32.9309 20.2116 32.7096 20.4628C32.4921 20.7141 32.1884 20.8528 31.8547 20.8528H29.2748C28.9373 20.8528 28.6336 20.7141 28.4161 20.4628Z" fill="#EAF4FF"/>
<path d="M21.4377 22.9002C22.6076 22.9002 23.6276 22.109 23.9238 20.9765C24.535 18.6329 24.3963 16.383 23.5151 14.2869C23.2938 13.7619 22.6901 13.5256 22.1726 13.7394C21.6514 13.9606 21.4077 14.5606 21.6252 15.0818C22.3414 16.7767 22.4426 18.5354 21.9402 20.459C21.8802 20.6878 21.6739 20.849 21.4377 20.849H20.759V15.1531C20.759 14.5868 20.3015 14.1294 19.7353 14.1294C19.169 14.1294 18.7116 14.5868 18.7116 15.1531V20.849H17.8266C17.5941 20.849 17.3879 20.6915 17.3279 20.4665C16.8179 18.6554 16.9342 16.8892 17.6804 15.0706C17.8941 14.5456 17.6466 13.9494 17.1216 13.7319C16.6004 13.5144 16.0005 13.7656 15.783 14.2906C14.868 16.518 14.7218 18.7829 15.3517 21.0215C15.663 22.1277 16.6792 22.9002 17.8266 22.9002H18.7116V24.6663C17.6016 25.0338 16.7954 26.0688 16.7954 27.3024V34.8171C16.7954 36.3545 18.0441 37.6032 19.5815 37.6032H19.8928C21.4302 37.6032 22.6826 36.3545 22.6826 34.8171V27.3024C22.6826 26.0725 21.8727 25.0338 20.7665 24.6663V22.9002H21.4377ZM19.8853 26.5637C20.294 26.5637 20.624 26.8937 20.624 27.3024V28.8624H18.8391V27.3024C18.8391 26.8937 19.169 26.5637 19.5778 26.5637H19.8853ZM18.8391 30.9135H20.624V31.9185H18.8391V30.9135ZM19.8853 35.552H19.574C19.169 35.552 18.8353 35.222 18.8353 34.8133V33.9659H20.6202V34.8133C20.624 35.222 20.294 35.552 19.8853 35.552Z" fill="#EAF4FF"/>
</svg>
